<svg version="1.1" viewBox="0.0 0.0 960.0 720.0" fill="none" stroke="none" stroke-linecap="square" stroke-miterlimit="10" xmlns:xlink="http://www.w3.org/1999/xlink" xmlns="http://www.w3.org/2000/svg"><clipPath id="p.0"><path d="m0 0l960.0 0l0 720.0l-960.0 0l0 -720.0z" clip-rule="nonzero"/></clipPath><g clip-path="url(#p.0)"><path fill="#000000" fill-opacity="0.0" d="m0 0l960.0 0l0 720.0l-960.0 0z" fill-rule="evenodd"/><path fill="#00ff00" d="m53.56693 363.94226l158.3386 -316.67703l534.0945 0l158.33856 316.67703l-158.33856 316.677l-534.0945 0z" fill-rule="evenodd"/><path stroke="#000000" stroke-width="1.0" stroke-linejoin="round" stroke-linecap="butt" d="m53.56693 363.94226l158.3386 -316.67703l534.0945 0l158.33856 316.67703l-158.33856 316.677l-534.0945 0z" fill-rule="evenodd"/><path fill="#38761d" d="m171.72966 363.14435l62.62204 -125.24403l158.34645 0l62.62207 125.24403l-62.62207 125.24405l-158.34645 0z" fill-rule="evenodd"/><path stroke="#000000" stroke-width="1.0" stroke-linejoin="round" stroke-linecap="butt" d="m171.72966 363.14435l62.62204 -125.24403l158.34645 0l62.62207 125.24403l-62.62207 125.24405l-158.34645 0z" fill-rule="evenodd"/><path fill="#6aa84f" d="m496.52756 363.94226l62.62204 -125.24403l158.34644 0l62.62207 125.24403l-62.62207 125.24402l-158.34644 0z" fill-rule="evenodd"/><path stroke="#000000" stroke-width="1.0" stroke-linejoin="round" stroke-linecap="butt" d="m496.52756 363.94226l62.62204 -125.24403l158.34644 0l62.62207 125.24403l-62.62207 125.24402l-158.34644 0z" fill-rule="evenodd"/><path fill="#000000" fill-opacity="0.0" d="m207.96588 307.22046l211.1181 0l0 116.346466l-211.1181 0z" fill-rule="evenodd"/><path fill="#ff0000" d="m244.94884 337.4142l3.640625 0.625q-0.703125 2.0 -2.21875 3.046875q-1.515625 1.046875 -3.796875 1.046875q-3.609375 0 -5.328125 -2.359375q-1.375 -1.890625 -1.375 -4.765625q0 -3.4375 1.796875 -5.375q1.796875 -1.953125 4.546875 -1.953125q3.078125 0 4.859375 2.046875q1.78125 2.03125 1.703125 6.234375l-9.15625 0q0.046875 1.625 0.890625 2.53125q0.84375 0.90625 2.109375 0.90625q0.859375 0 1.4375 -0.46875q0.59375 -0.46875 0.890625 -1.515625zm0.203125 -3.6875q-0.03125 -1.59375 -0.8125 -2.421875q-0.78125 -0.828125 -1.90625 -0.828125q-1.203125 0 -1.984375 0.875q-0.78125 0.875 -0.765625 2.375l5.46875 0zm-4.671875 -7.421875l1.796875 -3.890625l4.09375 0l-3.578125 3.890625l-2.3125 0zm17.62181 1.6875l0 2.921875l-2.5 0l0 5.5625q0 1.703125 0.0625 1.984375q0.078125 0.28125 0.328125 0.46875q0.265625 0.171875 0.625 0.171875q0.515625 0 1.46875 -0.359375l0.3125 2.84375q-1.265625 0.546875 -2.890625 0.546875q-0.984375 0 -1.78125 -0.328125q-0.796875 -0.328125 -1.171875 -0.859375q-0.359375 -0.53125 -0.5 -1.421875q-0.125 -0.640625 -0.125 -2.578125l0 -6.03125l-1.671875 0l0 -2.921875l1.671875 0l0 -2.734375l3.671875 -2.140625l0 4.875l2.5 0zm11.6423645 13.828125l0 -2.0625q-0.765625 1.09375 -2.0 1.734375q-1.21875 0.640625 -2.578125 0.640625q-1.40625 0 -2.515625 -0.609375q-1.09375 -0.609375 -1.59375 -1.71875q-0.5 -1.109375 -0.5 -3.0625l0 -8.75l3.671875 0l0 6.359375q0 2.90625 0.1875 3.578125q0.203125 0.65625 0.734375 1.046875q0.546875 0.375 1.359375 0.375q0.9375 0 1.671875 -0.515625q0.75 -0.515625 1.015625 -1.28125q0.28125 -0.765625 0.28125 -3.71875l0 -5.84375l3.65625 0l0 13.828125l-3.390625 0zm19.86081 0l-3.40625 0l0 -2.03125q-0.84375 1.1875 -2.0 1.765625q-1.140625 0.578125 -2.3125 0.578125q-2.390625 0 -4.09375 -1.921875q-1.6875 -1.921875 -1.6875 -5.359375q0 -3.515625 1.65625 -5.34375q1.65625 -1.828125 4.171875 -1.828125q2.3125 0 4.015625 1.9375l0 -6.875l3.65625 0l0 19.078125zm-9.765625 -7.203125q0 2.203125 0.609375 3.1875q0.890625 1.4375 2.46875 1.4375q1.265625 0 2.15625 -1.0625q0.890625 -1.078125 0.890625 -3.21875q0 -2.375 -0.859375 -3.421875q-0.859375 -1.0625 -2.203125 -1.0625q-1.296875 0 -2.1875 1.046875q-0.875 1.03125 -0.875 3.09375zm13.36084 -8.5l0 -3.375l3.671875 0l0 3.375l-3.671875 0zm0 15.703125l0 -13.828125l3.671875 0l0 13.828125l-3.671875 0zm10.14032 -9.609375l-3.3125 -0.59375q0.5625 -2.0 1.921875 -2.96875q1.375 -0.96875 4.0625 -0.96875q2.453125 0 3.640625 0.578125q1.203125 0.578125 1.6875 1.484375q0.5 0.890625 0.5 3.265625l-0.046875 4.265625q0 1.828125 0.171875 2.703125q0.171875 0.859375 0.65625 1.84375l-3.609375 0q-0.140625 -0.359375 -0.359375 -1.078125q-0.09375 -0.328125 -0.125 -0.4375q-0.9375 0.921875 -2.015625 1.375q-1.0625 0.453125 -2.265625 0.453125q-2.140625 0 -3.375 -1.15625q-1.21875 -1.15625 -1.21875 -2.9375q0 -1.171875 0.546875 -2.078125q0.5625 -0.921875 1.578125 -1.40625q1.015625 -0.484375 2.90625 -0.859375q2.5625 -0.484375 3.5625 -0.890625l0 -0.375q0 -1.046875 -0.53125 -1.5q-0.515625 -0.453125 -1.96875 -0.453125q-0.96875 0 -1.515625 0.390625q-0.546875 0.390625 -0.890625 1.34375zm4.90625 2.96875q-0.703125 0.234375 -2.234375 0.5625q-1.515625 0.328125 -1.984375 0.640625q-0.71875 0.5 -0.71875 1.28125q0 0.765625 0.5625 1.328125q0.578125 0.5625 1.46875 0.5625q0.984375 0 1.890625 -0.65625q0.65625 -0.484375 0.859375 -1.203125q0.15625 -0.46875 0.15625 -1.78125l0 -0.734375zm19.762451 6.640625l-3.65625 0l0 -7.046875q0 -2.25 -0.234375 -2.90625q-0.234375 -0.65625 -0.765625 -1.015625q-0.515625 -0.375 -1.265625 -0.375q-0.953125 0 -1.703125 0.53125q-0.75 0.515625 -1.03125 1.375q-0.28125 0.859375 -0.28125 3.171875l0 6.265625l-3.65625 0l0 -13.828125l3.390625 0l0 2.03125q1.8125 -2.34375 4.5625 -2.34375q1.203125 0 2.203125 0.4375q1.015625 0.4375 1.515625 1.125q0.515625 0.671875 0.71875 1.53125q0.203125 0.859375 0.203125 2.453125l0 8.59375zm10.048309 -13.828125l0 2.921875l-2.5 0l0 5.5625q0 1.703125 0.0625 1.984375q0.078125 0.28125 0.328125 0.46875q0.265625 0.171875 0.625 0.171875q0.515625 0 1.46875 -0.359375l0.3125 2.84375q-1.265625 0.546875 -2.890625 0.546875q-0.984375 0 -1.78125 -0.328125q-0.796875 -0.328125 -1.171875 -0.859375q-0.359375 -0.53125 -0.5 -1.421875q-0.125 -0.640625 -0.125 -2.578125l0 -6.03125l-1.671875 0l0 -2.921875l1.671875 0l0 -2.734375l3.671875 -2.140625l0 4.875l2.5 0zm1.2517395 9.890625l3.671875 -0.5625q0.234375 1.0625 0.953125 1.625q0.71875 0.546875 2.0 0.546875q1.421875 0 2.140625 -0.515625q0.46875 -0.375 0.46875 -0.984375q0 -0.421875 -0.25 -0.6875q-0.28125 -0.265625 -1.234375 -0.484375q-4.421875 -0.96875 -5.609375 -1.78125q-1.640625 -1.125 -1.640625 -3.109375q0 -1.796875 1.421875 -3.015625q1.421875 -1.234375 4.40625 -1.234375q2.828125 0 4.203125 0.9375q1.390625 0.921875 1.90625 2.71875l-3.4375 0.640625q-0.234375 -0.796875 -0.859375 -1.21875q-0.609375 -0.4375 -1.75 -0.4375q-1.4375 0 -2.0625 0.390625q-0.421875 0.296875 -0.421875 0.75q0 0.390625 0.359375 0.65625q0.5 0.375 3.421875 1.046875q2.921875 0.65625 4.078125 1.609375q1.140625 0.984375 1.140625 2.71875q0 1.90625 -1.59375 3.28125q-1.578125 1.359375 -4.6875 1.359375q-2.828125 0 -4.484375 -1.140625q-1.640625 -1.15625 -2.140625 -3.109375zm36.199646 3.9375l-3.40625 0l0 -2.03125q-0.84375 1.1875 -2.0 1.765625q-1.140625 0.578125 -2.3125 0.578125q-2.390625 0 -4.09375 -1.921875q-1.6875 -1.921875 -1.6875 -5.359375q0 -3.515625 1.65625 -5.34375q1.65625 -1.828125 4.171875 -1.828125q2.3125 0 4.015625 1.9375l0 -6.875l3.65625 0l0 19.078125zm-9.765625 -7.203125q0 2.203125 0.609375 3.1875q0.890625 1.4375 2.46875 1.4375q1.265625 0 2.15625 -1.0625q0.890625 -1.078125 0.890625 -3.21875q0 -2.375 -0.859375 -3.421875q-0.859375 -1.0625 -2.203125 -1.0625q-1.296875 0 -2.1875 1.046875q-0.875 1.03125 -0.875 3.09375zm21.376465 2.796875l3.640625 0.625q-0.703125 2.0 -2.21875 3.046875q-1.515625 1.046875 -3.796875 1.046875q-3.609375 0 -5.328125 -2.359375q-1.375 -1.890625 -1.375 -4.765625q0 -3.4375 1.796875 -5.375q1.796875 -1.953125 4.546875 -1.953125q3.078125 0 4.859375 2.046875q1.78125 2.03125 1.703125 6.234375l-9.15625 0q0.046875 1.625 0.890625 2.53125q0.84375 0.90625 2.109375 0.90625q0.859375 0 1.4375 -0.46875q0.59375 -0.46875 0.890625 -1.515625zm0.203125 -3.6875q-0.03125 -1.59375 -0.8125 -2.421875q-0.78125 -0.828125 -1.90625 -0.828125q-1.203125 0 -1.984375 0.875q-0.78125 0.875 -0.765625 2.375l5.46875 0z" fill-rule="nonzero"/><path fill="#ff0000" d="m244.11139 373.82047l0 -19.078125l3.671875 0l0 19.078125l-3.671875 0zm7.390335 -12.296875l-0.6875 -3.5625l0 -3.21875l3.984375 0l0 3.21875l-0.609375 3.5625l-2.6875 0zm6.354294 -6.78125l3.859375 0l0 10.328125q0 2.46875 0.140625 3.1875q0.25 1.171875 1.171875 1.890625q0.9375 0.703125 2.546875 0.703125q1.640625 0 2.46875 -0.671875q0.84375 -0.671875 1.015625 -1.640625q0.171875 -0.984375 0.171875 -3.25l0 -10.546875l3.84375 0l0 10.015625q0 3.4375 -0.3125 4.859375q-0.3125 1.421875 -1.15625 2.40625q-0.828125 0.96875 -2.234375 1.546875q-1.40625 0.578125 -3.671875 0.578125q-2.734375 0 -4.15625 -0.625q-1.40625 -0.640625 -2.234375 -1.640625q-0.8125 -1.015625 -1.0625 -2.125q-0.390625 -1.640625 -0.390625 -4.84375l0 -10.171875zm31.82843 19.078125l-3.65625 0l0 -7.046875q0 -2.25 -0.234375 -2.90625q-0.234375 -0.65625 -0.765625 -1.015625q-0.515625 -0.375 -1.265625 -0.375q-0.953125 0 -1.703125 0.53125q-0.75 0.515625 -1.03125 1.375q-0.28125 0.859375 -0.28125 3.171875l0 6.265625l-3.65625 0l0 -13.828125l3.390625 0l0 2.03125q1.8125 -2.34375 4.5625 -2.34375q1.203125 0 2.203125 0.4375q1.015625 0.4375 1.515625 1.125q0.515625 0.671875 0.71875 1.53125q0.203125 0.859375 0.203125 2.453125l0 8.59375zm3.7045593 -15.703125l0 -3.375l3.671875 0l0 3.375l-3.671875 0zm0 15.703125l0 -13.828125l3.671875 0l0 13.828125l-3.671875 0zm11.218475 0l-5.578125 -13.828125l3.84375 0l2.609375 7.0625l0.75 2.359375q0.296875 -0.90625 0.375 -1.1875q0.1875 -0.59375 0.390625 -1.171875l2.625 -7.0625l3.765625 0l-5.5 13.828125l-3.28125 0zm19.028046 -4.40625l3.640625 0.625q-0.703125 2.0 -2.21875 3.046875q-1.515625 1.046875 -3.796875 1.046875q-3.609375 0 -5.328125 -2.359375q-1.375 -1.890625 -1.375 -4.765625q0 -3.4375 1.796875 -5.375q1.796875 -1.953125 4.546875 -1.953125q3.078125 0 4.859375 2.046875q1.78125 2.03125 1.703125 6.234375l-9.15625 0q0.046875 1.625 0.890625 2.53125q0.84375 0.90625 2.109375 0.90625q0.859375 0 1.4375 -0.46875q0.59375 -0.46875 0.890625 -1.515625zm0.203125 -3.6875q-0.03125 -1.59375 -0.8125 -2.421875q-0.78125 -0.828125 -1.90625 -0.828125q-1.203125 0 -1.984375 0.875q-0.78125 0.875 -0.765625 2.375l5.46875 0zm10.121826 8.09375l-3.671875 0l0 -13.828125l3.40625 0l0 1.96875q0.875 -1.390625 1.5625 -1.828125q0.703125 -0.453125 1.578125 -0.453125q1.25 0 2.421875 0.703125l-1.140625 3.1875q-0.921875 -0.609375 -1.71875 -0.609375q-0.765625 0 -1.296875 0.421875q-0.53125 0.421875 -0.84375 1.53125q-0.296875 1.109375 -0.296875 4.640625l0 4.265625zm5.57666 -3.9375l3.671875 -0.5625q0.234375 1.0625 0.953125 1.625q0.71875 0.546875 2.0 0.546875q1.421875 0 2.140625 -0.515625q0.46875 -0.375 0.46875 -0.984375q0 -0.421875 -0.25 -0.6875q-0.28125 -0.265625 -1.234375 -0.484375q-4.421875 -0.96875 -5.609375 -1.78125q-1.640625 -1.125 -1.640625 -3.109375q0 -1.796875 1.421875 -3.015625q1.421875 -1.234375 4.40625 -1.234375q2.828125 0 4.203125 0.9375q1.390625 0.921875 1.90625 2.71875l-3.4375 0.640625q-0.234375 -0.796875 -0.859375 -1.21875q-0.609375 -0.4375 -1.75 -0.4375q-1.4375 0 -2.0625 0.390625q-0.421875 0.296875 -0.421875 0.75q0 0.390625 0.359375 0.65625q0.5 0.375 3.421875 1.046875q2.921875 0.65625 4.078125 1.609375q1.140625 0.984375 1.140625 2.71875q0 1.90625 -1.59375 3.28125q-1.578125 1.359375 -4.6875 1.359375q-2.828125 0 -4.484375 -1.140625q-1.640625 -1.15625 -2.140625 -3.109375zm16.106201 -11.765625l0 -3.375l3.671875 0l0 3.375l-3.671875 0zm0 15.703125l0 -13.828125l3.671875 0l0 13.828125l-3.671875 0zm13.749695 -13.828125l0 2.921875l-2.5 0l0 5.5625q0 1.703125 0.0625 1.984375q0.078125 0.28125 0.328125 0.46875q0.265625 0.171875 0.625 0.171875q0.515625 0 1.46875 -0.359375l0.3125 2.84375q-1.265625 0.546875 -2.890625 0.546875q-0.984375 0 -1.78125 -0.328125q-0.796875 -0.328125 -1.171875 -0.859375q-0.359375 -0.53125 -0.5 -1.421875q-0.125 -0.640625 -0.125 -2.578125l0 -6.03125l-1.671875 0l0 -2.921875l1.671875 0l0 -2.734375l3.671875 -2.140625l0 4.875l2.5 0zm10.5486145 9.421875l3.640625 0.625q-0.703125 2.0 -2.21875 3.046875q-1.515625 1.046875 -3.796875 1.046875q-3.609375 0 -5.328125 -2.359375q-1.375 -1.890625 -1.375 -4.765625q0 -3.4375 1.796875 -5.375q1.796875 -1.953125 4.546875 -1.953125q3.078125 0 4.859375 2.046875q1.78125 2.03125 1.703125 6.234375l-9.15625 0q0.046875 1.625 0.890625 2.53125q0.84375 0.90625 2.109375 0.90625q0.859375 0 1.4375 -0.46875q0.59375 -0.46875 0.890625 -1.515625zm0.203125 -3.6875q-0.03125 -1.59375 -0.8125 -2.421875q-0.78125 -0.828125 -1.90625 -0.828125q-1.203125 0 -1.984375 0.875q-0.78125 0.875 -0.765625 2.375l5.46875 0zm-4.671875 -7.421875l1.796875 -3.890625l4.09375 0l-3.578125 3.890625l-2.3125 0z" fill-rule="nonzero"/><path fill="#ff0000" d="m271.74252 405.82047l0 -19.078125l6.1875 0q3.515625 0 4.578125 0.28125q1.640625 0.4375 2.75 1.875q1.109375 1.4375 1.109375 3.703125q0 1.765625 -0.640625 2.96875q-0.640625 1.1875 -1.625 1.875q-0.984375 0.6875 -2.0 0.90625q-1.375 0.265625 -4.0 0.265625l-2.5 0l0 7.203125l-3.859375 0zm3.859375 -15.859375l0 5.421875l2.109375 0q2.265625 0 3.03125 -0.296875q0.78125 -0.296875 1.21875 -0.9375q0.4375 -0.640625 0.4375 -1.484375q0 -1.046875 -0.625 -1.71875q-0.609375 -0.671875 -1.546875 -0.84375q-0.6875 -0.140625 -2.765625 -0.140625l-1.859375 0zm16.62326 6.25l-3.3125 -0.59375q0.5625 -2.0 1.921875 -2.96875q1.375 -0.96875 4.0625 -0.96875q2.453125 0 3.640625 0.578125q1.203125 0.578125 1.6875 1.484375q0.5 0.890625 0.5 3.265625l-0.046875 4.265625q0 1.828125 0.171875 2.703125q0.171875 0.859375 0.65625 1.84375l-3.609375 0q-0.140625 -0.359375 -0.359375 -1.078125q-0.09375 -0.328125 -0.125 -0.4375q-0.9375 0.921875 -2.015625 1.375q-1.0625 0.453125 -2.265625 0.453125q-2.140625 0 -3.375 -1.15625q-1.21875 -1.15625 -1.21875 -2.9375q0 -1.171875 0.546875 -2.078125q0.5625 -0.921875 1.578125 -1.40625q1.015625 -0.484375 2.90625 -0.859375q2.5625 -0.484375 3.5625 -0.890625l0 -0.375q0 -1.046875 -0.53125 -1.5q-0.515625 -0.453125 -1.96875 -0.453125q-0.96875 0 -1.515625 0.390625q-0.546875 0.390625 -0.890625 1.34375zm4.90625 2.96875q-0.703125 0.234375 -2.234375 0.5625q-1.515625 0.328125 -1.984375 0.640625q-0.71875 0.5 -0.71875 1.28125q0 0.765625 0.5625 1.328125q0.578125 0.5625 1.46875 0.5625q0.984375 0 1.890625 -0.65625q0.65625 -0.484375 0.859375 -1.203125q0.15625 -0.46875 0.15625 -1.78125l0 -0.734375zm10.699951 6.640625l-3.671875 0l0 -13.828125l3.40625 0l0 1.96875q0.875 -1.390625 1.5625 -1.828125q0.703125 -0.453125 1.578125 -0.453125q1.25 0 2.421875 0.703125l-1.140625 3.1875q-0.921875 -0.609375 -1.71875 -0.609375q-0.765625 0 -1.296875 0.421875q-0.53125 0.421875 -0.84375 1.53125q-0.296875 1.109375 -0.296875 4.640625l0 4.265625zm6.85791 -15.703125l0 -3.375l3.671875 0l0 3.375l-3.671875 0zm0 15.703125l0 -13.828125l3.671875 0l0 13.828125l-3.671875 0zm6.1247253 -3.9375l3.671875 -0.5625q0.234375 1.0625 0.953125 1.625q0.71875 0.546875 2.0 0.546875q1.421875 0 2.140625 -0.515625q0.46875 -0.375 0.46875 -0.984375q0 -0.421875 -0.25 -0.6875q-0.28125 -0.265625 -1.234375 -0.484375q-4.421875 -0.96875 -5.609375 -1.78125q-1.640625 -1.125 -1.640625 -3.109375q0 -1.796875 1.421875 -3.015625q1.421875 -1.234375 4.40625 -1.234375q2.828125 0 4.203125 0.9375q1.390625 0.921875 1.90625 2.71875l-3.4375 0.640625q-0.234375 -0.796875 -0.859375 -1.21875q-0.609375 -0.4375 -1.75 -0.4375q-1.4375 0 -2.0625 0.390625q-0.421875 0.296875 -0.421875 0.75q0 0.390625 0.359375 0.65625q0.5 0.375 3.421875 1.046875q2.921875 0.65625 4.078125 1.609375q1.140625 0.984375 1.140625 2.71875q0 1.90625 -1.59375 3.28125q-1.578125 1.359375 -4.6875 1.359375q-2.828125 0 -4.484375 -1.140625q-1.640625 -1.15625 -2.140625 -3.109375zm25.871521 -6.359375q-1.421875 -0.59375 -2.0625 -1.640625q-0.640625 -1.046875 -0.640625 -2.296875q0 -2.140625 1.484375 -3.53125q1.5 -1.390625 4.234375 -1.390625q2.734375 0 4.234375 1.390625q1.5 1.390625 1.5 3.53125q0 1.328125 -0.6875 2.359375q-0.6875 1.03125 -1.9375 1.578125q1.578125 0.640625 2.40625 1.875q0.828125 1.21875 0.828125 2.8125q0 2.640625 -1.6875 4.296875q-1.6875 1.65625 -4.484375 1.65625q-2.59375 0 -4.328125 -1.375q-2.046875 -1.609375 -2.046875 -4.421875q0 -1.546875 0.765625 -2.84375q0.765625 -1.296875 2.421875 -2.0zm0.765625 -3.6875q0 1.09375 0.609375 1.71875q0.625 0.609375 1.640625 0.609375q1.046875 0 1.671875 -0.625q0.625 -0.625 0.625 -1.703125q0 -1.03125 -0.625 -1.640625q-0.609375 -0.625 -1.625 -0.625q-1.046875 0 -1.671875 0.625q-0.625 0.625 -0.625 1.640625zm-0.34375 8.171875q0 1.515625 0.765625 2.359375q0.78125 0.84375 1.9375 0.84375q1.140625 0 1.875 -0.8125q0.75 -0.8125 0.75 -2.34375q0 -1.34375 -0.765625 -2.15625q-0.75 -0.8125 -1.90625 -0.8125q-1.34375 0 -2.0 0.921875q-0.65625 0.921875 -0.65625 2.0z" fill-rule="nonzero"/><path fill="#000000" fill-opacity="0.0" d="m535.6667 307.22046l211.1181 0l0 138.96063l-211.1181 0z" fill-rule="evenodd"/><path fill="#ff0000" d="m570.4044 337.4142l3.640625 0.625q-0.703125 2.0 -2.21875 3.046875q-1.515625 1.046875 -3.796875 1.046875q-3.609375 0 -5.328125 -2.359375q-1.375 -1.890625 -1.375 -4.765625q0 -3.4375 1.796875 -5.375q1.796875 -1.953125 4.546875 -1.953125q3.078125 0 4.859375 2.046875q1.78125 2.03125 1.703125 6.234375l-9.15625 0q0.046875 1.625 0.890625 2.53125q0.84375 0.90625 2.109375 0.90625q0.859375 0 1.4375 -0.46875q0.59375 -0.46875 0.890625 -1.515625zm0.203125 -3.6875q-0.03125 -1.59375 -0.8125 -2.421875q-0.78125 -0.828125 -1.90625 -0.828125q-1.203125 0 -1.984375 0.875q-0.78125 0.875 -0.765625 2.375l5.46875 0zm6.340576 -5.734375l3.375 0l0 1.890625q1.796875 -2.203125 4.296875 -2.203125q1.328125 0 2.296875 0.546875q0.984375 0.546875 1.609375 1.65625q0.921875 -1.109375 1.96875 -1.65625q1.0625 -0.546875 2.25 -0.546875q1.53125 0 2.578125 0.625q1.0625 0.609375 1.578125 1.8125q0.375 0.890625 0.375 2.859375l0 8.84375l-3.65625 0l0 -7.90625q0 -2.046875 -0.375 -2.65625q-0.515625 -0.78125 -1.5625 -0.78125q-0.765625 0 -1.453125 0.46875q-0.671875 0.46875 -0.96875 1.375q-0.296875 0.90625 -0.296875 2.859375l0 6.640625l-3.65625 0l0 -7.578125q0 -2.015625 -0.203125 -2.59375q-0.1875 -0.59375 -0.609375 -0.875q-0.40625 -0.296875 -1.109375 -0.296875q-0.84375 0 -1.515625 0.46875q-0.671875 0.453125 -0.96875 1.3125q-0.296875 0.859375 -0.296875 2.84375l0 6.71875l-3.65625 0l0 -13.828125zm23.873535 0l3.40625 0l0 2.03125q0.671875 -1.03125 1.796875 -1.6875q1.125 -0.65625 2.515625 -0.65625q2.40625 0 4.078125 1.890625q1.6875 1.890625 1.6875 5.265625q0 3.453125 -1.703125 5.375q-1.6875 1.921875 -4.09375 1.921875q-1.140625 0 -2.078125 -0.453125q-0.921875 -0.453125 -1.953125 -1.5625l0 6.96875l-3.65625 0l0 -19.09375zm3.609375 6.6875q0 2.328125 0.921875 3.4375q0.9375 1.109375 2.265625 1.109375q1.265625 0 2.109375 -1.015625q0.859375 -1.03125 0.859375 -3.359375q0 -2.171875 -0.875 -3.21875q-0.875 -1.0625 -2.171875 -1.0625q-1.328125 0 -2.21875 1.046875q-0.890625 1.03125 -0.890625 3.0625zm12.76709 7.140625l0 -19.078125l3.671875 0l0 19.078125l-3.671875 0zm6.562195 -7.109375q0 -1.8125 0.890625 -3.515625q0.90625 -1.71875 2.546875 -2.609375q1.65625 -0.90625 3.6875 -0.90625q3.140625 0 5.140625 2.046875q2.0 2.03125 2.0 5.140625q0 3.140625 -2.03125 5.203125q-2.015625 2.0625 -5.078125 2.0625q-1.90625 0 -3.640625 -0.859375q-1.71875 -0.859375 -2.625 -2.515625q-0.890625 -1.65625 -0.890625 -4.046875zm3.75 0.203125q0 2.046875 0.96875 3.140625q0.984375 1.09375 2.421875 1.09375q1.421875 0 2.390625 -1.09375q0.984375 -1.09375 0.984375 -3.171875q0 -2.03125 -0.984375 -3.125q-0.96875 -1.09375 -2.390625 -1.09375q-1.4375 0 -2.421875 1.09375q-0.96875 1.09375 -0.96875 3.15625zm11.657715 -6.921875l3.890625 0l3.296875 9.8125l3.234375 -9.8125l3.78125 0l-4.875 13.3125l-0.875 2.40625q-0.484375 1.203125 -0.921875 1.84375q-0.4375 0.640625 -1.0 1.03125q-0.5625 0.40625 -1.390625 0.625q-0.828125 0.21875 -1.859375 0.21875q-1.0625 0 -2.078125 -0.21875l-0.328125 -2.859375q0.859375 0.15625 1.546875 0.15625q1.28125 0 1.890625 -0.75q0.609375 -0.734375 0.9375 -1.90625l-5.25 -13.859375zm24.559265 9.421875l3.640625 0.625q-0.703125 2.0 -2.21875 3.046875q-1.515625 1.046875 -3.796875 1.046875q-3.609375 0 -5.328125 -2.359375q-1.375 -1.890625 -1.375 -4.765625q0 -3.4375 1.796875 -5.375q1.796875 -1.953125 4.546875 -1.953125q3.078125 0 4.859375 2.046875q1.78125 2.03125 1.703125 6.234375l-9.15625 0q0.046875 1.625 0.890625 2.53125q0.84375 0.90625 2.109375 0.90625q0.859375 0 1.4375 -0.46875q0.59375 -0.46875 0.890625 -1.515625zm0.203125 -3.6875q-0.03125 -1.59375 -0.8125 -2.421875q-0.78125 -0.828125 -1.90625 -0.828125q-1.203125 0 -1.984375 0.875q-0.78125 0.875 -0.765625 2.375l5.46875 0zm-4.671875 -7.421875l1.796875 -3.890625l4.09375 0l-3.578125 3.890625l-2.3125 0zm9.996826 11.578125l3.671875 -0.5625q0.234375 1.0625 0.953125 1.625q0.71875 0.546875 2.0 0.546875q1.421875 0 2.140625 -0.515625q0.46875 -0.375 0.46875 -0.984375q0 -0.421875 -0.25 -0.6875q-0.28125 -0.265625 -1.234375 -0.484375q-4.421875 -0.96875 -5.609375 -1.78125q-1.640625 -1.125 -1.640625 -3.109375q0 -1.796875 1.421875 -3.015625q1.421875 -1.234375 4.40625 -1.234375q2.828125 0 4.203125 0.9375q1.390625 0.921875 1.90625 2.71875l-3.4375 0.640625q-0.234375 -0.796875 -0.859375 -1.21875q-0.609375 -0.4375 -1.75 -0.4375q-1.4375 0 -2.0625 0.390625q-0.421875 0.296875 -0.421875 0.75q0 0.390625 0.359375 0.65625q0.5 0.375 3.421875 1.046875q2.921875 0.65625 4.078125 1.609375q1.140625 0.984375 1.140625 2.71875q0 1.90625 -1.59375 3.28125q-1.578125 1.359375 -4.6875 1.359375q-2.828125 0 -4.484375 -1.140625q-1.640625 -1.15625 -2.140625 -3.109375zm36.199646 3.9375l-3.40625 0l0 -2.03125q-0.84375 1.1875 -2.0 1.765625q-1.140625 0.578125 -2.3125 0.578125q-2.390625 0 -4.09375 -1.921875q-1.6875 -1.921875 -1.6875 -5.359375q0 -3.515625 1.65625 -5.34375q1.65625 -1.828125 4.171875 -1.828125q2.3125 0 4.015625 1.9375l0 -6.875l3.65625 0l0 19.078125zm-9.765625 -7.203125q0 2.203125 0.609375 3.1875q0.890625 1.4375 2.46875 1.4375q1.265625 0 2.15625 -1.0625q0.890625 -1.078125 0.890625 -3.21875q0 -2.375 -0.859375 -3.421875q-0.859375 -1.0625 -2.203125 -1.0625q-1.296875 0 -2.1875 1.046875q-0.875 1.03125 -0.875 3.09375zm21.376465 2.796875l3.640625 0.625q-0.703125 2.0 -2.21875 3.046875q-1.515625 1.046875 -3.796875 1.046875q-3.609375 0 -5.328125 -2.359375q-1.375 -1.890625 -1.375 -4.765625q0 -3.4375 1.796875 -5.375q1.796875 -1.953125 4.546875 -1.953125q3.078125 0 4.859375 2.046875q1.78125 2.03125 1.703125 6.234375l-9.15625 0q0.046875 1.625 0.890625 2.53125q0.84375 0.90625 2.109375 0.90625q0.859375 0 1.4375 -0.46875q0.59375 -0.46875 0.890625 -1.515625zm0.203125 -3.6875q-0.03125 -1.59375 -0.8125 -2.421875q-0.78125 -0.828125 -1.90625 -0.828125q-1.203125 0 -1.984375 0.875q-0.78125 0.875 -0.765625 2.375l5.46875 0z" fill-rule="nonzero"/><path fill="#ff0000" d="m571.8122 373.82047l0 -19.078125l3.671875 0l0 19.078125l-3.671875 0zm7.39032 -12.296875l-0.6875 -3.5625l0 -3.21875l3.984375 0l0 3.21875l-0.609375 3.5625l-2.6875 0zm6.354309 -6.78125l3.859375 0l0 10.328125q0 2.46875 0.140625 3.1875q0.25 1.171875 1.171875 1.890625q0.9375 0.703125 2.546875 0.703125q1.640625 0 2.46875 -0.671875q0.84375 -0.671875 1.015625 -1.640625q0.171875 -0.984375 0.171875 -3.25l0 -10.546875l3.84375 0l0 10.015625q0 3.4375 -0.3125 4.859375q-0.3125 1.421875 -1.15625 2.40625q-0.828125 0.96875 -2.234375 1.546875q-1.40625 0.578125 -3.671875 0.578125q-2.734375 0 -4.15625 -0.625q-1.40625 -0.640625 -2.234375 -1.640625q-0.8125 -1.015625 -1.0625 -2.125q-0.390625 -1.640625 -0.390625 -4.84375l0 -10.171875zm31.82843 19.078125l-3.65625 0l0 -7.046875q0 -2.25 -0.234375 -2.90625q-0.234375 -0.65625 -0.765625 -1.015625q-0.515625 -0.375 -1.265625 -0.375q-0.953125 0 -1.703125 0.53125q-0.75 0.515625 -1.03125 1.375q-0.28125 0.859375 -0.28125 3.171875l0 6.265625l-3.65625 0l0 -13.828125l3.390625 0l0 2.03125q1.8125 -2.34375 4.5625 -2.34375q1.203125 0 2.203125 0.4375q1.015625 0.4375 1.515625 1.125q0.515625 0.671875 0.71875 1.53125q0.203125 0.859375 0.203125 2.453125l0 8.59375zm3.7045288 -15.703125l0 -3.375l3.671875 0l0 3.375l-3.671875 0zm0 15.703125l0 -13.828125l3.671875 0l0 13.828125l-3.671875 0zm11.218506 0l-5.578125 -13.828125l3.84375 0l2.609375 7.0625l0.75 2.359375q0.296875 -0.90625 0.375 -1.1875q0.1875 -0.59375 0.390625 -1.171875l2.625 -7.0625l3.765625 0l-5.5 13.828125l-3.28125 0zm19.028015 -4.40625l3.640625 0.625q-0.703125 2.0 -2.21875 3.046875q-1.515625 1.046875 -3.796875 1.046875q-3.609375 0 -5.328125 -2.359375q-1.375 -1.890625 -1.375 -4.765625q0 -3.4375 1.796875 -5.375q1.796875 -1.953125 4.546875 -1.953125q3.078125 0 4.859375 2.046875q1.78125 2.03125 1.703125 6.234375l-9.15625 0q0.046875 1.625 0.890625 2.53125q0.84375 0.90625 2.109375 0.90625q0.859375 0 1.4375 -0.46875q0.59375 -0.46875 0.890625 -1.515625zm0.203125 -3.6875q-0.03125 -1.59375 -0.8125 -2.421875q-0.78125 -0.828125 -1.90625 -0.828125q-1.203125 0 -1.984375 0.875q-0.78125 0.875 -0.765625 2.375l5.46875 0zm10.121826 8.09375l-3.671875 0l0 -13.828125l3.40625 0l0 1.96875q0.875 -1.390625 1.5625 -1.828125q0.703125 -0.453125 1.578125 -0.453125q1.25 0 2.421875 0.703125l-1.140625 3.1875q-0.921875 -0.609375 -1.71875 -0.609375q-0.765625 0 -1.296875 0.421875q-0.53125 0.421875 -0.84375 1.53125q-0.296875 1.109375 -0.296875 4.640625l0 4.265625zm5.57666 -3.9375l3.671875 -0.5625q0.234375 1.0625 0.953125 1.625q0.71875 0.546875 2.0 0.546875q1.421875 0 2.140625 -0.515625q0.46875 -0.375 0.46875 -0.984375q0 -0.421875 -0.25 -0.6875q-0.28125 -0.265625 -1.234375 -0.484375q-4.421875 -0.96875 -5.609375 -1.78125q-1.640625 -1.125 -1.640625 -3.109375q0 -1.796875 1.421875 -3.015625q1.421875 -1.234375 4.40625 -1.234375q2.828125 0 4.203125 0.9375q1.390625 0.921875 1.90625 2.71875l-3.4375 0.640625q-0.234375 -0.796875 -0.859375 -1.21875q-0.609375 -0.4375 -1.75 -0.4375q-1.4375 0 -2.0625 0.390625q-0.421875 0.296875 -0.421875 0.75q0 0.390625 0.359375 0.65625q0.5 0.375 3.421875 1.046875q2.921875 0.65625 4.078125 1.609375q1.140625 0.984375 1.140625 2.71875q0 1.90625 -1.59375 3.28125q-1.578125 1.359375 -4.6875 1.359375q-2.828125 0 -4.484375 -1.140625q-1.640625 -1.15625 -2.140625 -3.109375zm16.106201 -11.765625l0 -3.375l3.671875 0l0 3.375l-3.671875 0zm0 15.703125l0 -13.828125l3.671875 0l0 13.828125l-3.671875 0zm13.749695 -13.828125l0 2.921875l-2.5 0l0 5.5625q0 1.703125 0.0625 1.984375q0.078125 0.28125 0.328125 0.46875q0.265625 0.171875 0.625 0.171875q0.515625 0 1.46875 -0.359375l0.3125 2.84375q-1.265625 0.546875 -2.890625 0.546875q-0.984375 0 -1.78125 -0.328125q-0.796875 -0.328125 -1.171875 -0.859375q-0.359375 -0.53125 -0.5 -1.421875q-0.125 -0.640625 -0.125 -2.578125l0 -6.03125l-1.671875 0l0 -2.921875l1.671875 0l0 -2.734375l3.671875 -2.140625l0 4.875l2.5 0zm10.548645 9.421875l3.640625 0.625q-0.703125 2.0 -2.21875 3.046875q-1.515625 1.046875 -3.796875 1.046875q-3.609375 0 -5.328125 -2.359375q-1.375 -1.890625 -1.375 -4.765625q0 -3.4375 1.796875 -5.375q1.796875 -1.953125 4.546875 -1.953125q3.078125 0 4.859375 2.046875q1.78125 2.03125 1.703125 6.234375l-9.15625 0q0.046875 1.625 0.890625 2.53125q0.84375 0.90625 2.109375 0.90625q0.859375 0 1.4375 -0.46875q0.59375 -0.46875 0.890625 -1.515625zm0.203125 -3.6875q-0.03125 -1.59375 -0.8125 -2.421875q-0.78125 -0.828125 -1.90625 -0.828125q-1.203125 0 -1.984375 0.875q-0.78125 0.875 -0.765625 2.375l5.46875 0zm-4.671875 -7.421875l1.796875 -3.890625l4.09375 0l-3.578125 3.890625l-2.3125 0z" fill-rule="nonzero"/><path fill="#ff0000" d="m599.4433 405.82047l0 -19.078125l6.1875 0q3.515625 0 4.578125 0.28125q1.640625 0.4375 2.75 1.875q1.109375 1.4375 1.109375 3.703125q0 1.765625 -0.640625 2.96875q-0.640625 1.1875 -1.625 1.875q-0.984375 0.6875 -2.0 0.90625q-1.375 0.265625 -4.0 0.265625l-2.5 0l0 7.203125l-3.859375 0zm3.859375 -15.859375l0 5.421875l2.109375 0q2.265625 0 3.03125 -0.296875q0.78125 -0.296875 1.21875 -0.9375q0.4375 -0.640625 0.4375 -1.484375q0 -1.046875 -0.625 -1.71875q-0.609375 -0.671875 -1.546875 -0.84375q-0.6875 -0.140625 -2.765625 -0.140625l-1.859375 0zm16.623291 6.25l-3.3125 -0.59375q0.5625 -2.0 1.921875 -2.96875q1.375 -0.96875 4.0625 -0.96875q2.453125 0 3.640625 0.578125q1.203125 0.578125 1.6875 1.484375q0.5 0.890625 0.5 3.265625l-0.046875 4.265625q0 1.828125 0.171875 2.703125q0.171875 0.859375 0.65625 1.84375l-3.609375 0q-0.140625 -0.359375 -0.359375 -1.078125q-0.09375 -0.328125 -0.125 -0.4375q-0.9375 0.921875 -2.015625 1.375q-1.0625 0.453125 -2.265625 0.453125q-2.140625 0 -3.375 -1.15625q-1.21875 -1.15625 -1.21875 -2.9375q0 -1.171875 0.546875 -2.078125q0.5625 -0.921875 1.578125 -1.40625q1.015625 -0.484375 2.90625 -0.859375q2.5625 -0.484375 3.5625 -0.890625l0 -0.375q0 -1.046875 -0.53125 -1.5q-0.515625 -0.453125 -1.96875 -0.453125q-0.96875 0 -1.515625 0.390625q-0.546875 0.390625 -0.890625 1.34375zm4.90625 2.96875q-0.703125 0.234375 -2.234375 0.5625q-1.515625 0.328125 -1.984375 0.640625q-0.71875 0.5 -0.71875 1.28125q0 0.765625 0.5625 1.328125q0.578125 0.5625 1.46875 0.5625q0.984375 0 1.890625 -0.65625q0.65625 -0.484375 0.859375 -1.203125q0.15625 -0.46875 0.15625 -1.78125l0 -0.734375zm10.699951 6.640625l-3.671875 0l0 -13.828125l3.40625 0l0 1.96875q0.875 -1.390625 1.5625 -1.828125q0.703125 -0.453125 1.578125 -0.453125q1.25 0 2.421875 0.703125l-1.140625 3.1875q-0.921875 -0.609375 -1.71875 -0.609375q-0.765625 0 -1.296875 0.421875q-0.53125 0.421875 -0.84375 1.53125q-0.296875 1.109375 -0.296875 4.640625l0 4.265625zm6.85791 -15.703125l0 -3.375l3.671875 0l0 3.375l-3.671875 0zm0 15.703125l0 -13.828125l3.671875 0l0 13.828125l-3.671875 0zm6.124695 -3.9375l3.671875 -0.5625q0.234375 1.0625 0.953125 1.625q0.71875 0.546875 2.0 0.546875q1.421875 0 2.140625 -0.515625q0.46875 -0.375 0.46875 -0.984375q0 -0.421875 -0.25 -0.6875q-0.28125 -0.265625 -1.234375 -0.484375q-4.421875 -0.96875 -5.609375 -1.78125q-1.640625 -1.125 -1.640625 -3.109375q0 -1.796875 1.421875 -3.015625q1.421875 -1.234375 4.40625 -1.234375q2.828125 0 4.203125 0.9375q1.390625 0.921875 1.90625 2.71875l-3.4375 0.640625q-0.234375 -0.796875 -0.859375 -1.21875q-0.609375 -0.4375 -1.75 -0.4375q-1.4375 0 -2.0625 0.390625q-0.421875 0.296875 -0.421875 0.75q0 0.390625 0.359375 0.65625q0.5 0.375 3.421875 1.046875q2.921875 0.65625 4.078125 1.609375q1.140625 0.984375 1.140625 2.71875q0 1.90625 -1.59375 3.28125q-1.578125 1.359375 -4.6875 1.359375q-2.828125 0 -4.484375 -1.140625q-1.640625 -1.15625 -2.140625 -3.109375zm25.871521 -6.359375q-1.421875 -0.59375 -2.0625 -1.640625q-0.640625 -1.046875 -0.640625 -2.296875q0 -2.140625 1.484375 -3.53125q1.5 -1.390625 4.234375 -1.390625q2.734375 0 4.234375 1.390625q1.5 1.390625 1.5 3.53125q0 1.328125 -0.6875 2.359375q-0.6875 1.03125 -1.9375 1.578125q1.578125 0.640625 2.40625 1.875q0.828125 1.21875 0.828125 2.8125q0 2.640625 -1.6875 4.296875q-1.6875 1.65625 -4.484375 1.65625q-2.59375 0 -4.328125 -1.375q-2.046875 -1.609375 -2.046875 -4.421875q0 -1.546875 0.765625 -2.84375q0.765625 -1.296875 2.421875 -2.0zm0.765625 -3.6875q0 1.09375 0.609375 1.71875q0.625 0.609375 1.640625 0.609375q1.046875 0 1.671875 -0.625q0.625 -0.625 0.625 -1.703125q0 -1.03125 -0.625 -1.640625q-0.609375 -0.625 -1.625 -0.625q-1.046875 0 -1.671875 0.625q-0.625 0.625 -0.625 1.640625zm-0.34375 8.171875q0 1.515625 0.765625 2.359375q0.78125 0.84375 1.9375 0.84375q1.140625 0 1.875 -0.8125q0.75 -0.8125 0.75 -2.34375q0 -1.34375 -0.765625 -2.15625q-0.75 -0.8125 -1.90625 -0.8125q-1.34375 0 -2.0 0.921875q-0.65625 0.921875 -0.65625 2.0z" fill-rule="nonzero"/><path fill="#000000" fill-opacity="0.0" d="m234.74803 542.5827l483.685 0l0 51.71649l-483.685 0z" fill-rule="evenodd"/><path fill="#ff0000" d="m340.2079 567.4483l-3.609375 0.65625q-0.1875 -1.09375 -0.828125 -1.640625q-0.640625 -0.546875 -1.671875 -0.546875q-1.359375 0 -2.171875 0.953125q-0.8125 0.9375 -0.8125 3.15625q0 2.453125 0.8125 3.46875q0.828125 1.015625 2.21875 1.015625q1.046875 0 1.703125 -0.59375q0.671875 -0.59375 0.953125 -2.03125l3.578125 0.609375q-0.546875 2.46875 -2.140625 3.734375q-1.59375 1.265625 -4.25 1.265625q-3.03125 0 -4.84375 -1.90625q-1.796875 -1.921875 -1.796875 -5.296875q0 -3.4375 1.796875 -5.34375q1.8125 -1.90625 4.90625 -1.90625q2.515625 0 4.0 1.09375q1.5 1.078125 2.15625 3.3125zm2.7624207 -5.96875l0 -3.375l3.671875 0l0 3.375l-3.671875 0zm0 15.703125l0 -13.828125l3.671875 0l0 13.828125l-3.671875 0zm13.749725 -13.828125l0 2.921875l-2.5 0l0 5.5625q0 1.703125 0.0625 1.984375q0.078125 0.28125 0.328125 0.46875q0.265625 0.171875 0.625 0.171875q0.515625 0 1.46875 -0.359375l0.3125 2.84375q-1.265625 0.546875 -2.890625 0.546875q-0.984375 0 -1.78125 -0.328125q-0.796875 -0.328125 -1.171875 -0.859375q-0.359375 -0.53125 -0.5 -1.421875q-0.125 -0.640625 -0.125 -2.578125l0 -6.03125l-1.671875 0l0 -2.921875l1.671875 0l0 -2.734375l3.671875 -2.140625l0 4.875l2.5 0zm1.6892395 6.71875q0 -1.8125 0.890625 -3.515625q0.90625 -1.71875 2.546875 -2.609375q1.65625 -0.90625 3.6875 -0.90625q3.140625 0 5.140625 2.046875q2.0 2.03125 2.0 5.140625q0 3.140625 -2.03125 5.203125q-2.015625 2.0625 -5.078125 2.0625q-1.90625 0 -3.640625 -0.859375q-1.71875 -0.859375 -2.625 -2.515625q-0.890625 -1.65625 -0.890625 -4.046875zm3.75 0.203125q0 2.046875 0.96875 3.140625q0.984375 1.09375 2.421875 1.09375q1.421875 0 2.390625 -1.09375q0.984375 -1.09375 0.984375 -3.171875q0 -2.03125 -0.984375 -3.125q-0.96875 -1.09375 -2.390625 -1.09375q-1.4375 0 -2.421875 1.09375q-0.96875 1.09375 -0.96875 3.15625zm11.657684 -6.921875l3.890625 0l3.296875 9.8125l3.234375 -9.8125l3.78125 0l-4.875 13.3125l-0.875 2.40625q-0.484375 1.203125 -0.921875 1.84375q-0.4375 0.640625 -1.0 1.03125q-0.5625 0.40625 -1.390625 0.625q-0.828125 0.21875 -1.859375 0.21875q-1.0625 0 -2.078125 -0.21875l-0.328125 -2.859375q0.859375 0.15625 1.546875 0.15625q1.28125 0 1.890625 -0.75q0.609375 -0.734375 0.9375 -1.90625l-5.25 -13.859375zm24.559326 9.421875l3.640625 0.625q-0.703125 2.0 -2.21875 3.046875q-1.515625 1.046875 -3.796875 1.046875q-3.609375 0 -5.328125 -2.359375q-1.375 -1.890625 -1.375 -4.765625q0 -3.4375 1.796875 -5.375q1.796875 -1.953125 4.546875 -1.953125q3.078125 0 4.859375 2.046875q1.78125 2.03125 1.703125 6.234375l-9.15625 0q0.046875 1.625 0.890625 2.53125q0.84375 0.90625 2.109375 0.90625q0.859375 0 1.4375 -0.46875q0.59375 -0.46875 0.890625 -1.515625zm0.203125 -3.6875q-0.03125 -1.59375 -0.8125 -2.421875q-0.78125 -0.828125 -1.90625 -0.828125q-1.203125 0 -1.984375 0.875q-0.78125 0.875 -0.765625 2.375l5.46875 0zm19.184296 8.09375l-3.65625 0l0 -7.046875q0 -2.25 -0.234375 -2.90625q-0.234375 -0.65625 -0.765625 -1.015625q-0.515625 -0.375 -1.265625 -0.375q-0.953125 0 -1.703125 0.53125q-0.75 0.515625 -1.03125 1.375q-0.28125 0.859375 -0.28125 3.171875l0 6.265625l-3.65625 0l0 -13.828125l3.390625 0l0 2.03125q1.8125 -2.34375 4.5625 -2.34375q1.203125 0 2.203125 0.4375q1.015625 0.4375 1.515625 1.125q0.515625 0.671875 0.71875 1.53125q0.203125 0.859375 0.203125 2.453125l0 8.59375zm2.4233398 -3.9375l3.671875 -0.5625q0.234375 1.0625 0.953125 1.625q0.71875 0.546875 2.0 0.546875q1.421875 0 2.140625 -0.515625q0.46875 -0.375 0.46875 -0.984375q0 -0.421875 -0.25 -0.6875q-0.28125 -0.265625 -1.234375 -0.484375q-4.421875 -0.96875 -5.609375 -1.78125q-1.640625 -1.125 -1.640625 -3.109375q0 -1.796875 1.421875 -3.015625q1.421875 -1.234375 4.40625 -1.234375q2.828125 0 4.203125 0.9375q1.390625 0.921875 1.90625 2.71875l-3.4375 0.640625q-0.234375 -0.796875 -0.859375 -1.21875q-0.609375 -0.4375 -1.75 -0.4375q-1.4375 0 -2.0625 0.390625q-0.421875 0.296875 -0.421875 0.75q0 0.390625 0.359375 0.65625q0.5 0.375 3.421875 1.046875q2.921875 0.65625 4.078125 1.609375q1.140625 0.984375 1.140625 2.71875q0 1.90625 -1.59375 3.28125q-1.578125 1.359375 -4.6875 1.359375q-2.828125 0 -4.484375 -1.140625q-1.640625 -1.15625 -2.140625 -3.109375zm36.199646 3.9375l-3.40625 0l0 -2.03125q-0.84375 1.1875 -2.0 1.765625q-1.140625 0.578125 -2.3125 0.578125q-2.390625 0 -4.09375 -1.921875q-1.6875 -1.921875 -1.6875 -5.359375q0 -3.515625 1.65625 -5.34375q1.65625 -1.828125 4.171875 -1.828125q2.3125 0 4.015625 1.9375l0 -6.875l3.65625 0l0 19.078125zm-9.765625 -7.203125q0 2.203125 0.609375 3.1875q0.890625 1.4375 2.46875 1.4375q1.265625 0 2.15625 -1.0625q0.890625 -1.078125 0.890625 -3.21875q0 -2.375 -0.859375 -3.421875q-0.859375 -1.0625 -2.203125 -1.0625q-1.296875 0 -2.1875 1.046875q-0.875 1.03125 -0.875 3.09375zm21.376434 2.796875l3.640625 0.625q-0.703125 2.0 -2.21875 3.046875q-1.515625 1.046875 -3.796875 1.046875q-3.609375 0 -5.328125 -2.359375q-1.375 -1.890625 -1.375 -4.765625q0 -3.4375 1.796875 -5.375q1.796875 -1.953125 4.546875 -1.953125q3.078125 0 4.859375 2.046875q1.78125 2.03125 1.703125 6.234375l-9.15625 0q0.046875 1.625 0.890625 2.53125q0.84375 0.90625 2.109375 0.90625q0.859375 0 1.4375 -0.46875q0.59375 -0.46875 0.890625 -1.515625zm0.203125 -3.6875q-0.03125 -1.59375 -0.8125 -2.421875q-0.78125 -0.828125 -1.90625 -0.828125q-1.203125 0 -1.984375 0.875q-0.78125 0.875 -0.765625 2.375l5.46875 0zm13.074646 1.890625l3.75 -0.375q0.328125 1.890625 1.359375 2.78125q1.046875 0.875 2.796875 0.875q1.859375 0 2.796875 -0.78125q0.953125 -0.78125 0.953125 -1.84375q0 -0.671875 -0.40625 -1.140625q-0.390625 -0.484375 -1.375 -0.828125q-0.671875 -0.234375 -3.09375 -0.84375q-3.09375 -0.765625 -4.34375 -1.890625q-1.75 -1.5625 -1.75 -3.828125q0 -1.46875 0.828125 -2.734375q0.828125 -1.265625 2.375 -1.921875q1.5625 -0.671875 3.75 -0.671875q3.59375 0 5.40625 1.578125q1.828125 1.578125 1.921875 4.203125l-3.859375 0.171875q-0.25 -1.46875 -1.0625 -2.109375q-0.8125 -0.65625 -2.4375 -0.65625q-1.6875 0 -2.625 0.6875q-0.609375 0.453125 -0.609375 1.1875q0 0.671875 0.5625 1.15625q0.734375 0.609375 3.546875 1.28125q2.8125 0.65625 4.15625 1.375q1.34375 0.703125 2.109375 1.9375q0.765625 1.234375 0.765625 3.03125q0 1.640625 -0.921875 3.078125q-0.90625 1.4375 -2.578125 2.140625q-1.65625 0.6875 -4.140625 0.6875q-3.625 0 -5.5625 -1.671875q-1.9375 -1.671875 -2.3125 -4.875zm21.451385 -3.40625l-3.3125 -0.59375q0.5625 -2.0 1.921875 -2.96875q1.375 -0.96875 4.0625 -0.96875q2.453125 0 3.640625 0.578125q1.203125 0.578125 1.6875 1.484375q0.5 0.890625 0.5 3.265625l-0.046875 4.265625q0 1.828125 0.171875 2.703125q0.171875 0.859375 0.6562805 1.84375l-3.6094055 0q-0.140625 -0.359375 -0.359375 -1.078125q-0.09375 -0.328125 -0.125 -0.4375q-0.9375 0.921875 -2.015625 1.375q-1.0625 0.453125 -2.265625 0.453125q-2.140625 0 -3.375 -1.15625q-1.21875 -1.15625 -1.21875 -2.9375q0 -1.171875 0.546875 -2.078125q0.5625 -0.921875 1.578125 -1.40625q1.015625 -0.484375 2.90625 -0.859375q2.5625 -0.484375 3.5625 -0.890625l0 -0.375q0 -1.046875 -0.53125 -1.5q-0.515625 -0.453125 -1.96875 -0.453125q-0.96875 0 -1.515625 0.390625q-0.546875 0.390625 -0.890625 1.34375zm4.90625 2.96875q-0.703125 0.234375 -2.234375 0.5625q-1.515625 0.328125 -1.984375 0.640625q-0.71875 0.5 -0.71875 1.28125q0 0.765625 0.5625 1.328125q0.578125 0.5625 1.46875 0.5625q0.984375 0 1.890625 -0.65625q0.65625 -0.484375 0.859375 -1.203125q0.15625 -0.46875 0.15625 -1.78125l0 -0.734375zm7.1843567 -9.0625l0 -3.375l3.671875 0l0 3.375l-3.671875 0zm0 15.703125l0 -13.828125l3.671875 0l0 13.828125l-3.671875 0zm19.98407 0l-3.65625 0l0 -7.046875q0 -2.25 -0.234375 -2.90625q-0.234375 -0.65625 -0.765625 -1.015625q-0.515625 -0.375 -1.265625 -0.375q-0.953125 0 -1.703125 0.53125q-0.75 0.515625 -1.03125 1.375q-0.28125 0.859375 -0.28125 3.171875l0 6.265625l-3.65625 0l0 -13.828125l3.390625 0l0 2.03125q1.8125 -2.34375 4.5625 -2.34375q1.203125 0 2.203125 0.4375q1.015625 0.4375 1.515625 1.125q0.515625 0.671875 0.71875 1.53125q0.203125 0.859375 0.203125 2.453125l0 8.59375zm10.04834 -13.828125l0 2.921875l-2.5 0l0 5.5625q0 1.703125 0.0625 1.984375q0.078125 0.28125 0.328125 0.46875q0.265625 0.171875 0.625 0.171875q0.515625 0 1.46875 -0.359375l0.3125 2.84375q-1.265625 0.546875 -2.890625 0.546875q-0.984375 0 -1.78125 -0.328125q-0.796875 -0.328125 -1.171875 -0.859375q-0.359375 -0.53125 -0.5 -1.421875q-0.125 -0.640625 -0.125 -2.578125l0 -6.03125l-1.671875 0l0 -2.921875l1.671875 0l0 -2.734375l3.671875 -2.140625l0 4.875l2.5 0zm2.126709 8.734375l0 -3.65625l7.1875 0l0 3.65625l-7.1875 0zm9.298645 -13.984375l7.046875 0q2.375 0 3.625 0.359375q1.6875 0.5 2.875 1.765625q1.203125 1.25 1.828125 3.078125q0.625 1.828125 0.625 4.515625q0 2.359375 -0.578125 4.0625q-0.71875 2.078125 -2.046875 3.375q-1.0 0.96875 -2.703125 1.515625q-1.28125 0.40625 -3.421875 0.40625l-7.25 0l0 -19.078125zm3.859375 3.21875l0 12.640625l2.875 0q1.609375 0 2.328125 -0.171875q0.9375 -0.234375 1.546875 -0.796875q0.625 -0.5625 1.015625 -1.84375q0.390625 -1.28125 0.390625 -3.5q0 -2.203125 -0.390625 -3.390625q-0.390625 -1.1875 -1.09375 -1.84375q-0.703125 -0.671875 -1.78125 -0.90625q-0.8125 -0.1875 -3.15625 -0.1875l-1.734375 0zm23.39087 11.453125l3.640625 0.625q-0.703125 2.0 -2.21875 3.046875q-1.515625 1.046875 -3.796875 1.046875q-3.609375 0 -5.328125 -2.359375q-1.375 -1.890625 -1.375 -4.765625q0 -3.4375 1.796875 -5.375q1.796875 -1.953125 4.546875 -1.953125q3.078125 0 4.859375 2.046875q1.78125 2.03125 1.703125 6.234375l-9.15625 0q0.046875 1.625 0.890625 2.53125q0.84375 0.90625 2.109375 0.90625q0.859375 0 1.4375 -0.46875q0.59375 -0.46875 0.890625 -1.515625zm0.203125 -3.6875q-0.03125 -1.59375 -0.8125 -2.421875q-0.78125 -0.828125 -1.90625 -0.828125q-1.203125 0 -1.984375 0.875q-0.78125 0.875 -0.765625 2.375l5.46875 0zm19.184326 8.09375l-3.65625 0l0 -7.046875q0 -2.25 -0.234375 -2.90625q-0.234375 -0.65625 -0.765625 -1.015625q-0.515625 -0.375 -1.265625 -0.375q-0.953125 0 -1.703125 0.53125q-0.75 0.515625 -1.03125 1.375q-0.28125 0.859375 -0.28125 3.171875l0 6.265625l-3.65625 0l0 -13.828125l3.390625 0l0 2.03125q1.8125 -2.34375 4.5625 -2.34375q1.203125 0 2.203125 0.4375q1.015625 0.4375 1.515625 1.125q0.515625 0.671875 0.71875 1.53125q0.203125 0.859375 0.203125 2.453125l0 8.59375zm3.7045898 -15.703125l0 -3.375l3.671875 0l0 3.375l-3.671875 0zm0 15.703125l0 -13.828125l3.671875 0l0 13.828125l-3.671875 0zm6.124695 -3.9375l3.671875 -0.5625q0.234375 1.0625 0.953125 1.625q0.71875 0.546875 2.0 0.546875q1.421875 0 2.140625 -0.515625q0.46875 -0.375 0.46875 -0.984375q0 -0.421875 -0.25 -0.6875q-0.28125 -0.265625 -1.234375 -0.484375q-4.421875 -0.96875 -5.609375 -1.78125q-1.640625 -1.125 -1.640625 -3.109375q0 -1.796875 1.421875 -3.015625q1.421875 -1.234375 4.40625 -1.234375q2.828125 0 4.203125 0.9375q1.390625 0.921875 1.90625 2.71875l-3.4375 0.640625q-0.234375 -0.796875 -0.859375 -1.21875q-0.609375 -0.4375 -1.75 -0.4375q-1.4375 0 -2.0625 0.390625q-0.421875 0.296875 -0.421875 0.75q0 0.390625 0.359375 0.65625q0.5 0.375 3.421875 1.046875q2.921875 0.65625 4.078125 1.609375q1.140625 0.984375 1.140625 2.71875q0 1.90625 -1.59375 3.28125q-1.578125 1.359375 -4.6875 1.359375q-2.828125 0 -4.484375 -1.140625q-1.640625 -1.15625 -2.140625 -3.109375z" fill-rule="nonzero"/></g></svg>
