<svg version="1.1" viewBox="0.0 0.0 800.0 600.0" fill="none" stroke="none" stroke-linecap="square" stroke-miterlimit="10" xmlns:xlink="http://www.w3.org/1999/xlink" xmlns="http://www.w3.org/2000/svg"><clipPath id="p.0"><path d="m0 0l800.0 0l0 600.0l-800.0 0l0 -600.0z" clip-rule="nonzero"/></clipPath><g clip-path="url(#p.0)"><path fill="#000000" fill-opacity="0.0" d="m0 0l800.0 0l0 600.0l-800.0 0z" fill-rule="evenodd"/><path fill="#000000" fill-opacity="0.0" d="m42.01225 39.387577l711.5905 0l0 523.874l-711.5905 0z" fill-rule="evenodd"/><path stroke="#000000" stroke-width="1.0" stroke-linejoin="round" stroke-linecap="butt" d="m42.01225 39.387577l711.5905 0l0 523.874l-711.5905 0z" fill-rule="evenodd"/><path fill="#000000" fill-opacity="0.0" d="m73.52581 102.40595l181.19684 0l0 392.8504l-181.19684 0z" fill-rule="evenodd"/><path stroke="#000000" stroke-width="1.0" stroke-linejoin="round" stroke-linecap="butt" d="m73.52581 102.40595l181.19684 0l0 392.8504l-181.19684 0z" fill-rule="evenodd"/><path fill="#000000" fill-opacity="0.0" d="m308.08398 102.40595l181.19687 0l0 392.8504l-181.19687 0z" fill-rule="evenodd"/><path stroke="#000000" stroke-width="1.0" stroke-linejoin="round" stroke-linecap="butt" d="m308.08398 102.40595l181.19687 0l0 392.8504l-181.19687 0z" fill-rule="evenodd"/><path fill="#000000" fill-opacity="0.0" d="m542.64215 102.410324l181.1969 0l0 392.8504l-181.1969 0z" fill-rule="evenodd"/><path stroke="#000000" stroke-width="1.0" stroke-linejoin="round" stroke-linecap="butt" d="m542.64215 102.410324l181.1969 0l0 392.8504l-181.1969 0z" fill-rule="evenodd"/><path fill="#000000" fill-opacity="0.0" d="m97.15879 279.65878l133.92126 0l0 80.06299l-133.92126 0z" fill-rule="evenodd"/><path stroke="#000000" stroke-width="1.0" stroke-linejoin="round" stroke-linecap="butt" d="m97.15879 279.65878l133.92126 0l0 80.06299l-133.92126 0z" fill-rule="evenodd"/><path fill="#000000" fill-opacity="0.0" d="m97.15879 370.444l133.92126 0l0 80.06299l-133.92126 0z" fill-rule="evenodd"/><path stroke="#000000" stroke-width="1.0" stroke-linejoin="round" stroke-linecap="butt" d="m97.15879 370.444l133.92126 0l0 80.06299l-133.92126 0z" fill-rule="evenodd"/><path fill="#000000" fill-opacity="0.0" d="m319.90594 279.65878l157.98425 0l0 80.06299l-157.98425 0z" fill-rule="evenodd"/><path stroke="#000000" stroke-width="1.0" stroke-linejoin="round" stroke-linecap="butt" d="m319.90594 279.65878l157.98425 0l0 80.06299l-157.98425 0z" fill-rule="evenodd"/><path fill="#000000" fill-opacity="0.0" d="m319.90814 370.444l157.98425 0l0 80.06299l-157.98425 0z" fill-rule="evenodd"/><path stroke="#000000" stroke-width="1.0" stroke-linejoin="round" stroke-linecap="butt" d="m319.90814 370.444l157.98425 0l0 80.06299l-157.98425 0z" fill-rule="evenodd"/><path fill="#000000" fill-opacity="0.0" d="m99.78128 196.74759l596.063 0l0 72.22049l-596.063 0z" fill-rule="evenodd"/><path stroke="#000000" stroke-width="1.0" stroke-linejoin="round" stroke-linecap="butt" d="m99.78128 196.74759l596.063 0l0 72.22049l-596.063 0z" fill-rule="evenodd"/><path fill="#000000" fill-opacity="0.0" d="m99.78128 113.836395l596.063 0l0 72.220474l-596.063 0z" fill-rule="evenodd"/><path stroke="#000000" stroke-width="1.0" stroke-linejoin="round" stroke-linecap="butt" d="m99.78128 113.836395l596.063 0l0 72.220474l-596.063 0z" fill-rule="evenodd"/><path fill="#000000" fill-opacity="0.0" d="m249.45319 45.951443l287.5276 0l0 43.33858l-287.5276 0z" fill-rule="evenodd"/><path stroke="#000000" stroke-width="1.0" stroke-linejoin="round" stroke-linecap="butt" d="m249.45319 45.951443l287.5276 0l0 43.33858l-287.5276 0z" fill-rule="evenodd"/><path fill="#ff0000" d="m295.79636 73.760735l0 -12.40625l2.4375 0l5.078125 8.28125l0 -8.28125l2.328125 0l0 12.40625l-2.515625 0l-5.0 -8.09375l0 8.09375l-2.328125 0zm18.388824 0l0 -1.34375q-0.484375 0.71875 -1.296875 1.140625q-0.796875 0.40625 -1.671875 0.40625q-0.90625 0 -1.625 -0.390625q-0.71875 -0.40625 -1.046875 -1.125q-0.328125 -0.71875 -0.328125 -1.984375l0 -5.6875l2.390625 0l0 4.125q0 1.890625 0.125 2.328125q0.125 0.421875 0.46875 0.671875q0.359375 0.25 0.890625 0.25q0.609375 0 1.09375 -0.328125q0.484375 -0.34375 0.65625 -0.828125q0.171875 -0.5 0.171875 -2.421875l0 -3.796875l2.375 0l0 8.984375l-2.203125 0zm4.490967 -8.984375l2.1875 0l0 1.21875q1.1875 -1.421875 2.8125 -1.421875q0.859375 0 1.484375 0.359375q0.640625 0.34375 1.046875 1.0625q0.59375 -0.71875 1.28125 -1.0625q0.6875 -0.359375 1.46875 -0.359375q0.984375 0 1.671875 0.40625q0.6875 0.390625 1.015625 1.171875q0.25 0.578125 0.25 1.859375l0 5.75l-2.375 0l0 -5.140625q0 -1.328125 -0.25 -1.71875q-0.328125 -0.515625 -1.015625 -0.515625q-0.5 0 -0.9375 0.3125q-0.4375 0.296875 -0.640625 0.890625q-0.1875 0.59375 -0.1875 1.859375l0 4.3125l-2.375 0l0 -4.921875q0 -1.3125 -0.125 -1.6875q-0.125 -0.390625 -0.390625 -0.578125q-0.265625 -0.1875 -0.734375 -0.1875q-0.546875 0 -0.984375 0.296875q-0.4375 0.296875 -0.640625 0.859375q-0.1875 0.5625 -0.1875 1.859375l0 4.359375l-2.375 0l0 -8.984375zm20.798126 6.125l2.359375 0.390625q-0.453125 1.3125 -1.4375 2.0q-0.984375 0.671875 -2.46875 0.671875q-2.34375 0 -3.46875 -1.53125q-0.890625 -1.234375 -0.890625 -3.09375q0 -2.234375 1.171875 -3.5q1.171875 -1.265625 2.953125 -1.265625q2.0 0 3.15625 1.328125q1.171875 1.3125 1.109375 4.046875l-5.953125 0q0.03125 1.0625 0.578125 1.65625q0.546875 0.578125 1.375 0.578125q0.546875 0 0.921875 -0.296875q0.390625 -0.3125 0.59375 -0.984375zm0.125 -2.40625q-0.015625 -1.03125 -0.53125 -1.5625q-0.5 -0.546875 -1.234375 -0.546875q-0.78125 0 -1.28125 0.578125q-0.515625 0.5625 -0.5 1.53125l3.546875 0zm-3.03125 -4.8125l1.171875 -2.53125l2.671875 0l-2.328125 2.53125l-1.515625 0zm9.605835 10.078125l-2.375 0l0 -8.984375l2.203125 0l0 1.28125q0.578125 -0.90625 1.03125 -1.1875q0.453125 -0.296875 1.015625 -0.296875q0.8125 0 1.578125 0.453125l-0.734375 2.0625q-0.609375 -0.390625 -1.125 -0.390625q-0.5 0 -0.84375 0.28125q-0.34375 0.28125 -0.546875 1.0q-0.203125 0.71875 -0.203125 3.0l0 2.78125zm4.477783 -10.203125l0 -2.203125l2.375 0l0 2.203125l-2.375 0zm0 10.203125l0 -8.984375l2.375 0l0 8.984375l-2.375 0zm10.673706 3.421875l0 -4.515625q-0.453125 0.59375 -1.15625 0.953125q-0.6875 0.34375 -1.5 0.34375q-1.53125 0 -2.515625 -1.15625q-1.171875 -1.34375 -1.171875 -3.640625q0 -2.171875 1.09375 -3.375q1.109375 -1.21875 2.71875 -1.21875q0.90625 0 1.5625 0.390625q0.65625 0.375 1.15625 1.140625l0 -1.328125l2.203125 0l0 12.40625l-2.390625 0zm0.078125 -8.03125q0 -1.375 -0.5625 -2.046875q-0.5625 -0.671875 -1.40625 -0.671875q-0.859375 0 -1.4375 0.6875q-0.578125 0.6875 -0.578125 2.171875q0 1.484375 0.546875 2.140625q0.5625 0.65625 1.390625 0.65625q0.8125 0 1.421875 -0.734375q0.625 -0.734375 0.625 -2.203125zm10.553467 4.609375l0 -1.34375q-0.484375 0.71875 -1.296875 1.140625q-0.796875 0.40625 -1.671875 0.40625q-0.90625 0 -1.625 -0.390625q-0.71875 -0.40625 -1.046875 -1.125q-0.328125 -0.71875 -0.328125 -1.984375l0 -5.6875l2.390625 0l0 4.125q0 1.890625 0.125 2.328125q0.125 0.421875 0.46875 0.671875q0.359375 0.25 0.890625 0.25q0.609375 0 1.09375 -0.328125q0.484375 -0.34375 0.65625 -0.828125q0.171875 -0.5 0.171875 -2.421875l0 -3.796875l2.375 0l0 8.984375l-2.203125 0zm9.881592 -2.859375l2.359375 0.390625q-0.453125 1.3125 -1.4375 2.0q-0.984375 0.671875 -2.46875 0.671875q-2.34375 0 -3.46875 -1.53125q-0.890625 -1.234375 -0.890625 -3.09375q0 -2.234375 1.171875 -3.5q1.171875 -1.265625 2.953125 -1.265625q2.0 0 3.15625 1.328125q1.171875 1.3125 1.109375 4.046875l-5.953125 0q0.03125 1.0625 0.578125 1.65625q0.546875 0.578125 1.375 0.578125q0.546875 0 0.921875 -0.296875q0.390625 -0.3125 0.59375 -0.984375zm0.125 -2.40625q-0.015625 -1.03125 -0.53125 -1.5625q-0.5 -0.546875 -1.234375 -0.546875q-0.78125 0 -1.28125 0.578125q-0.515625 0.5625 -0.5 1.53125l3.546875 0zm11.3888855 5.265625l-2.375 0l0 -8.984375l2.203125 0l0 1.28125q0.578125 -0.90625 1.03125 -1.1875q0.453125 -0.296875 1.015625 -0.296875q0.8125 0 1.578125 0.453125l-0.734375 2.0625q-0.609375 -0.390625 -1.125 -0.390625q-0.5 0 -0.84375 0.28125q-0.34375 0.28125 -0.546875 1.0q-0.203125 0.71875 -0.203125 3.0l0 2.78125zm9.680939 -2.859375l2.359375 0.390625q-0.453125 1.3125 -1.4375 2.0q-0.984375 0.671875 -2.46875 0.671875q-2.34375 0 -3.46875 -1.53125q-0.890625 -1.234375 -0.890625 -3.09375q0 -2.234375 1.171875 -3.5q1.171875 -1.265625 2.953125 -1.265625q2.0 0 3.15625 1.328125q1.171875 1.3125 1.109375 4.046875l-5.953125 0q0.03125 1.0625 0.578125 1.65625q0.546875 0.578125 1.375 0.578125q0.546875 0 0.921875 -0.296875q0.390625 -0.3125 0.59375 -0.984375zm0.125 -2.40625q-0.015625 -1.03125 -0.53125 -1.5625q-0.5 -0.546875 -1.234375 -0.546875q-0.78125 0 -1.28125 0.578125q-0.515625 0.5625 -0.5 1.53125l3.546875 0zm3.46521 2.703125l2.390625 -0.359375q0.140625 0.6875 0.609375 1.046875q0.46875 0.359375 1.3125 0.359375q0.921875 0 1.375 -0.34375q0.3125 -0.234375 0.3125 -0.625q0 -0.28125 -0.15625 -0.453125q-0.1875 -0.171875 -0.796875 -0.3125q-2.875 -0.640625 -3.65625 -1.15625q-1.0625 -0.734375 -1.0625 -2.03125q0 -1.15625 0.921875 -1.953125q0.921875 -0.796875 2.859375 -0.796875q1.84375 0 2.734375 0.609375q0.90625 0.59375 1.25 1.765625l-2.25 0.421875q-0.140625 -0.53125 -0.546875 -0.8125q-0.390625 -0.28125 -1.140625 -0.28125q-0.9375 0 -1.34375 0.265625q-0.28125 0.1875 -0.28125 0.484375q0 0.25 0.25 0.4375q0.3125 0.234375 2.203125 0.671875q1.90625 0.421875 2.671875 1.046875q0.734375 0.640625 0.734375 1.765625q0 1.234375 -1.03125 2.125q-1.03125 0.890625 -3.046875 0.890625q-1.84375 0 -2.921875 -0.734375q-1.0625 -0.75 -1.390625 -2.03125zm10.40271 -6.421875l2.21875 0l0 1.3125q0.4375 -0.671875 1.171875 -1.09375q0.734375 -0.421875 1.625 -0.421875q1.578125 0 2.65625 1.234375q1.09375 1.21875 1.09375 3.40625q0 2.25 -1.109375 3.5q-1.09375 1.25 -2.65625 1.25q-0.734375 0 -1.34375 -0.296875q-0.609375 -0.296875 -1.28125 -1.015625l0 4.53125l-2.375 0l0 -12.40625zm2.359375 4.34375q0 1.515625 0.59375 2.234375q0.609375 0.71875 1.46875 0.71875q0.828125 0 1.375 -0.65625q0.546875 -0.671875 0.546875 -2.1875q0 -1.40625 -0.5625 -2.09375q-0.5625 -0.6875 -1.40625 -0.6875q-0.875 0 -1.453125 0.671875q-0.5625 0.671875 -0.5625 2.0zm7.740967 0.015625q0 -1.171875 0.578125 -2.28125q0.59375 -1.109375 1.65625 -1.6875q1.078125 -0.59375 2.40625 -0.59375q2.03125 0 3.328125 1.328125q1.3125 1.3125 1.3125 3.34375q0 2.03125 -1.328125 3.375q-1.3125 1.34375 -3.296875 1.34375q-1.234375 0 -2.359375 -0.546875q-1.125 -0.5625 -1.71875 -1.640625q-0.578125 -1.09375 -0.578125 -2.640625zm2.4375 0.125q0 1.34375 0.640625 2.0625q0.640625 0.703125 1.5625 0.703125q0.9375 0 1.5625 -0.703125q0.625 -0.71875 0.625 -2.078125q0 -1.3125 -0.625 -2.015625q-0.625 -0.71875 -1.5625 -0.71875q-0.921875 0 -1.5625 0.71875q-0.640625 0.703125 -0.640625 2.03125zm16.881592 4.5l-2.375 0l0 -4.578125q0 -1.46875 -0.15625 -1.890625q-0.15625 -0.421875 -0.5 -0.65625q-0.34375 -0.25 -0.828125 -0.25q-0.609375 0 -1.109375 0.34375q-0.484375 0.34375 -0.671875 0.90625q-0.171875 0.546875 -0.171875 2.0625l0 4.0625l-2.375 0l0 -8.984375l2.203125 0l0 1.3125q1.171875 -1.515625 2.953125 -1.515625q0.796875 0 1.4375 0.28125q0.65625 0.28125 0.984375 0.734375q0.34375 0.4375 0.46875 1.0q0.140625 0.546875 0.140625 1.59375l0 5.578125zm1.5690918 -2.5625l2.390625 -0.359375q0.140625 0.6875 0.609375 1.046875q0.46875 0.359375 1.3125 0.359375q0.921875 0 1.375 -0.34375q0.3125 -0.234375 0.3125 -0.625q0 -0.28125 -0.15625 -0.453125q-0.1875 -0.171875 -0.796875 -0.3125q-2.875 -0.640625 -3.65625 -1.15625q-1.0625 -0.734375 -1.0625 -2.03125q0 -1.15625 0.921875 -1.953125q0.921875 -0.796875 2.859375 -0.796875q1.84375 0 2.734375 0.609375q0.90625 0.59375 1.25 1.765625l-2.25 0.421875q-0.140625 -0.53125 -0.546875 -0.8125q-0.390625 -0.28125 -1.140625 -0.28125q-0.9375 0 -1.34375 0.265625q-0.28125 0.1875 -0.28125 0.484375q0 0.25 0.25 0.4375q0.3125 0.234375 2.203125 0.671875q1.90625 0.421875 2.671875 1.046875q0.734375 0.640625 0.734375 1.765625q0 1.234375 -1.03125 2.125q-1.03125 0.890625 -3.046875 0.890625q-1.84375 0 -2.921875 -0.734375q-1.0625 -0.75 -1.390625 -2.03125zm12.24646 -3.6875l-2.15625 -0.390625q0.375 -1.296875 1.25 -1.921875q0.890625 -0.625 2.640625 -0.625q1.59375 0 2.375 0.375q0.78125 0.375 1.09375 0.953125q0.3125 0.578125 0.3125 2.125l-0.015625 2.78125q0 1.1875 0.109375 1.75q0.109375 0.5625 0.421875 1.203125l-2.34375 0q-0.09375 -0.234375 -0.234375 -0.703125q-0.0625 -0.203125 -0.078125 -0.28125q-0.609375 0.59375 -1.3125 0.890625q-0.6875 0.296875 -1.46875 0.296875q-1.390625 0 -2.1875 -0.75q-0.796875 -0.75 -0.796875 -1.90625q0 -0.765625 0.359375 -1.359375q0.359375 -0.59375 1.015625 -0.90625q0.65625 -0.328125 1.890625 -0.5625q1.671875 -0.3125 2.3125 -0.578125l0 -0.234375q0 -0.6875 -0.34375 -0.984375q-0.328125 -0.296875 -1.28125 -0.296875q-0.625 0 -0.984375 0.25q-0.359375 0.25 -0.578125 0.875zm3.1875 1.9375q-0.453125 0.15625 -1.453125 0.375q-0.984375 0.203125 -1.296875 0.40625q-0.453125 0.328125 -0.453125 0.828125q0 0.5 0.359375 0.875q0.375 0.359375 0.953125 0.359375q0.640625 0 1.234375 -0.421875q0.421875 -0.328125 0.5625 -0.796875q0.09375 -0.296875 0.09375 -1.15625l0 -0.46875zm4.574585 4.3125l0 -12.40625l2.375 0l0 4.46875q1.109375 -1.25 2.609375 -1.25q1.640625 0 2.71875 1.1875q1.078125 1.1875 1.078125 3.421875q0 2.296875 -1.109375 3.546875q-1.09375 1.234375 -2.65625 1.234375q-0.765625 0 -1.515625 -0.375q-0.75 -0.390625 -1.296875 -1.140625l0 1.3125l-2.203125 0zm2.359375 -4.6875q0 1.390625 0.4375 2.0625q0.625 0.953125 1.640625 0.953125q0.796875 0 1.34375 -0.671875q0.5625 -0.671875 0.5625 -2.125q0 -1.53125 -0.5625 -2.21875q-0.5625 -0.6875 -1.4375 -0.6875q-0.84375 0 -1.421875 0.671875q-0.5625 0.65625 -0.5625 2.015625zm8.334717 4.6875l0 -12.40625l2.375 0l0 12.40625l-2.375 0zm10.017426 -2.859375l2.359375 0.390625q-0.453125 1.3125 -1.4375 2.0q-0.984375 0.671875 -2.46875 0.671875q-2.34375 0 -3.46875 -1.53125q-0.890625 -1.234375 -0.890625 -3.09375q0 -2.234375 1.171875 -3.5q1.171875 -1.265625 2.953125 -1.265625q2.0 0 3.15625 1.328125q1.171875 1.3125 1.109375 4.046875l-5.953125 0q0.03125 1.0625 0.578125 1.65625q0.546875 0.578125 1.375 0.578125q0.546875 0 0.921875 -0.296875q0.390625 -0.3125 0.59375 -0.984375zm0.125 -2.40625q-0.015625 -1.03125 -0.53125 -1.5625q-0.5 -0.546875 -1.234375 -0.546875q-0.78125 0 -1.28125 0.578125q-0.515625 0.5625 -0.5 1.53125l3.546875 0z" fill-rule="nonzero"/><path fill="#000000" fill-opacity="0.0" d="m256.23358 508.388l287.5276 0l0 43.338623l-287.5276 0z" fill-rule="evenodd"/><path stroke="#000000" stroke-width="1.0" stroke-linejoin="round" stroke-linecap="butt" d="m256.23358 508.388l287.5276 0l0 43.338623l-287.5276 0z" fill-rule="evenodd"/><path fill="#000000" fill-opacity="0.0" d="m263.89545 514.66095l273.10236 0l0 37.165405l-273.10236 0z" fill-rule="evenodd"/><path fill="#ff0000" d="m303.4813 526.8947l4.578125 0q1.546875 0 2.359375 0.234375q1.09375 0.328125 1.875 1.15625q0.78125 0.8125 1.1875 2.0q0.40625 1.1875 0.40625 2.9375q0 1.53125 -0.390625 2.640625q-0.453125 1.34375 -1.328125 2.1875q-0.640625 0.625 -1.75 0.984375q-0.828125 0.265625 -2.21875 0.265625l-4.71875 0l0 -12.40625zm2.5 2.09375l0 8.21875l1.875 0q1.046875 0 1.515625 -0.109375q0.609375 -0.15625 1.0 -0.515625q0.40625 -0.375 0.65625 -1.203125q0.265625 -0.828125 0.265625 -2.265625q0 -1.4375 -0.265625 -2.203125q-0.25 -0.78125 -0.703125 -1.203125q-0.453125 -0.4375 -1.15625 -0.59375q-0.53125 -0.125 -2.0625 -0.125l-1.125 0zm15.216949 7.453125l2.359375 0.390625q-0.453125 1.3125 -1.4375 2.0q-0.984375 0.671875 -2.46875 0.671875q-2.34375 0 -3.46875 -1.53125q-0.890625 -1.234375 -0.890625 -3.09375q0 -2.234375 1.171875 -3.5q1.171875 -1.265625 2.953125 -1.265625q2.0 0 3.15625 1.328125q1.171875 1.3125 1.109375 4.046875l-5.953125 0q0.03125 1.0625 0.578125 1.65625q0.546875 0.578125 1.375 0.578125q0.546875 0 0.921875 -0.296875q0.390625 -0.3125 0.59375 -0.984375zm0.125 -2.40625q-0.015625 -1.03125 -0.53125 -1.5625q-0.5 -0.546875 -1.234375 -0.546875q-0.78125 0 -1.28125 0.578125q-0.515625 0.5625 -0.5 1.53125l3.546875 0zm-3.03125 -4.8125l1.171875 -2.53125l2.671875 0l-2.328125 2.53125l-1.515625 0zm9.80896 10.078125l-3.625 -8.984375l2.5 0l1.6875 4.578125l0.484375 1.53125q0.203125 -0.578125 0.25 -0.765625q0.125 -0.375 0.25 -0.765625l1.71875 -4.578125l2.4375 0l-3.5625 8.984375l-2.140625 0zm12.37146 -2.859375l2.359375 0.390625q-0.453125 1.3125 -1.4375 2.0q-0.984375 0.671875 -2.46875 0.671875q-2.34375 0 -3.46875 -1.53125q-0.890625 -1.234375 -0.890625 -3.09375q0 -2.234375 1.171875 -3.5q1.171875 -1.265625 2.953125 -1.265625q2.0 0 3.15625 1.328125q1.171875 1.3125 1.109375 4.046875l-5.953125 0q0.03125 1.0625 0.578125 1.65625q0.546875 0.578125 1.375 0.578125q0.546875 0 0.921875 -0.296875q0.390625 -0.3125 0.59375 -0.984375zm0.125 -2.40625q-0.015625 -1.03125 -0.53125 -1.5625q-0.5 -0.546875 -1.234375 -0.546875q-0.78125 0 -1.28125 0.578125q-0.515625 0.5625 -0.5 1.53125l3.546875 0zm4.30896 5.265625l0 -12.40625l2.375 0l0 12.40625l-2.375 0zm4.2518005 -4.625q0 -1.171875 0.578125 -2.28125q0.59375 -1.109375 1.65625 -1.6875q1.078125 -0.59375 2.40625 -0.59375q2.03125 0 3.328125 1.328125q1.3125 1.3125 1.3125 3.34375q0 2.03125 -1.328125 3.375q-1.3125 1.34375 -3.296875 1.34375q-1.234375 0 -2.359375 -0.546875q-1.125 -0.5625 -1.71875 -1.640625q-0.578125 -1.09375 -0.578125 -2.640625zm2.4375 0.125q0 1.34375 0.640625 2.0625q0.640625 0.703125 1.5625 0.703125q0.9375 0 1.5625 -0.703125q0.625 -0.71875 0.625 -2.078125q0 -1.3125 -0.625 -2.015625q-0.625 -0.71875 -1.5625 -0.71875q-0.921875 0 -1.5625 0.71875q-0.640625 0.703125 -0.640625 2.03125zm8.631592 -4.484375l2.21875 0l0 1.3125q0.4375 -0.671875 1.171875 -1.09375q0.734375 -0.421875 1.625 -0.421875q1.578125 0 2.65625 1.234375q1.09375 1.21875 1.09375 3.40625q0 2.25 -1.109375 3.5q-1.09375 1.25 -2.65625 1.25q-0.734375 0 -1.34375 -0.296875q-0.609375 -0.296875 -1.28125 -1.015625l0 4.53125l-2.375 0l0 -12.40625zm2.359375 4.34375q0 1.515625 0.59375 2.234375q0.609375 0.71875 1.46875 0.71875q0.828125 0 1.375 -0.65625q0.546875 -0.671875 0.546875 -2.1875q0 -1.40625 -0.5625 -2.09375q-0.5625 -0.6875 -1.40625 -0.6875q-0.875 0 -1.453125 0.671875q-0.5625 0.671875 -0.5625 2.0zm8.225342 -4.34375l2.21875 0l0 1.3125q0.4375 -0.671875 1.171875 -1.09375q0.734375 -0.421875 1.625 -0.421875q1.578125 0 2.65625 1.234375q1.09375 1.21875 1.09375 3.40625q0 2.25 -1.109375 3.5q-1.09375 1.25 -2.65625 1.25q-0.734375 0 -1.34375 -0.296875q-0.609375 -0.296875 -1.28125 -1.015625l0 4.53125l-2.375 0l0 -12.40625zm2.359375 4.34375q0 1.515625 0.59375 2.234375q0.609375 0.71875 1.46875 0.71875q0.828125 0 1.375 -0.65625q0.546875 -0.671875 0.546875 -2.1875q0 -1.40625 -0.5625 -2.09375q-0.5625 -0.6875 -1.40625 -0.6875q-0.875 0 -1.453125 0.671875q-0.5625 0.671875 -0.5625 2.0zm13.506592 1.78125l2.359375 0.390625q-0.453125 1.3125 -1.4375 2.0q-0.984375 0.671875 -2.46875 0.671875q-2.34375 0 -3.46875 -1.53125q-0.890625 -1.234375 -0.890625 -3.09375q0 -2.234375 1.171875 -3.5q1.171875 -1.265625 2.953125 -1.265625q2.0 0 3.15625 1.328125q1.171875 1.3125 1.109375 4.046875l-5.953125 0q0.03125 1.0625 0.578125 1.65625q0.546875 0.578125 1.375 0.578125q0.546875 0 0.921875 -0.296875q0.390625 -0.3125 0.59375 -0.984375zm0.125 -2.40625q-0.015625 -1.03125 -0.53125 -1.5625q-0.5 -0.546875 -1.234375 -0.546875q-0.78125 0 -1.28125 0.578125q-0.515625 0.5625 -0.5 1.53125l3.546875 0zm4.12146 -3.71875l2.1875 0l0 1.21875q1.1875 -1.421875 2.8125 -1.421875q0.859375 0 1.484375 0.359375q0.640625 0.34375 1.046875 1.0625q0.59375 -0.71875 1.28125 -1.0625q0.6875 -0.359375 1.46875 -0.359375q0.984375 0 1.671875 0.40625q0.6875 0.390625 1.015625 1.171875q0.25 0.578125 0.25 1.859375l0 5.75l-2.375 0l0 -5.140625q0 -1.328125 -0.25 -1.71875q-0.328125 -0.515625 -1.015625 -0.515625q-0.5 0 -0.9375 0.3125q-0.4375 0.296875 -0.640625 0.890625q-0.1875 0.59375 -0.1875 1.859375l0 4.3125l-2.375 0l0 -4.921875q0 -1.3125 -0.125 -1.6875q-0.125 -0.390625 -0.390625 -0.578125q-0.265625 -0.1875 -0.734375 -0.1875q-0.546875 0 -0.984375 0.296875q-0.4375 0.296875 -0.640625 0.859375q-0.1875 0.5625 -0.1875 1.859375l0 4.359375l-2.375 0l0 -8.984375zm20.798126 6.125l2.359375 0.390625q-0.453125 1.3125 -1.4375 2.0q-0.984375 0.671875 -2.46875 0.671875q-2.34375 0 -3.46875 -1.53125q-0.890625 -1.234375 -0.890625 -3.09375q0 -2.234375 1.171875 -3.5q1.171875 -1.265625 2.953125 -1.265625q2.0 0 3.15625 1.328125q1.171875 1.3125 1.109375 4.046875l-5.953125 0q0.03125 1.0625 0.578125 1.65625q0.546875 0.578125 1.375 0.578125q0.546875 0 0.921875 -0.296875q0.390625 -0.3125 0.59375 -0.984375zm0.125 -2.40625q-0.015625 -1.03125 -0.53125 -1.5625q-0.5 -0.546875 -1.234375 -0.546875q-0.78125 0 -1.28125 0.578125q-0.515625 0.5625 -0.5 1.53125l3.546875 0zm12.480835 5.265625l-2.375 0l0 -4.578125q0 -1.46875 -0.15625 -1.890625q-0.15625 -0.421875 -0.5 -0.65625q-0.34375 -0.25 -0.828125 -0.25q-0.609375 0 -1.109375 0.34375q-0.484375 0.34375 -0.671875 0.90625q-0.171875 0.546875 -0.171875 2.0625l0 4.0625l-2.375 0l0 -8.984375l2.203125 0l0 1.3125q1.171875 -1.515625 2.953125 -1.515625q0.796875 0 1.4375 0.28125q0.65625 0.28125 0.984375 0.734375q0.34375 0.4375 0.46875 1.0q0.140625 0.546875 0.140625 1.59375l0 5.578125zm6.522217 -8.984375l0 1.890625l-1.625 0l0 3.625q0 1.09375 0.046875 1.28125q0.046875 0.1875 0.203125 0.3125q0.171875 0.109375 0.421875 0.109375q0.328125 0 0.953125 -0.234375l0.203125 1.84375q-0.828125 0.359375 -1.875 0.359375q-0.65625 0 -1.171875 -0.21875q-0.515625 -0.21875 -0.765625 -0.546875q-0.234375 -0.34375 -0.3125 -0.9375q-0.078125 -0.40625 -0.078125 -1.671875l0 -3.921875l-1.09375 0l0 -1.890625l1.09375 0l0 -1.78125l2.375 -1.390625l0 3.171875l1.625 0zm14.709717 8.984375l-2.203125 0l0 -1.3125q-0.5625 0.765625 -1.3125 1.140625q-0.734375 0.375 -1.5 0.375q-1.546875 0 -2.65625 -1.25q-1.109375 -1.25 -1.109375 -3.484375q0 -2.28125 1.078125 -3.46875q1.078125 -1.1875 2.71875 -1.1875q1.5 0 2.609375 1.25l0 -4.46875l2.375 0l0 12.40625zm-6.34375 -4.6875q0 1.4375 0.390625 2.078125q0.578125 0.9375 1.609375 0.9375q0.828125 0 1.390625 -0.703125q0.578125 -0.703125 0.578125 -2.078125q0 -1.546875 -0.5625 -2.234375q-0.546875 -0.6875 -1.421875 -0.6875q-0.84375 0 -1.421875 0.671875q-0.5625 0.671875 -0.5625 2.015625zm14.600342 4.6875l0 -1.34375q-0.484375 0.71875 -1.296875 1.140625q-0.796875 0.40625 -1.671875 0.40625q-0.90625 0 -1.625 -0.390625q-0.71875 -0.40625 -1.046875 -1.125q-0.328125 -0.71875 -0.328125 -1.984375l0 -5.6875l2.390625 0l0 4.125q0 1.890625 0.125 2.328125q0.125 0.421875 0.46875 0.671875q0.359375 0.25 0.890625 0.25q0.609375 0 1.09375 -0.328125q0.484375 -0.34375 0.65625 -0.828125q0.171875 -0.5 0.171875 -2.421875l0 -3.796875l2.375 0l0 8.984375l-2.203125 0zm6.944092 0l-2.375 0l0 -8.984375l2.203125 0l0 1.28125q0.578125 -0.90625 1.03125 -1.1875q0.453125 -0.296875 1.015625 -0.296875q0.8125 0 1.578125 0.453125l-0.734375 2.0625q-0.609375 -0.390625 -1.125 -0.390625q-0.5 0 -0.84375 0.28125q-0.34375 0.28125 -0.546875 1.0q-0.203125 0.71875 -0.203125 3.0l0 2.78125zm6.243408 -6.25l-2.15625 -0.390625q0.375 -1.296875 1.25 -1.921875q0.890625 -0.625 2.640625 -0.625q1.59375 0 2.375 0.375q0.78125 0.375 1.09375 0.953125q0.3125 0.578125 0.3125 2.125l-0.015625 2.78125q0 1.1875 0.109375 1.75q0.109375 0.5625 0.421875 1.203125l-2.34375 0q-0.09375 -0.234375 -0.234375 -0.703125q-0.0625 -0.203125 -0.078125 -0.28125q-0.609375 0.59375 -1.3125 0.890625q-0.6875 0.296875 -1.46875 0.296875q-1.390625 0 -2.1875 -0.75q-0.796875 -0.75 -0.796875 -1.90625q0 -0.765625 0.359375 -1.359375q0.359375 -0.59375 1.015625 -0.90625q0.65625 -0.328125 1.890625 -0.5625q1.671875 -0.3125 2.3125 -0.578125l0 -0.234375q0 -0.6875 -0.34375 -0.984375q-0.328125 -0.296875 -1.28125 -0.296875q-0.625 0 -0.984375 0.25q-0.359375 0.25 -0.578125 0.875zm3.1875 1.9375q-0.453125 0.15625 -1.453125 0.375q-0.984375 0.203125 -1.296875 0.40625q-0.453125 0.328125 -0.453125 0.828125q0 0.5 0.359375 0.875q0.375 0.359375 0.953125 0.359375q0.640625 0 1.234375 -0.421875q0.421875 -0.328125 0.5625 -0.796875q0.09375 -0.296875 0.09375 -1.15625l0 -0.46875zm4.574585 4.3125l0 -12.40625l2.375 0l0 4.46875q1.109375 -1.25 2.609375 -1.25q1.640625 0 2.71875 1.1875q1.078125 1.1875 1.078125 3.421875q0 2.296875 -1.109375 3.546875q-1.09375 1.234375 -2.65625 1.234375q-0.765625 0 -1.515625 -0.375q-0.75 -0.390625 -1.296875 -1.140625l0 1.3125l-2.203125 0zm2.359375 -4.6875q0 1.390625 0.4375 2.0625q0.625 0.953125 1.640625 0.953125q0.796875 0 1.34375 -0.671875q0.5625 -0.671875 0.5625 -2.125q0 -1.53125 -0.5625 -2.21875q-0.5625 -0.6875 -1.4375 -0.6875q-0.84375 0 -1.421875 0.671875q-0.5625 0.65625 -0.5625 2.015625zm8.334717 4.6875l0 -12.40625l2.375 0l0 12.40625l-2.375 0zm10.017456 -2.859375l2.359375 0.390625q-0.453125 1.3125 -1.4375 2.0q-0.984375 0.671875 -2.46875 0.671875q-2.34375 0 -3.46875 -1.53125q-0.890625 -1.234375 -0.890625 -3.09375q0 -2.234375 1.171875 -3.5q1.171875 -1.265625 2.953125 -1.265625q2.0 0 3.15625 1.328125q1.171875 1.3125 1.109375 4.046875l-5.953125 0q0.03125 1.0625 0.578125 1.65625q0.546875 0.578125 1.375 0.578125q0.546875 0 0.921875 -0.296875q0.390625 -0.3125 0.59375 -0.984375zm0.125 -2.40625q-0.015625 -1.03125 -0.53125 -1.5625q-0.5 -0.546875 -1.234375 -0.546875q-0.78125 0 -1.28125 0.578125q-0.515625 0.5625 -0.5 1.53125l3.546875 0z" fill-rule="nonzero"/><path fill="#000000" fill-opacity="0.0" d="m99.78128 459.5188l131.27559 0l0 37.165375l-131.27559 0z" fill-rule="evenodd"/><path fill="#ff0000" d="m140.52145 480.12756l2.4375 -0.234375q0.21875 1.21875 0.890625 1.796875q0.671875 0.578125 1.8125 0.578125q1.21875 0 1.828125 -0.515625q0.609375 -0.515625 0.609375 -1.203125q0 -0.4375 -0.265625 -0.734375q-0.25 -0.3125 -0.890625 -0.546875q-0.4375 -0.15625 -2.0 -0.546875q-2.015625 -0.5 -2.828125 -1.21875q-1.140625 -1.03125 -1.140625 -2.5q0 -0.953125 0.53125 -1.765625q0.546875 -0.828125 1.546875 -1.25q1.015625 -0.4375 2.4375 -0.4375q2.34375 0 3.515625 1.03125q1.1875 1.015625 1.25 2.71875l-2.5 0.109375q-0.171875 -0.953125 -0.703125 -1.375q-0.515625 -0.421875 -1.578125 -0.421875q-1.09375 0 -1.71875 0.453125q-0.390625 0.28125 -0.390625 0.765625q0 0.4375 0.375 0.75q0.46875 0.40625 2.296875 0.84375q1.828125 0.421875 2.703125 0.890625q0.875 0.453125 1.375 1.265625q0.5 0.796875 0.5 1.96875q0 1.0625 -0.59375 2.0q-0.59375 0.921875 -1.6875 1.375q-1.078125 0.453125 -2.6875 0.453125q-2.359375 0 -3.625 -1.078125q-1.25 -1.09375 -1.5 -3.171875zm11.620224 -0.59375q0 -1.171875 0.578125 -2.28125q0.59375 -1.109375 1.65625 -1.6875q1.078125 -0.59375 2.40625 -0.59375q2.03125 0 3.328125 1.328125q1.3125 1.3125 1.3125 3.34375q0 2.03125 -1.328125 3.375q-1.3125 1.34375 -3.296875 1.34375q-1.234375 0 -2.359375 -0.546875q-1.125 -0.5625 -1.71875 -1.640625q-0.578125 -1.09375 -0.578125 -2.640625zm2.4375 0.125q0 1.34375 0.640625 2.0625q0.640625 0.703125 1.5625 0.703125q0.9375 0 1.5625 -0.703125q0.625 -0.71875 0.625 -2.078125q0 -1.3125 -0.625 -2.015625q-0.625 -0.71875 -1.5625 -0.71875q-0.921875 0 -1.5625 0.71875q-0.640625 0.703125 -0.640625 2.03125zm16.537842 -1.828125l-2.34375 0.421875q-0.125 -0.703125 -0.546875 -1.046875q-0.40625 -0.359375 -1.078125 -0.359375q-0.890625 0 -1.421875 0.609375q-0.515625 0.609375 -0.515625 2.046875q0 1.609375 0.53125 2.265625q0.53125 0.65625 1.4375 0.65625q0.6875 0 1.109375 -0.375q0.4375 -0.390625 0.609375 -1.328125l2.34375 0.390625q-0.375 1.609375 -1.40625 2.4375q-1.03125 0.8125 -2.765625 0.8125q-1.96875 0 -3.140625 -1.234375q-1.171875 -1.25 -1.171875 -3.453125q0 -2.21875 1.171875 -3.453125q1.1875 -1.25 3.1875 -1.25q1.640625 0 2.609375 0.703125q0.96875 0.703125 1.390625 2.15625zm1.80896 -3.875l0 -2.203125l2.375 0l0 2.203125l-2.375 0zm0 10.203125l0 -8.984375l2.375 0l0 8.984375l-2.375 0zm6.579941 -6.25l-2.15625 -0.390625q0.375 -1.296875 1.25 -1.921875q0.890625 -0.625 2.640625 -0.625q1.59375 0 2.375 0.375q0.78125 0.375 1.09375 0.953125q0.3125 0.578125 0.3125 2.125l-0.015625 2.78125q0 1.1875 0.109375 1.75q0.109375 0.5625 0.421875 1.203125l-2.34375 0q-0.09375 -0.234375 -0.234375 -0.703125q-0.0625 -0.203125 -0.078125 -0.28125q-0.609375 0.59375 -1.3125 0.890625q-0.6875 0.296875 -1.46875 0.296875q-1.390625 0 -2.1875 -0.75q-0.796875 -0.75 -0.796875 -1.90625q0 -0.765625 0.359375 -1.359375q0.359375 -0.59375 1.015625 -0.90625q0.65625 -0.328125 1.890625 -0.5625q1.671875 -0.3125 2.3125 -0.578125l0 -0.234375q0 -0.6875 -0.34375 -0.984375q-0.328125 -0.296875 -1.28125 -0.296875q-0.625 0 -0.984375 0.25q-0.359375 0.25 -0.578125 0.875zm3.1875 1.9375q-0.453125 0.15625 -1.453125 0.375q-0.984375 0.203125 -1.296875 0.40625q-0.453125 0.328125 -0.453125 0.828125q0 0.5 0.359375 0.875q0.375 0.359375 0.953125 0.359375q0.640625 0 1.234375 -0.421875q0.421875 -0.328125 0.5625 -0.796875q0.09375 -0.296875 0.09375 -1.15625l0 -0.46875zm4.68396 4.3125l0 -12.40625l2.375 0l0 12.40625l-2.375 0z" fill-rule="nonzero"/><path fill="#000000" fill-opacity="0.0" d="m308.08398 462.1435l181.19687 0l0 37.165344l-181.19687 0z" fill-rule="evenodd"/><path fill="#ff0000" d="m336.88394 486.78348l0 -12.40625l9.1875 0l0 2.09375l-6.6875 0l0 2.75l6.234375 0l0 2.09375l-6.234375 0l0 3.375l6.921875 0l0 2.09375l-9.421875 0zm19.71399 0l-2.375 0l0 -4.578125q0 -1.46875 -0.15625 -1.890625q-0.15625 -0.421875 -0.5 -0.65625q-0.34375 -0.25 -0.828125 -0.25q-0.609375 0 -1.109375 0.34375q-0.484375 0.34375 -0.671875 0.90625q-0.171875 0.546875 -0.171875 2.0625l0 4.0625l-2.375 0l0 -8.984375l2.203125 0l0 1.3125q1.171875 -1.515625 2.953125 -1.515625q0.796875 0 1.4375 0.28125q0.65625 0.28125 0.984375 0.734375q0.34375 0.4375 0.46875 1.0q0.140625 0.546875 0.140625 1.59375l0 5.578125zm4.881592 0l-3.625 -8.984375l2.5 0l1.6875 4.578125l0.484375 1.53125q0.203125 -0.578125 0.25 -0.765625q0.125 -0.375 0.25 -0.765625l1.71875 -4.578125l2.4375 0l-3.5625 8.984375l-2.140625 0zm7.168335 -10.203125l0 -2.203125l2.375 0l0 2.203125l-2.375 0zm0 10.203125l0 -8.984375l2.375 0l0 8.984375l-2.375 0zm7.0799255 0l-2.375 0l0 -8.984375l2.203125 0l0 1.28125q0.578125 -0.90625 1.03125 -1.1875q0.453125 -0.296875 1.015625 -0.296875q0.8125 0 1.578125 0.453125l-0.734375 2.0625q-0.609375 -0.390625 -1.125 -0.390625q-0.5 0 -0.84375 0.28125q-0.34375 0.28125 -0.546875 1.0q-0.203125 0.71875 -0.203125 3.0l0 2.78125zm3.9153137 -4.625q0 -1.171875 0.578125 -2.28125q0.59375 -1.109375 1.65625 -1.6875q1.078125 -0.59375 2.40625 -0.59375q2.03125 0 3.328125 1.328125q1.3125 1.3125 1.3125 3.34375q0 2.03125 -1.328125 3.375q-1.3125 1.34375 -3.296875 1.34375q-1.234375 0 -2.359375 -0.546875q-1.125 -0.5625 -1.71875 -1.640625q-0.578125 -1.09375 -0.578125 -2.640625zm2.4375 0.125q0 1.34375 0.640625 2.0625q0.640625 0.703125 1.5625 0.703125q0.9375 0 1.5625 -0.703125q0.625 -0.71875 0.625 -2.078125q0 -1.3125 -0.625 -2.015625q-0.625 -0.71875 -1.5625 -0.71875q-0.921875 0 -1.5625 0.71875q-0.640625 0.703125 -0.640625 2.03125zm16.881592 4.5l-2.375 0l0 -4.578125q0 -1.46875 -0.15625 -1.890625q-0.15625 -0.421875 -0.5 -0.65625q-0.34375 -0.25 -0.828125 -0.25q-0.609375 0 -1.109375 0.34375q-0.484375 0.34375 -0.671875 0.90625q-0.171875 0.546875 -0.171875 2.0625l0 4.0625l-2.375 0l0 -8.984375l2.203125 0l0 1.3125q1.171875 -1.515625 2.953125 -1.515625q0.796875 0 1.4375 0.28125q0.65625 0.28125 0.984375 0.734375q0.34375 0.4375 0.46875 1.0q0.140625 0.546875 0.140625 1.59375l0 5.578125zm10.584717 0l-2.375 0l0 -4.578125q0 -1.46875 -0.15625 -1.890625q-0.15625 -0.421875 -0.5 -0.65625q-0.34375 -0.25 -0.828125 -0.25q-0.609375 0 -1.109375 0.34375q-0.484375 0.34375 -0.671875 0.90625q-0.171875 0.546875 -0.171875 2.0625l0 4.0625l-2.375 0l0 -8.984375l2.203125 0l0 1.3125q1.171875 -1.515625 2.953125 -1.515625q0.796875 0 1.4375 0.28125q0.65625 0.28125 0.984375 0.734375q0.34375 0.4375 0.46875 1.0q0.140625 0.546875 0.140625 1.59375l0 5.578125zm7.615967 -2.859375l2.359375 0.390625q-0.453125 1.3125 -1.4375 2.0q-0.984375 0.671875 -2.46875 0.671875q-2.34375 0 -3.46875 -1.53125q-0.890625 -1.234375 -0.890625 -3.09375q0 -2.234375 1.171875 -3.5q1.171875 -1.265625 2.953125 -1.265625q2.0 0 3.15625 1.328125q1.171875 1.3125 1.109375 4.046875l-5.953125 0q0.03125 1.0625 0.578125 1.65625q0.546875 0.578125 1.375 0.578125q0.546875 0 0.921875 -0.296875q0.390625 -0.3125 0.59375 -0.984375zm0.125 -2.40625q-0.015625 -1.03125 -0.53125 -1.5625q-0.5 -0.546875 -1.234375 -0.546875q-0.78125 0 -1.28125 0.578125q-0.515625 0.5625 -0.5 1.53125l3.546875 0zm4.12146 -3.71875l2.1875 0l0 1.21875q1.1875 -1.421875 2.8125 -1.421875q0.859375 0 1.484375 0.359375q0.640625 0.34375 1.046875 1.0625q0.59375 -0.71875 1.28125 -1.0625q0.6875 -0.359375 1.46875 -0.359375q0.984375 0 1.671875 0.40625q0.6875 0.390625 1.015625 1.171875q0.25 0.578125 0.25 1.859375l0 5.75l-2.375 0l0 -5.140625q0 -1.328125 -0.25 -1.71875q-0.328125 -0.515625 -1.015625 -0.515625q-0.5 0 -0.9375 0.3125q-0.4375 0.296875 -0.640625 0.890625q-0.1875 0.59375 -0.1875 1.859375l0 4.3125l-2.375 0l0 -4.921875q0 -1.3125 -0.125 -1.6875q-0.125 -0.390625 -0.390625 -0.578125q-0.265625 -0.1875 -0.734375 -0.1875q-0.546875 0 -0.984375 0.296875q-0.4375 0.296875 -0.640625 0.859375q-0.1875 0.5625 -0.1875 1.859375l0 4.359375l-2.375 0l0 -8.984375zm20.798096 6.125l2.359375 0.390625q-0.453125 1.3125 -1.4375 2.0q-0.984375 0.671875 -2.46875 0.671875q-2.34375 0 -3.46875 -1.53125q-0.890625 -1.234375 -0.890625 -3.09375q0 -2.234375 1.171875 -3.5q1.171875 -1.265625 2.953125 -1.265625q2.0 0 3.15625 1.328125q1.171875 1.3125 1.109375 4.046875l-5.953125 0q0.03125 1.0625 0.578125 1.65625q0.546875 0.578125 1.375 0.578125q0.546875 0 0.921875 -0.296875q0.390625 -0.3125 0.59375 -0.984375zm0.125 -2.40625q-0.015625 -1.03125 -0.53125 -1.5625q-0.5 -0.546875 -1.234375 -0.546875q-0.78125 0 -1.28125 0.578125q-0.515625 0.5625 -0.5 1.53125l3.546875 0zm12.480835 5.265625l-2.375 0l0 -4.578125q0 -1.46875 -0.15625 -1.890625q-0.15625 -0.421875 -0.5 -0.65625q-0.34375 -0.25 -0.828125 -0.25q-0.609375 0 -1.109375 0.34375q-0.484375 0.34375 -0.671875 0.90625q-0.171875 0.546875 -0.171875 2.0625l0 4.0625l-2.375 0l0 -8.984375l2.203125 0l0 1.3125q1.171875 -1.515625 2.953125 -1.515625q0.796875 0 1.4375 0.28125q0.65625 0.28125 0.984375 0.734375q0.34375 0.4375 0.46875 1.0q0.140625 0.546875 0.140625 1.59375l0 5.578125zm6.522217 -8.984375l0 1.890625l-1.625 0l0 3.625q0 1.09375 0.046875 1.28125q0.046875 0.1875 0.203125 0.3125q0.171875 0.109375 0.421875 0.109375q0.328125 0 0.953125 -0.234375l0.203125 1.84375q-0.828125 0.359375 -1.875 0.359375q-0.65625 0 -1.171875 -0.21875q-0.515625 -0.21875 -0.765625 -0.546875q-0.234375 -0.34375 -0.3125 -0.9375q-0.078125 -0.40625 -0.078125 -1.671875l0 -3.921875l-1.09375 0l0 -1.890625l1.09375 0l0 -1.78125l2.375 -1.390625l0 3.171875l1.625 0z" fill-rule="nonzero"/><path fill="#000000" fill-opacity="0.0" d="m543.7664 464.77036l181.19684 0l0 37.165344l-181.19684 0z" fill-rule="evenodd"/><path fill="#ff0000" d="m594.22656 489.41034l0 -12.40625l9.1875 0l0 2.09375l-6.6875 0l0 2.75l6.234375 0l0 2.09375l-6.234375 0l0 3.375l6.921875 0l0 2.09375l-9.421875 0zm19.370178 -6.328125l-2.34375 0.421875q-0.125 -0.703125 -0.546875 -1.046875q-0.40625 -0.359375 -1.078125 -0.359375q-0.890625 0 -1.421875 0.609375q-0.515625 0.609375 -0.515625 2.046875q0 1.609375 0.53125 2.265625q0.53125 0.65625 1.4375 0.65625q0.6875 0 1.109375 -0.375q0.4375 -0.390625 0.609375 -1.328125l2.34375 0.390625q-0.375 1.609375 -1.40625 2.4375q-1.03125 0.8125 -2.765625 0.8125q-1.96875 0 -3.140625 -1.234375q-1.171875 -1.25 -1.171875 -3.453125q0 -2.21875 1.171875 -3.453125q1.1875 -1.25 3.1875 -1.25q1.640625 0 2.609375 0.703125q0.96875 0.703125 1.390625 2.15625zm1.24646 1.703125q0 -1.171875 0.578125 -2.28125q0.59375 -1.109375 1.65625 -1.6875q1.078125 -0.59375 2.40625 -0.59375q2.03125 0 3.328125 1.328125q1.3125 1.3125 1.3125 3.34375q0 2.03125 -1.328125 3.375q-1.3125 1.34375 -3.296875 1.34375q-1.234375 0 -2.359375 -0.546875q-1.125 -0.5625 -1.71875 -1.640625q-0.578125 -1.09375 -0.578125 -2.640625zm2.4375 0.125q0 1.34375 0.640625 2.0625q0.640625 0.703125 1.5625 0.703125q0.9375 0 1.5625 -0.703125q0.625 -0.71875 0.625 -2.078125q0 -1.3125 -0.625 -2.015625q-0.625 -0.71875 -1.5625 -0.71875q-0.921875 0 -1.5625 0.71875q-0.640625 0.703125 -0.640625 2.03125zm16.881592 4.5l-2.375 0l0 -4.578125q0 -1.46875 -0.15625 -1.890625q-0.15625 -0.421875 -0.5 -0.65625q-0.34375 -0.25 -0.828125 -0.25q-0.609375 0 -1.109375 0.34375q-0.484375 0.34375 -0.671875 0.90625q-0.171875 0.546875 -0.171875 2.0625l0 4.0625l-2.375 0l0 -8.984375l2.203125 0l0 1.3125q1.171875 -1.515625 2.953125 -1.515625q0.796875 0 1.4375 0.28125q0.65625 0.28125 0.984375 0.734375q0.34375 0.4375 0.46875 1.0q0.140625 0.546875 0.140625 1.59375l0 5.578125zm1.8503418 -4.625q0 -1.171875 0.578125 -2.28125q0.59375 -1.109375 1.65625 -1.6875q1.078125 -0.59375 2.40625 -0.59375q2.03125 0 3.328125 1.328125q1.3125 1.3125 1.3125 3.34375q0 2.03125 -1.328125 3.375q-1.3125 1.34375 -3.296875 1.34375q-1.234375 0 -2.359375 -0.546875q-1.125 -0.5625 -1.71875 -1.640625q-0.578125 -1.09375 -0.578125 -2.640625zm2.4375 0.125q0 1.34375 0.640625 2.0625q0.640625 0.703125 1.5625 0.703125q0.9375 0 1.5625 -0.703125q0.625 -0.71875 0.625 -2.078125q0 -1.3125 -0.625 -2.015625q-0.625 -0.71875 -1.5625 -0.71875q-0.921875 0 -1.5625 0.71875q-0.640625 0.703125 -0.640625 2.03125zm8.522217 -4.484375l2.1875 0l0 1.21875q1.1875 -1.421875 2.8125 -1.421875q0.859375 0 1.484375 0.359375q0.640625 0.34375 1.046875 1.0625q0.59375 -0.71875 1.28125 -1.0625q0.6875 -0.359375 1.46875 -0.359375q0.984375 0 1.671875 0.40625q0.6875 0.390625 1.015625 1.171875q0.25 0.578125 0.25 1.859375l0 5.75l-2.375 0l0 -5.140625q0 -1.328125 -0.25 -1.71875q-0.328125 -0.515625 -1.015625 -0.515625q-0.5 0 -0.9375 0.3125q-0.4375 0.296875 -0.640625 0.890625q-0.1875 0.59375 -0.1875 1.859375l0 4.3125l-2.375 0l0 -4.921875q0 -1.3125 -0.125 -1.6875q-0.125 -0.390625 -0.390625 -0.578125q-0.265625 -0.1875 -0.734375 -0.1875q-0.546875 0 -0.984375 0.296875q-0.4375 0.296875 -0.640625 0.859375q-0.1875 0.5625 -0.1875 1.859375l0 4.359375l-2.375 0l0 -8.984375zm15.595032 -1.21875l0 -2.203125l2.375 0l0 2.203125l-2.375 0zm0 10.203125l0 -8.984375l2.375 0l0 8.984375l-2.375 0zm10.017395 -2.859375l2.359375 0.390625q-0.453125 1.3125 -1.4375 2.0q-0.984375 0.671875 -2.46875 0.671875q-2.34375 0 -3.46875 -1.53125q-0.890625 -1.234375 -0.890625 -3.09375q0 -2.234375 1.171875 -3.5q1.171875 -1.265625 2.953125 -1.265625q2.0 0 3.15625 1.328125q1.171875 1.3125 1.109375 4.046875l-5.953125 0q0.03125 1.0625 0.578125 1.65625q0.546875 0.578125 1.375 0.578125q0.546875 0 0.921875 -0.296875q0.390625 -0.3125 0.59375 -0.984375zm0.125 -2.40625q-0.015625 -1.03125 -0.53125 -1.5625q-0.5 -0.546875 -1.234375 -0.546875q-0.78125 0 -1.28125 0.578125q-0.515625 0.5625 -0.5 1.53125l3.546875 0z" fill-rule="nonzero"/><path fill="#000000" fill-opacity="0.0" d="m111.59667 304.59537l98.4882 0l0 37.165344l-98.4882 0z" fill-rule="evenodd"/><path fill="#ff0000" d="m136.12558 329.23535l0 -12.40625l8.5 0l0 2.09375l-6.0 0l0 2.9375l5.171875 0l0 2.109375l-5.171875 0l0 5.265625l-2.5 0zm12.319092 -6.25l-2.15625 -0.390625q0.375 -1.296875 1.25 -1.921875q0.890625 -0.625 2.640625 -0.625q1.59375 0 2.375 0.375q0.78125 0.375 1.09375 0.953125q0.3125 0.578125 0.3125 2.125l-0.015625 2.78125q0 1.1875 0.109375 1.75q0.109375 0.5625 0.421875 1.203125l-2.34375 0q-0.09375 -0.234375 -0.234375 -0.703125q-0.0625 -0.203125 -0.078125 -0.28125q-0.609375 0.59375 -1.3125 0.890625q-0.6875 0.296875 -1.46875 0.296875q-1.390625 0 -2.1875 -0.75q-0.796875 -0.75 -0.796875 -1.90625q0 -0.765625 0.359375 -1.359375q0.359375 -0.59375 1.015625 -0.90625q0.65625 -0.328125 1.890625 -0.5625q1.671875 -0.3125 2.3125 -0.578125l0 -0.234375q0 -0.6875 -0.34375 -0.984375q-0.328125 -0.296875 -1.28125 -0.296875q-0.625 0 -0.984375 0.25q-0.359375 0.25 -0.578125 0.875zm3.1875 1.9375q-0.453125 0.15625 -1.453125 0.375q-0.984375 0.203125 -1.296875 0.40625q-0.453125 0.328125 -0.453125 0.828125q0 0.5 0.359375 0.875q0.375 0.359375 0.953125 0.359375q0.640625 0 1.234375 -0.421875q0.421875 -0.328125 0.5625 -0.796875q0.09375 -0.296875 0.09375 -1.15625l0 -0.46875zm4.68396 -5.890625l0 -2.203125l2.375 0l0 2.203125l-2.375 0zm0 10.203125l0 -8.984375l2.375 0l0 8.984375l-2.375 0zm7.079941 0l-2.375 0l0 -8.984375l2.203125 0l0 1.28125q0.578125 -0.90625 1.03125 -1.1875q0.453125 -0.296875 1.015625 -0.296875q0.8125 0 1.578125 0.453125l-0.734375 2.0625q-0.609375 -0.390625 -1.125 -0.390625q-0.5 0 -0.84375 0.28125q-0.34375 0.28125 -0.546875 1.0q-0.203125 0.71875 -0.203125 3.0l0 2.78125zm9.229614 0l0 -12.40625l2.5 0l0 12.40625l-2.5 0zm7.673691 0l0 -10.3125l-3.671875 0l0 -2.09375l9.859375 0l0 2.09375l-3.671875 0l0 10.3125l-2.515625 0z" fill-rule="nonzero"/><path fill="#000000" fill-opacity="0.0" d="m97.16098 384.68286l133.92126 0l0 37.165344l-133.92126 0z" fill-rule="evenodd"/><path fill="#ff0000" d="m118.62974 409.32285l0 -12.40625l2.5 0l0 12.40625l-2.5 0zm7.673691 0l0 -10.3125l-3.671875 0l0 -2.09375l9.859383 0l0 2.09375l-3.671875 0l0 10.3125l-2.5156326 0zm11.55529 -8.984375l1.3125 0l0 -0.671875q0 -1.140625 0.234375 -1.6875q0.25 -0.5625 0.890625 -0.90625q0.65625 -0.359375 1.65625 -0.359375q1.015625 0 1.984375 0.296875l-0.328125 1.65625q-0.5625 -0.125 -1.09375 -0.125q-0.515625 0 -0.734375 0.234375q-0.21875 0.234375 -0.21875 0.921875l0 0.640625l1.765625 0l0 1.875l-1.765625 0l0 7.109375l-2.390625 0l0 -7.109375l-1.3125 0l0 -1.875zm6.254776 4.359375q0 -1.171875 0.578125 -2.28125q0.59375 -1.109375 1.65625 -1.6875q1.078125 -0.59375 2.40625 -0.59375q2.03125 0 3.328125 1.328125q1.3125 1.3125 1.3125 3.34375q0 2.03125 -1.328125 3.375q-1.3125 1.34375 -3.296875 1.34375q-1.234375 0 -2.359375 -0.546875q-1.125 -0.5625 -1.71875 -1.640625q-0.578125 -1.09375 -0.578125 -2.640625zm2.4375 0.125q0 1.34375 0.640625 2.0625q0.640625 0.703125 1.5625 0.703125q0.9375 0 1.5625 -0.703125q0.625 -0.71875 0.625 -2.078125q0 -1.3125 -0.625 -2.015625q-0.625 -0.71875 -1.5625 -0.71875q-0.921875 0 -1.5625 0.71875q-0.640625 0.703125 -0.640625 2.03125zm10.975342 4.5l-2.375 0l0 -8.984375l2.203125 0l0 1.28125q0.578125 -0.90625 1.03125 -1.1875q0.453125 -0.296875 1.015625 -0.296875q0.8125 0 1.578125 0.453125l-0.734375 2.0625q-0.609375 -0.390625 -1.125 -0.390625q-0.5 0 -0.84375 0.28125q-0.34375 0.28125 -0.546875 1.0q-0.203125 0.71875 -0.203125 3.0l0 2.78125zm15.073364 -4.5625l0 -2.09375l5.390625 0l0 4.953125q-0.78125 0.75 -2.28125 1.34375q-1.484375 0.578125 -3.015625 0.578125q-1.953125 0 -3.40625 -0.8125q-1.4375 -0.828125 -2.171875 -2.34375q-0.71875 -1.515625 -0.71875 -3.3125q0 -1.9375 0.8125 -3.4375q0.8125 -1.5 2.375 -2.3125q1.203125 -0.609375 2.96875 -0.609375q2.3125 0 3.609375 0.96875q1.296875 0.96875 1.671875 2.671875l-2.484375 0.46875q-0.265625 -0.921875 -0.984375 -1.4375q-0.71875 -0.53125 -1.8125 -0.53125q-1.640625 0 -2.609375 1.046875q-0.96875 1.03125 -0.96875 3.078125q0 2.203125 0.984375 3.3125q0.984375 1.109375 2.578125 1.109375q0.78125 0 1.5625 -0.3125q0.796875 -0.3125 1.375 -0.75l0 -1.578125l-2.875 0zm7.1346283 -0.0625q0 -1.171875 0.578125 -2.28125q0.59375 -1.109375 1.65625 -1.6875q1.078125 -0.59375 2.40625 -0.59375q2.03125 0 3.328125 1.328125q1.3125 1.3125 1.3125 3.34375q0 2.03125 -1.328125 3.375q-1.3125 1.34375 -3.296875 1.34375q-1.234375 0 -2.359375 -0.546875q-1.125 -0.5625 -1.71875 -1.640625q-0.578125 -1.09375 -0.578125 -2.640625zm2.4375 0.125q0 1.34375 0.640625 2.0625q0.640625 0.703125 1.5625 0.703125q0.9375 0 1.5625 -0.703125q0.625 -0.71875 0.625 -2.078125q0 -1.3125 -0.625 -2.015625q-0.625 -0.71875 -1.5625 -0.71875q-0.921875 0 -1.5625 0.71875q-0.640625 0.703125 -0.640625 2.03125zm8.147217 -0.125q0 -1.171875 0.578125 -2.28125q0.59375 -1.109375 1.65625 -1.6875q1.078125 -0.59375 2.40625 -0.59375q2.03125 0 3.328125 1.328125q1.3125 1.3125 1.3125 3.34375q0 2.03125 -1.328125 3.375q-1.3125 1.34375 -3.296875 1.34375q-1.234375 0 -2.359375 -0.546875q-1.125 -0.5625 -1.71875 -1.640625q-0.578125 -1.09375 -0.578125 -2.640625zm2.4375 0.125q0 1.34375 0.640625 2.0625q0.640625 0.703125 1.5625 0.703125q0.9375 0 1.5625 -0.703125q0.625 -0.71875 0.625 -2.078125q0 -1.3125 -0.625 -2.015625q-0.625 -0.71875 -1.5625 -0.71875q-0.921875 0 -1.5625 0.71875q-0.640625 0.703125 -0.640625 2.03125zm16.944092 4.5l-2.203125 0l0 -1.3125q-0.5625 0.765625 -1.3125 1.140625q-0.734375 0.375 -1.5 0.375q-1.546875 0 -2.65625 -1.25q-1.109375 -1.25 -1.109375 -3.484375q0 -2.28125 1.078125 -3.46875q1.078125 -1.1875 2.71875 -1.1875q1.5 0 2.609375 1.25l0 -4.46875l2.375 0l0 12.40625zm-6.34375 -4.6875q0 1.4375 0.390625 2.078125q0.578125 0.9375 1.609375 0.9375q0.828125 0 1.390625 -0.703125q0.578125 -0.703125 0.578125 -2.078125q0 -1.546875 -0.5625 -2.234375q-0.546875 -0.6875 -1.421875 -0.6875q-0.84375 0 -1.421875 0.671875q-0.5625 0.671875 -0.5625 2.015625z" fill-rule="nonzero"/><path fill="#000000" fill-opacity="0.0" d="m331.7257 385.99518l133.92126 0l0 37.165375l-133.92126 0z" fill-rule="evenodd"/><path fill="#ff0000" d="m350.77042 410.6352l0 -12.40625l2.5 0l0 12.40625l-2.5 0zm7.6736755 0l0 -10.3125l-3.671875 0l0 -2.09375l9.859375 0l0 2.09375l-3.671875 0l0 10.3125l-2.515625 0zm11.555298 -8.984375l1.3125 0l0 -0.671875q0 -1.140625 0.234375 -1.6875q0.25 -0.5625 0.890625 -0.90625q0.65625 -0.359375 1.65625 -0.359375q1.015625 0 1.984375 0.296875l-0.328125 1.65625q-0.5625 -0.125 -1.09375 -0.125q-0.515625 0 -0.734375 0.234375q-0.21875 0.234375 -0.21875 0.921875l0 0.640625l1.765625 0l0 1.875l-1.765625 0l0 7.109375l-2.390625 0l0 -7.109375l-1.3125 0l0 -1.875zm6.2547607 4.359375q0 -1.171875 0.578125 -2.28125q0.59375 -1.109375 1.65625 -1.6875q1.078125 -0.59375 2.40625 -0.59375q2.03125 0 3.328125 1.328125q1.3125 1.3125 1.3125 3.34375q0 2.03125 -1.328125 3.375q-1.3125 1.34375 -3.296875 1.34375q-1.234375 0 -2.359375 -0.546875q-1.125 -0.5625 -1.71875 -1.640625q-0.578125 -1.09375 -0.578125 -2.640625zm2.4375 0.125q0 1.34375 0.640625 2.0625q0.640625 0.703125 1.5625 0.703125q0.9375 0 1.5625 -0.703125q0.625 -0.71875 0.625 -2.078125q0 -1.3125 -0.625 -2.015625q-0.625 -0.71875 -1.5625 -0.71875q-0.921875 0 -1.5625 0.71875q-0.640625 0.703125 -0.640625 2.03125zm10.975342 4.5l-2.375 0l0 -8.984375l2.203125 0l0 1.28125q0.578125 -0.90625 1.03125 -1.1875q0.453125 -0.296875 1.015625 -0.296875q0.8125 0 1.578125 0.453125l-0.734375 2.0625q-0.609375 -0.390625 -1.125 -0.390625q-0.5 0 -0.84375 0.28125q-0.34375 0.28125 -0.546875 1.0q-0.203125 0.71875 -0.203125 3.0l0 2.78125zm15.073364 -4.5625l0 -2.09375l5.390625 0l0 4.953125q-0.78125 0.75 -2.28125 1.34375q-1.484375 0.578125 -3.015625 0.578125q-1.953125 0 -3.40625 -0.8125q-1.4375 -0.828125 -2.171875 -2.34375q-0.71875 -1.515625 -0.71875 -3.3125q0 -1.9375 0.8125 -3.4375q0.8125 -1.5 2.375 -2.3125q1.203125 -0.609375 2.96875 -0.609375q2.3125 0 3.609375 0.96875q1.296875 0.96875 1.671875 2.671875l-2.484375 0.46875q-0.265625 -0.921875 -0.984375 -1.4375q-0.71875 -0.53125 -1.8125 -0.53125q-1.640625 0 -2.609375 1.046875q-0.96875 1.03125 -0.96875 3.078125q0 2.203125 0.984375 3.3125q0.984375 1.109375 2.578125 1.109375q0.78125 0 1.5625 -0.3125q0.796875 -0.3125 1.375 -0.75l0 -1.578125l-2.875 0zm9.962738 4.5625l-2.375 0l0 -8.984375l2.203125 0l0 1.28125q0.578125 -0.90625 1.03125 -1.1875q0.453125 -0.296875 1.015625 -0.296875q0.8125 0 1.578125 0.453125l-0.734375 2.0625q-0.609375 -0.390625 -1.125 -0.390625q-0.5 0 -0.84375 0.28125q-0.34375 0.28125 -0.546875 1.0q-0.203125 0.71875 -0.203125 3.0l0 2.78125zm9.680939 -2.859375l2.359375 0.390625q-0.453125 1.3125 -1.4375 2.0q-0.984375 0.671875 -2.46875 0.671875q-2.34375 0 -3.46875 -1.53125q-0.890625 -1.234375 -0.890625 -3.09375q0 -2.234375 1.171875 -3.5q1.171875 -1.265625 2.953125 -1.265625q2.0 0 3.15625 1.328125q1.171875 1.3125 1.109375 4.046875l-5.953125 0q0.03125 1.0625 0.578125 1.65625q0.546875 0.578125 1.375 0.578125q0.546875 0 0.921875 -0.296875q0.390625 -0.3125 0.59375 -0.984375zm0.125 -2.40625q-0.015625 -1.03125 -0.53125 -1.5625q-0.5 -0.546875 -1.234375 -0.546875q-0.78125 0 -1.28125 0.578125q-0.515625 0.5625 -0.5 1.53125l3.546875 0zm9.512085 2.40625l2.359375 0.390625q-0.453125 1.3125 -1.4375 2.0q-0.984375 0.671875 -2.46875 0.671875q-2.34375 0 -3.46875 -1.53125q-0.890625 -1.234375 -0.890625 -3.09375q0 -2.234375 1.171875 -3.5q1.171875 -1.265625 2.953125 -1.265625q2.0 0 3.15625 1.328125q1.171875 1.3125 1.109375 4.046875l-5.953125 0q0.03125 1.0625 0.578125 1.65625q0.546875 0.578125 1.375 0.578125q0.546875 0 0.921875 -0.296875q0.390625 -0.3125 0.59375 -0.984375zm0.125 -2.40625q-0.015625 -1.03125 -0.53125 -1.5625q-0.5 -0.546875 -1.234375 -0.546875q-0.78125 0 -1.28125 0.578125q-0.515625 0.5625 -0.5 1.53125l3.546875 0zm12.480835 5.265625l-2.375 0l0 -4.578125q0 -1.46875 -0.15625 -1.890625q-0.15625 -0.421875 -0.5 -0.65625q-0.34375 -0.25 -0.828125 -0.25q-0.609375 0 -1.109375 0.34375q-0.484375 0.34375 -0.671875 0.90625q-0.171875 0.546875 -0.171875 2.0625l0 4.0625l-2.375 0l0 -8.984375l2.203125 0l0 1.3125q1.171875 -1.515625 2.953125 -1.515625q0.796875 0 1.4375 0.28125q0.65625 0.28125 0.984375 0.734375q0.34375 0.4375 0.46875 1.0q0.140625 0.546875 0.140625 1.59375l0 5.578125z" fill-rule="nonzero"/><path fill="#000000" fill-opacity="0.0" d="m319.90814 295.40463l157.98425 0l0 37.165344l-157.98425 0z" fill-rule="evenodd"/><path fill="#ff0000" d="m344.21417 317.18527l2.359375 0.390625q-0.453125 1.3125 -1.4375 2.0q-0.984375 0.671875 -2.46875 0.671875q-2.34375 0 -3.46875 -1.53125q-0.890625 -1.234375 -0.890625 -3.09375q0 -2.234375 1.171875 -3.5q1.171875 -1.265625 2.953125 -1.265625q2.0 0 3.15625 1.328125q1.171875 1.3125 1.109375 4.046875l-5.953125 0q0.03125 1.0625 0.578125 1.65625q0.546875 0.578125 1.375 0.578125q0.546875 0 0.921875 -0.296875q0.390625 -0.3125 0.59375 -0.984375zm0.125 -2.40625q-0.015625 -1.03125 -0.53125 -1.5625q-0.5 -0.546875 -1.234375 -0.546875q-0.78125 0 -1.28125 0.578125q-0.515625 0.5625 -0.5 1.53125l3.546875 0zm-3.03125 -4.8125l1.171875 -2.53125l2.671875 0l-2.328125 2.53125l-1.515625 0zm15.168335 3.75l-2.34375 0.421875q-0.125 -0.703125 -0.546875 -1.046875q-0.40625 -0.359375 -1.078125 -0.359375q-0.890625 0 -1.421875 0.609375q-0.515625 0.609375 -0.515625 2.046875q0 1.609375 0.53125 2.265625q0.53125 0.65625 1.4375 0.65625q0.6875 0 1.109375 -0.375q0.4375 -0.390625 0.609375 -1.328125l2.34375 0.390625q-0.375 1.609375 -1.40625 2.4375q-1.03125 0.8125 -2.765625 0.8125q-1.96875 0 -3.140625 -1.234375q-1.171875 -1.25 -1.171875 -3.453125q0 -2.21875 1.171875 -3.453125q1.1875 -1.25 3.1875 -1.25q1.640625 0 2.609375 0.703125q0.96875 0.703125 1.390625 2.15625zm1.24646 1.703125q0 -1.171875 0.578125 -2.28125q0.59375 -1.109375 1.65625 -1.6875q1.078125 -0.59375 2.40625 -0.59375q2.03125 0 3.328125 1.328125q1.3125 1.3125 1.3125 3.34375q0 2.03125 -1.328125 3.375q-1.3125 1.34375 -3.296875 1.34375q-1.234375 0 -2.359375 -0.546875q-1.125 -0.5625 -1.71875 -1.640625q-0.578125 -1.09375 -0.578125 -2.640625zm2.4375 0.125q0 1.34375 0.640625 2.0625q0.640625 0.703125 1.5625 0.703125q0.9375 0 1.5625 -0.703125q0.625 -0.71875 0.625 -2.078125q0 -1.3125 -0.625 -2.015625q-0.625 -0.71875 -1.5625 -0.71875q-0.921875 0 -1.5625 0.71875q-0.640625 0.703125 -0.640625 2.03125zm16.537842 -1.828125l-2.34375 0.421875q-0.125 -0.703125 -0.546875 -1.046875q-0.40625 -0.359375 -1.078125 -0.359375q-0.890625 0 -1.421875 0.609375q-0.515625 0.609375 -0.515625 2.046875q0 1.609375 0.53125 2.265625q0.53125 0.65625 1.4375 0.65625q0.6875 0 1.109375 -0.375q0.4375 -0.390625 0.609375 -1.328125l2.34375 0.390625q-0.375 1.609375 -1.40625 2.4375q-1.03125 0.8125 -2.765625 0.8125q-1.96875 0 -3.140625 -1.234375q-1.171875 -1.25 -1.171875 -3.453125q0 -2.21875 1.171875 -3.453125q1.1875 -1.25 3.1875 -1.25q1.640625 0 2.609375 0.703125q0.96875 0.703125 1.390625 2.15625zm1.24646 1.703125q0 -1.171875 0.578125 -2.28125q0.59375 -1.109375 1.65625 -1.6875q1.078125 -0.59375 2.40625 -0.59375q2.03125 0 3.328125 1.328125q1.3125 1.3125 1.3125 3.34375q0 2.03125 -1.328125 3.375q-1.3125 1.34375 -3.296875 1.34375q-1.234375 0 -2.359375 -0.546875q-1.125 -0.5625 -1.71875 -1.640625q-0.578125 -1.09375 -0.578125 -2.640625zm2.4375 0.125q0 1.34375 0.640625 2.0625q0.640625 0.703125 1.5625 0.703125q0.9375 0 1.5625 -0.703125q0.625 -0.71875 0.625 -2.078125q0 -1.3125 -0.625 -2.015625q-0.625 -0.71875 -1.5625 -0.71875q-0.921875 0 -1.5625 0.71875q-0.640625 0.703125 -0.640625 2.03125zm16.881592 4.5l-2.375 0l0 -4.578125q0 -1.46875 -0.15625 -1.890625q-0.15625 -0.421875 -0.5 -0.65625q-0.34375 -0.25 -0.828125 -0.25q-0.609375 0 -1.109375 0.34375q-0.484375 0.34375 -0.671875 0.90625q-0.171875 0.546875 -0.171875 2.0625l0 4.0625l-2.375 0l0 -8.984375l2.203125 0l0 1.3125q1.171875 -1.515625 2.953125 -1.515625q0.796875 0 1.4375 0.28125q0.65625 0.28125 0.984375 0.734375q0.34375 0.4375 0.46875 1.0q0.140625 0.546875 0.140625 1.59375l0 5.578125zm10.240967 -6.328125l-2.34375 0.421875q-0.125 -0.703125 -0.546875 -1.046875q-0.40625 -0.359375 -1.078125 -0.359375q-0.890625 0 -1.421875 0.609375q-0.515625 0.609375 -0.515625 2.046875q0 1.609375 0.53125 2.265625q0.53125 0.65625 1.4375 0.65625q0.6875 0 1.109375 -0.375q0.4375 -0.390625 0.609375 -1.328125l2.34375 0.390625q-0.375 1.609375 -1.40625 2.4375q-1.03125 0.8125 -2.765625 0.8125q-1.96875 0 -3.140625 -1.234375q-1.171875 -1.25 -1.171875 -3.453125q0 -2.21875 1.171875 -3.453125q1.1875 -1.25 3.1875 -1.25q1.640625 0 2.609375 0.703125q0.96875 0.703125 1.390625 2.15625zm7.012085 3.46875l2.359375 0.390625q-0.453125 1.3125 -1.4375 2.0q-0.984375 0.671875 -2.46875 0.671875q-2.34375 0 -3.46875 -1.53125q-0.890625 -1.234375 -0.890625 -3.09375q0 -2.234375 1.171875 -3.5q1.171875 -1.265625 2.953125 -1.265625q2.0 0 3.15625 1.328125q1.171875 1.3125 1.109375 4.046875l-5.953125 0q0.03125 1.0625 0.578125 1.65625q0.546875 0.578125 1.375 0.578125q0.546875 0 0.921875 -0.296875q0.390625 -0.3125 0.59375 -0.984375zm0.125 -2.40625q-0.015625 -1.03125 -0.53125 -1.5625q-0.5 -0.546875 -1.234375 -0.546875q-0.78125 0 -1.28125 0.578125q-0.515625 0.5625 -0.5 1.53125l3.546875 0zm4.230835 -3.71875l2.21875 0l0 1.3125q0.4375 -0.671875 1.171875 -1.09375q0.734375 -0.421875 1.625 -0.421875q1.578125 0 2.65625 1.234375q1.09375 1.21875 1.09375 3.40625q0 2.25 -1.109375 3.5q-1.09375 1.25 -2.65625 1.25q-0.734375 0 -1.34375 -0.296875q-0.609375 -0.296875 -1.28125 -1.015625l0 4.53125l-2.375 0l0 -12.40625zm2.359375 4.34375q0 1.515625 0.59375 2.234375q0.609375 0.71875 1.46875 0.71875q0.828125 0 1.375 -0.65625q0.546875 -0.671875 0.546875 -2.1875q0 -1.40625 -0.5625 -2.09375q-0.5625 -0.6875 -1.40625 -0.6875q-0.875 0 -1.453125 0.671875q-0.5625 0.671875 -0.5625 2.0zm12.412842 -4.34375l0 1.890625l-1.625 0l0 3.625q0 1.09375 0.046875 1.28125q0.046875 0.1875 0.203125 0.3125q0.171875 0.109375 0.421875 0.109375q0.328125 0 0.953125 -0.234375l0.203125 1.84375q-0.828125 0.359375 -1.875 0.359375q-0.65625 0 -1.171875 -0.21875q-0.515625 -0.21875 -0.765625 -0.546875q-0.234375 -0.34375 -0.3125 -0.9375q-0.078125 -0.40625 -0.078125 -1.671875l0 -3.921875l-1.09375 0l0 -1.890625l1.09375 0l0 -1.78125l2.375 -1.390625l0 3.171875l1.625 0zm1.6610107 -1.21875l0 -2.203125l2.375 0l0 2.203125l-2.375 0zm0 10.203125l0 -8.984375l2.375 0l0 8.984375l-2.375 0zm4.251831 -4.625q0 -1.171875 0.578125 -2.28125q0.59375 -1.109375 1.65625 -1.6875q1.078125 -0.59375 2.40625 -0.59375q2.03125 0 3.328125 1.328125q1.3125 1.3125 1.3125 3.34375q0 2.03125 -1.328125 3.375q-1.3125 1.34375 -3.296875 1.34375q-1.234375 0 -2.359375 -0.546875q-1.125 -0.5625 -1.71875 -1.640625q-0.578125 -1.09375 -0.578125 -2.640625zm2.4375 0.125q0 1.34375 0.640625 2.0625q0.640625 0.703125 1.5625 0.703125q0.9375 0 1.5625 -0.703125q0.625 -0.71875 0.625 -2.078125q0 -1.3125 -0.625 -2.015625q-0.625 -0.71875 -1.5625 -0.71875q-0.921875 0 -1.5625 0.71875q-0.640625 0.703125 -0.640625 2.03125zm16.881592 4.5l-2.375 0l0 -4.578125q0 -1.46875 -0.15625 -1.890625q-0.15625 -0.421875 -0.5 -0.65625q-0.34375 -0.25 -0.828125 -0.25q-0.609375 0 -1.109375 0.34375q-0.484375 0.34375 -0.671875 0.90625q-0.171875 0.546875 -0.171875 2.0625l0 4.0625l-2.375 0l0 -8.984375l2.203125 0l0 1.3125q1.171875 -1.515625 2.953125 -1.515625q0.796875 0 1.4375 0.28125q0.65625 0.28125 0.984375 0.734375q0.34375 0.4375 0.46875 1.0q0.140625 0.546875 0.140625 1.59375l0 5.578125z" fill-rule="nonzero"/><path fill="#000000" fill-opacity="0.0" d="m308.08398 137.85652l181.19687 0l0 37.165344l-181.19687 0z" fill-rule="evenodd"/><path fill="#ff0000" d="m350.8398 157.93402l0 -2.09375l5.390625 0l0 4.953125q-0.78125 0.75 -2.28125 1.34375q-1.484375 0.578125 -3.015625 0.578125q-1.953125 0 -3.40625 -0.8125q-1.4375 -0.828125 -2.171875 -2.34375q-0.71875 -1.515625 -0.71875 -3.3125q0 -1.9375 0.8125 -3.4375q0.8125 -1.5 2.375 -2.3125q1.203125 -0.609375 2.96875 -0.609375q2.3125 0 3.609375 0.96875q1.296875 0.96875 1.671875 2.671875l-2.484375 0.46875q-0.265625 -0.921875 -0.984375 -1.4375q-0.71875 -0.53125 -1.8125 -0.53125q-1.640625 0 -2.609375 1.046875q-0.96875 1.03125 -0.96875 3.078125q0 2.203125 0.984375 3.3125q0.984375 1.109375 2.578125 1.109375q0.78125 0 1.5625 -0.3125q0.796875 -0.3125 1.375 -0.75l0 -1.578125l-2.875 0zm9.962769 4.5625l-2.375 0l0 -8.984375l2.203125 0l0 1.28125q0.578125 -0.90625 1.03125 -1.1875q0.453125 -0.296875 1.015625 -0.296875q0.8125 0 1.578125 0.453125l-0.734375 2.0625q-0.609375 -0.390625 -1.125 -0.390625q-0.5 0 -0.84375 0.28125q-0.34375 0.28125 -0.546875 1.0q-0.203125 0.71875 -0.203125 3.0l0 2.78125zm9.680908 -2.859375l2.359375 0.390625q-0.453125 1.3125 -1.4375 2.0q-0.984375 0.671875 -2.46875 0.671875q-2.34375 0 -3.46875 -1.53125q-0.890625 -1.234375 -0.890625 -3.09375q0 -2.234375 1.171875 -3.5q1.171875 -1.265625 2.953125 -1.265625q2.0 0 3.15625 1.328125q1.171875 1.3125 1.109375 4.046875l-5.953125 0q0.03125 1.0625 0.578125 1.65625q0.546875 0.578125 1.375 0.578125q0.546875 0 0.921875 -0.296875q0.390625 -0.3125 0.59375 -0.984375zm0.125 -2.40625q-0.015625 -1.03125 -0.53125 -1.5625q-0.5 -0.546875 -1.234375 -0.546875q-0.78125 0 -1.28125 0.578125q-0.515625 0.5625 -0.5 1.53125l3.546875 0zm9.512085 2.40625l2.359375 0.390625q-0.453125 1.3125 -1.4375 2.0q-0.984375 0.671875 -2.46875 0.671875q-2.34375 0 -3.46875 -1.53125q-0.890625 -1.234375 -0.890625 -3.09375q0 -2.234375 1.171875 -3.5q1.171875 -1.265625 2.953125 -1.265625q2.0 0 3.15625 1.328125q1.171875 1.3125 1.109375 4.046875l-5.953125 0q0.03125 1.0625 0.578125 1.65625q0.546875 0.578125 1.375 0.578125q0.546875 0 0.921875 -0.296875q0.390625 -0.3125 0.59375 -0.984375zm0.125 -2.40625q-0.015625 -1.03125 -0.53125 -1.5625q-0.5 -0.546875 -1.234375 -0.546875q-0.78125 0 -1.28125 0.578125q-0.515625 0.5625 -0.5 1.53125l3.546875 0zm12.480835 5.265625l-2.375 0l0 -4.578125q0 -1.46875 -0.15625 -1.890625q-0.15625 -0.421875 -0.5 -0.65625q-0.34375 -0.25 -0.828125 -0.25q-0.609375 0 -1.109375 0.34375q-0.484375 0.34375 -0.671875 0.90625q-0.171875 0.546875 -0.171875 2.0625l0 4.0625l-2.375 0l0 -8.984375l2.203125 0l0 1.3125q1.171875 -1.515625 2.953125 -1.515625q0.796875 0 1.4375 0.28125q0.65625 0.28125 0.984375 0.734375q0.34375 0.4375 0.46875 1.0q0.140625 0.546875 0.140625 1.59375l0 5.578125zm11.164673 3.640625l-1.640625 0q-1.28125 -1.953125 -1.96875 -4.046875q-0.671875 -2.109375 -0.671875 -4.09375q0 -2.4375 0.84375 -4.625q0.71875 -1.890625 1.84375 -3.484375l1.625 0q-1.171875 2.5625 -1.609375 4.359375q-0.421875 1.796875 -0.421875 3.8125q0 1.390625 0.25 2.84375q0.265625 1.453125 0.703125 2.765625q0.296875 0.859375 1.046875 2.46875zm0.78601074 -12.625l1.3125 0l0 -0.671875q0 -1.140625 0.234375 -1.6875q0.25 -0.5625 0.890625 -0.90625q0.65625 -0.359375 1.65625 -0.359375q1.015625 0 1.984375 0.296875l-0.328125 1.65625q-0.5625 -0.125 -1.09375 -0.125q-0.515625 0 -0.734375 0.234375q-0.21875 0.234375 -0.21875 0.921875l0 0.640625l1.765625 0l0 1.875l-1.765625 0l0 7.109375l-2.390625 0l0 -7.109375l-1.3125 0l0 -1.875zm6.2547913 4.359375q0 -1.171875 0.578125 -2.28125q0.59375 -1.109375 1.65625 -1.6875q1.078125 -0.59375 2.40625 -0.59375q2.03125 0 3.328125 1.328125q1.3125 1.3125 1.3125 3.34375q0 2.03125 -1.328125 3.375q-1.3125 1.34375 -3.296875 1.34375q-1.234375 0 -2.359375 -0.546875q-1.125 -0.5625 -1.71875 -1.640625q-0.578125 -1.09375 -0.578125 -2.640625zm2.4375 0.125q0 1.34375 0.640625 2.0625q0.640625 0.703125 1.5625 0.703125q0.9375 0 1.5625 -0.703125q0.625 -0.71875 0.625 -2.078125q0 -1.3125 -0.625 -2.015625q-0.625 -0.71875 -1.5625 -0.71875q-0.921875 0 -1.5625 0.71875q-0.640625 0.703125 -0.640625 2.03125zm10.975342 4.5l-2.375 0l0 -8.984375l2.203125 0l0 1.28125q0.578125 -0.90625 1.03125 -1.1875q0.453125 -0.296875 1.015625 -0.296875q0.8125 0 1.578125 0.453125l-0.734375 2.0625q-0.609375 -0.390625 -1.125 -0.390625q-0.5 0 -0.84375 0.28125q-0.34375 0.28125 -0.546875 1.0q-0.203125 0.71875 -0.203125 3.0l0 2.78125zm3.8059082 3.640625q0.703125 -1.5 0.984375 -2.3125q0.296875 -0.796875 0.546875 -1.84375q0.25 -1.046875 0.359375 -1.984375q0.125 -0.953125 0.125 -1.9375q0 -2.015625 -0.4375 -3.8125q-0.4375 -1.796875 -1.59375 -4.359375l1.625 0q1.265625 1.8125 1.96875 3.859375q0.71875 2.03125 0.71875 4.125q0 1.78125 -0.5625 3.796875q-0.625 2.265625 -2.09375 4.46875l-1.640625 0zm11.194092 -3.640625l0 -12.40625l2.5 0l0 12.40625l-2.5 0zm7.673706 0l0 -10.3125l-3.671875 0l0 -2.09375l9.859375 0l0 2.09375l-3.671875 0l0 10.3125l-2.515625 0z" fill-rule="nonzero"/><path fill="#000000" fill-opacity="0.0" d="m99.78128 210.06561l596.063 0l0 37.16536l-596.063 0z" fill-rule="evenodd"/><path fill="#ff0000" d="m259.2233 230.14311l2.421875 0.765625q-0.5625 2.03125 -1.859375 3.03125q-1.296875 0.984375 -3.296875 0.984375q-2.46875 0 -4.0625 -1.6875q-1.578125 -1.703125 -1.578125 -4.625q0 -3.09375 1.59375 -4.796875q1.59375 -1.71875 4.203125 -1.71875q2.28125 0 3.703125 1.34375q0.84375 0.796875 1.265625 2.28125l-2.484375 0.59375q-0.21875 -0.96875 -0.921875 -1.515625q-0.6875 -0.5625 -1.6875 -0.5625q-1.375 0 -2.234375 0.984375q-0.859375 0.984375 -0.859375 3.203125q0 2.359375 0.84375 3.359375q0.84375 1.0 2.203125 1.0q1.0 0 1.71875 -0.640625q0.71875 -0.640625 1.03125 -2.0zm3.9981995 -0.0625q0 -1.171875 0.578125 -2.28125q0.59375 -1.109375 1.65625 -1.6875q1.078125 -0.59375 2.40625 -0.59375q2.03125 0 3.328125 1.328125q1.3125 1.3125 1.3125 3.34375q0 2.03125 -1.328125 3.375q-1.3125 1.34375 -3.296875 1.34375q-1.234375 0 -2.359375 -0.546875q-1.125 -0.5625 -1.71875 -1.640625q-0.578125 -1.09375 -0.578125 -2.640625zm2.4375 0.125q0 1.34375 0.640625 2.0625q0.640625 0.703125 1.5625 0.703125q0.9375 0 1.5625 -0.703125q0.625 -0.71875 0.625 -2.078125q0 -1.3125 -0.625 -2.015625q-0.625 -0.71875 -1.5625 -0.71875q-0.921875 0 -1.5625 0.71875q-0.640625 0.703125 -0.640625 2.03125zm16.881592 4.5l-2.375 0l0 -4.578125q0 -1.46875 -0.15625 -1.890625q-0.15625 -0.421875 -0.5 -0.65625q-0.34375 -0.25 -0.828125 -0.25q-0.609375 0 -1.109375 0.34375q-0.484375 0.34375 -0.671875 0.90625q-0.171875 0.546875 -0.171875 2.0625l0 4.0625l-2.375 0l0 -8.984375l2.203125 0l0 1.3125q1.171875 -1.515625 2.953125 -1.515625q0.796875 0 1.4375 0.28125q0.65625 0.28125 0.984375 0.734375q0.34375 0.4375 0.46875 1.0q0.140625 0.546875 0.140625 1.59375l0 5.578125zm10.240967 -6.328125l-2.34375 0.421875q-0.125 -0.703125 -0.546875 -1.046875q-0.40625 -0.359375 -1.078125 -0.359375q-0.890625 0 -1.421875 0.609375q-0.515625 0.609375 -0.515625 2.046875q0 1.609375 0.53125 2.265625q0.53125 0.65625 1.4375 0.65625q0.6875 0 1.109375 -0.375q0.4375 -0.390625 0.609375 -1.328125l2.34375 0.390625q-0.375 1.609375 -1.40625 2.4375q-1.03125 0.8125 -2.765625 0.8125q-1.96875 0 -3.140625 -1.234375q-1.171875 -1.25 -1.171875 -3.453125q0 -2.21875 1.171875 -3.453125q1.1875 -1.25 3.1875 -1.25q1.640625 0 2.609375 0.703125q0.96875 0.703125 1.390625 2.15625zm7.012085 3.46875l2.359375 0.390625q-0.453125 1.3125 -1.4375 2.0q-0.984375 0.671875 -2.46875 0.671875q-2.34375 0 -3.46875 -1.53125q-0.890625 -1.234375 -0.890625 -3.09375q0 -2.234375 1.171875 -3.5q1.171875 -1.265625 2.953125 -1.265625q2.0 0 3.15625 1.328125q1.171875 1.3125 1.109375 4.046875l-5.953125 0q0.03125 1.0625 0.578125 1.65625q0.546875 0.578125 1.375 0.578125q0.546875 0 0.921875 -0.296875q0.390625 -0.3125 0.59375 -0.984375zm0.125 -2.40625q-0.015625 -1.03125 -0.53125 -1.5625q-0.5 -0.546875 -1.234375 -0.546875q-0.78125 0 -1.28125 0.578125q-0.515625 0.5625 -0.5 1.53125l3.546875 0zm4.230835 -3.71875l2.21875 0l0 1.3125q0.4375 -0.671875 1.171875 -1.09375q0.734375 -0.421875 1.625 -0.421875q1.578125 0 2.65625 1.234375q1.09375 1.21875 1.09375 3.40625q0 2.25 -1.109375 3.5q-1.09375 1.25 -2.65625 1.25q-0.734375 0 -1.34375 -0.296875q-0.609375 -0.296875 -1.28125 -1.015625l0 4.53125l-2.375 0l0 -12.40625zm2.359375 4.34375q0 1.515625 0.59375 2.234375q0.609375 0.71875 1.46875 0.71875q0.828125 0 1.375 -0.65625q0.546875 -0.671875 0.546875 -2.1875q0 -1.40625 -0.5625 -2.09375q-0.5625 -0.6875 -1.40625 -0.6875q-0.875 0 -1.453125 0.671875q-0.5625 0.671875 -0.5625 2.0zm12.412842 -4.34375l0 1.890625l-1.625 0l0 3.625q0 1.09375 0.046875 1.28125q0.046875 0.1875 0.203125 0.3125q0.171875 0.109375 0.421875 0.109375q0.328125 0 0.953125 -0.234375l0.203125 1.84375q-0.828125 0.359375 -1.875 0.359375q-0.65625 0 -1.171875 -0.21875q-0.515625 -0.21875 -0.765625 -0.546875q-0.234375 -0.34375 -0.3125 -0.9375q-0.078125 -0.40625 -0.078125 -1.671875l0 -3.921875l-1.09375 0l0 -1.890625l1.09375 0l0 -1.78125l2.375 -1.390625l0 3.171875l1.625 0zm1.6610107 -1.21875l0 -2.203125l2.375 0l0 2.203125l-2.375 0zm0 10.203125l0 -8.984375l2.375 0l0 8.984375l-2.375 0zm4.251831 -4.625q0 -1.171875 0.578125 -2.28125q0.59375 -1.109375 1.65625 -1.6875q1.078125 -0.59375 2.40625 -0.59375q2.03125 0 3.328125 1.328125q1.3125 1.3125 1.3125 3.34375q0 2.03125 -1.328125 3.375q-1.3125 1.34375 -3.296875 1.34375q-1.234375 0 -2.359375 -0.546875q-1.125 -0.5625 -1.71875 -1.640625q-0.578125 -1.09375 -0.578125 -2.640625zm2.4375 0.125q0 1.34375 0.640625 2.0625q0.640625 0.703125 1.5625 0.703125q0.9375 0 1.5625 -0.703125q0.625 -0.71875 0.625 -2.078125q0 -1.3125 -0.625 -2.015625q-0.625 -0.71875 -1.5625 -0.71875q-0.921875 0 -1.5625 0.71875q-0.640625 0.703125 -0.640625 2.03125zm16.881592 4.5l-2.375 0l0 -4.578125q0 -1.46875 -0.15625 -1.890625q-0.15625 -0.421875 -0.5 -0.65625q-0.34375 -0.25 -0.828125 -0.25q-0.609375 0 -1.109375 0.34375q-0.484375 0.34375 -0.671875 0.90625q-0.171875 0.546875 -0.171875 2.0625l0 4.0625l-2.375 0l0 -8.984375l2.203125 0l0 1.3125q1.171875 -1.515625 2.953125 -1.515625q0.796875 0 1.4375 0.28125q0.65625 0.28125 0.984375 0.734375q0.34375 0.4375 0.46875 1.0q0.140625 0.546875 0.140625 1.59375l0 5.578125zm15.399017 0l-2.375 0l0 -4.578125q0 -1.46875 -0.15625 -1.890625q-0.15625 -0.421875 -0.5 -0.65625q-0.34375 -0.25 -0.828125 -0.25q-0.609375 0 -1.109375 0.34375q-0.484375 0.34375 -0.671875 0.90625q-0.171875 0.546875 -0.171875 2.0625l0 4.0625l-2.375 0l0 -8.984375l2.203125 0l0 1.3125q1.171875 -1.515625 2.953125 -1.515625q0.796875 0 1.4375 0.28125q0.65625 0.28125 0.984375 0.734375q0.34375 0.4375 0.46875 1.0q0.140625 0.546875 0.140625 1.59375l0 5.578125zm8.319092 0l0 -1.34375q-0.484375 0.71875 -1.296875 1.140625q-0.796875 0.40625 -1.671875 0.40625q-0.90625 0 -1.625 -0.390625q-0.71875 -0.40625 -1.046875 -1.125q-0.328125 -0.71875 -0.328125 -1.984375l0 -5.6875l2.390625 0l0 4.125q0 1.890625 0.125 2.328125q0.125 0.421875 0.46875 0.671875q0.359375 0.25 0.890625 0.25q0.609375 0 1.09375 -0.328125q0.484375 -0.34375 0.65625 -0.828125q0.171875 -0.5 0.171875 -2.421875l0 -3.796875l2.375 0l0 8.984375l-2.203125 0zm4.490967 -8.984375l2.1875 0l0 1.21875q1.1875 -1.421875 2.8125 -1.421875q0.859375 0 1.484375 0.359375q0.640625 0.34375 1.046875 1.0625q0.59375 -0.71875 1.28125 -1.0625q0.6875 -0.359375 1.46875 -0.359375q0.984375 0 1.671875 0.40625q0.6875 0.390625 1.015625 1.171875q0.25 0.578125 0.25 1.859375l0 5.75l-2.375 0l0 -5.140625q0 -1.328125 -0.25 -1.71875q-0.328125 -0.515625 -1.015625 -0.515625q-0.5 0 -0.9375 0.3125q-0.4375 0.296875 -0.640625 0.890625q-0.1875 0.59375 -0.1875 1.859375l0 4.3125l-2.375 0l0 -4.921875q0 -1.3125 -0.125 -1.6875q-0.125 -0.390625 -0.390625 -0.578125q-0.265625 -0.1875 -0.734375 -0.1875q-0.546875 0 -0.984375 0.296875q-0.4375 0.296875 -0.640625 0.859375q-0.1875 0.5625 -0.1875 1.859375l0 4.359375l-2.375 0l0 -8.984375zm20.798126 6.125l2.359375 0.390625q-0.453125 1.3125 -1.4375 2.0q-0.984375 0.671875 -2.46875 0.671875q-2.34375 0 -3.46875 -1.53125q-0.890625 -1.234375 -0.890625 -3.09375q0 -2.234375 1.171875 -3.5q1.171875 -1.265625 2.953125 -1.265625q2.0 0 3.15625 1.328125q1.171875 1.3125 1.109375 4.046875l-5.953125 0q0.03125 1.0625 0.578125 1.65625q0.546875 0.578125 1.375 0.578125q0.546875 0 0.921875 -0.296875q0.390625 -0.3125 0.59375 -0.984375zm0.125 -2.40625q-0.015625 -1.03125 -0.53125 -1.5625q-0.5 -0.546875 -1.234375 -0.546875q-0.78125 0 -1.28125 0.578125q-0.515625 0.5625 -0.5 1.53125l3.546875 0zm-3.03125 -4.8125l1.171875 -2.53125l2.671875 0l-2.328125 2.53125l-1.515625 0zm9.605835 10.078125l-2.375 0l0 -8.984375l2.203125 0l0 1.28125q0.578125 -0.90625 1.03125 -1.1875q0.453125 -0.296875 1.015625 -0.296875q0.8125 0 1.578125 0.453125l-0.734375 2.0625q-0.609375 -0.390625 -1.125 -0.390625q-0.5 0 -0.84375 0.28125q-0.34375 0.28125 -0.546875 1.0q-0.203125 0.71875 -0.203125 3.0l0 2.78125zm4.4778137 -10.203125l0 -2.203125l2.375 0l0 2.203125l-2.375 0zm0 10.203125l0 -8.984375l2.375 0l0 8.984375l-2.375 0zm10.673676 3.421875l0 -4.515625q-0.453125 0.59375 -1.15625 0.953125q-0.6875 0.34375 -1.5 0.34375q-1.53125 0 -2.515625 -1.15625q-1.171875 -1.34375 -1.171875 -3.640625q0 -2.171875 1.09375 -3.375q1.109375 -1.21875 2.71875 -1.21875q0.90625 0 1.5625 0.390625q0.65625 0.375 1.15625 1.140625l0 -1.328125l2.203125 0l0 12.40625l-2.390625 0zm0.078125 -8.03125q0 -1.375 -0.5625 -2.046875q-0.5625 -0.671875 -1.40625 -0.671875q-0.859375 0 -1.4375 0.6875q-0.578125 0.6875 -0.578125 2.171875q0 1.484375 0.546875 2.140625q0.5625 0.65625 1.390625 0.65625q0.8125 0 1.421875 -0.734375q0.625 -0.734375 0.625 -2.203125zm10.553467 4.609375l0 -1.34375q-0.484375 0.71875 -1.296875 1.140625q-0.796875 0.40625 -1.671875 0.40625q-0.90625 0 -1.625 -0.390625q-0.71875 -0.40625 -1.046875 -1.125q-0.328125 -0.71875 -0.328125 -1.984375l0 -5.6875l2.390625 0l0 4.125q0 1.890625 0.125 2.328125q0.125 0.421875 0.46875 0.671875q0.359375 0.25 0.890625 0.25q0.609375 0 1.09375 -0.328125q0.484375 -0.34375 0.65625 -0.828125q0.171875 -0.5 0.171875 -2.421875l0 -3.796875l2.375 0l0 8.984375l-2.203125 0zm9.881592 -2.859375l2.359375 0.390625q-0.453125 1.3125 -1.4375 2.0q-0.984375 0.671875 -2.46875 0.671875q-2.34375 0 -3.46875 -1.53125q-0.890625 -1.234375 -0.890625 -3.09375q0 -2.234375 1.171875 -3.5q1.171875 -1.265625 2.953125 -1.265625q2.0 0 3.15625 1.328125q1.171875 1.3125 1.109375 4.046875l-5.953125 0q0.03125 1.0625 0.578125 1.65625q0.546875 0.578125 1.375 0.578125q0.546875 0 0.921875 -0.296875q0.390625 -0.3125 0.59375 -0.984375zm0.125 -2.40625q-0.015625 -1.03125 -0.53125 -1.5625q-0.5 -0.546875 -1.234375 -0.546875q-0.78125 0 -1.28125 0.578125q-0.515625 0.5625 -0.5 1.53125l3.546875 0zm11.3888855 5.265625l-2.375 0l0 -8.984375l2.203125 0l0 1.28125q0.578125 -0.90625 1.03125 -1.1875q0.453125 -0.296875 1.015625 -0.296875q0.8125 0 1.578125 0.453125l-0.734375 2.0625q-0.609375 -0.390625 -1.125 -0.390625q-0.5 0 -0.84375 0.28125q-0.34375 0.28125 -0.546875 1.0q-0.203125 0.71875 -0.203125 3.0l0 2.78125zm9.680939 -2.859375l2.359375 0.390625q-0.453125 1.3125 -1.4375 2.0q-0.984375 0.671875 -2.46875 0.671875q-2.34375 0 -3.46875 -1.53125q-0.890625 -1.234375 -0.890625 -3.09375q0 -2.234375 1.171875 -3.5q1.171875 -1.265625 2.953125 -1.265625q2.0 0 3.15625 1.328125q1.171875 1.3125 1.109375 4.046875l-5.953125 0q0.03125 1.0625 0.578125 1.65625q0.546875 0.578125 1.375 0.578125q0.546875 0 0.921875 -0.296875q0.390625 -0.3125 0.59375 -0.984375zm0.125 -2.40625q-0.015625 -1.03125 -0.53125 -1.5625q-0.5 -0.546875 -1.234375 -0.546875q-0.78125 0 -1.28125 0.578125q-0.515625 0.5625 -0.5 1.53125l3.546875 0zm3.46521 2.703125l2.390625 -0.359375q0.140625 0.6875 0.609375 1.046875q0.46875 0.359375 1.3125 0.359375q0.921875 0 1.375 -0.34375q0.3125 -0.234375 0.3125 -0.625q0 -0.28125 -0.15625 -0.453125q-0.1875 -0.171875 -0.796875 -0.3125q-2.875 -0.640625 -3.65625 -1.15625q-1.0625 -0.734375 -1.0625 -2.03125q0 -1.15625 0.921875 -1.953125q0.921875 -0.796875 2.859375 -0.796875q1.84375 0 2.734375 0.609375q0.90625 0.59375 1.25 1.765625l-2.25 0.421875q-0.140625 -0.53125 -0.546875 -0.8125q-0.390625 -0.28125 -1.140625 -0.28125q-0.9375 0 -1.34375 0.265625q-0.28125 0.1875 -0.28125 0.484375q0 0.25 0.25 0.4375q0.3125 0.234375 2.203125 0.671875q1.90625 0.421875 2.671875 1.046875q0.734375 0.640625 0.734375 1.765625q0 1.234375 -1.03125 2.125q-1.03125 0.890625 -3.046875 0.890625q-1.84375 0 -2.921875 -0.734375q-1.0625 -0.75 -1.390625 -2.03125zm10.40271 -6.421875l2.21875 0l0 1.3125q0.4375 -0.671875 1.171875 -1.09375q0.734375 -0.421875 1.625 -0.421875q1.578125 0 2.65625 1.234375q1.09375 1.21875 1.09375 3.40625q0 2.25 -1.109375 3.5q-1.09375 1.25 -2.65625 1.25q-0.734375 0 -1.34375 -0.296875q-0.609375 -0.296875 -1.28125 -1.015625l0 4.53125l-2.375 0l0 -12.40625zm2.359375 4.34375q0 1.515625 0.59375 2.234375q0.609375 0.71875 1.46875 0.71875q0.828125 0 1.375 -0.65625q0.546875 -0.671875 0.546875 -2.1875q0 -1.40625 -0.5625 -2.09375q-0.5625 -0.6875 -1.40625 -0.6875q-0.875 0 -1.453125 0.671875q-0.5625 0.671875 -0.5625 2.0zm7.740967 0.015625q0 -1.171875 0.578125 -2.28125q0.59375 -1.109375 1.65625 -1.6875q1.078125 -0.59375 2.40625 -0.59375q2.03125 0 3.328125 1.328125q1.3125 1.3125 1.3125 3.34375q0 2.03125 -1.328125 3.375q-1.3125 1.34375 -3.296875 1.34375q-1.234375 0 -2.359375 -0.546875q-1.125 -0.5625 -1.71875 -1.640625q-0.578125 -1.09375 -0.578125 -2.640625zm2.4375 0.125q0 1.34375 0.640625 2.0625q0.640625 0.703125 1.5625 0.703125q0.9375 0 1.5625 -0.703125q0.625 -0.71875 0.625 -2.078125q0 -1.3125 -0.625 -2.015625q-0.625 -0.71875 -1.5625 -0.71875q-0.921875 0 -1.5625 0.71875q-0.640625 0.703125 -0.640625 2.03125zm16.881592 4.5l-2.375 0l0 -4.578125q0 -1.46875 -0.15625 -1.890625q-0.15625 -0.421875 -0.5 -0.65625q-0.34375 -0.25 -0.828125 -0.25q-0.609375 0 -1.109375 0.34375q-0.484375 0.34375 -0.671875 0.90625q-0.171875 0.546875 -0.171875 2.0625l0 4.0625l-2.375 0l0 -8.984375l2.203125 0l0 1.3125q1.171875 -1.515625 2.953125 -1.515625q0.796875 0 1.4375 0.28125q0.65625 0.28125 0.984375 0.734375q0.34375 0.4375 0.46875 1.0q0.140625 0.546875 0.140625 1.59375l0 5.578125zm1.5690918 -2.5625l2.390625 -0.359375q0.140625 0.6875 0.609375 1.046875q0.46875 0.359375 1.3125 0.359375q0.921875 0 1.375 -0.34375q0.3125 -0.234375 0.3125 -0.625q0 -0.28125 -0.15625 -0.453125q-0.1875 -0.171875 -0.796875 -0.3125q-2.875 -0.640625 -3.65625 -1.15625q-1.0625 -0.734375 -1.0625 -2.03125q0 -1.15625 0.921875 -1.953125q0.921875 -0.796875 2.859375 -0.796875q1.84375 0 2.734375 0.609375q0.90625 0.59375 1.25 1.765625l-2.25 0.421875q-0.140625 -0.53125 -0.546875 -0.8125q-0.390625 -0.28125 -1.140625 -0.28125q-0.9375 0 -1.34375 0.265625q-0.28125 0.1875 -0.28125 0.484375q0 0.25 0.25 0.4375q0.3125 0.234375 2.203125 0.671875q1.90625 0.421875 2.671875 1.046875q0.734375 0.640625 0.734375 1.765625q0 1.234375 -1.03125 2.125q-1.03125 0.890625 -3.046875 0.890625q-1.84375 0 -2.921875 -0.734375q-1.0625 -0.75 -1.390625 -2.03125zm12.24646 -3.6875l-2.15625 -0.390625q0.375 -1.296875 1.25 -1.921875q0.890625 -0.625 2.640625 -0.625q1.59375 0 2.375 0.375q0.78125 0.375 1.09375 0.953125q0.3125 0.578125 0.3125 2.125l-0.015625 2.78125q0 1.1875 0.109375 1.75q0.109375 0.5625 0.421875 1.203125l-2.34375 0q-0.09375 -0.234375 -0.234375 -0.703125q-0.0625 -0.203125 -0.078125 -0.28125q-0.609375 0.59375 -1.3125 0.890625q-0.6875 0.296875 -1.46875 0.296875q-1.390625 0 -2.1875 -0.75q-0.796875 -0.75 -0.796875 -1.90625q0 -0.765625 0.359375 -1.359375q0.359375 -0.59375 1.015625 -0.90625q0.65625 -0.328125 1.890625 -0.5625q1.671875 -0.3125 2.3125 -0.578125l0 -0.234375q0 -0.6875 -0.34375 -0.984375q-0.328125 -0.296875 -1.28125 -0.296875q-0.625 0 -0.984375 0.25q-0.359375 0.25 -0.578125 0.875zm3.1875 1.9375q-0.453125 0.15625 -1.453125 0.375q-0.984375 0.203125 -1.296875 0.40625q-0.453125 0.328125 -0.453125 0.828125q0 0.5 0.359375 0.875q0.375 0.359375 0.953125 0.359375q0.640625 0 1.234375 -0.421875q0.421875 -0.328125 0.5625 -0.796875q0.09375 -0.296875 0.09375 -1.15625l0 -0.46875zm4.574585 4.3125l0 -12.40625l2.375 0l0 4.46875q1.109375 -1.25 2.609375 -1.25q1.640625 0 2.71875 1.1875q1.078125 1.1875 1.078125 3.421875q0 2.296875 -1.109375 3.546875q-1.09375 1.234375 -2.65625 1.234375q-0.765625 0 -1.515625 -0.375q-0.75 -0.390625 -1.296875 -1.140625l0 1.3125l-2.203125 0zm2.359375 -4.6875q0 1.390625 0.4375 2.0625q0.625 0.953125 1.640625 0.953125q0.796875 0 1.34375 -0.671875q0.5625 -0.671875 0.5625 -2.125q0 -1.53125 -0.5625 -2.21875q-0.5625 -0.6875 -1.4375 -0.6875q-0.84375 0 -1.421875 0.671875q-0.5625 0.65625 -0.5625 2.015625zm8.334717 4.6875l0 -12.40625l2.375 0l0 12.40625l-2.375 0zm10.017395 -2.859375l2.359375 0.390625q-0.453125 1.3125 -1.4375 2.0q-0.984375 0.671875 -2.46875 0.671875q-2.34375 0 -3.46875 -1.53125q-0.890625 -1.234375 -0.890625 -3.09375q0 -2.234375 1.171875 -3.5q1.171875 -1.265625 2.953125 -1.265625q2.0 0 3.15625 1.328125q1.171875 1.3125 1.109375 4.046875l-5.953125 0q0.03125 1.0625 0.578125 1.65625q0.546875 0.578125 1.375 0.578125q0.546875 0 0.921875 -0.296875q0.390625 -0.3125 0.59375 -0.984375zm0.125 -2.40625q-0.015625 -1.03125 -0.53125 -1.5625q-0.5 -0.546875 -1.234375 -0.546875q-0.78125 0 -1.28125 0.578125q-0.515625 0.5625 -0.5 1.53125l3.546875 0z" fill-rule="nonzero"/></g></svg>