<svg xmlns="http://www.w3.org/2000/svg" xmlns:xlink="http://www.w3.org/1999/xlink" width="793" zoomAndPan="magnify" viewBox="0 0 595.5 842.249979" height="1122" preserveAspectRatio="xMidYMid meet" version="1.0"><defs><g/><clipPath id="5e112ad5bb"><path d="M 49.1875 203.984375 L 546.414062 203.984375 L 546.414062 565.464844 L 49.1875 565.464844 Z M 49.1875 203.984375 " clip-rule="nonzero"/></clipPath><clipPath id="c411adb1b7"><path d="M 92.242188 245.558594 L 503.222656 245.558594 L 503.222656 523.785156 L 92.242188 523.785156 Z M 92.242188 245.558594 " clip-rule="nonzero"/></clipPath><clipPath id="811e2d3b86"><path d="M 163.234375 282.871094 L 431.71875 282.871094 L 431.71875 486.105469 L 163.234375 486.105469 Z M 163.234375 282.871094 " clip-rule="nonzero"/></clipPath><clipPath id="22b68caf1c"><path d="M 184.332031 315.871094 L 284.828125 315.871094 L 284.828125 375.863281 L 184.332031 375.863281 Z M 184.332031 315.871094 " clip-rule="nonzero"/></clipPath><clipPath id="81361f6632"><path d="M 297.636719 315.875 L 403.382812 315.875 L 403.382812 466.605469 L 297.636719 466.605469 Z M 297.636719 315.875 " clip-rule="nonzero"/></clipPath><clipPath id="28e0fddb3f"><path d="M 310.386719 365.925781 L 390.621094 365.925781 L 390.621094 416.921875 L 310.386719 416.921875 Z M 310.386719 365.925781 " clip-rule="nonzero"/></clipPath></defs><g fill="#000000" fill-opacity="1"><g transform="translate(217.533768, 612.266543)"><g><path d="M 17.859375 0 L 3.671875 0 L 3.671875 -25.9375 L 17.859375 -25.9375 L 17.859375 -24.28125 L 5.484375 -24.28125 L 5.484375 -14.46875 L 17.15625 -14.46875 L 17.15625 -12.796875 L 5.484375 -12.796875 L 5.484375 -1.671875 L 17.859375 -1.671875 Z M 8.21875 -28.3125 C 9.082031 -29.238281 9.9375 -30.25 10.78125 -31.34375 C 11.632812 -32.4375 12.210938 -33.269531 12.515625 -33.84375 L 15.015625 -33.84375 L 15.015625 -33.546875 C 14.585938 -32.929688 13.863281 -32.113281 12.84375 -31.09375 C 11.820312 -30.070312 10.695312 -29.046875 9.46875 -28.015625 L 8.21875 -28.015625 Z M 8.21875 -28.3125 "/></g></g></g><g fill="#000000" fill-opacity="1"><g transform="translate(237.586422, 612.266543)"><g><path d="M 10.9375 0.359375 C 8.175781 0.359375 6.015625 -0.507812 4.453125 -2.25 C 2.890625 -3.988281 2.109375 -6.414062 2.109375 -9.53125 C 2.109375 -12.726562 2.914062 -15.210938 4.53125 -16.984375 C 6.15625 -18.765625 8.378906 -19.65625 11.203125 -19.65625 C 12.867188 -19.65625 14.460938 -19.367188 15.984375 -18.796875 L 15.515625 -17.234375 C 13.835938 -17.785156 12.382812 -18.0625 11.15625 -18.0625 C 8.789062 -18.0625 7 -17.332031 5.78125 -15.875 C 4.5625 -14.414062 3.953125 -12.3125 3.953125 -9.5625 C 3.953125 -6.957031 4.5625 -4.921875 5.78125 -3.453125 C 7 -1.984375 8.703125 -1.25 10.890625 -1.25 C 12.640625 -1.25 14.269531 -1.5625 15.78125 -2.1875 L 15.78125 -0.546875 C 14.550781 0.0546875 12.9375 0.359375 10.9375 0.359375 Z M 10.9375 0.359375 "/></g></g></g><g fill="#000000" fill-opacity="1"><g transform="translate(254.853003, 612.266543)"><g><path d="M 19.1875 -9.671875 C 19.1875 -6.523438 18.421875 -4.066406 16.890625 -2.296875 C 15.367188 -0.523438 13.265625 0.359375 10.578125 0.359375 C 8.878906 0.359375 7.382812 -0.046875 6.09375 -0.859375 C 4.8125 -1.679688 3.828125 -2.851562 3.140625 -4.375 C 2.453125 -5.90625 2.109375 -7.671875 2.109375 -9.671875 C 2.109375 -12.816406 2.867188 -15.265625 4.390625 -17.015625 C 5.921875 -18.773438 8.019531 -19.65625 10.6875 -19.65625 C 13.332031 -19.65625 15.410156 -18.765625 16.921875 -16.984375 C 18.429688 -15.210938 19.1875 -12.773438 19.1875 -9.671875 Z M 3.953125 -9.671875 C 3.953125 -7.023438 4.535156 -4.957031 5.703125 -3.46875 C 6.867188 -1.988281 8.515625 -1.25 10.640625 -1.25 C 12.773438 -1.25 14.425781 -1.988281 15.59375 -3.46875 C 16.757812 -4.957031 17.34375 -7.023438 17.34375 -9.671875 C 17.34375 -12.335938 16.753906 -14.398438 15.578125 -15.859375 C 14.398438 -17.328125 12.742188 -18.0625 10.609375 -18.0625 C 8.484375 -18.0625 6.84375 -17.332031 5.6875 -15.875 C 4.53125 -14.414062 3.953125 -12.347656 3.953125 -9.671875 Z M 3.953125 -9.671875 "/></g></g></g><g fill="#000000" fill-opacity="1"><g transform="translate(276.147857, 612.266543)"><g><path d="M 4.984375 0 L 3.234375 0 L 3.234375 -27.609375 L 4.984375 -27.609375 Z M 4.984375 0 "/></g></g></g><g fill="#000000" fill-opacity="1"><g transform="translate(284.364125, 612.266543)"><g><path d="M 19.1875 -9.671875 C 19.1875 -6.523438 18.421875 -4.066406 16.890625 -2.296875 C 15.367188 -0.523438 13.265625 0.359375 10.578125 0.359375 C 8.878906 0.359375 7.382812 -0.046875 6.09375 -0.859375 C 4.8125 -1.679688 3.828125 -2.851562 3.140625 -4.375 C 2.453125 -5.90625 2.109375 -7.671875 2.109375 -9.671875 C 2.109375 -12.816406 2.867188 -15.265625 4.390625 -17.015625 C 5.921875 -18.773438 8.019531 -19.65625 10.6875 -19.65625 C 13.332031 -19.65625 15.410156 -18.765625 16.921875 -16.984375 C 18.429688 -15.210938 19.1875 -12.773438 19.1875 -9.671875 Z M 3.953125 -9.671875 C 3.953125 -7.023438 4.535156 -4.957031 5.703125 -3.46875 C 6.867188 -1.988281 8.515625 -1.25 10.640625 -1.25 C 12.773438 -1.25 14.425781 -1.988281 15.59375 -3.46875 C 16.757812 -4.957031 17.34375 -7.023438 17.34375 -9.671875 C 17.34375 -12.335938 16.753906 -14.398438 15.578125 -15.859375 C 14.398438 -17.328125 12.742188 -18.0625 10.609375 -18.0625 C 8.484375 -18.0625 6.84375 -17.332031 5.6875 -15.875 C 4.53125 -14.414062 3.953125 -12.347656 3.953125 -9.671875 Z M 3.953125 -9.671875 "/></g></g></g><g fill="#000000" fill-opacity="1"><g transform="translate(305.658979, 612.266543)"><g><path d="M 18.28125 -19.296875 L 18.28125 -18.0625 L 14.28125 -17.8125 C 15.34375 -16.488281 15.875 -15.035156 15.875 -13.453125 C 15.875 -11.597656 15.253906 -10.09375 14.015625 -8.9375 C 12.785156 -7.78125 11.128906 -7.203125 9.046875 -7.203125 C 8.171875 -7.203125 7.554688 -7.238281 7.203125 -7.3125 C 6.503906 -6.945312 5.972656 -6.515625 5.609375 -6.015625 C 5.242188 -5.515625 5.0625 -4.988281 5.0625 -4.4375 C 5.0625 -3.820312 5.289062 -3.367188 5.75 -3.078125 C 6.21875 -2.796875 7.003906 -2.65625 8.109375 -2.65625 L 11.484375 -2.65625 C 13.578125 -2.65625 15.175781 -2.234375 16.28125 -1.390625 C 17.394531 -0.546875 17.953125 0.703125 17.953125 2.359375 C 17.953125 4.390625 17.125 5.957031 15.46875 7.0625 C 13.820312 8.175781 11.472656 8.734375 8.421875 8.734375 C 6.003906 8.734375 4.128906 8.265625 2.796875 7.328125 C 1.460938 6.390625 0.796875 5.085938 0.796875 3.421875 C 0.796875 2.097656 1.207031 1 2.03125 0.125 C 2.851562 -0.75 3.96875 -1.347656 5.375 -1.671875 C 4.789062 -1.921875 4.320312 -2.269531 3.96875 -2.71875 C 3.625 -3.175781 3.453125 -3.703125 3.453125 -4.296875 C 3.453125 -5.585938 4.273438 -6.722656 5.921875 -7.703125 C 4.796875 -8.160156 3.921875 -8.882812 3.296875 -9.875 C 2.671875 -10.863281 2.359375 -12 2.359375 -13.28125 C 2.359375 -15.207031 2.96875 -16.75 4.1875 -17.90625 C 5.414062 -19.070312 7.070312 -19.65625 9.15625 -19.65625 C 10.425781 -19.65625 11.410156 -19.535156 12.109375 -19.296875 Z M 2.65625 3.265625 C 2.65625 5.910156 4.628906 7.234375 8.578125 7.234375 C 13.640625 7.234375 16.171875 5.617188 16.171875 2.390625 C 16.171875 1.234375 15.769531 0.394531 14.96875 -0.125 C 14.175781 -0.644531 12.894531 -0.90625 11.125 -0.90625 L 7.96875 -0.90625 C 4.425781 -0.90625 2.65625 0.484375 2.65625 3.265625 Z M 4.140625 -13.28125 C 4.140625 -11.78125 4.585938 -10.617188 5.484375 -9.796875 C 6.390625 -8.984375 7.601562 -8.578125 9.125 -8.578125 C 10.726562 -8.578125 11.957031 -8.984375 12.8125 -9.796875 C 13.675781 -10.609375 14.109375 -11.789062 14.109375 -13.34375 C 14.109375 -14.988281 13.664062 -16.222656 12.78125 -17.046875 C 11.90625 -17.867188 10.675781 -18.28125 9.09375 -18.28125 C 7.550781 -18.28125 6.335938 -17.835938 5.453125 -16.953125 C 4.578125 -16.078125 4.140625 -14.851562 4.140625 -13.28125 Z M 4.140625 -13.28125 "/></g></g></g><g fill="#000000" fill-opacity="1"><g transform="translate(324.66464, 612.266543)"><g><path d="M 4.984375 0 L 3.234375 0 L 3.234375 -19.296875 L 4.984375 -19.296875 Z M 2.984375 -24.65625 C 2.984375 -25.789062 3.351562 -26.359375 4.09375 -26.359375 C 4.46875 -26.359375 4.753906 -26.207031 4.953125 -25.90625 C 5.160156 -25.613281 5.265625 -25.195312 5.265625 -24.65625 C 5.265625 -24.113281 5.160156 -23.6875 4.953125 -23.375 C 4.753906 -23.070312 4.46875 -22.921875 4.09375 -22.921875 C 3.351562 -22.921875 2.984375 -23.5 2.984375 -24.65625 Z M 2.984375 -24.65625 "/></g></g></g><g fill="#000000" fill-opacity="1"><g transform="translate(332.880908, 612.266543)"><g><path d="M 11.015625 0.359375 C 8.210938 0.359375 6.023438 -0.503906 4.453125 -2.234375 C 2.890625 -3.960938 2.109375 -6.382812 2.109375 -9.5 C 2.109375 -12.570312 2.863281 -15.03125 4.375 -16.875 C 5.894531 -18.726562 7.9375 -19.65625 10.5 -19.65625 C 12.769531 -19.65625 14.5625 -18.863281 15.875 -17.28125 C 17.195312 -15.695312 17.859375 -13.546875 17.859375 -10.828125 L 17.859375 -9.40625 L 3.953125 -9.40625 C 3.984375 -6.757812 4.601562 -4.738281 5.8125 -3.34375 C 7.019531 -1.945312 8.753906 -1.25 11.015625 -1.25 C 12.117188 -1.25 13.085938 -1.320312 13.921875 -1.46875 C 14.753906 -1.625 15.8125 -1.957031 17.09375 -2.46875 L 17.09375 -0.875 C 16 -0.394531 14.988281 -0.0703125 14.0625 0.09375 C 13.144531 0.269531 12.128906 0.359375 11.015625 0.359375 Z M 10.5 -18.09375 C 8.644531 -18.09375 7.15625 -17.476562 6.03125 -16.25 C 4.90625 -15.03125 4.25 -13.269531 4.0625 -10.96875 L 15.984375 -10.96875 C 15.984375 -13.207031 15.5 -14.953125 14.53125 -16.203125 C 13.5625 -17.460938 12.21875 -18.09375 10.5 -18.09375 Z M 10.5 -18.09375 "/></g></g></g><g clip-path="url(#5e112ad5bb)"><path stroke-linecap="butt" transform="matrix(0.750457, 0, 0, 0.750619, 49.188007, 203.983477)" fill="none" stroke-linejoin="miter" d="M -0.000676019 0.00119666 L 662.564266 0.00119666 L 662.564266 481.57777 L -0.000676019 481.57777 L -0.000676019 0.00119666 " stroke="#000000" stroke-width="4" stroke-opacity="1" stroke-miterlimit="4"/></g><g clip-path="url(#c411adb1b7)"><path stroke-linecap="butt" transform="matrix(0.750326, 0, 0, 0.750531, 92.243506, 245.556821)" fill="none" stroke-linejoin="miter" d="M -0.0017566 0.00236162 L 547.734448 0.00236162 L 547.734448 370.708723 L -0.0017566 370.708723 L -0.0017566 0.00236162 " stroke="#000000" stroke-width="4" stroke-opacity="1" stroke-miterlimit="4"/></g><g clip-path="url(#811e2d3b86)"><path stroke-linecap="butt" transform="matrix(0.749079, 0, 0, 0.7494, 163.232671, 282.869899)" fill="none" stroke-linejoin="miter" d="M 0.00227492 0.00159436 L 358.421514 0.00159436 L 358.421514 271.197667 L 0.00227492 271.197667 L 0.00227492 0.00159436 " stroke="#000000" stroke-width="4" stroke-opacity="1" stroke-miterlimit="4"/></g><g clip-path="url(#22b68caf1c)"><path stroke-linecap="butt" transform="matrix(0.749525, 0, 0, 0.749523, 184.333237, 315.869194)" fill="none" stroke-linejoin="miter" d="M -0.00160846 0.00253438 L 134.078131 0.00253438 L 134.078131 80.043058 L -0.00160846 80.043058 L -0.00160846 0.00253438 " stroke="#000000" stroke-width="4" stroke-opacity="1" stroke-miterlimit="4"/></g><g clip-path="url(#81361f6632)"><path stroke-linecap="butt" transform="matrix(0.748055, 0, 0, 0.748449, 297.637783, 315.874697)" fill="none" stroke-linejoin="miter" d="M -0.00142231 0.000404471 L 141.359924 0.000404471 L 141.359924 201.390805 L -0.00142231 201.390805 L -0.00142231 0.000404471 " stroke="#000000" stroke-width="4" stroke-opacity="1" stroke-miterlimit="4"/></g><g clip-path="url(#28e0fddb3f)"><path stroke-linecap="butt" transform="matrix(0.747234, 0, 0, 0.750997, 310.384987, 365.92491)" fill="none" stroke-linejoin="miter" d="M 0.00231777 0.00115958 L 107.3775 0.00115958 L 107.3775 67.905662 L 0.00231777 67.905662 L 0.00231777 0.00115958 " stroke="#000000" stroke-width="4" stroke-opacity="1" stroke-miterlimit="4"/></g><g fill="#000000" fill-opacity="1"><g transform="translate(225.417961, 551.25659)"><g><path d="M 13.09375 0 L 12.03125 0 L 3.109375 -13.390625 L 3.015625 -13.390625 C 3.097656 -11.796875 3.140625 -10.59375 3.140625 -9.78125 L 3.140625 0 L 2.140625 0 L 2.140625 -15.078125 L 3.1875 -15.078125 L 12.109375 -1.71875 L 12.171875 -1.71875 C 12.109375 -2.945312 12.078125 -4.117188 12.078125 -5.234375 L 12.078125 -15.078125 L 13.09375 -15.078125 Z M 13.09375 0 "/></g></g></g><g fill="#000000" fill-opacity="1"><g transform="translate(240.655841, 551.25659)"><g><path d="M 2.765625 -11.21875 L 2.765625 -3.953125 C 2.765625 -2.828125 3 -2.003906 3.46875 -1.484375 C 3.945312 -0.972656 4.6875 -0.71875 5.6875 -0.71875 C 7.019531 -0.71875 8 -1.054688 8.625 -1.734375 C 9.257812 -2.410156 9.578125 -3.503906 9.578125 -5.015625 L 9.578125 -11.21875 L 10.578125 -11.21875 L 10.578125 0 L 9.71875 0 L 9.53125 -1.546875 L 9.46875 -1.546875 C 8.738281 -0.378906 7.441406 0.203125 5.578125 0.203125 C 3.023438 0.203125 1.75 -1.160156 1.75 -3.890625 L 1.75 -11.21875 Z M 2.765625 -11.21875 "/></g></g></g><g fill="#000000" fill-opacity="1"><g transform="translate(253.118506, 551.25659)"><g><path d="M 15.890625 0 L 15.890625 -7.359375 C 15.890625 -8.453125 15.675781 -9.25 15.25 -9.75 C 14.820312 -10.25 14.164062 -10.5 13.28125 -10.5 C 12.132812 -10.5 11.285156 -10.179688 10.734375 -9.546875 C 10.179688 -8.921875 9.90625 -7.929688 9.90625 -6.578125 L 9.90625 0 L 8.875 0 L 8.875 -7.65625 C 8.875 -9.550781 8.003906 -10.5 6.265625 -10.5 C 5.085938 -10.5 4.234375 -10.15625 3.703125 -9.46875 C 3.171875 -8.789062 2.90625 -7.695312 2.90625 -6.1875 L 2.90625 0 L 1.875 0 L 1.875 -11.21875 L 2.71875 -11.21875 L 2.9375 -9.671875 L 3 -9.671875 C 3.3125 -10.234375 3.75 -10.664062 4.3125 -10.96875 C 4.882812 -11.269531 5.515625 -11.421875 6.203125 -11.421875 C 7.972656 -11.421875 9.109375 -10.757812 9.609375 -9.4375 L 9.65625 -9.4375 C 10.019531 -10.070312 10.507812 -10.5625 11.125 -10.90625 C 11.738281 -11.25 12.4375 -11.421875 13.21875 -11.421875 C 14.445312 -11.421875 15.363281 -11.09375 15.96875 -10.4375 C 16.582031 -9.789062 16.890625 -8.753906 16.890625 -7.328125 L 16.890625 0 Z M 15.890625 0 "/></g></g></g><g fill="#000000" fill-opacity="1"><g transform="translate(271.771236, 551.25659)"><g><path d="M 6.40625 0.203125 C 4.78125 0.203125 3.507812 -0.296875 2.59375 -1.296875 C 1.6875 -2.304688 1.234375 -3.710938 1.234375 -5.515625 C 1.234375 -7.304688 1.671875 -8.738281 2.546875 -9.8125 C 3.429688 -10.882812 4.617188 -11.421875 6.109375 -11.421875 C 7.429688 -11.421875 8.472656 -10.960938 9.234375 -10.046875 C 9.992188 -9.128906 10.375 -7.878906 10.375 -6.296875 L 10.375 -5.46875 L 2.296875 -5.46875 C 2.316406 -3.925781 2.675781 -2.75 3.375 -1.9375 C 4.082031 -1.125 5.09375 -0.71875 6.40625 -0.71875 C 7.039062 -0.71875 7.597656 -0.757812 8.078125 -0.84375 C 8.566406 -0.9375 9.1875 -1.132812 9.9375 -1.4375 L 9.9375 -0.5 C 9.300781 -0.226562 8.710938 -0.046875 8.171875 0.046875 C 7.640625 0.148438 7.050781 0.203125 6.40625 0.203125 Z M 6.109375 -10.515625 C 5.023438 -10.515625 4.15625 -10.160156 3.5 -9.453125 C 2.851562 -8.742188 2.472656 -7.71875 2.359375 -6.375 L 9.296875 -6.375 C 9.296875 -7.675781 9.015625 -8.691406 8.453125 -9.421875 C 7.890625 -10.148438 7.109375 -10.515625 6.109375 -10.515625 Z M 4.65625 -12.96875 C 5.164062 -13.507812 5.664062 -14.097656 6.15625 -14.734375 C 6.644531 -15.367188 6.976562 -15.851562 7.15625 -16.1875 L 8.609375 -16.1875 L 8.609375 -16.015625 C 8.367188 -15.648438 7.945312 -15.171875 7.34375 -14.578125 C 6.75 -13.992188 6.097656 -13.398438 5.390625 -12.796875 L 4.65625 -12.796875 Z M 4.65625 -12.96875 "/></g></g></g><g fill="#000000" fill-opacity="1"><g transform="translate(283.367291, 551.25659)"><g><path d="M 6.296875 -11.421875 C 6.765625 -11.421875 7.269531 -11.375 7.8125 -11.28125 L 7.625 -10.296875 C 7.15625 -10.421875 6.671875 -10.484375 6.171875 -10.484375 C 5.210938 -10.484375 4.425781 -10.078125 3.8125 -9.265625 C 3.207031 -8.453125 2.90625 -7.425781 2.90625 -6.1875 L 2.90625 0 L 1.875 0 L 1.875 -11.21875 L 2.75 -11.21875 L 2.84375 -9.1875 L 2.921875 -9.1875 C 3.378906 -10.007812 3.867188 -10.585938 4.390625 -10.921875 C 4.910156 -11.253906 5.546875 -11.421875 6.296875 -11.421875 Z M 6.296875 -11.421875 "/></g></g></g><g fill="#000000" fill-opacity="1"><g transform="translate(291.589763, 551.25659)"><g><path d="M 2.90625 0 L 1.875 0 L 1.875 -11.21875 L 2.90625 -11.21875 Z M 1.734375 -14.328125 C 1.734375 -14.984375 1.945312 -15.3125 2.375 -15.3125 C 2.59375 -15.3125 2.757812 -15.222656 2.875 -15.046875 C 3 -14.878906 3.0625 -14.640625 3.0625 -14.328125 C 3.0625 -14.015625 3 -13.769531 2.875 -13.59375 C 2.757812 -13.414062 2.59375 -13.328125 2.375 -13.328125 C 1.945312 -13.328125 1.734375 -13.660156 1.734375 -14.328125 Z M 1.734375 -14.328125 "/></g></g></g><g fill="#000000" fill-opacity="1"><g transform="translate(296.366433, 551.25659)"><g><path d="M 5.875 0.203125 C 4.394531 0.203125 3.25 -0.28125 2.4375 -1.25 C 1.632812 -2.226562 1.234375 -3.640625 1.234375 -5.484375 C 1.234375 -7.378906 1.632812 -8.84375 2.4375 -9.875 C 3.25 -10.90625 4.414062 -11.421875 5.9375 -11.421875 C 7.550781 -11.421875 8.765625 -10.828125 9.578125 -9.640625 L 9.640625 -9.640625 L 9.8125 -11.21875 L 10.6875 -11.21875 L 10.6875 5.078125 L 9.671875 5.078125 L 9.671875 0.796875 C 9.671875 -0.0351562 9.691406 -0.882812 9.734375 -1.75 L 9.671875 -1.75 C 8.859375 -0.445312 7.59375 0.203125 5.875 0.203125 Z M 5.890625 -0.703125 C 7.253906 -0.703125 8.222656 -1.078125 8.796875 -1.828125 C 9.378906 -2.578125 9.671875 -3.832031 9.671875 -5.59375 L 9.671875 -5.71875 C 9.671875 -7.40625 9.378906 -8.625 8.796875 -9.375 C 8.210938 -10.125 7.28125 -10.5 6 -10.5 C 4.789062 -10.5 3.867188 -10.070312 3.234375 -9.21875 C 2.609375 -8.363281 2.296875 -7.113281 2.296875 -5.46875 C 2.296875 -3.894531 2.601562 -2.707031 3.21875 -1.90625 C 3.832031 -1.101562 4.722656 -0.703125 5.890625 -0.703125 Z M 5.890625 -0.703125 "/></g></g></g><g fill="#000000" fill-opacity="1"><g transform="translate(308.942584, 551.25659)"><g><path d="M 2.765625 -11.21875 L 2.765625 -3.953125 C 2.765625 -2.828125 3 -2.003906 3.46875 -1.484375 C 3.945312 -0.972656 4.6875 -0.71875 5.6875 -0.71875 C 7.019531 -0.71875 8 -1.054688 8.625 -1.734375 C 9.257812 -2.410156 9.578125 -3.503906 9.578125 -5.015625 L 9.578125 -11.21875 L 10.578125 -11.21875 L 10.578125 0 L 9.71875 0 L 9.53125 -1.546875 L 9.46875 -1.546875 C 8.738281 -0.378906 7.441406 0.203125 5.578125 0.203125 C 3.023438 0.203125 1.75 -1.160156 1.75 -3.890625 L 1.75 -11.21875 Z M 2.765625 -11.21875 "/></g></g></g><g fill="#000000" fill-opacity="1"><g transform="translate(321.405249, 551.25659)"><g><path d="M 6.40625 0.203125 C 4.78125 0.203125 3.507812 -0.296875 2.59375 -1.296875 C 1.6875 -2.304688 1.234375 -3.710938 1.234375 -5.515625 C 1.234375 -7.304688 1.671875 -8.738281 2.546875 -9.8125 C 3.429688 -10.882812 4.617188 -11.421875 6.109375 -11.421875 C 7.429688 -11.421875 8.472656 -10.960938 9.234375 -10.046875 C 9.992188 -9.128906 10.375 -7.878906 10.375 -6.296875 L 10.375 -5.46875 L 2.296875 -5.46875 C 2.316406 -3.925781 2.675781 -2.75 3.375 -1.9375 C 4.082031 -1.125 5.09375 -0.71875 6.40625 -0.71875 C 7.039062 -0.71875 7.597656 -0.757812 8.078125 -0.84375 C 8.566406 -0.9375 9.1875 -1.132812 9.9375 -1.4375 L 9.9375 -0.5 C 9.300781 -0.226562 8.710938 -0.046875 8.171875 0.046875 C 7.640625 0.148438 7.050781 0.203125 6.40625 0.203125 Z M 6.109375 -10.515625 C 5.023438 -10.515625 4.15625 -10.160156 3.5 -9.453125 C 2.851562 -8.742188 2.472656 -7.71875 2.359375 -6.375 L 9.296875 -6.375 C 9.296875 -7.675781 9.015625 -8.691406 8.453125 -9.421875 C 7.890625 -10.148438 7.109375 -10.515625 6.109375 -10.515625 Z M 6.109375 -10.515625 "/></g></g></g><g fill="#000000" fill-opacity="1"><g transform="translate(240.998624, 515.203619)"><g><path d="M 7.875 -4.453125 L 2.734375 -4.453125 L 0.96875 0 L 0 0 L 5.078125 -12.671875 L 5.640625 -12.671875 L 10.609375 0 L 9.625 0 Z M 3.0625 -5.25 L 7.578125 -5.25 L 5.859375 -9.796875 C 5.710938 -10.160156 5.539062 -10.65625 5.34375 -11.28125 C 5.1875 -10.726562 5.015625 -10.226562 4.828125 -9.78125 Z M 3.0625 -5.25 "/></g></g></g><g fill="#000000" fill-opacity="1"><g transform="translate(251.613817, 515.203619)"><g><path d="M 5.59375 0.171875 C 4.144531 0.171875 3.085938 -0.367188 2.421875 -1.453125 L 2.359375 -1.453125 L 2.390625 -0.71875 C 2.410156 -0.300781 2.421875 0.160156 2.421875 0.671875 L 2.421875 4.25 L 1.578125 4.25 L 1.578125 -9.390625 L 2.296875 -9.390625 L 2.46875 -8.046875 L 2.515625 -8.046875 C 3.160156 -9.054688 4.191406 -9.5625 5.609375 -9.5625 C 6.867188 -9.5625 7.832031 -9.144531 8.5 -8.3125 C 9.164062 -7.488281 9.5 -6.28125 9.5 -4.6875 C 9.5 -3.144531 9.148438 -1.945312 8.453125 -1.09375 C 7.753906 -0.25 6.800781 0.171875 5.59375 0.171875 Z M 5.578125 -0.59375 C 6.535156 -0.59375 7.273438 -0.945312 7.796875 -1.65625 C 8.328125 -2.375 8.59375 -3.375 8.59375 -4.65625 C 8.59375 -7.414062 7.597656 -8.796875 5.609375 -8.796875 C 4.515625 -8.796875 3.707031 -8.492188 3.1875 -7.890625 C 2.675781 -7.285156 2.421875 -6.304688 2.421875 -4.953125 L 2.421875 -4.671875 C 2.421875 -3.203125 2.664062 -2.15625 3.15625 -1.53125 C 3.65625 -0.90625 4.460938 -0.59375 5.578125 -0.59375 Z M 5.578125 -0.59375 "/></g></g></g><g fill="#000000" fill-opacity="1"><g transform="translate(262.142637, 515.203619)"><g><path d="M 5.59375 0.171875 C 4.144531 0.171875 3.085938 -0.367188 2.421875 -1.453125 L 2.359375 -1.453125 L 2.390625 -0.71875 C 2.410156 -0.300781 2.421875 0.160156 2.421875 0.671875 L 2.421875 4.25 L 1.578125 4.25 L 1.578125 -9.390625 L 2.296875 -9.390625 L 2.46875 -8.046875 L 2.515625 -8.046875 C 3.160156 -9.054688 4.191406 -9.5625 5.609375 -9.5625 C 6.867188 -9.5625 7.832031 -9.144531 8.5 -8.3125 C 9.164062 -7.488281 9.5 -6.28125 9.5 -4.6875 C 9.5 -3.144531 9.148438 -1.945312 8.453125 -1.09375 C 7.753906 -0.25 6.800781 0.171875 5.59375 0.171875 Z M 5.578125 -0.59375 C 6.535156 -0.59375 7.273438 -0.945312 7.796875 -1.65625 C 8.328125 -2.375 8.59375 -3.375 8.59375 -4.65625 C 8.59375 -7.414062 7.597656 -8.796875 5.609375 -8.796875 C 4.515625 -8.796875 3.707031 -8.492188 3.1875 -7.890625 C 2.675781 -7.285156 2.421875 -6.304688 2.421875 -4.953125 L 2.421875 -4.671875 C 2.421875 -3.203125 2.664062 -2.15625 3.15625 -1.53125 C 3.65625 -0.90625 4.460938 -0.59375 5.578125 -0.59375 Z M 5.578125 -0.59375 "/></g></g></g><g fill="#000000" fill-opacity="1"><g transform="translate(272.671458, 515.203619)"><g><path d="M 2.421875 0 L 1.578125 0 L 1.578125 -13.4375 L 2.421875 -13.4375 Z M 2.421875 0 "/></g></g></g><g fill="#000000" fill-opacity="1"><g transform="translate(276.67051, 515.203619)"><g><path d="M 2.421875 0 L 1.578125 0 L 1.578125 -9.390625 L 2.421875 -9.390625 Z M 1.453125 -12 C 1.453125 -12.550781 1.632812 -12.828125 2 -12.828125 C 2.175781 -12.828125 2.3125 -12.753906 2.40625 -12.609375 C 2.507812 -12.460938 2.5625 -12.257812 2.5625 -12 C 2.5625 -11.738281 2.507812 -11.53125 2.40625 -11.375 C 2.3125 -11.226562 2.175781 -11.15625 2 -11.15625 C 1.632812 -11.15625 1.453125 -11.4375 1.453125 -12 Z M 1.453125 -12 "/></g></g></g><g fill="#000000" fill-opacity="1"><g transform="translate(280.669563, 515.203619)"><g><path d="M 5.3125 0.171875 C 3.976562 0.171875 2.929688 -0.25 2.171875 -1.09375 C 1.410156 -1.9375 1.03125 -3.117188 1.03125 -4.640625 C 1.03125 -6.191406 1.421875 -7.398438 2.203125 -8.265625 C 2.992188 -9.128906 4.078125 -9.5625 5.453125 -9.5625 C 6.265625 -9.5625 7.039062 -9.421875 7.78125 -9.140625 L 7.546875 -8.390625 C 6.734375 -8.660156 6.03125 -8.796875 5.4375 -8.796875 C 4.28125 -8.796875 3.40625 -8.4375 2.8125 -7.71875 C 2.21875 -7.007812 1.921875 -5.988281 1.921875 -4.65625 C 1.921875 -3.382812 2.21875 -2.390625 2.8125 -1.671875 C 3.40625 -0.960938 4.234375 -0.609375 5.296875 -0.609375 C 6.148438 -0.609375 6.941406 -0.757812 7.671875 -1.0625 L 7.671875 -0.265625 C 7.078125 0.0234375 6.289062 0.171875 5.3125 0.171875 Z M 5.3125 0.171875 "/></g></g></g><g fill="#000000" fill-opacity="1"><g transform="translate(289.073618, 515.203619)"><g><path d="M 7.265625 0 L 7.0625 -1.484375 L 6.984375 -1.484375 C 6.515625 -0.878906 6.03125 -0.453125 5.53125 -0.203125 C 5.03125 0.046875 4.441406 0.171875 3.765625 0.171875 C 2.847656 0.171875 2.128906 -0.0625 1.609375 -0.53125 C 1.097656 -1.007812 0.84375 -1.664062 0.84375 -2.5 C 0.84375 -3.414062 1.222656 -4.125 1.984375 -4.625 C 2.753906 -5.132812 3.859375 -5.40625 5.296875 -5.4375 L 7.09375 -5.484375 L 7.09375 -6.109375 C 7.09375 -6.992188 6.910156 -7.664062 6.546875 -8.125 C 6.179688 -8.582031 5.597656 -8.8125 4.796875 -8.8125 C 3.921875 -8.8125 3.019531 -8.566406 2.09375 -8.078125 L 1.765625 -8.828125 C 2.796875 -9.304688 3.816406 -9.546875 4.828125 -9.546875 C 5.859375 -9.546875 6.628906 -9.28125 7.140625 -8.75 C 7.648438 -8.21875 7.90625 -7.382812 7.90625 -6.25 L 7.90625 0 Z M 3.8125 -0.609375 C 4.8125 -0.609375 5.601562 -0.894531 6.1875 -1.46875 C 6.769531 -2.039062 7.0625 -2.835938 7.0625 -3.859375 L 7.0625 -4.78125 L 5.421875 -4.703125 C 4.097656 -4.640625 3.15625 -4.429688 2.59375 -4.078125 C 2.03125 -3.734375 1.75 -3.195312 1.75 -2.46875 C 1.75 -1.875 1.925781 -1.414062 2.28125 -1.09375 C 2.644531 -0.769531 3.15625 -0.609375 3.8125 -0.609375 Z M 3.8125 -0.609375 "/></g></g></g><g fill="#000000" fill-opacity="1"><g transform="translate(298.445045, 515.203619)"><g><path d="M 4.046875 -0.59375 C 4.585938 -0.59375 5.0625 -0.632812 5.46875 -0.71875 L 5.46875 -0.03125 C 5.050781 0.101562 4.570312 0.171875 4.03125 0.171875 C 3.207031 0.171875 2.597656 -0.046875 2.203125 -0.484375 C 1.804688 -0.929688 1.609375 -1.628906 1.609375 -2.578125 L 1.609375 -8.640625 L 0.21875 -8.640625 L 0.21875 -9.140625 L 1.609375 -9.53125 L 2.03125 -11.65625 L 2.484375 -11.65625 L 2.484375 -9.390625 L 5.234375 -9.390625 L 5.234375 -8.640625 L 2.484375 -8.640625 L 2.484375 -2.703125 C 2.484375 -1.984375 2.609375 -1.453125 2.859375 -1.109375 C 3.109375 -0.765625 3.503906 -0.59375 4.046875 -0.59375 Z M 4.046875 -0.59375 "/></g></g></g><g fill="#000000" fill-opacity="1"><g transform="translate(304.370205, 515.203619)"><g><path d="M 2.421875 0 L 1.578125 0 L 1.578125 -9.390625 L 2.421875 -9.390625 Z M 1.453125 -12 C 1.453125 -12.550781 1.632812 -12.828125 2 -12.828125 C 2.175781 -12.828125 2.3125 -12.753906 2.40625 -12.609375 C 2.507812 -12.460938 2.5625 -12.257812 2.5625 -12 C 2.5625 -11.738281 2.507812 -11.53125 2.40625 -11.375 C 2.3125 -11.226562 2.175781 -11.15625 2 -11.15625 C 1.632812 -11.15625 1.453125 -11.4375 1.453125 -12 Z M 1.453125 -12 "/></g></g></g><g fill="#000000" fill-opacity="1"><g transform="translate(308.369258, 515.203619)"><g><path d="M 9.34375 -4.703125 C 9.34375 -3.171875 8.96875 -1.972656 8.21875 -1.109375 C 7.476562 -0.253906 6.453125 0.171875 5.140625 0.171875 C 4.316406 0.171875 3.59375 -0.0234375 2.96875 -0.421875 C 2.34375 -0.816406 1.863281 -1.382812 1.53125 -2.125 C 1.195312 -2.875 1.03125 -3.734375 1.03125 -4.703125 C 1.03125 -6.234375 1.398438 -7.425781 2.140625 -8.28125 C 2.878906 -9.132812 3.898438 -9.5625 5.203125 -9.5625 C 6.492188 -9.5625 7.503906 -9.128906 8.234375 -8.265625 C 8.972656 -7.398438 9.34375 -6.210938 9.34375 -4.703125 Z M 1.921875 -4.703125 C 1.921875 -3.410156 2.203125 -2.40625 2.765625 -1.6875 C 3.335938 -0.96875 4.144531 -0.609375 5.1875 -0.609375 C 6.21875 -0.609375 7.015625 -0.96875 7.578125 -1.6875 C 8.148438 -2.40625 8.4375 -3.410156 8.4375 -4.703125 C 8.4375 -6.003906 8.148438 -7.007812 7.578125 -7.71875 C 7.003906 -8.4375 6.203125 -8.796875 5.171875 -8.796875 C 4.128906 -8.796875 3.328125 -8.4375 2.765625 -7.71875 C 2.203125 -7.007812 1.921875 -6.003906 1.921875 -4.703125 Z M 1.921875 -4.703125 "/></g></g></g><g fill="#000000" fill-opacity="1"><g transform="translate(318.733968, 515.203619)"><g><path d="M 8.125 0 L 8.125 -6.09375 C 8.125 -7.03125 7.921875 -7.710938 7.515625 -8.140625 C 7.117188 -8.578125 6.503906 -8.796875 5.671875 -8.796875 C 4.546875 -8.796875 3.722656 -8.507812 3.203125 -7.9375 C 2.679688 -7.375 2.421875 -6.457031 2.421875 -5.1875 L 2.421875 0 L 1.578125 0 L 1.578125 -9.390625 L 2.296875 -9.390625 L 2.46875 -8.09375 L 2.515625 -8.09375 C 3.117188 -9.070312 4.203125 -9.5625 5.765625 -9.5625 C 7.898438 -9.5625 8.96875 -8.421875 8.96875 -6.140625 L 8.96875 0 Z M 8.125 0 "/></g></g></g><g fill="#000000" fill-opacity="1"><g transform="translate(324.025211, 445.086435)"><g><path d="M 4.59375 0 L 1.640625 -7.296875 L 1.609375 -7.296875 C 1.628906 -6.847656 1.640625 -6.390625 1.640625 -5.921875 L 1.640625 0 L 1.125 0 L 1.125 -7.890625 L 1.96875 -7.890625 L 4.765625 -0.953125 L 4.796875 -0.953125 L 7.59375 -7.890625 L 8.4375 -7.890625 L 8.4375 0 L 7.875 0 L 7.875 -5.984375 C 7.875 -6.398438 7.894531 -6.832031 7.9375 -7.28125 L 7.890625 -7.28125 L 4.9375 0 Z M 4.59375 0 "/></g></g></g><g fill="#000000" fill-opacity="1"><g transform="translate(333.574569, 445.086435)"><g><path d="M 3.359375 0.109375 C 2.503906 0.109375 1.835938 -0.148438 1.359375 -0.671875 C 0.878906 -1.203125 0.640625 -1.941406 0.640625 -2.890625 C 0.640625 -3.828125 0.867188 -4.578125 1.328125 -5.140625 C 1.796875 -5.703125 2.421875 -5.984375 3.203125 -5.984375 C 3.890625 -5.984375 4.429688 -5.738281 4.828125 -5.25 C 5.234375 -4.769531 5.4375 -4.117188 5.4375 -3.296875 L 5.4375 -2.859375 L 1.203125 -2.859375 C 1.210938 -2.054688 1.398438 -1.441406 1.765625 -1.015625 C 2.140625 -0.585938 2.671875 -0.375 3.359375 -0.375 C 3.691406 -0.375 3.984375 -0.394531 4.234375 -0.4375 C 4.492188 -0.488281 4.816406 -0.59375 5.203125 -0.75 L 5.203125 -0.265625 C 4.867188 -0.117188 4.5625 -0.0195312 4.28125 0.03125 C 4 0.0820312 3.691406 0.109375 3.359375 0.109375 Z M 3.203125 -5.515625 C 2.628906 -5.515625 2.171875 -5.328125 1.828125 -4.953125 C 1.492188 -4.578125 1.296875 -4.039062 1.234375 -3.34375 L 4.859375 -3.34375 C 4.859375 -4.019531 4.710938 -4.550781 4.421875 -4.9375 C 4.128906 -5.320312 3.722656 -5.515625 3.203125 -5.515625 Z M 2.4375 -6.796875 C 2.695312 -7.078125 2.957031 -7.382812 3.21875 -7.71875 C 3.476562 -8.050781 3.65625 -8.300781 3.75 -8.46875 L 4.5 -8.46875 L 4.5 -8.390625 C 4.375 -8.203125 4.15625 -7.953125 3.84375 -7.640625 C 3.53125 -7.328125 3.1875 -7.015625 2.8125 -6.703125 L 2.4375 -6.703125 Z M 2.4375 -6.796875 "/></g></g></g><g fill="#000000" fill-opacity="1"><g transform="translate(339.648976, 445.086435)"><g><path d="M 2.53125 -0.375 C 2.875 -0.375 3.171875 -0.398438 3.421875 -0.453125 L 3.421875 -0.015625 C 3.160156 0.0664062 2.859375 0.109375 2.515625 0.109375 C 2.003906 0.109375 1.625 -0.0234375 1.375 -0.296875 C 1.125 -0.578125 1 -1.015625 1 -1.609375 L 1 -5.40625 L 0.140625 -5.40625 L 0.140625 -5.71875 L 1 -5.96875 L 1.28125 -7.296875 L 1.546875 -7.296875 L 1.546875 -5.875 L 3.265625 -5.875 L 3.265625 -5.40625 L 1.546875 -5.40625 L 1.546875 -1.6875 C 1.546875 -1.238281 1.625 -0.90625 1.78125 -0.6875 C 1.945312 -0.476562 2.195312 -0.375 2.53125 -0.375 Z M 2.53125 -0.375 "/></g></g></g><g fill="#000000" fill-opacity="1"><g transform="translate(343.356309, 445.086435)"><g><path d="M 3.296875 -5.984375 C 3.546875 -5.984375 3.8125 -5.957031 4.09375 -5.90625 L 3.984375 -5.390625 C 3.742188 -5.453125 3.492188 -5.484375 3.234375 -5.484375 C 2.734375 -5.484375 2.320312 -5.269531 2 -4.84375 C 1.675781 -4.425781 1.515625 -3.890625 1.515625 -3.234375 L 1.515625 0 L 0.984375 0 L 0.984375 -5.875 L 1.4375 -5.875 L 1.484375 -4.8125 L 1.53125 -4.8125 C 1.769531 -5.25 2.023438 -5.550781 2.296875 -5.71875 C 2.578125 -5.894531 2.910156 -5.984375 3.296875 -5.984375 Z M 3.296875 -5.984375 "/></g></g></g><g fill="#000000" fill-opacity="1"><g transform="translate(347.663519, 445.086435)"><g><path d="M 5.84375 -2.9375 C 5.84375 -1.976562 5.609375 -1.226562 5.140625 -0.6875 C 4.679688 -0.15625 4.039062 0.109375 3.21875 0.109375 C 2.707031 0.109375 2.253906 -0.015625 1.859375 -0.265625 C 1.460938 -0.515625 1.160156 -0.867188 0.953125 -1.328125 C 0.742188 -1.796875 0.640625 -2.332031 0.640625 -2.9375 C 0.640625 -3.894531 0.867188 -4.640625 1.328125 -5.171875 C 1.796875 -5.710938 2.4375 -5.984375 3.25 -5.984375 C 4.0625 -5.984375 4.695312 -5.710938 5.15625 -5.171875 C 5.613281 -4.628906 5.84375 -3.882812 5.84375 -2.9375 Z M 1.203125 -2.9375 C 1.203125 -2.132812 1.378906 -1.503906 1.734375 -1.046875 C 2.085938 -0.597656 2.585938 -0.375 3.234375 -0.375 C 3.890625 -0.375 4.394531 -0.597656 4.75 -1.046875 C 5.101562 -1.503906 5.28125 -2.132812 5.28125 -2.9375 C 5.28125 -3.75 5.097656 -4.378906 4.734375 -4.828125 C 4.378906 -5.273438 3.878906 -5.5 3.234375 -5.5 C 2.585938 -5.5 2.085938 -5.273438 1.734375 -4.828125 C 1.378906 -4.390625 1.203125 -3.757812 1.203125 -2.9375 Z M 1.203125 -2.9375 "/></g></g></g><g fill="#000000" fill-opacity="1"><g transform="translate(354.148651, 445.086435)"><g><path d="M 1.515625 0 L 0.984375 0 L 0.984375 -8.40625 L 1.515625 -8.40625 Z M 1.515625 0 "/></g></g></g><g fill="#000000" fill-opacity="1"><g transform="translate(356.650832, 445.086435)"><g><path d="M 5.84375 -2.9375 C 5.84375 -1.976562 5.609375 -1.226562 5.140625 -0.6875 C 4.679688 -0.15625 4.039062 0.109375 3.21875 0.109375 C 2.707031 0.109375 2.253906 -0.015625 1.859375 -0.265625 C 1.460938 -0.515625 1.160156 -0.867188 0.953125 -1.328125 C 0.742188 -1.796875 0.640625 -2.332031 0.640625 -2.9375 C 0.640625 -3.894531 0.867188 -4.640625 1.328125 -5.171875 C 1.796875 -5.710938 2.4375 -5.984375 3.25 -5.984375 C 4.0625 -5.984375 4.695312 -5.710938 5.15625 -5.171875 C 5.613281 -4.628906 5.84375 -3.882812 5.84375 -2.9375 Z M 1.203125 -2.9375 C 1.203125 -2.132812 1.378906 -1.503906 1.734375 -1.046875 C 2.085938 -0.597656 2.585938 -0.375 3.234375 -0.375 C 3.890625 -0.375 4.394531 -0.597656 4.75 -1.046875 C 5.101562 -1.503906 5.28125 -2.132812 5.28125 -2.9375 C 5.28125 -3.75 5.097656 -4.378906 4.734375 -4.828125 C 4.378906 -5.273438 3.878906 -5.5 3.234375 -5.5 C 2.585938 -5.5 2.085938 -5.273438 1.734375 -4.828125 C 1.378906 -4.390625 1.203125 -3.757812 1.203125 -2.9375 Z M 1.203125 -2.9375 "/></g></g></g><g fill="#000000" fill-opacity="1"><g transform="translate(363.135964, 445.086435)"><g><path d="M 5.5625 -5.875 L 5.5625 -5.5 L 4.34375 -5.421875 C 4.664062 -5.015625 4.828125 -4.570312 4.828125 -4.09375 C 4.828125 -3.53125 4.640625 -3.070312 4.265625 -2.71875 C 3.890625 -2.363281 3.382812 -2.1875 2.75 -2.1875 C 2.488281 -2.1875 2.300781 -2.195312 2.1875 -2.21875 C 1.976562 -2.113281 1.816406 -1.984375 1.703125 -1.828125 C 1.597656 -1.679688 1.546875 -1.519531 1.546875 -1.34375 C 1.546875 -1.15625 1.613281 -1.019531 1.75 -0.9375 C 1.894531 -0.851562 2.132812 -0.8125 2.46875 -0.8125 L 3.5 -0.8125 C 4.132812 -0.8125 4.617188 -0.679688 4.953125 -0.421875 C 5.296875 -0.160156 5.46875 0.21875 5.46875 0.71875 C 5.46875 1.332031 5.210938 1.804688 4.703125 2.140625 C 4.203125 2.484375 3.488281 2.65625 2.5625 2.65625 C 1.820312 2.65625 1.25 2.507812 0.84375 2.21875 C 0.445312 1.9375 0.25 1.546875 0.25 1.046875 C 0.25 0.640625 0.375 0.300781 0.625 0.03125 C 0.875 -0.226562 1.210938 -0.40625 1.640625 -0.5 C 1.460938 -0.582031 1.316406 -0.691406 1.203125 -0.828125 C 1.097656 -0.960938 1.046875 -1.125 1.046875 -1.3125 C 1.046875 -1.695312 1.296875 -2.039062 1.796875 -2.34375 C 1.460938 -2.488281 1.195312 -2.707031 1 -3 C 0.8125 -3.300781 0.71875 -3.648438 0.71875 -4.046875 C 0.71875 -4.628906 0.90625 -5.097656 1.28125 -5.453125 C 1.65625 -5.804688 2.15625 -5.984375 2.78125 -5.984375 C 3.164062 -5.984375 3.46875 -5.945312 3.6875 -5.875 Z M 0.8125 1 C 0.8125 1.800781 1.410156 2.203125 2.609375 2.203125 C 4.148438 2.203125 4.921875 1.710938 4.921875 0.734375 C 4.921875 0.378906 4.800781 0.125 4.5625 -0.03125 C 4.320312 -0.195312 3.929688 -0.28125 3.390625 -0.28125 L 2.421875 -0.28125 C 1.347656 -0.28125 0.8125 0.144531 0.8125 1 Z M 1.265625 -4.046875 C 1.265625 -3.585938 1.398438 -3.234375 1.671875 -2.984375 C 1.941406 -2.734375 2.3125 -2.609375 2.78125 -2.609375 C 3.269531 -2.609375 3.644531 -2.734375 3.90625 -2.984375 C 4.164062 -3.234375 4.296875 -3.59375 4.296875 -4.0625 C 4.296875 -4.5625 4.160156 -4.9375 3.890625 -5.1875 C 3.617188 -5.4375 3.242188 -5.5625 2.765625 -5.5625 C 2.296875 -5.5625 1.925781 -5.425781 1.65625 -5.15625 C 1.394531 -4.894531 1.265625 -4.523438 1.265625 -4.046875 Z M 1.265625 -4.046875 "/></g></g></g><g fill="#000000" fill-opacity="1"><g transform="translate(368.923945, 445.086435)"><g><path d="M 1.515625 0 L 0.984375 0 L 0.984375 -5.875 L 1.515625 -5.875 Z M 0.90625 -7.5 C 0.90625 -7.84375 1.019531 -8.015625 1.25 -8.015625 C 1.363281 -8.015625 1.453125 -7.96875 1.515625 -7.875 C 1.578125 -7.789062 1.609375 -7.664062 1.609375 -7.5 C 1.609375 -7.34375 1.578125 -7.21875 1.515625 -7.125 C 1.453125 -7.03125 1.363281 -6.984375 1.25 -6.984375 C 1.019531 -6.984375 0.90625 -7.15625 0.90625 -7.5 Z M 0.90625 -7.5 "/></g></g></g><g fill="#000000" fill-opacity="1"><g transform="translate(371.426126, 445.086435)"><g><path d="M 3.359375 0.109375 C 2.503906 0.109375 1.835938 -0.148438 1.359375 -0.671875 C 0.878906 -1.203125 0.640625 -1.941406 0.640625 -2.890625 C 0.640625 -3.828125 0.867188 -4.578125 1.328125 -5.140625 C 1.796875 -5.703125 2.421875 -5.984375 3.203125 -5.984375 C 3.890625 -5.984375 4.429688 -5.738281 4.828125 -5.25 C 5.234375 -4.769531 5.4375 -4.117188 5.4375 -3.296875 L 5.4375 -2.859375 L 1.203125 -2.859375 C 1.210938 -2.054688 1.398438 -1.441406 1.765625 -1.015625 C 2.140625 -0.585938 2.671875 -0.375 3.359375 -0.375 C 3.691406 -0.375 3.984375 -0.394531 4.234375 -0.4375 C 4.492188 -0.488281 4.816406 -0.59375 5.203125 -0.75 L 5.203125 -0.265625 C 4.867188 -0.117188 4.5625 -0.0195312 4.28125 0.03125 C 4 0.0820312 3.691406 0.109375 3.359375 0.109375 Z M 3.203125 -5.515625 C 2.628906 -5.515625 2.171875 -5.328125 1.828125 -4.953125 C 1.492188 -4.578125 1.296875 -4.039062 1.234375 -3.34375 L 4.859375 -3.34375 C 4.859375 -4.019531 4.710938 -4.550781 4.421875 -4.9375 C 4.128906 -5.320312 3.722656 -5.515625 3.203125 -5.515625 Z M 3.203125 -5.515625 "/></g></g></g><g fill="#000000" fill-opacity="1"><g transform="translate(214.585464, 342.061041)"><g><path d="M -0.203125 2.21875 C -0.566406 2.21875 -0.867188 2.164062 -1.109375 2.0625 L -1.109375 1.53125 C -0.796875 1.613281 -0.492188 1.65625 -0.203125 1.65625 C 0.765625 1.65625 1.25 1.125 1.25 0.0625 L 1.25 -8.796875 L 1.859375 -8.796875 L 1.859375 0 C 1.859375 1.476562 1.171875 2.21875 -0.203125 2.21875 Z M -0.203125 2.21875 "/></g></g></g><g fill="#000000" fill-opacity="1"><g transform="translate(217.630821, 342.061041)"><g><path d="M 3.734375 0.125 C 2.785156 0.125 2.046875 -0.164062 1.515625 -0.75 C 0.984375 -1.34375 0.71875 -2.164062 0.71875 -3.21875 C 0.71875 -4.257812 0.972656 -5.09375 1.484375 -5.71875 C 1.992188 -6.351562 2.6875 -6.671875 3.5625 -6.671875 C 4.332031 -6.671875 4.941406 -6.398438 5.390625 -5.859375 C 5.835938 -5.328125 6.0625 -4.597656 6.0625 -3.671875 L 6.0625 -3.1875 L 1.34375 -3.1875 C 1.351562 -2.289062 1.5625 -1.601562 1.96875 -1.125 C 2.382812 -0.65625 2.972656 -0.421875 3.734375 -0.421875 C 4.109375 -0.421875 4.4375 -0.445312 4.71875 -0.5 C 5 -0.550781 5.359375 -0.664062 5.796875 -0.84375 L 5.796875 -0.296875 C 5.429688 -0.128906 5.085938 -0.0195312 4.765625 0.03125 C 4.453125 0.09375 4.109375 0.125 3.734375 0.125 Z M 3.5625 -6.140625 C 2.9375 -6.140625 2.429688 -5.929688 2.046875 -5.515625 C 1.660156 -5.097656 1.4375 -4.5 1.375 -3.71875 L 5.421875 -3.71875 C 5.421875 -4.476562 5.253906 -5.070312 4.921875 -5.5 C 4.597656 -5.925781 4.144531 -6.140625 3.5625 -6.140625 Z M 3.5625 -6.140625 "/></g></g></g><g fill="#000000" fill-opacity="1"><g transform="translate(224.395607, 342.061041)"><g><path d="M 1.609375 -6.546875 L 1.609375 -2.3125 C 1.609375 -1.644531 1.742188 -1.160156 2.015625 -0.859375 C 2.296875 -0.566406 2.726562 -0.421875 3.3125 -0.421875 C 4.09375 -0.421875 4.664062 -0.613281 5.03125 -1 C 5.40625 -1.394531 5.59375 -2.039062 5.59375 -2.9375 L 5.59375 -6.546875 L 6.171875 -6.546875 L 6.171875 0 L 5.671875 0 L 5.5625 -0.90625 L 5.53125 -0.90625 C 5.101562 -0.21875 4.34375 0.125 3.25 0.125 C 1.757812 0.125 1.015625 -0.671875 1.015625 -2.265625 L 1.015625 -6.546875 Z M 1.609375 -6.546875 "/></g></g></g><g fill="#000000" fill-opacity="1"><g transform="translate(231.665946, 342.061041)"><g><path d="M 5.65625 0 L 5.65625 -4.25 C 5.65625 -4.90625 5.515625 -5.378906 5.234375 -5.671875 C 4.960938 -5.972656 4.535156 -6.125 3.953125 -6.125 C 3.171875 -6.125 2.597656 -5.925781 2.234375 -5.53125 C 1.867188 -5.132812 1.6875 -4.492188 1.6875 -3.609375 L 1.6875 0 L 1.09375 0 L 1.09375 -6.546875 L 1.59375 -6.546875 L 1.71875 -5.640625 L 1.75 -5.640625 C 2.175781 -6.328125 2.929688 -6.671875 4.015625 -6.671875 C 5.503906 -6.671875 6.25 -5.875 6.25 -4.28125 L 6.25 0 Z M 5.65625 0 "/></g></g></g><g fill="#000000" fill-opacity="1"><g transform="translate(238.936286, 342.061041)"><g><path d="M 3.734375 0.125 C 2.785156 0.125 2.046875 -0.164062 1.515625 -0.75 C 0.984375 -1.34375 0.71875 -2.164062 0.71875 -3.21875 C 0.71875 -4.257812 0.972656 -5.09375 1.484375 -5.71875 C 1.992188 -6.351562 2.6875 -6.671875 3.5625 -6.671875 C 4.332031 -6.671875 4.941406 -6.398438 5.390625 -5.859375 C 5.835938 -5.328125 6.0625 -4.597656 6.0625 -3.671875 L 6.0625 -3.1875 L 1.34375 -3.1875 C 1.351562 -2.289062 1.5625 -1.601562 1.96875 -1.125 C 2.382812 -0.65625 2.972656 -0.421875 3.734375 -0.421875 C 4.109375 -0.421875 4.4375 -0.445312 4.71875 -0.5 C 5 -0.550781 5.359375 -0.664062 5.796875 -0.84375 L 5.796875 -0.296875 C 5.429688 -0.128906 5.085938 -0.0195312 4.765625 0.03125 C 4.453125 0.09375 4.109375 0.125 3.734375 0.125 Z M 3.5625 -6.140625 C 2.9375 -6.140625 2.429688 -5.929688 2.046875 -5.515625 C 1.660156 -5.097656 1.4375 -4.5 1.375 -3.71875 L 5.421875 -3.71875 C 5.421875 -4.476562 5.253906 -5.070312 4.921875 -5.5 C 4.597656 -5.925781 4.144531 -6.140625 3.5625 -6.140625 Z M 3.5625 -6.140625 "/></g></g></g><g fill="#000000" fill-opacity="1"><g transform="translate(245.701072, 342.061041)"><g><path d="M 5.15625 -1.703125 C 5.15625 -1.117188 4.929688 -0.664062 4.484375 -0.34375 C 4.035156 -0.03125 3.40625 0.125 2.59375 0.125 C 1.71875 0.125 1.019531 -0.0078125 0.5 -0.28125 L 0.5 -0.921875 C 1.164062 -0.597656 1.863281 -0.4375 2.59375 -0.4375 C 3.238281 -0.4375 3.726562 -0.539062 4.0625 -0.75 C 4.394531 -0.96875 4.5625 -1.253906 4.5625 -1.609375 C 4.5625 -1.941406 4.425781 -2.21875 4.15625 -2.4375 C 3.894531 -2.664062 3.457031 -2.890625 2.84375 -3.109375 C 2.1875 -3.347656 1.726562 -3.550781 1.46875 -3.71875 C 1.207031 -3.882812 1.007812 -4.070312 0.875 -4.28125 C 0.738281 -4.5 0.671875 -4.765625 0.671875 -5.078125 C 0.671875 -5.566406 0.875 -5.953125 1.28125 -6.234375 C 1.695312 -6.523438 2.273438 -6.671875 3.015625 -6.671875 C 3.710938 -6.671875 4.378906 -6.535156 5.015625 -6.265625 L 4.796875 -5.734375 C 4.148438 -5.992188 3.554688 -6.125 3.015625 -6.125 C 2.472656 -6.125 2.046875 -6.035156 1.734375 -5.859375 C 1.421875 -5.679688 1.265625 -5.4375 1.265625 -5.125 C 1.265625 -4.78125 1.382812 -4.503906 1.625 -4.296875 C 1.875 -4.097656 2.351562 -3.875 3.0625 -3.625 C 3.644531 -3.414062 4.070312 -3.222656 4.34375 -3.046875 C 4.613281 -2.878906 4.816406 -2.6875 4.953125 -2.46875 C 5.085938 -2.25 5.15625 -1.992188 5.15625 -1.703125 Z M 5.15625 -1.703125 "/></g></g></g><g fill="#000000" fill-opacity="1"><g transform="translate(251.441047, 342.061041)"><g/></g></g><g fill="#000000" fill-opacity="1"><g transform="translate(204.376582, 359.275921)"><g><path d="M 1.609375 -6.546875 L 1.609375 -2.3125 C 1.609375 -1.644531 1.742188 -1.160156 2.015625 -0.859375 C 2.296875 -0.566406 2.726562 -0.421875 3.3125 -0.421875 C 4.09375 -0.421875 4.664062 -0.613281 5.03125 -1 C 5.40625 -1.394531 5.59375 -2.039062 5.59375 -2.9375 L 5.59375 -6.546875 L 6.171875 -6.546875 L 6.171875 0 L 5.671875 0 L 5.5625 -0.90625 L 5.53125 -0.90625 C 5.101562 -0.21875 4.34375 0.125 3.25 0.125 C 1.757812 0.125 1.015625 -0.671875 1.015625 -2.265625 L 1.015625 -6.546875 Z M 1.609375 -6.546875 "/></g></g></g><g fill="#000000" fill-opacity="1"><g transform="translate(211.646921, 359.275921)"><g><path d="M 2.828125 -0.40625 C 3.203125 -0.40625 3.53125 -0.4375 3.8125 -0.5 L 3.8125 -0.03125 C 3.519531 0.0703125 3.1875 0.125 2.8125 0.125 C 2.226562 0.125 1.800781 -0.03125 1.53125 -0.34375 C 1.257812 -0.65625 1.125 -1.140625 1.125 -1.796875 L 1.125 -6.03125 L 0.15625 -6.03125 L 0.15625 -6.375 L 1.125 -6.640625 L 1.421875 -8.125 L 1.734375 -8.125 L 1.734375 -6.546875 L 3.640625 -6.546875 L 3.640625 -6.03125 L 1.734375 -6.03125 L 1.734375 -1.890625 C 1.734375 -1.378906 1.816406 -1.003906 1.984375 -0.765625 C 2.160156 -0.523438 2.441406 -0.40625 2.828125 -0.40625 Z M 2.828125 -0.40625 "/></g></g></g><g fill="#000000" fill-opacity="1"><g transform="translate(215.775607, 359.275921)"><g><path d="M 1.6875 0 L 1.09375 0 L 1.09375 -6.546875 L 1.6875 -6.546875 Z M 1.015625 -8.359375 C 1.015625 -8.742188 1.140625 -8.9375 1.390625 -8.9375 C 1.515625 -8.9375 1.609375 -8.882812 1.671875 -8.78125 C 1.742188 -8.6875 1.78125 -8.546875 1.78125 -8.359375 C 1.78125 -8.179688 1.742188 -8.039062 1.671875 -7.9375 C 1.609375 -7.832031 1.515625 -7.78125 1.390625 -7.78125 C 1.140625 -7.78125 1.015625 -7.972656 1.015625 -8.359375 Z M 1.015625 -8.359375 "/></g></g></g><g fill="#000000" fill-opacity="1"><g transform="translate(218.562171, 359.275921)"><g><path d="M 1.6875 0 L 1.09375 0 L 1.09375 -9.359375 L 1.6875 -9.359375 Z M 1.6875 0 "/></g></g></g><g fill="#000000" fill-opacity="1"><g transform="translate(221.348734, 359.275921)"><g><path d="M 1.6875 0 L 1.09375 0 L 1.09375 -6.546875 L 1.6875 -6.546875 Z M 1.015625 -8.359375 C 1.015625 -8.742188 1.140625 -8.9375 1.390625 -8.9375 C 1.515625 -8.9375 1.609375 -8.882812 1.671875 -8.78125 C 1.742188 -8.6875 1.78125 -8.546875 1.78125 -8.359375 C 1.78125 -8.179688 1.742188 -8.039062 1.671875 -7.9375 C 1.609375 -7.832031 1.515625 -7.78125 1.390625 -7.78125 C 1.140625 -7.78125 1.015625 -7.972656 1.015625 -8.359375 Z M 1.015625 -8.359375 "/></g></g></g><g fill="#000000" fill-opacity="1"><g transform="translate(224.135298, 359.275921)"><g><path d="M 5.15625 -1.703125 C 5.15625 -1.117188 4.929688 -0.664062 4.484375 -0.34375 C 4.035156 -0.03125 3.40625 0.125 2.59375 0.125 C 1.71875 0.125 1.019531 -0.0078125 0.5 -0.28125 L 0.5 -0.921875 C 1.164062 -0.597656 1.863281 -0.4375 2.59375 -0.4375 C 3.238281 -0.4375 3.726562 -0.539062 4.0625 -0.75 C 4.394531 -0.96875 4.5625 -1.253906 4.5625 -1.609375 C 4.5625 -1.941406 4.425781 -2.21875 4.15625 -2.4375 C 3.894531 -2.664062 3.457031 -2.890625 2.84375 -3.109375 C 2.1875 -3.347656 1.726562 -3.550781 1.46875 -3.71875 C 1.207031 -3.882812 1.007812 -4.070312 0.875 -4.28125 C 0.738281 -4.5 0.671875 -4.765625 0.671875 -5.078125 C 0.671875 -5.566406 0.875 -5.953125 1.28125 -6.234375 C 1.695312 -6.523438 2.273438 -6.671875 3.015625 -6.671875 C 3.710938 -6.671875 4.378906 -6.535156 5.015625 -6.265625 L 4.796875 -5.734375 C 4.148438 -5.992188 3.554688 -6.125 3.015625 -6.125 C 2.472656 -6.125 2.046875 -6.035156 1.734375 -5.859375 C 1.421875 -5.679688 1.265625 -5.4375 1.265625 -5.125 C 1.265625 -4.78125 1.382812 -4.503906 1.625 -4.296875 C 1.875 -4.097656 2.351562 -3.875 3.0625 -3.625 C 3.644531 -3.414062 4.070312 -3.222656 4.34375 -3.046875 C 4.613281 -2.878906 4.816406 -2.6875 4.953125 -2.46875 C 5.085938 -2.25 5.15625 -1.992188 5.15625 -1.703125 Z M 5.15625 -1.703125 "/></g></g></g><g fill="#000000" fill-opacity="1"><g transform="translate(229.87694, 359.275921)"><g><path d="M 5.0625 0 L 4.921875 -1.03125 L 4.875 -1.03125 C 4.539062 -0.613281 4.195312 -0.316406 3.84375 -0.140625 C 3.5 0.0351562 3.09375 0.125 2.625 0.125 C 1.976562 0.125 1.476562 -0.0351562 1.125 -0.359375 C 0.769531 -0.691406 0.59375 -1.148438 0.59375 -1.734375 C 0.59375 -2.378906 0.859375 -2.875 1.390625 -3.21875 C 1.921875 -3.570312 2.691406 -3.757812 3.703125 -3.78125 L 4.9375 -3.828125 L 4.9375 -4.25 C 4.9375 -4.875 4.8125 -5.34375 4.5625 -5.65625 C 4.3125 -5.976562 3.90625 -6.140625 3.34375 -6.140625 C 2.738281 -6.140625 2.109375 -5.972656 1.453125 -5.640625 L 1.234375 -6.15625 C 1.953125 -6.488281 2.660156 -6.65625 3.359375 -6.65625 C 4.078125 -6.65625 4.613281 -6.46875 4.96875 -6.09375 C 5.332031 -5.71875 5.515625 -5.140625 5.515625 -4.359375 L 5.515625 0 Z M 2.65625 -0.421875 C 3.351562 -0.421875 3.90625 -0.617188 4.3125 -1.015625 C 4.71875 -1.421875 4.921875 -1.976562 4.921875 -2.6875 L 4.921875 -3.328125 L 3.78125 -3.28125 C 2.851562 -3.238281 2.191406 -3.09375 1.796875 -2.84375 C 1.410156 -2.601562 1.21875 -2.226562 1.21875 -1.71875 C 1.21875 -1.3125 1.34375 -0.992188 1.59375 -0.765625 C 1.84375 -0.535156 2.195312 -0.421875 2.65625 -0.421875 Z M 2.65625 -0.421875 "/></g></g></g><g fill="#000000" fill-opacity="1"><g transform="translate(236.407006, 359.275921)"><g><path d="M 2.828125 -0.40625 C 3.203125 -0.40625 3.53125 -0.4375 3.8125 -0.5 L 3.8125 -0.03125 C 3.519531 0.0703125 3.1875 0.125 2.8125 0.125 C 2.226562 0.125 1.800781 -0.03125 1.53125 -0.34375 C 1.257812 -0.65625 1.125 -1.140625 1.125 -1.796875 L 1.125 -6.03125 L 0.15625 -6.03125 L 0.15625 -6.375 L 1.125 -6.640625 L 1.421875 -8.125 L 1.734375 -8.125 L 1.734375 -6.546875 L 3.640625 -6.546875 L 3.640625 -6.03125 L 1.734375 -6.03125 L 1.734375 -1.890625 C 1.734375 -1.378906 1.816406 -1.003906 1.984375 -0.765625 C 2.160156 -0.523438 2.441406 -0.40625 2.828125 -0.40625 Z M 2.828125 -0.40625 "/></g></g></g><g fill="#000000" fill-opacity="1"><g transform="translate(240.535692, 359.275921)"><g><path d="M 3.734375 0.125 C 2.785156 0.125 2.046875 -0.164062 1.515625 -0.75 C 0.984375 -1.34375 0.71875 -2.164062 0.71875 -3.21875 C 0.71875 -4.257812 0.972656 -5.09375 1.484375 -5.71875 C 1.992188 -6.351562 2.6875 -6.671875 3.5625 -6.671875 C 4.332031 -6.671875 4.941406 -6.398438 5.390625 -5.859375 C 5.835938 -5.328125 6.0625 -4.597656 6.0625 -3.671875 L 6.0625 -3.1875 L 1.34375 -3.1875 C 1.351562 -2.289062 1.5625 -1.601562 1.96875 -1.125 C 2.382812 -0.65625 2.972656 -0.421875 3.734375 -0.421875 C 4.109375 -0.421875 4.4375 -0.445312 4.71875 -0.5 C 5 -0.550781 5.359375 -0.664062 5.796875 -0.84375 L 5.796875 -0.296875 C 5.429688 -0.128906 5.085938 -0.0195312 4.765625 0.03125 C 4.453125 0.09375 4.109375 0.125 3.734375 0.125 Z M 3.5625 -6.140625 C 2.9375 -6.140625 2.429688 -5.929688 2.046875 -5.515625 C 1.660156 -5.097656 1.4375 -4.5 1.375 -3.71875 L 5.421875 -3.71875 C 5.421875 -4.476562 5.253906 -5.070312 4.921875 -5.5 C 4.597656 -5.925781 4.144531 -6.140625 3.5625 -6.140625 Z M 3.5625 -6.140625 "/></g></g></g><g fill="#000000" fill-opacity="1"><g transform="translate(247.300478, 359.275921)"><g><path d="M 1.609375 -6.546875 L 1.609375 -2.3125 C 1.609375 -1.644531 1.742188 -1.160156 2.015625 -0.859375 C 2.296875 -0.566406 2.726562 -0.421875 3.3125 -0.421875 C 4.09375 -0.421875 4.664062 -0.613281 5.03125 -1 C 5.40625 -1.394531 5.59375 -2.039062 5.59375 -2.9375 L 5.59375 -6.546875 L 6.171875 -6.546875 L 6.171875 0 L 5.671875 0 L 5.5625 -0.90625 L 5.53125 -0.90625 C 5.101562 -0.21875 4.34375 0.125 3.25 0.125 C 1.757812 0.125 1.015625 -0.671875 1.015625 -2.265625 L 1.015625 -6.546875 Z M 1.609375 -6.546875 "/></g></g></g><g fill="#000000" fill-opacity="1"><g transform="translate(254.570817, 359.275921)"><g><path d="M 3.671875 -6.671875 C 3.953125 -6.671875 4.25 -6.640625 4.5625 -6.578125 L 4.453125 -6.015625 C 4.179688 -6.078125 3.894531 -6.109375 3.59375 -6.109375 C 3.039062 -6.109375 2.582031 -5.867188 2.21875 -5.390625 C 1.863281 -4.921875 1.6875 -4.328125 1.6875 -3.609375 L 1.6875 0 L 1.09375 0 L 1.09375 -6.546875 L 1.59375 -6.546875 L 1.65625 -5.359375 L 1.703125 -5.359375 C 1.972656 -5.835938 2.257812 -6.175781 2.5625 -6.375 C 2.863281 -6.570312 3.234375 -6.671875 3.671875 -6.671875 Z M 3.671875 -6.671875 "/></g></g></g><g fill="#000000" fill-opacity="1"><g transform="translate(259.367555, 359.275921)"><g><path d="M 5.15625 -1.703125 C 5.15625 -1.117188 4.929688 -0.664062 4.484375 -0.34375 C 4.035156 -0.03125 3.40625 0.125 2.59375 0.125 C 1.71875 0.125 1.019531 -0.0078125 0.5 -0.28125 L 0.5 -0.921875 C 1.164062 -0.597656 1.863281 -0.4375 2.59375 -0.4375 C 3.238281 -0.4375 3.726562 -0.539062 4.0625 -0.75 C 4.394531 -0.96875 4.5625 -1.253906 4.5625 -1.609375 C 4.5625 -1.941406 4.425781 -2.21875 4.15625 -2.4375 C 3.894531 -2.664062 3.457031 -2.890625 2.84375 -3.109375 C 2.1875 -3.347656 1.726562 -3.550781 1.46875 -3.71875 C 1.207031 -3.882812 1.007812 -4.070312 0.875 -4.28125 C 0.738281 -4.5 0.671875 -4.765625 0.671875 -5.078125 C 0.671875 -5.566406 0.875 -5.953125 1.28125 -6.234375 C 1.695312 -6.523438 2.273438 -6.671875 3.015625 -6.671875 C 3.710938 -6.671875 4.378906 -6.535156 5.015625 -6.265625 L 4.796875 -5.734375 C 4.148438 -5.992188 3.554688 -6.125 3.015625 -6.125 C 2.472656 -6.125 2.046875 -6.035156 1.734375 -5.859375 C 1.421875 -5.679688 1.265625 -5.4375 1.265625 -5.125 C 1.265625 -4.78125 1.382812 -4.503906 1.625 -4.296875 C 1.875 -4.097656 2.351562 -3.875 3.0625 -3.625 C 3.644531 -3.414062 4.070312 -3.222656 4.34375 -3.046875 C 4.613281 -2.878906 4.816406 -2.6875 4.953125 -2.46875 C 5.085938 -2.25 5.15625 -1.992188 5.15625 -1.703125 Z M 5.15625 -1.703125 "/></g></g></g><g fill="#000000" fill-opacity="1"><g transform="translate(208.710088, 438.490007)"><g><path d="M 7.875 -4.453125 L 2.734375 -4.453125 L 0.96875 0 L 0 0 L 5.078125 -12.671875 L 5.640625 -12.671875 L 10.609375 0 L 9.625 0 Z M 3.0625 -5.25 L 7.578125 -5.25 L 5.859375 -9.796875 C 5.710938 -10.160156 5.539062 -10.65625 5.34375 -11.28125 C 5.1875 -10.726562 5.015625 -10.226562 4.828125 -9.78125 Z M 3.0625 -5.25 "/></g></g></g><g fill="#000000" fill-opacity="1"><g transform="translate(219.325281, 438.490007)"><g><path d="M 2.3125 -9.390625 L 2.3125 -3.3125 C 2.3125 -2.363281 2.507812 -1.675781 2.90625 -1.25 C 3.300781 -0.820312 3.921875 -0.609375 4.765625 -0.609375 C 5.878906 -0.609375 6.695312 -0.890625 7.21875 -1.453125 C 7.75 -2.015625 8.015625 -2.929688 8.015625 -4.203125 L 8.015625 -9.390625 L 8.859375 -9.390625 L 8.859375 0 L 8.140625 0 L 7.984375 -1.296875 L 7.921875 -1.296875 C 7.316406 -0.316406 6.234375 0.171875 4.671875 0.171875 C 2.535156 0.171875 1.46875 -0.96875 1.46875 -3.25 L 1.46875 -9.390625 Z M 2.3125 -9.390625 "/></g></g></g><g fill="#000000" fill-opacity="1"><g transform="translate(229.75909, 438.490007)"><g><path d="M 4.046875 -0.59375 C 4.585938 -0.59375 5.0625 -0.632812 5.46875 -0.71875 L 5.46875 -0.03125 C 5.050781 0.101562 4.570312 0.171875 4.03125 0.171875 C 3.207031 0.171875 2.597656 -0.046875 2.203125 -0.484375 C 1.804688 -0.929688 1.609375 -1.628906 1.609375 -2.578125 L 1.609375 -8.640625 L 0.21875 -8.640625 L 0.21875 -9.140625 L 1.609375 -9.53125 L 2.03125 -11.65625 L 2.484375 -11.65625 L 2.484375 -9.390625 L 5.234375 -9.390625 L 5.234375 -8.640625 L 2.484375 -8.640625 L 2.484375 -2.703125 C 2.484375 -1.984375 2.609375 -1.453125 2.859375 -1.109375 C 3.109375 -0.765625 3.503906 -0.59375 4.046875 -0.59375 Z M 4.046875 -0.59375 "/></g></g></g><g fill="#000000" fill-opacity="1"><g transform="translate(235.684249, 438.490007)"><g><path d="M 5.265625 -9.5625 C 5.660156 -9.5625 6.085938 -9.523438 6.546875 -9.453125 L 6.375 -8.625 C 5.988281 -8.726562 5.585938 -8.78125 5.171875 -8.78125 C 4.367188 -8.78125 3.707031 -8.4375 3.1875 -7.75 C 2.675781 -7.070312 2.421875 -6.21875 2.421875 -5.1875 L 2.421875 0 L 1.578125 0 L 1.578125 -9.390625 L 2.296875 -9.390625 L 2.390625 -7.6875 L 2.4375 -7.6875 C 2.820312 -8.382812 3.234375 -8.867188 3.671875 -9.140625 C 4.109375 -9.421875 4.640625 -9.5625 5.265625 -9.5625 Z M 5.265625 -9.5625 "/></g></g></g><g fill="#000000" fill-opacity="1"><g transform="translate(242.568146, 438.490007)"><g><path d="M 5.359375 0.171875 C 3.992188 0.171875 2.929688 -0.242188 2.171875 -1.078125 C 1.410156 -1.921875 1.03125 -3.101562 1.03125 -4.625 C 1.03125 -6.113281 1.394531 -7.304688 2.125 -8.203125 C 2.863281 -9.109375 3.859375 -9.5625 5.109375 -9.5625 C 6.210938 -9.5625 7.082031 -9.175781 7.71875 -8.40625 C 8.363281 -7.632812 8.6875 -6.585938 8.6875 -5.265625 L 8.6875 -4.578125 L 1.921875 -4.578125 C 1.929688 -3.285156 2.234375 -2.300781 2.828125 -1.625 C 3.421875 -0.945312 4.265625 -0.609375 5.359375 -0.609375 C 5.898438 -0.609375 6.375 -0.644531 6.78125 -0.71875 C 7.1875 -0.789062 7.695312 -0.953125 8.3125 -1.203125 L 8.3125 -0.421875 C 7.78125 -0.191406 7.289062 -0.0351562 6.84375 0.046875 C 6.394531 0.128906 5.898438 0.171875 5.359375 0.171875 Z M 5.109375 -8.8125 C 4.203125 -8.8125 3.472656 -8.507812 2.921875 -7.90625 C 2.378906 -7.3125 2.066406 -6.457031 1.984375 -5.34375 L 7.78125 -5.34375 C 7.78125 -6.425781 7.539062 -7.273438 7.0625 -7.890625 C 6.59375 -8.503906 5.941406 -8.8125 5.109375 -8.8125 Z M 5.109375 -8.8125 "/></g></g></g><g fill="#000000" fill-opacity="1"><g transform="translate(252.276426, 438.490007)"><g><path d="M 7.390625 -2.4375 C 7.390625 -1.601562 7.066406 -0.957031 6.421875 -0.5 C 5.785156 -0.0507812 4.882812 0.171875 3.71875 0.171875 C 2.457031 0.171875 1.457031 -0.0195312 0.71875 -0.40625 L 0.71875 -1.328125 C 1.664062 -0.859375 2.664062 -0.625 3.71875 -0.625 C 4.644531 -0.625 5.347656 -0.773438 5.828125 -1.078125 C 6.304688 -1.390625 6.546875 -1.800781 6.546875 -2.3125 C 6.546875 -2.78125 6.351562 -3.175781 5.96875 -3.5 C 5.582031 -3.820312 4.953125 -4.140625 4.078125 -4.453125 C 3.140625 -4.796875 2.476562 -5.085938 2.09375 -5.328125 C 1.71875 -5.578125 1.429688 -5.851562 1.234375 -6.15625 C 1.046875 -6.46875 0.953125 -6.847656 0.953125 -7.296875 C 0.953125 -7.992188 1.25 -8.546875 1.84375 -8.953125 C 2.4375 -9.359375 3.257812 -9.5625 4.3125 -9.5625 C 5.332031 -9.5625 6.296875 -9.375 7.203125 -9 L 6.890625 -8.21875 C 5.960938 -8.601562 5.101562 -8.796875 4.3125 -8.796875 C 3.550781 -8.796875 2.945312 -8.664062 2.5 -8.40625 C 2.050781 -8.15625 1.828125 -7.804688 1.828125 -7.359375 C 1.828125 -6.867188 2 -6.476562 2.34375 -6.1875 C 2.695312 -5.894531 3.378906 -5.566406 4.390625 -5.203125 C 5.234375 -4.890625 5.847656 -4.609375 6.234375 -4.359375 C 6.617188 -4.117188 6.90625 -3.84375 7.09375 -3.53125 C 7.289062 -3.226562 7.390625 -2.863281 7.390625 -2.4375 Z M 7.390625 -2.4375 "/></g></g></g><g fill="#000000" fill-opacity="1"><g transform="translate(187.232246, 463.195423)"><g><path d="M 7.265625 0 L 7.0625 -1.484375 L 6.984375 -1.484375 C 6.515625 -0.878906 6.03125 -0.453125 5.53125 -0.203125 C 5.03125 0.046875 4.441406 0.171875 3.765625 0.171875 C 2.847656 0.171875 2.128906 -0.0625 1.609375 -0.53125 C 1.097656 -1.007812 0.84375 -1.664062 0.84375 -2.5 C 0.84375 -3.414062 1.222656 -4.125 1.984375 -4.625 C 2.753906 -5.132812 3.859375 -5.40625 5.296875 -5.4375 L 7.09375 -5.484375 L 7.09375 -6.109375 C 7.09375 -6.992188 6.910156 -7.664062 6.546875 -8.125 C 6.179688 -8.582031 5.597656 -8.8125 4.796875 -8.8125 C 3.921875 -8.8125 3.019531 -8.566406 2.09375 -8.078125 L 1.765625 -8.828125 C 2.796875 -9.304688 3.816406 -9.546875 4.828125 -9.546875 C 5.859375 -9.546875 6.628906 -9.28125 7.140625 -8.75 C 7.648438 -8.21875 7.90625 -7.382812 7.90625 -6.25 L 7.90625 0 Z M 3.8125 -0.609375 C 4.8125 -0.609375 5.601562 -0.894531 6.1875 -1.46875 C 6.769531 -2.039062 7.0625 -2.835938 7.0625 -3.859375 L 7.0625 -4.78125 L 5.421875 -4.703125 C 4.097656 -4.640625 3.15625 -4.429688 2.59375 -4.078125 C 2.03125 -3.734375 1.75 -3.195312 1.75 -2.46875 C 1.75 -1.875 1.925781 -1.414062 2.28125 -1.09375 C 2.644531 -0.769531 3.15625 -0.609375 3.8125 -0.609375 Z M 3.8125 -0.609375 "/></g></g></g><g fill="#000000" fill-opacity="1"><g transform="translate(196.603673, 463.195423)"><g><path d="M 5.59375 0.171875 C 4.144531 0.171875 3.085938 -0.367188 2.421875 -1.453125 L 2.359375 -1.453125 L 2.390625 -0.71875 C 2.410156 -0.300781 2.421875 0.160156 2.421875 0.671875 L 2.421875 4.25 L 1.578125 4.25 L 1.578125 -9.390625 L 2.296875 -9.390625 L 2.46875 -8.046875 L 2.515625 -8.046875 C 3.160156 -9.054688 4.191406 -9.5625 5.609375 -9.5625 C 6.867188 -9.5625 7.832031 -9.144531 8.5 -8.3125 C 9.164062 -7.488281 9.5 -6.28125 9.5 -4.6875 C 9.5 -3.144531 9.148438 -1.945312 8.453125 -1.09375 C 7.753906 -0.25 6.800781 0.171875 5.59375 0.171875 Z M 5.578125 -0.59375 C 6.535156 -0.59375 7.273438 -0.945312 7.796875 -1.65625 C 8.328125 -2.375 8.59375 -3.375 8.59375 -4.65625 C 8.59375 -7.414062 7.597656 -8.796875 5.609375 -8.796875 C 4.515625 -8.796875 3.707031 -8.492188 3.1875 -7.890625 C 2.675781 -7.285156 2.421875 -6.304688 2.421875 -4.953125 L 2.421875 -4.671875 C 2.421875 -3.203125 2.664062 -2.15625 3.15625 -1.53125 C 3.65625 -0.90625 4.460938 -0.59375 5.578125 -0.59375 Z M 5.578125 -0.59375 "/></g></g></g><g fill="#000000" fill-opacity="1"><g transform="translate(207.132494, 463.195423)"><g><path d="M 5.59375 0.171875 C 4.144531 0.171875 3.085938 -0.367188 2.421875 -1.453125 L 2.359375 -1.453125 L 2.390625 -0.71875 C 2.410156 -0.300781 2.421875 0.160156 2.421875 0.671875 L 2.421875 4.25 L 1.578125 4.25 L 1.578125 -9.390625 L 2.296875 -9.390625 L 2.46875 -8.046875 L 2.515625 -8.046875 C 3.160156 -9.054688 4.191406 -9.5625 5.609375 -9.5625 C 6.867188 -9.5625 7.832031 -9.144531 8.5 -8.3125 C 9.164062 -7.488281 9.5 -6.28125 9.5 -4.6875 C 9.5 -3.144531 9.148438 -1.945312 8.453125 -1.09375 C 7.753906 -0.25 6.800781 0.171875 5.59375 0.171875 Z M 5.578125 -0.59375 C 6.535156 -0.59375 7.273438 -0.945312 7.796875 -1.65625 C 8.328125 -2.375 8.59375 -3.375 8.59375 -4.65625 C 8.59375 -7.414062 7.597656 -8.796875 5.609375 -8.796875 C 4.515625 -8.796875 3.707031 -8.492188 3.1875 -7.890625 C 2.675781 -7.285156 2.421875 -6.304688 2.421875 -4.953125 L 2.421875 -4.671875 C 2.421875 -3.203125 2.664062 -2.15625 3.15625 -1.53125 C 3.65625 -0.90625 4.460938 -0.59375 5.578125 -0.59375 Z M 5.578125 -0.59375 "/></g></g></g><g fill="#000000" fill-opacity="1"><g transform="translate(217.661314, 463.195423)"><g><path d="M 2.421875 0 L 1.578125 0 L 1.578125 -13.4375 L 2.421875 -13.4375 Z M 2.421875 0 "/></g></g></g><g fill="#000000" fill-opacity="1"><g transform="translate(221.660367, 463.195423)"><g><path d="M 2.421875 0 L 1.578125 0 L 1.578125 -9.390625 L 2.421875 -9.390625 Z M 1.453125 -12 C 1.453125 -12.550781 1.632812 -12.828125 2 -12.828125 C 2.175781 -12.828125 2.3125 -12.753906 2.40625 -12.609375 C 2.507812 -12.460938 2.5625 -12.257812 2.5625 -12 C 2.5625 -11.738281 2.507812 -11.53125 2.40625 -11.375 C 2.3125 -11.226562 2.175781 -11.15625 2 -11.15625 C 1.632812 -11.15625 1.453125 -11.4375 1.453125 -12 Z M 1.453125 -12 "/></g></g></g><g fill="#000000" fill-opacity="1"><g transform="translate(225.659419, 463.195423)"><g><path d="M 5.3125 0.171875 C 3.976562 0.171875 2.929688 -0.25 2.171875 -1.09375 C 1.410156 -1.9375 1.03125 -3.117188 1.03125 -4.640625 C 1.03125 -6.191406 1.421875 -7.398438 2.203125 -8.265625 C 2.992188 -9.128906 4.078125 -9.5625 5.453125 -9.5625 C 6.265625 -9.5625 7.039062 -9.421875 7.78125 -9.140625 L 7.546875 -8.390625 C 6.734375 -8.660156 6.03125 -8.796875 5.4375 -8.796875 C 4.28125 -8.796875 3.40625 -8.4375 2.8125 -7.71875 C 2.21875 -7.007812 1.921875 -5.988281 1.921875 -4.65625 C 1.921875 -3.382812 2.21875 -2.390625 2.8125 -1.671875 C 3.40625 -0.960938 4.234375 -0.609375 5.296875 -0.609375 C 6.148438 -0.609375 6.941406 -0.757812 7.671875 -1.0625 L 7.671875 -0.265625 C 7.078125 0.0234375 6.289062 0.171875 5.3125 0.171875 Z M 5.3125 0.171875 "/></g></g></g><g fill="#000000" fill-opacity="1"><g transform="translate(234.063474, 463.195423)"><g><path d="M 7.265625 0 L 7.0625 -1.484375 L 6.984375 -1.484375 C 6.515625 -0.878906 6.03125 -0.453125 5.53125 -0.203125 C 5.03125 0.046875 4.441406 0.171875 3.765625 0.171875 C 2.847656 0.171875 2.128906 -0.0625 1.609375 -0.53125 C 1.097656 -1.007812 0.84375 -1.664062 0.84375 -2.5 C 0.84375 -3.414062 1.222656 -4.125 1.984375 -4.625 C 2.753906 -5.132812 3.859375 -5.40625 5.296875 -5.4375 L 7.09375 -5.484375 L 7.09375 -6.109375 C 7.09375 -6.992188 6.910156 -7.664062 6.546875 -8.125 C 6.179688 -8.582031 5.597656 -8.8125 4.796875 -8.8125 C 3.921875 -8.8125 3.019531 -8.566406 2.09375 -8.078125 L 1.765625 -8.828125 C 2.796875 -9.304688 3.816406 -9.546875 4.828125 -9.546875 C 5.859375 -9.546875 6.628906 -9.28125 7.140625 -8.75 C 7.648438 -8.21875 7.90625 -7.382812 7.90625 -6.25 L 7.90625 0 Z M 3.8125 -0.609375 C 4.8125 -0.609375 5.601562 -0.894531 6.1875 -1.46875 C 6.769531 -2.039062 7.0625 -2.835938 7.0625 -3.859375 L 7.0625 -4.78125 L 5.421875 -4.703125 C 4.097656 -4.640625 3.15625 -4.429688 2.59375 -4.078125 C 2.03125 -3.734375 1.75 -3.195312 1.75 -2.46875 C 1.75 -1.875 1.925781 -1.414062 2.28125 -1.09375 C 2.644531 -0.769531 3.15625 -0.609375 3.8125 -0.609375 Z M 3.8125 -0.609375 "/></g></g></g><g fill="#000000" fill-opacity="1"><g transform="translate(243.434902, 463.195423)"><g><path d="M 4.046875 -0.59375 C 4.585938 -0.59375 5.0625 -0.632812 5.46875 -0.71875 L 5.46875 -0.03125 C 5.050781 0.101562 4.570312 0.171875 4.03125 0.171875 C 3.207031 0.171875 2.597656 -0.046875 2.203125 -0.484375 C 1.804688 -0.929688 1.609375 -1.628906 1.609375 -2.578125 L 1.609375 -8.640625 L 0.21875 -8.640625 L 0.21875 -9.140625 L 1.609375 -9.53125 L 2.03125 -11.65625 L 2.484375 -11.65625 L 2.484375 -9.390625 L 5.234375 -9.390625 L 5.234375 -8.640625 L 2.484375 -8.640625 L 2.484375 -2.703125 C 2.484375 -1.984375 2.609375 -1.453125 2.859375 -1.109375 C 3.109375 -0.765625 3.503906 -0.59375 4.046875 -0.59375 Z M 4.046875 -0.59375 "/></g></g></g><g fill="#000000" fill-opacity="1"><g transform="translate(249.360062, 463.195423)"><g><path d="M 2.421875 0 L 1.578125 0 L 1.578125 -9.390625 L 2.421875 -9.390625 Z M 1.453125 -12 C 1.453125 -12.550781 1.632812 -12.828125 2 -12.828125 C 2.175781 -12.828125 2.3125 -12.753906 2.40625 -12.609375 C 2.507812 -12.460938 2.5625 -12.257812 2.5625 -12 C 2.5625 -11.738281 2.507812 -11.53125 2.40625 -11.375 C 2.3125 -11.226562 2.175781 -11.15625 2 -11.15625 C 1.632812 -11.15625 1.453125 -11.4375 1.453125 -12 Z M 1.453125 -12 "/></g></g></g><g fill="#000000" fill-opacity="1"><g transform="translate(253.359114, 463.195423)"><g><path d="M 9.34375 -4.703125 C 9.34375 -3.171875 8.96875 -1.972656 8.21875 -1.109375 C 7.476562 -0.253906 6.453125 0.171875 5.140625 0.171875 C 4.316406 0.171875 3.59375 -0.0234375 2.96875 -0.421875 C 2.34375 -0.816406 1.863281 -1.382812 1.53125 -2.125 C 1.195312 -2.875 1.03125 -3.734375 1.03125 -4.703125 C 1.03125 -6.234375 1.398438 -7.425781 2.140625 -8.28125 C 2.878906 -9.132812 3.898438 -9.5625 5.203125 -9.5625 C 6.492188 -9.5625 7.503906 -9.128906 8.234375 -8.265625 C 8.972656 -7.398438 9.34375 -6.210938 9.34375 -4.703125 Z M 1.921875 -4.703125 C 1.921875 -3.410156 2.203125 -2.40625 2.765625 -1.6875 C 3.335938 -0.96875 4.144531 -0.609375 5.1875 -0.609375 C 6.21875 -0.609375 7.015625 -0.96875 7.578125 -1.6875 C 8.148438 -2.40625 8.4375 -3.410156 8.4375 -4.703125 C 8.4375 -6.003906 8.148438 -7.007812 7.578125 -7.71875 C 7.003906 -8.4375 6.203125 -8.796875 5.171875 -8.796875 C 4.128906 -8.796875 3.328125 -8.4375 2.765625 -7.71875 C 2.203125 -7.007812 1.921875 -6.003906 1.921875 -4.703125 Z M 1.921875 -4.703125 "/></g></g></g><g fill="#000000" fill-opacity="1"><g transform="translate(263.723825, 463.195423)"><g><path d="M 8.125 0 L 8.125 -6.09375 C 8.125 -7.03125 7.921875 -7.710938 7.515625 -8.140625 C 7.117188 -8.578125 6.503906 -8.796875 5.671875 -8.796875 C 4.546875 -8.796875 3.722656 -8.507812 3.203125 -7.9375 C 2.679688 -7.375 2.421875 -6.457031 2.421875 -5.1875 L 2.421875 0 L 1.578125 0 L 1.578125 -9.390625 L 2.296875 -9.390625 L 2.46875 -8.09375 L 2.515625 -8.09375 C 3.117188 -9.070312 4.203125 -9.5625 5.765625 -9.5625 C 7.898438 -9.5625 8.96875 -8.421875 8.96875 -6.140625 L 8.96875 0 Z M 8.125 0 "/></g></g></g><g fill="#000000" fill-opacity="1"><g transform="translate(274.157634, 463.195423)"><g><path d="M 7.390625 -2.4375 C 7.390625 -1.601562 7.066406 -0.957031 6.421875 -0.5 C 5.785156 -0.0507812 4.882812 0.171875 3.71875 0.171875 C 2.457031 0.171875 1.457031 -0.0195312 0.71875 -0.40625 L 0.71875 -1.328125 C 1.664062 -0.859375 2.664062 -0.625 3.71875 -0.625 C 4.644531 -0.625 5.347656 -0.773438 5.828125 -1.078125 C 6.304688 -1.390625 6.546875 -1.800781 6.546875 -2.3125 C 6.546875 -2.78125 6.351562 -3.175781 5.96875 -3.5 C 5.582031 -3.820312 4.953125 -4.140625 4.078125 -4.453125 C 3.140625 -4.796875 2.476562 -5.085938 2.09375 -5.328125 C 1.71875 -5.578125 1.429688 -5.851562 1.234375 -6.15625 C 1.046875 -6.46875 0.953125 -6.847656 0.953125 -7.296875 C 0.953125 -7.992188 1.25 -8.546875 1.84375 -8.953125 C 2.4375 -9.359375 3.257812 -9.5625 4.3125 -9.5625 C 5.332031 -9.5625 6.296875 -9.375 7.203125 -9 L 6.890625 -8.21875 C 5.960938 -8.601562 5.101562 -8.796875 4.3125 -8.796875 C 3.550781 -8.796875 2.945312 -8.664062 2.5 -8.40625 C 2.050781 -8.15625 1.828125 -7.804688 1.828125 -7.359375 C 1.828125 -6.867188 2 -6.476562 2.34375 -6.1875 C 2.695312 -5.894531 3.378906 -5.566406 4.390625 -5.203125 C 5.234375 -4.890625 5.847656 -4.609375 6.234375 -4.359375 C 6.617188 -4.117188 6.90625 -3.84375 7.09375 -3.53125 C 7.289062 -3.226562 7.390625 -2.863281 7.390625 -2.4375 Z M 7.390625 -2.4375 "/></g></g></g><g fill="#000000" fill-opacity="1"><g transform="translate(329.763805, 386.820761)"><g><path d="M 5.484375 -2.03125 C 5.484375 -1.375 5.238281 -0.851562 4.75 -0.46875 C 4.269531 -0.0820312 3.625 0.109375 2.8125 0.109375 C 1.851562 0.109375 1.113281 0.00390625 0.59375 -0.203125 L 0.59375 -0.765625 C 1.164062 -0.523438 1.894531 -0.40625 2.78125 -0.40625 C 3.425781 -0.40625 3.9375 -0.550781 4.3125 -0.84375 C 4.695312 -1.144531 4.890625 -1.535156 4.890625 -2.015625 C 4.890625 -2.316406 4.828125 -2.5625 4.703125 -2.75 C 4.578125 -2.945312 4.367188 -3.125 4.078125 -3.28125 C 3.796875 -3.445312 3.378906 -3.625 2.828125 -3.8125 C 2.023438 -4.09375 1.46875 -4.394531 1.15625 -4.71875 C 0.851562 -5.039062 0.703125 -5.46875 0.703125 -6 C 0.703125 -6.59375 0.929688 -7.078125 1.390625 -7.453125 C 1.847656 -7.828125 2.441406 -8.015625 3.171875 -8.015625 C 3.910156 -8.015625 4.609375 -7.875 5.265625 -7.59375 L 5.0625 -7.109375 C 4.40625 -7.390625 3.78125 -7.53125 3.1875 -7.53125 C 2.601562 -7.53125 2.140625 -7.394531 1.796875 -7.125 C 1.453125 -6.851562 1.28125 -6.484375 1.28125 -6.015625 C 1.28125 -5.722656 1.332031 -5.484375 1.4375 -5.296875 C 1.539062 -5.109375 1.710938 -4.9375 1.953125 -4.78125 C 2.191406 -4.632812 2.609375 -4.457031 3.203125 -4.25 C 3.816406 -4.039062 4.273438 -3.835938 4.578125 -3.640625 C 4.890625 -3.441406 5.117188 -3.210938 5.265625 -2.953125 C 5.410156 -2.703125 5.484375 -2.394531 5.484375 -2.03125 Z M 5.484375 -2.03125 "/></g></g></g><g fill="#000000" fill-opacity="1"><g transform="translate(335.794978, 386.820761)"><g><path d="M 5.84375 -2.9375 C 5.84375 -1.976562 5.609375 -1.226562 5.140625 -0.6875 C 4.679688 -0.15625 4.039062 0.109375 3.21875 0.109375 C 2.707031 0.109375 2.253906 -0.015625 1.859375 -0.265625 C 1.460938 -0.515625 1.160156 -0.867188 0.953125 -1.328125 C 0.742188 -1.796875 0.640625 -2.332031 0.640625 -2.9375 C 0.640625 -3.894531 0.867188 -4.640625 1.328125 -5.171875 C 1.796875 -5.710938 2.4375 -5.984375 3.25 -5.984375 C 4.0625 -5.984375 4.695312 -5.710938 5.15625 -5.171875 C 5.613281 -4.628906 5.84375 -3.882812 5.84375 -2.9375 Z M 1.203125 -2.9375 C 1.203125 -2.132812 1.378906 -1.503906 1.734375 -1.046875 C 2.085938 -0.597656 2.585938 -0.375 3.234375 -0.375 C 3.890625 -0.375 4.394531 -0.597656 4.75 -1.046875 C 5.101562 -1.503906 5.28125 -2.132812 5.28125 -2.9375 C 5.28125 -3.75 5.097656 -4.378906 4.734375 -4.828125 C 4.378906 -5.273438 3.878906 -5.5 3.234375 -5.5 C 2.585938 -5.5 2.085938 -5.273438 1.734375 -4.828125 C 1.378906 -4.390625 1.203125 -3.757812 1.203125 -2.9375 Z M 1.203125 -2.9375 "/></g></g></g><g fill="#000000" fill-opacity="1"><g transform="translate(342.28011, 386.820761)"><g><path d="M 3.46875 -5.984375 C 4.28125 -5.984375 4.894531 -5.722656 5.3125 -5.203125 C 5.726562 -4.691406 5.9375 -3.9375 5.9375 -2.9375 C 5.9375 -1.96875 5.71875 -1.21875 5.28125 -0.6875 C 4.84375 -0.15625 4.226562 0.109375 3.4375 0.109375 C 3.019531 0.109375 2.644531 0.0234375 2.3125 -0.140625 C 1.976562 -0.316406 1.710938 -0.566406 1.515625 -0.890625 L 1.46875 -0.890625 L 1.3125 0 L 0.984375 0 L 0.984375 -8.40625 L 1.515625 -8.40625 L 1.515625 -6.296875 C 1.515625 -5.972656 1.507812 -5.679688 1.5 -5.421875 L 1.484375 -4.953125 L 1.515625 -4.953125 C 1.742188 -5.304688 2.015625 -5.566406 2.328125 -5.734375 C 2.640625 -5.898438 3.019531 -5.984375 3.46875 -5.984375 Z M 3.453125 -5.5 C 2.765625 -5.5 2.269531 -5.300781 1.96875 -4.90625 C 1.664062 -4.507812 1.515625 -3.851562 1.515625 -2.9375 L 1.515625 -2.859375 C 1.515625 -1.960938 1.671875 -1.320312 1.984375 -0.9375 C 2.296875 -0.5625 2.78125 -0.375 3.4375 -0.375 C 4.082031 -0.375 4.566406 -0.597656 4.890625 -1.046875 C 5.210938 -1.492188 5.375 -2.128906 5.375 -2.953125 C 5.375 -4.648438 4.734375 -5.5 3.453125 -5.5 Z M 3.453125 -5.5 "/></g></g></g><g fill="#000000" fill-opacity="1"><g transform="translate(348.867924, 386.820761)"><g><path d="M 3.296875 -5.984375 C 3.546875 -5.984375 3.8125 -5.957031 4.09375 -5.90625 L 3.984375 -5.390625 C 3.742188 -5.453125 3.492188 -5.484375 3.234375 -5.484375 C 2.734375 -5.484375 2.320312 -5.269531 2 -4.84375 C 1.675781 -4.425781 1.515625 -3.890625 1.515625 -3.234375 L 1.515625 0 L 0.984375 0 L 0.984375 -5.875 L 1.4375 -5.875 L 1.484375 -4.8125 L 1.53125 -4.8125 C 1.769531 -5.25 2.023438 -5.550781 2.296875 -5.71875 C 2.578125 -5.894531 2.910156 -5.984375 3.296875 -5.984375 Z M 3.296875 -5.984375 "/></g></g></g><g fill="#000000" fill-opacity="1"><g transform="translate(353.175133, 386.820761)"><g><path d="M 1.515625 0 L 0.984375 0 L 0.984375 -5.875 L 1.515625 -5.875 Z M 0.90625 -7.5 C 0.90625 -7.84375 1.019531 -8.015625 1.25 -8.015625 C 1.363281 -8.015625 1.453125 -7.96875 1.515625 -7.875 C 1.578125 -7.789062 1.609375 -7.664062 1.609375 -7.5 C 1.609375 -7.34375 1.578125 -7.21875 1.515625 -7.125 C 1.453125 -7.03125 1.363281 -6.984375 1.25 -6.984375 C 1.019531 -6.984375 0.90625 -7.15625 0.90625 -7.5 Z M 0.90625 -7.5 "/></g></g></g><g fill="#000000" fill-opacity="1"><g transform="translate(355.677314, 386.820761)"><g><path d="M 3.359375 0.109375 C 2.503906 0.109375 1.835938 -0.148438 1.359375 -0.671875 C 0.878906 -1.203125 0.640625 -1.941406 0.640625 -2.890625 C 0.640625 -3.828125 0.867188 -4.578125 1.328125 -5.140625 C 1.796875 -5.703125 2.421875 -5.984375 3.203125 -5.984375 C 3.890625 -5.984375 4.429688 -5.738281 4.828125 -5.25 C 5.234375 -4.769531 5.4375 -4.117188 5.4375 -3.296875 L 5.4375 -2.859375 L 1.203125 -2.859375 C 1.210938 -2.054688 1.398438 -1.441406 1.765625 -1.015625 C 2.140625 -0.585938 2.671875 -0.375 3.359375 -0.375 C 3.691406 -0.375 3.984375 -0.394531 4.234375 -0.4375 C 4.492188 -0.488281 4.816406 -0.59375 5.203125 -0.75 L 5.203125 -0.265625 C 4.867188 -0.117188 4.5625 -0.0195312 4.28125 0.03125 C 4 0.0820312 3.691406 0.109375 3.359375 0.109375 Z M 3.203125 -5.515625 C 2.628906 -5.515625 2.171875 -5.328125 1.828125 -4.953125 C 1.492188 -4.578125 1.296875 -4.039062 1.234375 -3.34375 L 4.859375 -3.34375 C 4.859375 -4.019531 4.710938 -4.550781 4.421875 -4.9375 C 4.128906 -5.320312 3.722656 -5.515625 3.203125 -5.515625 Z M 2.4375 -6.796875 C 2.695312 -7.078125 2.957031 -7.382812 3.21875 -7.71875 C 3.476562 -8.050781 3.65625 -8.300781 3.75 -8.46875 L 4.5 -8.46875 L 4.5 -8.390625 C 4.375 -8.203125 4.15625 -7.953125 3.84375 -7.640625 C 3.53125 -7.328125 3.1875 -7.015625 2.8125 -6.703125 L 2.4375 -6.703125 Z M 2.4375 -6.796875 "/></g></g></g><g fill="#000000" fill-opacity="1"><g transform="translate(361.751721, 386.820761)"><g><path d="M 2.53125 -0.375 C 2.875 -0.375 3.171875 -0.398438 3.421875 -0.453125 L 3.421875 -0.015625 C 3.160156 0.0664062 2.859375 0.109375 2.515625 0.109375 C 2.003906 0.109375 1.625 -0.0234375 1.375 -0.296875 C 1.125 -0.578125 1 -1.015625 1 -1.609375 L 1 -5.40625 L 0.140625 -5.40625 L 0.140625 -5.71875 L 1 -5.96875 L 1.28125 -7.296875 L 1.546875 -7.296875 L 1.546875 -5.875 L 3.265625 -5.875 L 3.265625 -5.40625 L 1.546875 -5.40625 L 1.546875 -1.6875 C 1.546875 -1.238281 1.625 -0.90625 1.78125 -0.6875 C 1.945312 -0.476562 2.195312 -0.375 2.53125 -0.375 Z M 2.53125 -0.375 "/></g></g></g><g fill="#000000" fill-opacity="1"><g transform="translate(365.459055, 386.820761)"><g><path d="M 3.359375 0.109375 C 2.503906 0.109375 1.835938 -0.148438 1.359375 -0.671875 C 0.878906 -1.203125 0.640625 -1.941406 0.640625 -2.890625 C 0.640625 -3.828125 0.867188 -4.578125 1.328125 -5.140625 C 1.796875 -5.703125 2.421875 -5.984375 3.203125 -5.984375 C 3.890625 -5.984375 4.429688 -5.738281 4.828125 -5.25 C 5.234375 -4.769531 5.4375 -4.117188 5.4375 -3.296875 L 5.4375 -2.859375 L 1.203125 -2.859375 C 1.210938 -2.054688 1.398438 -1.441406 1.765625 -1.015625 C 2.140625 -0.585938 2.671875 -0.375 3.359375 -0.375 C 3.691406 -0.375 3.984375 -0.394531 4.234375 -0.4375 C 4.492188 -0.488281 4.816406 -0.59375 5.203125 -0.75 L 5.203125 -0.265625 C 4.867188 -0.117188 4.5625 -0.0195312 4.28125 0.03125 C 4 0.0820312 3.691406 0.109375 3.359375 0.109375 Z M 3.203125 -5.515625 C 2.628906 -5.515625 2.171875 -5.328125 1.828125 -4.953125 C 1.492188 -4.578125 1.296875 -4.039062 1.234375 -3.34375 L 4.859375 -3.34375 C 4.859375 -4.019531 4.710938 -4.550781 4.421875 -4.9375 C 4.128906 -5.320312 3.722656 -5.515625 3.203125 -5.515625 Z M 2.4375 -6.796875 C 2.695312 -7.078125 2.957031 -7.382812 3.21875 -7.71875 C 3.476562 -8.050781 3.65625 -8.300781 3.75 -8.46875 L 4.5 -8.46875 L 4.5 -8.390625 C 4.375 -8.203125 4.15625 -7.953125 3.84375 -7.640625 C 3.53125 -7.328125 3.1875 -7.015625 2.8125 -6.703125 L 2.4375 -6.703125 Z M 2.4375 -6.796875 "/></g></g></g><g fill="#000000" fill-opacity="1"><g transform="translate(323.314019, 402.278778)"><g><path d="M 5.078125 0 L 5.078125 -3.8125 C 5.078125 -4.394531 4.953125 -4.820312 4.703125 -5.09375 C 4.453125 -5.363281 4.066406 -5.5 3.546875 -5.5 C 2.847656 -5.5 2.332031 -5.320312 2 -4.96875 C 1.675781 -4.613281 1.515625 -4.035156 1.515625 -3.234375 L 1.515625 0 L 0.984375 0 L 0.984375 -5.875 L 1.4375 -5.875 L 1.546875 -5.0625 L 1.578125 -5.0625 C 1.953125 -5.675781 2.628906 -5.984375 3.609375 -5.984375 C 4.941406 -5.984375 5.609375 -5.269531 5.609375 -3.84375 L 5.609375 0 Z M 5.078125 0 "/></g></g></g><g fill="#000000" fill-opacity="1"><g transform="translate(329.842385, 402.278778)"><g><path d="M 1.453125 -5.875 L 1.453125 -2.0625 C 1.453125 -1.476562 1.570312 -1.050781 1.8125 -0.78125 C 2.0625 -0.507812 2.445312 -0.375 2.96875 -0.375 C 3.675781 -0.375 4.191406 -0.550781 4.515625 -0.90625 C 4.847656 -1.257812 5.015625 -1.832031 5.015625 -2.625 L 5.015625 -5.875 L 5.546875 -5.875 L 5.546875 0 L 5.09375 0 L 4.984375 -0.8125 L 4.953125 -0.8125 C 4.578125 -0.195312 3.898438 0.109375 2.921875 0.109375 C 1.585938 0.109375 0.921875 -0.601562 0.921875 -2.03125 L 0.921875 -5.875 Z M 1.453125 -5.875 "/></g></g></g><g fill="#000000" fill-opacity="1"><g transform="translate(336.370751, 402.278778)"><g><path d="M 8.3125 0 L 8.3125 -3.84375 C 8.3125 -4.414062 8.203125 -4.832031 7.984375 -5.09375 C 7.765625 -5.363281 7.421875 -5.5 6.953125 -5.5 C 6.359375 -5.5 5.914062 -5.332031 5.625 -5 C 5.332031 -4.664062 5.1875 -4.144531 5.1875 -3.4375 L 5.1875 0 L 4.640625 0 L 4.640625 -4.015625 C 4.640625 -5.003906 4.1875 -5.5 3.28125 -5.5 C 2.664062 -5.5 2.21875 -5.316406 1.9375 -4.953125 C 1.65625 -4.597656 1.515625 -4.023438 1.515625 -3.234375 L 1.515625 0 L 0.984375 0 L 0.984375 -5.875 L 1.421875 -5.875 L 1.546875 -5.0625 L 1.578125 -5.0625 C 1.734375 -5.351562 1.960938 -5.578125 2.265625 -5.734375 C 2.566406 -5.898438 2.894531 -5.984375 3.25 -5.984375 C 4.175781 -5.984375 4.769531 -5.632812 5.03125 -4.9375 L 5.0625 -4.9375 C 5.25 -5.269531 5.503906 -5.523438 5.828125 -5.703125 C 6.148438 -5.890625 6.515625 -5.984375 6.921875 -5.984375 C 7.566406 -5.984375 8.046875 -5.8125 8.359375 -5.46875 C 8.679688 -5.125 8.84375 -4.582031 8.84375 -3.84375 L 8.84375 0 Z M 8.3125 0 "/></g></g></g><g fill="#000000" fill-opacity="1"><g transform="translate(346.141683, 402.278778)"><g><path d="M 3.359375 0.109375 C 2.503906 0.109375 1.835938 -0.148438 1.359375 -0.671875 C 0.878906 -1.203125 0.640625 -1.941406 0.640625 -2.890625 C 0.640625 -3.828125 0.867188 -4.578125 1.328125 -5.140625 C 1.796875 -5.703125 2.421875 -5.984375 3.203125 -5.984375 C 3.890625 -5.984375 4.429688 -5.738281 4.828125 -5.25 C 5.234375 -4.769531 5.4375 -4.117188 5.4375 -3.296875 L 5.4375 -2.859375 L 1.203125 -2.859375 C 1.210938 -2.054688 1.398438 -1.441406 1.765625 -1.015625 C 2.140625 -0.585938 2.671875 -0.375 3.359375 -0.375 C 3.691406 -0.375 3.984375 -0.394531 4.234375 -0.4375 C 4.492188 -0.488281 4.816406 -0.59375 5.203125 -0.75 L 5.203125 -0.265625 C 4.867188 -0.117188 4.5625 -0.0195312 4.28125 0.03125 C 4 0.0820312 3.691406 0.109375 3.359375 0.109375 Z M 3.203125 -5.515625 C 2.628906 -5.515625 2.171875 -5.328125 1.828125 -4.953125 C 1.492188 -4.578125 1.296875 -4.039062 1.234375 -3.34375 L 4.859375 -3.34375 C 4.859375 -4.019531 4.710938 -4.550781 4.421875 -4.9375 C 4.128906 -5.320312 3.722656 -5.515625 3.203125 -5.515625 Z M 2.4375 -6.796875 C 2.695312 -7.078125 2.957031 -7.382812 3.21875 -7.71875 C 3.476562 -8.050781 3.65625 -8.300781 3.75 -8.46875 L 4.5 -8.46875 L 4.5 -8.390625 C 4.375 -8.203125 4.15625 -7.953125 3.84375 -7.640625 C 3.53125 -7.328125 3.1875 -7.015625 2.8125 -6.703125 L 2.4375 -6.703125 Z M 2.4375 -6.796875 "/></g></g></g><g fill="#000000" fill-opacity="1"><g transform="translate(352.21609, 402.278778)"><g><path d="M 3.296875 -5.984375 C 3.546875 -5.984375 3.8125 -5.957031 4.09375 -5.90625 L 3.984375 -5.390625 C 3.742188 -5.453125 3.492188 -5.484375 3.234375 -5.484375 C 2.734375 -5.484375 2.320312 -5.269531 2 -4.84375 C 1.675781 -4.425781 1.515625 -3.890625 1.515625 -3.234375 L 1.515625 0 L 0.984375 0 L 0.984375 -5.875 L 1.4375 -5.875 L 1.484375 -4.8125 L 1.53125 -4.8125 C 1.769531 -5.25 2.023438 -5.550781 2.296875 -5.71875 C 2.578125 -5.894531 2.910156 -5.984375 3.296875 -5.984375 Z M 3.296875 -5.984375 "/></g></g></g><g fill="#000000" fill-opacity="1"><g transform="translate(356.523299, 402.278778)"><g><path d="M 1.515625 0 L 0.984375 0 L 0.984375 -5.875 L 1.515625 -5.875 Z M 0.90625 -7.5 C 0.90625 -7.84375 1.019531 -8.015625 1.25 -8.015625 C 1.363281 -8.015625 1.453125 -7.96875 1.515625 -7.875 C 1.578125 -7.789062 1.609375 -7.664062 1.609375 -7.5 C 1.609375 -7.34375 1.578125 -7.21875 1.515625 -7.125 C 1.453125 -7.03125 1.363281 -6.984375 1.25 -6.984375 C 1.019531 -6.984375 0.90625 -7.15625 0.90625 -7.5 Z M 0.90625 -7.5 "/></g></g></g><g fill="#000000" fill-opacity="1"><g transform="translate(359.025481, 402.278778)"><g><path d="M 3.078125 0.109375 C 2.304688 0.109375 1.707031 -0.144531 1.28125 -0.65625 C 0.851562 -1.164062 0.640625 -1.90625 0.640625 -2.875 C 0.640625 -3.863281 0.851562 -4.628906 1.28125 -5.171875 C 1.707031 -5.710938 2.316406 -5.984375 3.109375 -5.984375 C 3.953125 -5.984375 4.585938 -5.671875 5.015625 -5.046875 L 5.046875 -5.046875 L 5.140625 -5.875 L 5.59375 -5.875 L 5.59375 2.65625 L 5.0625 2.65625 L 5.0625 0.421875 C 5.0625 -0.015625 5.070312 -0.460938 5.09375 -0.921875 L 5.0625 -0.921875 C 4.632812 -0.234375 3.972656 0.109375 3.078125 0.109375 Z M 3.078125 -0.375 C 3.796875 -0.375 4.304688 -0.566406 4.609375 -0.953125 C 4.910156 -1.347656 5.0625 -2.007812 5.0625 -2.9375 L 5.0625 -3 C 5.0625 -3.882812 4.910156 -4.519531 4.609375 -4.90625 C 4.304688 -5.300781 3.816406 -5.5 3.140625 -5.5 C 2.503906 -5.5 2.019531 -5.273438 1.6875 -4.828125 C 1.363281 -4.378906 1.203125 -3.722656 1.203125 -2.859375 C 1.203125 -2.035156 1.363281 -1.414062 1.6875 -1 C 2.007812 -0.582031 2.472656 -0.375 3.078125 -0.375 Z M 3.078125 -0.375 "/></g></g></g><g fill="#000000" fill-opacity="1"><g transform="translate(365.613293, 402.278778)"><g><path d="M 1.453125 -5.875 L 1.453125 -2.0625 C 1.453125 -1.476562 1.570312 -1.050781 1.8125 -0.78125 C 2.0625 -0.507812 2.445312 -0.375 2.96875 -0.375 C 3.675781 -0.375 4.191406 -0.550781 4.515625 -0.90625 C 4.847656 -1.257812 5.015625 -1.832031 5.015625 -2.625 L 5.015625 -5.875 L 5.546875 -5.875 L 5.546875 0 L 5.09375 0 L 4.984375 -0.8125 L 4.953125 -0.8125 C 4.578125 -0.195312 3.898438 0.109375 2.921875 0.109375 C 1.585938 0.109375 0.921875 -0.601562 0.921875 -2.03125 L 0.921875 -5.875 Z M 1.453125 -5.875 "/></g></g></g><g fill="#000000" fill-opacity="1"><g transform="translate(372.141659, 402.278778)"><g><path d="M 3.359375 0.109375 C 2.503906 0.109375 1.835938 -0.148438 1.359375 -0.671875 C 0.878906 -1.203125 0.640625 -1.941406 0.640625 -2.890625 C 0.640625 -3.828125 0.867188 -4.578125 1.328125 -5.140625 C 1.796875 -5.703125 2.421875 -5.984375 3.203125 -5.984375 C 3.890625 -5.984375 4.429688 -5.738281 4.828125 -5.25 C 5.234375 -4.769531 5.4375 -4.117188 5.4375 -3.296875 L 5.4375 -2.859375 L 1.203125 -2.859375 C 1.210938 -2.054688 1.398438 -1.441406 1.765625 -1.015625 C 2.140625 -0.585938 2.671875 -0.375 3.359375 -0.375 C 3.691406 -0.375 3.984375 -0.394531 4.234375 -0.4375 C 4.492188 -0.488281 4.816406 -0.59375 5.203125 -0.75 L 5.203125 -0.265625 C 4.867188 -0.117188 4.5625 -0.0195312 4.28125 0.03125 C 4 0.0820312 3.691406 0.109375 3.359375 0.109375 Z M 3.203125 -5.515625 C 2.628906 -5.515625 2.171875 -5.328125 1.828125 -4.953125 C 1.492188 -4.578125 1.296875 -4.039062 1.234375 -3.34375 L 4.859375 -3.34375 C 4.859375 -4.019531 4.710938 -4.550781 4.421875 -4.9375 C 4.128906 -5.320312 3.722656 -5.515625 3.203125 -5.515625 Z M 3.203125 -5.515625 "/></g></g></g></svg>