<svg xmlns="http://www.w3.org/2000/svg" xmlns:xlink="http://www.w3.org/1999/xlink" width="800" zoomAndPan="magnify" viewBox="0 0 600 449.999984" height="600" preserveAspectRatio="xMidYMid meet" version="1.0"><defs><g/><clipPath id="e4ff763774"><path d="M 24.589844 45 L 575.089844 45 L 575.089844 405 L 24.589844 405 Z M 24.589844 45 " clip-rule="nonzero"/></clipPath><clipPath id="04f335d876"><path d="M 45.003906 130.398438 L 290.996094 130.398438 L 290.996094 275.898438 L 45.003906 275.898438 Z M 45.003906 130.398438 " clip-rule="nonzero"/></clipPath><clipPath id="6d7730525d"><path d="M 309.332031 130.398438 L 555.320312 130.398438 L 555.320312 275.898438 L 309.332031 275.898438 Z M 309.332031 130.398438 " clip-rule="nonzero"/></clipPath><clipPath id="7b3b74ae9d"><path d="M 319.140625 140.082031 L 423.390625 140.082031 L 423.390625 203.082031 L 319.140625 203.082031 Z M 319.140625 140.082031 " clip-rule="nonzero"/></clipPath><clipPath id="8ae7e687ed"><path d="M 432.164062 140.082031 L 536.410156 140.082031 L 536.410156 203.082031 L 432.164062 203.082031 Z M 432.164062 140.082031 " clip-rule="nonzero"/></clipPath></defs><g clip-path="url(#e4ff763774)"><path stroke-linecap="butt" transform="matrix(0.749569, 0, 0, 0.75, 24.590856, 45.000623)" fill="none" stroke-linejoin="miter" d="M -0.0013499 -0.000830527 L 734.420512 -0.000830527 L 734.420512 479.999176 L -0.0013499 479.999176 L -0.0013499 -0.000830527 " stroke="#000000" stroke-width="4" stroke-opacity="1" stroke-miterlimit="4"/></g><g fill="#000000" fill-opacity="1"><g transform="translate(176.7838, 371.254576)"><g><path d="M 6.078125 -9.515625 L 7.328125 -9.515625 C 8.503906 -9.515625 9.378906 -9.742188 9.953125 -10.203125 C 10.535156 -10.671875 10.828125 -11.347656 10.828125 -12.234375 C 10.828125 -13.128906 10.582031 -13.789062 10.09375 -14.21875 C 9.613281 -14.644531 8.851562 -14.859375 7.8125 -14.859375 L 6.078125 -14.859375 Z M 14.6875 -12.375 C 14.6875 -10.4375 14.082031 -8.953125 12.875 -7.921875 C 11.664062 -6.898438 9.945312 -6.390625 7.71875 -6.390625 L 6.078125 -6.390625 L 6.078125 0 L 2.265625 0 L 2.265625 -17.984375 L 8 -17.984375 C 10.1875 -17.984375 11.847656 -17.515625 12.984375 -16.578125 C 14.117188 -15.640625 14.6875 -14.238281 14.6875 -12.375 Z M 14.6875 -12.375 "/></g></g><g transform="translate(192.596197, 371.254576)"><g><path d="M 5.71875 0 L 1.96875 0 L 1.96875 -19.140625 L 5.71875 -19.140625 Z M 5.71875 0 "/></g></g><g transform="translate(200.281071, 371.254576)"><g><path d="M 10.703125 0 L 9.96875 -1.875 L 9.875 -1.875 C 9.238281 -1.070312 8.585938 -0.515625 7.921875 -0.203125 C 7.253906 0.0976562 6.382812 0.25 5.3125 0.25 C 3.988281 0.25 2.945312 -0.125 2.1875 -0.875 C 1.4375 -1.632812 1.0625 -2.710938 1.0625 -4.109375 C 1.0625 -5.566406 1.570312 -6.640625 2.59375 -7.328125 C 3.613281 -8.023438 5.148438 -8.410156 7.203125 -8.484375 L 9.59375 -8.5625 L 9.59375 -9.15625 C 9.59375 -10.550781 8.878906 -11.25 7.453125 -11.25 C 6.359375 -11.25 5.066406 -10.914062 3.578125 -10.25 L 2.34375 -12.796875 C 3.914062 -13.617188 5.664062 -14.03125 7.59375 -14.03125 C 9.445312 -14.03125 10.863281 -13.628906 11.84375 -12.828125 C 12.820312 -12.023438 13.3125 -10.800781 13.3125 -9.15625 L 13.3125 0 Z M 9.59375 -6.375 L 8.140625 -6.328125 C 7.046875 -6.285156 6.234375 -6.082031 5.703125 -5.71875 C 5.171875 -5.363281 4.90625 -4.816406 4.90625 -4.078125 C 4.90625 -3.023438 5.515625 -2.5 6.734375 -2.5 C 7.597656 -2.5 8.289062 -2.75 8.8125 -3.25 C 9.332031 -3.75 9.59375 -4.410156 9.59375 -5.234375 Z M 9.59375 -6.375 "/></g></g><g transform="translate(215.490974, 371.254576)"><g><path d="M 7.765625 -2.75 C 8.421875 -2.75 9.207031 -2.890625 10.125 -3.171875 L 10.125 -0.375 C 9.1875 0.0390625 8.035156 0.25 6.671875 0.25 C 5.171875 0.25 4.078125 -0.128906 3.390625 -0.890625 C 2.710938 -1.648438 2.375 -2.785156 2.375 -4.296875 L 2.375 -10.9375 L 0.578125 -10.9375 L 0.578125 -12.515625 L 2.640625 -13.78125 L 3.71875 -16.671875 L 6.125 -16.671875 L 6.125 -13.75 L 9.96875 -13.75 L 9.96875 -10.9375 L 6.125 -10.9375 L 6.125 -4.296875 C 6.125 -3.765625 6.269531 -3.375 6.5625 -3.125 C 6.863281 -2.875 7.265625 -2.75 7.765625 -2.75 Z M 7.765625 -2.75 "/></g></g><g transform="translate(226.421939, 371.254576)"><g><path d="M 7.65625 -11.34375 C 6.863281 -11.34375 6.238281 -11.085938 5.78125 -10.578125 C 5.332031 -10.078125 5.078125 -9.363281 5.015625 -8.4375 L 10.28125 -8.4375 C 10.257812 -9.363281 10.015625 -10.078125 9.546875 -10.578125 C 9.085938 -11.085938 8.457031 -11.34375 7.65625 -11.34375 Z M 8.1875 0.25 C 5.976562 0.25 4.25 -0.359375 3 -1.578125 C 1.75 -2.804688 1.125 -4.539062 1.125 -6.78125 C 1.125 -9.082031 1.703125 -10.863281 2.859375 -12.125 C 4.015625 -13.382812 5.609375 -14.015625 7.640625 -14.015625 C 9.578125 -14.015625 11.085938 -13.457031 12.171875 -12.34375 C 13.253906 -11.238281 13.796875 -9.710938 13.796875 -7.765625 L 13.796875 -5.9375 L 4.9375 -5.9375 C 4.976562 -4.875 5.289062 -4.039062 5.875 -3.4375 C 6.46875 -2.84375 7.296875 -2.546875 8.359375 -2.546875 C 9.191406 -2.546875 9.972656 -2.628906 10.703125 -2.796875 C 11.441406 -2.972656 12.21875 -3.25 13.03125 -3.625 L 13.03125 -0.71875 C 12.375 -0.394531 11.671875 -0.15625 10.921875 0 C 10.171875 0.164062 9.257812 0.25 8.1875 0.25 Z M 8.1875 0.25 "/></g></g><g transform="translate(241.299856, 371.254576)"><g><path d="M 9.5625 -10.9375 L 6.328125 -10.9375 L 6.328125 0 L 2.578125 0 L 2.578125 -10.9375 L 0.5 -10.9375 L 0.5 -12.734375 L 2.578125 -13.75 L 2.578125 -14.765625 C 2.578125 -16.328125 2.957031 -17.46875 3.71875 -18.1875 C 4.488281 -18.90625 5.722656 -19.265625 7.421875 -19.265625 C 8.722656 -19.265625 9.878906 -19.070312 10.890625 -18.6875 L 9.921875 -15.9375 C 9.171875 -16.175781 8.472656 -16.296875 7.828125 -16.296875 C 7.296875 -16.296875 6.910156 -16.132812 6.671875 -15.8125 C 6.441406 -15.5 6.328125 -15.097656 6.328125 -14.609375 L 6.328125 -13.75 L 9.5625 -13.75 Z M 9.5625 -10.9375 "/></g></g><g transform="translate(251.050424, 371.254576)"><g><path d="M 4.953125 -6.90625 C 4.953125 -5.539062 5.175781 -4.507812 5.625 -3.8125 C 6.070312 -3.113281 6.800781 -2.765625 7.8125 -2.765625 C 8.8125 -2.765625 9.53125 -3.109375 9.96875 -3.796875 C 10.40625 -4.492188 10.625 -5.53125 10.625 -6.90625 C 10.625 -8.257812 10.398438 -9.273438 9.953125 -9.953125 C 9.515625 -10.640625 8.789062 -10.984375 7.78125 -10.984375 C 6.78125 -10.984375 6.054688 -10.644531 5.609375 -9.96875 C 5.171875 -9.289062 4.953125 -8.269531 4.953125 -6.90625 Z M 14.46875 -6.90625 C 14.46875 -4.664062 13.875 -2.910156 12.6875 -1.640625 C 11.507812 -0.378906 9.867188 0.25 7.765625 0.25 C 6.441406 0.25 5.273438 -0.0351562 4.265625 -0.609375 C 3.253906 -1.191406 2.476562 -2.023438 1.9375 -3.109375 C 1.394531 -4.191406 1.125 -5.457031 1.125 -6.90625 C 1.125 -9.144531 1.710938 -10.890625 2.890625 -12.140625 C 4.066406 -13.390625 5.710938 -14.015625 7.828125 -14.015625 C 9.148438 -14.015625 10.316406 -13.722656 11.328125 -13.140625 C 12.335938 -12.566406 13.113281 -11.742188 13.65625 -10.671875 C 14.195312 -9.597656 14.46875 -8.34375 14.46875 -6.90625 Z M 14.46875 -6.90625 "/></g></g><g transform="translate(266.641497, 371.254576)"><g><path d="M 9.640625 -14.015625 C 10.148438 -14.015625 10.570312 -13.972656 10.90625 -13.890625 L 10.625 -10.375 C 10.320312 -10.457031 9.953125 -10.5 9.515625 -10.5 C 8.316406 -10.5 7.382812 -10.191406 6.71875 -9.578125 C 6.050781 -8.960938 5.71875 -8.101562 5.71875 -7 L 5.71875 0 L 1.96875 0 L 1.96875 -13.75 L 4.8125 -13.75 L 5.359375 -11.4375 L 5.546875 -11.4375 C 5.972656 -12.207031 6.546875 -12.828125 7.265625 -13.296875 C 7.992188 -13.773438 8.785156 -14.015625 9.640625 -14.015625 Z M 9.640625 -14.015625 "/></g></g><g transform="translate(278.076589, 371.254576)"><g><path d="M 14.28125 0 L 10.53125 0 L 10.53125 -8.03125 C 10.53125 -9.019531 10.363281 -9.757812 10.03125 -10.25 C 9.695312 -10.75 9.175781 -11 8.46875 -11 C 7.5 -11 6.796875 -10.644531 6.359375 -9.9375 C 5.929688 -9.238281 5.71875 -8.082031 5.71875 -6.46875 L 5.71875 0 L 1.96875 0 L 1.96875 -13.75 L 4.828125 -13.75 L 5.34375 -11.984375 L 5.546875 -11.984375 C 5.910156 -12.617188 6.441406 -13.113281 7.140625 -13.46875 C 7.835938 -13.832031 8.640625 -14.015625 9.546875 -14.015625 C 11.597656 -14.015625 12.988281 -13.335938 13.71875 -11.984375 L 14.0625 -11.984375 C 14.425781 -12.628906 14.96875 -13.128906 15.6875 -13.484375 C 16.40625 -13.835938 17.210938 -14.015625 18.109375 -14.015625 C 19.671875 -14.015625 20.847656 -13.613281 21.640625 -12.8125 C 22.441406 -12.007812 22.84375 -10.726562 22.84375 -8.96875 L 22.84375 0 L 19.09375 0 L 19.09375 -8.03125 C 19.09375 -9.019531 18.925781 -9.757812 18.59375 -10.25 C 18.257812 -10.75 17.734375 -11 17.015625 -11 C 16.097656 -11 15.410156 -10.671875 14.953125 -10.015625 C 14.503906 -9.367188 14.28125 -8.332031 14.28125 -6.90625 Z M 14.28125 0 "/></g></g><g transform="translate(302.80344, 371.254576)"><g><path d="M 7.65625 -11.34375 C 6.863281 -11.34375 6.238281 -11.085938 5.78125 -10.578125 C 5.332031 -10.078125 5.078125 -9.363281 5.015625 -8.4375 L 10.28125 -8.4375 C 10.257812 -9.363281 10.015625 -10.078125 9.546875 -10.578125 C 9.085938 -11.085938 8.457031 -11.34375 7.65625 -11.34375 Z M 8.1875 0.25 C 5.976562 0.25 4.25 -0.359375 3 -1.578125 C 1.75 -2.804688 1.125 -4.539062 1.125 -6.78125 C 1.125 -9.082031 1.703125 -10.863281 2.859375 -12.125 C 4.015625 -13.382812 5.609375 -14.015625 7.640625 -14.015625 C 9.578125 -14.015625 11.085938 -13.457031 12.171875 -12.34375 C 13.253906 -11.238281 13.796875 -9.710938 13.796875 -7.765625 L 13.796875 -5.9375 L 4.9375 -5.9375 C 4.976562 -4.875 5.289062 -4.039062 5.875 -3.4375 C 6.46875 -2.84375 7.296875 -2.546875 8.359375 -2.546875 C 9.191406 -2.546875 9.972656 -2.628906 10.703125 -2.796875 C 11.441406 -2.972656 12.21875 -3.25 13.03125 -3.625 L 13.03125 -0.71875 C 12.375 -0.394531 11.671875 -0.15625 10.921875 0 C 10.171875 0.164062 9.257812 0.25 8.1875 0.25 Z M 8.1875 0.25 "/></g></g><g transform="translate(317.681356, 371.254576)"><g/></g><g transform="translate(324.222721, 371.254576)"><g><path d="M 7.65625 -11.34375 C 6.863281 -11.34375 6.238281 -11.085938 5.78125 -10.578125 C 5.332031 -10.078125 5.078125 -9.363281 5.015625 -8.4375 L 10.28125 -8.4375 C 10.257812 -9.363281 10.015625 -10.078125 9.546875 -10.578125 C 9.085938 -11.085938 8.457031 -11.34375 7.65625 -11.34375 Z M 8.1875 0.25 C 5.976562 0.25 4.25 -0.359375 3 -1.578125 C 1.75 -2.804688 1.125 -4.539062 1.125 -6.78125 C 1.125 -9.082031 1.703125 -10.863281 2.859375 -12.125 C 4.015625 -13.382812 5.609375 -14.015625 7.640625 -14.015625 C 9.578125 -14.015625 11.085938 -13.457031 12.171875 -12.34375 C 13.253906 -11.238281 13.796875 -9.710938 13.796875 -7.765625 L 13.796875 -5.9375 L 4.9375 -5.9375 C 4.976562 -4.875 5.289062 -4.039062 5.875 -3.4375 C 6.46875 -2.84375 7.296875 -2.546875 8.359375 -2.546875 C 9.191406 -2.546875 9.972656 -2.628906 10.703125 -2.796875 C 11.441406 -2.972656 12.21875 -3.25 13.03125 -3.625 L 13.03125 -0.71875 C 12.375 -0.394531 11.671875 -0.15625 10.921875 0 C 10.171875 0.164062 9.257812 0.25 8.1875 0.25 Z M 8.1875 0.25 "/></g></g><g transform="translate(339.100637, 371.254576)"><g><path d="M 14.65625 0 L 10.90625 0 L 10.90625 -8.03125 C 10.90625 -9.019531 10.726562 -9.757812 10.375 -10.25 C 10.019531 -10.75 9.457031 -11 8.6875 -11 C 7.644531 -11 6.890625 -10.648438 6.421875 -9.953125 C 5.953125 -9.253906 5.71875 -8.09375 5.71875 -6.46875 L 5.71875 0 L 1.96875 0 L 1.96875 -13.75 L 4.828125 -13.75 L 5.34375 -11.984375 L 5.546875 -11.984375 C 5.960938 -12.648438 6.535156 -13.15625 7.265625 -13.5 C 8.003906 -13.84375 8.84375 -14.015625 9.78125 -14.015625 C 11.375 -14.015625 12.582031 -13.578125 13.40625 -12.703125 C 14.238281 -11.835938 14.65625 -10.59375 14.65625 -8.96875 Z M 14.65625 0 "/></g></g><g transform="translate(355.650782, 371.254576)"><g/></g><g transform="translate(362.192147, 371.254576)"><g><path d="M 5.71875 0 L 1.96875 0 L 1.96875 -19.140625 L 5.71875 -19.140625 Z M 5.71875 0 "/></g></g><g transform="translate(369.877021, 371.254576)"><g><path d="M 1.8125 -17.296875 C 1.8125 -18.523438 2.488281 -19.140625 3.84375 -19.140625 C 5.207031 -19.140625 5.890625 -18.523438 5.890625 -17.296875 C 5.890625 -16.722656 5.71875 -16.269531 5.375 -15.9375 C 5.039062 -15.613281 4.53125 -15.453125 3.84375 -15.453125 C 2.488281 -15.453125 1.8125 -16.066406 1.8125 -17.296875 Z M 5.71875 0 L 1.96875 0 L 1.96875 -13.75 L 5.71875 -13.75 Z M 5.71875 0 "/></g></g><g transform="translate(377.561895, 371.254576)"><g><path d="M 13.9375 -13.75 L 13.9375 -11.84375 L 11.78125 -11.296875 C 12.175781 -10.679688 12.375 -9.988281 12.375 -9.21875 C 12.375 -7.75 11.859375 -6.597656 10.828125 -5.765625 C 9.796875 -4.941406 8.367188 -4.53125 6.546875 -4.53125 L 5.859375 -4.578125 L 5.3125 -4.640625 C 4.925781 -4.335938 4.734375 -4.007812 4.734375 -3.65625 C 4.734375 -3.113281 5.421875 -2.84375 6.796875 -2.84375 L 9.140625 -2.84375 C 10.648438 -2.84375 11.800781 -2.515625 12.59375 -1.859375 C 13.382812 -1.210938 13.78125 -0.265625 13.78125 0.984375 C 13.78125 2.585938 13.109375 3.832031 11.765625 4.71875 C 10.421875 5.601562 8.492188 6.046875 5.984375 6.046875 C 4.066406 6.046875 2.601562 5.710938 1.59375 5.046875 C 0.582031 4.378906 0.078125 3.441406 0.078125 2.234375 C 0.078125 1.410156 0.332031 0.71875 0.84375 0.15625 C 1.363281 -0.394531 2.125 -0.789062 3.125 -1.03125 C 2.738281 -1.195312 2.398438 -1.460938 2.109375 -1.828125 C 1.828125 -2.203125 1.6875 -2.601562 1.6875 -3.03125 C 1.6875 -3.550781 1.835938 -3.984375 2.140625 -4.328125 C 2.441406 -4.679688 2.878906 -5.023438 3.453125 -5.359375 C 2.734375 -5.671875 2.160156 -6.171875 1.734375 -6.859375 C 1.316406 -7.546875 1.109375 -8.359375 1.109375 -9.296875 C 1.109375 -10.796875 1.59375 -11.957031 2.5625 -12.78125 C 3.539062 -13.601562 4.9375 -14.015625 6.75 -14.015625 C 7.132812 -14.015625 7.59375 -13.976562 8.125 -13.90625 C 8.65625 -13.832031 8.992188 -13.78125 9.140625 -13.75 Z M 3.328125 1.9375 C 3.328125 2.457031 3.570312 2.863281 4.0625 3.15625 C 4.5625 3.457031 5.257812 3.609375 6.15625 3.609375 C 7.5 3.609375 8.550781 3.421875 9.3125 3.046875 C 10.070312 2.679688 10.453125 2.175781 10.453125 1.53125 C 10.453125 1.019531 10.222656 0.664062 9.765625 0.46875 C 9.316406 0.269531 8.625 0.171875 7.6875 0.171875 L 5.75 0.171875 C 5.050781 0.171875 4.472656 0.332031 4.015625 0.65625 C 3.554688 0.976562 3.328125 1.40625 3.328125 1.9375 Z M 4.6875 -9.25 C 4.6875 -8.5 4.851562 -7.90625 5.1875 -7.46875 C 5.53125 -7.039062 6.050781 -6.828125 6.75 -6.828125 C 7.457031 -6.828125 7.972656 -7.039062 8.296875 -7.46875 C 8.628906 -7.90625 8.796875 -8.5 8.796875 -9.25 C 8.796875 -10.90625 8.113281 -11.734375 6.75 -11.734375 C 5.375 -11.734375 4.6875 -10.90625 4.6875 -9.25 Z M 4.6875 -9.25 "/></g></g><g transform="translate(391.788135, 371.254576)"><g><path d="M 14.65625 0 L 10.90625 0 L 10.90625 -8.03125 C 10.90625 -9.019531 10.726562 -9.757812 10.375 -10.25 C 10.019531 -10.75 9.457031 -11 8.6875 -11 C 7.644531 -11 6.890625 -10.648438 6.421875 -9.953125 C 5.953125 -9.253906 5.71875 -8.09375 5.71875 -6.46875 L 5.71875 0 L 1.96875 0 L 1.96875 -13.75 L 4.828125 -13.75 L 5.34375 -11.984375 L 5.546875 -11.984375 C 5.960938 -12.648438 6.535156 -13.15625 7.265625 -13.5 C 8.003906 -13.84375 8.84375 -14.015625 9.78125 -14.015625 C 11.375 -14.015625 12.582031 -13.578125 13.40625 -12.703125 C 14.238281 -11.835938 14.65625 -10.59375 14.65625 -8.96875 Z M 14.65625 0 "/></g></g><g transform="translate(408.338279, 371.254576)"><g><path d="M 7.65625 -11.34375 C 6.863281 -11.34375 6.238281 -11.085938 5.78125 -10.578125 C 5.332031 -10.078125 5.078125 -9.363281 5.015625 -8.4375 L 10.28125 -8.4375 C 10.257812 -9.363281 10.015625 -10.078125 9.546875 -10.578125 C 9.085938 -11.085938 8.457031 -11.34375 7.65625 -11.34375 Z M 8.1875 0.25 C 5.976562 0.25 4.25 -0.359375 3 -1.578125 C 1.75 -2.804688 1.125 -4.539062 1.125 -6.78125 C 1.125 -9.082031 1.703125 -10.863281 2.859375 -12.125 C 4.015625 -13.382812 5.609375 -14.015625 7.640625 -14.015625 C 9.578125 -14.015625 11.085938 -13.457031 12.171875 -12.34375 C 13.253906 -11.238281 13.796875 -9.710938 13.796875 -7.765625 L 13.796875 -5.9375 L 4.9375 -5.9375 C 4.976562 -4.875 5.289062 -4.039062 5.875 -3.4375 C 6.46875 -2.84375 7.296875 -2.546875 8.359375 -2.546875 C 9.191406 -2.546875 9.972656 -2.628906 10.703125 -2.796875 C 11.441406 -2.972656 12.21875 -3.25 13.03125 -3.625 L 13.03125 -0.71875 C 12.375 -0.394531 11.671875 -0.15625 10.921875 0 C 10.171875 0.164062 9.257812 0.25 8.1875 0.25 Z M 8.1875 0.25 "/></g></g></g><g clip-path="url(#04f335d876)"><path stroke-linecap="butt" transform="matrix(0.751002, 0, 0, 0.748312, 45.005566, 130.39852)" fill="none" stroke-linejoin="miter" d="M -0.00220973 -0.000110573 L 327.549894 -0.000110573 L 327.549894 194.437417 L -0.00220973 194.437417 L -0.00220973 -0.000110573 " stroke="#000000" stroke-width="4" stroke-opacity="1" stroke-miterlimit="4"/></g><g clip-path="url(#6d7730525d)"><path stroke-linecap="butt" transform="matrix(0.751002, 0, 0, 0.748312, 309.330572, 130.39852)" fill="none" stroke-linejoin="miter" d="M 0.00194257 -0.000110573 L 327.548845 -0.000110573 L 327.548845 194.437417 L 0.00194257 194.437417 L 0.00194257 -0.000110573 " stroke="#000000" stroke-width="4" stroke-opacity="1" stroke-miterlimit="4"/></g><g fill="#000000" fill-opacity="1"><g transform="translate(90.690225, 252.525171)"><g><path d="M 4.28125 -6.703125 L 5.171875 -6.703125 C 5.992188 -6.703125 6.609375 -6.863281 7.015625 -7.1875 C 7.429688 -7.519531 7.640625 -8 7.640625 -8.625 C 7.640625 -9.25 7.46875 -9.710938 7.125 -10.015625 C 6.78125 -10.316406 6.238281 -10.46875 5.5 -10.46875 L 4.28125 -10.46875 Z M 10.34375 -8.71875 C 10.34375 -7.351562 9.914062 -6.304688 9.0625 -5.578125 C 8.21875 -4.859375 7.007812 -4.5 5.4375 -4.5 L 4.28125 -4.5 L 4.28125 0 L 1.59375 0 L 1.59375 -12.671875 L 5.640625 -12.671875 C 7.179688 -12.671875 8.347656 -12.335938 9.140625 -11.671875 C 9.941406 -11.015625 10.34375 -10.03125 10.34375 -8.71875 Z M 10.34375 -8.71875 "/></g></g><g transform="translate(101.838825, 252.525171)"><g><path d="M 6.796875 -9.875 C 7.148438 -9.875 7.445312 -9.847656 7.6875 -9.796875 L 7.484375 -7.3125 C 7.273438 -7.375 7.015625 -7.40625 6.703125 -7.40625 C 5.859375 -7.40625 5.203125 -7.1875 4.734375 -6.75 C 4.265625 -6.320312 4.03125 -5.71875 4.03125 -4.9375 L 4.03125 0 L 1.390625 0 L 1.390625 -9.6875 L 3.390625 -9.6875 L 3.78125 -8.0625 L 3.90625 -8.0625 C 4.207031 -8.601562 4.613281 -9.039062 5.125 -9.375 C 5.632812 -9.707031 6.191406 -9.875 6.796875 -9.875 Z M 6.796875 -9.875 "/></g></g><g transform="translate(109.901188, 252.525171)"><g><path d="M 3.5 -4.859375 C 3.5 -3.898438 3.65625 -3.175781 3.96875 -2.6875 C 4.28125 -2.195312 4.789062 -1.953125 5.5 -1.953125 C 6.207031 -1.953125 6.710938 -2.195312 7.015625 -2.6875 C 7.328125 -3.175781 7.484375 -3.898438 7.484375 -4.859375 C 7.484375 -5.816406 7.328125 -6.535156 7.015625 -7.015625 C 6.703125 -7.492188 6.191406 -7.734375 5.484375 -7.734375 C 4.773438 -7.734375 4.265625 -7.492188 3.953125 -7.015625 C 3.648438 -6.546875 3.5 -5.828125 3.5 -4.859375 Z M 10.1875 -4.859375 C 10.1875 -3.285156 9.769531 -2.050781 8.9375 -1.15625 C 8.113281 -0.269531 6.957031 0.171875 5.46875 0.171875 C 4.539062 0.171875 3.71875 -0.03125 3 -0.4375 C 2.289062 -0.84375 1.742188 -1.425781 1.359375 -2.1875 C 0.984375 -2.957031 0.796875 -3.847656 0.796875 -4.859375 C 0.796875 -6.441406 1.207031 -7.671875 2.03125 -8.546875 C 2.863281 -9.429688 4.023438 -9.875 5.515625 -9.875 C 6.453125 -9.875 7.273438 -9.671875 7.984375 -9.265625 C 8.691406 -8.859375 9.234375 -8.273438 9.609375 -7.515625 C 9.992188 -6.765625 10.1875 -5.878906 10.1875 -4.859375 Z M 10.1875 -4.859375 "/></g></g><g transform="translate(120.893743, 252.525171)"><g><path d="M 0.609375 4.265625 C -0.0664062 4.265625 -0.648438 4.191406 -1.140625 4.046875 L -1.140625 1.96875 C -0.734375 2.070312 -0.316406 2.125 0.109375 2.125 C 0.546875 2.125 0.867188 2 1.078125 1.75 C 1.285156 1.507812 1.390625 1.144531 1.390625 0.65625 L 1.390625 -9.6875 L 4.03125 -9.6875 L 4.03125 1.046875 C 4.03125 2.078125 3.734375 2.867188 3.140625 3.421875 C 2.546875 3.984375 1.703125 4.265625 0.609375 4.265625 Z M 1.28125 -12.1875 C 1.28125 -13.050781 1.757812 -13.484375 2.71875 -13.484375 C 3.675781 -13.484375 4.15625 -13.050781 4.15625 -12.1875 C 4.15625 -11.78125 4.035156 -11.460938 3.796875 -11.234375 C 3.554688 -11.003906 3.195312 -10.890625 2.71875 -10.890625 C 1.757812 -10.890625 1.28125 -11.320312 1.28125 -12.1875 Z M 1.28125 -12.1875 "/></g></g><g transform="translate(126.311998, 252.525171)"><g><path d="M 5.40625 -7.984375 C 4.84375 -7.984375 4.398438 -7.804688 4.078125 -7.453125 C 3.765625 -7.097656 3.582031 -6.597656 3.53125 -5.953125 L 7.25 -5.953125 C 7.238281 -6.597656 7.066406 -7.097656 6.734375 -7.453125 C 6.398438 -7.804688 5.957031 -7.984375 5.40625 -7.984375 Z M 5.765625 0.171875 C 4.210938 0.171875 2.992188 -0.253906 2.109375 -1.109375 C 1.234375 -1.972656 0.796875 -3.195312 0.796875 -4.78125 C 0.796875 -6.40625 1.203125 -7.660156 2.015625 -8.546875 C 2.828125 -9.429688 3.945312 -9.875 5.375 -9.875 C 6.75 -9.875 7.816406 -9.484375 8.578125 -8.703125 C 9.335938 -7.921875 9.71875 -6.84375 9.71875 -5.46875 L 9.71875 -4.1875 L 3.46875 -4.1875 C 3.5 -3.4375 3.722656 -2.847656 4.140625 -2.421875 C 4.554688 -2.003906 5.140625 -1.796875 5.890625 -1.796875 C 6.472656 -1.796875 7.023438 -1.851562 7.546875 -1.96875 C 8.066406 -2.09375 8.609375 -2.289062 9.171875 -2.5625 L 9.171875 -0.515625 C 8.710938 -0.285156 8.21875 -0.113281 7.6875 0 C 7.164062 0.113281 6.523438 0.171875 5.765625 0.171875 Z M 5.765625 0.171875 "/></g></g><g transform="translate(136.801738, 252.525171)"><g><path d="M 5.46875 -1.9375 C 5.925781 -1.9375 6.484375 -2.035156 7.140625 -2.234375 L 7.140625 -0.265625 C 6.472656 0.0234375 5.660156 0.171875 4.703125 0.171875 C 3.648438 0.171875 2.878906 -0.09375 2.390625 -0.625 C 1.910156 -1.164062 1.671875 -1.96875 1.671875 -3.03125 L 1.671875 -7.703125 L 0.40625 -7.703125 L 0.40625 -8.828125 L 1.859375 -9.703125 L 2.625 -11.75 L 4.3125 -11.75 L 4.3125 -9.6875 L 7.03125 -9.6875 L 7.03125 -7.703125 L 4.3125 -7.703125 L 4.3125 -3.03125 C 4.3125 -2.65625 4.414062 -2.378906 4.625 -2.203125 C 4.84375 -2.023438 5.125 -1.9375 5.46875 -1.9375 Z M 5.46875 -1.9375 "/></g></g><g transform="translate(144.508664, 252.525171)"><g/></g><g transform="translate(149.120682, 252.525171)"><g><path d="M 5.40625 -7.984375 C 4.84375 -7.984375 4.398438 -7.804688 4.078125 -7.453125 C 3.765625 -7.097656 3.582031 -6.597656 3.53125 -5.953125 L 7.25 -5.953125 C 7.238281 -6.597656 7.066406 -7.097656 6.734375 -7.453125 C 6.398438 -7.804688 5.957031 -7.984375 5.40625 -7.984375 Z M 5.765625 0.171875 C 4.210938 0.171875 2.992188 -0.253906 2.109375 -1.109375 C 1.234375 -1.972656 0.796875 -3.195312 0.796875 -4.78125 C 0.796875 -6.40625 1.203125 -7.660156 2.015625 -8.546875 C 2.828125 -9.429688 3.945312 -9.875 5.375 -9.875 C 6.75 -9.875 7.816406 -9.484375 8.578125 -8.703125 C 9.335938 -7.921875 9.71875 -6.84375 9.71875 -5.46875 L 9.71875 -4.1875 L 3.46875 -4.1875 C 3.5 -3.4375 3.722656 -2.847656 4.140625 -2.421875 C 4.554688 -2.003906 5.140625 -1.796875 5.890625 -1.796875 C 6.472656 -1.796875 7.023438 -1.851562 7.546875 -1.96875 C 8.066406 -2.09375 8.609375 -2.289062 9.171875 -2.5625 L 9.171875 -0.515625 C 8.710938 -0.285156 8.21875 -0.113281 7.6875 0 C 7.164062 0.113281 6.523438 0.171875 5.765625 0.171875 Z M 3.875 -10.75 L 3.875 -10.984375 C 4.875 -12.140625 5.554688 -13.007812 5.921875 -13.59375 L 8.875 -13.59375 L 8.875 -13.421875 C 8.570312 -13.117188 8.054688 -12.671875 7.328125 -12.078125 C 6.609375 -11.484375 6.046875 -11.039062 5.640625 -10.75 Z M 3.875 -10.75 "/></g></g><g transform="translate(159.610423, 252.525171)"><g><path d="M 5.328125 0.171875 C 2.304688 0.171875 0.796875 -1.484375 0.796875 -4.796875 C 0.796875 -6.441406 1.207031 -7.695312 2.03125 -8.5625 C 2.851562 -9.4375 4.03125 -9.875 5.5625 -9.875 C 6.675781 -9.875 7.679688 -9.65625 8.578125 -9.21875 L 7.796875 -7.171875 C 7.378906 -7.335938 6.988281 -7.472656 6.625 -7.578125 C 6.269531 -7.679688 5.914062 -7.734375 5.5625 -7.734375 C 4.1875 -7.734375 3.5 -6.757812 3.5 -4.8125 C 3.5 -2.914062 4.1875 -1.96875 5.5625 -1.96875 C 6.0625 -1.96875 6.53125 -2.035156 6.96875 -2.171875 C 7.40625 -2.304688 7.835938 -2.519531 8.265625 -2.8125 L 8.265625 -0.546875 C 7.835938 -0.273438 7.40625 -0.0859375 6.96875 0.015625 C 6.53125 0.117188 5.984375 0.171875 5.328125 0.171875 Z M 5.328125 0.171875 "/></g></g><g transform="translate(168.739098, 252.525171)"><g><path d="M 3.5 -4.859375 C 3.5 -3.898438 3.65625 -3.175781 3.96875 -2.6875 C 4.28125 -2.195312 4.789062 -1.953125 5.5 -1.953125 C 6.207031 -1.953125 6.710938 -2.195312 7.015625 -2.6875 C 7.328125 -3.175781 7.484375 -3.898438 7.484375 -4.859375 C 7.484375 -5.816406 7.328125 -6.535156 7.015625 -7.015625 C 6.703125 -7.492188 6.191406 -7.734375 5.484375 -7.734375 C 4.773438 -7.734375 4.265625 -7.492188 3.953125 -7.015625 C 3.648438 -6.546875 3.5 -5.828125 3.5 -4.859375 Z M 10.1875 -4.859375 C 10.1875 -3.285156 9.769531 -2.050781 8.9375 -1.15625 C 8.113281 -0.269531 6.957031 0.171875 5.46875 0.171875 C 4.539062 0.171875 3.71875 -0.03125 3 -0.4375 C 2.289062 -0.84375 1.742188 -1.425781 1.359375 -2.1875 C 0.984375 -2.957031 0.796875 -3.847656 0.796875 -4.859375 C 0.796875 -6.441406 1.207031 -7.671875 2.03125 -8.546875 C 2.863281 -9.429688 4.023438 -9.875 5.515625 -9.875 C 6.453125 -9.875 7.273438 -9.671875 7.984375 -9.265625 C 8.691406 -8.859375 9.234375 -8.273438 9.609375 -7.515625 C 9.992188 -6.765625 10.1875 -5.878906 10.1875 -4.859375 Z M 10.1875 -4.859375 "/></g></g><g transform="translate(179.731653, 252.525171)"><g><path d="M 4.03125 0 L 1.390625 0 L 1.390625 -13.484375 L 4.03125 -13.484375 Z M 4.03125 0 "/></g></g><g transform="translate(185.149908, 252.525171)"><g><path d="M 3.5 -4.859375 C 3.5 -3.898438 3.65625 -3.175781 3.96875 -2.6875 C 4.28125 -2.195312 4.789062 -1.953125 5.5 -1.953125 C 6.207031 -1.953125 6.710938 -2.195312 7.015625 -2.6875 C 7.328125 -3.175781 7.484375 -3.898438 7.484375 -4.859375 C 7.484375 -5.816406 7.328125 -6.535156 7.015625 -7.015625 C 6.703125 -7.492188 6.191406 -7.734375 5.484375 -7.734375 C 4.773438 -7.734375 4.265625 -7.492188 3.953125 -7.015625 C 3.648438 -6.546875 3.5 -5.828125 3.5 -4.859375 Z M 10.1875 -4.859375 C 10.1875 -3.285156 9.769531 -2.050781 8.9375 -1.15625 C 8.113281 -0.269531 6.957031 0.171875 5.46875 0.171875 C 4.539062 0.171875 3.71875 -0.03125 3 -0.4375 C 2.289062 -0.84375 1.742188 -1.425781 1.359375 -2.1875 C 0.984375 -2.957031 0.796875 -3.847656 0.796875 -4.859375 C 0.796875 -6.441406 1.207031 -7.671875 2.03125 -8.546875 C 2.863281 -9.429688 4.023438 -9.875 5.515625 -9.875 C 6.453125 -9.875 7.273438 -9.671875 7.984375 -9.265625 C 8.691406 -8.859375 9.234375 -8.273438 9.609375 -7.515625 C 9.992188 -6.765625 10.1875 -5.878906 10.1875 -4.859375 Z M 10.1875 -4.859375 "/></g></g><g transform="translate(196.142463, 252.525171)"><g><path d="M 9.8125 -9.6875 L 9.8125 -8.34375 L 8.296875 -7.953125 C 8.578125 -7.523438 8.71875 -7.039062 8.71875 -6.5 C 8.71875 -5.457031 8.351562 -4.644531 7.625 -4.0625 C 6.90625 -3.488281 5.898438 -3.203125 4.609375 -3.203125 L 4.140625 -3.21875 L 3.75 -3.265625 C 3.476562 -3.054688 3.34375 -2.828125 3.34375 -2.578125 C 3.34375 -2.191406 3.828125 -2 4.796875 -2 L 6.4375 -2 C 7.5 -2 8.304688 -1.769531 8.859375 -1.3125 C 9.421875 -0.851562 9.703125 -0.1875 9.703125 0.6875 C 9.703125 1.820312 9.226562 2.703125 8.28125 3.328125 C 7.34375 3.953125 5.988281 4.265625 4.21875 4.265625 C 2.863281 4.265625 1.828125 4.023438 1.109375 3.546875 C 0.398438 3.078125 0.046875 2.421875 0.046875 1.578125 C 0.046875 0.992188 0.226562 0.503906 0.59375 0.109375 C 0.957031 -0.285156 1.492188 -0.566406 2.203125 -0.734375 C 1.929688 -0.847656 1.691406 -1.035156 1.484375 -1.296875 C 1.285156 -1.554688 1.1875 -1.832031 1.1875 -2.125 C 1.1875 -2.5 1.289062 -2.804688 1.5 -3.046875 C 1.71875 -3.296875 2.03125 -3.539062 2.4375 -3.78125 C 1.925781 -4 1.519531 -4.347656 1.21875 -4.828125 C 0.925781 -5.316406 0.78125 -5.890625 0.78125 -6.546875 C 0.78125 -7.609375 1.125 -8.425781 1.8125 -9 C 2.5 -9.582031 3.484375 -9.875 4.765625 -9.875 C 5.035156 -9.875 5.351562 -9.847656 5.71875 -9.796875 C 6.09375 -9.742188 6.332031 -9.707031 6.4375 -9.6875 Z M 2.34375 1.375 C 2.34375 1.738281 2.515625 2.023438 2.859375 2.234375 C 3.210938 2.441406 3.703125 2.546875 4.328125 2.546875 C 5.273438 2.546875 6.015625 2.414062 6.546875 2.15625 C 7.085938 1.894531 7.359375 1.535156 7.359375 1.078125 C 7.359375 0.710938 7.195312 0.460938 6.875 0.328125 C 6.5625 0.191406 6.078125 0.125 5.421875 0.125 L 4.046875 0.125 C 3.554688 0.125 3.148438 0.238281 2.828125 0.46875 C 2.503906 0.695312 2.34375 1 2.34375 1.375 Z M 3.296875 -6.515625 C 3.296875 -5.992188 3.414062 -5.578125 3.65625 -5.265625 C 3.894531 -4.960938 4.265625 -4.8125 4.765625 -4.8125 C 5.253906 -4.8125 5.613281 -4.960938 5.84375 -5.265625 C 6.082031 -5.578125 6.203125 -5.992188 6.203125 -6.515625 C 6.203125 -7.679688 5.722656 -8.265625 4.765625 -8.265625 C 3.785156 -8.265625 3.296875 -7.679688 3.296875 -6.515625 Z M 3.296875 -6.515625 "/></g></g><g transform="translate(206.172736, 252.525171)"><g><path d="M 1.28125 -12.1875 C 1.28125 -13.050781 1.757812 -13.484375 2.71875 -13.484375 C 3.675781 -13.484375 4.15625 -13.050781 4.15625 -12.1875 C 4.15625 -11.78125 4.035156 -11.460938 3.796875 -11.234375 C 3.554688 -11.003906 3.195312 -10.890625 2.71875 -10.890625 C 1.757812 -10.890625 1.28125 -11.320312 1.28125 -12.1875 Z M 4.03125 0 L 1.390625 0 L 1.390625 -9.6875 L 4.03125 -9.6875 Z M 4.03125 0 "/></g></g><g transform="translate(211.59099, 252.525171)"><g><path d="M 5.40625 -1.890625 C 6.070312 -1.890625 6.5625 -2.082031 6.875 -2.46875 C 7.1875 -2.851562 7.359375 -3.523438 7.390625 -4.484375 L 7.390625 -4.8125 C 7.390625 -5.851562 7.226562 -6.597656 6.90625 -7.046875 C 6.582031 -7.492188 6.066406 -7.71875 5.359375 -7.71875 C 4.117188 -7.71875 3.5 -6.742188 3.5 -4.796875 C 3.5 -3.828125 3.648438 -3.097656 3.953125 -2.609375 C 4.265625 -2.128906 4.75 -1.890625 5.40625 -1.890625 Z M 4.453125 0.171875 C 3.304688 0.171875 2.410156 -0.265625 1.765625 -1.140625 C 1.117188 -2.023438 0.796875 -3.253906 0.796875 -4.828125 C 0.796875 -6.410156 1.125 -7.644531 1.78125 -8.53125 C 2.445312 -9.425781 3.351562 -9.875 4.5 -9.875 C 5.113281 -9.875 5.648438 -9.753906 6.109375 -9.515625 C 6.566406 -9.285156 6.96875 -8.929688 7.3125 -8.453125 L 7.390625 -8.453125 L 7.625 -9.6875 L 9.859375 -9.6875 L 9.859375 4.265625 L 7.203125 4.265625 L 7.203125 0.203125 C 7.203125 -0.148438 7.238281 -0.632812 7.3125 -1.25 L 7.203125 -1.25 C 6.921875 -0.789062 6.546875 -0.4375 6.078125 -0.1875 C 5.609375 0.0507812 5.066406 0.171875 4.453125 0.171875 Z M 4.453125 0.171875 "/></g></g><g transform="translate(222.826283, 252.525171)"><g><path d="M 8.25 0 L 7.890625 -1.234375 L 7.75 -1.234375 C 7.46875 -0.785156 7.066406 -0.4375 6.546875 -0.1875 C 6.023438 0.0507812 5.4375 0.171875 4.78125 0.171875 C 3.632812 0.171875 2.769531 -0.128906 2.1875 -0.734375 C 1.613281 -1.347656 1.328125 -2.226562 1.328125 -3.375 L 1.328125 -9.6875 L 3.984375 -9.6875 L 3.984375 -4.03125 C 3.984375 -3.332031 4.101562 -2.804688 4.34375 -2.453125 C 4.59375 -2.109375 4.988281 -1.9375 5.53125 -1.9375 C 6.269531 -1.9375 6.804688 -2.179688 7.140625 -2.671875 C 7.472656 -3.171875 7.640625 -3.988281 7.640625 -5.125 L 7.640625 -9.6875 L 10.28125 -9.6875 L 10.28125 0 Z M 8.25 0 "/></g></g><g transform="translate(234.495036, 252.525171)"><g><path d="M 5.40625 -7.984375 C 4.84375 -7.984375 4.398438 -7.804688 4.078125 -7.453125 C 3.765625 -7.097656 3.582031 -6.597656 3.53125 -5.953125 L 7.25 -5.953125 C 7.238281 -6.597656 7.066406 -7.097656 6.734375 -7.453125 C 6.398438 -7.804688 5.957031 -7.984375 5.40625 -7.984375 Z M 5.765625 0.171875 C 4.210938 0.171875 2.992188 -0.253906 2.109375 -1.109375 C 1.234375 -1.972656 0.796875 -3.195312 0.796875 -4.78125 C 0.796875 -6.40625 1.203125 -7.660156 2.015625 -8.546875 C 2.828125 -9.429688 3.945312 -9.875 5.375 -9.875 C 6.75 -9.875 7.816406 -9.484375 8.578125 -8.703125 C 9.335938 -7.921875 9.71875 -6.84375 9.71875 -5.46875 L 9.71875 -4.1875 L 3.46875 -4.1875 C 3.5 -3.4375 3.722656 -2.847656 4.140625 -2.421875 C 4.554688 -2.003906 5.140625 -1.796875 5.890625 -1.796875 C 6.472656 -1.796875 7.023438 -1.851562 7.546875 -1.96875 C 8.066406 -2.09375 8.609375 -2.289062 9.171875 -2.5625 L 9.171875 -0.515625 C 8.710938 -0.285156 8.21875 -0.113281 7.6875 0 C 7.164062 0.113281 6.523438 0.171875 5.765625 0.171875 Z M 5.765625 0.171875 "/></g></g></g><g fill="#000000" fill-opacity="1"><g transform="translate(375.236144, 252.525171)"><g><path d="M 6.984375 -10.609375 C 5.960938 -10.609375 5.175781 -10.226562 4.625 -9.46875 C 4.070312 -8.71875 3.796875 -7.660156 3.796875 -6.296875 C 3.796875 -3.472656 4.859375 -2.0625 6.984375 -2.0625 C 7.867188 -2.0625 8.941406 -2.285156 10.203125 -2.734375 L 10.203125 -0.484375 C 9.171875 -0.046875 8.007812 0.171875 6.71875 0.171875 C 4.875 0.171875 3.460938 -0.382812 2.484375 -1.5 C 1.515625 -2.625 1.03125 -4.226562 1.03125 -6.3125 C 1.03125 -7.632812 1.269531 -8.789062 1.75 -9.78125 C 2.226562 -10.769531 2.914062 -11.53125 3.8125 -12.0625 C 4.71875 -12.59375 5.773438 -12.859375 6.984375 -12.859375 C 8.210938 -12.859375 9.445312 -12.554688 10.6875 -11.953125 L 9.8125 -9.78125 C 9.34375 -10 8.867188 -10.191406 8.390625 -10.359375 C 7.910156 -10.523438 7.441406 -10.609375 6.984375 -10.609375 Z M 6.984375 -10.609375 "/></g></g><g transform="translate(386.54946, 252.525171)"><g><path d="M 3.5 -4.859375 C 3.5 -3.898438 3.65625 -3.175781 3.96875 -2.6875 C 4.28125 -2.195312 4.789062 -1.953125 5.5 -1.953125 C 6.207031 -1.953125 6.710938 -2.195312 7.015625 -2.6875 C 7.328125 -3.175781 7.484375 -3.898438 7.484375 -4.859375 C 7.484375 -5.816406 7.328125 -6.535156 7.015625 -7.015625 C 6.703125 -7.492188 6.191406 -7.734375 5.484375 -7.734375 C 4.773438 -7.734375 4.265625 -7.492188 3.953125 -7.015625 C 3.648438 -6.546875 3.5 -5.828125 3.5 -4.859375 Z M 10.1875 -4.859375 C 10.1875 -3.285156 9.769531 -2.050781 8.9375 -1.15625 C 8.113281 -0.269531 6.957031 0.171875 5.46875 0.171875 C 4.539062 0.171875 3.71875 -0.03125 3 -0.4375 C 2.289062 -0.84375 1.742188 -1.425781 1.359375 -2.1875 C 0.984375 -2.957031 0.796875 -3.847656 0.796875 -4.859375 C 0.796875 -6.441406 1.207031 -7.671875 2.03125 -8.546875 C 2.863281 -9.429688 4.023438 -9.875 5.515625 -9.875 C 6.453125 -9.875 7.273438 -9.671875 7.984375 -9.265625 C 8.691406 -8.859375 9.234375 -8.273438 9.609375 -7.515625 C 9.992188 -6.765625 10.1875 -5.878906 10.1875 -4.859375 Z M 10.1875 -4.859375 "/></g></g><g transform="translate(397.542015, 252.525171)"><g><path d="M 10.328125 0 L 7.6875 0 L 7.6875 -5.65625 C 7.6875 -6.351562 7.5625 -6.875 7.3125 -7.21875 C 7.0625 -7.570312 6.664062 -7.75 6.125 -7.75 C 5.382812 -7.75 4.847656 -7.503906 4.515625 -7.015625 C 4.191406 -6.523438 4.03125 -5.707031 4.03125 -4.5625 L 4.03125 0 L 1.390625 0 L 1.390625 -9.6875 L 3.40625 -9.6875 L 3.765625 -8.453125 L 3.90625 -8.453125 C 4.195312 -8.921875 4.601562 -9.273438 5.125 -9.515625 C 5.644531 -9.753906 6.234375 -9.875 6.890625 -9.875 C 8.015625 -9.875 8.867188 -9.566406 9.453125 -8.953125 C 10.035156 -8.347656 10.328125 -7.46875 10.328125 -6.3125 Z M 10.328125 0 "/></g></g><g transform="translate(409.210768, 252.525171)"><g><path d="M 5.46875 -1.9375 C 5.925781 -1.9375 6.484375 -2.035156 7.140625 -2.234375 L 7.140625 -0.265625 C 6.472656 0.0234375 5.660156 0.171875 4.703125 0.171875 C 3.648438 0.171875 2.878906 -0.09375 2.390625 -0.625 C 1.910156 -1.164062 1.671875 -1.96875 1.671875 -3.03125 L 1.671875 -7.703125 L 0.40625 -7.703125 L 0.40625 -8.828125 L 1.859375 -9.703125 L 2.625 -11.75 L 4.3125 -11.75 L 4.3125 -9.6875 L 7.03125 -9.6875 L 7.03125 -7.703125 L 4.3125 -7.703125 L 4.3125 -3.03125 C 4.3125 -2.65625 4.414062 -2.378906 4.625 -2.203125 C 4.84375 -2.023438 5.125 -1.9375 5.46875 -1.9375 Z M 5.46875 -1.9375 "/></g></g><g transform="translate(416.917693, 252.525171)"><g><path d="M 6.796875 -9.875 C 7.148438 -9.875 7.445312 -9.847656 7.6875 -9.796875 L 7.484375 -7.3125 C 7.273438 -7.375 7.015625 -7.40625 6.703125 -7.40625 C 5.859375 -7.40625 5.203125 -7.1875 4.734375 -6.75 C 4.265625 -6.320312 4.03125 -5.71875 4.03125 -4.9375 L 4.03125 0 L 1.390625 0 L 1.390625 -9.6875 L 3.390625 -9.6875 L 3.78125 -8.0625 L 3.90625 -8.0625 C 4.207031 -8.601562 4.613281 -9.039062 5.125 -9.375 C 5.632812 -9.707031 6.191406 -9.875 6.796875 -9.875 Z M 6.796875 -9.875 "/></g></g><g transform="translate(424.980056, 252.525171)"><g><path d="M 1.28125 -12.1875 C 1.28125 -13.050781 1.757812 -13.484375 2.71875 -13.484375 C 3.675781 -13.484375 4.15625 -13.050781 4.15625 -12.1875 C 4.15625 -11.78125 4.035156 -11.460938 3.796875 -11.234375 C 3.554688 -11.003906 3.195312 -10.890625 2.71875 -10.890625 C 1.757812 -10.890625 1.28125 -11.320312 1.28125 -12.1875 Z M 4.03125 0 L 1.390625 0 L 1.390625 -9.6875 L 4.03125 -9.6875 Z M 4.03125 0 "/></g></g><g transform="translate(430.39831, 252.525171)"><g><path d="M 6.78125 -9.875 C 7.925781 -9.875 8.820312 -9.425781 9.46875 -8.53125 C 10.113281 -7.632812 10.4375 -6.410156 10.4375 -4.859375 C 10.4375 -3.265625 10.101562 -2.023438 9.4375 -1.140625 C 8.769531 -0.265625 7.859375 0.171875 6.703125 0.171875 C 5.566406 0.171875 4.675781 -0.238281 4.03125 -1.0625 L 3.84375 -1.0625 L 3.40625 0 L 1.390625 0 L 1.390625 -13.484375 L 4.03125 -13.484375 L 4.03125 -10.34375 C 4.03125 -9.945312 3.992188 -9.3125 3.921875 -8.4375 L 4.03125 -8.4375 C 4.644531 -9.394531 5.5625 -9.875 6.78125 -9.875 Z M 5.921875 -7.75 C 5.273438 -7.75 4.800781 -7.546875 4.5 -7.140625 C 4.195312 -6.742188 4.039062 -6.085938 4.03125 -5.171875 L 4.03125 -4.875 C 4.03125 -3.832031 4.179688 -3.085938 4.484375 -2.640625 C 4.796875 -2.191406 5.289062 -1.96875 5.96875 -1.96875 C 6.507812 -1.96875 6.9375 -2.21875 7.25 -2.71875 C 7.570312 -3.21875 7.734375 -3.941406 7.734375 -4.890625 C 7.734375 -5.847656 7.570312 -6.5625 7.25 -7.03125 C 6.925781 -7.507812 6.484375 -7.75 5.921875 -7.75 Z M 5.921875 -7.75 "/></g></g><g transform="translate(441.633603, 252.525171)"><g><path d="M 8.25 0 L 7.890625 -1.234375 L 7.75 -1.234375 C 7.46875 -0.785156 7.066406 -0.4375 6.546875 -0.1875 C 6.023438 0.0507812 5.4375 0.171875 4.78125 0.171875 C 3.632812 0.171875 2.769531 -0.128906 2.1875 -0.734375 C 1.613281 -1.347656 1.328125 -2.226562 1.328125 -3.375 L 1.328125 -9.6875 L 3.984375 -9.6875 L 3.984375 -4.03125 C 3.984375 -3.332031 4.101562 -2.804688 4.34375 -2.453125 C 4.59375 -2.109375 4.988281 -1.9375 5.53125 -1.9375 C 6.269531 -1.9375 6.804688 -2.179688 7.140625 -2.671875 C 7.472656 -3.171875 7.640625 -3.988281 7.640625 -5.125 L 7.640625 -9.6875 L 10.28125 -9.6875 L 10.28125 0 Z M 8.25 0 "/></g></g><g transform="translate(453.302356, 252.525171)"><g><path d="M 5.46875 -1.9375 C 5.925781 -1.9375 6.484375 -2.035156 7.140625 -2.234375 L 7.140625 -0.265625 C 6.472656 0.0234375 5.660156 0.171875 4.703125 0.171875 C 3.648438 0.171875 2.878906 -0.09375 2.390625 -0.625 C 1.910156 -1.164062 1.671875 -1.96875 1.671875 -3.03125 L 1.671875 -7.703125 L 0.40625 -7.703125 L 0.40625 -8.828125 L 1.859375 -9.703125 L 2.625 -11.75 L 4.3125 -11.75 L 4.3125 -9.6875 L 7.03125 -9.6875 L 7.03125 -7.703125 L 4.3125 -7.703125 L 4.3125 -3.03125 C 4.3125 -2.65625 4.414062 -2.378906 4.625 -2.203125 C 4.84375 -2.023438 5.125 -1.9375 5.46875 -1.9375 Z M 5.46875 -1.9375 "/></g></g><g transform="translate(461.009281, 252.525171)"><g><path d="M 1.28125 -12.1875 C 1.28125 -13.050781 1.757812 -13.484375 2.71875 -13.484375 C 3.675781 -13.484375 4.15625 -13.050781 4.15625 -12.1875 C 4.15625 -11.78125 4.035156 -11.460938 3.796875 -11.234375 C 3.554688 -11.003906 3.195312 -10.890625 2.71875 -10.890625 C 1.757812 -10.890625 1.28125 -11.320312 1.28125 -12.1875 Z M 4.03125 0 L 1.390625 0 L 1.390625 -9.6875 L 4.03125 -9.6875 Z M 4.03125 0 "/></g></g><g transform="translate(466.427536, 252.525171)"><g><path d="M 3.5 -4.859375 C 3.5 -3.898438 3.65625 -3.175781 3.96875 -2.6875 C 4.28125 -2.195312 4.789062 -1.953125 5.5 -1.953125 C 6.207031 -1.953125 6.710938 -2.195312 7.015625 -2.6875 C 7.328125 -3.175781 7.484375 -3.898438 7.484375 -4.859375 C 7.484375 -5.816406 7.328125 -6.535156 7.015625 -7.015625 C 6.703125 -7.492188 6.191406 -7.734375 5.484375 -7.734375 C 4.773438 -7.734375 4.265625 -7.492188 3.953125 -7.015625 C 3.648438 -6.546875 3.5 -5.828125 3.5 -4.859375 Z M 10.1875 -4.859375 C 10.1875 -3.285156 9.769531 -2.050781 8.9375 -1.15625 C 8.113281 -0.269531 6.957031 0.171875 5.46875 0.171875 C 4.539062 0.171875 3.71875 -0.03125 3 -0.4375 C 2.289062 -0.84375 1.742188 -1.425781 1.359375 -2.1875 C 0.984375 -2.957031 0.796875 -3.847656 0.796875 -4.859375 C 0.796875 -6.441406 1.207031 -7.671875 2.03125 -8.546875 C 2.863281 -9.429688 4.023438 -9.875 5.515625 -9.875 C 6.453125 -9.875 7.273438 -9.671875 7.984375 -9.265625 C 8.691406 -8.859375 9.234375 -8.273438 9.609375 -7.515625 C 9.992188 -6.765625 10.1875 -5.878906 10.1875 -4.859375 Z M 10.1875 -4.859375 "/></g></g><g transform="translate(477.420091, 252.525171)"><g><path d="M 10.328125 0 L 7.6875 0 L 7.6875 -5.65625 C 7.6875 -6.351562 7.5625 -6.875 7.3125 -7.21875 C 7.0625 -7.570312 6.664062 -7.75 6.125 -7.75 C 5.382812 -7.75 4.847656 -7.503906 4.515625 -7.015625 C 4.191406 -6.523438 4.03125 -5.707031 4.03125 -4.5625 L 4.03125 0 L 1.390625 0 L 1.390625 -9.6875 L 3.40625 -9.6875 L 3.765625 -8.453125 L 3.90625 -8.453125 C 4.195312 -8.921875 4.601562 -9.273438 5.125 -9.515625 C 5.644531 -9.753906 6.234375 -9.875 6.890625 -9.875 C 8.015625 -9.875 8.867188 -9.566406 9.453125 -8.953125 C 10.035156 -8.347656 10.328125 -7.46875 10.328125 -6.3125 Z M 10.328125 0 "/></g></g></g><g clip-path="url(#7b3b74ae9d)"><path stroke-linecap="butt" transform="matrix(0.751267, 0, 0, 0.74722, 319.142153, 140.081708)" fill="none" stroke-linejoin="miter" d="M -0.00203418 0.000432216 L 138.763603 0.000432216 L 138.763603 84.312945 L -0.00203418 84.312945 L -0.00203418 0.000432216 " stroke="#000000" stroke-width="4" stroke-opacity="1" stroke-miterlimit="4"/></g><g fill="#000000" fill-opacity="1"><g transform="translate(329.474838, 176.57426)"><g><path d="M 3.046875 0 L 1.140625 0 L 1.140625 -9.109375 L 6.359375 -9.109375 L 6.359375 -7.515625 L 3.046875 -7.515625 L 3.046875 -5.171875 L 6.125 -5.171875 L 6.125 -3.59375 L 3.046875 -3.59375 Z M 3.046875 0 "/></g></g><g transform="translate(336.472396, 176.57426)"><g><path d="M 0.921875 -8.765625 C 0.921875 -9.378906 1.265625 -9.6875 1.953125 -9.6875 C 2.640625 -9.6875 2.984375 -9.378906 2.984375 -8.765625 C 2.984375 -8.460938 2.894531 -8.226562 2.71875 -8.0625 C 2.550781 -7.90625 2.296875 -7.828125 1.953125 -7.828125 C 1.265625 -7.828125 0.921875 -8.140625 0.921875 -8.765625 Z M 2.890625 0 L 1 0 L 1 -6.953125 L 2.890625 -6.953125 Z M 2.890625 0 "/></g></g><g transform="translate(340.363387, 176.57426)"><g><path d="M 7.421875 0 L 5.515625 0 L 5.515625 -4.0625 C 5.515625 -4.5625 5.425781 -4.9375 5.25 -5.1875 C 5.070312 -5.445312 4.789062 -5.578125 4.40625 -5.578125 C 3.875 -5.578125 3.488281 -5.394531 3.25 -5.03125 C 3.007812 -4.675781 2.890625 -4.09375 2.890625 -3.28125 L 2.890625 0 L 1 0 L 1 -6.953125 L 2.453125 -6.953125 L 2.703125 -6.0625 L 2.8125 -6.0625 C 3.019531 -6.40625 3.304688 -6.660156 3.671875 -6.828125 C 4.046875 -7.003906 4.472656 -7.09375 4.953125 -7.09375 C 5.753906 -7.09375 6.363281 -6.875 6.78125 -6.4375 C 7.207031 -6 7.421875 -5.363281 7.421875 -4.53125 Z M 7.421875 0 "/></g></g><g transform="translate(348.743025, 176.57426)"><g><path d="M 5.421875 0 L 5.046875 -0.953125 L 5 -0.953125 C 4.675781 -0.546875 4.34375 -0.265625 4 -0.109375 C 3.664062 0.046875 3.226562 0.125 2.6875 0.125 C 2.019531 0.125 1.492188 -0.0625 1.109375 -0.4375 C 0.722656 -0.820312 0.53125 -1.367188 0.53125 -2.078125 C 0.53125 -2.816406 0.785156 -3.359375 1.296875 -3.703125 C 1.816406 -4.054688 2.597656 -4.253906 3.640625 -4.296875 L 4.859375 -4.328125 L 4.859375 -4.640625 C 4.859375 -5.347656 4.492188 -5.703125 3.765625 -5.703125 C 3.210938 -5.703125 2.5625 -5.53125 1.8125 -5.1875 L 1.1875 -6.46875 C 1.988281 -6.894531 2.875 -7.109375 3.84375 -7.109375 C 4.78125 -7.109375 5.5 -6.90625 6 -6.5 C 6.5 -6.09375 6.75 -5.472656 6.75 -4.640625 L 6.75 0 Z M 4.859375 -3.21875 L 4.125 -3.203125 C 3.570312 -3.179688 3.160156 -3.078125 2.890625 -2.890625 C 2.617188 -2.710938 2.484375 -2.4375 2.484375 -2.0625 C 2.484375 -1.53125 2.789062 -1.265625 3.40625 -1.265625 C 3.84375 -1.265625 4.191406 -1.390625 4.453125 -1.640625 C 4.722656 -1.890625 4.859375 -2.226562 4.859375 -2.65625 Z M 4.859375 -3.21875 "/></g></g><g transform="translate(356.444075, 176.57426)"><g><path d="M 7.421875 0 L 5.515625 0 L 5.515625 -4.0625 C 5.515625 -4.5625 5.425781 -4.9375 5.25 -5.1875 C 5.070312 -5.445312 4.789062 -5.578125 4.40625 -5.578125 C 3.875 -5.578125 3.488281 -5.394531 3.25 -5.03125 C 3.007812 -4.675781 2.890625 -4.09375 2.890625 -3.28125 L 2.890625 0 L 1 0 L 1 -6.953125 L 2.453125 -6.953125 L 2.703125 -6.0625 L 2.8125 -6.0625 C 3.019531 -6.40625 3.304688 -6.660156 3.671875 -6.828125 C 4.046875 -7.003906 4.472656 -7.09375 4.953125 -7.09375 C 5.753906 -7.09375 6.363281 -6.875 6.78125 -6.4375 C 7.207031 -6 7.421875 -5.363281 7.421875 -4.53125 Z M 7.421875 0 "/></g></g><g transform="translate(364.823713, 176.57426)"><g><path d="M 3.828125 0.125 C 1.660156 0.125 0.578125 -1.0625 0.578125 -3.4375 C 0.578125 -4.625 0.867188 -5.53125 1.453125 -6.15625 C 2.046875 -6.78125 2.890625 -7.09375 3.984375 -7.09375 C 4.796875 -7.09375 5.519531 -6.9375 6.15625 -6.625 L 5.59375 -5.15625 C 5.300781 -5.269531 5.023438 -5.363281 4.765625 -5.4375 C 4.503906 -5.519531 4.242188 -5.5625 3.984375 -5.5625 C 3.003906 -5.5625 2.515625 -4.859375 2.515625 -3.453125 C 2.515625 -2.085938 3.003906 -1.40625 3.984375 -1.40625 C 4.347656 -1.40625 4.6875 -1.453125 5 -1.546875 C 5.3125 -1.648438 5.625 -1.804688 5.9375 -2.015625 L 5.9375 -0.390625 C 5.632812 -0.191406 5.320312 -0.0546875 5 0.015625 C 4.6875 0.0859375 4.296875 0.125 3.828125 0.125 Z M 3.828125 0.125 "/></g></g><g transform="translate(371.379254, 176.57426)"><g><path d="M 3.875 -5.734375 C 3.476562 -5.734375 3.164062 -5.601562 2.9375 -5.34375 C 2.707031 -5.09375 2.578125 -4.734375 2.546875 -4.265625 L 5.203125 -4.265625 C 5.191406 -4.734375 5.066406 -5.09375 4.828125 -5.34375 C 4.597656 -5.601562 4.28125 -5.734375 3.875 -5.734375 Z M 4.140625 0.125 C 3.023438 0.125 2.148438 -0.179688 1.515625 -0.796875 C 0.890625 -1.421875 0.578125 -2.300781 0.578125 -3.4375 C 0.578125 -4.601562 0.867188 -5.503906 1.453125 -6.140625 C 2.035156 -6.773438 2.835938 -7.09375 3.859375 -7.09375 C 4.847656 -7.09375 5.613281 -6.8125 6.15625 -6.25 C 6.707031 -5.6875 6.984375 -4.910156 6.984375 -3.921875 L 6.984375 -3 L 2.5 -3 C 2.519531 -2.46875 2.675781 -2.046875 2.96875 -1.734375 C 3.269531 -1.429688 3.691406 -1.28125 4.234375 -1.28125 C 4.648438 -1.28125 5.046875 -1.320312 5.421875 -1.40625 C 5.796875 -1.5 6.1875 -1.644531 6.59375 -1.84375 L 6.59375 -0.375 C 6.257812 -0.207031 5.90625 -0.0820312 5.53125 0 C 5.15625 0.0820312 4.691406 0.125 4.140625 0.125 Z M 4.140625 0.125 "/></g></g><g transform="translate(378.912212, 176.57426)"><g><path d="M 7.234375 0 L 5.328125 0 L 5.328125 -4.0625 C 5.328125 -4.5625 5.242188 -4.9375 5.078125 -5.1875 C 4.910156 -5.445312 4.644531 -5.578125 4.28125 -5.578125 C 3.800781 -5.578125 3.445312 -5.394531 3.21875 -5.03125 C 3 -4.675781 2.890625 -4.09375 2.890625 -3.28125 L 2.890625 0 L 1 0 L 1 -6.953125 L 2.453125 -6.953125 L 2.703125 -6.0625 L 2.8125 -6.0625 C 3 -6.382812 3.265625 -6.632812 3.609375 -6.8125 C 3.960938 -7 4.367188 -7.09375 4.828125 -7.09375 C 5.867188 -7.09375 6.578125 -6.75 6.953125 -6.0625 L 7.109375 -6.0625 C 7.296875 -6.394531 7.570312 -6.648438 7.9375 -6.828125 C 8.300781 -7.003906 8.710938 -7.09375 9.171875 -7.09375 C 9.960938 -7.09375 10.554688 -6.890625 10.953125 -6.484375 C 11.359375 -6.078125 11.5625 -5.425781 11.5625 -4.53125 L 11.5625 0 L 9.65625 0 L 9.65625 -4.0625 C 9.65625 -4.5625 9.570312 -4.9375 9.40625 -5.1875 C 9.238281 -5.445312 8.972656 -5.578125 8.609375 -5.578125 C 8.148438 -5.578125 7.804688 -5.410156 7.578125 -5.078125 C 7.347656 -4.742188 7.234375 -4.21875 7.234375 -3.5 Z M 7.234375 0 "/></g></g><g transform="translate(391.431865, 176.57426)"><g><path d="M 3.875 -5.734375 C 3.476562 -5.734375 3.164062 -5.601562 2.9375 -5.34375 C 2.707031 -5.09375 2.578125 -4.734375 2.546875 -4.265625 L 5.203125 -4.265625 C 5.191406 -4.734375 5.066406 -5.09375 4.828125 -5.34375 C 4.597656 -5.601562 4.28125 -5.734375 3.875 -5.734375 Z M 4.140625 0.125 C 3.023438 0.125 2.148438 -0.179688 1.515625 -0.796875 C 0.890625 -1.421875 0.578125 -2.300781 0.578125 -3.4375 C 0.578125 -4.601562 0.867188 -5.503906 1.453125 -6.140625 C 2.035156 -6.773438 2.835938 -7.09375 3.859375 -7.09375 C 4.847656 -7.09375 5.613281 -6.8125 6.15625 -6.25 C 6.707031 -5.6875 6.984375 -4.910156 6.984375 -3.921875 L 6.984375 -3 L 2.5 -3 C 2.519531 -2.46875 2.675781 -2.046875 2.96875 -1.734375 C 3.269531 -1.429688 3.691406 -1.28125 4.234375 -1.28125 C 4.648438 -1.28125 5.046875 -1.320312 5.421875 -1.40625 C 5.796875 -1.5 6.1875 -1.644531 6.59375 -1.84375 L 6.59375 -0.375 C 6.257812 -0.207031 5.90625 -0.0820312 5.53125 0 C 5.15625 0.0820312 4.691406 0.125 4.140625 0.125 Z M 4.140625 0.125 "/></g></g><g transform="translate(398.964823, 176.57426)"><g><path d="M 7.421875 0 L 5.515625 0 L 5.515625 -4.0625 C 5.515625 -4.5625 5.425781 -4.9375 5.25 -5.1875 C 5.070312 -5.445312 4.789062 -5.578125 4.40625 -5.578125 C 3.875 -5.578125 3.488281 -5.394531 3.25 -5.03125 C 3.007812 -4.675781 2.890625 -4.09375 2.890625 -3.28125 L 2.890625 0 L 1 0 L 1 -6.953125 L 2.453125 -6.953125 L 2.703125 -6.0625 L 2.8125 -6.0625 C 3.019531 -6.40625 3.304688 -6.660156 3.671875 -6.828125 C 4.046875 -7.003906 4.472656 -7.09375 4.953125 -7.09375 C 5.753906 -7.09375 6.363281 -6.875 6.78125 -6.4375 C 7.207031 -6 7.421875 -5.363281 7.421875 -4.53125 Z M 7.421875 0 "/></g></g><g transform="translate(407.344461, 176.57426)"><g><path d="M 3.921875 -1.390625 C 4.253906 -1.390625 4.65625 -1.460938 5.125 -1.609375 L 5.125 -0.1875 C 4.644531 0.0195312 4.0625 0.125 3.375 0.125 C 2.613281 0.125 2.0625 -0.0664062 1.71875 -0.453125 C 1.375 -0.835938 1.203125 -1.410156 1.203125 -2.171875 L 1.203125 -5.53125 L 0.296875 -5.53125 L 0.296875 -6.34375 L 1.34375 -6.96875 L 1.890625 -8.4375 L 3.09375 -8.4375 L 3.09375 -6.953125 L 5.046875 -6.953125 L 5.046875 -5.53125 L 3.09375 -5.53125 L 3.09375 -2.171875 C 3.09375 -1.910156 3.171875 -1.710938 3.328125 -1.578125 C 3.484375 -1.453125 3.679688 -1.390625 3.921875 -1.390625 Z M 3.921875 -1.390625 "/></g></g></g><g clip-path="url(#8ae7e687ed)"><path stroke-linecap="butt" transform="matrix(0.751267, 0, 0, 0.74722, 432.162961, 140.081708)" fill="none" stroke-linejoin="miter" d="M 0.00146592 0.000432216 L 138.761903 0.000432216 L 138.761903 84.312945 L 0.00146592 84.312945 L 0.00146592 0.000432216 " stroke="#000000" stroke-width="4" stroke-opacity="1" stroke-miterlimit="4"/></g><g fill="#000000" fill-opacity="1"><g transform="translate(447.950719, 176.57426)"><g><path d="M 6.34375 -9.109375 L 8.28125 -9.109375 L 5.1875 0 L 3.09375 0 L 0 -9.109375 L 1.953125 -9.109375 L 3.65625 -3.6875 C 3.75 -3.363281 3.847656 -2.988281 3.953125 -2.5625 C 4.054688 -2.144531 4.117188 -1.851562 4.140625 -1.6875 C 4.191406 -2.0625 4.347656 -2.726562 4.609375 -3.6875 Z M 6.34375 -9.109375 "/></g></g><g transform="translate(456.236973, 176.57426)"><g><path d="M 2.515625 -3.5 C 2.515625 -2.800781 2.625 -2.273438 2.84375 -1.921875 C 3.070312 -1.578125 3.441406 -1.40625 3.953125 -1.40625 C 4.460938 -1.40625 4.828125 -1.578125 5.046875 -1.921875 C 5.265625 -2.273438 5.375 -2.800781 5.375 -3.5 C 5.375 -4.1875 5.257812 -4.703125 5.03125 -5.046875 C 4.8125 -5.390625 4.445312 -5.5625 3.9375 -5.5625 C 3.4375 -5.5625 3.070312 -5.390625 2.84375 -5.046875 C 2.625 -4.703125 2.515625 -4.1875 2.515625 -3.5 Z M 7.328125 -3.5 C 7.328125 -2.363281 7.023438 -1.472656 6.421875 -0.828125 C 5.828125 -0.191406 4.992188 0.125 3.921875 0.125 C 3.253906 0.125 2.664062 -0.0195312 2.15625 -0.3125 C 1.644531 -0.601562 1.253906 -1.019531 0.984375 -1.5625 C 0.710938 -2.113281 0.578125 -2.757812 0.578125 -3.5 C 0.578125 -4.632812 0.875 -5.515625 1.46875 -6.140625 C 2.0625 -6.773438 2.894531 -7.09375 3.96875 -7.09375 C 4.632812 -7.09375 5.222656 -6.945312 5.734375 -6.65625 C 6.242188 -6.363281 6.632812 -5.945312 6.90625 -5.40625 C 7.1875 -4.863281 7.328125 -4.226562 7.328125 -3.5 Z M 7.328125 -3.5 "/></g></g><g transform="translate(464.131015, 176.57426)"><g><path d="M 2.890625 0 L 1 0 L 1 -9.6875 L 2.890625 -9.6875 Z M 2.890625 0 "/></g></g><g transform="translate(468.022006, 176.57426)"><g><path d="M 2.515625 -3.5 C 2.515625 -2.800781 2.625 -2.273438 2.84375 -1.921875 C 3.070312 -1.578125 3.441406 -1.40625 3.953125 -1.40625 C 4.460938 -1.40625 4.828125 -1.578125 5.046875 -1.921875 C 5.265625 -2.273438 5.375 -2.800781 5.375 -3.5 C 5.375 -4.1875 5.257812 -4.703125 5.03125 -5.046875 C 4.8125 -5.390625 4.445312 -5.5625 3.9375 -5.5625 C 3.4375 -5.5625 3.070312 -5.390625 2.84375 -5.046875 C 2.625 -4.703125 2.515625 -4.1875 2.515625 -3.5 Z M 7.328125 -3.5 C 7.328125 -2.363281 7.023438 -1.472656 6.421875 -0.828125 C 5.828125 -0.191406 4.992188 0.125 3.921875 0.125 C 3.253906 0.125 2.664062 -0.0195312 2.15625 -0.3125 C 1.644531 -0.601562 1.253906 -1.019531 0.984375 -1.5625 C 0.710938 -2.113281 0.578125 -2.757812 0.578125 -3.5 C 0.578125 -4.632812 0.875 -5.515625 1.46875 -6.140625 C 2.0625 -6.773438 2.894531 -7.09375 3.96875 -7.09375 C 4.632812 -7.09375 5.222656 -6.945312 5.734375 -6.65625 C 6.242188 -6.363281 6.632812 -5.945312 6.90625 -5.40625 C 7.1875 -4.863281 7.328125 -4.226562 7.328125 -3.5 Z M 7.328125 -3.5 "/></g></g><g transform="translate(475.916049, 176.57426)"><g><path d="M 7.421875 0 L 5.515625 0 L 5.515625 -4.0625 C 5.515625 -4.5625 5.425781 -4.9375 5.25 -5.1875 C 5.070312 -5.445312 4.789062 -5.578125 4.40625 -5.578125 C 3.875 -5.578125 3.488281 -5.394531 3.25 -5.03125 C 3.007812 -4.675781 2.890625 -4.09375 2.890625 -3.28125 L 2.890625 0 L 1 0 L 1 -6.953125 L 2.453125 -6.953125 L 2.703125 -6.0625 L 2.8125 -6.0625 C 3.019531 -6.40625 3.304688 -6.660156 3.671875 -6.828125 C 4.046875 -7.003906 4.472656 -7.09375 4.953125 -7.09375 C 5.753906 -7.09375 6.363281 -6.875 6.78125 -6.4375 C 7.207031 -6 7.421875 -5.363281 7.421875 -4.53125 Z M 7.421875 0 "/></g></g><g transform="translate(484.295687, 176.57426)"><g><path d="M 3.921875 -1.390625 C 4.253906 -1.390625 4.65625 -1.460938 5.125 -1.609375 L 5.125 -0.1875 C 4.644531 0.0195312 4.0625 0.125 3.375 0.125 C 2.613281 0.125 2.0625 -0.0664062 1.71875 -0.453125 C 1.375 -0.835938 1.203125 -1.410156 1.203125 -2.171875 L 1.203125 -5.53125 L 0.296875 -5.53125 L 0.296875 -6.34375 L 1.34375 -6.96875 L 1.890625 -8.4375 L 3.09375 -8.4375 L 3.09375 -6.953125 L 5.046875 -6.953125 L 5.046875 -5.53125 L 3.09375 -5.53125 L 3.09375 -2.171875 C 3.09375 -1.910156 3.171875 -1.710938 3.328125 -1.578125 C 3.484375 -1.453125 3.679688 -1.390625 3.921875 -1.390625 Z M 3.921875 -1.390625 "/></g></g><g transform="translate(489.830232, 176.57426)"><g><path d="M 5.421875 0 L 5.046875 -0.953125 L 5 -0.953125 C 4.675781 -0.546875 4.34375 -0.265625 4 -0.109375 C 3.664062 0.046875 3.226562 0.125 2.6875 0.125 C 2.019531 0.125 1.492188 -0.0625 1.109375 -0.4375 C 0.722656 -0.820312 0.53125 -1.367188 0.53125 -2.078125 C 0.53125 -2.816406 0.785156 -3.359375 1.296875 -3.703125 C 1.816406 -4.054688 2.597656 -4.253906 3.640625 -4.296875 L 4.859375 -4.328125 L 4.859375 -4.640625 C 4.859375 -5.347656 4.492188 -5.703125 3.765625 -5.703125 C 3.210938 -5.703125 2.5625 -5.53125 1.8125 -5.1875 L 1.1875 -6.46875 C 1.988281 -6.894531 2.875 -7.109375 3.84375 -7.109375 C 4.78125 -7.109375 5.5 -6.90625 6 -6.5 C 6.5 -6.09375 6.75 -5.472656 6.75 -4.640625 L 6.75 0 Z M 4.859375 -3.21875 L 4.125 -3.203125 C 3.570312 -3.179688 3.160156 -3.078125 2.890625 -2.890625 C 2.617188 -2.710938 2.484375 -2.4375 2.484375 -2.0625 C 2.484375 -1.53125 2.789062 -1.265625 3.40625 -1.265625 C 3.84375 -1.265625 4.191406 -1.390625 4.453125 -1.640625 C 4.722656 -1.890625 4.859375 -2.226562 4.859375 -2.65625 Z M 4.859375 -3.21875 "/></g></g><g transform="translate(497.531281, 176.57426)"><g><path d="M 4.875 -7.09375 C 5.132812 -7.09375 5.347656 -7.070312 5.515625 -7.03125 L 5.375 -5.25 C 5.226562 -5.289062 5.039062 -5.3125 4.8125 -5.3125 C 4.207031 -5.3125 3.734375 -5.15625 3.390625 -4.84375 C 3.054688 -4.539062 2.890625 -4.109375 2.890625 -3.546875 L 2.890625 0 L 1 0 L 1 -6.953125 L 2.4375 -6.953125 L 2.71875 -5.796875 L 2.8125 -5.796875 C 3.019531 -6.179688 3.304688 -6.492188 3.671875 -6.734375 C 4.046875 -6.972656 4.445312 -7.09375 4.875 -7.09375 Z M 4.875 -7.09375 "/></g></g><g transform="translate(503.321076, 176.57426)"><g><path d="M 0.921875 -8.765625 C 0.921875 -9.378906 1.265625 -9.6875 1.953125 -9.6875 C 2.640625 -9.6875 2.984375 -9.378906 2.984375 -8.765625 C 2.984375 -8.460938 2.894531 -8.226562 2.71875 -8.0625 C 2.550781 -7.90625 2.296875 -7.828125 1.953125 -7.828125 C 1.265625 -7.828125 0.921875 -8.140625 0.921875 -8.765625 Z M 2.890625 0 L 1 0 L 1 -6.953125 L 2.890625 -6.953125 Z M 2.890625 0 "/></g></g><g transform="translate(507.212067, 176.57426)"><g><path d="M 5.421875 0 L 5.046875 -0.953125 L 5 -0.953125 C 4.675781 -0.546875 4.34375 -0.265625 4 -0.109375 C 3.664062 0.046875 3.226562 0.125 2.6875 0.125 C 2.019531 0.125 1.492188 -0.0625 1.109375 -0.4375 C 0.722656 -0.820312 0.53125 -1.367188 0.53125 -2.078125 C 0.53125 -2.816406 0.785156 -3.359375 1.296875 -3.703125 C 1.816406 -4.054688 2.597656 -4.253906 3.640625 -4.296875 L 4.859375 -4.328125 L 4.859375 -4.640625 C 4.859375 -5.347656 4.492188 -5.703125 3.765625 -5.703125 C 3.210938 -5.703125 2.5625 -5.53125 1.8125 -5.1875 L 1.1875 -6.46875 C 1.988281 -6.894531 2.875 -7.109375 3.84375 -7.109375 C 4.78125 -7.109375 5.5 -6.90625 6 -6.5 C 6.5 -6.09375 6.75 -5.472656 6.75 -4.640625 L 6.75 0 Z M 4.859375 -3.21875 L 4.125 -3.203125 C 3.570312 -3.179688 3.160156 -3.078125 2.890625 -2.890625 C 2.617188 -2.710938 2.484375 -2.4375 2.484375 -2.0625 C 2.484375 -1.53125 2.789062 -1.265625 3.40625 -1.265625 C 3.84375 -1.265625 4.191406 -1.390625 4.453125 -1.640625 C 4.722656 -1.890625 4.859375 -2.226562 4.859375 -2.65625 Z M 4.859375 -3.21875 "/></g></g><g transform="translate(514.913116, 176.57426)"><g><path d="M 3.921875 -1.390625 C 4.253906 -1.390625 4.65625 -1.460938 5.125 -1.609375 L 5.125 -0.1875 C 4.644531 0.0195312 4.0625 0.125 3.375 0.125 C 2.613281 0.125 2.0625 -0.0664062 1.71875 -0.453125 C 1.375 -0.835938 1.203125 -1.410156 1.203125 -2.171875 L 1.203125 -5.53125 L 0.296875 -5.53125 L 0.296875 -6.34375 L 1.34375 -6.96875 L 1.890625 -8.4375 L 3.09375 -8.4375 L 3.09375 -6.953125 L 5.046875 -6.953125 L 5.046875 -5.53125 L 3.09375 -5.53125 L 3.09375 -2.171875 C 3.09375 -1.910156 3.171875 -1.710938 3.328125 -1.578125 C 3.484375 -1.453125 3.679688 -1.390625 3.921875 -1.390625 Z M 3.921875 -1.390625 "/></g></g></g></svg>