<svg xmlns="http://www.w3.org/2000/svg" xmlns:xlink="http://www.w3.org/1999/xlink" width="800" zoomAndPan="magnify" viewBox="0 0 600 449.999984" height="600" preserveAspectRatio="xMidYMid meet" version="1.0"><defs><g/><clipPath id="856b1bb65f"><path d="M 118.105469 13.65625 L 481.855469 13.65625 L 481.855469 436.65625 L 118.105469 436.65625 Z M 118.105469 13.65625 " clip-rule="nonzero"/></clipPath><clipPath id="e722924a7f"><path d="M 299.980469 13.65625 L 481.855469 119.40625 L 481.855469 330.90625 L 299.980469 436.65625 L 118.105469 330.90625 L 118.105469 119.40625 L 299.980469 13.65625 " clip-rule="nonzero"/></clipPath><clipPath id="c3f97b7b51"><path d="M 132.714844 147.019531 L 277.464844 147.019531 L 277.464844 315.019531 L 132.714844 315.019531 Z M 132.714844 147.019531 " clip-rule="nonzero"/></clipPath><clipPath id="4470c39200"><path d="M 205.089844 147.019531 L 277.464844 189.019531 L 277.464844 273.019531 L 205.089844 315.019531 L 132.714844 273.019531 L 132.714844 189.019531 L 205.089844 147.019531 " clip-rule="nonzero"/></clipPath><clipPath id="a8d2f5b14d"><path d="M 322.886719 150.21875 L 467.632812 150.21875 L 467.632812 318.21875 L 322.886719 318.21875 Z M 322.886719 150.21875 " clip-rule="nonzero"/></clipPath><clipPath id="5589548ebd"><path d="M 395.257812 150.21875 L 467.632812 192.21875 L 467.632812 276.21875 L 395.257812 318.21875 L 322.886719 276.21875 L 322.886719 192.21875 L 395.257812 150.21875 " clip-rule="nonzero"/></clipPath><clipPath id="8cbad7d26b"><path d="M 357.550781 163.941406 L 437.050781 163.941406 L 437.050781 256.191406 L 357.550781 256.191406 Z M 357.550781 163.941406 " clip-rule="nonzero"/></clipPath><clipPath id="01911e1ee5"><path d="M 397.300781 163.941406 L 437.050781 187.003906 L 437.050781 233.128906 L 397.300781 256.191406 L 357.550781 233.128906 L 357.550781 187.003906 L 397.300781 163.941406 " clip-rule="nonzero"/></clipPath><clipPath id="4677d0ecfd"><path d="M 204.980469 189.371094 L 255.230469 189.371094 L 255.230469 247.863281 L 204.980469 247.863281 Z M 204.980469 189.371094 " clip-rule="nonzero"/></clipPath><clipPath id="a4018efba9"><path d="M 230.105469 189.371094 L 255.230469 203.992188 L 255.230469 233.242188 L 230.105469 247.863281 L 204.980469 233.242188 L 204.980469 203.992188 L 230.105469 189.371094 " clip-rule="nonzero"/></clipPath><clipPath id="2f0b652577"><path d="M 144.082031 189.371094 L 194.332031 189.371094 L 194.332031 247.863281 L 144.082031 247.863281 Z M 144.082031 189.371094 " clip-rule="nonzero"/></clipPath><clipPath id="5bc3c0cb0d"><path d="M 169.207031 189.371094 L 194.332031 203.992188 L 194.332031 233.242188 L 169.207031 247.863281 L 144.082031 233.242188 L 144.082031 203.992188 L 169.207031 189.371094 " clip-rule="nonzero"/></clipPath><clipPath id="1695fd37e2"><path d="M 230.171875 29.734375 L 374.921875 29.734375 L 374.921875 197.734375 L 230.171875 197.734375 Z M 230.171875 29.734375 " clip-rule="nonzero"/></clipPath><clipPath id="8c464a7b67"><path d="M 302.546875 29.734375 L 374.921875 71.734375 L 374.921875 155.734375 L 302.546875 197.734375 L 230.171875 155.734375 L 230.171875 71.734375 L 302.546875 29.734375 " clip-rule="nonzero"/></clipPath></defs><g clip-path="url(#856b1bb65f)"><g clip-path="url(#e722924a7f)"><path stroke-linecap="butt" transform="matrix(0.000000000000000046, -0.749439, 0.749927, 0.000000000000000046, 118.106939, 436.655174)" fill="none" stroke-linejoin="miter" d="M 564.420489 242.521503 L 423.315008 485.044967 L 141.104045 485.044967 L -0.00143575 242.521503 L 141.104045 -0.00196088 L 423.315008 -0.00196088 L 564.420489 242.521503 " stroke="#000000" stroke-width="2" stroke-opacity="1" stroke-miterlimit="4"/></g></g><g fill="#000000" fill-opacity="1"><g transform="translate(163.238597, 340.293031)"><g><path d="M 8.875 -13.5 C 7.582031 -13.5 6.582031 -13.015625 5.875 -12.046875 C 5.175781 -11.078125 4.828125 -9.734375 4.828125 -8.015625 C 4.828125 -4.421875 6.175781 -2.625 8.875 -2.625 C 10 -2.625 11.367188 -2.90625 12.984375 -3.46875 L 12.984375 -0.609375 C 11.660156 -0.0546875 10.179688 0.21875 8.546875 0.21875 C 6.203125 0.21875 4.410156 -0.488281 3.171875 -1.90625 C 1.929688 -3.332031 1.3125 -5.375 1.3125 -8.03125 C 1.3125 -9.707031 1.613281 -11.175781 2.21875 -12.4375 C 2.832031 -13.695312 3.707031 -14.660156 4.84375 -15.328125 C 5.988281 -16.003906 7.332031 -16.34375 8.875 -16.34375 C 10.4375 -16.34375 12.003906 -15.960938 13.578125 -15.203125 L 12.484375 -12.421875 C 11.878906 -12.710938 11.269531 -12.960938 10.65625 -13.171875 C 10.050781 -13.390625 9.457031 -13.5 8.875 -13.5 Z M 8.875 -13.5 "/></g></g><g transform="translate(177.617716, 340.293031)"><g><path d="M 4.4375 -6.1875 C 4.4375 -4.96875 4.632812 -4.046875 5.03125 -3.421875 C 5.4375 -2.796875 6.09375 -2.484375 7 -2.484375 C 7.894531 -2.484375 8.535156 -2.789062 8.921875 -3.40625 C 9.316406 -4.03125 9.515625 -4.957031 9.515625 -6.1875 C 9.515625 -7.40625 9.316406 -8.316406 8.921875 -8.921875 C 8.523438 -9.535156 7.875 -9.84375 6.96875 -9.84375 C 6.070312 -9.84375 5.425781 -9.535156 5.03125 -8.921875 C 4.632812 -8.316406 4.4375 -7.40625 4.4375 -6.1875 Z M 12.953125 -6.1875 C 12.953125 -4.175781 12.421875 -2.601562 11.359375 -1.46875 C 10.304688 -0.34375 8.835938 0.21875 6.953125 0.21875 C 5.765625 0.21875 4.71875 -0.0351562 3.8125 -0.546875 C 2.914062 -1.066406 2.222656 -1.8125 1.734375 -2.78125 C 1.253906 -3.75 1.015625 -4.882812 1.015625 -6.1875 C 1.015625 -8.195312 1.539062 -9.757812 2.59375 -10.875 C 3.644531 -11.988281 5.117188 -12.546875 7.015625 -12.546875 C 8.203125 -12.546875 9.242188 -12.285156 10.140625 -11.765625 C 11.046875 -11.253906 11.738281 -10.519531 12.21875 -9.5625 C 12.707031 -8.601562 12.953125 -7.476562 12.953125 -6.1875 Z M 12.953125 -6.1875 "/></g></g><g transform="translate(191.589151, 340.293031)"><g><path d="M 12.796875 0 L 9.4375 0 L 9.4375 -7.1875 C 9.4375 -8.082031 9.285156 -8.75 8.984375 -9.1875 C 8.679688 -9.632812 8.210938 -9.859375 7.578125 -9.859375 C 6.722656 -9.859375 6.097656 -9.539062 5.703125 -8.90625 C 5.316406 -8.28125 5.125 -7.242188 5.125 -5.796875 L 5.125 0 L 1.765625 0 L 1.765625 -12.3125 L 4.328125 -12.3125 L 4.78125 -10.734375 L 4.96875 -10.734375 C 5.300781 -11.304688 5.78125 -11.75 6.40625 -12.0625 C 7.03125 -12.382812 7.742188 -12.546875 8.546875 -12.546875 C 10.390625 -12.546875 11.640625 -11.941406 12.296875 -10.734375 L 12.59375 -10.734375 C 12.925781 -11.304688 13.410156 -11.75 14.046875 -12.0625 C 14.691406 -12.382812 15.421875 -12.546875 16.234375 -12.546875 C 17.628906 -12.546875 18.679688 -12.1875 19.390625 -11.46875 C 20.109375 -10.757812 20.46875 -9.613281 20.46875 -8.03125 L 20.46875 0 L 17.09375 0 L 17.09375 -7.1875 C 17.09375 -8.082031 16.941406 -8.75 16.640625 -9.1875 C 16.347656 -9.632812 15.882812 -9.859375 15.25 -9.859375 C 14.425781 -9.859375 13.8125 -9.5625 13.40625 -8.96875 C 13 -8.382812 12.796875 -7.457031 12.796875 -6.1875 Z M 12.796875 0 "/></g></g><g transform="translate(213.747317, 340.293031)"><g><path d="M 12.796875 0 L 9.4375 0 L 9.4375 -7.1875 C 9.4375 -8.082031 9.285156 -8.75 8.984375 -9.1875 C 8.679688 -9.632812 8.210938 -9.859375 7.578125 -9.859375 C 6.722656 -9.859375 6.097656 -9.539062 5.703125 -8.90625 C 5.316406 -8.28125 5.125 -7.242188 5.125 -5.796875 L 5.125 0 L 1.765625 0 L 1.765625 -12.3125 L 4.328125 -12.3125 L 4.78125 -10.734375 L 4.96875 -10.734375 C 5.300781 -11.304688 5.78125 -11.75 6.40625 -12.0625 C 7.03125 -12.382812 7.742188 -12.546875 8.546875 -12.546875 C 10.390625 -12.546875 11.640625 -11.941406 12.296875 -10.734375 L 12.59375 -10.734375 C 12.925781 -11.304688 13.410156 -11.75 14.046875 -12.0625 C 14.691406 -12.382812 15.421875 -12.546875 16.234375 -12.546875 C 17.628906 -12.546875 18.679688 -12.1875 19.390625 -11.46875 C 20.109375 -10.757812 20.46875 -9.613281 20.46875 -8.03125 L 20.46875 0 L 17.09375 0 L 17.09375 -7.1875 C 17.09375 -8.082031 16.941406 -8.75 16.640625 -9.1875 C 16.347656 -9.632812 15.882812 -9.859375 15.25 -9.859375 C 14.425781 -9.859375 13.8125 -9.5625 13.40625 -8.96875 C 13 -8.382812 12.796875 -7.457031 12.796875 -6.1875 Z M 12.796875 0 "/></g></g><g transform="translate(235.905483, 340.293031)"><g><path d="M 10.484375 0 L 10.03125 -1.578125 L 9.859375 -1.578125 C 9.492188 -1.003906 8.984375 -0.5625 8.328125 -0.25 C 7.671875 0.0625 6.914062 0.21875 6.0625 0.21875 C 4.625 0.21875 3.535156 -0.164062 2.796875 -0.9375 C 2.066406 -1.71875 1.703125 -2.832031 1.703125 -4.28125 L 1.703125 -12.3125 L 5.0625 -12.3125 L 5.0625 -5.125 C 5.0625 -4.238281 5.21875 -3.570312 5.53125 -3.125 C 5.84375 -2.675781 6.347656 -2.453125 7.046875 -2.453125 C 7.984375 -2.453125 8.660156 -2.765625 9.078125 -3.390625 C 9.492188 -4.023438 9.703125 -5.066406 9.703125 -6.515625 L 9.703125 -12.3125 L 13.0625 -12.3125 L 13.0625 0 Z M 10.484375 0 "/></g></g><g transform="translate(250.736359, 340.293031)"><g><path d="M 13.125 0 L 9.765625 0 L 9.765625 -7.1875 C 9.765625 -8.082031 9.609375 -8.75 9.296875 -9.1875 C 8.984375 -9.632812 8.476562 -9.859375 7.78125 -9.859375 C 6.84375 -9.859375 6.164062 -9.539062 5.75 -8.90625 C 5.332031 -8.28125 5.125 -7.242188 5.125 -5.796875 L 5.125 0 L 1.765625 0 L 1.765625 -12.3125 L 4.328125 -12.3125 L 4.78125 -10.734375 L 4.96875 -10.734375 C 5.34375 -11.335938 5.859375 -11.789062 6.515625 -12.09375 C 7.171875 -12.394531 7.921875 -12.546875 8.765625 -12.546875 C 10.191406 -12.546875 11.273438 -12.15625 12.015625 -11.375 C 12.753906 -10.601562 13.125 -9.488281 13.125 -8.03125 Z M 13.125 0 "/></g></g><g transform="translate(265.567235, 340.293031)"><g><path d="M 9.578125 0 L 8.9375 -1.671875 L 8.84375 -1.671875 C 8.28125 -0.960938 7.695312 -0.46875 7.09375 -0.1875 C 6.5 0.0820312 5.722656 0.21875 4.765625 0.21875 C 3.578125 0.21875 2.644531 -0.117188 1.96875 -0.796875 C 1.289062 -1.472656 0.953125 -2.429688 0.953125 -3.671875 C 0.953125 -4.984375 1.40625 -5.945312 2.3125 -6.5625 C 3.226562 -7.1875 4.609375 -7.535156 6.453125 -7.609375 L 8.59375 -7.671875 L 8.59375 -8.203125 C 8.59375 -9.453125 7.953125 -10.078125 6.671875 -10.078125 C 5.691406 -10.078125 4.535156 -9.78125 3.203125 -9.1875 L 2.09375 -11.453125 C 3.507812 -12.191406 5.082031 -12.5625 6.8125 -12.5625 C 8.457031 -12.5625 9.722656 -12.203125 10.609375 -11.484375 C 11.492188 -10.765625 11.9375 -9.671875 11.9375 -8.203125 L 11.9375 0 Z M 8.59375 -5.703125 L 7.296875 -5.65625 C 6.316406 -5.632812 5.585938 -5.460938 5.109375 -5.140625 C 4.628906 -4.816406 4.390625 -4.320312 4.390625 -3.65625 C 4.390625 -2.707031 4.9375 -2.234375 6.03125 -2.234375 C 6.800781 -2.234375 7.421875 -2.457031 7.890625 -2.90625 C 8.359375 -3.351562 8.59375 -3.945312 8.59375 -4.6875 Z M 8.59375 -5.703125 "/></g></g><g transform="translate(279.197097, 340.293031)"><g><path d="M 10.484375 0 L 10.03125 -1.578125 L 9.859375 -1.578125 C 9.492188 -1.003906 8.984375 -0.5625 8.328125 -0.25 C 7.671875 0.0625 6.914062 0.21875 6.0625 0.21875 C 4.625 0.21875 3.535156 -0.164062 2.796875 -0.9375 C 2.066406 -1.71875 1.703125 -2.832031 1.703125 -4.28125 L 1.703125 -12.3125 L 5.0625 -12.3125 L 5.0625 -5.125 C 5.0625 -4.238281 5.21875 -3.570312 5.53125 -3.125 C 5.84375 -2.675781 6.347656 -2.453125 7.046875 -2.453125 C 7.984375 -2.453125 8.660156 -2.765625 9.078125 -3.390625 C 9.492188 -4.023438 9.703125 -5.066406 9.703125 -6.515625 L 9.703125 -12.3125 L 13.0625 -12.3125 L 13.0625 0 Z M 10.484375 0 "/></g></g><g transform="translate(294.027973, 340.293031)"><g><path d="M 6.953125 -2.453125 C 7.535156 -2.453125 8.238281 -2.582031 9.0625 -2.84375 L 9.0625 -0.34375 C 8.226562 0.03125 7.203125 0.21875 5.984375 0.21875 C 4.640625 0.21875 3.660156 -0.117188 3.046875 -0.796875 C 2.429688 -1.472656 2.125 -2.492188 2.125 -3.859375 L 2.125 -9.796875 L 0.515625 -9.796875 L 0.515625 -11.21875 L 2.375 -12.34375 L 3.34375 -14.9375 L 5.484375 -14.9375 L 5.484375 -12.3125 L 8.9375 -12.3125 L 8.9375 -9.796875 L 5.484375 -9.796875 L 5.484375 -3.859375 C 5.484375 -3.378906 5.617188 -3.023438 5.890625 -2.796875 C 6.160156 -2.566406 6.515625 -2.453125 6.953125 -2.453125 Z M 6.953125 -2.453125 "/></g></g><g transform="translate(303.823403, 340.293031)"><g><path d="M 6.859375 -10.15625 C 6.148438 -10.15625 5.59375 -9.925781 5.1875 -9.46875 C 4.78125 -9.019531 4.550781 -8.382812 4.5 -7.5625 L 9.203125 -7.5625 C 9.191406 -8.382812 8.976562 -9.019531 8.5625 -9.46875 C 8.144531 -9.925781 7.578125 -10.15625 6.859375 -10.15625 Z M 7.34375 0.21875 C 5.351562 0.21875 3.800781 -0.328125 2.6875 -1.421875 C 1.570312 -2.515625 1.015625 -4.0625 1.015625 -6.0625 C 1.015625 -8.132812 1.53125 -9.734375 2.5625 -10.859375 C 3.59375 -11.984375 5.019531 -12.546875 6.84375 -12.546875 C 8.582031 -12.546875 9.9375 -12.050781 10.90625 -11.0625 C 11.875 -10.070312 12.359375 -8.703125 12.359375 -6.953125 L 12.359375 -5.328125 L 4.421875 -5.328125 C 4.453125 -4.367188 4.734375 -3.617188 5.265625 -3.078125 C 5.796875 -2.546875 6.535156 -2.28125 7.484375 -2.28125 C 8.234375 -2.28125 8.9375 -2.359375 9.59375 -2.515625 C 10.257812 -2.671875 10.953125 -2.914062 11.671875 -3.25 L 11.671875 -0.65625 C 11.078125 -0.351562 10.445312 -0.132812 9.78125 0 C 9.113281 0.144531 8.300781 0.21875 7.34375 0.21875 Z M 4.921875 -13.671875 L 4.921875 -13.96875 C 6.179688 -15.4375 7.046875 -16.539062 7.515625 -17.28125 L 11.28125 -17.28125 L 11.28125 -17.046875 C 10.894531 -16.671875 10.238281 -16.101562 9.3125 -15.34375 C 8.394531 -14.59375 7.675781 -14.035156 7.15625 -13.671875 Z M 4.921875 -13.671875 "/></g></g><g transform="translate(317.155766, 340.293031)"><g/></g><g transform="translate(323.017598, 340.293031)"><g><path d="M 6.859375 -10.15625 C 6.148438 -10.15625 5.59375 -9.925781 5.1875 -9.46875 C 4.78125 -9.019531 4.550781 -8.382812 4.5 -7.5625 L 9.203125 -7.5625 C 9.191406 -8.382812 8.976562 -9.019531 8.5625 -9.46875 C 8.144531 -9.925781 7.578125 -10.15625 6.859375 -10.15625 Z M 7.34375 0.21875 C 5.351562 0.21875 3.800781 -0.328125 2.6875 -1.421875 C 1.570312 -2.515625 1.015625 -4.0625 1.015625 -6.0625 C 1.015625 -8.132812 1.53125 -9.734375 2.5625 -10.859375 C 3.59375 -11.984375 5.019531 -12.546875 6.84375 -12.546875 C 8.582031 -12.546875 9.9375 -12.050781 10.90625 -11.0625 C 11.875 -10.070312 12.359375 -8.703125 12.359375 -6.953125 L 12.359375 -5.328125 L 4.421875 -5.328125 C 4.453125 -4.367188 4.734375 -3.617188 5.265625 -3.078125 C 5.796875 -2.546875 6.535156 -2.28125 7.484375 -2.28125 C 8.234375 -2.28125 8.9375 -2.359375 9.59375 -2.515625 C 10.257812 -2.671875 10.953125 -2.914062 11.671875 -3.25 L 11.671875 -0.65625 C 11.078125 -0.351562 10.445312 -0.132812 9.78125 0 C 9.113281 0.144531 8.300781 0.21875 7.34375 0.21875 Z M 4.921875 -13.671875 L 4.921875 -13.96875 C 6.179688 -15.4375 7.046875 -16.539062 7.515625 -17.28125 L 11.28125 -17.28125 L 11.28125 -17.046875 C 10.894531 -16.671875 10.238281 -16.101562 9.3125 -15.34375 C 8.394531 -14.59375 7.675781 -14.035156 7.15625 -13.671875 Z M 4.921875 -13.671875 "/></g></g><g transform="translate(336.349961, 340.293031)"><g><path d="M 6.765625 0.21875 C 2.929688 0.21875 1.015625 -1.882812 1.015625 -6.09375 C 1.015625 -8.1875 1.535156 -9.785156 2.578125 -10.890625 C 3.617188 -11.992188 5.113281 -12.546875 7.0625 -12.546875 C 8.488281 -12.546875 9.765625 -12.265625 10.890625 -11.703125 L 9.90625 -9.109375 C 9.375 -9.328125 8.878906 -9.503906 8.421875 -9.640625 C 7.972656 -9.773438 7.519531 -9.84375 7.0625 -9.84375 C 5.3125 -9.84375 4.4375 -8.597656 4.4375 -6.109375 C 4.4375 -3.703125 5.3125 -2.5 7.0625 -2.5 C 7.707031 -2.5 8.304688 -2.582031 8.859375 -2.75 C 9.410156 -2.925781 9.960938 -3.195312 10.515625 -3.5625 L 10.515625 -0.6875 C 9.960938 -0.34375 9.410156 -0.109375 8.859375 0.015625 C 8.304688 0.148438 7.609375 0.21875 6.765625 0.21875 Z M 6.765625 0.21875 "/></g></g><g transform="translate(347.952422, 340.293031)"><g><path d="M 4.4375 -6.1875 C 4.4375 -4.96875 4.632812 -4.046875 5.03125 -3.421875 C 5.4375 -2.796875 6.09375 -2.484375 7 -2.484375 C 7.894531 -2.484375 8.535156 -2.789062 8.921875 -3.40625 C 9.316406 -4.03125 9.515625 -4.957031 9.515625 -6.1875 C 9.515625 -7.40625 9.316406 -8.316406 8.921875 -8.921875 C 8.523438 -9.535156 7.875 -9.84375 6.96875 -9.84375 C 6.070312 -9.84375 5.425781 -9.535156 5.03125 -8.921875 C 4.632812 -8.316406 4.4375 -7.40625 4.4375 -6.1875 Z M 12.953125 -6.1875 C 12.953125 -4.175781 12.421875 -2.601562 11.359375 -1.46875 C 10.304688 -0.34375 8.835938 0.21875 6.953125 0.21875 C 5.765625 0.21875 4.71875 -0.0351562 3.8125 -0.546875 C 2.914062 -1.066406 2.222656 -1.8125 1.734375 -2.78125 C 1.253906 -3.75 1.015625 -4.882812 1.015625 -6.1875 C 1.015625 -8.195312 1.539062 -9.757812 2.59375 -10.875 C 3.644531 -11.988281 5.117188 -12.546875 7.015625 -12.546875 C 8.203125 -12.546875 9.242188 -12.285156 10.140625 -11.765625 C 11.046875 -11.253906 11.738281 -10.519531 12.21875 -9.5625 C 12.707031 -8.601562 12.953125 -7.476562 12.953125 -6.1875 Z M 12.953125 -6.1875 "/></g></g><g transform="translate(361.923857, 340.293031)"><g><path d="M 5.125 0 L 1.765625 0 L 1.765625 -17.140625 L 5.125 -17.140625 Z M 5.125 0 "/></g></g><g transform="translate(368.810408, 340.293031)"><g><path d="M 4.4375 -6.1875 C 4.4375 -4.96875 4.632812 -4.046875 5.03125 -3.421875 C 5.4375 -2.796875 6.09375 -2.484375 7 -2.484375 C 7.894531 -2.484375 8.535156 -2.789062 8.921875 -3.40625 C 9.316406 -4.03125 9.515625 -4.957031 9.515625 -6.1875 C 9.515625 -7.40625 9.316406 -8.316406 8.921875 -8.921875 C 8.523438 -9.535156 7.875 -9.84375 6.96875 -9.84375 C 6.070312 -9.84375 5.425781 -9.535156 5.03125 -8.921875 C 4.632812 -8.316406 4.4375 -7.40625 4.4375 -6.1875 Z M 12.953125 -6.1875 C 12.953125 -4.175781 12.421875 -2.601562 11.359375 -1.46875 C 10.304688 -0.34375 8.835938 0.21875 6.953125 0.21875 C 5.765625 0.21875 4.71875 -0.0351562 3.8125 -0.546875 C 2.914062 -1.066406 2.222656 -1.8125 1.734375 -2.78125 C 1.253906 -3.75 1.015625 -4.882812 1.015625 -6.1875 C 1.015625 -8.195312 1.539062 -9.757812 2.59375 -10.875 C 3.644531 -11.988281 5.117188 -12.546875 7.015625 -12.546875 C 8.203125 -12.546875 9.242188 -12.285156 10.140625 -11.765625 C 11.046875 -11.253906 11.738281 -10.519531 12.21875 -9.5625 C 12.707031 -8.601562 12.953125 -7.476562 12.953125 -6.1875 Z M 12.953125 -6.1875 "/></g></g><g transform="translate(382.781843, 340.293031)"><g><path d="M 12.484375 -12.3125 L 12.484375 -10.609375 L 10.546875 -10.109375 C 10.898438 -9.554688 11.078125 -8.941406 11.078125 -8.265625 C 11.078125 -6.941406 10.613281 -5.910156 9.6875 -5.171875 C 8.769531 -4.429688 7.492188 -4.0625 5.859375 -4.0625 L 5.25 -4.09375 L 4.765625 -4.15625 C 4.410156 -3.882812 4.234375 -3.585938 4.234375 -3.265625 C 4.234375 -2.785156 4.851562 -2.546875 6.09375 -2.546875 L 8.1875 -2.546875 C 9.539062 -2.546875 10.570312 -2.253906 11.28125 -1.671875 C 11.988281 -1.085938 12.34375 -0.238281 12.34375 0.875 C 12.34375 2.320312 11.738281 3.441406 10.53125 4.234375 C 9.332031 5.023438 7.609375 5.421875 5.359375 5.421875 C 3.640625 5.421875 2.328125 5.117188 1.421875 4.515625 C 0.515625 3.921875 0.0625 3.082031 0.0625 2 C 0.0625 1.257812 0.289062 0.640625 0.75 0.140625 C 1.21875 -0.359375 1.898438 -0.710938 2.796875 -0.921875 C 2.453125 -1.066406 2.148438 -1.304688 1.890625 -1.640625 C 1.640625 -1.972656 1.515625 -2.328125 1.515625 -2.703125 C 1.515625 -3.179688 1.648438 -3.578125 1.921875 -3.890625 C 2.191406 -4.203125 2.582031 -4.503906 3.09375 -4.796875 C 2.445312 -5.078125 1.929688 -5.523438 1.546875 -6.140625 C 1.171875 -6.765625 0.984375 -7.492188 0.984375 -8.328125 C 0.984375 -9.671875 1.421875 -10.707031 2.296875 -11.4375 C 3.171875 -12.175781 4.421875 -12.546875 6.046875 -12.546875 C 6.390625 -12.546875 6.796875 -12.515625 7.265625 -12.453125 C 7.742188 -12.390625 8.050781 -12.34375 8.1875 -12.3125 Z M 2.96875 1.734375 C 2.96875 2.203125 3.191406 2.566406 3.640625 2.828125 C 4.085938 3.097656 4.710938 3.234375 5.515625 3.234375 C 6.710938 3.234375 7.648438 3.066406 8.328125 2.734375 C 9.015625 2.398438 9.359375 1.945312 9.359375 1.375 C 9.359375 0.914062 9.15625 0.597656 8.75 0.421875 C 8.351562 0.242188 7.734375 0.15625 6.890625 0.15625 L 5.140625 0.15625 C 4.523438 0.15625 4.007812 0.300781 3.59375 0.59375 C 3.175781 0.882812 2.96875 1.265625 2.96875 1.734375 Z M 4.203125 -8.28125 C 4.203125 -7.613281 4.351562 -7.082031 4.65625 -6.6875 C 4.957031 -6.300781 5.421875 -6.109375 6.046875 -6.109375 C 6.679688 -6.109375 7.144531 -6.300781 7.4375 -6.6875 C 7.726562 -7.082031 7.875 -7.613281 7.875 -8.28125 C 7.875 -9.769531 7.265625 -10.515625 6.046875 -10.515625 C 4.816406 -10.515625 4.203125 -9.769531 4.203125 -8.28125 Z M 4.203125 -8.28125 "/></g></g><g transform="translate(395.530226, 340.293031)"><g><path d="M 1.625 -15.5 C 1.625 -16.59375 2.234375 -17.140625 3.453125 -17.140625 C 4.671875 -17.140625 5.28125 -16.59375 5.28125 -15.5 C 5.28125 -14.976562 5.125 -14.570312 4.8125 -14.28125 C 4.507812 -13.988281 4.054688 -13.84375 3.453125 -13.84375 C 2.234375 -13.84375 1.625 -14.394531 1.625 -15.5 Z M 5.125 0 L 1.765625 0 L 1.765625 -12.3125 L 5.125 -12.3125 Z M 5.125 0 "/></g></g><g transform="translate(402.416777, 340.293031)"><g><path d="M 10.359375 -3.65625 C 10.359375 -2.394531 9.914062 -1.429688 9.03125 -0.765625 C 8.15625 -0.109375 6.84375 0.21875 5.09375 0.21875 C 4.195312 0.21875 3.429688 0.15625 2.796875 0.03125 C 2.171875 -0.0820312 1.582031 -0.257812 1.03125 -0.5 L 1.03125 -3.265625 C 1.65625 -2.972656 2.359375 -2.726562 3.140625 -2.53125 C 3.921875 -2.332031 4.613281 -2.234375 5.21875 -2.234375 C 6.4375 -2.234375 7.046875 -2.585938 7.046875 -3.296875 C 7.046875 -3.554688 6.960938 -3.769531 6.796875 -3.9375 C 6.640625 -4.101562 6.359375 -4.289062 5.953125 -4.5 C 5.554688 -4.707031 5.03125 -4.953125 4.375 -5.234375 C 3.425781 -5.628906 2.726562 -5.992188 2.28125 -6.328125 C 1.84375 -6.671875 1.519531 -7.0625 1.3125 -7.5 C 1.113281 -7.9375 1.015625 -8.472656 1.015625 -9.109375 C 1.015625 -10.203125 1.4375 -11.046875 2.28125 -11.640625 C 3.132812 -12.242188 4.335938 -12.546875 5.890625 -12.546875 C 7.378906 -12.546875 8.820312 -12.222656 10.21875 -11.578125 L 9.203125 -9.15625 C 8.585938 -9.414062 8.007812 -9.628906 7.46875 -9.796875 C 6.9375 -9.972656 6.394531 -10.0625 5.84375 -10.0625 C 4.851562 -10.0625 4.359375 -9.789062 4.359375 -9.25 C 4.359375 -8.945312 4.515625 -8.6875 4.828125 -8.46875 C 5.148438 -8.25 5.847656 -7.921875 6.921875 -7.484375 C 7.890625 -7.097656 8.597656 -6.734375 9.046875 -6.390625 C 9.492188 -6.054688 9.820312 -5.671875 10.03125 -5.234375 C 10.25 -4.796875 10.359375 -4.269531 10.359375 -3.65625 Z M 10.359375 -3.65625 "/></g></g><g transform="translate(413.633591, 340.293031)"><g><path d="M 6.953125 -2.453125 C 7.535156 -2.453125 8.238281 -2.582031 9.0625 -2.84375 L 9.0625 -0.34375 C 8.226562 0.03125 7.203125 0.21875 5.984375 0.21875 C 4.640625 0.21875 3.660156 -0.117188 3.046875 -0.796875 C 2.429688 -1.472656 2.125 -2.492188 2.125 -3.859375 L 2.125 -9.796875 L 0.515625 -9.796875 L 0.515625 -11.21875 L 2.375 -12.34375 L 3.34375 -14.9375 L 5.484375 -14.9375 L 5.484375 -12.3125 L 8.9375 -12.3125 L 8.9375 -9.796875 L 5.484375 -9.796875 L 5.484375 -3.859375 C 5.484375 -3.378906 5.617188 -3.023438 5.890625 -2.796875 C 6.160156 -2.566406 6.515625 -2.453125 6.953125 -2.453125 Z M 6.953125 -2.453125 "/></g></g><g transform="translate(423.429021, 340.293031)"><g><path d="M 6.859375 -10.15625 C 6.148438 -10.15625 5.59375 -9.925781 5.1875 -9.46875 C 4.78125 -9.019531 4.550781 -8.382812 4.5 -7.5625 L 9.203125 -7.5625 C 9.191406 -8.382812 8.976562 -9.019531 8.5625 -9.46875 C 8.144531 -9.925781 7.578125 -10.15625 6.859375 -10.15625 Z M 7.34375 0.21875 C 5.351562 0.21875 3.800781 -0.328125 2.6875 -1.421875 C 1.570312 -2.515625 1.015625 -4.0625 1.015625 -6.0625 C 1.015625 -8.132812 1.53125 -9.734375 2.5625 -10.859375 C 3.59375 -11.984375 5.019531 -12.546875 6.84375 -12.546875 C 8.582031 -12.546875 9.9375 -12.050781 10.90625 -11.0625 C 11.875 -10.070312 12.359375 -8.703125 12.359375 -6.953125 L 12.359375 -5.328125 L 4.421875 -5.328125 C 4.453125 -4.367188 4.734375 -3.617188 5.265625 -3.078125 C 5.796875 -2.546875 6.535156 -2.28125 7.484375 -2.28125 C 8.234375 -2.28125 8.9375 -2.359375 9.59375 -2.515625 C 10.257812 -2.671875 10.953125 -2.914062 11.671875 -3.25 L 11.671875 -0.65625 C 11.078125 -0.351562 10.445312 -0.132812 9.78125 0 C 9.113281 0.144531 8.300781 0.21875 7.34375 0.21875 Z M 7.34375 0.21875 "/></g></g></g><g clip-path="url(#c3f97b7b51)"><g clip-path="url(#4470c39200)"><path stroke-linecap="butt" transform="matrix(0.000000000000000046, -0.749216, 0.751155, 0.000000000000000046, 132.714889, 315.017642)" fill="none" stroke-linejoin="miter" d="M 224.231869 96.351508 L 168.173271 192.703075 L 56.056076 192.703075 L -0.00252182 96.351508 L 56.056076 -0.0000596144 L 168.173271 -0.0000596144 L 224.231869 96.351508 " stroke="#000000" stroke-width="2" stroke-opacity="1" stroke-miterlimit="4"/></g></g><g fill="#000000" fill-opacity="1"><g transform="translate(151.363271, 276.192091)"><g><path d="M 13.9375 -14.828125 L 13.9375 -5.234375 C 13.9375 -4.140625 13.691406 -3.175781 13.203125 -2.34375 C 12.710938 -1.519531 12.003906 -0.890625 11.078125 -0.453125 C 10.148438 -0.015625 9.054688 0.203125 7.796875 0.203125 C 5.890625 0.203125 4.40625 -0.285156 3.34375 -1.265625 C 2.289062 -2.242188 1.765625 -3.582031 1.765625 -5.28125 L 1.765625 -14.828125 L 4.90625 -14.828125 L 4.90625 -5.75 C 4.90625 -4.601562 5.132812 -3.765625 5.59375 -3.234375 C 6.050781 -2.703125 6.8125 -2.4375 7.875 -2.4375 C 8.90625 -2.4375 9.648438 -2.703125 10.109375 -3.234375 C 10.578125 -3.773438 10.8125 -4.625 10.8125 -5.78125 L 10.8125 -14.828125 Z M 13.9375 -14.828125 "/></g></g><g transform="translate(167.07357, 276.192091)"><g><path d="M 12.09375 0 L 9 0 L 9 -6.625 C 9 -7.445312 8.851562 -8.0625 8.5625 -8.46875 C 8.269531 -8.875 7.804688 -9.078125 7.171875 -9.078125 C 6.304688 -9.078125 5.679688 -8.785156 5.296875 -8.203125 C 4.910156 -7.628906 4.71875 -6.675781 4.71875 -5.34375 L 4.71875 0 L 1.625 0 L 1.625 -11.34375 L 3.984375 -11.34375 L 4.40625 -9.890625 L 4.578125 -9.890625 C 4.921875 -10.441406 5.394531 -10.859375 6 -11.140625 C 6.601562 -11.421875 7.289062 -11.5625 8.0625 -11.5625 C 9.382812 -11.5625 10.382812 -11.203125 11.0625 -10.484375 C 11.75 -9.773438 12.09375 -8.742188 12.09375 -7.390625 Z M 12.09375 0 "/></g></g><g transform="translate(180.733817, 276.192091)"><g><path d="M 1.484375 -14.28125 C 1.484375 -15.28125 2.046875 -15.78125 3.171875 -15.78125 C 4.296875 -15.78125 4.859375 -15.28125 4.859375 -14.28125 C 4.859375 -13.800781 4.71875 -13.425781 4.4375 -13.15625 C 4.15625 -12.882812 3.734375 -12.75 3.171875 -12.75 C 2.046875 -12.75 1.484375 -13.257812 1.484375 -14.28125 Z M 4.71875 0 L 1.625 0 L 1.625 -11.34375 L 4.71875 -11.34375 Z M 4.71875 0 "/></g></g><g transform="translate(187.076799, 276.192091)"><g><path d="M 4.328125 0 L 0 -11.34375 L 3.234375 -11.34375 L 5.421875 -4.875 C 5.671875 -4.0625 5.828125 -3.289062 5.890625 -2.5625 L 5.953125 -2.5625 C 5.984375 -3.207031 6.132812 -3.976562 6.40625 -4.875 L 8.578125 -11.34375 L 11.828125 -11.34375 L 7.5 0 Z M 4.328125 0 "/></g></g><g transform="translate(198.900118, 276.192091)"><g><path d="M 6.328125 -9.359375 C 5.671875 -9.359375 5.15625 -9.148438 4.78125 -8.734375 C 4.40625 -8.316406 4.191406 -7.722656 4.140625 -6.953125 L 8.484375 -6.953125 C 8.472656 -7.722656 8.273438 -8.316406 7.890625 -8.734375 C 7.503906 -9.148438 6.984375 -9.359375 6.328125 -9.359375 Z M 6.765625 0.203125 C 4.929688 0.203125 3.5 -0.300781 2.46875 -1.3125 C 1.445312 -2.320312 0.9375 -3.75 0.9375 -5.59375 C 0.9375 -7.488281 1.410156 -8.957031 2.359375 -10 C 3.304688 -11.039062 4.617188 -11.5625 6.296875 -11.5625 C 7.898438 -11.5625 9.148438 -11.101562 10.046875 -10.1875 C 10.941406 -9.269531 11.390625 -8.007812 11.390625 -6.40625 L 11.390625 -4.90625 L 4.0625 -4.90625 C 4.101562 -4.019531 4.363281 -3.328125 4.84375 -2.828125 C 5.332031 -2.335938 6.019531 -2.09375 6.90625 -2.09375 C 7.582031 -2.09375 8.222656 -2.164062 8.828125 -2.3125 C 9.441406 -2.457031 10.082031 -2.6875 10.75 -3 L 10.75 -0.59375 C 10.207031 -0.320312 9.628906 -0.125 9.015625 0 C 8.398438 0.132812 7.648438 0.203125 6.765625 0.203125 Z M 6.765625 0.203125 "/></g></g><g transform="translate(211.180132, 276.192091)"><g><path d="M 7.953125 -11.5625 C 8.367188 -11.5625 8.71875 -11.53125 9 -11.46875 L 8.765625 -8.5625 C 8.515625 -8.632812 8.210938 -8.671875 7.859375 -8.671875 C 6.867188 -8.671875 6.097656 -8.414062 5.546875 -7.90625 C 4.992188 -7.394531 4.71875 -6.6875 4.71875 -5.78125 L 4.71875 0 L 1.625 0 L 1.625 -11.34375 L 3.96875 -11.34375 L 4.421875 -9.4375 L 4.578125 -9.4375 C 4.929688 -10.070312 5.40625 -10.582031 6 -10.96875 C 6.601562 -11.363281 7.253906 -11.5625 7.953125 -11.5625 Z M 7.953125 -11.5625 "/></g></g><g transform="translate(220.61849, 276.192091)"><g><path d="M 9.53125 -3.375 C 9.53125 -2.207031 9.125 -1.316406 8.3125 -0.703125 C 7.507812 -0.0976562 6.304688 0.203125 4.703125 0.203125 C 3.867188 0.203125 3.160156 0.144531 2.578125 0.03125 C 2.003906 -0.0703125 1.460938 -0.234375 0.953125 -0.453125 L 0.953125 -3.015625 C 1.523438 -2.742188 2.171875 -2.515625 2.890625 -2.328125 C 3.617188 -2.148438 4.253906 -2.0625 4.796875 -2.0625 C 5.921875 -2.0625 6.484375 -2.382812 6.484375 -3.03125 C 6.484375 -3.28125 6.40625 -3.476562 6.25 -3.625 C 6.101562 -3.78125 5.847656 -3.953125 5.484375 -4.140625 C 5.117188 -4.335938 4.632812 -4.5625 4.03125 -4.8125 C 3.15625 -5.1875 2.507812 -5.523438 2.09375 -5.828125 C 1.6875 -6.140625 1.390625 -6.5 1.203125 -6.90625 C 1.023438 -7.3125 0.9375 -7.804688 0.9375 -8.390625 C 0.9375 -9.398438 1.328125 -10.179688 2.109375 -10.734375 C 2.890625 -11.285156 3.992188 -11.5625 5.421875 -11.5625 C 6.796875 -11.5625 8.128906 -11.265625 9.421875 -10.671875 L 8.484375 -8.4375 C 7.910156 -8.675781 7.378906 -8.875 6.890625 -9.03125 C 6.398438 -9.1875 5.894531 -9.265625 5.375 -9.265625 C 4.46875 -9.265625 4.015625 -9.019531 4.015625 -8.53125 C 4.015625 -8.25 4.160156 -8.003906 4.453125 -7.796875 C 4.742188 -7.597656 5.382812 -7.300781 6.375 -6.90625 C 7.269531 -6.539062 7.921875 -6.203125 8.328125 -5.890625 C 8.742188 -5.578125 9.046875 -5.21875 9.234375 -4.8125 C 9.429688 -4.414062 9.53125 -3.9375 9.53125 -3.375 Z M 9.53125 -3.375 "/></g></g><g transform="translate(230.94994, 276.192091)"><g><path d="M 1.484375 -14.28125 C 1.484375 -15.28125 2.046875 -15.78125 3.171875 -15.78125 C 4.296875 -15.78125 4.859375 -15.28125 4.859375 -14.28125 C 4.859375 -13.800781 4.71875 -13.425781 4.4375 -13.15625 C 4.15625 -12.882812 3.734375 -12.75 3.171875 -12.75 C 2.046875 -12.75 1.484375 -13.257812 1.484375 -14.28125 Z M 4.71875 0 L 1.625 0 L 1.625 -11.34375 L 4.71875 -11.34375 Z M 4.71875 0 "/></g></g><g transform="translate(237.292922, 276.192091)"><g><path d="M 6.40625 -2.265625 C 6.945312 -2.265625 7.59375 -2.382812 8.34375 -2.625 L 8.34375 -0.3125 C 7.570312 0.03125 6.628906 0.203125 5.515625 0.203125 C 4.273438 0.203125 3.367188 -0.109375 2.796875 -0.734375 C 2.234375 -1.359375 1.953125 -2.296875 1.953125 -3.546875 L 1.953125 -9.015625 L 0.484375 -9.015625 L 0.484375 -10.328125 L 2.1875 -11.359375 L 3.078125 -13.765625 L 5.046875 -13.765625 L 5.046875 -11.34375 L 8.234375 -11.34375 L 8.234375 -9.015625 L 5.046875 -9.015625 L 5.046875 -3.546875 C 5.046875 -3.109375 5.171875 -2.785156 5.421875 -2.578125 C 5.671875 -2.367188 6 -2.265625 6.40625 -2.265625 Z M 6.40625 -2.265625 "/></g></g><g transform="translate(246.31518, 276.192091)"><g><path d="M 6.328125 -9.359375 C 5.671875 -9.359375 5.15625 -9.148438 4.78125 -8.734375 C 4.40625 -8.316406 4.191406 -7.722656 4.140625 -6.953125 L 8.484375 -6.953125 C 8.472656 -7.722656 8.273438 -8.316406 7.890625 -8.734375 C 7.503906 -9.148438 6.984375 -9.359375 6.328125 -9.359375 Z M 6.765625 0.203125 C 4.929688 0.203125 3.5 -0.300781 2.46875 -1.3125 C 1.445312 -2.320312 0.9375 -3.75 0.9375 -5.59375 C 0.9375 -7.488281 1.410156 -8.957031 2.359375 -10 C 3.304688 -11.039062 4.617188 -11.5625 6.296875 -11.5625 C 7.898438 -11.5625 9.148438 -11.101562 10.046875 -10.1875 C 10.941406 -9.269531 11.390625 -8.007812 11.390625 -6.40625 L 11.390625 -4.90625 L 4.0625 -4.90625 C 4.101562 -4.019531 4.363281 -3.328125 4.84375 -2.828125 C 5.332031 -2.335938 6.019531 -2.09375 6.90625 -2.09375 C 7.582031 -2.09375 8.222656 -2.164062 8.828125 -2.3125 C 9.441406 -2.457031 10.082031 -2.6875 10.75 -3 L 10.75 -0.59375 C 10.207031 -0.320312 9.628906 -0.125 9.015625 0 C 8.398438 0.132812 7.648438 0.203125 6.765625 0.203125 Z M 4.546875 -12.59375 L 4.546875 -12.859375 C 5.703125 -14.210938 6.492188 -15.234375 6.921875 -15.921875 L 10.390625 -15.921875 L 10.390625 -15.703125 C 10.046875 -15.359375 9.445312 -14.835938 8.59375 -14.140625 C 7.75 -13.441406 7.082031 -12.925781 6.59375 -12.59375 Z M 4.546875 -12.59375 "/></g></g></g><g clip-path="url(#a8d2f5b14d)"><g clip-path="url(#5589548ebd)"><path stroke-linecap="butt" transform="matrix(0.000000000000000046, -0.749216, 0.751155, 0.000000000000000046, 322.885356, 318.21897)" fill="none" stroke-linejoin="miter" d="M 224.234685 96.348181 L 168.176087 192.699749 L 56.058892 192.699749 L 0.000294193 96.348181 L 56.058892 0.00181405 L 168.176087 0.00181405 L 224.234685 96.348181 " stroke="#000000" stroke-width="2" stroke-opacity="1" stroke-miterlimit="4"/></g></g><g fill="#000000" fill-opacity="1"><g transform="translate(213.213685, 217.049505)"><g><path d="M 3.546875 0 L 0.640625 0 L 0.640625 -5.0625 L 3.546875 -5.0625 L 3.546875 -4.1875 L 1.71875 -4.1875 L 1.71875 -3.078125 L 3.421875 -3.078125 L 3.421875 -2.1875 L 1.71875 -2.1875 L 1.71875 -0.890625 L 3.546875 -0.890625 Z M 1.46875 -5.46875 L 1.46875 -5.5625 C 1.863281 -6.019531 2.132812 -6.367188 2.28125 -6.609375 L 3.46875 -6.609375 L 3.46875 -6.53125 C 3.34375 -6.414062 3.132812 -6.238281 2.84375 -6 C 2.550781 -5.757812 2.328125 -5.582031 2.171875 -5.46875 Z M 1.46875 -5.46875 "/></g></g><g transform="translate(217.186452, 217.049505)"><g><path d="M 2.1875 -0.765625 C 2.375 -0.765625 2.59375 -0.804688 2.84375 -0.890625 L 2.84375 -0.109375 C 2.582031 0.00390625 2.257812 0.0625 1.875 0.0625 C 1.457031 0.0625 1.148438 -0.0390625 0.953125 -0.25 C 0.765625 -0.46875 0.671875 -0.789062 0.671875 -1.21875 L 0.671875 -3.078125 L 0.15625 -3.078125 L 0.15625 -3.53125 L 0.75 -3.875 L 1.046875 -4.703125 L 1.71875 -4.703125 L 1.71875 -3.875 L 2.8125 -3.875 L 2.8125 -3.078125 L 1.71875 -3.078125 L 1.71875 -1.21875 C 1.71875 -1.0625 1.757812 -0.945312 1.84375 -0.875 C 1.9375 -0.800781 2.050781 -0.765625 2.1875 -0.765625 Z M 2.1875 -0.765625 "/></g></g><g transform="translate(220.265605, 217.049505)"><g><path d="M 3.296875 0 L 3.15625 -0.5 L 3.09375 -0.5 C 2.988281 -0.3125 2.832031 -0.171875 2.625 -0.078125 C 2.414062 0.015625 2.175781 0.0625 1.90625 0.0625 C 1.445312 0.0625 1.101562 -0.0546875 0.875 -0.296875 C 0.644531 -0.535156 0.53125 -0.882812 0.53125 -1.34375 L 0.53125 -3.875 L 1.59375 -3.875 L 1.59375 -1.609375 C 1.59375 -1.328125 1.640625 -1.113281 1.734375 -0.96875 C 1.835938 -0.832031 2 -0.765625 2.21875 -0.765625 C 2.507812 -0.765625 2.71875 -0.863281 2.84375 -1.0625 C 2.976562 -1.257812 3.046875 -1.585938 3.046875 -2.046875 L 3.046875 -3.875 L 4.109375 -3.875 L 4.109375 0 Z M 3.296875 0 "/></g></g><g transform="translate(224.927631, 217.049505)"><g><path d="M 1.78125 0.0625 C 1.320312 0.0625 0.960938 -0.109375 0.703125 -0.453125 C 0.441406 -0.804688 0.3125 -1.296875 0.3125 -1.921875 C 0.3125 -2.554688 0.441406 -3.050781 0.703125 -3.40625 C 0.972656 -3.757812 1.34375 -3.9375 1.8125 -3.9375 C 2.289062 -3.9375 2.660156 -3.75 2.921875 -3.375 L 2.953125 -3.375 C 2.898438 -3.664062 2.875 -3.925781 2.875 -4.15625 L 2.875 -5.390625 L 3.9375 -5.390625 L 3.9375 0 L 3.125 0 L 2.921875 -0.5 L 2.875 -0.5 C 2.632812 -0.125 2.269531 0.0625 1.78125 0.0625 Z M 2.15625 -0.765625 C 2.425781 -0.765625 2.625 -0.84375 2.75 -1 C 2.875 -1.164062 2.941406 -1.4375 2.953125 -1.8125 L 2.953125 -1.921875 C 2.953125 -2.335938 2.882812 -2.632812 2.75 -2.8125 C 2.625 -3 2.421875 -3.09375 2.140625 -3.09375 C 1.898438 -3.09375 1.710938 -2.988281 1.578125 -2.78125 C 1.453125 -2.582031 1.390625 -2.296875 1.390625 -1.921875 C 1.390625 -1.535156 1.453125 -1.242188 1.578125 -1.046875 C 1.710938 -0.859375 1.90625 -0.765625 2.15625 -0.765625 Z M 2.15625 -0.765625 "/></g></g><g transform="translate(229.416476, 217.049505)"><g><path d="M 0.515625 -4.875 C 0.515625 -5.21875 0.703125 -5.390625 1.078125 -5.390625 C 1.460938 -5.390625 1.65625 -5.21875 1.65625 -4.875 C 1.65625 -4.707031 1.609375 -4.578125 1.515625 -4.484375 C 1.421875 -4.398438 1.273438 -4.359375 1.078125 -4.359375 C 0.703125 -4.359375 0.515625 -4.53125 0.515625 -4.875 Z M 1.609375 0 L 0.546875 0 L 0.546875 -3.875 L 1.609375 -3.875 Z M 1.609375 0 "/></g></g><g transform="translate(231.581235, 217.049505)"><g><path d="M 3.015625 0 L 2.8125 -0.53125 L 2.78125 -0.53125 C 2.601562 -0.300781 2.421875 -0.144531 2.234375 -0.0625 C 2.046875 0.0195312 1.800781 0.0625 1.5 0.0625 C 1.125 0.0625 0.828125 -0.0390625 0.609375 -0.25 C 0.398438 -0.457031 0.296875 -0.757812 0.296875 -1.15625 C 0.296875 -1.570312 0.4375 -1.875 0.71875 -2.0625 C 1.007812 -2.257812 1.445312 -2.367188 2.03125 -2.390625 L 2.703125 -2.40625 L 2.703125 -2.578125 C 2.703125 -2.972656 2.5 -3.171875 2.09375 -3.171875 C 1.789062 -3.171875 1.429688 -3.078125 1.015625 -2.890625 L 0.65625 -3.609375 C 1.101562 -3.835938 1.597656 -3.953125 2.140625 -3.953125 C 2.660156 -3.953125 3.054688 -3.835938 3.328125 -3.609375 C 3.609375 -3.378906 3.75 -3.035156 3.75 -2.578125 L 3.75 0 Z M 2.703125 -1.796875 L 2.296875 -1.78125 C 1.984375 -1.769531 1.75 -1.710938 1.59375 -1.609375 C 1.445312 -1.515625 1.375 -1.363281 1.375 -1.15625 C 1.375 -0.851562 1.546875 -0.703125 1.890625 -0.703125 C 2.140625 -0.703125 2.335938 -0.769531 2.484375 -0.90625 C 2.628906 -1.050781 2.703125 -1.238281 2.703125 -1.46875 Z M 2.703125 -1.796875 "/></g></g><g transform="translate(235.865727, 217.049505)"><g><path d="M 4.125 0 L 3.078125 0 L 3.078125 -2.265625 C 3.078125 -2.546875 3.023438 -2.753906 2.921875 -2.890625 C 2.828125 -3.023438 2.671875 -3.09375 2.453125 -3.09375 C 2.148438 -3.09375 1.929688 -2.992188 1.796875 -2.796875 C 1.671875 -2.597656 1.609375 -2.273438 1.609375 -1.828125 L 1.609375 0 L 0.546875 0 L 0.546875 -3.875 L 1.359375 -3.875 L 1.5 -3.375 L 1.5625 -3.375 C 1.675781 -3.5625 1.835938 -3.703125 2.046875 -3.796875 C 2.253906 -3.890625 2.488281 -3.9375 2.75 -3.9375 C 3.195312 -3.9375 3.535156 -3.816406 3.765625 -3.578125 C 4.003906 -3.335938 4.125 -2.988281 4.125 -2.53125 Z M 4.125 0 "/></g></g><g transform="translate(240.527753, 217.049505)"><g><path d="M 2.1875 -0.765625 C 2.375 -0.765625 2.59375 -0.804688 2.84375 -0.890625 L 2.84375 -0.109375 C 2.582031 0.00390625 2.257812 0.0625 1.875 0.0625 C 1.457031 0.0625 1.148438 -0.0390625 0.953125 -0.25 C 0.765625 -0.46875 0.671875 -0.789062 0.671875 -1.21875 L 0.671875 -3.078125 L 0.15625 -3.078125 L 0.15625 -3.53125 L 0.75 -3.875 L 1.046875 -4.703125 L 1.71875 -4.703125 L 1.71875 -3.875 L 2.8125 -3.875 L 2.8125 -3.078125 L 1.71875 -3.078125 L 1.71875 -1.21875 C 1.71875 -1.0625 1.757812 -0.945312 1.84375 -0.875 C 1.9375 -0.800781 2.050781 -0.765625 2.1875 -0.765625 Z M 2.1875 -0.765625 "/></g></g><g transform="translate(243.606906, 217.049505)"><g><path d="M 3.25 -1.15625 C 3.25 -0.75 3.109375 -0.441406 2.828125 -0.234375 C 2.554688 -0.0351562 2.148438 0.0625 1.609375 0.0625 C 1.328125 0.0625 1.082031 0.0390625 0.875 0 C 0.675781 -0.03125 0.492188 -0.0820312 0.328125 -0.15625 L 0.328125 -1.03125 C 0.523438 -0.9375 0.742188 -0.859375 0.984375 -0.796875 C 1.234375 -0.734375 1.453125 -0.703125 1.640625 -0.703125 C 2.023438 -0.703125 2.21875 -0.8125 2.21875 -1.03125 C 2.21875 -1.113281 2.191406 -1.179688 2.140625 -1.234375 C 2.085938 -1.285156 2 -1.34375 1.875 -1.40625 C 1.75 -1.476562 1.582031 -1.554688 1.375 -1.640625 C 1.070312 -1.765625 0.851562 -1.878906 0.71875 -1.984375 C 0.582031 -2.097656 0.476562 -2.222656 0.40625 -2.359375 C 0.34375 -2.492188 0.3125 -2.660156 0.3125 -2.859375 C 0.3125 -3.203125 0.445312 -3.46875 0.71875 -3.65625 C 0.988281 -3.84375 1.367188 -3.9375 1.859375 -3.9375 C 2.316406 -3.9375 2.769531 -3.835938 3.21875 -3.640625 L 2.890625 -2.875 C 2.703125 -2.957031 2.519531 -3.023438 2.34375 -3.078125 C 2.175781 -3.128906 2.003906 -3.15625 1.828125 -3.15625 C 1.523438 -3.15625 1.375 -3.070312 1.375 -2.90625 C 1.375 -2.8125 1.421875 -2.726562 1.515625 -2.65625 C 1.617188 -2.59375 1.835938 -2.492188 2.171875 -2.359375 C 2.472656 -2.234375 2.695312 -2.117188 2.84375 -2.015625 C 2.988281 -1.910156 3.09375 -1.785156 3.15625 -1.640625 C 3.21875 -1.503906 3.25 -1.34375 3.25 -1.15625 Z M 3.25 -1.15625 "/></g></g></g><g fill="#000000" fill-opacity="1"><g transform="translate(336.190444, 276.34546)"><g><path d="M 10.40625 0 L 1.859375 0 L 1.859375 -14.828125 L 10.40625 -14.828125 L 10.40625 -12.25 L 5.015625 -12.25 L 5.015625 -9 L 10.03125 -9 L 10.03125 -6.421875 L 5.015625 -6.421875 L 5.015625 -2.59375 L 10.40625 -2.59375 Z M 10.40625 0 "/></g></g><g transform="translate(347.831085, 276.34546)"><g><path d="M 12.09375 0 L 9 0 L 9 -6.625 C 9 -7.445312 8.851562 -8.0625 8.5625 -8.46875 C 8.269531 -8.875 7.804688 -9.078125 7.171875 -9.078125 C 6.304688 -9.078125 5.679688 -8.785156 5.296875 -8.203125 C 4.910156 -7.628906 4.71875 -6.675781 4.71875 -5.34375 L 4.71875 0 L 1.625 0 L 1.625 -11.34375 L 3.984375 -11.34375 L 4.40625 -9.890625 L 4.578125 -9.890625 C 4.921875 -10.441406 5.394531 -10.859375 6 -11.140625 C 6.601562 -11.421875 7.289062 -11.5625 8.0625 -11.5625 C 9.382812 -11.5625 10.382812 -11.203125 11.0625 -10.484375 C 11.75 -9.773438 12.09375 -8.742188 12.09375 -7.390625 Z M 12.09375 0 "/></g></g><g transform="translate(361.491332, 276.34546)"><g><path d="M 6.40625 -2.265625 C 6.945312 -2.265625 7.59375 -2.382812 8.34375 -2.625 L 8.34375 -0.3125 C 7.570312 0.03125 6.628906 0.203125 5.515625 0.203125 C 4.273438 0.203125 3.367188 -0.109375 2.796875 -0.734375 C 2.234375 -1.359375 1.953125 -2.296875 1.953125 -3.546875 L 1.953125 -9.015625 L 0.484375 -9.015625 L 0.484375 -10.328125 L 2.1875 -11.359375 L 3.078125 -13.765625 L 5.046875 -13.765625 L 5.046875 -11.34375 L 8.234375 -11.34375 L 8.234375 -9.015625 L 5.046875 -9.015625 L 5.046875 -3.546875 C 5.046875 -3.109375 5.171875 -2.785156 5.421875 -2.578125 C 5.671875 -2.367188 6 -2.265625 6.40625 -2.265625 Z M 6.40625 -2.265625 "/></g></g><g transform="translate(370.51359, 276.34546)"><g><path d="M 7.953125 -11.5625 C 8.367188 -11.5625 8.71875 -11.53125 9 -11.46875 L 8.765625 -8.5625 C 8.515625 -8.632812 8.210938 -8.671875 7.859375 -8.671875 C 6.867188 -8.671875 6.097656 -8.414062 5.546875 -7.90625 C 4.992188 -7.394531 4.71875 -6.6875 4.71875 -5.78125 L 4.71875 0 L 1.625 0 L 1.625 -11.34375 L 3.96875 -11.34375 L 4.421875 -9.4375 L 4.578125 -9.4375 C 4.929688 -10.070312 5.40625 -10.582031 6 -10.96875 C 6.601562 -11.363281 7.253906 -11.5625 7.953125 -11.5625 Z M 7.953125 -11.5625 "/></g></g><g transform="translate(379.951948, 276.34546)"><g><path d="M 6.328125 -9.359375 C 5.671875 -9.359375 5.15625 -9.148438 4.78125 -8.734375 C 4.40625 -8.316406 4.191406 -7.722656 4.140625 -6.953125 L 8.484375 -6.953125 C 8.472656 -7.722656 8.273438 -8.316406 7.890625 -8.734375 C 7.503906 -9.148438 6.984375 -9.359375 6.328125 -9.359375 Z M 6.765625 0.203125 C 4.929688 0.203125 3.5 -0.300781 2.46875 -1.3125 C 1.445312 -2.320312 0.9375 -3.75 0.9375 -5.59375 C 0.9375 -7.488281 1.410156 -8.957031 2.359375 -10 C 3.304688 -11.039062 4.617188 -11.5625 6.296875 -11.5625 C 7.898438 -11.5625 9.148438 -11.101562 10.046875 -10.1875 C 10.941406 -9.269531 11.390625 -8.007812 11.390625 -6.40625 L 11.390625 -4.90625 L 4.0625 -4.90625 C 4.101562 -4.019531 4.363281 -3.328125 4.84375 -2.828125 C 5.332031 -2.335938 6.019531 -2.09375 6.90625 -2.09375 C 7.582031 -2.09375 8.222656 -2.164062 8.828125 -2.3125 C 9.441406 -2.457031 10.082031 -2.6875 10.75 -3 L 10.75 -0.59375 C 10.207031 -0.320312 9.628906 -0.125 9.015625 0 C 8.398438 0.132812 7.648438 0.203125 6.765625 0.203125 Z M 6.765625 0.203125 "/></g></g><g transform="translate(392.231962, 276.34546)"><g><path d="M 7.859375 0.203125 C 6.523438 0.203125 5.476562 -0.28125 4.71875 -1.25 L 4.5625 -1.25 C 4.664062 -0.300781 4.71875 0.242188 4.71875 0.390625 L 4.71875 5 L 1.625 5 L 1.625 -11.34375 L 4.140625 -11.34375 L 4.578125 -9.875 L 4.71875 -9.875 C 5.4375 -11 6.507812 -11.5625 7.9375 -11.5625 C 9.269531 -11.5625 10.316406 -11.039062 11.078125 -10 C 11.835938 -8.96875 12.21875 -7.53125 12.21875 -5.6875 C 12.21875 -4.476562 12.039062 -3.425781 11.6875 -2.53125 C 11.332031 -1.644531 10.828125 -0.96875 10.171875 -0.5 C 9.515625 -0.03125 8.742188 0.203125 7.859375 0.203125 Z M 6.9375 -9.078125 C 6.175781 -9.078125 5.617188 -8.84375 5.265625 -8.375 C 4.910156 -7.90625 4.726562 -7.128906 4.71875 -6.046875 L 4.71875 -5.71875 C 4.71875 -4.5 4.894531 -3.625 5.25 -3.09375 C 5.613281 -2.5625 6.191406 -2.296875 6.984375 -2.296875 C 8.367188 -2.296875 9.0625 -3.441406 9.0625 -5.734375 C 9.0625 -6.847656 8.890625 -7.679688 8.546875 -8.234375 C 8.203125 -8.796875 7.664062 -9.078125 6.9375 -9.078125 Z M 6.9375 -9.078125 "/></g></g><g transform="translate(405.38477, 276.34546)"><g><path d="M 7.953125 -11.5625 C 8.367188 -11.5625 8.71875 -11.53125 9 -11.46875 L 8.765625 -8.5625 C 8.515625 -8.632812 8.210938 -8.671875 7.859375 -8.671875 C 6.867188 -8.671875 6.097656 -8.414062 5.546875 -7.90625 C 4.992188 -7.394531 4.71875 -6.6875 4.71875 -5.78125 L 4.71875 0 L 1.625 0 L 1.625 -11.34375 L 3.96875 -11.34375 L 4.421875 -9.4375 L 4.578125 -9.4375 C 4.929688 -10.070312 5.40625 -10.582031 6 -10.96875 C 6.601562 -11.363281 7.253906 -11.5625 7.953125 -11.5625 Z M 7.953125 -11.5625 "/></g></g><g transform="translate(414.823128, 276.34546)"><g><path d="M 1.484375 -14.28125 C 1.484375 -15.28125 2.046875 -15.78125 3.171875 -15.78125 C 4.296875 -15.78125 4.859375 -15.28125 4.859375 -14.28125 C 4.859375 -13.800781 4.71875 -13.425781 4.4375 -13.15625 C 4.15625 -12.882812 3.734375 -12.75 3.171875 -12.75 C 2.046875 -12.75 1.484375 -13.257812 1.484375 -14.28125 Z M 4.71875 0 L 1.625 0 L 1.625 -11.34375 L 4.71875 -11.34375 Z M 4.71875 0 "/></g></g><g transform="translate(421.16611, 276.34546)"><g><path d="M 9.53125 -3.375 C 9.53125 -2.207031 9.125 -1.316406 8.3125 -0.703125 C 7.507812 -0.0976562 6.304688 0.203125 4.703125 0.203125 C 3.867188 0.203125 3.160156 0.144531 2.578125 0.03125 C 2.003906 -0.0703125 1.460938 -0.234375 0.953125 -0.453125 L 0.953125 -3.015625 C 1.523438 -2.742188 2.171875 -2.515625 2.890625 -2.328125 C 3.617188 -2.148438 4.253906 -2.0625 4.796875 -2.0625 C 5.921875 -2.0625 6.484375 -2.382812 6.484375 -3.03125 C 6.484375 -3.28125 6.40625 -3.476562 6.25 -3.625 C 6.101562 -3.78125 5.847656 -3.953125 5.484375 -4.140625 C 5.117188 -4.335938 4.632812 -4.5625 4.03125 -4.8125 C 3.15625 -5.1875 2.507812 -5.523438 2.09375 -5.828125 C 1.6875 -6.140625 1.390625 -6.5 1.203125 -6.90625 C 1.023438 -7.3125 0.9375 -7.804688 0.9375 -8.390625 C 0.9375 -9.398438 1.328125 -10.179688 2.109375 -10.734375 C 2.890625 -11.285156 3.992188 -11.5625 5.421875 -11.5625 C 6.796875 -11.5625 8.128906 -11.265625 9.421875 -10.671875 L 8.484375 -8.4375 C 7.910156 -8.675781 7.378906 -8.875 6.890625 -9.03125 C 6.398438 -9.1875 5.894531 -9.265625 5.375 -9.265625 C 4.46875 -9.265625 4.015625 -9.019531 4.015625 -8.53125 C 4.015625 -8.25 4.160156 -8.003906 4.453125 -7.796875 C 4.742188 -7.597656 5.382812 -7.300781 6.375 -6.90625 C 7.269531 -6.539062 7.921875 -6.203125 8.328125 -5.890625 C 8.742188 -5.578125 9.046875 -5.21875 9.234375 -4.8125 C 9.429688 -4.414062 9.53125 -3.9375 9.53125 -3.375 Z M 9.53125 -3.375 "/></g></g><g transform="translate(431.49756, 276.34546)"><g><path d="M 6.328125 -9.359375 C 5.671875 -9.359375 5.15625 -9.148438 4.78125 -8.734375 C 4.40625 -8.316406 4.191406 -7.722656 4.140625 -6.953125 L 8.484375 -6.953125 C 8.472656 -7.722656 8.273438 -8.316406 7.890625 -8.734375 C 7.503906 -9.148438 6.984375 -9.359375 6.328125 -9.359375 Z M 6.765625 0.203125 C 4.929688 0.203125 3.5 -0.300781 2.46875 -1.3125 C 1.445312 -2.320312 0.9375 -3.75 0.9375 -5.59375 C 0.9375 -7.488281 1.410156 -8.957031 2.359375 -10 C 3.304688 -11.039062 4.617188 -11.5625 6.296875 -11.5625 C 7.898438 -11.5625 9.148438 -11.101562 10.046875 -10.1875 C 10.941406 -9.269531 11.390625 -8.007812 11.390625 -6.40625 L 11.390625 -4.90625 L 4.0625 -4.90625 C 4.101562 -4.019531 4.363281 -3.328125 4.84375 -2.828125 C 5.332031 -2.335938 6.019531 -2.09375 6.90625 -2.09375 C 7.582031 -2.09375 8.222656 -2.164062 8.828125 -2.3125 C 9.441406 -2.457031 10.082031 -2.6875 10.75 -3 L 10.75 -0.59375 C 10.207031 -0.320312 9.628906 -0.125 9.015625 0 C 8.398438 0.132812 7.648438 0.203125 6.765625 0.203125 Z M 6.765625 0.203125 "/></g></g><g transform="translate(443.777573, 276.34546)"><g><path d="M 9.53125 -3.375 C 9.53125 -2.207031 9.125 -1.316406 8.3125 -0.703125 C 7.507812 -0.0976562 6.304688 0.203125 4.703125 0.203125 C 3.867188 0.203125 3.160156 0.144531 2.578125 0.03125 C 2.003906 -0.0703125 1.460938 -0.234375 0.953125 -0.453125 L 0.953125 -3.015625 C 1.523438 -2.742188 2.171875 -2.515625 2.890625 -2.328125 C 3.617188 -2.148438 4.253906 -2.0625 4.796875 -2.0625 C 5.921875 -2.0625 6.484375 -2.382812 6.484375 -3.03125 C 6.484375 -3.28125 6.40625 -3.476562 6.25 -3.625 C 6.101562 -3.78125 5.847656 -3.953125 5.484375 -4.140625 C 5.117188 -4.335938 4.632812 -4.5625 4.03125 -4.8125 C 3.15625 -5.1875 2.507812 -5.523438 2.09375 -5.828125 C 1.6875 -6.140625 1.390625 -6.5 1.203125 -6.90625 C 1.023438 -7.3125 0.9375 -7.804688 0.9375 -8.390625 C 0.9375 -9.398438 1.328125 -10.179688 2.109375 -10.734375 C 2.890625 -11.285156 3.992188 -11.5625 5.421875 -11.5625 C 6.796875 -11.5625 8.128906 -11.265625 9.421875 -10.671875 L 8.484375 -8.4375 C 7.910156 -8.675781 7.378906 -8.875 6.890625 -9.03125 C 6.398438 -9.1875 5.894531 -9.265625 5.375 -9.265625 C 4.46875 -9.265625 4.015625 -9.019531 4.015625 -8.53125 C 4.015625 -8.25 4.160156 -8.003906 4.453125 -7.796875 C 4.742188 -7.597656 5.382812 -7.300781 6.375 -6.90625 C 7.269531 -6.539062 7.921875 -6.203125 8.328125 -5.890625 C 8.742188 -5.578125 9.046875 -5.21875 9.234375 -4.8125 C 9.429688 -4.414062 9.53125 -3.9375 9.53125 -3.375 Z M 9.53125 -3.375 "/></g></g></g><g fill="#000000" fill-opacity="1"><g transform="translate(364.735235, 207.902831)"><g><path d="M 5.46875 0 L 4.9375 -1.765625 L 2.234375 -1.765625 L 1.6875 0 L 0 0 L 2.625 -7.453125 L 4.546875 -7.453125 L 7.171875 0 Z M 4.5625 -3.078125 C 4.0625 -4.679688 3.78125 -5.585938 3.71875 -5.796875 C 3.65625 -6.003906 3.613281 -6.171875 3.59375 -6.296875 C 3.476562 -5.859375 3.15625 -4.785156 2.625 -3.078125 Z M 4.5625 -3.078125 "/></g></g><g transform="translate(371.905343, 207.902831)"><g><path d="M 4.765625 -1.6875 C 4.765625 -1.101562 4.5625 -0.660156 4.15625 -0.359375 C 3.757812 -0.0546875 3.15625 0.09375 2.34375 0.09375 C 1.9375 0.09375 1.585938 0.0664062 1.296875 0.015625 C 1.003906 -0.0351562 0.734375 -0.117188 0.484375 -0.234375 L 0.484375 -1.5 C 0.765625 -1.363281 1.082031 -1.25 1.4375 -1.15625 C 1.800781 -1.070312 2.125 -1.03125 2.40625 -1.03125 C 2.957031 -1.03125 3.234375 -1.191406 3.234375 -1.515625 C 3.234375 -1.640625 3.195312 -1.738281 3.125 -1.8125 C 3.050781 -1.882812 2.921875 -1.96875 2.734375 -2.0625 C 2.554688 -2.164062 2.316406 -2.28125 2.015625 -2.40625 C 1.578125 -2.59375 1.253906 -2.765625 1.046875 -2.921875 C 0.847656 -3.078125 0.703125 -3.253906 0.609375 -3.453125 C 0.515625 -3.648438 0.46875 -3.898438 0.46875 -4.203125 C 0.46875 -4.703125 0.660156 -5.085938 1.046875 -5.359375 C 1.441406 -5.640625 2 -5.78125 2.71875 -5.78125 C 3.394531 -5.78125 4.054688 -5.628906 4.703125 -5.328125 L 4.234375 -4.21875 C 3.953125 -4.34375 3.6875 -4.441406 3.4375 -4.515625 C 3.195312 -4.585938 2.945312 -4.625 2.6875 -4.625 C 2.226562 -4.625 2 -4.503906 2 -4.265625 C 2 -4.117188 2.070312 -3.992188 2.21875 -3.890625 C 2.375 -3.796875 2.695312 -3.648438 3.1875 -3.453125 C 3.632812 -3.273438 3.957031 -3.109375 4.15625 -2.953125 C 4.363281 -2.796875 4.515625 -2.613281 4.609375 -2.40625 C 4.710938 -2.207031 4.765625 -1.96875 4.765625 -1.6875 Z M 4.765625 -1.6875 "/></g></g><g transform="translate(377.071067, 207.902831)"><g><path d="M 4.765625 -1.6875 C 4.765625 -1.101562 4.5625 -0.660156 4.15625 -0.359375 C 3.757812 -0.0546875 3.15625 0.09375 2.34375 0.09375 C 1.9375 0.09375 1.585938 0.0664062 1.296875 0.015625 C 1.003906 -0.0351562 0.734375 -0.117188 0.484375 -0.234375 L 0.484375 -1.5 C 0.765625 -1.363281 1.082031 -1.25 1.4375 -1.15625 C 1.800781 -1.070312 2.125 -1.03125 2.40625 -1.03125 C 2.957031 -1.03125 3.234375 -1.191406 3.234375 -1.515625 C 3.234375 -1.640625 3.195312 -1.738281 3.125 -1.8125 C 3.050781 -1.882812 2.921875 -1.96875 2.734375 -2.0625 C 2.554688 -2.164062 2.316406 -2.28125 2.015625 -2.40625 C 1.578125 -2.59375 1.253906 -2.765625 1.046875 -2.921875 C 0.847656 -3.078125 0.703125 -3.253906 0.609375 -3.453125 C 0.515625 -3.648438 0.46875 -3.898438 0.46875 -4.203125 C 0.46875 -4.703125 0.660156 -5.085938 1.046875 -5.359375 C 1.441406 -5.640625 2 -5.78125 2.71875 -5.78125 C 3.394531 -5.78125 4.054688 -5.628906 4.703125 -5.328125 L 4.234375 -4.21875 C 3.953125 -4.34375 3.6875 -4.441406 3.4375 -4.515625 C 3.195312 -4.585938 2.945312 -4.625 2.6875 -4.625 C 2.226562 -4.625 2 -4.503906 2 -4.265625 C 2 -4.117188 2.070312 -3.992188 2.21875 -3.890625 C 2.375 -3.796875 2.695312 -3.648438 3.1875 -3.453125 C 3.632812 -3.273438 3.957031 -3.109375 4.15625 -2.953125 C 4.363281 -2.796875 4.515625 -2.613281 4.609375 -2.40625 C 4.710938 -2.207031 4.765625 -1.96875 4.765625 -1.6875 Z M 4.765625 -1.6875 "/></g></g><g transform="translate(382.236792, 207.902831)"><g><path d="M 2.046875 -2.84375 C 2.046875 -2.28125 2.132812 -1.851562 2.3125 -1.5625 C 2.5 -1.28125 2.800781 -1.140625 3.21875 -1.140625 C 3.632812 -1.140625 3.929688 -1.28125 4.109375 -1.5625 C 4.296875 -1.851562 4.390625 -2.28125 4.390625 -2.84375 C 4.390625 -3.40625 4.296875 -3.828125 4.109375 -4.109375 C 3.921875 -4.390625 3.625 -4.53125 3.21875 -4.53125 C 2.800781 -4.53125 2.5 -4.390625 2.3125 -4.109375 C 2.132812 -3.828125 2.046875 -3.40625 2.046875 -2.84375 Z M 5.96875 -2.84375 C 5.96875 -1.925781 5.722656 -1.207031 5.234375 -0.6875 C 4.742188 -0.164062 4.066406 0.09375 3.203125 0.09375 C 2.660156 0.09375 2.179688 -0.0195312 1.765625 -0.25 C 1.347656 -0.488281 1.023438 -0.832031 0.796875 -1.28125 C 0.578125 -1.726562 0.46875 -2.25 0.46875 -2.84375 C 0.46875 -3.769531 0.707031 -4.488281 1.1875 -5 C 1.675781 -5.519531 2.359375 -5.78125 3.234375 -5.78125 C 3.773438 -5.78125 4.253906 -5.660156 4.671875 -5.421875 C 5.085938 -5.179688 5.40625 -4.835938 5.625 -4.390625 C 5.851562 -3.953125 5.96875 -3.4375 5.96875 -2.84375 Z M 5.96875 -2.84375 "/></g></g><g transform="translate(388.671114, 207.902831)"><g><path d="M 3.109375 0.09375 C 1.347656 0.09375 0.46875 -0.875 0.46875 -2.8125 C 0.46875 -3.769531 0.707031 -4.503906 1.1875 -5.015625 C 1.664062 -5.523438 2.351562 -5.78125 3.25 -5.78125 C 3.90625 -5.78125 4.492188 -5.648438 5.015625 -5.390625 L 4.5625 -4.203125 C 4.320312 -4.296875 4.09375 -4.375 3.875 -4.4375 C 3.664062 -4.5 3.457031 -4.53125 3.25 -4.53125 C 2.445312 -4.53125 2.046875 -3.957031 2.046875 -2.8125 C 2.046875 -1.707031 2.445312 -1.15625 3.25 -1.15625 C 3.550781 -1.15625 3.828125 -1.191406 4.078125 -1.265625 C 4.328125 -1.347656 4.582031 -1.472656 4.84375 -1.640625 L 4.84375 -0.3125 C 4.59375 -0.15625 4.335938 -0.0507812 4.078125 0 C 3.828125 0.0625 3.503906 0.09375 3.109375 0.09375 Z M 3.109375 0.09375 "/></g></g><g transform="translate(394.014442, 207.902831)"><g><path d="M 0.75 -7.140625 C 0.75 -7.640625 1.03125 -7.890625 1.59375 -7.890625 C 2.15625 -7.890625 2.4375 -7.640625 2.4375 -7.140625 C 2.4375 -6.898438 2.363281 -6.710938 2.21875 -6.578125 C 2.082031 -6.441406 1.875 -6.375 1.59375 -6.375 C 1.03125 -6.375 0.75 -6.628906 0.75 -7.140625 Z M 2.359375 0 L 0.8125 0 L 0.8125 -5.671875 L 2.359375 -5.671875 Z M 2.359375 0 "/></g></g><g transform="translate(397.185933, 207.902831)"><g><path d="M 4.40625 0 L 4.109375 -0.765625 L 4.078125 -0.765625 C 3.816406 -0.441406 3.546875 -0.21875 3.265625 -0.09375 C 2.992188 0.03125 2.632812 0.09375 2.1875 0.09375 C 1.644531 0.09375 1.21875 -0.0546875 0.90625 -0.359375 C 0.59375 -0.671875 0.4375 -1.113281 0.4375 -1.6875 C 0.4375 -2.289062 0.644531 -2.734375 1.0625 -3.015625 C 1.488281 -3.304688 2.125 -3.46875 2.96875 -3.5 L 3.953125 -3.53125 L 3.953125 -3.78125 C 3.953125 -4.351562 3.660156 -4.640625 3.078125 -4.640625 C 2.617188 -4.640625 2.082031 -4.503906 1.46875 -4.234375 L 0.96875 -5.28125 C 1.613281 -5.613281 2.335938 -5.78125 3.140625 -5.78125 C 3.898438 -5.78125 4.484375 -5.613281 4.890625 -5.28125 C 5.296875 -4.957031 5.5 -4.457031 5.5 -3.78125 L 5.5 0 Z M 3.953125 -2.625 L 3.359375 -2.609375 C 2.910156 -2.597656 2.578125 -2.515625 2.359375 -2.359375 C 2.140625 -2.210938 2.03125 -1.988281 2.03125 -1.6875 C 2.03125 -1.25 2.28125 -1.03125 2.78125 -1.03125 C 3.132812 -1.03125 3.414062 -1.132812 3.625 -1.34375 C 3.84375 -1.550781 3.953125 -1.820312 3.953125 -2.15625 Z M 3.953125 -2.625 "/></g></g><g transform="translate(403.462949, 207.902831)"><g><path d="M 3.203125 -1.125 C 3.472656 -1.125 3.796875 -1.1875 4.171875 -1.3125 L 4.171875 -0.15625 C 3.785156 0.0078125 3.3125 0.09375 2.75 0.09375 C 2.132812 0.09375 1.6875 -0.0625 1.40625 -0.375 C 1.125 -0.6875 0.984375 -1.15625 0.984375 -1.78125 L 0.984375 -4.515625 L 0.234375 -4.515625 L 0.234375 -5.171875 L 1.09375 -5.6875 L 1.53125 -6.875 L 2.53125 -6.875 L 2.53125 -5.671875 L 4.109375 -5.671875 L 4.109375 -4.515625 L 2.53125 -4.515625 L 2.53125 -1.78125 C 2.53125 -1.5625 2.585938 -1.394531 2.703125 -1.28125 C 2.828125 -1.175781 2.992188 -1.125 3.203125 -1.125 Z M 3.203125 -1.125 "/></g></g><g transform="translate(407.974078, 207.902831)"><g><path d="M 0.75 -7.140625 C 0.75 -7.640625 1.03125 -7.890625 1.59375 -7.890625 C 2.15625 -7.890625 2.4375 -7.640625 2.4375 -7.140625 C 2.4375 -6.898438 2.363281 -6.710938 2.21875 -6.578125 C 2.082031 -6.441406 1.875 -6.375 1.59375 -6.375 C 1.03125 -6.375 0.75 -6.628906 0.75 -7.140625 Z M 2.359375 0 L 0.8125 0 L 0.8125 -5.671875 L 2.359375 -5.671875 Z M 2.359375 0 "/></g></g><g transform="translate(411.145569, 207.902831)"><g><path d="M 2.046875 -2.84375 C 2.046875 -2.28125 2.132812 -1.851562 2.3125 -1.5625 C 2.5 -1.28125 2.800781 -1.140625 3.21875 -1.140625 C 3.632812 -1.140625 3.929688 -1.28125 4.109375 -1.5625 C 4.296875 -1.851562 4.390625 -2.28125 4.390625 -2.84375 C 4.390625 -3.40625 4.296875 -3.828125 4.109375 -4.109375 C 3.921875 -4.390625 3.625 -4.53125 3.21875 -4.53125 C 2.800781 -4.53125 2.5 -4.390625 2.3125 -4.109375 C 2.132812 -3.828125 2.046875 -3.40625 2.046875 -2.84375 Z M 5.96875 -2.84375 C 5.96875 -1.925781 5.722656 -1.207031 5.234375 -0.6875 C 4.742188 -0.164062 4.066406 0.09375 3.203125 0.09375 C 2.660156 0.09375 2.179688 -0.0195312 1.765625 -0.25 C 1.347656 -0.488281 1.023438 -0.832031 0.796875 -1.28125 C 0.578125 -1.726562 0.46875 -2.25 0.46875 -2.84375 C 0.46875 -3.769531 0.707031 -4.488281 1.1875 -5 C 1.675781 -5.519531 2.359375 -5.78125 3.234375 -5.78125 C 3.773438 -5.78125 4.253906 -5.660156 4.671875 -5.421875 C 5.085938 -5.179688 5.40625 -4.835938 5.625 -4.390625 C 5.851562 -3.953125 5.96875 -3.4375 5.96875 -2.84375 Z M 5.96875 -2.84375 "/></g></g><g transform="translate(417.57989, 207.902831)"><g><path d="M 6.046875 0 L 4.5 0 L 4.5 -3.3125 C 4.5 -3.71875 4.425781 -4.023438 4.28125 -4.234375 C 4.132812 -4.441406 3.90625 -4.546875 3.59375 -4.546875 C 3.15625 -4.546875 2.835938 -4.398438 2.640625 -4.109375 C 2.453125 -3.816406 2.359375 -3.335938 2.359375 -2.671875 L 2.359375 0 L 0.8125 0 L 0.8125 -5.671875 L 2 -5.671875 L 2.203125 -4.953125 L 2.28125 -4.953125 C 2.457031 -5.222656 2.695312 -5.425781 3 -5.5625 C 3.300781 -5.707031 3.644531 -5.78125 4.03125 -5.78125 C 4.6875 -5.78125 5.1875 -5.597656 5.53125 -5.234375 C 5.875 -4.878906 6.046875 -4.367188 6.046875 -3.703125 Z M 6.046875 0 "/></g></g><g transform="translate(424.410014, 207.902831)"><g><path d="M 4.765625 -1.6875 C 4.765625 -1.101562 4.5625 -0.660156 4.15625 -0.359375 C 3.757812 -0.0546875 3.15625 0.09375 2.34375 0.09375 C 1.9375 0.09375 1.585938 0.0664062 1.296875 0.015625 C 1.003906 -0.0351562 0.734375 -0.117188 0.484375 -0.234375 L 0.484375 -1.5 C 0.765625 -1.363281 1.082031 -1.25 1.4375 -1.15625 C 1.800781 -1.070312 2.125 -1.03125 2.40625 -1.03125 C 2.957031 -1.03125 3.234375 -1.191406 3.234375 -1.515625 C 3.234375 -1.640625 3.195312 -1.738281 3.125 -1.8125 C 3.050781 -1.882812 2.921875 -1.96875 2.734375 -2.0625 C 2.554688 -2.164062 2.316406 -2.28125 2.015625 -2.40625 C 1.578125 -2.59375 1.253906 -2.765625 1.046875 -2.921875 C 0.847656 -3.078125 0.703125 -3.253906 0.609375 -3.453125 C 0.515625 -3.648438 0.46875 -3.898438 0.46875 -4.203125 C 0.46875 -4.703125 0.660156 -5.085938 1.046875 -5.359375 C 1.441406 -5.640625 2 -5.78125 2.71875 -5.78125 C 3.394531 -5.78125 4.054688 -5.628906 4.703125 -5.328125 L 4.234375 -4.21875 C 3.953125 -4.34375 3.6875 -4.441406 3.4375 -4.515625 C 3.195312 -4.585938 2.945312 -4.625 2.6875 -4.625 C 2.226562 -4.625 2 -4.503906 2 -4.265625 C 2 -4.117188 2.070312 -3.992188 2.21875 -3.890625 C 2.375 -3.796875 2.695312 -3.648438 3.1875 -3.453125 C 3.632812 -3.273438 3.957031 -3.109375 4.15625 -2.953125 C 4.363281 -2.796875 4.515625 -2.613281 4.609375 -2.40625 C 4.710938 -2.207031 4.765625 -1.96875 4.765625 -1.6875 Z M 4.765625 -1.6875 "/></g></g></g><g clip-path="url(#8cbad7d26b)"><g clip-path="url(#01911e1ee5)"><path stroke-linecap="butt" transform="matrix(0.000000000000000046, -0.750667, 0.752774, 0.000000000000000046, 357.54924, 256.19283)" fill="none" stroke-linejoin="miter" d="M 122.892528 52.806737 L 92.169871 105.611426 L 30.724555 105.611426 L 0.00189724 52.806737 L 30.724555 0.00204767 L 92.169871 0.00204767 L 122.892528 52.806737 " stroke="#000000" stroke-width="2" stroke-opacity="1" stroke-miterlimit="4"/></g></g><g clip-path="url(#4677d0ecfd)"><g clip-path="url(#a4018efba9)"><path stroke-linecap="butt" transform="matrix(0.000000000000000046, -0.748351, 0.748081, 0.000000000000000046, 204.981571, 247.863701)" fill="none" stroke-linejoin="miter" d="M 78.162005 33.584464 L 58.624254 67.170402 L 19.538312 67.170402 L 0.000560491 33.584464 L 19.538312 -0.0014733 L 58.624254 -0.0014733 L 78.162005 33.584464 " stroke="#000000" stroke-width="2" stroke-opacity="1" stroke-miterlimit="4"/></g></g><g clip-path="url(#2f0b652577)"><g clip-path="url(#5bc3c0cb0d)"><path stroke-linecap="butt" transform="matrix(0.000000000000000046, -0.748351, 0.748081, 0.000000000000000046, 144.083642, 247.863701)" fill="none" stroke-linejoin="miter" d="M 78.162005 33.583784 L 58.624254 67.169722 L 19.538312 67.169722 L 0.000560491 33.583784 L 19.538312 -0.00215324 L 58.624254 -0.00215324 L 78.162005 33.583784 " stroke="#000000" stroke-width="2" stroke-opacity="1" stroke-miterlimit="4"/></g></g><g fill="#000000" fill-opacity="1"><g transform="translate(144.0813, 216.782975)"><g><path d="M 3.8125 0 L 0.6875 0 L 0.6875 -5.4375 L 3.8125 -5.4375 L 3.8125 -4.484375 L 1.828125 -4.484375 L 1.828125 -3.296875 L 3.671875 -3.296875 L 3.671875 -2.359375 L 1.828125 -2.359375 L 1.828125 -0.953125 L 3.8125 -0.953125 Z M 3.8125 0 "/></g></g><g transform="translate(148.339144, 216.782975)"><g><path d="M 4.421875 0 L 3.296875 0 L 3.296875 -2.421875 C 3.296875 -2.722656 3.238281 -2.945312 3.125 -3.09375 C 3.019531 -3.25 2.851562 -3.328125 2.625 -3.328125 C 2.3125 -3.328125 2.082031 -3.21875 1.9375 -3 C 1.800781 -2.789062 1.734375 -2.441406 1.734375 -1.953125 L 1.734375 0 L 0.59375 0 L 0.59375 -4.15625 L 1.453125 -4.15625 L 1.609375 -3.625 L 1.671875 -3.625 C 1.796875 -3.820312 1.96875 -3.972656 2.1875 -4.078125 C 2.414062 -4.179688 2.671875 -4.234375 2.953125 -4.234375 C 3.429688 -4.234375 3.796875 -4.101562 4.046875 -3.84375 C 4.296875 -3.582031 4.421875 -3.203125 4.421875 -2.703125 Z M 4.421875 0 "/></g></g><g transform="translate(153.335707, 216.782975)"><g><path d="M 3.5 -1.234375 C 3.5 -0.804688 3.347656 -0.476562 3.046875 -0.25 C 2.753906 -0.03125 2.3125 0.078125 1.71875 0.078125 C 1.414062 0.078125 1.15625 0.0546875 0.9375 0.015625 C 0.726562 -0.0234375 0.53125 -0.0859375 0.34375 -0.171875 L 0.34375 -1.109375 C 0.5625 -1.003906 0.800781 -0.914062 1.0625 -0.84375 C 1.320312 -0.78125 1.550781 -0.75 1.75 -0.75 C 2.164062 -0.75 2.375 -0.867188 2.375 -1.109375 C 2.375 -1.203125 2.34375 -1.273438 2.28125 -1.328125 C 2.226562 -1.378906 2.132812 -1.441406 2 -1.515625 C 1.875 -1.585938 1.695312 -1.671875 1.46875 -1.765625 C 1.15625 -1.898438 0.921875 -2.023438 0.765625 -2.140625 C 0.617188 -2.253906 0.507812 -2.382812 0.4375 -2.53125 C 0.375 -2.675781 0.34375 -2.859375 0.34375 -3.078125 C 0.34375 -3.441406 0.484375 -3.722656 0.765625 -3.921875 C 1.054688 -4.128906 1.460938 -4.234375 1.984375 -4.234375 C 2.484375 -4.234375 2.972656 -4.125 3.453125 -3.90625 L 3.109375 -3.09375 C 2.898438 -3.175781 2.703125 -3.242188 2.515625 -3.296875 C 2.335938 -3.359375 2.15625 -3.390625 1.96875 -3.390625 C 1.632812 -3.390625 1.46875 -3.300781 1.46875 -3.125 C 1.46875 -3.019531 1.519531 -2.929688 1.625 -2.859375 C 1.738281 -2.785156 1.976562 -2.675781 2.34375 -2.53125 C 2.664062 -2.394531 2.898438 -2.269531 3.046875 -2.15625 C 3.203125 -2.039062 3.316406 -1.910156 3.390625 -1.765625 C 3.460938 -1.617188 3.5 -1.441406 3.5 -1.234375 Z M 3.5 -1.234375 "/></g></g><g transform="translate(157.114683, 216.782975)"><g><path d="M 2.3125 -3.421875 C 2.070312 -3.421875 1.882812 -3.34375 1.75 -3.1875 C 1.613281 -3.039062 1.535156 -2.828125 1.515625 -2.546875 L 3.109375 -2.546875 C 3.097656 -2.828125 3.019531 -3.039062 2.875 -3.1875 C 2.738281 -3.34375 2.550781 -3.421875 2.3125 -3.421875 Z M 2.46875 0.078125 C 1.800781 0.078125 1.28125 -0.101562 0.90625 -0.46875 C 0.53125 -0.84375 0.34375 -1.367188 0.34375 -2.046875 C 0.34375 -2.742188 0.515625 -3.28125 0.859375 -3.65625 C 1.210938 -4.039062 1.695312 -4.234375 2.3125 -4.234375 C 2.894531 -4.234375 3.347656 -4.066406 3.671875 -3.734375 C 4.003906 -3.398438 4.171875 -2.9375 4.171875 -2.34375 L 4.171875 -1.796875 L 1.484375 -1.796875 C 1.503906 -1.472656 1.601562 -1.21875 1.78125 -1.03125 C 1.957031 -0.851562 2.207031 -0.765625 2.53125 -0.765625 C 2.78125 -0.765625 3.015625 -0.789062 3.234375 -0.84375 C 3.460938 -0.894531 3.695312 -0.976562 3.9375 -1.09375 L 3.9375 -0.21875 C 3.738281 -0.125 3.523438 -0.0507812 3.296875 0 C 3.078125 0.0507812 2.800781 0.078125 2.46875 0.078125 Z M 2.46875 0.078125 "/></g></g><g transform="translate(161.606393, 216.782975)"><g><path d="M 0.546875 -5.234375 C 0.546875 -5.597656 0.75 -5.78125 1.15625 -5.78125 C 1.570312 -5.78125 1.78125 -5.597656 1.78125 -5.234375 C 1.78125 -5.054688 1.726562 -4.914062 1.625 -4.8125 C 1.519531 -4.71875 1.363281 -4.671875 1.15625 -4.671875 C 0.75 -4.671875 0.546875 -4.859375 0.546875 -5.234375 Z M 1.734375 0 L 0.59375 0 L 0.59375 -4.15625 L 1.734375 -4.15625 Z M 1.734375 0 "/></g></g><g transform="translate(163.926492, 216.782975)"><g><path d="M 4.203125 -4.15625 L 4.203125 -3.578125 L 3.5625 -3.40625 C 3.675781 -3.21875 3.734375 -3.007812 3.734375 -2.78125 C 3.734375 -2.34375 3.578125 -2 3.265625 -1.75 C 2.960938 -1.5 2.535156 -1.375 1.984375 -1.375 L 1.765625 -1.375 L 1.609375 -1.40625 C 1.492188 -1.3125 1.4375 -1.210938 1.4375 -1.109375 C 1.4375 -0.941406 1.640625 -0.859375 2.046875 -0.859375 L 2.765625 -0.859375 C 3.210938 -0.859375 3.554688 -0.757812 3.796875 -0.5625 C 4.035156 -0.363281 4.15625 -0.078125 4.15625 0.296875 C 4.15625 0.785156 3.953125 1.160156 3.546875 1.421875 C 3.148438 1.691406 2.570312 1.828125 1.8125 1.828125 C 1.226562 1.828125 0.78125 1.722656 0.46875 1.515625 C 0.164062 1.316406 0.015625 1.035156 0.015625 0.671875 C 0.015625 0.421875 0.09375 0.210938 0.25 0.046875 C 0.40625 -0.117188 0.632812 -0.238281 0.9375 -0.3125 C 0.820312 -0.363281 0.722656 -0.441406 0.640625 -0.546875 C 0.554688 -0.660156 0.515625 -0.78125 0.515625 -0.90625 C 0.515625 -1.070312 0.554688 -1.207031 0.640625 -1.3125 C 0.734375 -1.414062 0.867188 -1.519531 1.046875 -1.625 C 0.828125 -1.71875 0.648438 -1.867188 0.515625 -2.078125 C 0.390625 -2.285156 0.328125 -2.53125 0.328125 -2.8125 C 0.328125 -3.257812 0.472656 -3.609375 0.765625 -3.859375 C 1.066406 -4.109375 1.492188 -4.234375 2.046875 -4.234375 C 2.160156 -4.234375 2.296875 -4.222656 2.453125 -4.203125 C 2.609375 -4.179688 2.710938 -4.164062 2.765625 -4.15625 Z M 1 0.59375 C 1 0.75 1.070312 0.867188 1.21875 0.953125 C 1.375 1.046875 1.585938 1.09375 1.859375 1.09375 C 2.265625 1.09375 2.582031 1.035156 2.8125 0.921875 C 3.039062 0.804688 3.15625 0.65625 3.15625 0.46875 C 3.15625 0.3125 3.085938 0.203125 2.953125 0.140625 C 2.816406 0.078125 2.609375 0.046875 2.328125 0.046875 L 1.734375 0.046875 C 1.523438 0.046875 1.347656 0.09375 1.203125 0.1875 C 1.066406 0.289062 1 0.425781 1 0.59375 Z M 1.421875 -2.796875 C 1.421875 -2.566406 1.46875 -2.382812 1.5625 -2.25 C 1.664062 -2.125 1.828125 -2.0625 2.046875 -2.0625 C 2.253906 -2.0625 2.40625 -2.125 2.5 -2.25 C 2.601562 -2.382812 2.65625 -2.566406 2.65625 -2.796875 C 2.65625 -3.296875 2.453125 -3.546875 2.046875 -3.546875 C 1.628906 -3.546875 1.421875 -3.296875 1.421875 -2.796875 Z M 1.421875 -2.796875 "/></g></g><g transform="translate(168.221458, 216.782975)"><g><path d="M 4.421875 0 L 3.296875 0 L 3.296875 -2.421875 C 3.296875 -2.722656 3.238281 -2.945312 3.125 -3.09375 C 3.019531 -3.25 2.851562 -3.328125 2.625 -3.328125 C 2.3125 -3.328125 2.082031 -3.21875 1.9375 -3 C 1.800781 -2.789062 1.734375 -2.441406 1.734375 -1.953125 L 1.734375 0 L 0.59375 0 L 0.59375 -4.15625 L 1.453125 -4.15625 L 1.609375 -3.625 L 1.671875 -3.625 C 1.796875 -3.820312 1.96875 -3.972656 2.1875 -4.078125 C 2.414062 -4.179688 2.671875 -4.234375 2.953125 -4.234375 C 3.429688 -4.234375 3.796875 -4.101562 4.046875 -3.84375 C 4.296875 -3.582031 4.421875 -3.203125 4.421875 -2.703125 Z M 4.421875 0 "/></g></g><g transform="translate(173.218021, 216.782975)"><g><path d="M 3.234375 0 L 3.015625 -0.5625 L 2.984375 -0.5625 C 2.796875 -0.320312 2.597656 -0.15625 2.390625 -0.0625 C 2.191406 0.03125 1.929688 0.078125 1.609375 0.078125 C 1.203125 0.078125 0.882812 -0.0351562 0.65625 -0.265625 C 0.425781 -0.492188 0.3125 -0.816406 0.3125 -1.234375 C 0.3125 -1.679688 0.46875 -2.007812 0.78125 -2.21875 C 1.09375 -2.425781 1.554688 -2.539062 2.171875 -2.5625 L 2.890625 -2.59375 L 2.890625 -2.765625 C 2.890625 -3.191406 2.675781 -3.40625 2.25 -3.40625 C 1.914062 -3.40625 1.523438 -3.300781 1.078125 -3.09375 L 0.703125 -3.859375 C 1.179688 -4.109375 1.710938 -4.234375 2.296875 -4.234375 C 2.847656 -4.234375 3.273438 -4.113281 3.578125 -3.875 C 3.878906 -3.632812 4.03125 -3.265625 4.03125 -2.765625 L 4.03125 0 Z M 2.890625 -1.921875 L 2.453125 -1.90625 C 2.128906 -1.894531 1.882812 -1.832031 1.71875 -1.71875 C 1.5625 -1.613281 1.484375 -1.453125 1.484375 -1.234375 C 1.484375 -0.910156 1.664062 -0.75 2.03125 -0.75 C 2.289062 -0.75 2.5 -0.820312 2.65625 -0.96875 C 2.8125 -1.125 2.890625 -1.328125 2.890625 -1.578125 Z M 2.890625 -1.921875 "/></g></g><g transform="translate(177.809959, 216.782975)"><g><path d="M 4.421875 0 L 3.296875 0 L 3.296875 -2.421875 C 3.296875 -2.722656 3.238281 -2.945312 3.125 -3.09375 C 3.019531 -3.25 2.851562 -3.328125 2.625 -3.328125 C 2.3125 -3.328125 2.082031 -3.21875 1.9375 -3 C 1.800781 -2.789062 1.734375 -2.441406 1.734375 -1.953125 L 1.734375 0 L 0.59375 0 L 0.59375 -4.15625 L 1.453125 -4.15625 L 1.609375 -3.625 L 1.671875 -3.625 C 1.796875 -3.820312 1.96875 -3.972656 2.1875 -4.078125 C 2.414062 -4.179688 2.671875 -4.234375 2.953125 -4.234375 C 3.429688 -4.234375 3.796875 -4.101562 4.046875 -3.84375 C 4.296875 -3.582031 4.421875 -3.203125 4.421875 -2.703125 Z M 4.421875 0 "/></g></g><g transform="translate(182.806523, 216.782975)"><g><path d="M 2.34375 -0.828125 C 2.539062 -0.828125 2.78125 -0.867188 3.0625 -0.953125 L 3.0625 -0.109375 C 2.78125 0.015625 2.429688 0.078125 2.015625 0.078125 C 1.566406 0.078125 1.238281 -0.0351562 1.03125 -0.265625 C 0.820312 -0.492188 0.71875 -0.835938 0.71875 -1.296875 L 0.71875 -3.296875 L 0.171875 -3.296875 L 0.171875 -3.78125 L 0.796875 -4.15625 L 1.125 -5.03125 L 1.84375 -5.03125 L 1.84375 -4.15625 L 3.015625 -4.15625 L 3.015625 -3.296875 L 1.84375 -3.296875 L 1.84375 -1.296875 C 1.84375 -1.140625 1.890625 -1.019531 1.984375 -0.9375 C 2.078125 -0.863281 2.195312 -0.828125 2.34375 -0.828125 Z M 2.34375 -0.828125 "/></g></g><g transform="translate(186.106631, 216.782975)"><g><path d="M 3.5 -1.234375 C 3.5 -0.804688 3.347656 -0.476562 3.046875 -0.25 C 2.753906 -0.03125 2.3125 0.078125 1.71875 0.078125 C 1.414062 0.078125 1.15625 0.0546875 0.9375 0.015625 C 0.726562 -0.0234375 0.53125 -0.0859375 0.34375 -0.171875 L 0.34375 -1.109375 C 0.5625 -1.003906 0.800781 -0.914062 1.0625 -0.84375 C 1.320312 -0.78125 1.550781 -0.75 1.75 -0.75 C 2.164062 -0.75 2.375 -0.867188 2.375 -1.109375 C 2.375 -1.203125 2.34375 -1.273438 2.28125 -1.328125 C 2.226562 -1.378906 2.132812 -1.441406 2 -1.515625 C 1.875 -1.585938 1.695312 -1.671875 1.46875 -1.765625 C 1.15625 -1.898438 0.921875 -2.023438 0.765625 -2.140625 C 0.617188 -2.253906 0.507812 -2.382812 0.4375 -2.53125 C 0.375 -2.675781 0.34375 -2.859375 0.34375 -3.078125 C 0.34375 -3.441406 0.484375 -3.722656 0.765625 -3.921875 C 1.054688 -4.128906 1.460938 -4.234375 1.984375 -4.234375 C 2.484375 -4.234375 2.972656 -4.125 3.453125 -3.90625 L 3.109375 -3.09375 C 2.898438 -3.175781 2.703125 -3.242188 2.515625 -3.296875 C 2.335938 -3.359375 2.15625 -3.390625 1.96875 -3.390625 C 1.632812 -3.390625 1.46875 -3.300781 1.46875 -3.125 C 1.46875 -3.019531 1.519531 -2.929688 1.625 -2.859375 C 1.738281 -2.785156 1.976562 -2.675781 2.34375 -2.53125 C 2.664062 -2.394531 2.898438 -2.269531 3.046875 -2.15625 C 3.203125 -2.039062 3.316406 -1.910156 3.390625 -1.765625 C 3.460938 -1.617188 3.5 -1.441406 3.5 -1.234375 Z M 3.5 -1.234375 "/></g></g></g><g clip-path="url(#1695fd37e2)"><g clip-path="url(#8c464a7b67)"><path stroke-linecap="butt" transform="matrix(0.000000000000000046, -0.749216, 0.751155, 0.000000000000000046, 230.17309, 197.735989)" fill="none" stroke-linejoin="miter" d="M 224.236546 96.34995 L 168.177948 192.701518 L 56.060752 192.701518 L 0.00215478 96.34995 L 56.060752 -0.00161716 L 168.177948 -0.00161716 L 224.236546 96.34995 " stroke="#000000" stroke-width="2" stroke-opacity="1" stroke-miterlimit="4"/></g></g><g fill="#000000" fill-opacity="1"><g transform="translate(242.066754, 121.605254)"><g><path d="M 4.96875 0 L 1.859375 0 L 1.859375 -14.828125 L 10.375 -14.828125 L 10.375 -12.25 L 4.96875 -12.25 L 4.96875 -8.4375 L 10 -8.4375 L 10 -5.859375 L 4.96875 -5.859375 Z M 4.96875 0 "/></g></g><g transform="translate(253.473974, 121.605254)"><g><path d="M 7.953125 -11.5625 C 8.367188 -11.5625 8.71875 -11.53125 9 -11.46875 L 8.765625 -8.5625 C 8.515625 -8.632812 8.210938 -8.671875 7.859375 -8.671875 C 6.867188 -8.671875 6.097656 -8.414062 5.546875 -7.90625 C 4.992188 -7.394531 4.71875 -6.6875 4.71875 -5.78125 L 4.71875 0 L 1.625 0 L 1.625 -11.34375 L 3.96875 -11.34375 L 4.421875 -9.4375 L 4.578125 -9.4375 C 4.929688 -10.070312 5.40625 -10.582031 6 -10.96875 C 6.601562 -11.363281 7.253906 -11.5625 7.953125 -11.5625 Z M 7.953125 -11.5625 "/></g></g><g transform="translate(262.912332, 121.605254)"><g><path d="M 8.828125 0 L 8.234375 -1.546875 L 8.140625 -1.546875 C 7.617188 -0.890625 7.082031 -0.429688 6.53125 -0.171875 C 5.988281 0.078125 5.273438 0.203125 4.390625 0.203125 C 3.296875 0.203125 2.4375 -0.109375 1.8125 -0.734375 C 1.1875 -1.359375 0.875 -2.242188 0.875 -3.390625 C 0.875 -4.597656 1.296875 -5.484375 2.140625 -6.046875 C 2.984375 -6.617188 4.253906 -6.9375 5.953125 -7 L 7.921875 -7.0625 L 7.921875 -7.5625 C 7.921875 -8.707031 7.332031 -9.28125 6.15625 -9.28125 C 5.25 -9.28125 4.179688 -9.007812 2.953125 -8.46875 L 1.921875 -10.546875 C 3.234375 -11.234375 4.679688 -11.578125 6.265625 -11.578125 C 7.785156 -11.578125 8.953125 -11.242188 9.765625 -10.578125 C 10.578125 -9.921875 10.984375 -8.914062 10.984375 -7.5625 L 10.984375 0 Z M 7.921875 -5.25 L 6.71875 -5.21875 C 5.820312 -5.1875 5.148438 -5.019531 4.703125 -4.71875 C 4.265625 -4.425781 4.046875 -3.976562 4.046875 -3.375 C 4.046875 -2.5 4.546875 -2.0625 5.546875 -2.0625 C 6.265625 -2.0625 6.835938 -2.265625 7.265625 -2.671875 C 7.703125 -3.085938 7.921875 -3.640625 7.921875 -4.328125 Z M 7.921875 -5.25 "/></g></g><g transform="translate(275.466363, 121.605254)"><g><path d="M 12.09375 0 L 9 0 L 9 -6.625 C 9 -7.445312 8.851562 -8.0625 8.5625 -8.46875 C 8.269531 -8.875 7.804688 -9.078125 7.171875 -9.078125 C 6.304688 -9.078125 5.679688 -8.785156 5.296875 -8.203125 C 4.910156 -7.628906 4.71875 -6.675781 4.71875 -5.34375 L 4.71875 0 L 1.625 0 L 1.625 -11.34375 L 3.984375 -11.34375 L 4.40625 -9.890625 L 4.578125 -9.890625 C 4.921875 -10.441406 5.394531 -10.859375 6 -11.140625 C 6.601562 -11.421875 7.289062 -11.5625 8.0625 -11.5625 C 9.382812 -11.5625 10.382812 -11.203125 11.0625 -10.484375 C 11.75 -9.773438 12.09375 -8.742188 12.09375 -7.390625 Z M 12.09375 0 "/></g></g><g transform="translate(289.126609, 121.605254)"><g><path d="M 6.234375 0.203125 C 2.703125 0.203125 0.9375 -1.734375 0.9375 -5.609375 C 0.9375 -7.535156 1.414062 -9.007812 2.375 -10.03125 C 3.332031 -11.050781 4.707031 -11.5625 6.5 -11.5625 C 7.8125 -11.5625 8.988281 -11.300781 10.03125 -10.78125 L 9.125 -8.390625 C 8.632812 -8.585938 8.179688 -8.75 7.765625 -8.875 C 7.347656 -9 6.925781 -9.0625 6.5 -9.0625 C 4.894531 -9.0625 4.09375 -7.914062 4.09375 -5.625 C 4.09375 -3.40625 4.894531 -2.296875 6.5 -2.296875 C 7.09375 -2.296875 7.644531 -2.375 8.15625 -2.53125 C 8.664062 -2.695312 9.175781 -2.945312 9.6875 -3.28125 L 9.6875 -0.640625 C 9.175781 -0.316406 8.664062 -0.0976562 8.15625 0.015625 C 7.644531 0.140625 7.003906 0.203125 6.234375 0.203125 Z M 6.234375 0.203125 "/></g></g><g transform="translate(299.813266, 121.605254)"><g><path d="M 1.484375 -14.28125 C 1.484375 -15.28125 2.046875 -15.78125 3.171875 -15.78125 C 4.296875 -15.78125 4.859375 -15.28125 4.859375 -14.28125 C 4.859375 -13.800781 4.71875 -13.425781 4.4375 -13.15625 C 4.15625 -12.882812 3.734375 -12.75 3.171875 -12.75 C 2.046875 -12.75 1.484375 -13.257812 1.484375 -14.28125 Z M 4.71875 0 L 1.625 0 L 1.625 -11.34375 L 4.71875 -11.34375 Z M 4.71875 0 "/></g></g><g transform="translate(306.156249, 121.605254)"><g><path d="M 4.71875 0 L 1.625 0 L 1.625 -15.78125 L 4.71875 -15.78125 Z M 4.71875 0 "/></g></g><g transform="translate(312.499231, 121.605254)"><g><path d="M 1.484375 -14.28125 C 1.484375 -15.28125 2.046875 -15.78125 3.171875 -15.78125 C 4.296875 -15.78125 4.859375 -15.28125 4.859375 -14.28125 C 4.859375 -13.800781 4.71875 -13.425781 4.4375 -13.15625 C 4.15625 -12.882812 3.734375 -12.75 3.171875 -12.75 C 2.046875 -12.75 1.484375 -13.257812 1.484375 -14.28125 Z M 4.71875 0 L 1.625 0 L 1.625 -11.34375 L 4.71875 -11.34375 Z M 4.71875 0 "/></g></g><g transform="translate(318.842213, 121.605254)"><g><path d="M 6.328125 -9.359375 C 5.671875 -9.359375 5.15625 -9.148438 4.78125 -8.734375 C 4.40625 -8.316406 4.191406 -7.722656 4.140625 -6.953125 L 8.484375 -6.953125 C 8.472656 -7.722656 8.273438 -8.316406 7.890625 -8.734375 C 7.503906 -9.148438 6.984375 -9.359375 6.328125 -9.359375 Z M 6.765625 0.203125 C 4.929688 0.203125 3.5 -0.300781 2.46875 -1.3125 C 1.445312 -2.320312 0.9375 -3.75 0.9375 -5.59375 C 0.9375 -7.488281 1.410156 -8.957031 2.359375 -10 C 3.304688 -11.039062 4.617188 -11.5625 6.296875 -11.5625 C 7.898438 -11.5625 9.148438 -11.101562 10.046875 -10.1875 C 10.941406 -9.269531 11.390625 -8.007812 11.390625 -6.40625 L 11.390625 -4.90625 L 4.0625 -4.90625 C 4.101562 -4.019531 4.363281 -3.328125 4.84375 -2.828125 C 5.332031 -2.335938 6.019531 -2.09375 6.90625 -2.09375 C 7.582031 -2.09375 8.222656 -2.164062 8.828125 -2.3125 C 9.441406 -2.457031 10.082031 -2.6875 10.75 -3 L 10.75 -0.59375 C 10.207031 -0.320312 9.628906 -0.125 9.015625 0 C 8.398438 0.132812 7.648438 0.203125 6.765625 0.203125 Z M 6.765625 0.203125 "/></g></g><g transform="translate(331.122227, 121.605254)"><g><path d="M 12.09375 0 L 9 0 L 9 -6.625 C 9 -7.445312 8.851562 -8.0625 8.5625 -8.46875 C 8.269531 -8.875 7.804688 -9.078125 7.171875 -9.078125 C 6.304688 -9.078125 5.679688 -8.785156 5.296875 -8.203125 C 4.910156 -7.628906 4.71875 -6.675781 4.71875 -5.34375 L 4.71875 0 L 1.625 0 L 1.625 -11.34375 L 3.984375 -11.34375 L 4.40625 -9.890625 L 4.578125 -9.890625 C 4.921875 -10.441406 5.394531 -10.859375 6 -11.140625 C 6.601562 -11.421875 7.289062 -11.5625 8.0625 -11.5625 C 9.382812 -11.5625 10.382812 -11.203125 11.0625 -10.484375 C 11.75 -9.773438 12.09375 -8.742188 12.09375 -7.390625 Z M 12.09375 0 "/></g></g><g transform="translate(344.782474, 121.605254)"><g><path d="M 9.53125 -3.375 C 9.53125 -2.207031 9.125 -1.316406 8.3125 -0.703125 C 7.507812 -0.0976562 6.304688 0.203125 4.703125 0.203125 C 3.867188 0.203125 3.160156 0.144531 2.578125 0.03125 C 2.003906 -0.0703125 1.460938 -0.234375 0.953125 -0.453125 L 0.953125 -3.015625 C 1.523438 -2.742188 2.171875 -2.515625 2.890625 -2.328125 C 3.617188 -2.148438 4.253906 -2.0625 4.796875 -2.0625 C 5.921875 -2.0625 6.484375 -2.382812 6.484375 -3.03125 C 6.484375 -3.28125 6.40625 -3.476562 6.25 -3.625 C 6.101562 -3.78125 5.847656 -3.953125 5.484375 -4.140625 C 5.117188 -4.335938 4.632812 -4.5625 4.03125 -4.8125 C 3.15625 -5.1875 2.507812 -5.523438 2.09375 -5.828125 C 1.6875 -6.140625 1.390625 -6.5 1.203125 -6.90625 C 1.023438 -7.3125 0.9375 -7.804688 0.9375 -8.390625 C 0.9375 -9.398438 1.328125 -10.179688 2.109375 -10.734375 C 2.890625 -11.285156 3.992188 -11.5625 5.421875 -11.5625 C 6.796875 -11.5625 8.128906 -11.265625 9.421875 -10.671875 L 8.484375 -8.4375 C 7.910156 -8.675781 7.378906 -8.875 6.890625 -9.03125 C 6.398438 -9.1875 5.894531 -9.265625 5.375 -9.265625 C 4.46875 -9.265625 4.015625 -9.019531 4.015625 -8.53125 C 4.015625 -8.25 4.160156 -8.003906 4.453125 -7.796875 C 4.742188 -7.597656 5.382812 -7.300781 6.375 -6.90625 C 7.269531 -6.539062 7.921875 -6.203125 8.328125 -5.890625 C 8.742188 -5.578125 9.046875 -5.21875 9.234375 -4.8125 C 9.429688 -4.414062 9.53125 -3.9375 9.53125 -3.375 Z M 9.53125 -3.375 "/></g></g></g></svg>