<svg xmlns="http://www.w3.org/2000/svg" xmlns:xlink="http://www.w3.org/1999/xlink" width="793" zoomAndPan="magnify" viewBox="0 0 595.5 842.249979" height="1122" preserveAspectRatio="xMidYMid meet" version="1.0"><defs><g/><clipPath id="1b140f2710"><path d="M 0.015625 0 L 594.984375 0 L 594.984375 841.5 L 0.015625 841.5 Z M 0.015625 0 " clip-rule="nonzero"/></clipPath><clipPath id="eaaff17eb0"><path d="M 26.523438 187.933594 L 568.746094 187.933594 L 568.746094 653.660156 L 26.523438 653.660156 Z M 26.523438 187.933594 " clip-rule="nonzero"/></clipPath><clipPath id="7ba230f1f1"><path d="M 568.746094 420.796875 L 433.191406 653.660156 L 162.078125 653.660156 L 26.523438 420.796875 L 162.078125 187.933594 L 433.191406 187.933594 L 568.746094 420.796875 " clip-rule="nonzero"/></clipPath><clipPath id="c74e4482a4"><path d="M 106.621094 333.585938 L 275.363281 333.585938 L 275.363281 479.066406 L 106.621094 479.066406 Z M 106.621094 333.585938 " clip-rule="nonzero"/></clipPath><clipPath id="dfeb919259"><path d="M 275.363281 406.324219 L 233.175781 479.066406 L 148.804688 479.066406 L 106.621094 406.324219 L 148.804688 333.585938 L 233.175781 333.585938 L 275.363281 406.324219 " clip-rule="nonzero"/></clipPath><clipPath id="f4d595b722"><path d="M 333.121094 333.578125 L 496.601562 333.578125 L 496.601562 473.820312 L 333.121094 473.820312 Z M 333.121094 333.578125 " clip-rule="nonzero"/></clipPath><clipPath id="83fbd2eb76"><path d="M 496.601562 403.699219 L 455.730469 473.820312 L 373.988281 473.820312 L 333.121094 403.699219 L 373.988281 333.578125 L 455.730469 333.578125 L 496.601562 403.699219 " clip-rule="nonzero"/></clipPath></defs><g clip-path="url(#1b140f2710)"><path fill="#ffffff" d="M 0.015625 0 L 595.484375 0 L 595.484375 848.957031 L 0.015625 848.957031 Z M 0.015625 0 " fill-opacity="1" fill-rule="nonzero"/><path fill="#ffffff" d="M 0.015625 0 L 595.484375 0 L 595.484375 842.207031 L 0.015625 842.207031 Z M 0.015625 0 " fill-opacity="1" fill-rule="nonzero"/><path fill="#ffffff" d="M 0.015625 0 L 595.484375 0 L 595.484375 842.207031 L 0.015625 842.207031 Z M 0.015625 0 " fill-opacity="1" fill-rule="nonzero"/></g><g clip-path="url(#eaaff17eb0)"><g clip-path="url(#7ba230f1f1)"><path stroke-linecap="butt" transform="matrix(0.749962, 0, 0, 0.749566, 26.523292, 187.934439)" fill="none" stroke-linejoin="miter" d="M 723.000521 310.663086 L 542.251741 621.327301 L 180.748974 621.327301 L 0.000194309 310.663086 L 180.748974 -0.00112826 L 542.251741 -0.00112826 L 723.000521 310.663086 " stroke="#000000" stroke-width="4" stroke-opacity="1" stroke-miterlimit="4"/></g></g><g clip-path="url(#c74e4482a4)"><g clip-path="url(#dfeb919259)"><path stroke-linecap="butt" transform="matrix(0.749285, 0, 0, 0.751718, 106.620521, 333.58421)" fill="none" stroke-linejoin="miter" d="M 225.204935 96.765075 L 168.901285 193.533049 L 56.2992 193.533049 L 0.000763819 96.765075 L 56.2992 0.00229772 L 168.901285 0.00229772 L 225.204935 96.765075 " stroke="#000000" stroke-width="4" stroke-opacity="1" stroke-miterlimit="4"/></g></g><g clip-path="url(#f4d595b722)"><g clip-path="url(#83fbd2eb76)"><path stroke-linecap="butt" transform="matrix(0.749908, 0, 0, 0.748586, 333.119798, 333.57935)" fill="none" stroke-linejoin="miter" d="M 218.002418 93.669785 L 163.500943 187.341206 L 54.497993 187.341206 L 0.00172761 93.669785 L 54.497993 -0.00163614 L 163.500943 -0.00163614 L 218.002418 93.669785 " stroke="#000000" stroke-width="4" stroke-opacity="1" stroke-miterlimit="4"/></g></g><g fill="#000000" fill-opacity="1"><g transform="translate(250.303784, 586.435388)"><g><path d="M 14.359375 -5.34375 C 14.359375 -3.613281 13.722656 -2.242188 12.453125 -1.234375 C 11.179688 -0.222656 9.492188 0.28125 7.390625 0.28125 C 4.859375 0.28125 2.921875 0.00390625 1.578125 -0.546875 L 1.578125 -2 C 3.066406 -1.363281 4.96875 -1.046875 7.28125 -1.046875 C 8.976562 -1.046875 10.320312 -1.4375 11.3125 -2.21875 C 12.3125 -3 12.8125 -4.019531 12.8125 -5.28125 C 12.8125 -6.0625 12.644531 -6.707031 12.3125 -7.21875 C 11.988281 -7.738281 11.453125 -8.210938 10.703125 -8.640625 C 9.960938 -9.066406 8.867188 -9.523438 7.421875 -10.015625 C 5.304688 -10.742188 3.84375 -11.53125 3.03125 -12.375 C 2.226562 -13.21875 1.828125 -14.34375 1.828125 -15.75 C 1.828125 -17.289062 2.429688 -18.550781 3.640625 -19.53125 C 4.859375 -20.507812 6.421875 -21 8.328125 -21 C 10.273438 -21 12.101562 -20.628906 13.8125 -19.890625 L 13.28125 -18.65625 C 11.5625 -19.363281 9.921875 -19.71875 8.359375 -19.71875 C 6.828125 -19.71875 5.609375 -19.363281 4.703125 -18.65625 C 3.796875 -17.945312 3.34375 -16.988281 3.34375 -15.78125 C 3.34375 -15.007812 3.476562 -14.378906 3.75 -13.890625 C 4.03125 -13.398438 4.488281 -12.957031 5.125 -12.5625 C 5.757812 -12.175781 6.847656 -11.707031 8.390625 -11.15625 C 9.992188 -10.601562 11.203125 -10.0625 12.015625 -9.53125 C 12.828125 -9.007812 13.421875 -8.414062 13.796875 -7.75 C 14.171875 -7.082031 14.359375 -6.28125 14.359375 -5.34375 Z M 14.359375 -5.34375 "/></g></g></g><g fill="#000000" fill-opacity="1"><g transform="translate(266.10465, 586.435388)"><g><path d="M 15.3125 -7.71875 C 15.3125 -5.207031 14.703125 -3.242188 13.484375 -1.828125 C 12.265625 -0.421875 10.582031 0.28125 8.4375 0.28125 C 7.09375 0.28125 5.90625 -0.0390625 4.875 -0.6875 C 3.84375 -1.34375 3.050781 -2.28125 2.5 -3.5 C 1.957031 -4.71875 1.6875 -6.125 1.6875 -7.71875 C 1.6875 -10.226562 2.296875 -12.179688 3.515625 -13.578125 C 4.734375 -14.984375 6.40625 -15.6875 8.53125 -15.6875 C 10.644531 -15.6875 12.300781 -14.972656 13.5 -13.546875 C 14.707031 -12.128906 15.3125 -10.1875 15.3125 -7.71875 Z M 3.15625 -7.71875 C 3.15625 -5.601562 3.617188 -3.953125 4.546875 -2.765625 C 5.484375 -1.578125 6.800781 -0.984375 8.5 -0.984375 C 10.195312 -0.984375 11.507812 -1.578125 12.4375 -2.765625 C 13.363281 -3.953125 13.828125 -5.601562 13.828125 -7.71875 C 13.828125 -9.84375 13.359375 -11.488281 12.421875 -12.65625 C 11.484375 -13.832031 10.164062 -14.421875 8.46875 -14.421875 C 6.769531 -14.421875 5.457031 -13.835938 4.53125 -12.671875 C 3.613281 -11.503906 3.15625 -9.851562 3.15625 -7.71875 Z M 3.15625 -7.71875 "/></g></g></g><g fill="#000000" fill-opacity="1"><g transform="translate(283.094829, 586.435388)"><g><path d="M 8.71875 0.28125 C 6.519531 0.28125 4.796875 -0.410156 3.546875 -1.796875 C 2.304688 -3.179688 1.6875 -5.117188 1.6875 -7.609375 C 1.6875 -10.148438 2.332031 -12.128906 3.625 -13.546875 C 4.914062 -14.972656 6.6875 -15.6875 8.9375 -15.6875 C 10.269531 -15.6875 11.546875 -15.457031 12.765625 -15 L 12.375 -13.75 C 11.039062 -14.195312 9.882812 -14.421875 8.90625 -14.421875 C 7.019531 -14.421875 5.585938 -13.835938 4.609375 -12.671875 C 3.640625 -11.503906 3.15625 -9.820312 3.15625 -7.625 C 3.15625 -5.550781 3.640625 -3.925781 4.609375 -2.75 C 5.585938 -1.570312 6.945312 -0.984375 8.6875 -0.984375 C 10.09375 -0.984375 11.394531 -1.234375 12.59375 -1.734375 L 12.59375 -0.4375 C 11.601562 0.0390625 10.3125 0.28125 8.71875 0.28125 Z M 8.71875 0.28125 "/></g></g></g><g fill="#000000" fill-opacity="1"><g transform="translate(296.871035, 586.435388)"><g><path d="M 3.984375 0 L 2.578125 0 L 2.578125 -15.390625 L 3.984375 -15.390625 Z M 2.375 -19.671875 C 2.375 -20.578125 2.671875 -21.03125 3.265625 -21.03125 C 3.554688 -21.03125 3.785156 -20.910156 3.953125 -20.671875 C 4.117188 -20.429688 4.203125 -20.097656 4.203125 -19.671875 C 4.203125 -19.242188 4.117188 -18.90625 3.953125 -18.65625 C 3.785156 -18.414062 3.554688 -18.296875 3.265625 -18.296875 C 2.671875 -18.296875 2.375 -18.753906 2.375 -19.671875 Z M 2.375 -19.671875 "/></g></g></g><g fill="#000000" fill-opacity="1"><g transform="translate(303.426415, 586.435388)"><g><path d="M 8.796875 0.28125 C 6.554688 0.28125 4.8125 -0.40625 3.5625 -1.78125 C 2.3125 -3.164062 1.6875 -5.097656 1.6875 -7.578125 C 1.6875 -10.023438 2.289062 -11.988281 3.5 -13.46875 C 4.707031 -14.945312 6.335938 -15.6875 8.390625 -15.6875 C 10.203125 -15.6875 11.628906 -15.050781 12.671875 -13.78125 C 13.722656 -12.519531 14.25 -10.804688 14.25 -8.640625 L 14.25 -7.5 L 3.15625 -7.5 C 3.175781 -5.382812 3.671875 -3.769531 4.640625 -2.65625 C 5.609375 -1.539062 6.992188 -0.984375 8.796875 -0.984375 C 9.671875 -0.984375 10.441406 -1.046875 11.109375 -1.171875 C 11.773438 -1.296875 12.617188 -1.5625 13.640625 -1.96875 L 13.640625 -0.6875 C 12.765625 -0.3125 11.957031 -0.0546875 11.21875 0.078125 C 10.488281 0.210938 9.679688 0.28125 8.796875 0.28125 Z M 8.390625 -14.4375 C 6.898438 -14.4375 5.707031 -13.945312 4.8125 -12.96875 C 3.914062 -12 3.394531 -10.59375 3.25 -8.75 L 12.765625 -8.75 C 12.765625 -10.53125 12.375 -11.921875 11.59375 -12.921875 C 10.820312 -13.929688 9.753906 -14.4375 8.390625 -14.4375 Z M 6.390625 -17.796875 C 7.078125 -18.546875 7.757812 -19.351562 8.4375 -20.21875 C 9.113281 -21.09375 9.570312 -21.757812 9.8125 -22.21875 L 11.8125 -22.21875 L 11.8125 -21.984375 C 11.476562 -21.484375 10.898438 -20.828125 10.078125 -20.015625 C 9.265625 -19.210938 8.367188 -18.398438 7.390625 -17.578125 L 6.390625 -17.578125 Z M 6.390625 -17.796875 "/></g></g></g><g fill="#000000" fill-opacity="1"><g transform="translate(319.340549, 586.435388)"><g><path d="M 6.640625 -0.96875 C 7.523438 -0.96875 8.300781 -1.039062 8.96875 -1.1875 L 8.96875 -0.0625 C 8.28125 0.164062 7.492188 0.28125 6.609375 0.28125 C 5.253906 0.28125 4.253906 -0.078125 3.609375 -0.796875 C 2.960938 -1.523438 2.640625 -2.671875 2.640625 -4.234375 L 2.640625 -14.171875 L 0.359375 -14.171875 L 0.359375 -15 L 2.640625 -15.640625 L 3.34375 -19.109375 L 4.0625 -19.109375 L 4.0625 -15.390625 L 8.578125 -15.390625 L 8.578125 -14.171875 L 4.0625 -14.171875 L 4.0625 -4.4375 C 4.0625 -3.25 4.269531 -2.375 4.6875 -1.8125 C 5.101562 -1.25 5.753906 -0.96875 6.640625 -0.96875 Z M 6.640625 -0.96875 "/></g></g></g><g fill="#000000" fill-opacity="1"><g transform="translate(329.053268, 586.435388)"><g><path d="M 8.796875 0.28125 C 6.554688 0.28125 4.8125 -0.40625 3.5625 -1.78125 C 2.3125 -3.164062 1.6875 -5.097656 1.6875 -7.578125 C 1.6875 -10.023438 2.289062 -11.988281 3.5 -13.46875 C 4.707031 -14.945312 6.335938 -15.6875 8.390625 -15.6875 C 10.203125 -15.6875 11.628906 -15.050781 12.671875 -13.78125 C 13.722656 -12.519531 14.25 -10.804688 14.25 -8.640625 L 14.25 -7.5 L 3.15625 -7.5 C 3.175781 -5.382812 3.671875 -3.769531 4.640625 -2.65625 C 5.609375 -1.539062 6.992188 -0.984375 8.796875 -0.984375 C 9.671875 -0.984375 10.441406 -1.046875 11.109375 -1.171875 C 11.773438 -1.296875 12.617188 -1.5625 13.640625 -1.96875 L 13.640625 -0.6875 C 12.765625 -0.3125 11.957031 -0.0546875 11.21875 0.078125 C 10.488281 0.210938 9.679688 0.28125 8.796875 0.28125 Z M 8.390625 -14.4375 C 6.898438 -14.4375 5.707031 -13.945312 4.8125 -12.96875 C 3.914062 -12 3.394531 -10.59375 3.25 -8.75 L 12.765625 -8.75 C 12.765625 -10.53125 12.375 -11.921875 11.59375 -12.921875 C 10.820312 -13.929688 9.753906 -14.4375 8.390625 -14.4375 Z M 6.390625 -17.796875 C 7.078125 -18.546875 7.757812 -19.351562 8.4375 -20.21875 C 9.113281 -21.09375 9.570312 -21.757812 9.8125 -22.21875 L 11.8125 -22.21875 L 11.8125 -21.984375 C 11.476562 -21.484375 10.898438 -20.828125 10.078125 -20.015625 C 9.265625 -19.210938 8.367188 -18.398438 7.390625 -17.578125 L 6.390625 -17.578125 Z M 6.390625 -17.796875 "/></g></g></g><g fill="#000000" fill-opacity="1"><g transform="translate(135.682621, 416.252763)"><g><path d="M 10.90625 0 L 2.25 0 L 2.25 -15.84375 L 10.90625 -15.84375 L 10.90625 -14.828125 L 3.34375 -14.828125 L 3.34375 -8.828125 L 10.484375 -8.828125 L 10.484375 -7.8125 L 3.34375 -7.8125 L 3.34375 -1.015625 L 10.90625 -1.015625 Z M 5.03125 -17.296875 C 5.550781 -17.867188 6.070312 -18.488281 6.59375 -19.15625 C 7.113281 -19.820312 7.46875 -20.332031 7.65625 -20.6875 L 9.171875 -20.6875 L 9.171875 -20.5 C 8.910156 -20.125 8.46875 -19.625 7.84375 -19 C 7.21875 -18.375 6.53125 -17.75 5.78125 -17.125 L 5.03125 -17.125 Z M 5.03125 -17.296875 "/></g></g></g><g fill="#000000" fill-opacity="1"><g transform="translate(147.933482, 416.252763)"><g><path d="M 6.671875 0.21875 C 4.992188 0.21875 3.675781 -0.3125 2.71875 -1.375 C 1.769531 -2.4375 1.296875 -3.921875 1.296875 -5.828125 C 1.296875 -7.773438 1.789062 -9.289062 2.78125 -10.375 C 3.769531 -11.46875 5.125 -12.015625 6.84375 -12.015625 C 7.863281 -12.015625 8.835938 -11.835938 9.765625 -11.484375 L 9.46875 -10.53125 C 8.457031 -10.863281 7.570312 -11.03125 6.8125 -11.03125 C 5.375 -11.03125 4.28125 -10.582031 3.53125 -9.6875 C 2.789062 -8.800781 2.421875 -7.519531 2.421875 -5.84375 C 2.421875 -4.25 2.789062 -3.003906 3.53125 -2.109375 C 4.28125 -1.210938 5.320312 -0.765625 6.65625 -0.765625 C 7.726562 -0.765625 8.722656 -0.953125 9.640625 -1.328125 L 9.640625 -0.34375 C 8.890625 0.03125 7.898438 0.21875 6.671875 0.21875 Z M 6.671875 0.21875 "/></g></g></g><g fill="#000000" fill-opacity="1"><g transform="translate(158.482234, 416.252763)"><g><path d="M 11.71875 -5.90625 C 11.71875 -3.988281 11.25 -2.488281 10.3125 -1.40625 C 9.382812 -0.320312 8.101562 0.21875 6.46875 0.21875 C 5.425781 0.21875 4.507812 -0.03125 3.71875 -0.53125 C 2.9375 -1.03125 2.335938 -1.742188 1.921875 -2.671875 C 1.503906 -3.609375 1.296875 -4.6875 1.296875 -5.90625 C 1.296875 -7.832031 1.757812 -9.332031 2.6875 -10.40625 C 3.625 -11.476562 4.90625 -12.015625 6.53125 -12.015625 C 8.144531 -12.015625 9.410156 -11.46875 10.328125 -10.375 C 11.253906 -9.289062 11.71875 -7.800781 11.71875 -5.90625 Z M 2.421875 -5.90625 C 2.421875 -4.289062 2.773438 -3.03125 3.484375 -2.125 C 4.191406 -1.21875 5.195312 -0.765625 6.5 -0.765625 C 7.800781 -0.765625 8.804688 -1.21875 9.515625 -2.125 C 10.234375 -3.03125 10.59375 -4.289062 10.59375 -5.90625 C 10.59375 -7.53125 10.234375 -8.789062 9.515625 -9.6875 C 8.796875 -10.582031 7.785156 -11.03125 6.484375 -11.03125 C 5.179688 -11.03125 4.175781 -10.582031 3.46875 -9.6875 C 2.769531 -8.800781 2.421875 -7.539062 2.421875 -5.90625 Z M 2.421875 -5.90625 "/></g></g></g><g fill="#000000" fill-opacity="1"><g transform="translate(171.491998, 416.252763)"><g><path d="M 3.046875 0 L 1.96875 0 L 1.96875 -16.875 L 3.046875 -16.875 Z M 3.046875 0 "/></g></g></g><g fill="#000000" fill-opacity="1"><g transform="translate(176.511601, 416.252763)"><g><path d="M 11.71875 -5.90625 C 11.71875 -3.988281 11.25 -2.488281 10.3125 -1.40625 C 9.382812 -0.320312 8.101562 0.21875 6.46875 0.21875 C 5.425781 0.21875 4.507812 -0.03125 3.71875 -0.53125 C 2.9375 -1.03125 2.335938 -1.742188 1.921875 -2.671875 C 1.503906 -3.609375 1.296875 -4.6875 1.296875 -5.90625 C 1.296875 -7.832031 1.757812 -9.332031 2.6875 -10.40625 C 3.625 -11.476562 4.90625 -12.015625 6.53125 -12.015625 C 8.144531 -12.015625 9.410156 -11.46875 10.328125 -10.375 C 11.253906 -9.289062 11.71875 -7.800781 11.71875 -5.90625 Z M 2.421875 -5.90625 C 2.421875 -4.289062 2.773438 -3.03125 3.484375 -2.125 C 4.191406 -1.21875 5.195312 -0.765625 6.5 -0.765625 C 7.800781 -0.765625 8.804688 -1.21875 9.515625 -2.125 C 10.234375 -3.03125 10.59375 -4.289062 10.59375 -5.90625 C 10.59375 -7.53125 10.234375 -8.789062 9.515625 -9.6875 C 8.796875 -10.582031 7.785156 -11.03125 6.484375 -11.03125 C 5.179688 -11.03125 4.175781 -10.582031 3.46875 -9.6875 C 2.769531 -8.800781 2.421875 -7.539062 2.421875 -5.90625 Z M 2.421875 -5.90625 "/></g></g></g><g fill="#000000" fill-opacity="1"><g transform="translate(189.521364, 416.252763)"><g><path d="M 11.171875 -11.78125 L 11.171875 -11.03125 L 8.734375 -10.890625 C 9.378906 -10.078125 9.703125 -9.1875 9.703125 -8.21875 C 9.703125 -7.082031 9.320312 -6.160156 8.5625 -5.453125 C 7.8125 -4.753906 6.800781 -4.40625 5.53125 -4.40625 C 5 -4.40625 4.625 -4.425781 4.40625 -4.46875 C 3.976562 -4.238281 3.648438 -3.972656 3.421875 -3.671875 C 3.203125 -3.367188 3.09375 -3.046875 3.09375 -2.703125 C 3.09375 -2.328125 3.234375 -2.050781 3.515625 -1.875 C 3.804688 -1.707031 4.285156 -1.625 4.953125 -1.625 L 7.015625 -1.625 C 8.296875 -1.625 9.273438 -1.363281 9.953125 -0.84375 C 10.628906 -0.332031 10.96875 0.425781 10.96875 1.4375 C 10.96875 2.6875 10.460938 3.644531 9.453125 4.3125 C 8.453125 4.988281 7.019531 5.328125 5.15625 5.328125 C 3.664062 5.328125 2.515625 5.039062 1.703125 4.46875 C 0.890625 3.90625 0.484375 3.113281 0.484375 2.09375 C 0.484375 1.28125 0.734375 0.609375 1.234375 0.078125 C 1.742188 -0.453125 2.425781 -0.816406 3.28125 -1.015625 C 2.925781 -1.171875 2.640625 -1.382812 2.421875 -1.65625 C 2.210938 -1.9375 2.109375 -2.257812 2.109375 -2.625 C 2.109375 -3.414062 2.613281 -4.109375 3.625 -4.703125 C 2.9375 -4.984375 2.398438 -5.425781 2.015625 -6.03125 C 1.628906 -6.632812 1.4375 -7.328125 1.4375 -8.109375 C 1.4375 -9.285156 1.8125 -10.226562 2.5625 -10.9375 C 3.3125 -11.65625 4.320312 -12.015625 5.59375 -12.015625 C 6.363281 -12.015625 6.960938 -11.9375 7.390625 -11.78125 Z M 1.625 2 C 1.625 3.613281 2.828125 4.421875 5.234375 4.421875 C 8.328125 4.421875 9.875 3.4375 9.875 1.46875 C 9.875 0.757812 9.628906 0.25 9.140625 -0.0625 C 8.660156 -0.382812 7.878906 -0.546875 6.796875 -0.546875 L 4.875 -0.546875 C 2.707031 -0.546875 1.625 0.300781 1.625 2 Z M 2.53125 -8.109375 C 2.53125 -7.203125 2.804688 -6.492188 3.359375 -5.984375 C 3.910156 -5.484375 4.648438 -5.234375 5.578125 -5.234375 C 6.554688 -5.234375 7.304688 -5.484375 7.828125 -5.984375 C 8.359375 -6.484375 8.625 -7.207031 8.625 -8.15625 C 8.625 -9.15625 8.351562 -9.90625 7.8125 -10.40625 C 7.269531 -10.914062 6.515625 -11.171875 5.546875 -11.171875 C 4.609375 -11.171875 3.867188 -10.898438 3.328125 -10.359375 C 2.796875 -9.816406 2.53125 -9.066406 2.53125 -8.109375 Z M 2.53125 -8.109375 "/></g></g></g><g fill="#000000" fill-opacity="1"><g transform="translate(201.132581, 416.252763)"><g><path d="M 3.046875 0 L 1.96875 0 L 1.96875 -11.78125 L 3.046875 -11.78125 Z M 1.828125 -15.0625 C 1.828125 -15.75 2.050781 -16.09375 2.5 -16.09375 C 2.726562 -16.09375 2.90625 -16.003906 3.03125 -15.828125 C 3.15625 -15.648438 3.21875 -15.394531 3.21875 -15.0625 C 3.21875 -14.738281 3.15625 -14.476562 3.03125 -14.28125 C 2.90625 -14.09375 2.726562 -14 2.5 -14 C 2.050781 -14 1.828125 -14.351562 1.828125 -15.0625 Z M 1.828125 -15.0625 "/></g></g></g><g fill="#000000" fill-opacity="1"><g transform="translate(206.152183, 416.252763)"><g><path d="M 9.28125 -3.0625 C 9.28125 -2.007812 8.878906 -1.195312 8.078125 -0.625 C 7.273438 -0.0625 6.132812 0.21875 4.65625 0.21875 C 3.082031 0.21875 1.832031 -0.0234375 0.90625 -0.515625 L 0.90625 -1.671875 C 2.09375 -1.078125 3.34375 -0.78125 4.65625 -0.78125 C 5.820312 -0.78125 6.707031 -0.972656 7.3125 -1.359375 C 7.914062 -1.742188 8.21875 -2.257812 8.21875 -2.90625 C 8.21875 -3.5 7.976562 -4 7.5 -4.40625 C 7.019531 -4.8125 6.226562 -5.207031 5.125 -5.59375 C 3.945312 -6.019531 3.117188 -6.382812 2.640625 -6.6875 C 2.171875 -7 1.8125 -7.347656 1.5625 -7.734375 C 1.320312 -8.117188 1.203125 -8.59375 1.203125 -9.15625 C 1.203125 -10.03125 1.570312 -10.722656 2.3125 -11.234375 C 3.050781 -11.753906 4.085938 -12.015625 5.421875 -12.015625 C 6.691406 -12.015625 7.898438 -11.773438 9.046875 -11.296875 L 8.640625 -10.328125 C 7.484375 -10.796875 6.410156 -11.03125 5.421875 -11.03125 C 4.460938 -11.03125 3.695312 -10.867188 3.125 -10.546875 C 2.5625 -10.234375 2.28125 -9.796875 2.28125 -9.234375 C 2.28125 -8.617188 2.5 -8.125 2.9375 -7.75 C 3.375 -7.382812 4.226562 -6.976562 5.5 -6.53125 C 6.5625 -6.144531 7.332031 -5.796875 7.8125 -5.484375 C 8.300781 -5.179688 8.664062 -4.832031 8.90625 -4.4375 C 9.15625 -4.050781 9.28125 -3.59375 9.28125 -3.0625 Z M 9.28125 -3.0625 "/></g></g></g><g fill="#000000" fill-opacity="1"><g transform="translate(216.494941, 416.252763)"><g><path d="M 5.078125 -0.734375 C 5.765625 -0.734375 6.359375 -0.789062 6.859375 -0.90625 L 6.859375 -0.046875 C 6.335938 0.128906 5.738281 0.21875 5.0625 0.21875 C 4.019531 0.21875 3.25 -0.0546875 2.75 -0.609375 C 2.257812 -1.171875 2.015625 -2.046875 2.015625 -3.234375 L 2.015625 -10.859375 L 0.265625 -10.859375 L 0.265625 -11.484375 L 2.015625 -11.96875 L 2.5625 -14.640625 L 3.109375 -14.640625 L 3.109375 -11.78125 L 6.5625 -11.78125 L 6.5625 -10.859375 L 3.109375 -10.859375 L 3.109375 -3.390625 C 3.109375 -2.484375 3.265625 -1.8125 3.578125 -1.375 C 3.898438 -0.945312 4.398438 -0.734375 5.078125 -0.734375 Z M 5.078125 -0.734375 "/></g></g></g><g fill="#000000" fill-opacity="1"><g transform="translate(223.932194, 416.252763)"><g><path d="M 6.734375 0.21875 C 5.015625 0.21875 3.675781 -0.304688 2.71875 -1.359375 C 1.769531 -2.421875 1.296875 -3.898438 1.296875 -5.796875 C 1.296875 -7.679688 1.753906 -9.1875 2.671875 -10.3125 C 3.597656 -11.445312 4.847656 -12.015625 6.421875 -12.015625 C 7.804688 -12.015625 8.898438 -11.53125 9.703125 -10.5625 C 10.503906 -9.59375 10.90625 -8.273438 10.90625 -6.609375 L 10.90625 -5.75 L 2.421875 -5.75 C 2.429688 -4.125 2.804688 -2.882812 3.546875 -2.03125 C 4.285156 -1.1875 5.347656 -0.765625 6.734375 -0.765625 C 7.398438 -0.765625 7.988281 -0.8125 8.5 -0.90625 C 9.007812 -1 9.65625 -1.195312 10.4375 -1.5 L 10.4375 -0.53125 C 9.769531 -0.238281 9.15625 -0.0390625 8.59375 0.0625 C 8.03125 0.164062 7.410156 0.21875 6.734375 0.21875 Z M 6.421875 -11.0625 C 5.285156 -11.0625 4.375 -10.6875 3.6875 -9.9375 C 3 -9.1875 2.597656 -8.109375 2.484375 -6.703125 L 9.765625 -6.703125 C 9.765625 -8.066406 9.46875 -9.132812 8.875 -9.90625 C 8.28125 -10.675781 7.460938 -11.0625 6.421875 -11.0625 Z M 6.421875 -11.0625 "/></g></g></g><g fill="#000000" fill-opacity="1"><g transform="translate(236.118006, 416.252763)"><g><path d="M 9.28125 -3.0625 C 9.28125 -2.007812 8.878906 -1.195312 8.078125 -0.625 C 7.273438 -0.0625 6.132812 0.21875 4.65625 0.21875 C 3.082031 0.21875 1.832031 -0.0234375 0.90625 -0.515625 L 0.90625 -1.671875 C 2.09375 -1.078125 3.34375 -0.78125 4.65625 -0.78125 C 5.820312 -0.78125 6.707031 -0.972656 7.3125 -1.359375 C 7.914062 -1.742188 8.21875 -2.257812 8.21875 -2.90625 C 8.21875 -3.5 7.976562 -4 7.5 -4.40625 C 7.019531 -4.8125 6.226562 -5.207031 5.125 -5.59375 C 3.945312 -6.019531 3.117188 -6.382812 2.640625 -6.6875 C 2.171875 -7 1.8125 -7.347656 1.5625 -7.734375 C 1.320312 -8.117188 1.203125 -8.59375 1.203125 -9.15625 C 1.203125 -10.03125 1.570312 -10.722656 2.3125 -11.234375 C 3.050781 -11.753906 4.085938 -12.015625 5.421875 -12.015625 C 6.691406 -12.015625 7.898438 -11.773438 9.046875 -11.296875 L 8.640625 -10.328125 C 7.484375 -10.796875 6.410156 -11.03125 5.421875 -11.03125 C 4.460938 -11.03125 3.695312 -10.867188 3.125 -10.546875 C 2.5625 -10.234375 2.28125 -9.796875 2.28125 -9.234375 C 2.28125 -8.617188 2.5 -8.125 2.9375 -7.75 C 3.375 -7.382812 4.226562 -6.976562 5.5 -6.53125 C 6.5625 -6.144531 7.332031 -5.796875 7.8125 -5.484375 C 8.300781 -5.179688 8.664062 -4.832031 8.90625 -4.4375 C 9.15625 -4.050781 9.28125 -3.59375 9.28125 -3.0625 Z M 9.28125 -3.0625 "/></g></g></g><g fill="#000000" fill-opacity="1"><g transform="translate(347.671525, 400.747694)"><g><path d="M 14.28125 -8.078125 C 14.28125 -5.421875 13.582031 -3.410156 12.1875 -2.046875 C 10.789062 -0.679688 8.738281 0 6.03125 0 L 2.25 0 L 2.25 -15.84375 L 6.53125 -15.84375 C 9.0625 -15.84375 10.984375 -15.179688 12.296875 -13.859375 C 13.617188 -12.535156 14.28125 -10.609375 14.28125 -8.078125 Z M 13.078125 -8.03125 C 13.078125 -10.300781 12.5 -12.007812 11.34375 -13.15625 C 10.1875 -14.300781 8.492188 -14.875 6.265625 -14.875 L 3.34375 -14.875 L 3.34375 -0.96875 L 5.96875 -0.96875 C 10.707031 -0.96875 13.078125 -3.320312 13.078125 -8.03125 Z M 13.078125 -8.03125 "/></g></g></g><g fill="#000000" fill-opacity="1"><g transform="translate(363.34829, 400.747694)"><g><path d="M 6.734375 0.21875 C 5.015625 0.21875 3.675781 -0.304688 2.71875 -1.359375 C 1.769531 -2.421875 1.296875 -3.898438 1.296875 -5.796875 C 1.296875 -7.679688 1.753906 -9.1875 2.671875 -10.3125 C 3.597656 -11.445312 4.847656 -12.015625 6.421875 -12.015625 C 7.804688 -12.015625 8.898438 -11.53125 9.703125 -10.5625 C 10.503906 -9.59375 10.90625 -8.273438 10.90625 -6.609375 L 10.90625 -5.75 L 2.421875 -5.75 C 2.429688 -4.125 2.804688 -2.882812 3.546875 -2.03125 C 4.285156 -1.1875 5.347656 -0.765625 6.734375 -0.765625 C 7.398438 -0.765625 7.988281 -0.8125 8.5 -0.90625 C 9.007812 -1 9.65625 -1.195312 10.4375 -1.5 L 10.4375 -0.53125 C 9.769531 -0.238281 9.15625 -0.0390625 8.59375 0.0625 C 8.03125 0.164062 7.410156 0.21875 6.734375 0.21875 Z M 6.421875 -11.0625 C 5.285156 -11.0625 4.375 -10.6875 3.6875 -9.9375 C 3 -9.1875 2.597656 -8.109375 2.484375 -6.703125 L 9.765625 -6.703125 C 9.765625 -8.066406 9.46875 -9.132812 8.875 -9.90625 C 8.28125 -10.675781 7.460938 -11.0625 6.421875 -11.0625 Z M 4.90625 -13.625 C 5.425781 -14.195312 5.945312 -14.816406 6.46875 -15.484375 C 6.988281 -16.148438 7.34375 -16.660156 7.53125 -17.015625 L 9.046875 -17.015625 L 9.046875 -16.828125 C 8.785156 -16.453125 8.34375 -15.953125 7.71875 -15.328125 C 7.09375 -14.703125 6.40625 -14.078125 5.65625 -13.453125 L 4.90625 -13.453125 Z M 4.90625 -13.625 "/></g></g></g><g fill="#000000" fill-opacity="1"><g transform="translate(375.534102, 400.747694)"><g><path d="M 4.546875 0 L 0 -11.78125 L 1.109375 -11.78125 L 4.15625 -3.765625 C 4.5625 -2.742188 4.863281 -1.847656 5.0625 -1.078125 L 5.125 -1.078125 C 5.425781 -2.066406 5.726562 -2.972656 6.03125 -3.796875 L 9.078125 -11.78125 L 10.1875 -11.78125 L 5.640625 0 Z M 4.546875 0 "/></g></g></g><g fill="#000000" fill-opacity="1"><g transform="translate(385.725084, 400.747694)"><g><path d="M 6.734375 0.21875 C 5.015625 0.21875 3.675781 -0.304688 2.71875 -1.359375 C 1.769531 -2.421875 1.296875 -3.898438 1.296875 -5.796875 C 1.296875 -7.679688 1.753906 -9.1875 2.671875 -10.3125 C 3.597656 -11.445312 4.847656 -12.015625 6.421875 -12.015625 C 7.804688 -12.015625 8.898438 -11.53125 9.703125 -10.5625 C 10.503906 -9.59375 10.90625 -8.273438 10.90625 -6.609375 L 10.90625 -5.75 L 2.421875 -5.75 C 2.429688 -4.125 2.804688 -2.882812 3.546875 -2.03125 C 4.285156 -1.1875 5.347656 -0.765625 6.734375 -0.765625 C 7.398438 -0.765625 7.988281 -0.8125 8.5 -0.90625 C 9.007812 -1 9.65625 -1.195312 10.4375 -1.5 L 10.4375 -0.53125 C 9.769531 -0.238281 9.15625 -0.0390625 8.59375 0.0625 C 8.03125 0.164062 7.410156 0.21875 6.734375 0.21875 Z M 6.421875 -11.0625 C 5.285156 -11.0625 4.375 -10.6875 3.6875 -9.9375 C 3 -9.1875 2.597656 -8.109375 2.484375 -6.703125 L 9.765625 -6.703125 C 9.765625 -8.066406 9.46875 -9.132812 8.875 -9.90625 C 8.28125 -10.675781 7.460938 -11.0625 6.421875 -11.0625 Z M 6.421875 -11.0625 "/></g></g></g><g fill="#000000" fill-opacity="1"><g transform="translate(397.910896, 400.747694)"><g><path d="M 3.046875 0 L 1.96875 0 L 1.96875 -16.875 L 3.046875 -16.875 Z M 3.046875 0 "/></g></g></g><g fill="#000000" fill-opacity="1"><g transform="translate(402.930498, 400.747694)"><g><path d="M 11.71875 -5.90625 C 11.71875 -3.988281 11.25 -2.488281 10.3125 -1.40625 C 9.382812 -0.320312 8.101562 0.21875 6.46875 0.21875 C 5.425781 0.21875 4.507812 -0.03125 3.71875 -0.53125 C 2.9375 -1.03125 2.335938 -1.742188 1.921875 -2.671875 C 1.503906 -3.609375 1.296875 -4.6875 1.296875 -5.90625 C 1.296875 -7.832031 1.757812 -9.332031 2.6875 -10.40625 C 3.625 -11.476562 4.90625 -12.015625 6.53125 -12.015625 C 8.144531 -12.015625 9.410156 -11.46875 10.328125 -10.375 C 11.253906 -9.289062 11.71875 -7.800781 11.71875 -5.90625 Z M 2.421875 -5.90625 C 2.421875 -4.289062 2.773438 -3.03125 3.484375 -2.125 C 4.191406 -1.21875 5.195312 -0.765625 6.5 -0.765625 C 7.800781 -0.765625 8.804688 -1.21875 9.515625 -2.125 C 10.234375 -3.03125 10.59375 -4.289062 10.59375 -5.90625 C 10.59375 -7.53125 10.234375 -8.789062 9.515625 -9.6875 C 8.796875 -10.582031 7.785156 -11.03125 6.484375 -11.03125 C 5.179688 -11.03125 4.175781 -10.582031 3.46875 -9.6875 C 2.769531 -8.800781 2.421875 -7.539062 2.421875 -5.90625 Z M 2.421875 -5.90625 "/></g></g></g><g fill="#000000" fill-opacity="1"><g transform="translate(415.940262, 400.747694)"><g><path d="M 7.015625 0.21875 C 5.203125 0.21875 3.878906 -0.460938 3.046875 -1.828125 L 2.96875 -1.828125 L 3 -0.90625 C 3.03125 -0.375 3.046875 0.207031 3.046875 0.84375 L 3.046875 5.328125 L 1.96875 5.328125 L 1.96875 -11.78125 L 2.890625 -11.78125 L 3.09375 -10.109375 L 3.15625 -10.109375 C 3.96875 -11.378906 5.257812 -12.015625 7.03125 -12.015625 C 8.625 -12.015625 9.835938 -11.488281 10.671875 -10.4375 C 11.503906 -9.394531 11.921875 -7.878906 11.921875 -5.890625 C 11.921875 -3.953125 11.484375 -2.445312 10.609375 -1.375 C 9.734375 -0.3125 8.535156 0.21875 7.015625 0.21875 Z M 7 -0.734375 C 8.195312 -0.734375 9.125 -1.179688 9.78125 -2.078125 C 10.445312 -2.972656 10.78125 -4.226562 10.78125 -5.84375 C 10.78125 -9.300781 9.53125 -11.03125 7.03125 -11.03125 C 5.65625 -11.03125 4.644531 -10.648438 4 -9.890625 C 3.363281 -9.140625 3.046875 -7.914062 3.046875 -6.21875 L 3.046875 -5.859375 C 3.046875 -4.015625 3.351562 -2.695312 3.96875 -1.90625 C 4.59375 -1.125 5.601562 -0.734375 7 -0.734375 Z M 7 -0.734375 "/></g></g></g><g fill="#000000" fill-opacity="1"><g transform="translate(429.15602, 400.747694)"><g><path d="M 7.015625 0.21875 C 5.203125 0.21875 3.878906 -0.460938 3.046875 -1.828125 L 2.96875 -1.828125 L 3 -0.90625 C 3.03125 -0.375 3.046875 0.207031 3.046875 0.84375 L 3.046875 5.328125 L 1.96875 5.328125 L 1.96875 -11.78125 L 2.890625 -11.78125 L 3.09375 -10.109375 L 3.15625 -10.109375 C 3.96875 -11.378906 5.257812 -12.015625 7.03125 -12.015625 C 8.625 -12.015625 9.835938 -11.488281 10.671875 -10.4375 C 11.503906 -9.394531 11.921875 -7.878906 11.921875 -5.890625 C 11.921875 -3.953125 11.484375 -2.445312 10.609375 -1.375 C 9.734375 -0.3125 8.535156 0.21875 7.015625 0.21875 Z M 7 -0.734375 C 8.195312 -0.734375 9.125 -1.179688 9.78125 -2.078125 C 10.445312 -2.972656 10.78125 -4.226562 10.78125 -5.84375 C 10.78125 -9.300781 9.53125 -11.03125 7.03125 -11.03125 C 5.65625 -11.03125 4.644531 -10.648438 4 -9.890625 C 3.363281 -9.140625 3.046875 -7.914062 3.046875 -6.21875 L 3.046875 -5.859375 C 3.046875 -4.015625 3.351562 -2.695312 3.96875 -1.90625 C 4.59375 -1.125 5.601562 -0.734375 7 -0.734375 Z M 7 -0.734375 "/></g></g></g><g fill="#000000" fill-opacity="1"><g transform="translate(442.371774, 400.747694)"><g><path d="M 6.734375 0.21875 C 5.015625 0.21875 3.675781 -0.304688 2.71875 -1.359375 C 1.769531 -2.421875 1.296875 -3.898438 1.296875 -5.796875 C 1.296875 -7.679688 1.753906 -9.1875 2.671875 -10.3125 C 3.597656 -11.445312 4.847656 -12.015625 6.421875 -12.015625 C 7.804688 -12.015625 8.898438 -11.53125 9.703125 -10.5625 C 10.503906 -9.59375 10.90625 -8.273438 10.90625 -6.609375 L 10.90625 -5.75 L 2.421875 -5.75 C 2.429688 -4.125 2.804688 -2.882812 3.546875 -2.03125 C 4.285156 -1.1875 5.347656 -0.765625 6.734375 -0.765625 C 7.398438 -0.765625 7.988281 -0.8125 8.5 -0.90625 C 9.007812 -1 9.65625 -1.195312 10.4375 -1.5 L 10.4375 -0.53125 C 9.769531 -0.238281 9.15625 -0.0390625 8.59375 0.0625 C 8.03125 0.164062 7.410156 0.21875 6.734375 0.21875 Z M 6.421875 -11.0625 C 5.285156 -11.0625 4.375 -10.6875 3.6875 -9.9375 C 3 -9.1875 2.597656 -8.109375 2.484375 -6.703125 L 9.765625 -6.703125 C 9.765625 -8.066406 9.46875 -9.132812 8.875 -9.90625 C 8.28125 -10.675781 7.460938 -11.0625 6.421875 -11.0625 Z M 6.421875 -11.0625 "/></g></g></g><g fill="#000000" fill-opacity="1"><g transform="translate(454.557586, 400.747694)"><g><path d="M 2.90625 -11.78125 L 2.90625 -4.15625 C 2.90625 -2.96875 3.15625 -2.101562 3.65625 -1.5625 C 4.15625 -1.03125 4.925781 -0.765625 5.96875 -0.765625 C 7.375 -0.765625 8.40625 -1.117188 9.0625 -1.828125 C 9.726562 -2.535156 10.0625 -3.6875 10.0625 -5.28125 L 10.0625 -11.78125 L 11.125 -11.78125 L 11.125 0 L 10.21875 0 L 10.015625 -1.625 L 9.953125 -1.625 C 9.179688 -0.394531 7.816406 0.21875 5.859375 0.21875 C 3.179688 0.21875 1.84375 -1.21875 1.84375 -4.09375 L 1.84375 -11.78125 Z M 2.90625 -11.78125 "/></g></g></g><g fill="#000000" fill-opacity="1"><g transform="translate(467.654082, 400.747694)"><g><path d="M 6.609375 -12.015625 C 7.109375 -12.015625 7.644531 -11.960938 8.21875 -11.859375 L 8.015625 -10.828125 C 7.523438 -10.953125 7.015625 -11.015625 6.484375 -11.015625 C 5.472656 -11.015625 4.644531 -10.585938 4 -9.734375 C 3.363281 -8.878906 3.046875 -7.800781 3.046875 -6.5 L 3.046875 0 L 1.96875 0 L 1.96875 -11.78125 L 2.890625 -11.78125 L 3 -9.65625 L 3.0625 -9.65625 C 3.550781 -10.519531 4.066406 -11.128906 4.609375 -11.484375 C 5.160156 -11.835938 5.828125 -12.015625 6.609375 -12.015625 Z M 6.609375 -12.015625 "/></g></g></g><g fill="#000000" fill-opacity="1"><g transform="translate(476.292917, 400.747694)"><g/></g></g><g fill="#000000" fill-opacity="1"><g transform="translate(376.837791, 431.757881)"><g><path d="M 6.28125 -12.015625 C 7.132812 -12.015625 7.875 -11.859375 8.5 -11.546875 C 9.125 -11.234375 9.679688 -10.703125 10.171875 -9.953125 L 10.234375 -9.953125 C 10.191406 -10.859375 10.171875 -11.75 10.171875 -12.625 L 10.171875 -16.875 L 11.234375 -16.875 L 11.234375 0 L 10.53125 0 L 10.25 -1.796875 L 10.171875 -1.796875 C 9.273438 -0.453125 7.988281 0.21875 6.3125 0.21875 C 4.6875 0.21875 3.441406 -0.285156 2.578125 -1.296875 C 1.722656 -2.304688 1.296875 -3.78125 1.296875 -5.71875 C 1.296875 -7.757812 1.71875 -9.316406 2.5625 -10.390625 C 3.414062 -11.472656 4.65625 -12.015625 6.28125 -12.015625 Z M 6.28125 -11.03125 C 5 -11.03125 4.035156 -10.578125 3.390625 -9.671875 C 2.742188 -8.773438 2.421875 -7.46875 2.421875 -5.75 C 2.421875 -2.40625 3.71875 -0.734375 6.3125 -0.734375 C 7.632812 -0.734375 8.609375 -1.117188 9.234375 -1.890625 C 9.859375 -2.671875 10.171875 -3.945312 10.171875 -5.71875 L 10.171875 -5.90625 C 10.171875 -7.726562 9.863281 -9.035156 9.25 -9.828125 C 8.644531 -10.628906 7.65625 -11.03125 6.28125 -11.03125 Z M 6.28125 -11.03125 "/></g></g></g><g fill="#000000" fill-opacity="1"><g transform="translate(390.053544, 431.757881)"><g><path d="M 2.8125 -15.84375 L 2.46875 -10.125 L 1.796875 -10.125 L 1.4375 -15.84375 Z M 2.8125 -15.84375 "/></g></g></g><g fill="#000000" fill-opacity="1"><g transform="translate(394.314244, 431.757881)"><g><path d="M 9.125 0 L 8.859375 -1.859375 L 8.765625 -1.859375 C 8.171875 -1.097656 7.5625 -0.5625 6.9375 -0.25 C 6.3125 0.0625 5.578125 0.21875 4.734375 0.21875 C 3.578125 0.21875 2.675781 -0.078125 2.03125 -0.671875 C 1.382812 -1.265625 1.0625 -2.085938 1.0625 -3.140625 C 1.0625 -4.285156 1.539062 -5.175781 2.5 -5.8125 C 3.457031 -6.445312 4.84375 -6.78125 6.65625 -6.8125 L 8.90625 -6.890625 L 8.90625 -7.671875 C 8.90625 -8.785156 8.675781 -9.628906 8.21875 -10.203125 C 7.757812 -10.773438 7.023438 -11.0625 6.015625 -11.0625 C 4.921875 -11.0625 3.789062 -10.753906 2.625 -10.140625 L 2.21875 -11.078125 C 3.507812 -11.679688 4.789062 -11.984375 6.0625 -11.984375 C 7.351562 -11.984375 8.316406 -11.644531 8.953125 -10.96875 C 9.597656 -10.300781 9.921875 -9.257812 9.921875 -7.84375 L 9.921875 0 Z M 4.796875 -0.765625 C 6.046875 -0.765625 7.035156 -1.125 7.765625 -1.84375 C 8.492188 -2.5625 8.859375 -3.554688 8.859375 -4.828125 L 8.859375 -6 L 6.796875 -5.90625 C 5.140625 -5.832031 3.957031 -5.578125 3.25 -5.140625 C 2.550781 -4.703125 2.203125 -4.019531 2.203125 -3.09375 C 2.203125 -2.351562 2.425781 -1.78125 2.875 -1.375 C 3.332031 -0.96875 3.972656 -0.765625 4.796875 -0.765625 Z M 4.796875 -0.765625 "/></g></g></g><g fill="#000000" fill-opacity="1"><g transform="translate(406.077241, 431.757881)"><g><path d="M 7.015625 0.21875 C 5.203125 0.21875 3.878906 -0.460938 3.046875 -1.828125 L 2.96875 -1.828125 L 3 -0.90625 C 3.03125 -0.375 3.046875 0.207031 3.046875 0.84375 L 3.046875 5.328125 L 1.96875 5.328125 L 1.96875 -11.78125 L 2.890625 -11.78125 L 3.09375 -10.109375 L 3.15625 -10.109375 C 3.96875 -11.378906 5.257812 -12.015625 7.03125 -12.015625 C 8.625 -12.015625 9.835938 -11.488281 10.671875 -10.4375 C 11.503906 -9.394531 11.921875 -7.878906 11.921875 -5.890625 C 11.921875 -3.953125 11.484375 -2.445312 10.609375 -1.375 C 9.734375 -0.3125 8.535156 0.21875 7.015625 0.21875 Z M 7 -0.734375 C 8.195312 -0.734375 9.125 -1.179688 9.78125 -2.078125 C 10.445312 -2.972656 10.78125 -4.226562 10.78125 -5.84375 C 10.78125 -9.300781 9.53125 -11.03125 7.03125 -11.03125 C 5.65625 -11.03125 4.644531 -10.648438 4 -9.890625 C 3.363281 -9.140625 3.046875 -7.914062 3.046875 -6.21875 L 3.046875 -5.859375 C 3.046875 -4.015625 3.351562 -2.695312 3.96875 -1.90625 C 4.59375 -1.125 5.601562 -0.734375 7 -0.734375 Z M 7 -0.734375 "/></g></g></g><g fill="#000000" fill-opacity="1"><g transform="translate(419.292995, 431.757881)"><g><path d="M 7.015625 0.21875 C 5.203125 0.21875 3.878906 -0.460938 3.046875 -1.828125 L 2.96875 -1.828125 L 3 -0.90625 C 3.03125 -0.375 3.046875 0.207031 3.046875 0.84375 L 3.046875 5.328125 L 1.96875 5.328125 L 1.96875 -11.78125 L 2.890625 -11.78125 L 3.09375 -10.109375 L 3.15625 -10.109375 C 3.96875 -11.378906 5.257812 -12.015625 7.03125 -12.015625 C 8.625 -12.015625 9.835938 -11.488281 10.671875 -10.4375 C 11.503906 -9.394531 11.921875 -7.878906 11.921875 -5.890625 C 11.921875 -3.953125 11.484375 -2.445312 10.609375 -1.375 C 9.734375 -0.3125 8.535156 0.21875 7.015625 0.21875 Z M 7 -0.734375 C 8.195312 -0.734375 9.125 -1.179688 9.78125 -2.078125 C 10.445312 -2.972656 10.78125 -4.226562 10.78125 -5.84375 C 10.78125 -9.300781 9.53125 -11.03125 7.03125 -11.03125 C 5.65625 -11.03125 4.644531 -10.648438 4 -9.890625 C 3.363281 -9.140625 3.046875 -7.914062 3.046875 -6.21875 L 3.046875 -5.859375 C 3.046875 -4.015625 3.351562 -2.695312 3.96875 -1.90625 C 4.59375 -1.125 5.601562 -0.734375 7 -0.734375 Z M 7 -0.734375 "/></g></g></g><g fill="#000000" fill-opacity="1"><g transform="translate(432.508748, 431.757881)"><g><path d="M 3.046875 0 L 1.96875 0 L 1.96875 -16.875 L 3.046875 -16.875 Z M 3.046875 0 "/></g></g></g><g fill="#000000" fill-opacity="1"><g transform="translate(437.528351, 431.757881)"><g><path d="M 3.046875 0 L 1.96875 0 L 1.96875 -11.78125 L 3.046875 -11.78125 Z M 1.828125 -15.0625 C 1.828125 -15.75 2.050781 -16.09375 2.5 -16.09375 C 2.726562 -16.09375 2.90625 -16.003906 3.03125 -15.828125 C 3.15625 -15.648438 3.21875 -15.394531 3.21875 -15.0625 C 3.21875 -14.738281 3.15625 -14.476562 3.03125 -14.28125 C 2.90625 -14.09375 2.726562 -14 2.5 -14 C 2.050781 -14 1.828125 -14.351562 1.828125 -15.0625 Z M 1.828125 -15.0625 "/></g></g></g><g fill="#000000" fill-opacity="1"><g transform="translate(442.547954, 431.757881)"><g><path d="M 9.28125 -3.0625 C 9.28125 -2.007812 8.878906 -1.195312 8.078125 -0.625 C 7.273438 -0.0625 6.132812 0.21875 4.65625 0.21875 C 3.082031 0.21875 1.832031 -0.0234375 0.90625 -0.515625 L 0.90625 -1.671875 C 2.09375 -1.078125 3.34375 -0.78125 4.65625 -0.78125 C 5.820312 -0.78125 6.707031 -0.972656 7.3125 -1.359375 C 7.914062 -1.742188 8.21875 -2.257812 8.21875 -2.90625 C 8.21875 -3.5 7.976562 -4 7.5 -4.40625 C 7.019531 -4.8125 6.226562 -5.207031 5.125 -5.59375 C 3.945312 -6.019531 3.117188 -6.382812 2.640625 -6.6875 C 2.171875 -7 1.8125 -7.347656 1.5625 -7.734375 C 1.320312 -8.117188 1.203125 -8.59375 1.203125 -9.15625 C 1.203125 -10.03125 1.570312 -10.722656 2.3125 -11.234375 C 3.050781 -11.753906 4.085938 -12.015625 5.421875 -12.015625 C 6.691406 -12.015625 7.898438 -11.773438 9.046875 -11.296875 L 8.640625 -10.328125 C 7.484375 -10.796875 6.410156 -11.03125 5.421875 -11.03125 C 4.460938 -11.03125 3.695312 -10.867188 3.125 -10.546875 C 2.5625 -10.234375 2.28125 -9.796875 2.28125 -9.234375 C 2.28125 -8.617188 2.5 -8.125 2.9375 -7.75 C 3.375 -7.382812 4.226562 -6.976562 5.5 -6.53125 C 6.5625 -6.144531 7.332031 -5.796875 7.8125 -5.484375 C 8.300781 -5.179688 8.664062 -4.832031 8.90625 -4.4375 C 9.15625 -4.050781 9.28125 -3.59375 9.28125 -3.0625 Z M 9.28125 -3.0625 "/></g></g></g></svg>