<svg xmlns="http://www.w3.org/2000/svg" xmlns:xlink="http://www.w3.org/1999/xlink" width="800" zoomAndPan="magnify" viewBox="0 0 600 449.999984" height="600" preserveAspectRatio="xMidYMid meet" version="1.0"><defs><g/><clipPath id="e0a8824831"><path d="M 18.394531 45 L 581.644531 45 L 581.644531 409.5 L 18.394531 409.5 Z M 18.394531 45 " clip-rule="nonzero"/></clipPath><clipPath id="fcfd860bc3"><path d="M 18.394531 45 L 581.644531 45 L 581.644531 409.5 L 18.394531 409.5 Z M 18.394531 45 " clip-rule="nonzero"/></clipPath><clipPath id="bd4f27683b"><path d="M 300.019531 45 C 144.484375 45 18.394531 126.597656 18.394531 227.25 C 18.394531 327.902344 144.484375 409.5 300.019531 409.5 C 455.554688 409.5 581.640625 327.902344 581.640625 227.25 C 581.640625 126.597656 455.554688 45 300.019531 45 " clip-rule="nonzero"/></clipPath><clipPath id="f61c16a815"><path d="M 83.179688 104.554688 L 433.429688 104.554688 L 433.429688 331.054688 L 83.179688 331.054688 Z M 83.179688 104.554688 " clip-rule="nonzero"/></clipPath><clipPath id="1c4c1687f6"><path d="M 83.183594 104.554688 L 433.429688 104.554688 L 433.429688 331.054688 L 83.183594 331.054688 Z M 83.183594 104.554688 " clip-rule="nonzero"/></clipPath><clipPath id="9f2d9a1950"><path d="M 258.304688 104.554688 C 161.589844 104.554688 83.183594 155.261719 83.183594 217.804688 C 83.183594 280.351562 161.589844 331.054688 258.304688 331.054688 C 355.019531 331.054688 433.425781 280.351562 433.425781 217.804688 C 433.425781 155.261719 355.019531 104.554688 258.304688 104.554688 " clip-rule="nonzero"/></clipPath><clipPath id="4e7a315d1a"><path d="M 374.941406 142.597656 L 554.1875 142.597656 L 554.1875 258.097656 L 374.941406 258.097656 Z M 374.941406 142.597656 " clip-rule="nonzero"/></clipPath><clipPath id="ab082818fc"><path d="M 464.5625 142.597656 C 415.066406 142.597656 374.941406 168.453125 374.941406 200.347656 C 374.941406 232.242188 415.066406 258.097656 464.5625 258.097656 C 514.058594 258.097656 554.183594 232.242188 554.183594 200.347656 C 554.183594 168.453125 514.058594 142.597656 464.5625 142.597656 " clip-rule="nonzero"/></clipPath><clipPath id="b63dd0933c"><path d="M 219.695312 147.128906 L 398.941406 147.128906 L 398.941406 262.628906 L 219.695312 262.628906 Z M 219.695312 147.128906 " clip-rule="nonzero"/></clipPath><clipPath id="e2a572e096"><path d="M 309.316406 147.128906 C 259.820312 147.128906 219.695312 172.984375 219.695312 204.878906 C 219.695312 236.773438 259.820312 262.628906 309.316406 262.628906 C 358.816406 262.628906 398.941406 236.773438 398.941406 204.878906 C 398.941406 172.984375 358.816406 147.128906 309.316406 147.128906 " clip-rule="nonzero"/></clipPath></defs><g clip-path="url(#e0a8824831)"><path fill="#ffffff" d="M 300.019531 45 C 144.484375 45 18.394531 126.597656 18.394531 227.25 C 18.394531 327.902344 144.484375 409.5 300.019531 409.5 C 455.554688 409.5 581.640625 327.902344 581.640625 227.25 C 581.640625 126.597656 455.554688 45 300.019531 45 " fill-opacity="1" fill-rule="nonzero"/></g><g clip-path="url(#fcfd860bc3)"><g clip-path="url(#bd4f27683b)"><path stroke-linecap="butt" transform="matrix(0.750062, 0, 0, 0.750748, 18.396109, 44.999996)" fill="none" stroke-linejoin="miter" d="M 375.466699 0.00000466868 C 168.103721 0.00000466868 -0.00210322 108.68845 -0.00210322 242.757825 C -0.00210322 376.8272 168.103721 485.515646 375.466699 485.515646 C 582.829678 485.515646 750.930293 376.8272 750.930293 242.757825 C 750.930293 108.68845 582.829678 0.00000466868 375.466699 0.00000466868 " stroke="#000000" stroke-width="4" stroke-opacity="1" stroke-miterlimit="4"/></g></g><g clip-path="url(#f61c16a815)"><path fill="#ffffff" d="M 258.304688 104.554688 C 161.589844 104.554688 83.183594 155.261719 83.183594 217.804688 C 83.183594 280.351562 161.589844 331.054688 258.304688 331.054688 C 355.019531 331.054688 433.425781 280.351562 433.425781 217.804688 C 433.425781 155.261719 355.019531 104.554688 258.304688 104.554688 " fill-opacity="1" fill-rule="nonzero"/></g><g clip-path="url(#1c4c1687f6)"><g clip-path="url(#9f2d9a1950)"><path stroke-linecap="butt" transform="matrix(0.750527, 0, 0, 0.750699, 83.184892, 104.556532)" fill="none" stroke-linejoin="miter" d="M 233.329039 -0.00245685 C 104.466499 -0.00245685 -0.0017303 67.543959 -0.0017303 150.85693 C -0.0017303 234.175104 104.466499 301.716316 233.329039 301.716316 C 362.191578 301.716316 466.659808 234.175104 466.659808 150.85693 C 466.659808 67.543959 362.191578 -0.00245685 233.329039 -0.00245685 " stroke="#000000" stroke-width="4" stroke-opacity="1" stroke-miterlimit="4"/></g></g><g clip-path="url(#4e7a315d1a)"><g clip-path="url(#ab082818fc)"><path stroke-linecap="butt" transform="matrix(0.750785, 0, 0, 0.748254, 374.940656, 142.598749)" fill="none" stroke-linejoin="miter" d="M 119.370811 -0.00146026 C 53.445044 -0.00146026 0.000999203 34.55295 0.000999203 77.178235 C 0.000999203 119.80352 53.445044 154.35793 119.370811 154.35793 C 185.296579 154.35793 238.740624 119.80352 238.740624 77.178235 C 238.740624 34.55295 185.296579 -0.00146026 119.370811 -0.00146026 " stroke="#000000" stroke-width="4" stroke-opacity="1" stroke-miterlimit="4"/></g></g><g clip-path="url(#b63dd0933c)"><g clip-path="url(#e2a572e096)"><path stroke-linecap="butt" transform="matrix(0.750785, 0, 0, 0.748254, 219.695883, 147.129305)" fill="none" stroke-linejoin="miter" d="M 119.369052 -0.000533362 C 53.443284 -0.000533362 -0.000760344 34.553877 -0.000760344 77.179162 C -0.000760344 119.804447 53.443284 154.358857 119.369052 154.358857 C 185.300023 154.358857 238.744067 119.804447 238.744067 77.179162 C 238.744067 34.553877 185.300023 -0.000533362 119.369052 -0.000533362 " stroke="#000000" stroke-width="4" stroke-opacity="1" stroke-miterlimit="4"/></g></g><g fill="#000000" fill-opacity="1"><g transform="translate(269.381878, 193.883946)"><g><path d="M 9.75 -3.78125 C 9.75 -2.550781 9.304688 -1.582031 8.421875 -0.875 C 7.535156 -0.164062 6.304688 0.1875 4.734375 0.1875 C 3.273438 0.1875 1.988281 -0.0859375 0.875 -0.640625 L 0.875 -3.3125 C 1.789062 -2.90625 2.566406 -2.617188 3.203125 -2.453125 C 3.835938 -2.285156 4.421875 -2.203125 4.953125 -2.203125 C 5.585938 -2.203125 6.070312 -2.320312 6.40625 -2.5625 C 6.75 -2.800781 6.921875 -3.160156 6.921875 -3.640625 C 6.921875 -3.910156 6.84375 -4.148438 6.6875 -4.359375 C 6.539062 -4.566406 6.320312 -4.765625 6.03125 -4.953125 C 5.75 -5.148438 5.164062 -5.457031 4.28125 -5.875 C 3.445312 -6.269531 2.820312 -6.644531 2.40625 -7 C 1.988281 -7.363281 1.65625 -7.785156 1.40625 -8.265625 C 1.15625 -8.742188 1.03125 -9.300781 1.03125 -9.9375 C 1.03125 -11.144531 1.4375 -12.09375 2.25 -12.78125 C 3.070312 -13.46875 4.203125 -13.8125 5.640625 -13.8125 C 6.347656 -13.8125 7.023438 -13.726562 7.671875 -13.5625 C 8.316406 -13.394531 8.988281 -13.160156 9.6875 -12.859375 L 8.75 -10.609375 C 8.03125 -10.910156 7.429688 -11.117188 6.953125 -11.234375 C 6.472656 -11.347656 6.003906 -11.40625 5.546875 -11.40625 C 5.003906 -11.40625 4.585938 -11.273438 4.296875 -11.015625 C 4.003906 -10.765625 3.859375 -10.4375 3.859375 -10.03125 C 3.859375 -9.78125 3.914062 -9.554688 4.03125 -9.359375 C 4.144531 -9.171875 4.332031 -8.988281 4.59375 -8.8125 C 4.851562 -8.632812 5.460938 -8.316406 6.421875 -7.859375 C 7.703125 -7.253906 8.578125 -6.644531 9.046875 -6.03125 C 9.515625 -5.414062 9.75 -4.664062 9.75 -3.78125 Z M 9.75 -3.78125 "/></g></g></g><g fill="#000000" fill-opacity="1"><g transform="translate(279.887948, 193.883946)"><g><path d="M 3.75 -5.21875 C 3.75 -4.1875 3.914062 -3.40625 4.25 -2.875 C 4.59375 -2.351562 5.148438 -2.09375 5.921875 -2.09375 C 6.671875 -2.09375 7.210938 -2.351562 7.546875 -2.875 C 7.878906 -3.40625 8.046875 -4.1875 8.046875 -5.21875 C 8.046875 -6.25 7.878906 -7.019531 7.546875 -7.53125 C 7.210938 -8.050781 6.660156 -8.3125 5.890625 -8.3125 C 5.140625 -8.3125 4.59375 -8.054688 4.25 -7.546875 C 3.914062 -7.035156 3.75 -6.257812 3.75 -5.21875 Z M 10.953125 -5.21875 C 10.953125 -3.53125 10.503906 -2.207031 9.609375 -1.25 C 8.710938 -0.289062 7.46875 0.1875 5.875 0.1875 C 4.875 0.1875 3.992188 -0.03125 3.234375 -0.46875 C 2.472656 -0.90625 1.882812 -1.535156 1.46875 -2.359375 C 1.0625 -3.179688 0.859375 -4.132812 0.859375 -5.21875 C 0.859375 -6.925781 1.300781 -8.25 2.1875 -9.1875 C 3.070312 -10.132812 4.320312 -10.609375 5.9375 -10.609375 C 6.9375 -10.609375 7.816406 -10.390625 8.578125 -9.953125 C 9.335938 -9.523438 9.921875 -8.898438 10.328125 -8.078125 C 10.742188 -7.265625 10.953125 -6.3125 10.953125 -5.21875 Z M 10.953125 -5.21875 "/></g></g></g><g fill="#000000" fill-opacity="1"><g transform="translate(291.697964, 193.883946)"><g><path d="M 7.28125 -10.609375 C 8.507812 -10.609375 9.472656 -10.128906 10.171875 -9.171875 C 10.867188 -8.210938 11.21875 -6.894531 11.21875 -5.21875 C 11.21875 -3.5 10.859375 -2.164062 10.140625 -1.21875 C 9.421875 -0.28125 8.441406 0.1875 7.203125 0.1875 C 5.984375 0.1875 5.023438 -0.253906 4.328125 -1.140625 L 4.140625 -1.140625 L 3.65625 0 L 1.484375 0 L 1.484375 -14.5 L 4.328125 -14.5 L 4.328125 -11.125 C 4.328125 -10.695312 4.289062 -10.007812 4.21875 -9.0625 L 4.328125 -9.0625 C 4.992188 -10.09375 5.976562 -10.609375 7.28125 -10.609375 Z M 6.375 -8.34375 C 5.664062 -8.34375 5.148438 -8.125 4.828125 -7.6875 C 4.503906 -7.257812 4.335938 -6.546875 4.328125 -5.546875 L 4.328125 -5.25 C 4.328125 -4.125 4.492188 -3.316406 4.828125 -2.828125 C 5.160156 -2.347656 5.6875 -2.109375 6.40625 -2.109375 C 6.988281 -2.109375 7.453125 -2.375 7.796875 -2.90625 C 8.140625 -3.445312 8.3125 -4.234375 8.3125 -5.265625 C 8.3125 -6.285156 8.140625 -7.050781 7.796875 -7.5625 C 7.453125 -8.082031 6.976562 -8.34375 6.375 -8.34375 Z M 6.375 -8.34375 "/></g></g></g><g fill="#000000" fill-opacity="1"><g transform="translate(303.768768, 193.883946)"><g><path d="M 7.296875 -10.609375 C 7.679688 -10.609375 8.003906 -10.582031 8.265625 -10.53125 L 8.046875 -7.859375 C 7.816406 -7.921875 7.535156 -7.953125 7.203125 -7.953125 C 6.296875 -7.953125 5.585938 -7.71875 5.078125 -7.25 C 4.578125 -6.789062 4.328125 -6.140625 4.328125 -5.296875 L 4.328125 0 L 1.484375 0 L 1.484375 -10.421875 L 3.640625 -10.421875 L 4.0625 -8.65625 L 4.203125 -8.65625 C 4.523438 -9.25 4.957031 -9.722656 5.5 -10.078125 C 6.050781 -10.429688 6.648438 -10.609375 7.296875 -10.609375 Z M 7.296875 -10.609375 "/></g></g></g><g fill="#000000" fill-opacity="1"><g transform="translate(312.430688, 193.883946)"><g><path d="M 1.375 -13.109375 C 1.375 -14.035156 1.890625 -14.5 2.921875 -14.5 C 3.953125 -14.5 4.46875 -14.035156 4.46875 -13.109375 C 4.46875 -12.671875 4.335938 -12.328125 4.078125 -12.078125 C 3.816406 -11.828125 3.429688 -11.703125 2.921875 -11.703125 C 1.890625 -11.703125 1.375 -12.171875 1.375 -13.109375 Z M 4.328125 0 L 1.484375 0 L 1.484375 -10.421875 L 4.328125 -10.421875 Z M 4.328125 0 "/></g></g></g><g fill="#000000" fill-opacity="1"><g transform="translate(318.251871, 193.883946)"><g><path d="M 5.796875 -8.59375 C 5.203125 -8.59375 4.734375 -8.398438 4.390625 -8.015625 C 4.046875 -7.628906 3.847656 -7.085938 3.796875 -6.390625 L 7.78125 -6.390625 C 7.769531 -7.085938 7.585938 -7.628906 7.234375 -8.015625 C 6.878906 -8.398438 6.398438 -8.59375 5.796875 -8.59375 Z M 6.203125 0.1875 C 4.523438 0.1875 3.210938 -0.273438 2.265625 -1.203125 C 1.328125 -2.128906 0.859375 -3.441406 0.859375 -5.140625 C 0.859375 -6.878906 1.289062 -8.222656 2.15625 -9.171875 C 3.03125 -10.128906 4.238281 -10.609375 5.78125 -10.609375 C 7.257812 -10.609375 8.40625 -10.1875 9.21875 -9.34375 C 10.039062 -8.507812 10.453125 -7.351562 10.453125 -5.875 L 10.453125 -4.5 L 3.734375 -4.5 C 3.765625 -3.6875 4.003906 -3.050781 4.453125 -2.59375 C 4.898438 -2.144531 5.523438 -1.921875 6.328125 -1.921875 C 6.960938 -1.921875 7.554688 -1.984375 8.109375 -2.109375 C 8.671875 -2.242188 9.253906 -2.457031 9.859375 -2.75 L 9.859375 -0.546875 C 9.367188 -0.296875 8.835938 -0.113281 8.265625 0 C 7.703125 0.125 7.015625 0.1875 6.203125 0.1875 Z M 4.171875 -11.5625 L 4.171875 -11.8125 C 5.234375 -13.050781 5.960938 -13.984375 6.359375 -14.609375 L 9.546875 -14.609375 L 9.546875 -14.421875 C 9.222656 -14.097656 8.671875 -13.617188 7.890625 -12.984375 C 7.109375 -12.347656 6.5 -11.875 6.0625 -11.5625 Z M 4.171875 -11.5625 "/></g></g></g><g fill="#000000" fill-opacity="1"><g transform="translate(329.52168, 193.883946)"><g><path d="M 5.875 -2.078125 C 6.375 -2.078125 6.972656 -2.1875 7.671875 -2.40625 L 7.671875 -0.28125 C 6.960938 0.03125 6.09375 0.1875 5.0625 0.1875 C 3.925781 0.1875 3.097656 -0.0976562 2.578125 -0.671875 C 2.054688 -1.242188 1.796875 -2.109375 1.796875 -3.265625 L 1.796875 -8.28125 L 0.4375 -8.28125 L 0.4375 -9.484375 L 2 -10.4375 L 2.828125 -12.625 L 4.640625 -12.625 L 4.640625 -10.421875 L 7.5625 -10.421875 L 7.5625 -8.28125 L 4.640625 -8.28125 L 4.640625 -3.265625 C 4.640625 -2.859375 4.75 -2.554688 4.96875 -2.359375 C 5.195312 -2.171875 5.5 -2.078125 5.875 -2.078125 Z M 5.875 -2.078125 "/></g></g></g><g fill="#000000" fill-opacity="1"><g transform="translate(337.80173, 193.883946)"><g><path d="M 5.796875 -8.59375 C 5.203125 -8.59375 4.734375 -8.398438 4.390625 -8.015625 C 4.046875 -7.628906 3.847656 -7.085938 3.796875 -6.390625 L 7.78125 -6.390625 C 7.769531 -7.085938 7.585938 -7.628906 7.234375 -8.015625 C 6.878906 -8.398438 6.398438 -8.59375 5.796875 -8.59375 Z M 6.203125 0.1875 C 4.523438 0.1875 3.210938 -0.273438 2.265625 -1.203125 C 1.328125 -2.128906 0.859375 -3.441406 0.859375 -5.140625 C 0.859375 -6.878906 1.289062 -8.222656 2.15625 -9.171875 C 3.03125 -10.128906 4.238281 -10.609375 5.78125 -10.609375 C 7.257812 -10.609375 8.40625 -10.1875 9.21875 -9.34375 C 10.039062 -8.507812 10.453125 -7.351562 10.453125 -5.875 L 10.453125 -4.5 L 3.734375 -4.5 C 3.765625 -3.6875 4.003906 -3.050781 4.453125 -2.59375 C 4.898438 -2.144531 5.523438 -1.921875 6.328125 -1.921875 C 6.960938 -1.921875 7.554688 -1.984375 8.109375 -2.109375 C 8.671875 -2.242188 9.253906 -2.457031 9.859375 -2.75 L 9.859375 -0.546875 C 9.367188 -0.296875 8.835938 -0.113281 8.265625 0 C 7.703125 0.125 7.015625 0.1875 6.203125 0.1875 Z M 4.171875 -11.5625 L 4.171875 -11.8125 C 5.234375 -13.050781 5.960938 -13.984375 6.359375 -14.609375 L 9.546875 -14.609375 L 9.546875 -14.421875 C 9.222656 -14.097656 8.671875 -13.617188 7.890625 -12.984375 C 7.109375 -12.347656 6.5 -11.875 6.0625 -11.5625 Z M 4.171875 -11.5625 "/></g></g></g><g fill="#000000" fill-opacity="1"><g transform="translate(256.507643, 220.303218)"><g><path d="M 11.109375 0 L 8.265625 0 L 8.265625 -6.078125 C 8.265625 -6.828125 8.128906 -7.390625 7.859375 -7.765625 C 7.597656 -8.148438 7.175781 -8.34375 6.59375 -8.34375 C 5.789062 -8.34375 5.210938 -8.078125 4.859375 -7.546875 C 4.503906 -7.015625 4.328125 -6.132812 4.328125 -4.90625 L 4.328125 0 L 1.484375 0 L 1.484375 -10.421875 L 3.65625 -10.421875 L 4.046875 -9.078125 L 4.203125 -9.078125 C 4.515625 -9.585938 4.945312 -9.96875 5.5 -10.21875 C 6.0625 -10.476562 6.695312 -10.609375 7.40625 -10.609375 C 8.613281 -10.609375 9.53125 -10.28125 10.15625 -9.625 C 10.789062 -8.96875 11.109375 -8.023438 11.109375 -6.796875 Z M 11.109375 0 "/></g></g></g><g fill="#000000" fill-opacity="1"><g transform="translate(269.044142, 220.303218)"><g><path d="M 8.875 0 L 8.484375 -1.328125 L 8.34375 -1.328125 C 8.03125 -0.847656 7.59375 -0.472656 7.03125 -0.203125 C 6.476562 0.0546875 5.847656 0.1875 5.140625 0.1875 C 3.910156 0.1875 2.984375 -0.140625 2.359375 -0.796875 C 1.742188 -1.453125 1.4375 -2.394531 1.4375 -3.625 L 1.4375 -10.421875 L 4.28125 -10.421875 L 4.28125 -4.328125 C 4.28125 -3.578125 4.410156 -3.015625 4.671875 -2.640625 C 4.941406 -2.265625 5.367188 -2.078125 5.953125 -2.078125 C 6.742188 -2.078125 7.316406 -2.34375 7.671875 -2.875 C 8.023438 -3.40625 8.203125 -4.285156 8.203125 -5.515625 L 8.203125 -10.421875 L 11.046875 -10.421875 L 11.046875 0 Z M 8.875 0 "/></g></g></g><g fill="#000000" fill-opacity="1"><g transform="translate(281.580641, 220.303218)"><g><path d="M 10.8125 0 L 7.96875 0 L 7.96875 -6.078125 C 7.96875 -6.828125 7.84375 -7.390625 7.59375 -7.765625 C 7.34375 -8.148438 6.945312 -8.34375 6.40625 -8.34375 C 5.675781 -8.34375 5.144531 -8.070312 4.8125 -7.53125 C 4.488281 -7 4.328125 -6.125 4.328125 -4.90625 L 4.328125 0 L 1.484375 0 L 1.484375 -10.421875 L 3.65625 -10.421875 L 4.046875 -9.078125 L 4.203125 -9.078125 C 4.484375 -9.554688 4.882812 -9.929688 5.40625 -10.203125 C 5.9375 -10.472656 6.546875 -10.609375 7.234375 -10.609375 C 8.785156 -10.609375 9.835938 -10.097656 10.390625 -9.078125 L 10.640625 -9.078125 C 10.921875 -9.566406 11.332031 -9.941406 11.875 -10.203125 C 12.425781 -10.472656 13.039062 -10.609375 13.71875 -10.609375 C 14.894531 -10.609375 15.785156 -10.304688 16.390625 -9.703125 C 17.003906 -9.097656 17.3125 -8.128906 17.3125 -6.796875 L 17.3125 0 L 14.453125 0 L 14.453125 -6.078125 C 14.453125 -6.828125 14.328125 -7.390625 14.078125 -7.765625 C 13.828125 -8.148438 13.429688 -8.34375 12.890625 -8.34375 C 12.191406 -8.34375 11.671875 -8.09375 11.328125 -7.59375 C 10.984375 -7.09375 10.8125 -6.300781 10.8125 -5.21875 Z M 10.8125 0 "/></g></g></g><g fill="#000000" fill-opacity="1"><g transform="translate(300.310878, 220.303218)"><g><path d="M 5.796875 -8.59375 C 5.203125 -8.59375 4.734375 -8.398438 4.390625 -8.015625 C 4.046875 -7.628906 3.847656 -7.085938 3.796875 -6.390625 L 7.78125 -6.390625 C 7.769531 -7.085938 7.585938 -7.628906 7.234375 -8.015625 C 6.878906 -8.398438 6.398438 -8.59375 5.796875 -8.59375 Z M 6.203125 0.1875 C 4.523438 0.1875 3.210938 -0.273438 2.265625 -1.203125 C 1.328125 -2.128906 0.859375 -3.441406 0.859375 -5.140625 C 0.859375 -6.878906 1.289062 -8.222656 2.15625 -9.171875 C 3.03125 -10.128906 4.238281 -10.609375 5.78125 -10.609375 C 7.257812 -10.609375 8.40625 -10.1875 9.21875 -9.34375 C 10.039062 -8.507812 10.453125 -7.351562 10.453125 -5.875 L 10.453125 -4.5 L 3.734375 -4.5 C 3.765625 -3.6875 4.003906 -3.050781 4.453125 -2.59375 C 4.898438 -2.144531 5.523438 -1.921875 6.328125 -1.921875 C 6.960938 -1.921875 7.554688 -1.984375 8.109375 -2.109375 C 8.671875 -2.242188 9.253906 -2.457031 9.859375 -2.75 L 9.859375 -0.546875 C 9.367188 -0.296875 8.835938 -0.113281 8.265625 0 C 7.703125 0.125 7.015625 0.1875 6.203125 0.1875 Z M 4.171875 -11.5625 L 4.171875 -11.8125 C 5.234375 -13.050781 5.960938 -13.984375 6.359375 -14.609375 L 9.546875 -14.609375 L 9.546875 -14.421875 C 9.222656 -14.097656 8.671875 -13.617188 7.890625 -12.984375 C 7.109375 -12.347656 6.5 -11.875 6.0625 -11.5625 Z M 4.171875 -11.5625 "/></g></g></g><g fill="#000000" fill-opacity="1"><g transform="translate(311.580688, 220.303218)"><g><path d="M 7.296875 -10.609375 C 7.679688 -10.609375 8.003906 -10.582031 8.265625 -10.53125 L 8.046875 -7.859375 C 7.816406 -7.921875 7.535156 -7.953125 7.203125 -7.953125 C 6.296875 -7.953125 5.585938 -7.71875 5.078125 -7.25 C 4.578125 -6.789062 4.328125 -6.140625 4.328125 -5.296875 L 4.328125 0 L 1.484375 0 L 1.484375 -10.421875 L 3.640625 -10.421875 L 4.0625 -8.65625 L 4.203125 -8.65625 C 4.523438 -9.25 4.957031 -9.722656 5.5 -10.078125 C 6.050781 -10.429688 6.648438 -10.609375 7.296875 -10.609375 Z M 7.296875 -10.609375 "/></g></g></g><g fill="#000000" fill-opacity="1"><g transform="translate(320.242608, 220.303218)"><g><path d="M 1.375 -13.109375 C 1.375 -14.035156 1.890625 -14.5 2.921875 -14.5 C 3.953125 -14.5 4.46875 -14.035156 4.46875 -13.109375 C 4.46875 -12.671875 4.335938 -12.328125 4.078125 -12.078125 C 3.816406 -11.828125 3.429688 -11.703125 2.921875 -11.703125 C 1.890625 -11.703125 1.375 -12.171875 1.375 -13.109375 Z M 4.328125 0 L 1.484375 0 L 1.484375 -10.421875 L 4.328125 -10.421875 Z M 4.328125 0 "/></g></g></g><g fill="#000000" fill-opacity="1"><g transform="translate(326.06379, 220.303218)"><g><path d="M 5.796875 -2.046875 C 6.523438 -2.046875 7.054688 -2.25 7.390625 -2.65625 C 7.722656 -3.070312 7.90625 -3.796875 7.9375 -4.828125 L 7.9375 -5.171875 C 7.9375 -6.285156 7.765625 -7.082031 7.421875 -7.5625 C 7.078125 -8.050781 6.519531 -8.296875 5.75 -8.296875 C 4.414062 -8.296875 3.75 -7.25 3.75 -5.15625 C 3.75 -4.113281 3.914062 -3.332031 4.25 -2.8125 C 4.582031 -2.300781 5.097656 -2.046875 5.796875 -2.046875 Z M 4.78125 0.1875 C 3.550781 0.1875 2.585938 -0.285156 1.890625 -1.234375 C 1.203125 -2.179688 0.859375 -3.5 0.859375 -5.1875 C 0.859375 -6.882812 1.210938 -8.210938 1.921875 -9.171875 C 2.628906 -10.128906 3.601562 -10.609375 4.84375 -10.609375 C 5.5 -10.609375 6.070312 -10.484375 6.5625 -10.234375 C 7.050781 -9.984375 7.484375 -9.597656 7.859375 -9.078125 L 7.9375 -9.078125 L 8.1875 -10.421875 L 10.59375 -10.421875 L 10.59375 4.578125 L 7.734375 4.578125 L 7.734375 0.21875 C 7.734375 -0.164062 7.773438 -0.6875 7.859375 -1.34375 L 7.734375 -1.34375 C 7.429688 -0.84375 7.03125 -0.460938 6.53125 -0.203125 C 6.03125 0.0546875 5.445312 0.1875 4.78125 0.1875 Z M 4.78125 0.1875 "/></g></g></g><g fill="#000000" fill-opacity="1"><g transform="translate(338.134595, 220.303218)"><g><path d="M 8.875 0 L 8.484375 -1.328125 L 8.34375 -1.328125 C 8.03125 -0.847656 7.59375 -0.472656 7.03125 -0.203125 C 6.476562 0.0546875 5.847656 0.1875 5.140625 0.1875 C 3.910156 0.1875 2.984375 -0.140625 2.359375 -0.796875 C 1.742188 -1.453125 1.4375 -2.394531 1.4375 -3.625 L 1.4375 -10.421875 L 4.28125 -10.421875 L 4.28125 -4.328125 C 4.28125 -3.578125 4.410156 -3.015625 4.671875 -2.640625 C 4.941406 -2.265625 5.367188 -2.078125 5.953125 -2.078125 C 6.742188 -2.078125 7.316406 -2.34375 7.671875 -2.875 C 8.023438 -3.40625 8.203125 -4.285156 8.203125 -5.515625 L 8.203125 -10.421875 L 11.046875 -10.421875 L 11.046875 0 Z M 8.875 0 "/></g></g></g><g fill="#000000" fill-opacity="1"><g transform="translate(350.671094, 220.303218)"><g><path d="M 5.796875 -8.59375 C 5.203125 -8.59375 4.734375 -8.398438 4.390625 -8.015625 C 4.046875 -7.628906 3.847656 -7.085938 3.796875 -6.390625 L 7.78125 -6.390625 C 7.769531 -7.085938 7.585938 -7.628906 7.234375 -8.015625 C 6.878906 -8.398438 6.398438 -8.59375 5.796875 -8.59375 Z M 6.203125 0.1875 C 4.523438 0.1875 3.210938 -0.273438 2.265625 -1.203125 C 1.328125 -2.128906 0.859375 -3.441406 0.859375 -5.140625 C 0.859375 -6.878906 1.289062 -8.222656 2.15625 -9.171875 C 3.03125 -10.128906 4.238281 -10.609375 5.78125 -10.609375 C 7.257812 -10.609375 8.40625 -10.1875 9.21875 -9.34375 C 10.039062 -8.507812 10.453125 -7.351562 10.453125 -5.875 L 10.453125 -4.5 L 3.734375 -4.5 C 3.765625 -3.6875 4.003906 -3.050781 4.453125 -2.59375 C 4.898438 -2.144531 5.523438 -1.921875 6.328125 -1.921875 C 6.960938 -1.921875 7.554688 -1.984375 8.109375 -2.109375 C 8.671875 -2.242188 9.253906 -2.457031 9.859375 -2.75 L 9.859375 -0.546875 C 9.367188 -0.296875 8.835938 -0.113281 8.265625 0 C 7.703125 0.125 7.015625 0.1875 6.203125 0.1875 Z M 6.203125 0.1875 "/></g></g></g><g fill="#000000" fill-opacity="1"><g transform="translate(435.656704, 182.190425)"><g><path d="M 10.96875 -5.84375 C 10.96875 -3.957031 10.425781 -2.507812 9.34375 -1.5 C 8.269531 -0.5 6.71875 0 4.6875 0 L 1.4375 0 L 1.4375 -11.484375 L 5.046875 -11.484375 C 6.921875 -11.484375 8.375 -10.988281 9.40625 -10 C 10.445312 -9.007812 10.96875 -7.625 10.96875 -5.84375 Z M 8.4375 -5.78125 C 8.4375 -8.25 7.347656 -9.484375 5.171875 -9.484375 L 3.875 -9.484375 L 3.875 -2.015625 L 4.921875 -2.015625 C 7.265625 -2.015625 8.4375 -3.269531 8.4375 -5.78125 Z M 8.4375 -5.78125 "/></g></g></g><g fill="#000000" fill-opacity="1"><g transform="translate(447.558284, 182.190425)"><g><path d="M 1.15625 -11.046875 C 1.15625 -11.828125 1.585938 -12.21875 2.453125 -12.21875 C 3.328125 -12.21875 3.765625 -11.828125 3.765625 -11.046875 C 3.765625 -10.671875 3.65625 -10.378906 3.4375 -10.171875 C 3.21875 -9.972656 2.890625 -9.875 2.453125 -9.875 C 1.585938 -9.875 1.15625 -10.265625 1.15625 -11.046875 Z M 3.65625 0 L 1.25 0 L 1.25 -8.78125 L 3.65625 -8.78125 Z M 3.65625 0 "/></g></g></g><g fill="#000000" fill-opacity="1"><g transform="translate(452.464938, 182.190425)"><g><path d="M 9.109375 0 L 6.71875 0 L 6.71875 -5.125 C 6.71875 -5.757812 6.609375 -6.234375 6.390625 -6.546875 C 6.179688 -6.867188 5.851562 -7.03125 5.40625 -7.03125 C 4.789062 -7.03125 4.34375 -6.800781 4.0625 -6.34375 C 3.789062 -5.894531 3.65625 -5.15625 3.65625 -4.125 L 3.65625 0 L 1.25 0 L 1.25 -8.78125 L 3.078125 -8.78125 L 3.40625 -7.65625 L 3.546875 -7.65625 C 3.773438 -8.0625 4.113281 -8.375 4.5625 -8.59375 C 5.007812 -8.820312 5.519531 -8.9375 6.09375 -8.9375 C 7.40625 -8.9375 8.296875 -8.507812 8.765625 -7.65625 L 8.96875 -7.65625 C 9.207031 -8.0625 9.554688 -8.375 10.015625 -8.59375 C 10.472656 -8.820312 10.988281 -8.9375 11.5625 -8.9375 C 12.5625 -8.9375 13.316406 -8.679688 13.828125 -8.171875 C 14.335938 -7.660156 14.59375 -6.84375 14.59375 -5.71875 L 14.59375 0 L 12.1875 0 L 12.1875 -5.125 C 12.1875 -5.757812 12.078125 -6.234375 11.859375 -6.546875 C 11.648438 -6.867188 11.316406 -7.03125 10.859375 -7.03125 C 10.273438 -7.03125 9.835938 -6.816406 9.546875 -6.390625 C 9.253906 -5.972656 9.109375 -5.3125 9.109375 -4.40625 Z M 9.109375 0 "/></g></g></g><g fill="#000000" fill-opacity="1"><g transform="translate(468.252587, 182.190425)"><g><path d="M 1.15625 -11.046875 C 1.15625 -11.828125 1.585938 -12.21875 2.453125 -12.21875 C 3.328125 -12.21875 3.765625 -11.828125 3.765625 -11.046875 C 3.765625 -10.671875 3.65625 -10.378906 3.4375 -10.171875 C 3.21875 -9.972656 2.890625 -9.875 2.453125 -9.875 C 1.585938 -9.875 1.15625 -10.265625 1.15625 -11.046875 Z M 3.65625 0 L 1.25 0 L 1.25 -8.78125 L 3.65625 -8.78125 Z M 3.65625 0 "/></g></g></g><g fill="#000000" fill-opacity="1"><g transform="translate(473.159241, 182.190425)"><g><path d="M 9.359375 0 L 6.96875 0 L 6.96875 -5.125 C 6.96875 -5.757812 6.851562 -6.234375 6.625 -6.546875 C 6.394531 -6.867188 6.035156 -7.03125 5.546875 -7.03125 C 4.878906 -7.03125 4.394531 -6.804688 4.09375 -6.359375 C 3.800781 -5.910156 3.65625 -5.164062 3.65625 -4.125 L 3.65625 0 L 1.25 0 L 1.25 -8.78125 L 3.078125 -8.78125 L 3.40625 -7.65625 L 3.546875 -7.65625 C 3.804688 -8.082031 4.171875 -8.398438 4.640625 -8.609375 C 5.109375 -8.828125 5.640625 -8.9375 6.234375 -8.9375 C 7.253906 -8.9375 8.03125 -8.660156 8.5625 -8.109375 C 9.09375 -7.554688 9.359375 -6.757812 9.359375 -5.71875 Z M 9.359375 0 "/></g></g></g><g fill="#000000" fill-opacity="1"><g transform="translate(483.726211, 182.190425)"><g><path d="M 7.46875 0 L 7.15625 -1.125 L 7.03125 -1.125 C 6.769531 -0.71875 6.40625 -0.398438 5.9375 -0.171875 C 5.46875 0.046875 4.929688 0.15625 4.328125 0.15625 C 3.296875 0.15625 2.515625 -0.117188 1.984375 -0.671875 C 1.460938 -1.222656 1.203125 -2.015625 1.203125 -3.046875 L 1.203125 -8.78125 L 3.609375 -8.78125 L 3.609375 -3.65625 C 3.609375 -3.019531 3.71875 -2.539062 3.9375 -2.21875 C 4.164062 -1.90625 4.523438 -1.75 5.015625 -1.75 C 5.679688 -1.75 6.164062 -1.972656 6.46875 -2.421875 C 6.769531 -2.867188 6.921875 -3.609375 6.921875 -4.640625 L 6.921875 -8.78125 L 9.3125 -8.78125 L 9.3125 0 Z M 7.46875 0 "/></g></g></g><g fill="#000000" fill-opacity="1"><g transform="translate(494.293181, 182.190425)"><g><path d="M 4.890625 -7.234375 C 4.378906 -7.234375 3.976562 -7.070312 3.6875 -6.75 C 3.40625 -6.425781 3.242188 -5.972656 3.203125 -5.390625 L 6.5625 -5.390625 C 6.550781 -5.972656 6.394531 -6.425781 6.09375 -6.75 C 5.800781 -7.070312 5.398438 -7.234375 4.890625 -7.234375 Z M 5.234375 0.15625 C 3.816406 0.15625 2.707031 -0.234375 1.90625 -1.015625 C 1.113281 -1.796875 0.71875 -2.898438 0.71875 -4.328125 C 0.71875 -5.796875 1.082031 -6.929688 1.8125 -7.734375 C 2.550781 -8.535156 3.570312 -8.9375 4.875 -8.9375 C 6.113281 -8.9375 7.078125 -8.582031 7.765625 -7.875 C 8.460938 -7.175781 8.8125 -6.203125 8.8125 -4.953125 L 8.8125 -3.796875 L 3.140625 -3.796875 C 3.171875 -3.109375 3.375 -2.570312 3.75 -2.1875 C 4.125 -1.8125 4.65625 -1.625 5.34375 -1.625 C 5.863281 -1.625 6.359375 -1.675781 6.828125 -1.78125 C 7.304688 -1.894531 7.800781 -2.070312 8.3125 -2.3125 L 8.3125 -0.46875 C 7.894531 -0.257812 7.445312 -0.101562 6.96875 0 C 6.488281 0.101562 5.910156 0.15625 5.234375 0.15625 Z M 5.234375 0.15625 "/></g></g></g><g fill="#000000" fill-opacity="1"><g transform="translate(503.792463, 182.190425)"><g><path d="M 6.15625 -8.9375 C 6.476562 -8.9375 6.75 -8.914062 6.96875 -8.875 L 6.78125 -6.625 C 6.59375 -6.675781 6.359375 -6.703125 6.078125 -6.703125 C 5.316406 -6.703125 4.722656 -6.503906 4.296875 -6.109375 C 3.867188 -5.722656 3.65625 -5.175781 3.65625 -4.46875 L 3.65625 0 L 1.25 0 L 1.25 -8.78125 L 3.0625 -8.78125 L 3.421875 -7.296875 L 3.546875 -7.296875 C 3.816406 -7.796875 4.179688 -8.191406 4.640625 -8.484375 C 5.109375 -8.785156 5.613281 -8.9375 6.15625 -8.9375 Z M 6.15625 -8.9375 "/></g></g></g><g fill="#000000" fill-opacity="1"><g transform="translate(426.680142, 204.690423)"><g><path d="M 3.65625 0 L 1.25 0 L 1.25 -12.21875 L 3.65625 -12.21875 Z M 3.65625 0 "/></g></g></g><g fill="#000000" fill-opacity="1"><g transform="translate(431.586796, 204.690423)"><g><path d="M 3.234375 -11.484375 L 2.90625 -7.328125 L 1.359375 -7.328125 L 1.046875 -11.484375 Z M 3.234375 -11.484375 "/></g></g></g><g fill="#000000" fill-opacity="1"><g transform="translate(435.865398, 204.690423)"><g><path d="M 4.890625 -7.234375 C 4.378906 -7.234375 3.976562 -7.070312 3.6875 -6.75 C 3.40625 -6.425781 3.242188 -5.972656 3.203125 -5.390625 L 6.5625 -5.390625 C 6.550781 -5.972656 6.394531 -6.425781 6.09375 -6.75 C 5.800781 -7.070312 5.398438 -7.234375 4.890625 -7.234375 Z M 5.234375 0.15625 C 3.816406 0.15625 2.707031 -0.234375 1.90625 -1.015625 C 1.113281 -1.796875 0.71875 -2.898438 0.71875 -4.328125 C 0.71875 -5.796875 1.082031 -6.929688 1.8125 -7.734375 C 2.550781 -8.535156 3.570312 -8.9375 4.875 -8.9375 C 6.113281 -8.9375 7.078125 -8.582031 7.765625 -7.875 C 8.460938 -7.175781 8.8125 -6.203125 8.8125 -4.953125 L 8.8125 -3.796875 L 3.140625 -3.796875 C 3.171875 -3.109375 3.375 -2.570312 3.75 -2.1875 C 4.125 -1.8125 4.65625 -1.625 5.34375 -1.625 C 5.863281 -1.625 6.359375 -1.675781 6.828125 -1.78125 C 7.304688 -1.894531 7.800781 -2.070312 8.3125 -2.3125 L 8.3125 -0.46875 C 7.894531 -0.257812 7.445312 -0.101562 6.96875 0 C 6.488281 0.101562 5.910156 0.15625 5.234375 0.15625 Z M 5.234375 0.15625 "/></g></g></g><g fill="#000000" fill-opacity="1"><g transform="translate(445.36468, 204.690423)"><g><path d="M 9.109375 0 L 6.71875 0 L 6.71875 -5.125 C 6.71875 -5.757812 6.609375 -6.234375 6.390625 -6.546875 C 6.179688 -6.867188 5.851562 -7.03125 5.40625 -7.03125 C 4.789062 -7.03125 4.34375 -6.800781 4.0625 -6.34375 C 3.789062 -5.894531 3.65625 -5.15625 3.65625 -4.125 L 3.65625 0 L 1.25 0 L 1.25 -8.78125 L 3.078125 -8.78125 L 3.40625 -7.65625 L 3.546875 -7.65625 C 3.773438 -8.0625 4.113281 -8.375 4.5625 -8.59375 C 5.007812 -8.820312 5.519531 -8.9375 6.09375 -8.9375 C 7.40625 -8.9375 8.296875 -8.507812 8.765625 -7.65625 L 8.96875 -7.65625 C 9.207031 -8.0625 9.554688 -8.375 10.015625 -8.59375 C 10.472656 -8.820312 10.988281 -8.9375 11.5625 -8.9375 C 12.5625 -8.9375 13.316406 -8.679688 13.828125 -8.171875 C 14.335938 -7.660156 14.59375 -6.84375 14.59375 -5.71875 L 14.59375 0 L 12.1875 0 L 12.1875 -5.125 C 12.1875 -5.757812 12.078125 -6.234375 11.859375 -6.546875 C 11.648438 -6.867188 11.316406 -7.03125 10.859375 -7.03125 C 10.273438 -7.03125 9.835938 -6.816406 9.546875 -6.390625 C 9.253906 -5.972656 9.109375 -5.3125 9.109375 -4.40625 Z M 9.109375 0 "/></g></g></g><g fill="#000000" fill-opacity="1"><g transform="translate(461.15233, 204.690423)"><g><path d="M 6.078125 0.15625 C 5.046875 0.15625 4.238281 -0.21875 3.65625 -0.96875 L 3.53125 -0.96875 C 3.613281 -0.226562 3.65625 0.195312 3.65625 0.3125 L 3.65625 3.859375 L 1.25 3.859375 L 1.25 -8.78125 L 3.203125 -8.78125 L 3.546875 -7.640625 L 3.65625 -7.640625 C 4.207031 -8.503906 5.035156 -8.9375 6.140625 -8.9375 C 7.171875 -8.9375 7.976562 -8.535156 8.5625 -7.734375 C 9.15625 -6.941406 9.453125 -5.832031 9.453125 -4.40625 C 9.453125 -3.46875 9.3125 -2.648438 9.03125 -1.953125 C 8.757812 -1.265625 8.367188 -0.738281 7.859375 -0.375 C 7.359375 -0.0195312 6.765625 0.15625 6.078125 0.15625 Z M 5.375 -7.03125 C 4.78125 -7.03125 4.347656 -6.847656 4.078125 -6.484375 C 3.804688 -6.117188 3.664062 -5.515625 3.65625 -4.671875 L 3.65625 -4.421875 C 3.65625 -3.472656 3.789062 -2.796875 4.0625 -2.390625 C 4.34375 -1.984375 4.789062 -1.78125 5.40625 -1.78125 C 6.476562 -1.78125 7.015625 -2.664062 7.015625 -4.4375 C 7.015625 -5.300781 6.878906 -5.945312 6.609375 -6.375 C 6.347656 -6.8125 5.9375 -7.03125 5.375 -7.03125 Z M 5.375 -7.03125 "/></g></g></g><g fill="#000000" fill-opacity="1"><g transform="translate(471.326768, 204.690423)"><g><path d="M 6.15625 -8.9375 C 6.476562 -8.9375 6.75 -8.914062 6.96875 -8.875 L 6.78125 -6.625 C 6.59375 -6.675781 6.359375 -6.703125 6.078125 -6.703125 C 5.316406 -6.703125 4.722656 -6.503906 4.296875 -6.109375 C 3.867188 -5.722656 3.65625 -5.175781 3.65625 -4.46875 L 3.65625 0 L 1.25 0 L 1.25 -8.78125 L 3.0625 -8.78125 L 3.421875 -7.296875 L 3.546875 -7.296875 C 3.816406 -7.796875 4.179688 -8.191406 4.640625 -8.484375 C 5.109375 -8.785156 5.613281 -8.9375 6.15625 -8.9375 Z M 6.15625 -8.9375 "/></g></g></g><g fill="#000000" fill-opacity="1"><g transform="translate(478.627869, 204.690423)"><g><path d="M 4.890625 -7.234375 C 4.378906 -7.234375 3.976562 -7.070312 3.6875 -6.75 C 3.40625 -6.425781 3.242188 -5.972656 3.203125 -5.390625 L 6.5625 -5.390625 C 6.550781 -5.972656 6.394531 -6.425781 6.09375 -6.75 C 5.800781 -7.070312 5.398438 -7.234375 4.890625 -7.234375 Z M 5.234375 0.15625 C 3.816406 0.15625 2.707031 -0.234375 1.90625 -1.015625 C 1.113281 -1.796875 0.71875 -2.898438 0.71875 -4.328125 C 0.71875 -5.796875 1.082031 -6.929688 1.8125 -7.734375 C 2.550781 -8.535156 3.570312 -8.9375 4.875 -8.9375 C 6.113281 -8.9375 7.078125 -8.582031 7.765625 -7.875 C 8.460938 -7.175781 8.8125 -6.203125 8.8125 -4.953125 L 8.8125 -3.796875 L 3.140625 -3.796875 C 3.171875 -3.109375 3.375 -2.570312 3.75 -2.1875 C 4.125 -1.8125 4.65625 -1.625 5.34375 -1.625 C 5.863281 -1.625 6.359375 -1.675781 6.828125 -1.78125 C 7.304688 -1.894531 7.800781 -2.070312 8.3125 -2.3125 L 8.3125 -0.46875 C 7.894531 -0.257812 7.445312 -0.101562 6.96875 0 C 6.488281 0.101562 5.910156 0.15625 5.234375 0.15625 Z M 5.234375 0.15625 "/></g></g></g><g fill="#000000" fill-opacity="1"><g transform="translate(488.127151, 204.690423)"><g><path d="M 1.15625 -11.046875 C 1.15625 -11.828125 1.585938 -12.21875 2.453125 -12.21875 C 3.328125 -12.21875 3.765625 -11.828125 3.765625 -11.046875 C 3.765625 -10.671875 3.65625 -10.378906 3.4375 -10.171875 C 3.21875 -9.972656 2.890625 -9.875 2.453125 -9.875 C 1.585938 -9.875 1.15625 -10.265625 1.15625 -11.046875 Z M 3.65625 0 L 1.25 0 L 1.25 -8.78125 L 3.65625 -8.78125 Z M 3.65625 0 "/></g></g></g><g fill="#000000" fill-opacity="1"><g transform="translate(493.033805, 204.690423)"><g><path d="M 9.359375 0 L 6.96875 0 L 6.96875 -5.125 C 6.96875 -5.757812 6.851562 -6.234375 6.625 -6.546875 C 6.394531 -6.867188 6.035156 -7.03125 5.546875 -7.03125 C 4.878906 -7.03125 4.394531 -6.804688 4.09375 -6.359375 C 3.800781 -5.910156 3.65625 -5.164062 3.65625 -4.125 L 3.65625 0 L 1.25 0 L 1.25 -8.78125 L 3.078125 -8.78125 L 3.40625 -7.65625 L 3.546875 -7.65625 C 3.804688 -8.082031 4.171875 -8.398438 4.640625 -8.609375 C 5.109375 -8.828125 5.640625 -8.9375 6.234375 -8.9375 C 7.253906 -8.9375 8.03125 -8.660156 8.5625 -8.109375 C 9.09375 -7.554688 9.359375 -6.757812 9.359375 -5.71875 Z M 9.359375 0 "/></g></g></g><g fill="#000000" fill-opacity="1"><g transform="translate(503.600775, 204.690423)"><g><path d="M 4.953125 -1.75 C 5.367188 -1.75 5.875 -1.84375 6.46875 -2.03125 L 6.46875 -0.25 C 5.863281 0.0195312 5.128906 0.15625 4.265625 0.15625 C 3.304688 0.15625 2.609375 -0.0820312 2.171875 -0.5625 C 1.734375 -1.050781 1.515625 -1.78125 1.515625 -2.75 L 1.515625 -6.984375 L 0.375 -6.984375 L 0.375 -7.984375 L 1.6875 -8.796875 L 2.375 -10.640625 L 3.90625 -10.640625 L 3.90625 -8.78125 L 6.359375 -8.78125 L 6.359375 -6.984375 L 3.90625 -6.984375 L 3.90625 -2.75 C 3.90625 -2.40625 4 -2.148438 4.1875 -1.984375 C 4.382812 -1.828125 4.640625 -1.75 4.953125 -1.75 Z M 4.953125 -1.75 "/></g></g></g><g fill="#000000" fill-opacity="1"><g transform="translate(510.579999, 204.690423)"><g><path d="M 4.890625 -7.234375 C 4.378906 -7.234375 3.976562 -7.070312 3.6875 -6.75 C 3.40625 -6.425781 3.242188 -5.972656 3.203125 -5.390625 L 6.5625 -5.390625 C 6.550781 -5.972656 6.394531 -6.425781 6.09375 -6.75 C 5.800781 -7.070312 5.398438 -7.234375 4.890625 -7.234375 Z M 5.234375 0.15625 C 3.816406 0.15625 2.707031 -0.234375 1.90625 -1.015625 C 1.113281 -1.796875 0.71875 -2.898438 0.71875 -4.328125 C 0.71875 -5.796875 1.082031 -6.929688 1.8125 -7.734375 C 2.550781 -8.535156 3.570312 -8.9375 4.875 -8.9375 C 6.113281 -8.9375 7.078125 -8.582031 7.765625 -7.875 C 8.460938 -7.175781 8.8125 -6.203125 8.8125 -4.953125 L 8.8125 -3.796875 L 3.140625 -3.796875 C 3.171875 -3.109375 3.375 -2.570312 3.75 -2.1875 C 4.125 -1.8125 4.65625 -1.625 5.34375 -1.625 C 5.863281 -1.625 6.359375 -1.675781 6.828125 -1.78125 C 7.304688 -1.894531 7.800781 -2.070312 8.3125 -2.3125 L 8.3125 -0.46875 C 7.894531 -0.257812 7.445312 -0.101562 6.96875 0 C 6.488281 0.101562 5.910156 0.15625 5.234375 0.15625 Z M 5.234375 0.15625 "/></g></g></g><g fill="#000000" fill-opacity="1"><g transform="translate(429.973111, 227.190422)"><g><path d="M 4.890625 -7.234375 C 4.378906 -7.234375 3.976562 -7.070312 3.6875 -6.75 C 3.40625 -6.425781 3.242188 -5.972656 3.203125 -5.390625 L 6.5625 -5.390625 C 6.550781 -5.972656 6.394531 -6.425781 6.09375 -6.75 C 5.800781 -7.070312 5.398438 -7.234375 4.890625 -7.234375 Z M 5.234375 0.15625 C 3.816406 0.15625 2.707031 -0.234375 1.90625 -1.015625 C 1.113281 -1.796875 0.71875 -2.898438 0.71875 -4.328125 C 0.71875 -5.796875 1.082031 -6.929688 1.8125 -7.734375 C 2.550781 -8.535156 3.570312 -8.9375 4.875 -8.9375 C 6.113281 -8.9375 7.078125 -8.582031 7.765625 -7.875 C 8.460938 -7.175781 8.8125 -6.203125 8.8125 -4.953125 L 8.8125 -3.796875 L 3.140625 -3.796875 C 3.171875 -3.109375 3.375 -2.570312 3.75 -2.1875 C 4.125 -1.8125 4.65625 -1.625 5.34375 -1.625 C 5.863281 -1.625 6.359375 -1.675781 6.828125 -1.78125 C 7.304688 -1.894531 7.800781 -2.070312 8.3125 -2.3125 L 8.3125 -0.46875 C 7.894531 -0.257812 7.445312 -0.101562 6.96875 0 C 6.488281 0.101562 5.910156 0.15625 5.234375 0.15625 Z M 3.515625 -9.75 L 3.515625 -9.953125 C 4.410156 -11.003906 5.023438 -11.789062 5.359375 -12.3125 L 8.046875 -12.3125 L 8.046875 -12.15625 C 7.773438 -11.882812 7.304688 -11.476562 6.640625 -10.9375 C 5.984375 -10.40625 5.472656 -10.007812 5.109375 -9.75 Z M 3.515625 -9.75 "/></g></g></g><g fill="#000000" fill-opacity="1"><g transform="translate(439.472393, 227.190422)"><g><path d="M 4.8125 0.15625 C 2.082031 0.15625 0.71875 -1.34375 0.71875 -4.34375 C 0.71875 -5.832031 1.085938 -6.96875 1.828125 -7.75 C 2.578125 -8.539062 3.644531 -8.9375 5.03125 -8.9375 C 6.050781 -8.9375 6.960938 -8.738281 7.765625 -8.34375 L 7.0625 -6.5 C 6.6875 -6.644531 6.332031 -6.765625 6 -6.859375 C 5.675781 -6.960938 5.351562 -7.015625 5.03125 -7.015625 C 3.78125 -7.015625 3.15625 -6.128906 3.15625 -4.359375 C 3.15625 -2.640625 3.78125 -1.78125 5.03125 -1.78125 C 5.488281 -1.78125 5.914062 -1.84375 6.3125 -1.96875 C 6.707031 -2.09375 7.097656 -2.285156 7.484375 -2.546875 L 7.484375 -0.5 C 7.097656 -0.25 6.707031 -0.078125 6.3125 0.015625 C 5.914062 0.109375 5.414062 0.15625 4.8125 0.15625 Z M 4.8125 0.15625 "/></g></g></g><g fill="#000000" fill-opacity="1"><g transform="translate(447.739123, 227.190422)"><g><path d="M 3.15625 -4.40625 C 3.15625 -3.53125 3.296875 -2.867188 3.578125 -2.421875 C 3.867188 -1.984375 4.335938 -1.765625 4.984375 -1.765625 C 5.617188 -1.765625 6.078125 -1.984375 6.359375 -2.421875 C 6.640625 -2.867188 6.78125 -3.53125 6.78125 -4.40625 C 6.78125 -5.269531 6.640625 -5.921875 6.359375 -6.359375 C 6.078125 -6.796875 5.613281 -7.015625 4.96875 -7.015625 C 4.332031 -7.015625 3.867188 -6.796875 3.578125 -6.359375 C 3.296875 -5.929688 3.15625 -5.28125 3.15625 -4.40625 Z M 9.234375 -4.40625 C 9.234375 -2.976562 8.851562 -1.859375 8.09375 -1.046875 C 7.34375 -0.242188 6.296875 0.15625 4.953125 0.15625 C 4.109375 0.15625 3.363281 -0.0234375 2.71875 -0.390625 C 2.082031 -0.765625 1.585938 -1.296875 1.234375 -1.984375 C 0.890625 -2.671875 0.71875 -3.476562 0.71875 -4.40625 C 0.71875 -5.84375 1.09375 -6.957031 1.84375 -7.75 C 2.59375 -8.539062 3.644531 -8.9375 5 -8.9375 C 5.84375 -8.9375 6.585938 -8.753906 7.234375 -8.390625 C 7.878906 -8.023438 8.375 -7.5 8.71875 -6.8125 C 9.0625 -6.125 9.234375 -5.320312 9.234375 -4.40625 Z M 9.234375 -4.40625 "/></g></g></g><g fill="#000000" fill-opacity="1"><g transform="translate(457.693743, 227.190422)"><g><path d="M 3.65625 0 L 1.25 0 L 1.25 -12.21875 L 3.65625 -12.21875 Z M 3.65625 0 "/></g></g></g><g fill="#000000" fill-opacity="1"><g transform="translate(462.600397, 227.190422)"><g><path d="M 3.15625 -4.40625 C 3.15625 -3.53125 3.296875 -2.867188 3.578125 -2.421875 C 3.867188 -1.984375 4.335938 -1.765625 4.984375 -1.765625 C 5.617188 -1.765625 6.078125 -1.984375 6.359375 -2.421875 C 6.640625 -2.867188 6.78125 -3.53125 6.78125 -4.40625 C 6.78125 -5.269531 6.640625 -5.921875 6.359375 -6.359375 C 6.078125 -6.796875 5.613281 -7.015625 4.96875 -7.015625 C 4.332031 -7.015625 3.867188 -6.796875 3.578125 -6.359375 C 3.296875 -5.929688 3.15625 -5.28125 3.15625 -4.40625 Z M 9.234375 -4.40625 C 9.234375 -2.976562 8.851562 -1.859375 8.09375 -1.046875 C 7.34375 -0.242188 6.296875 0.15625 4.953125 0.15625 C 4.109375 0.15625 3.363281 -0.0234375 2.71875 -0.390625 C 2.082031 -0.765625 1.585938 -1.296875 1.234375 -1.984375 C 0.890625 -2.671875 0.71875 -3.476562 0.71875 -4.40625 C 0.71875 -5.84375 1.09375 -6.957031 1.84375 -7.75 C 2.59375 -8.539062 3.644531 -8.9375 5 -8.9375 C 5.84375 -8.9375 6.585938 -8.753906 7.234375 -8.390625 C 7.878906 -8.023438 8.375 -7.5 8.71875 -6.8125 C 9.0625 -6.125 9.234375 -5.320312 9.234375 -4.40625 Z M 9.234375 -4.40625 "/></g></g></g><g fill="#000000" fill-opacity="1"><g transform="translate(472.555016, 227.190422)"><g><path d="M 8.890625 -8.78125 L 8.890625 -7.5625 L 7.515625 -7.203125 C 7.765625 -6.816406 7.890625 -6.378906 7.890625 -5.890625 C 7.890625 -4.941406 7.5625 -4.203125 6.90625 -3.671875 C 6.25 -3.148438 5.335938 -2.890625 4.171875 -2.890625 L 3.75 -2.921875 L 3.390625 -2.953125 C 3.140625 -2.765625 3.015625 -2.554688 3.015625 -2.328125 C 3.015625 -1.984375 3.457031 -1.8125 4.34375 -1.8125 L 5.828125 -1.8125 C 6.796875 -1.8125 7.53125 -1.601562 8.03125 -1.1875 C 8.539062 -0.78125 8.796875 -0.175781 8.796875 0.625 C 8.796875 1.65625 8.363281 2.453125 7.5 3.015625 C 6.644531 3.578125 5.421875 3.859375 3.828125 3.859375 C 2.597656 3.859375 1.660156 3.644531 1.015625 3.21875 C 0.367188 2.789062 0.046875 2.191406 0.046875 1.421875 C 0.046875 0.898438 0.207031 0.457031 0.53125 0.09375 C 0.863281 -0.257812 1.351562 -0.507812 2 -0.65625 C 1.75 -0.757812 1.53125 -0.929688 1.34375 -1.171875 C 1.164062 -1.410156 1.078125 -1.664062 1.078125 -1.9375 C 1.078125 -2.269531 1.171875 -2.546875 1.359375 -2.765625 C 1.554688 -2.984375 1.835938 -3.203125 2.203125 -3.421875 C 1.742188 -3.617188 1.378906 -3.9375 1.109375 -4.375 C 0.835938 -4.820312 0.703125 -5.34375 0.703125 -5.9375 C 0.703125 -6.894531 1.015625 -7.632812 1.640625 -8.15625 C 2.265625 -8.675781 3.15625 -8.9375 4.3125 -8.9375 C 4.550781 -8.9375 4.835938 -8.914062 5.171875 -8.875 C 5.515625 -8.832031 5.734375 -8.800781 5.828125 -8.78125 Z M 2.125 1.234375 C 2.125 1.566406 2.28125 1.828125 2.59375 2.015625 C 2.90625 2.203125 3.347656 2.296875 3.921875 2.296875 C 4.785156 2.296875 5.457031 2.175781 5.9375 1.9375 C 6.425781 1.707031 6.671875 1.390625 6.671875 0.984375 C 6.671875 0.648438 6.523438 0.421875 6.234375 0.296875 C 5.953125 0.171875 5.507812 0.109375 4.90625 0.109375 L 3.671875 0.109375 C 3.222656 0.109375 2.851562 0.210938 2.5625 0.421875 C 2.269531 0.628906 2.125 0.898438 2.125 1.234375 Z M 2.984375 -5.90625 C 2.984375 -5.425781 3.09375 -5.046875 3.3125 -4.765625 C 3.53125 -4.492188 3.863281 -4.359375 4.3125 -4.359375 C 4.757812 -4.359375 5.085938 -4.492188 5.296875 -4.765625 C 5.503906 -5.046875 5.609375 -5.425781 5.609375 -5.90625 C 5.609375 -6.957031 5.175781 -7.484375 4.3125 -7.484375 C 3.425781 -7.484375 2.984375 -6.957031 2.984375 -5.90625 Z M 2.984375 -5.90625 "/></g></g></g><g fill="#000000" fill-opacity="1"><g transform="translate(481.638214, 227.190422)"><g><path d="M 1.15625 -11.046875 C 1.15625 -11.828125 1.585938 -12.21875 2.453125 -12.21875 C 3.328125 -12.21875 3.765625 -11.828125 3.765625 -11.046875 C 3.765625 -10.671875 3.65625 -10.378906 3.4375 -10.171875 C 3.21875 -9.972656 2.890625 -9.875 2.453125 -9.875 C 1.585938 -9.875 1.15625 -10.265625 1.15625 -11.046875 Z M 3.65625 0 L 1.25 0 L 1.25 -8.78125 L 3.65625 -8.78125 Z M 3.65625 0 "/></g></g></g><g fill="#000000" fill-opacity="1"><g transform="translate(486.544868, 227.190422)"><g><path d="M 4.890625 -1.71875 C 5.492188 -1.71875 5.9375 -1.890625 6.21875 -2.234375 C 6.507812 -2.585938 6.664062 -3.195312 6.6875 -4.0625 L 6.6875 -4.359375 C 6.6875 -5.296875 6.539062 -5.96875 6.25 -6.375 C 5.957031 -6.789062 5.492188 -7 4.859375 -7 C 3.722656 -7 3.15625 -6.113281 3.15625 -4.34375 C 3.15625 -3.457031 3.296875 -2.796875 3.578125 -2.359375 C 3.859375 -1.929688 4.296875 -1.71875 4.890625 -1.71875 Z M 4.03125 0.15625 C 3 0.15625 2.1875 -0.238281 1.59375 -1.03125 C 1.007812 -1.832031 0.71875 -2.945312 0.71875 -4.375 C 0.71875 -5.8125 1.015625 -6.929688 1.609375 -7.734375 C 2.210938 -8.535156 3.035156 -8.9375 4.078125 -8.9375 C 4.640625 -8.9375 5.125 -8.832031 5.53125 -8.625 C 5.945312 -8.414062 6.3125 -8.09375 6.625 -7.65625 L 6.6875 -7.65625 L 6.90625 -8.78125 L 8.921875 -8.78125 L 8.921875 3.859375 L 6.53125 3.859375 L 6.53125 0.1875 C 6.53125 -0.132812 6.5625 -0.578125 6.625 -1.140625 L 6.53125 -1.140625 C 6.269531 -0.710938 5.925781 -0.390625 5.5 -0.171875 C 5.082031 0.046875 4.59375 0.15625 4.03125 0.15625 Z M 4.03125 0.15625 "/></g></g></g><g fill="#000000" fill-opacity="1"><g transform="translate(496.719306, 227.190422)"><g><path d="M 7.46875 0 L 7.15625 -1.125 L 7.03125 -1.125 C 6.769531 -0.71875 6.40625 -0.398438 5.9375 -0.171875 C 5.46875 0.046875 4.929688 0.15625 4.328125 0.15625 C 3.296875 0.15625 2.515625 -0.117188 1.984375 -0.671875 C 1.460938 -1.222656 1.203125 -2.015625 1.203125 -3.046875 L 1.203125 -8.78125 L 3.609375 -8.78125 L 3.609375 -3.65625 C 3.609375 -3.019531 3.71875 -2.539062 3.9375 -2.21875 C 4.164062 -1.90625 4.523438 -1.75 5.015625 -1.75 C 5.679688 -1.75 6.164062 -1.972656 6.46875 -2.421875 C 6.769531 -2.867188 6.921875 -3.609375 6.921875 -4.640625 L 6.921875 -8.78125 L 9.3125 -8.78125 L 9.3125 0 Z M 7.46875 0 "/></g></g></g><g fill="#000000" fill-opacity="1"><g transform="translate(507.286276, 227.190422)"><g><path d="M 4.890625 -7.234375 C 4.378906 -7.234375 3.976562 -7.070312 3.6875 -6.75 C 3.40625 -6.425781 3.242188 -5.972656 3.203125 -5.390625 L 6.5625 -5.390625 C 6.550781 -5.972656 6.394531 -6.425781 6.09375 -6.75 C 5.800781 -7.070312 5.398438 -7.234375 4.890625 -7.234375 Z M 5.234375 0.15625 C 3.816406 0.15625 2.707031 -0.234375 1.90625 -1.015625 C 1.113281 -1.796875 0.71875 -2.898438 0.71875 -4.328125 C 0.71875 -5.796875 1.082031 -6.929688 1.8125 -7.734375 C 2.550781 -8.535156 3.570312 -8.9375 4.875 -8.9375 C 6.113281 -8.9375 7.078125 -8.582031 7.765625 -7.875 C 8.460938 -7.175781 8.8125 -6.203125 8.8125 -4.953125 L 8.8125 -3.796875 L 3.140625 -3.796875 C 3.171875 -3.109375 3.375 -2.570312 3.75 -2.1875 C 4.125 -1.8125 4.65625 -1.625 5.34375 -1.625 C 5.863281 -1.625 6.359375 -1.675781 6.828125 -1.78125 C 7.304688 -1.894531 7.800781 -2.070312 8.3125 -2.3125 L 8.3125 -0.46875 C 7.894531 -0.257812 7.445312 -0.101562 6.96875 0 C 6.488281 0.101562 5.910156 0.15625 5.234375 0.15625 Z M 5.234375 0.15625 "/></g></g></g><g fill="#000000" fill-opacity="1"><g transform="translate(251.308055, 383.680907)"><g><path d="M 11.953125 0 L 2.140625 0 L 2.140625 -17.046875 L 11.953125 -17.046875 L 11.953125 -14.078125 L 5.765625 -14.078125 L 5.765625 -10.34375 L 11.53125 -10.34375 L 11.53125 -7.375 L 5.765625 -7.375 L 5.765625 -2.984375 L 11.953125 -2.984375 Z M 4.953125 -18.40625 L 4.953125 -18.71875 C 6.285156 -20.269531 7.195312 -21.441406 7.6875 -22.234375 L 11.671875 -22.234375 L 11.671875 -21.984375 C 11.265625 -21.578125 10.570312 -20.972656 9.59375 -20.171875 C 8.625 -19.378906 7.863281 -18.789062 7.3125 -18.40625 Z M 4.953125 -18.40625 "/></g></g></g><g fill="#000000" fill-opacity="1"><g transform="translate(264.679595, 383.680907)"><g><path d="M 7.15625 0.234375 C 3.101562 0.234375 1.078125 -1.992188 1.078125 -6.453125 C 1.078125 -8.660156 1.628906 -10.347656 2.734375 -11.515625 C 3.835938 -12.691406 5.414062 -13.28125 7.46875 -13.28125 C 8.976562 -13.28125 10.332031 -12.984375 11.53125 -12.390625 L 10.484375 -9.640625 C 9.921875 -9.867188 9.398438 -10.050781 8.921875 -10.1875 C 8.441406 -10.332031 7.957031 -10.40625 7.46875 -10.40625 C 5.625 -10.40625 4.703125 -9.09375 4.703125 -6.46875 C 4.703125 -3.914062 5.625 -2.640625 7.46875 -2.640625 C 8.15625 -2.640625 8.789062 -2.726562 9.375 -2.90625 C 9.957031 -3.09375 10.539062 -3.382812 11.125 -3.78125 L 11.125 -0.734375 C 10.550781 -0.367188 9.96875 -0.117188 9.375 0.015625 C 8.789062 0.160156 8.050781 0.234375 7.15625 0.234375 Z M 7.15625 0.234375 "/></g></g></g><g fill="#000000" fill-opacity="1"><g transform="translate(276.955298, 383.680907)"><g><path d="M 4.703125 -6.546875 C 4.703125 -5.253906 4.910156 -4.273438 5.328125 -3.609375 C 5.753906 -2.953125 6.445312 -2.625 7.40625 -2.625 C 8.351562 -2.625 9.035156 -2.953125 9.453125 -3.609375 C 9.867188 -4.265625 10.078125 -5.242188 10.078125 -6.546875 C 10.078125 -7.828125 9.863281 -8.789062 9.4375 -9.4375 C 9.019531 -10.082031 8.332031 -10.40625 7.375 -10.40625 C 6.425781 -10.40625 5.742188 -10.082031 5.328125 -9.4375 C 4.910156 -8.800781 4.703125 -7.835938 4.703125 -6.546875 Z M 13.703125 -6.546875 C 13.703125 -4.421875 13.144531 -2.757812 12.03125 -1.5625 C 10.914062 -0.363281 9.359375 0.234375 7.359375 0.234375 C 6.109375 0.234375 5.003906 -0.0351562 4.046875 -0.578125 C 3.085938 -1.128906 2.351562 -1.914062 1.84375 -2.9375 C 1.332031 -3.96875 1.078125 -5.171875 1.078125 -6.546875 C 1.078125 -8.671875 1.628906 -10.320312 2.734375 -11.5 C 3.847656 -12.6875 5.410156 -13.28125 7.421875 -13.28125 C 8.671875 -13.28125 9.773438 -13.003906 10.734375 -12.453125 C 11.691406 -11.910156 12.425781 -11.128906 12.9375 -10.109375 C 13.445312 -9.097656 13.703125 -7.910156 13.703125 -6.546875 Z M 13.703125 -6.546875 "/></g></g></g><g fill="#000000" fill-opacity="1"><g transform="translate(291.737437, 383.680907)"><g><path d="M 5.421875 0 L 1.859375 0 L 1.859375 -18.140625 L 5.421875 -18.140625 Z M 5.421875 0 "/></g></g></g><g fill="#000000" fill-opacity="1"><g transform="translate(299.023586, 383.680907)"><g><path d="M 4.703125 -6.546875 C 4.703125 -5.253906 4.910156 -4.273438 5.328125 -3.609375 C 5.753906 -2.953125 6.445312 -2.625 7.40625 -2.625 C 8.351562 -2.625 9.035156 -2.953125 9.453125 -3.609375 C 9.867188 -4.265625 10.078125 -5.242188 10.078125 -6.546875 C 10.078125 -7.828125 9.863281 -8.789062 9.4375 -9.4375 C 9.019531 -10.082031 8.332031 -10.40625 7.375 -10.40625 C 6.425781 -10.40625 5.742188 -10.082031 5.328125 -9.4375 C 4.910156 -8.800781 4.703125 -7.835938 4.703125 -6.546875 Z M 13.703125 -6.546875 C 13.703125 -4.421875 13.144531 -2.757812 12.03125 -1.5625 C 10.914062 -0.363281 9.359375 0.234375 7.359375 0.234375 C 6.109375 0.234375 5.003906 -0.0351562 4.046875 -0.578125 C 3.085938 -1.128906 2.351562 -1.914062 1.84375 -2.9375 C 1.332031 -3.96875 1.078125 -5.171875 1.078125 -6.546875 C 1.078125 -8.671875 1.628906 -10.320312 2.734375 -11.5 C 3.847656 -12.6875 5.410156 -13.28125 7.421875 -13.28125 C 8.671875 -13.28125 9.773438 -13.003906 10.734375 -12.453125 C 11.691406 -11.910156 12.425781 -11.128906 12.9375 -10.109375 C 13.445312 -9.097656 13.703125 -7.910156 13.703125 -6.546875 Z M 13.703125 -6.546875 "/></g></g></g><g fill="#000000" fill-opacity="1"><g transform="translate(313.805724, 383.680907)"><g><path d="M 13.203125 -13.03125 L 13.203125 -11.21875 L 11.171875 -10.703125 C 11.546875 -10.117188 11.734375 -9.46875 11.734375 -8.75 C 11.734375 -7.34375 11.242188 -6.25 10.265625 -5.46875 C 9.285156 -4.6875 7.929688 -4.296875 6.203125 -4.296875 L 5.5625 -4.34375 L 5.03125 -4.390625 C 4.664062 -4.109375 4.484375 -3.800781 4.484375 -3.46875 C 4.484375 -2.945312 5.140625 -2.6875 6.453125 -2.6875 L 8.65625 -2.6875 C 10.09375 -2.6875 11.1875 -2.378906 11.9375 -1.765625 C 12.6875 -1.148438 13.0625 -0.25 13.0625 0.9375 C 13.0625 2.457031 12.425781 3.632812 11.15625 4.46875 C 9.882812 5.3125 8.054688 5.734375 5.671875 5.734375 C 3.859375 5.734375 2.46875 5.414062 1.5 4.78125 C 0.539062 4.144531 0.0625 3.257812 0.0625 2.125 C 0.0625 1.332031 0.304688 0.671875 0.796875 0.140625 C 1.285156 -0.378906 2.007812 -0.753906 2.96875 -0.984375 C 2.59375 -1.140625 2.269531 -1.390625 2 -1.734375 C 1.726562 -2.085938 1.59375 -2.46875 1.59375 -2.875 C 1.59375 -3.363281 1.734375 -3.773438 2.015625 -4.109375 C 2.304688 -4.441406 2.726562 -4.765625 3.28125 -5.078125 C 2.59375 -5.378906 2.046875 -5.851562 1.640625 -6.5 C 1.242188 -7.15625 1.046875 -7.925781 1.046875 -8.8125 C 1.046875 -10.238281 1.507812 -11.335938 2.4375 -12.109375 C 3.363281 -12.890625 4.6875 -13.28125 6.40625 -13.28125 C 6.769531 -13.28125 7.203125 -13.242188 7.703125 -13.171875 C 8.203125 -13.109375 8.519531 -13.0625 8.65625 -13.03125 Z M 3.140625 1.84375 C 3.140625 2.332031 3.375 2.71875 3.84375 3 C 4.320312 3.28125 4.984375 3.421875 5.828125 3.421875 C 7.097656 3.421875 8.09375 3.242188 8.8125 2.890625 C 9.539062 2.535156 9.90625 2.054688 9.90625 1.453125 C 9.90625 0.960938 9.691406 0.625 9.265625 0.4375 C 8.835938 0.25 8.175781 0.15625 7.28125 0.15625 L 5.4375 0.15625 C 4.789062 0.15625 4.242188 0.304688 3.796875 0.609375 C 3.359375 0.921875 3.140625 1.332031 3.140625 1.84375 Z M 4.4375 -8.765625 C 4.4375 -8.054688 4.597656 -7.492188 4.921875 -7.078125 C 5.242188 -6.671875 5.738281 -6.46875 6.40625 -6.46875 C 7.070312 -6.46875 7.554688 -6.671875 7.859375 -7.078125 C 8.171875 -7.492188 8.328125 -8.054688 8.328125 -8.765625 C 8.328125 -10.335938 7.6875 -11.125 6.40625 -11.125 C 5.09375 -11.125 4.4375 -10.335938 4.4375 -8.765625 Z M 4.4375 -8.765625 "/></g></g></g><g fill="#000000" fill-opacity="1"><g transform="translate(327.293843, 383.680907)"><g><path d="M 1.71875 -16.40625 C 1.71875 -17.5625 2.363281 -18.140625 3.65625 -18.140625 C 4.9375 -18.140625 5.578125 -17.5625 5.578125 -16.40625 C 5.578125 -15.851562 5.414062 -15.421875 5.09375 -15.109375 C 4.769531 -14.804688 4.289062 -14.65625 3.65625 -14.65625 C 2.363281 -14.65625 1.71875 -15.238281 1.71875 -16.40625 Z M 5.421875 0 L 1.859375 0 L 1.859375 -13.03125 L 5.421875 -13.03125 Z M 5.421875 0 "/></g></g></g><g fill="#000000" fill-opacity="1"><g transform="translate(334.579991, 383.680907)"><g><path d="M 7.265625 -10.75 C 6.503906 -10.75 5.910156 -10.507812 5.484375 -10.03125 C 5.054688 -9.550781 4.8125 -8.875 4.75 -8 L 9.75 -8 C 9.726562 -8.875 9.492188 -9.550781 9.046875 -10.03125 C 8.609375 -10.507812 8.015625 -10.75 7.265625 -10.75 Z M 7.765625 0.234375 C 5.660156 0.234375 4.019531 -0.34375 2.84375 -1.5 C 1.664062 -2.65625 1.078125 -4.296875 1.078125 -6.421875 C 1.078125 -8.609375 1.617188 -10.296875 2.703125 -11.484375 C 3.796875 -12.679688 5.304688 -13.28125 7.234375 -13.28125 C 9.078125 -13.28125 10.507812 -12.753906 11.53125 -11.703125 C 12.5625 -10.648438 13.078125 -9.203125 13.078125 -7.359375 L 13.078125 -5.625 L 4.671875 -5.625 C 4.710938 -4.613281 5.007812 -3.820312 5.5625 -3.25 C 6.125 -2.6875 6.910156 -2.40625 7.921875 -2.40625 C 8.710938 -2.40625 9.457031 -2.488281 10.15625 -2.65625 C 10.851562 -2.820312 11.582031 -3.082031 12.34375 -3.4375 L 12.34375 -0.6875 C 11.71875 -0.375 11.050781 -0.144531 10.34375 0 C 9.644531 0.15625 8.785156 0.234375 7.765625 0.234375 Z M 7.765625 0.234375 "/></g></g></g><g fill="#000000" fill-opacity="1"><g transform="translate(116.801303, 217.166989)"><g><path d="M 9.46875 0 L 1.703125 0 L 1.703125 -13.484375 L 9.46875 -13.484375 L 9.46875 -11.140625 L 4.5625 -11.140625 L 4.5625 -8.1875 L 9.125 -8.1875 L 9.125 -5.84375 L 4.5625 -5.84375 L 4.5625 -2.359375 L 9.46875 -2.359375 Z M 9.46875 0 "/></g></g></g><g fill="#000000" fill-opacity="1"><g transform="translate(127.377045, 217.166989)"><g><path d="M 10.703125 0 L 7.890625 0 L 7.890625 -6.015625 C 7.890625 -6.765625 7.765625 -7.320312 7.515625 -7.6875 C 7.273438 -8.0625 6.882812 -8.25 6.34375 -8.25 C 5.625 -8.25 5.101562 -7.984375 4.78125 -7.453125 C 4.457031 -6.929688 4.296875 -6.066406 4.296875 -4.859375 L 4.296875 0 L 1.46875 0 L 1.46875 -10.3125 L 3.625 -10.3125 L 4 -9 L 4.15625 -9 C 4.4375 -9.46875 4.835938 -9.832031 5.359375 -10.09375 C 5.878906 -10.363281 6.476562 -10.5 7.15625 -10.5 C 8.695312 -10.5 9.742188 -10 10.296875 -9 L 10.546875 -9 C 10.816406 -9.476562 11.222656 -9.847656 11.765625 -10.109375 C 12.304688 -10.367188 12.914062 -10.5 13.59375 -10.5 C 14.757812 -10.5 15.640625 -10.195312 16.234375 -9.59375 C 16.835938 -9 17.140625 -8.039062 17.140625 -6.71875 L 17.140625 0 L 14.3125 0 L 14.3125 -6.015625 C 14.3125 -6.765625 14.1875 -7.320312 13.9375 -7.6875 C 13.6875 -8.0625 13.296875 -8.25 12.765625 -8.25 C 12.078125 -8.25 11.5625 -8.003906 11.21875 -7.515625 C 10.875 -7.023438 10.703125 -6.242188 10.703125 -5.171875 Z M 10.703125 0 "/></g></g></g><g fill="#000000" fill-opacity="1"><g transform="translate(145.91917, 217.166989)"><g><path d="M 7.140625 0.1875 C 5.929688 0.1875 4.984375 -0.253906 4.296875 -1.140625 L 4.140625 -1.140625 C 4.242188 -0.273438 4.296875 0.222656 4.296875 0.359375 L 4.296875 4.53125 L 1.46875 4.53125 L 1.46875 -10.3125 L 3.765625 -10.3125 L 4.15625 -8.96875 L 4.296875 -8.96875 C 4.953125 -9.988281 5.925781 -10.5 7.21875 -10.5 C 8.4375 -10.5 9.390625 -10.03125 10.078125 -9.09375 C 10.765625 -8.15625 11.109375 -6.847656 11.109375 -5.171875 C 11.109375 -4.078125 10.945312 -3.125 10.625 -2.3125 C 10.300781 -1.5 9.835938 -0.878906 9.234375 -0.453125 C 8.640625 -0.0234375 7.941406 0.1875 7.140625 0.1875 Z M 6.3125 -8.25 C 5.613281 -8.25 5.101562 -8.035156 4.78125 -7.609375 C 4.46875 -7.179688 4.304688 -6.476562 4.296875 -5.5 L 4.296875 -5.1875 C 4.296875 -4.082031 4.457031 -3.289062 4.78125 -2.8125 C 5.113281 -2.332031 5.632812 -2.09375 6.34375 -2.09375 C 7.601562 -2.09375 8.234375 -3.132812 8.234375 -5.21875 C 8.234375 -6.226562 8.078125 -6.984375 7.765625 -7.484375 C 7.460938 -7.992188 6.976562 -8.25 6.3125 -8.25 Z M 6.3125 -8.25 "/></g></g></g><g fill="#000000" fill-opacity="1"><g transform="translate(157.868744, 217.166989)"><g><path d="M 7.234375 -10.5 C 7.609375 -10.5 7.925781 -10.472656 8.1875 -10.421875 L 7.96875 -7.78125 C 7.738281 -7.84375 7.460938 -7.875 7.140625 -7.875 C 6.242188 -7.875 5.546875 -7.644531 5.046875 -7.1875 C 4.546875 -6.726562 4.296875 -6.082031 4.296875 -5.25 L 4.296875 0 L 1.46875 0 L 1.46875 -10.3125 L 3.609375 -10.3125 L 4.015625 -8.578125 L 4.15625 -8.578125 C 4.476562 -9.160156 4.910156 -9.625 5.453125 -9.96875 C 5.992188 -10.320312 6.585938 -10.5 7.234375 -10.5 Z M 7.234375 -10.5 "/></g></g></g><g fill="#000000" fill-opacity="1"><g transform="translate(166.44367, 217.166989)"><g><path d="M 5.75 -8.5 C 5.15625 -8.5 4.6875 -8.3125 4.34375 -7.9375 C 4.007812 -7.5625 3.816406 -7.023438 3.765625 -6.328125 L 7.71875 -6.328125 C 7.695312 -7.023438 7.507812 -7.5625 7.15625 -7.9375 C 6.8125 -8.3125 6.34375 -8.5 5.75 -8.5 Z M 6.140625 0.1875 C 4.484375 0.1875 3.1875 -0.269531 2.25 -1.1875 C 1.3125 -2.101562 0.84375 -3.398438 0.84375 -5.078125 C 0.84375 -6.804688 1.273438 -8.140625 2.140625 -9.078125 C 3.003906 -10.023438 4.203125 -10.5 5.734375 -10.5 C 7.191406 -10.5 8.320312 -10.082031 9.125 -9.25 C 9.9375 -8.425781 10.34375 -7.28125 10.34375 -5.8125 L 10.34375 -4.453125 L 3.703125 -4.453125 C 3.734375 -3.648438 3.96875 -3.023438 4.40625 -2.578125 C 4.851562 -2.128906 5.472656 -1.90625 6.265625 -1.90625 C 6.890625 -1.90625 7.476562 -1.96875 8.03125 -2.09375 C 8.582031 -2.226562 9.160156 -2.4375 9.765625 -2.71875 L 9.765625 -0.546875 C 9.273438 -0.296875 8.75 -0.113281 8.1875 0 C 7.625 0.125 6.941406 0.1875 6.140625 0.1875 Z M 6.140625 0.1875 "/></g></g></g><g fill="#000000" fill-opacity="1"><g transform="translate(177.600294, 217.166989)"><g><path d="M 1.359375 -12.984375 C 1.359375 -13.898438 1.867188 -14.359375 2.890625 -14.359375 C 3.910156 -14.359375 4.421875 -13.898438 4.421875 -12.984375 C 4.421875 -12.546875 4.289062 -12.203125 4.03125 -11.953125 C 3.78125 -11.710938 3.398438 -11.59375 2.890625 -11.59375 C 1.867188 -11.59375 1.359375 -12.054688 1.359375 -12.984375 Z M 4.296875 0 L 1.46875 0 L 1.46875 -10.3125 L 4.296875 -10.3125 Z M 4.296875 0 "/></g></g></g><g fill="#000000" fill-opacity="1"><g transform="translate(183.363013, 217.166989)"><g><path d="M 11 0 L 8.1875 0 L 8.1875 -6.015625 C 8.1875 -6.765625 8.050781 -7.320312 7.78125 -7.6875 C 7.519531 -8.0625 7.097656 -8.25 6.515625 -8.25 C 5.734375 -8.25 5.164062 -7.984375 4.8125 -7.453125 C 4.46875 -6.929688 4.296875 -6.066406 4.296875 -4.859375 L 4.296875 0 L 1.46875 0 L 1.46875 -10.3125 L 3.625 -10.3125 L 4 -9 L 4.15625 -9 C 4.46875 -9.488281 4.898438 -9.859375 5.453125 -10.109375 C 6.003906 -10.367188 6.628906 -10.5 7.328125 -10.5 C 8.523438 -10.5 9.4375 -10.175781 10.0625 -9.53125 C 10.6875 -8.882812 11 -7.945312 11 -6.71875 Z M 11 0 "/></g></g></g><g fill="#000000" fill-opacity="1"><g transform="translate(195.773605, 217.166989)"><g><path d="M 5.8125 -2.0625 C 6.3125 -2.0625 6.90625 -2.164062 7.59375 -2.375 L 7.59375 -0.28125 C 6.894531 0.03125 6.035156 0.1875 5.015625 0.1875 C 3.890625 0.1875 3.066406 -0.09375 2.546875 -0.65625 C 2.035156 -1.226562 1.78125 -2.085938 1.78125 -3.234375 L 1.78125 -8.203125 L 0.4375 -8.203125 L 0.4375 -9.390625 L 1.984375 -10.328125 L 2.796875 -12.5 L 4.59375 -12.5 L 4.59375 -10.3125 L 7.484375 -10.3125 L 7.484375 -8.203125 L 4.59375 -8.203125 L 4.59375 -3.234375 C 4.59375 -2.828125 4.703125 -2.53125 4.921875 -2.34375 C 5.148438 -2.15625 5.445312 -2.0625 5.8125 -2.0625 Z M 5.8125 -2.0625 "/></g></g></g><g fill="#000000" fill-opacity="1"><g transform="translate(203.970496, 217.166989)"><g><path d="M 5.75 -8.5 C 5.15625 -8.5 4.6875 -8.3125 4.34375 -7.9375 C 4.007812 -7.5625 3.816406 -7.023438 3.765625 -6.328125 L 7.71875 -6.328125 C 7.695312 -7.023438 7.507812 -7.5625 7.15625 -7.9375 C 6.8125 -8.3125 6.34375 -8.5 5.75 -8.5 Z M 6.140625 0.1875 C 4.484375 0.1875 3.1875 -0.269531 2.25 -1.1875 C 1.3125 -2.101562 0.84375 -3.398438 0.84375 -5.078125 C 0.84375 -6.804688 1.273438 -8.140625 2.140625 -9.078125 C 3.003906 -10.023438 4.203125 -10.5 5.734375 -10.5 C 7.191406 -10.5 8.320312 -10.082031 9.125 -9.25 C 9.9375 -8.425781 10.34375 -7.28125 10.34375 -5.8125 L 10.34375 -4.453125 L 3.703125 -4.453125 C 3.734375 -3.648438 3.96875 -3.023438 4.40625 -2.578125 C 4.851562 -2.128906 5.472656 -1.90625 6.265625 -1.90625 C 6.890625 -1.90625 7.476562 -1.96875 8.03125 -2.09375 C 8.582031 -2.226562 9.160156 -2.4375 9.765625 -2.71875 L 9.765625 -0.546875 C 9.273438 -0.296875 8.75 -0.113281 8.1875 0 C 7.625 0.125 6.941406 0.1875 6.140625 0.1875 Z M 6.140625 0.1875 "/></g></g></g><g fill="#000000" fill-opacity="1"><g transform="translate(114.987895, 243.320925)"><g><path d="M 5.75 -8.5 C 5.15625 -8.5 4.6875 -8.3125 4.34375 -7.9375 C 4.007812 -7.5625 3.816406 -7.023438 3.765625 -6.328125 L 7.71875 -6.328125 C 7.695312 -7.023438 7.507812 -7.5625 7.15625 -7.9375 C 6.8125 -8.3125 6.34375 -8.5 5.75 -8.5 Z M 6.140625 0.1875 C 4.484375 0.1875 3.1875 -0.269531 2.25 -1.1875 C 1.3125 -2.101562 0.84375 -3.398438 0.84375 -5.078125 C 0.84375 -6.804688 1.273438 -8.140625 2.140625 -9.078125 C 3.003906 -10.023438 4.203125 -10.5 5.734375 -10.5 C 7.191406 -10.5 8.320312 -10.082031 9.125 -9.25 C 9.9375 -8.425781 10.34375 -7.28125 10.34375 -5.8125 L 10.34375 -4.453125 L 3.703125 -4.453125 C 3.734375 -3.648438 3.96875 -3.023438 4.40625 -2.578125 C 4.851562 -2.128906 5.472656 -1.90625 6.265625 -1.90625 C 6.890625 -1.90625 7.476562 -1.96875 8.03125 -2.09375 C 8.582031 -2.226562 9.160156 -2.4375 9.765625 -2.71875 L 9.765625 -0.546875 C 9.273438 -0.296875 8.75 -0.113281 8.1875 0 C 7.625 0.125 6.941406 0.1875 6.140625 0.1875 Z M 4.125 -11.453125 L 4.125 -11.703125 C 5.1875 -12.929688 5.910156 -13.851562 6.296875 -14.46875 L 9.453125 -14.46875 L 9.453125 -14.28125 C 9.128906 -13.957031 8.582031 -13.476562 7.8125 -12.84375 C 7.039062 -12.21875 6.4375 -11.753906 6 -11.453125 Z M 4.125 -11.453125 "/></g></g></g><g fill="#000000" fill-opacity="1"><g transform="translate(126.144519, 243.320925)"><g><path d="M 5.65625 0.1875 C 2.445312 0.1875 0.84375 -1.570312 0.84375 -5.09375 C 0.84375 -6.851562 1.28125 -8.191406 2.15625 -9.109375 C 3.03125 -10.035156 4.28125 -10.5 5.90625 -10.5 C 7.101562 -10.5 8.175781 -10.269531 9.125 -9.8125 L 8.296875 -7.625 C 7.847656 -7.800781 7.429688 -7.945312 7.046875 -8.0625 C 6.671875 -8.175781 6.289062 -8.234375 5.90625 -8.234375 C 4.445312 -8.234375 3.71875 -7.195312 3.71875 -5.125 C 3.71875 -3.101562 4.445312 -2.09375 5.90625 -2.09375 C 6.445312 -2.09375 6.945312 -2.164062 7.40625 -2.3125 C 7.875 -2.457031 8.335938 -2.679688 8.796875 -2.984375 L 8.796875 -0.578125 C 8.335938 -0.285156 7.875 -0.0859375 7.40625 0.015625 C 6.945312 0.128906 6.363281 0.1875 5.65625 0.1875 Z M 5.65625 0.1875 "/></g></g></g><g fill="#000000" fill-opacity="1"><g transform="translate(135.853548, 243.320925)"><g><path d="M 3.71875 -5.171875 C 3.71875 -4.148438 3.882812 -3.378906 4.21875 -2.859375 C 4.550781 -2.335938 5.097656 -2.078125 5.859375 -2.078125 C 6.609375 -2.078125 7.144531 -2.335938 7.46875 -2.859375 C 7.800781 -3.378906 7.96875 -4.148438 7.96875 -5.171875 C 7.96875 -6.191406 7.800781 -6.957031 7.46875 -7.46875 C 7.132812 -7.976562 6.59375 -8.234375 5.84375 -8.234375 C 5.09375 -8.234375 4.550781 -7.976562 4.21875 -7.46875 C 3.882812 -6.96875 3.71875 -6.203125 3.71875 -5.171875 Z M 10.84375 -5.171875 C 10.84375 -3.492188 10.398438 -2.179688 9.515625 -1.234375 C 8.628906 -0.285156 7.394531 0.1875 5.8125 0.1875 C 4.820312 0.1875 3.945312 -0.0234375 3.1875 -0.453125 C 2.4375 -0.890625 1.859375 -1.515625 1.453125 -2.328125 C 1.046875 -3.140625 0.84375 -4.085938 0.84375 -5.171875 C 0.84375 -6.859375 1.28125 -8.164062 2.15625 -9.09375 C 3.039062 -10.03125 4.28125 -10.5 5.875 -10.5 C 6.863281 -10.5 7.734375 -10.285156 8.484375 -9.859375 C 9.242188 -9.429688 9.828125 -8.8125 10.234375 -8 C 10.640625 -7.195312 10.84375 -6.253906 10.84375 -5.171875 Z M 10.84375 -5.171875 "/></g></g></g><g fill="#000000" fill-opacity="1"><g transform="translate(147.544952, 243.320925)"><g><path d="M 4.296875 0 L 1.46875 0 L 1.46875 -14.359375 L 4.296875 -14.359375 Z M 4.296875 0 "/></g></g></g><g fill="#000000" fill-opacity="1"><g transform="translate(153.307672, 243.320925)"><g><path d="M 3.71875 -5.171875 C 3.71875 -4.148438 3.882812 -3.378906 4.21875 -2.859375 C 4.550781 -2.335938 5.097656 -2.078125 5.859375 -2.078125 C 6.609375 -2.078125 7.144531 -2.335938 7.46875 -2.859375 C 7.800781 -3.378906 7.96875 -4.148438 7.96875 -5.171875 C 7.96875 -6.191406 7.800781 -6.957031 7.46875 -7.46875 C 7.132812 -7.976562 6.59375 -8.234375 5.84375 -8.234375 C 5.09375 -8.234375 4.550781 -7.976562 4.21875 -7.46875 C 3.882812 -6.96875 3.71875 -6.203125 3.71875 -5.171875 Z M 10.84375 -5.171875 C 10.84375 -3.492188 10.398438 -2.179688 9.515625 -1.234375 C 8.628906 -0.285156 7.394531 0.1875 5.8125 0.1875 C 4.820312 0.1875 3.945312 -0.0234375 3.1875 -0.453125 C 2.4375 -0.890625 1.859375 -1.515625 1.453125 -2.328125 C 1.046875 -3.140625 0.84375 -4.085938 0.84375 -5.171875 C 0.84375 -6.859375 1.28125 -8.164062 2.15625 -9.09375 C 3.039062 -10.03125 4.28125 -10.5 5.875 -10.5 C 6.863281 -10.5 7.734375 -10.285156 8.484375 -9.859375 C 9.242188 -9.429688 9.828125 -8.8125 10.234375 -8 C 10.640625 -7.195312 10.84375 -6.253906 10.84375 -5.171875 Z M 10.84375 -5.171875 "/></g></g></g><g fill="#000000" fill-opacity="1"><g transform="translate(164.999076, 243.320925)"><g><path d="M 10.453125 -10.3125 L 10.453125 -8.875 L 8.84375 -8.46875 C 9.132812 -8.007812 9.28125 -7.492188 9.28125 -6.921875 C 9.28125 -5.804688 8.894531 -4.941406 8.125 -4.328125 C 7.351562 -3.710938 6.28125 -3.40625 4.90625 -3.40625 L 4.40625 -3.4375 L 3.984375 -3.484375 C 3.691406 -3.253906 3.546875 -3.003906 3.546875 -2.734375 C 3.546875 -2.328125 4.0625 -2.125 5.09375 -2.125 L 6.859375 -2.125 C 7.984375 -2.125 8.84375 -1.878906 9.4375 -1.390625 C 10.03125 -0.910156 10.328125 -0.203125 10.328125 0.734375 C 10.328125 1.941406 9.820312 2.875 8.8125 3.53125 C 7.8125 4.195312 6.367188 4.53125 4.484375 4.53125 C 3.046875 4.53125 1.945312 4.28125 1.1875 3.78125 C 0.4375 3.28125 0.0625 2.578125 0.0625 1.671875 C 0.0625 1.054688 0.253906 0.539062 0.640625 0.125 C 1.023438 -0.289062 1.59375 -0.59375 2.34375 -0.78125 C 2.050781 -0.894531 1.796875 -1.09375 1.578125 -1.375 C 1.367188 -1.65625 1.265625 -1.953125 1.265625 -2.265625 C 1.265625 -2.660156 1.378906 -2.988281 1.609375 -3.25 C 1.835938 -3.507812 2.164062 -3.765625 2.59375 -4.015625 C 2.050781 -4.253906 1.617188 -4.628906 1.296875 -5.140625 C 0.984375 -5.660156 0.828125 -6.269531 0.828125 -6.96875 C 0.828125 -8.09375 1.191406 -8.960938 1.921875 -9.578125 C 2.660156 -10.191406 3.707031 -10.5 5.0625 -10.5 C 5.351562 -10.5 5.695312 -10.472656 6.09375 -10.421875 C 6.488281 -10.367188 6.742188 -10.332031 6.859375 -10.3125 Z M 2.484375 1.453125 C 2.484375 1.835938 2.671875 2.140625 3.046875 2.359375 C 3.421875 2.585938 3.941406 2.703125 4.609375 2.703125 C 5.617188 2.703125 6.410156 2.5625 6.984375 2.28125 C 7.554688 2.007812 7.84375 1.632812 7.84375 1.15625 C 7.84375 0.769531 7.671875 0.5 7.328125 0.34375 C 6.992188 0.195312 6.472656 0.125 5.765625 0.125 L 4.3125 0.125 C 3.789062 0.125 3.351562 0.242188 3 0.484375 C 2.65625 0.734375 2.484375 1.054688 2.484375 1.453125 Z M 3.515625 -6.9375 C 3.515625 -6.375 3.640625 -5.929688 3.890625 -5.609375 C 4.148438 -5.285156 4.539062 -5.125 5.0625 -5.125 C 5.59375 -5.125 5.976562 -5.285156 6.21875 -5.609375 C 6.46875 -5.929688 6.59375 -6.375 6.59375 -6.9375 C 6.59375 -8.175781 6.082031 -8.796875 5.0625 -8.796875 C 4.03125 -8.796875 3.515625 -8.175781 3.515625 -6.9375 Z M 3.515625 -6.9375 "/></g></g></g><g fill="#000000" fill-opacity="1"><g transform="translate(175.667022, 243.320925)"><g><path d="M 1.359375 -12.984375 C 1.359375 -13.898438 1.867188 -14.359375 2.890625 -14.359375 C 3.910156 -14.359375 4.421875 -13.898438 4.421875 -12.984375 C 4.421875 -12.546875 4.289062 -12.203125 4.03125 -11.953125 C 3.78125 -11.710938 3.398438 -11.59375 2.890625 -11.59375 C 1.867188 -11.59375 1.359375 -12.054688 1.359375 -12.984375 Z M 4.296875 0 L 1.46875 0 L 1.46875 -10.3125 L 4.296875 -10.3125 Z M 4.296875 0 "/></g></g></g><g fill="#000000" fill-opacity="1"><g transform="translate(181.429741, 243.320925)"><g><path d="M 5.75 -2.015625 C 6.457031 -2.015625 6.976562 -2.21875 7.3125 -2.625 C 7.644531 -3.039062 7.828125 -3.757812 7.859375 -4.78125 L 7.859375 -5.125 C 7.859375 -6.226562 7.6875 -7.019531 7.34375 -7.5 C 7 -7.976562 6.453125 -8.21875 5.703125 -8.21875 C 4.378906 -8.21875 3.71875 -7.175781 3.71875 -5.09375 C 3.71875 -4.0625 3.878906 -3.289062 4.203125 -2.78125 C 4.535156 -2.269531 5.050781 -2.015625 5.75 -2.015625 Z M 4.734375 0.1875 C 3.523438 0.1875 2.570312 -0.28125 1.875 -1.21875 C 1.1875 -2.15625 0.84375 -3.460938 0.84375 -5.140625 C 0.84375 -6.828125 1.191406 -8.140625 1.890625 -9.078125 C 2.597656 -10.023438 3.566406 -10.5 4.796875 -10.5 C 5.453125 -10.5 6.019531 -10.375 6.5 -10.125 C 6.988281 -9.882812 7.414062 -9.507812 7.78125 -9 L 7.859375 -9 L 8.109375 -10.3125 L 10.484375 -10.3125 L 10.484375 4.53125 L 7.671875 4.53125 L 7.671875 0.21875 C 7.671875 -0.15625 7.707031 -0.675781 7.78125 -1.34375 L 7.671875 -1.34375 C 7.367188 -0.84375 6.96875 -0.460938 6.46875 -0.203125 C 5.96875 0.0546875 5.390625 0.1875 4.734375 0.1875 Z M 4.734375 0.1875 "/></g></g></g><g fill="#000000" fill-opacity="1"><g transform="translate(193.379315, 243.320925)"><g><path d="M 8.78125 0 L 8.40625 -1.3125 L 8.25 -1.3125 C 7.945312 -0.832031 7.519531 -0.460938 6.96875 -0.203125 C 6.414062 0.0546875 5.785156 0.1875 5.078125 0.1875 C 3.867188 0.1875 2.957031 -0.132812 2.34375 -0.78125 C 1.726562 -1.4375 1.421875 -2.375 1.421875 -3.59375 L 1.421875 -10.3125 L 4.234375 -10.3125 L 4.234375 -4.296875 C 4.234375 -3.546875 4.363281 -2.984375 4.625 -2.609375 C 4.894531 -2.242188 5.316406 -2.0625 5.890625 -2.0625 C 6.679688 -2.0625 7.25 -2.320312 7.59375 -2.84375 C 7.945312 -3.375 8.125 -4.242188 8.125 -5.453125 L 8.125 -10.3125 L 10.9375 -10.3125 L 10.9375 0 Z M 8.78125 0 "/></g></g></g><g fill="#000000" fill-opacity="1"><g transform="translate(205.789907, 243.320925)"><g><path d="M 5.75 -8.5 C 5.15625 -8.5 4.6875 -8.3125 4.34375 -7.9375 C 4.007812 -7.5625 3.816406 -7.023438 3.765625 -6.328125 L 7.71875 -6.328125 C 7.695312 -7.023438 7.507812 -7.5625 7.15625 -7.9375 C 6.8125 -8.3125 6.34375 -8.5 5.75 -8.5 Z M 6.140625 0.1875 C 4.484375 0.1875 3.1875 -0.269531 2.25 -1.1875 C 1.3125 -2.101562 0.84375 -3.398438 0.84375 -5.078125 C 0.84375 -6.804688 1.273438 -8.140625 2.140625 -9.078125 C 3.003906 -10.023438 4.203125 -10.5 5.734375 -10.5 C 7.191406 -10.5 8.320312 -10.082031 9.125 -9.25 C 9.9375 -8.425781 10.34375 -7.28125 10.34375 -5.8125 L 10.34375 -4.453125 L 3.703125 -4.453125 C 3.734375 -3.648438 3.96875 -3.023438 4.40625 -2.578125 C 4.851562 -2.128906 5.472656 -1.90625 6.265625 -1.90625 C 6.890625 -1.90625 7.476562 -1.96875 8.03125 -2.09375 C 8.582031 -2.226562 9.160156 -2.4375 9.765625 -2.71875 L 9.765625 -0.546875 C 9.273438 -0.296875 8.75 -0.113281 8.1875 0 C 7.625 0.125 6.941406 0.1875 6.140625 0.1875 Z M 6.140625 0.1875 "/></g></g></g><g fill="#000000" fill-opacity="1"><g transform="translate(113.778957, 269.474861)"><g><path d="M 11 0 L 8.1875 0 L 8.1875 -6.015625 C 8.1875 -6.765625 8.050781 -7.320312 7.78125 -7.6875 C 7.519531 -8.0625 7.097656 -8.25 6.515625 -8.25 C 5.734375 -8.25 5.164062 -7.984375 4.8125 -7.453125 C 4.46875 -6.929688 4.296875 -6.066406 4.296875 -4.859375 L 4.296875 0 L 1.46875 0 L 1.46875 -10.3125 L 3.625 -10.3125 L 4 -9 L 4.15625 -9 C 4.46875 -9.488281 4.898438 -9.859375 5.453125 -10.109375 C 6.003906 -10.367188 6.628906 -10.5 7.328125 -10.5 C 8.523438 -10.5 9.4375 -10.175781 10.0625 -9.53125 C 10.6875 -8.882812 11 -7.945312 11 -6.71875 Z M 11 0 "/></g></g></g><g fill="#000000" fill-opacity="1"><g transform="translate(126.189549, 269.474861)"><g><path d="M 8.78125 0 L 8.40625 -1.3125 L 8.25 -1.3125 C 7.945312 -0.832031 7.519531 -0.460938 6.96875 -0.203125 C 6.414062 0.0546875 5.785156 0.1875 5.078125 0.1875 C 3.867188 0.1875 2.957031 -0.132812 2.34375 -0.78125 C 1.726562 -1.4375 1.421875 -2.375 1.421875 -3.59375 L 1.421875 -10.3125 L 4.234375 -10.3125 L 4.234375 -4.296875 C 4.234375 -3.546875 4.363281 -2.984375 4.625 -2.609375 C 4.894531 -2.242188 5.316406 -2.0625 5.890625 -2.0625 C 6.679688 -2.0625 7.25 -2.320312 7.59375 -2.84375 C 7.945312 -3.375 8.125 -4.242188 8.125 -5.453125 L 8.125 -10.3125 L 10.9375 -10.3125 L 10.9375 0 Z M 8.78125 0 "/></g></g></g><g fill="#000000" fill-opacity="1"><g transform="translate(138.60014, 269.474861)"><g><path d="M 10.703125 0 L 7.890625 0 L 7.890625 -6.015625 C 7.890625 -6.765625 7.765625 -7.320312 7.515625 -7.6875 C 7.273438 -8.0625 6.882812 -8.25 6.34375 -8.25 C 5.625 -8.25 5.101562 -7.984375 4.78125 -7.453125 C 4.457031 -6.929688 4.296875 -6.066406 4.296875 -4.859375 L 4.296875 0 L 1.46875 0 L 1.46875 -10.3125 L 3.625 -10.3125 L 4 -9 L 4.15625 -9 C 4.4375 -9.46875 4.835938 -9.832031 5.359375 -10.09375 C 5.878906 -10.363281 6.476562 -10.5 7.15625 -10.5 C 8.695312 -10.5 9.742188 -10 10.296875 -9 L 10.546875 -9 C 10.816406 -9.476562 11.222656 -9.847656 11.765625 -10.109375 C 12.304688 -10.367188 12.914062 -10.5 13.59375 -10.5 C 14.757812 -10.5 15.640625 -10.195312 16.234375 -9.59375 C 16.835938 -9 17.140625 -8.039062 17.140625 -6.71875 L 17.140625 0 L 14.3125 0 L 14.3125 -6.015625 C 14.3125 -6.765625 14.1875 -7.320312 13.9375 -7.6875 C 13.6875 -8.0625 13.296875 -8.25 12.765625 -8.25 C 12.078125 -8.25 11.5625 -8.003906 11.21875 -7.515625 C 10.875 -7.023438 10.703125 -6.242188 10.703125 -5.171875 Z M 10.703125 0 "/></g></g></g><g fill="#000000" fill-opacity="1"><g transform="translate(157.142265, 269.474861)"><g><path d="M 5.75 -8.5 C 5.15625 -8.5 4.6875 -8.3125 4.34375 -7.9375 C 4.007812 -7.5625 3.816406 -7.023438 3.765625 -6.328125 L 7.71875 -6.328125 C 7.695312 -7.023438 7.507812 -7.5625 7.15625 -7.9375 C 6.8125 -8.3125 6.34375 -8.5 5.75 -8.5 Z M 6.140625 0.1875 C 4.484375 0.1875 3.1875 -0.269531 2.25 -1.1875 C 1.3125 -2.101562 0.84375 -3.398438 0.84375 -5.078125 C 0.84375 -6.804688 1.273438 -8.140625 2.140625 -9.078125 C 3.003906 -10.023438 4.203125 -10.5 5.734375 -10.5 C 7.191406 -10.5 8.320312 -10.082031 9.125 -9.25 C 9.9375 -8.425781 10.34375 -7.28125 10.34375 -5.8125 L 10.34375 -4.453125 L 3.703125 -4.453125 C 3.734375 -3.648438 3.96875 -3.023438 4.40625 -2.578125 C 4.851562 -2.128906 5.472656 -1.90625 6.265625 -1.90625 C 6.890625 -1.90625 7.476562 -1.96875 8.03125 -2.09375 C 8.582031 -2.226562 9.160156 -2.4375 9.765625 -2.71875 L 9.765625 -0.546875 C 9.273438 -0.296875 8.75 -0.113281 8.1875 0 C 7.625 0.125 6.941406 0.1875 6.140625 0.1875 Z M 4.125 -11.453125 L 4.125 -11.703125 C 5.1875 -12.929688 5.910156 -13.851562 6.296875 -14.46875 L 9.453125 -14.46875 L 9.453125 -14.28125 C 9.128906 -13.957031 8.582031 -13.476562 7.8125 -12.84375 C 7.039062 -12.21875 6.4375 -11.753906 6 -11.453125 Z M 4.125 -11.453125 "/></g></g></g><g fill="#000000" fill-opacity="1"><g transform="translate(168.298889, 269.474861)"><g><path d="M 7.234375 -10.5 C 7.609375 -10.5 7.925781 -10.472656 8.1875 -10.421875 L 7.96875 -7.78125 C 7.738281 -7.84375 7.460938 -7.875 7.140625 -7.875 C 6.242188 -7.875 5.546875 -7.644531 5.046875 -7.1875 C 4.546875 -6.726562 4.296875 -6.082031 4.296875 -5.25 L 4.296875 0 L 1.46875 0 L 1.46875 -10.3125 L 3.609375 -10.3125 L 4.015625 -8.578125 L 4.15625 -8.578125 C 4.476562 -9.160156 4.910156 -9.625 5.453125 -9.96875 C 5.992188 -10.320312 6.585938 -10.5 7.234375 -10.5 Z M 7.234375 -10.5 "/></g></g></g><g fill="#000000" fill-opacity="1"><g transform="translate(176.873815, 269.474861)"><g><path d="M 1.359375 -12.984375 C 1.359375 -13.898438 1.867188 -14.359375 2.890625 -14.359375 C 3.910156 -14.359375 4.421875 -13.898438 4.421875 -12.984375 C 4.421875 -12.546875 4.289062 -12.203125 4.03125 -11.953125 C 3.78125 -11.710938 3.398438 -11.59375 2.890625 -11.59375 C 1.867188 -11.59375 1.359375 -12.054688 1.359375 -12.984375 Z M 4.296875 0 L 1.46875 0 L 1.46875 -10.3125 L 4.296875 -10.3125 Z M 4.296875 0 "/></g></g></g><g fill="#000000" fill-opacity="1"><g transform="translate(182.636534, 269.474861)"><g><path d="M 5.75 -2.015625 C 6.457031 -2.015625 6.976562 -2.21875 7.3125 -2.625 C 7.644531 -3.039062 7.828125 -3.757812 7.859375 -4.78125 L 7.859375 -5.125 C 7.859375 -6.226562 7.6875 -7.019531 7.34375 -7.5 C 7 -7.976562 6.453125 -8.21875 5.703125 -8.21875 C 4.378906 -8.21875 3.71875 -7.175781 3.71875 -5.09375 C 3.71875 -4.0625 3.878906 -3.289062 4.203125 -2.78125 C 4.535156 -2.269531 5.050781 -2.015625 5.75 -2.015625 Z M 4.734375 0.1875 C 3.523438 0.1875 2.570312 -0.28125 1.875 -1.21875 C 1.1875 -2.15625 0.84375 -3.460938 0.84375 -5.140625 C 0.84375 -6.828125 1.191406 -8.140625 1.890625 -9.078125 C 2.597656 -10.023438 3.566406 -10.5 4.796875 -10.5 C 5.453125 -10.5 6.019531 -10.375 6.5 -10.125 C 6.988281 -9.882812 7.414062 -9.507812 7.78125 -9 L 7.859375 -9 L 8.109375 -10.3125 L 10.484375 -10.3125 L 10.484375 4.53125 L 7.671875 4.53125 L 7.671875 0.21875 C 7.671875 -0.15625 7.707031 -0.675781 7.78125 -1.34375 L 7.671875 -1.34375 C 7.367188 -0.84375 6.96875 -0.460938 6.46875 -0.203125 C 5.96875 0.0546875 5.390625 0.1875 4.734375 0.1875 Z M 4.734375 0.1875 "/></g></g></g><g fill="#000000" fill-opacity="1"><g transform="translate(194.586108, 269.474861)"><g><path d="M 8.78125 0 L 8.40625 -1.3125 L 8.25 -1.3125 C 7.945312 -0.832031 7.519531 -0.460938 6.96875 -0.203125 C 6.414062 0.0546875 5.785156 0.1875 5.078125 0.1875 C 3.867188 0.1875 2.957031 -0.132812 2.34375 -0.78125 C 1.726562 -1.4375 1.421875 -2.375 1.421875 -3.59375 L 1.421875 -10.3125 L 4.234375 -10.3125 L 4.234375 -4.296875 C 4.234375 -3.546875 4.363281 -2.984375 4.625 -2.609375 C 4.894531 -2.242188 5.316406 -2.0625 5.890625 -2.0625 C 6.679688 -2.0625 7.25 -2.320312 7.59375 -2.84375 C 7.945312 -3.375 8.125 -4.242188 8.125 -5.453125 L 8.125 -10.3125 L 10.9375 -10.3125 L 10.9375 0 Z M 8.78125 0 "/></g></g></g><g fill="#000000" fill-opacity="1"><g transform="translate(206.9967, 269.474861)"><g><path d="M 5.75 -8.5 C 5.15625 -8.5 4.6875 -8.3125 4.34375 -7.9375 C 4.007812 -7.5625 3.816406 -7.023438 3.765625 -6.328125 L 7.71875 -6.328125 C 7.695312 -7.023438 7.507812 -7.5625 7.15625 -7.9375 C 6.8125 -8.3125 6.34375 -8.5 5.75 -8.5 Z M 6.140625 0.1875 C 4.484375 0.1875 3.1875 -0.269531 2.25 -1.1875 C 1.3125 -2.101562 0.84375 -3.398438 0.84375 -5.078125 C 0.84375 -6.804688 1.273438 -8.140625 2.140625 -9.078125 C 3.003906 -10.023438 4.203125 -10.5 5.734375 -10.5 C 7.191406 -10.5 8.320312 -10.082031 9.125 -9.25 C 9.9375 -8.425781 10.34375 -7.28125 10.34375 -5.8125 L 10.34375 -4.453125 L 3.703125 -4.453125 C 3.734375 -3.648438 3.96875 -3.023438 4.40625 -2.578125 C 4.851562 -2.128906 5.472656 -1.90625 6.265625 -1.90625 C 6.890625 -1.90625 7.476562 -1.96875 8.03125 -2.09375 C 8.582031 -2.226562 9.160156 -2.4375 9.765625 -2.71875 L 9.765625 -0.546875 C 9.273438 -0.296875 8.75 -0.113281 8.1875 0 C 7.625 0.125 6.941406 0.1875 6.140625 0.1875 Z M 6.140625 0.1875 "/></g></g></g></svg>