<?xml version="1.0" encoding="UTF-8" standalone="no"?>
<svg
   xmlns:dc="http://purl.org/dc/elements/1.1/"
   xmlns:cc="http://creativecommons.org/ns#"
   xmlns:rdf="http://www.w3.org/1999/02/22-rdf-syntax-ns#"
   xmlns:svg="http://www.w3.org/2000/svg"
   xmlns="http://www.w3.org/2000/svg"
   xmlns:sodipodi="http://sodipodi.sourceforge.net/DTD/sodipodi-0.dtd"
   xmlns:inkscape="http://www.inkscape.org/namespaces/inkscape"
   inkscape:version="1.0 (4035a4f, 2020-05-01)"
   sodipodi:docname="kaypeebee-physiques.svg"
   id="svg1613"
   version="1.0"
   preserveAspectRatio="xMidYMid meet"
   height="600"
   viewBox="0 0 600.75662 450.40106"
   zoomAndPan="magnify"
   width="800">
  <metadata
     id="metadata1617">
    <rdf:RDF>
      <cc:Work
         rdf:about="">
        <dc:format>image/svg+xml</dc:format>
        <dc:type
           rdf:resource="http://purl.org/dc/dcmitype/StillImage" />
        <dc:title></dc:title>
      </cc:Work>
    </rdf:RDF>
  </metadata>
  <sodipodi:namedview
     inkscape:current-layer="svg1613"
     inkscape:window-maximized="1"
     inkscape:window-y="25"
     inkscape:window-x="0"
     inkscape:cy="418.90203"
     inkscape:cx="396.5"
     inkscape:zoom="0.65508021"
     showgrid="false"
     id="namedview1615"
     inkscape:window-height="942"
     inkscape:window-width="1920"
     inkscape:pageshadow="2"
     inkscape:pageopacity="0"
     guidetolerance="10"
     gridtolerance="10"
     objecttolerance="10"
     borderopacity="1"
     bordercolor="#666666"
     pagecolor="#ffffff" />
  <defs
     id="defs853">
    <g
       id="g833" />
    <clipPath
       id="5e112ad5bb">
      <path
         id="path835"
         clip-rule="nonzero"
         d="M 49.1875,203.98437 H 546.41406 V 565.46484 H 49.1875 Z m 0,0" />
    </clipPath>
    <clipPath
       id="c411adb1b7">
      <path
         id="path838"
         clip-rule="nonzero"
         d="M 92.242188,245.55859 H 503.22266 V 523.78516 H 92.242188 Z m 0,0" />
    </clipPath>
    <clipPath
       id="811e2d3b86">
      <path
         id="path841"
         clip-rule="nonzero"
         d="M 163.23437,282.87109 H 431.71875 V 486.10547 H 163.23437 Z m 0,0" />
    </clipPath>
    <clipPath
       id="22b68caf1c">
      <path
         id="path844"
         clip-rule="nonzero"
         d="m 184.33203,315.87109 h 100.49609 v 59.99219 H 184.33203 Z m 0,0" />
    </clipPath>
    <clipPath
       id="81361f6632">
      <path
         id="path847"
         clip-rule="nonzero"
         d="M 297.63672,315.875 H 403.38281 V 466.60547 H 297.63672 Z m 0,0" />
    </clipPath>
    <clipPath
       id="28e0fddb3f">
      <path
         id="path850"
         clip-rule="nonzero"
         d="m 310.38672,365.92578 h 80.23437 v 50.99609 h -80.23437 z m 0,0" />
    </clipPath>
  </defs>
  <g
     id="g1235"
     fill-opacity="1"
     fill="#000000">
    <g
       id="g1233"
       transform="translate(251.44105,342.06104)">
      <g
         id="g1231" />
    </g>
  </g>
  <g
     transform="matrix(1.0804546,0,0,1.0804546,-58.94694,-18.890157)"
     id="g1995">
    <g
       fill="#000000"
       fill-opacity="1"
       id="g861"
       transform="translate(5.3700356,-186.57785)">
      <g
         transform="translate(217.53377,612.26654)"
         id="g859">
        <g
           id="g857">
          <path
             d="m 17.859375,0 h -14.1875 v -25.9375 h 14.1875 v 1.65625 h -12.375 v 9.8125 H 17.15625 v 1.671875 H 5.484375 v 11.125 h 12.375 z M 8.21875,-28.3125 c 0.863281,-0.925781 1.71875,-1.9375 2.5625,-3.03125 0.851562,-1.09375 1.429688,-1.925781 1.734375,-2.5 h 2.5 v 0.296875 c -0.429687,0.617187 -1.152344,1.433594 -2.171875,2.453125 -1.023438,1.023438 -2.148438,2.046875 -3.375,3.078125 h -1.25 z m 0,0"
             id="path855" />
        </g>
      </g>
    </g>
    <g
       fill="#000000"
       fill-opacity="1"
       id="g869"
       transform="translate(5.3700356,-186.57785)">
      <g
         transform="translate(237.58642,612.26654)"
         id="g867">
        <g
           id="g865">
          <path
             d="m 10.9375,0.359375 c -2.761719,0 -4.921875,-0.867187 -6.484375,-2.609375 -1.5625,-1.738281 -2.34375,-4.164062 -2.34375,-7.28125 0,-3.195312 0.804687,-5.679688 2.421875,-7.453125 1.625,-1.78125 3.847656,-2.671875 6.671875,-2.671875 1.664063,0 3.257813,0.289062 4.78125,0.859375 l -0.46875,1.5625 c -1.679687,-0.550781 -3.132813,-0.828125 -4.359375,-0.828125 -2.367188,0 -4.15625,0.730469 -5.375,2.1875 -1.21875,1.460938 -1.828125,3.5625 -1.828125,6.3125 0,2.605469 0.609375,4.640625 1.828125,6.109375 C 7,-1.984375 8.703125,-1.25 10.890625,-1.25 c 1.75,0 3.378906,-0.3125 4.890625,-0.9375 v 1.640625 c -1.230469,0.6015625 -2.84375,0.90625 -4.84375,0.90625 z m 0,0"
             id="path863" />
        </g>
      </g>
    </g>
    <g
       fill="#000000"
       fill-opacity="1"
       id="g877"
       transform="translate(5.3700356,-186.57785)">
      <g
         transform="translate(254.853,612.26654)"
         id="g875">
        <g
           id="g873">
          <path
             d="m 19.1875,-9.671875 c 0,3.148437 -0.765625,5.605469 -2.296875,7.375 -1.523437,1.773437 -3.625,2.65625 -6.3125,2.65625 -1.699219,0 -3.195313,-0.40625 -4.484375,-1.21875 C 4.8125,-1.679688 3.828125,-2.851562 3.140625,-4.375 c -0.6875,-1.53125 -1.03125,-3.296875 -1.03125,-5.296875 0,-3.144531 0.757813,-5.59375 2.28125,-7.34375 1.53125,-1.757813 3.628906,-2.640625 6.296875,-2.640625 2.644531,0 4.722656,0.890625 6.234375,2.671875 1.507813,1.773437 2.265625,4.210937 2.265625,7.3125 z m -15.234375,0 c 0,2.648437 0.582031,4.714844 1.75,6.203125 1.164063,1.480469 2.8125,2.21875 4.9375,2.21875 2.132813,0 3.785156,-0.738281 4.953125,-2.21875 1.164062,-1.488281 1.75,-3.554688 1.75,-6.203125 0,-2.664063 -0.589844,-4.726563 -1.765625,-6.1875 -1.179687,-1.46875 -2.835937,-2.203125 -4.96875,-2.203125 -2.125,0 -3.765625,0.730469 -4.921875,2.1875 -1.15625,1.460938 -1.734375,3.527344 -1.734375,6.203125 z m 0,0"
             id="path871" />
        </g>
      </g>
    </g>
    <g
       fill="#000000"
       fill-opacity="1"
       id="g885"
       transform="translate(5.3700356,-186.57785)">
      <g
         transform="translate(276.14786,612.26654)"
         id="g883">
        <g
           id="g881">
          <path
             d="m 4.984375,0 h -1.75 v -27.609375 h 1.75 z m 0,0"
             id="path879" />
        </g>
      </g>
    </g>
    <g
       fill="#000000"
       fill-opacity="1"
       id="g893"
       transform="translate(5.3700356,-186.57785)">
      <g
         transform="translate(284.36412,612.26654)"
         id="g891">
        <g
           id="g889">
          <path
             d="m 19.1875,-9.671875 c 0,3.148437 -0.765625,5.605469 -2.296875,7.375 -1.523437,1.773437 -3.625,2.65625 -6.3125,2.65625 -1.699219,0 -3.195313,-0.40625 -4.484375,-1.21875 C 4.8125,-1.679688 3.828125,-2.851562 3.140625,-4.375 c -0.6875,-1.53125 -1.03125,-3.296875 -1.03125,-5.296875 0,-3.144531 0.757813,-5.59375 2.28125,-7.34375 1.53125,-1.757813 3.628906,-2.640625 6.296875,-2.640625 2.644531,0 4.722656,0.890625 6.234375,2.671875 1.507813,1.773437 2.265625,4.210937 2.265625,7.3125 z m -15.234375,0 c 0,2.648437 0.582031,4.714844 1.75,6.203125 1.164063,1.480469 2.8125,2.21875 4.9375,2.21875 2.132813,0 3.785156,-0.738281 4.953125,-2.21875 1.164062,-1.488281 1.75,-3.554688 1.75,-6.203125 0,-2.664063 -0.589844,-4.726563 -1.765625,-6.1875 -1.179687,-1.46875 -2.835937,-2.203125 -4.96875,-2.203125 -2.125,0 -3.765625,0.730469 -4.921875,2.1875 -1.15625,1.460938 -1.734375,3.527344 -1.734375,6.203125 z m 0,0"
             id="path887" />
        </g>
      </g>
    </g>
    <g
       fill="#000000"
       fill-opacity="1"
       id="g901"
       transform="translate(5.3700356,-186.57785)">
      <g
         transform="translate(305.65898,612.26654)"
         id="g899">
        <g
           id="g897">
          <path
             d="m 18.28125,-19.296875 v 1.234375 l -4,0.25 c 1.0625,1.324219 1.59375,2.777344 1.59375,4.359375 0,1.855469 -0.621094,3.359375 -1.859375,4.515625 -1.230469,1.15625 -2.886719,1.734375 -4.96875,1.734375 -0.875,0 -1.492187,-0.035156 -1.84375,-0.109375 -0.699219,0.367188 -1.230469,0.796875 -1.59375,1.296875 -0.367187,0.5 -0.546875,1.027344 -0.546875,1.578125 0,0.617188 0.226562,1.070312 0.6875,1.359375 0.46875,0.28125 1.253906,0.421875 2.359375,0.421875 h 3.375 c 2.09375,0 3.691406,0.421875 4.796875,1.265625 1.113281,0.84375 1.671875,2.09375 1.671875,3.75 0,2.03125 -0.828125,3.597656 -2.484375,4.703125 -1.648438,1.113281 -3.996094,1.671875 -7.046875,1.671875 -2.417969,0 -4.292969,-0.46875 -5.625,-1.40625 -1.335937,-0.9375 -2,-2.242187 -2,-3.90625 C 0.796875,2.097656 1.207031,1 2.03125,0.125 2.851562,-0.75 3.96875,-1.347656 5.375,-1.671875 4.789062,-1.921875 4.320312,-2.269531 3.96875,-2.71875 3.625,-3.175781 3.453125,-3.703125 3.453125,-4.296875 c 0,-1.289063 0.820313,-2.425781 2.46875,-3.40625 -1.125,-0.457031 -2,-1.179687 -2.625,-2.171875 -0.625,-0.988281 -0.9375,-2.125 -0.9375,-3.40625 0,-1.925781 0.609375,-3.46875 1.828125,-4.625 1.226562,-1.164062 2.882812,-1.75 4.96875,-1.75 1.269531,0 2.253906,0.121094 2.953125,0.359375 z m -15.625,22.5625 c 0,2.644531 1.972656,3.96875 5.921875,3.96875 5.0625,0 7.59375,-1.617187 7.59375,-4.84375 0,-1.15625 -0.402344,-1.996094 -1.203125,-2.515625 C 14.175781,-0.644531 12.894531,-0.90625 11.125,-0.90625 H 7.96875 c -3.542969,0 -5.3125,1.390625 -5.3125,4.171875 z M 4.140625,-13.28125 c 0,1.5 0.445313,2.664062 1.34375,3.484375 0.90625,0.8125 2.117187,1.21875 3.640625,1.21875 1.601562,0 2.832031,-0.40625 3.6875,-1.21875 0.863281,-0.8125 1.296875,-1.992187 1.296875,-3.546875 0,-1.644531 -0.445313,-2.878906 -1.328125,-3.703125 -0.875,-0.820313 -2.105469,-1.234375 -3.6875,-1.234375 -1.542969,0 -2.757812,0.445312 -3.640625,1.328125 -0.875,0.875 -1.3125,2.101563 -1.3125,3.671875 z m 0,0"
             id="path895" />
        </g>
      </g>
    </g>
    <g
       fill="#000000"
       fill-opacity="1"
       id="g909"
       transform="translate(5.3700356,-186.57785)">
      <g
         transform="translate(324.66464,612.26654)"
         id="g907">
        <g
           id="g905">
          <path
             d="m 4.984375,0 h -1.75 v -19.296875 h 1.75 z m -2,-24.65625 c 0,-1.132812 0.367187,-1.703125 1.109375,-1.703125 0.375,0 0.660156,0.152344 0.859375,0.453125 0.207031,0.292969 0.3125,0.710938 0.3125,1.25 0,0.542969 -0.105469,0.96875 -0.3125,1.28125 -0.199219,0.304688 -0.484375,0.453125 -0.859375,0.453125 -0.742188,0 -1.109375,-0.578125 -1.109375,-1.734375 z m 0,0"
             id="path903" />
        </g>
      </g>
    </g>
    <g
       fill="#000000"
       fill-opacity="1"
       id="g917"
       transform="translate(5.3700356,-186.57785)">
      <g
         transform="translate(332.88091,612.26654)"
         id="g915">
        <g
           id="g913">
          <path
             d="m 11.015625,0.359375 c -2.804687,0 -4.992187,-0.863281 -6.5625,-2.59375 -1.5625,-1.726563 -2.34375,-4.148437 -2.34375,-7.265625 0,-3.070312 0.753906,-5.53125 2.265625,-7.375 1.519531,-1.851562 3.5625,-2.78125 6.125,-2.78125 2.269531,0 4.0625,0.792969 5.375,2.375 1.320312,1.585938 1.984375,3.734375 1.984375,6.453125 V -9.40625 H 3.953125 c 0.03125,2.648438 0.648437,4.667969 1.859375,6.0625 1.207031,1.398438 2.941406,2.09375 5.203125,2.09375 1.101563,0 2.070313,-0.070312 2.90625,-0.21875 0.832031,-0.15625 1.890625,-0.488281 3.171875,-1 V -0.875 C 16,-0.394531 14.988281,-0.0703125 14.0625,0.09375 13.144531,0.269531 12.128906,0.359375 11.015625,0.359375 Z M 10.5,-18.09375 c -1.855469,0 -3.34375,0.617188 -4.46875,1.84375 -1.125,1.21875 -1.78125,2.980469 -1.96875,5.28125 h 11.921875 c 0,-2.238281 -0.484375,-3.984375 -1.453125,-5.234375 C 13.5625,-17.460938 12.21875,-18.09375 10.5,-18.09375 Z m 0,0"
             id="path911" />
        </g>
      </g>
    </g>
    <g
       clip-path="url(#5e112ad5bb)"
       id="g921"
       transform="translate(5.3700356,-186.57785)">
      <path
         stroke-linecap="butt"
         transform="matrix(0.750457,0,0,0.750619,49.188007,203.98348)"
         fill="none"
         stroke-linejoin="miter"
         d="M -6.76019e-4,0.00119666 H 662.56427 V 481.57777 H -6.76019e-4 V 0.00119666"
         stroke="#000000"
         stroke-width="4"
         stroke-opacity="1"
         stroke-miterlimit="4"
         id="path919" />
    </g>
    <g
       clip-path="url(#c411adb1b7)"
       id="g925"
       transform="translate(5.3700356,-186.57785)">
      <path
         stroke-linecap="butt"
         transform="matrix(0.750326,0,0,0.750531,92.243506,245.55682)"
         fill="none"
         stroke-linejoin="miter"
         d="M -0.0017566,0.00236162 H 547.73445 V 370.70872 H -0.0017566 V 0.00236162"
         stroke="#000000"
         stroke-width="4"
         stroke-opacity="1"
         stroke-miterlimit="4"
         id="path923" />
    </g>
    <g
       clip-path="url(#811e2d3b86)"
       id="g929"
       transform="translate(5.3700356,-186.57785)">
      <path
         stroke-linecap="butt"
         transform="matrix(0.749079,0,0,0.7494,163.23267,282.8699)"
         fill="none"
         stroke-linejoin="miter"
         d="M 0.00227492,0.00159436 H 358.42151 V 271.19767 H 0.00227492 V 0.00159436"
         stroke="#000000"
         stroke-width="4"
         stroke-opacity="1"
         stroke-miterlimit="4"
         id="path927" />
    </g>
    <g
       clip-path="url(#22b68caf1c)"
       id="g933"
       transform="translate(5.3700356,-186.57785)">
      <path
         stroke-linecap="butt"
         transform="matrix(0.749525,0,0,0.749523,184.33324,315.86919)"
         fill="none"
         stroke-linejoin="miter"
         d="M -0.00160846,0.00253438 H 134.07813 V 80.043058 H -0.00160846 V 0.00253438"
         stroke="#000000"
         stroke-width="4"
         stroke-opacity="1"
         stroke-miterlimit="4"
         id="path931" />
    </g>
    <g
       clip-path="url(#81361f6632)"
       id="g937"
       transform="translate(5.3700356,-186.57785)">
      <path
         stroke-linecap="butt"
         transform="matrix(0.748055,0,0,0.748449,297.63778,315.8747)"
         fill="none"
         stroke-linejoin="miter"
         d="M -0.00142231,4.04471e-4 H 141.35992 V 201.3908 H -0.00142231 V 4.04471e-4"
         stroke="#000000"
         stroke-width="4"
         stroke-opacity="1"
         stroke-miterlimit="4"
         id="path935" />
    </g>
    <g
       clip-path="url(#28e0fddb3f)"
       id="g941"
       transform="translate(5.3700356,-186.57785)">
      <path
         stroke-linecap="butt"
         transform="matrix(0.747234,0,0,0.750997,310.38499,365.92491)"
         fill="none"
         stroke-linejoin="miter"
         d="M 0.00231777,0.00115958 H 107.3775 V 67.905662 H 0.00231777 V 0.00115958"
         stroke="#000000"
         stroke-width="4"
         stroke-opacity="1"
         stroke-miterlimit="4"
         id="path939" />
    </g>
    <g
       fill="#000000"
       fill-opacity="1"
       id="g949"
       transform="translate(5.3700356,-186.57785)">
      <g
         transform="translate(225.41796,551.25659)"
         id="g947">
        <g
           id="g945">
          <path
             d="m 13.09375,0 h -1.0625 L 3.109375,-13.390625 h -0.09375 c 0.082031,1.59375 0.125,2.796875 0.125,3.609375 V 0 h -1 V -15.078125 H 3.1875 l 8.921875,13.359375 h 0.0625 c -0.0625,-1.226562 -0.09375,-2.398438 -0.09375,-3.515625 v -9.84375 h 1.015625 z m 0,0"
             id="path943" />
        </g>
      </g>
    </g>
    <g
       fill="#000000"
       fill-opacity="1"
       id="g957"
       transform="translate(5.3700356,-186.57785)">
      <g
         transform="translate(240.65584,551.25659)"
         id="g955">
        <g
           id="g953">
          <path
             d="m 2.765625,-11.21875 v 7.265625 c 0,1.125 0.234375,1.949219 0.703125,2.46875 0.476562,0.511719 1.21875,0.765625 2.21875,0.765625 1.332031,0 2.3125,-0.335938 2.9375,-1.015625 0.632812,-0.675781 0.953125,-1.769531 0.953125,-3.28125 v -6.203125 h 1 V 0 H 9.71875 l -0.1875,-1.546875 h -0.0625 c -0.730469,1.167969 -2.027344,1.75 -3.890625,1.75 C 3.023438,0.203125 1.75,-1.160156 1.75,-3.890625 v -7.328125 z m 0,0"
             id="path951" />
        </g>
      </g>
    </g>
    <g
       fill="#000000"
       fill-opacity="1"
       id="g965"
       transform="translate(5.3700356,-186.57785)">
      <g
         transform="translate(253.11851,551.25659)"
         id="g963">
        <g
           id="g961">
          <path
             d="M 15.890625,0 V -7.359375 C 15.890625,-8.453125 15.675781,-9.25 15.25,-9.75 c -0.429688,-0.5 -1.085938,-0.75 -1.96875,-0.75 -1.148438,0 -1.996094,0.320312 -2.546875,0.953125 -0.554687,0.625 -0.828125,1.617187 -0.828125,2.96875 V 0 H 8.875 V -7.65625 C 8.875,-9.550781 8.003906,-10.5 6.265625,-10.5 c -1.179687,0 -2.03125,0.34375 -2.5625,1.03125 C 3.171875,-8.789062 2.90625,-7.695312 2.90625,-6.1875 V 0 H 1.875 V -11.21875 H 2.71875 L 2.9375,-9.671875 H 3 c 0.3125,-0.5625 0.75,-0.992187 1.3125,-1.296875 0.570312,-0.300781 1.203125,-0.453125 1.890625,-0.453125 1.769531,0 2.90625,0.664063 3.40625,1.984375 H 9.65625 c 0.363281,-0.632812 0.851562,-1.125 1.46875,-1.46875 0.613281,-0.34375 1.3125,-0.515625 2.09375,-0.515625 1.226562,0 2.144531,0.328125 2.75,0.984375 0.613281,0.648438 0.921875,1.683594 0.921875,3.109375 V 0 Z m 0,0"
             id="path959" />
        </g>
      </g>
    </g>
    <g
       fill="#000000"
       fill-opacity="1"
       id="g973"
       transform="translate(5.3700356,-186.57785)">
      <g
         transform="translate(271.77124,551.25659)"
         id="g971">
        <g
           id="g969">
          <path
             d="m 6.40625,0.203125 c -1.625,0 -2.898438,-0.5 -3.8125,-1.5 -0.90625,-1.007813 -1.359375,-2.414063 -1.359375,-4.21875 0,-1.789063 0.4375,-3.222656 1.3125,-4.296875 0.882813,-1.070312 2.070313,-1.609375 3.5625,-1.609375 1.320313,0 2.363281,0.460937 3.125,1.375 0.757813,0.917969 1.140625,2.167969 1.140625,3.75 V -5.46875 H 2.296875 C 2.316406,-3.925781 2.675781,-2.75 3.375,-1.9375 c 0.707031,0.8125 1.71875,1.21875 3.03125,1.21875 0.632812,0 1.191406,-0.039062 1.671875,-0.125 C 8.566406,-0.9375 9.1875,-1.132812 9.9375,-1.4375 V -0.5 C 9.300781,-0.226562 8.710938,-0.046875 8.171875,0.046875 7.640625,0.148438 7.050781,0.203125 6.40625,0.203125 Z m -0.296875,-10.71875 c -1.085937,0 -1.953125,0.355469 -2.609375,1.0625 C 2.851562,-8.742188 2.472656,-7.71875 2.359375,-6.375 h 6.9375 c 0,-1.300781 -0.28125,-2.316406 -0.84375,-3.046875 -0.5625,-0.726563 -1.34375,-1.09375 -2.34375,-1.09375 z M 4.65625,-12.96875 c 0.507812,-0.539062 1.007812,-1.128906 1.5,-1.765625 0.488281,-0.632813 0.820312,-1.117187 1,-1.453125 h 1.453125 v 0.171875 c -0.242187,0.367187 -0.664063,0.84375 -1.265625,1.4375 -0.59375,0.585937 -1.246094,1.179687 -1.953125,1.78125 H 4.65625 Z m 0,0"
             id="path967" />
        </g>
      </g>
    </g>
    <g
       fill="#000000"
       fill-opacity="1"
       id="g981"
       transform="translate(5.3700356,-186.57785)">
      <g
         transform="translate(283.36729,551.25659)"
         id="g979">
        <g
           id="g977">
          <path
             d="m 6.296875,-11.421875 c 0.46875,0 0.972656,0.04687 1.515625,0.140625 l -0.1875,0.984375 c -0.46875,-0.125 -0.953125,-0.1875 -1.453125,-0.1875 -0.960937,0 -1.746094,0.40625 -2.359375,1.21875 -0.605469,0.8125 -0.90625,1.839844 -0.90625,3.078125 V 0 H 1.875 V -11.21875 H 2.75 l 0.09375,2.03125 h 0.078125 c 0.457031,-0.820312 0.945313,-1.398438 1.46875,-1.734375 0.519531,-0.332031 1.15625,-0.5 1.90625,-0.5 z m 0,0"
             id="path975" />
        </g>
      </g>
    </g>
    <g
       fill="#000000"
       fill-opacity="1"
       id="g989"
       transform="translate(5.3700356,-186.57785)">
      <g
         transform="translate(291.58976,551.25659)"
         id="g987">
        <g
           id="g985">
          <path
             d="M 2.90625,0 H 1.875 V -11.21875 H 2.90625 Z M 1.734375,-14.328125 c 0,-0.65625 0.210937,-0.984375 0.640625,-0.984375 0.21875,0 0.382812,0.08984 0.5,0.265625 0.125,0.167969 0.1875,0.40625 0.1875,0.71875 0,0.3125 -0.0625,0.558594 -0.1875,0.734375 -0.117188,0.179688 -0.28125,0.265625 -0.5,0.265625 -0.429688,0 -0.640625,-0.332031 -0.640625,-1 z m 0,0"
             id="path983" />
        </g>
      </g>
    </g>
    <g
       fill="#000000"
       fill-opacity="1"
       id="g997"
       transform="translate(5.3700356,-186.57785)">
      <g
         transform="translate(296.36643,551.25659)"
         id="g995">
        <g
           id="g993">
          <path
             d="M 5.875,0.203125 C 4.394531,0.203125 3.25,-0.28125 2.4375,-1.25 1.632812,-2.226562 1.234375,-3.640625 1.234375,-5.484375 c 0,-1.894531 0.398437,-3.359375 1.203125,-4.390625 0.8125,-1.03125 1.976562,-1.546875 3.5,-1.546875 1.613281,0 2.828125,0.59375 3.640625,1.78125 h 0.0625 L 9.8125,-11.21875 h 0.875 V 5.078125 H 9.671875 v -4.28125 c 0,-0.8320312 0.019531,-1.679687 0.0625,-2.546875 h -0.0625 C 8.859375,-0.445312 7.59375,0.203125 5.875,0.203125 Z m 0.015625,-0.90625 c 1.363281,0 2.332031,-0.375 2.90625,-1.125 0.582031,-0.75 0.875,-2.003906 0.875,-3.765625 v -0.125 c 0,-1.6875 -0.292969,-2.90625 -0.875,-3.65625 C 8.210938,-10.125 7.28125,-10.5 6,-10.5 c -1.210938,0 -2.132812,0.429688 -2.765625,1.28125 -0.625,0.855469 -0.9375,2.105469 -0.9375,3.75 0,1.574219 0.304687,2.761719 0.921875,3.5625 0.613281,0.804688 1.503906,1.203125 2.671875,1.203125 z m 0,0"
             id="path991" />
        </g>
      </g>
    </g>
    <g
       fill="#000000"
       fill-opacity="1"
       id="g1005"
       transform="translate(5.3700356,-186.57785)">
      <g
         transform="translate(308.94258,551.25659)"
         id="g1003">
        <g
           id="g1001">
          <path
             d="m 2.765625,-11.21875 v 7.265625 c 0,1.125 0.234375,1.949219 0.703125,2.46875 0.476562,0.511719 1.21875,0.765625 2.21875,0.765625 1.332031,0 2.3125,-0.335938 2.9375,-1.015625 0.632812,-0.675781 0.953125,-1.769531 0.953125,-3.28125 v -6.203125 h 1 V 0 H 9.71875 l -0.1875,-1.546875 h -0.0625 c -0.730469,1.167969 -2.027344,1.75 -3.890625,1.75 C 3.023438,0.203125 1.75,-1.160156 1.75,-3.890625 v -7.328125 z m 0,0"
             id="path999" />
        </g>
      </g>
    </g>
    <g
       fill="#000000"
       fill-opacity="1"
       id="g1013"
       transform="translate(5.3700356,-186.57785)">
      <g
         transform="translate(321.40525,551.25659)"
         id="g1011">
        <g
           id="g1009">
          <path
             d="m 6.40625,0.203125 c -1.625,0 -2.898438,-0.5 -3.8125,-1.5 -0.90625,-1.007813 -1.359375,-2.414063 -1.359375,-4.21875 0,-1.789063 0.4375,-3.222656 1.3125,-4.296875 0.882813,-1.070312 2.070313,-1.609375 3.5625,-1.609375 1.320313,0 2.363281,0.460937 3.125,1.375 0.757813,0.917969 1.140625,2.167969 1.140625,3.75 V -5.46875 H 2.296875 C 2.316406,-3.925781 2.675781,-2.75 3.375,-1.9375 c 0.707031,0.8125 1.71875,1.21875 3.03125,1.21875 0.632812,0 1.191406,-0.039062 1.671875,-0.125 C 8.566406,-0.9375 9.1875,-1.132812 9.9375,-1.4375 V -0.5 C 9.300781,-0.226562 8.710938,-0.046875 8.171875,0.046875 7.640625,0.148438 7.050781,0.203125 6.40625,0.203125 Z m -0.296875,-10.71875 c -1.085937,0 -1.953125,0.355469 -2.609375,1.0625 C 2.851562,-8.742188 2.472656,-7.71875 2.359375,-6.375 h 6.9375 c 0,-1.300781 -0.28125,-2.316406 -0.84375,-3.046875 -0.5625,-0.726563 -1.34375,-1.09375 -2.34375,-1.09375 z m 0,0"
             id="path1007" />
        </g>
      </g>
    </g>
    <g
       fill="#000000"
       fill-opacity="1"
       id="g1021"
       transform="translate(5.3700356,-186.57785)">
      <g
         transform="translate(240.99862,515.20362)"
         id="g1019">
        <g
           id="g1017">
          <path
             d="M 7.875,-4.453125 H 2.734375 L 0.96875,0 H 0 l 5.078125,-12.671875 h 0.5625 L 10.609375,0 H 9.625 Z M 3.0625,-5.25 H 7.578125 L 5.859375,-9.796875 C 5.710938,-10.160156 5.539062,-10.65625 5.34375,-11.28125 c -0.15625,0.554688 -0.328125,1.054688 -0.515625,1.5 z m 0,0"
             id="path1015" />
        </g>
      </g>
    </g>
    <g
       fill="#000000"
       fill-opacity="1"
       id="g1029"
       transform="translate(5.3700356,-186.57785)">
      <g
         transform="translate(251.61382,515.20362)"
         id="g1027">
        <g
           id="g1025">
          <path
             d="m 5.59375,0.171875 c -1.449219,0 -2.507812,-0.539063 -3.171875,-1.625 h -0.0625 l 0.03125,0.734375 c 0.019531,0.417969 0.03125,0.878906 0.03125,1.390625 V 4.25 H 1.578125 V -9.390625 h 0.71875 l 0.171875,1.34375 H 2.515625 C 3.160156,-9.054688 4.191406,-9.5625 5.609375,-9.5625 c 1.257813,0 2.222656,0.417969 2.890625,1.25 0.664062,0.824219 1,2.03125 1,3.625 0,1.542969 -0.351562,2.742188 -1.046875,3.59375 C 7.753906,-0.25 6.800781,0.171875 5.59375,0.171875 Z M 5.578125,-0.59375 c 0.957031,0 1.695313,-0.351562 2.21875,-1.0625 0.53125,-0.71875 0.796875,-1.71875 0.796875,-3 0,-2.757812 -0.996094,-4.140625 -2.984375,-4.140625 -1.09375,0 -1.902344,0.304687 -2.421875,0.90625 -0.511719,0.605469 -0.765625,1.585937 -0.765625,2.9375 v 0.28125 c 0,1.46875 0.242187,2.515625 0.734375,3.140625 0.5,0.625 1.304688,0.9375 2.421875,0.9375 z m 0,0"
             id="path1023" />
        </g>
      </g>
    </g>
    <g
       fill="#000000"
       fill-opacity="1"
       id="g1037"
       transform="translate(5.3700356,-186.57785)">
      <g
         transform="translate(262.14264,515.20362)"
         id="g1035">
        <g
           id="g1033">
          <path
             d="m 5.59375,0.171875 c -1.449219,0 -2.507812,-0.539063 -3.171875,-1.625 h -0.0625 l 0.03125,0.734375 c 0.019531,0.417969 0.03125,0.878906 0.03125,1.390625 V 4.25 H 1.578125 V -9.390625 h 0.71875 l 0.171875,1.34375 H 2.515625 C 3.160156,-9.054688 4.191406,-9.5625 5.609375,-9.5625 c 1.257813,0 2.222656,0.417969 2.890625,1.25 0.664062,0.824219 1,2.03125 1,3.625 0,1.542969 -0.351562,2.742188 -1.046875,3.59375 C 7.753906,-0.25 6.800781,0.171875 5.59375,0.171875 Z M 5.578125,-0.59375 c 0.957031,0 1.695313,-0.351562 2.21875,-1.0625 0.53125,-0.71875 0.796875,-1.71875 0.796875,-3 0,-2.757812 -0.996094,-4.140625 -2.984375,-4.140625 -1.09375,0 -1.902344,0.304687 -2.421875,0.90625 -0.511719,0.605469 -0.765625,1.585937 -0.765625,2.9375 v 0.28125 c 0,1.46875 0.242187,2.515625 0.734375,3.140625 0.5,0.625 1.304688,0.9375 2.421875,0.9375 z m 0,0"
             id="path1031" />
        </g>
      </g>
    </g>
    <g
       fill="#000000"
       fill-opacity="1"
       id="g1045"
       transform="translate(5.3700356,-186.57785)">
      <g
         transform="translate(272.67146,515.20362)"
         id="g1043">
        <g
           id="g1041">
          <path
             d="m 2.421875,0 h -0.84375 v -13.4375 h 0.84375 z m 0,0"
             id="path1039" />
        </g>
      </g>
    </g>
    <g
       fill="#000000"
       fill-opacity="1"
       id="g1053"
       transform="translate(5.3700356,-186.57785)">
      <g
         transform="translate(276.67051,515.20362)"
         id="g1051">
        <g
           id="g1049">
          <path
             d="m 2.421875,0 h -0.84375 v -9.390625 h 0.84375 z m -0.96875,-12 c 0,-0.550781 0.179687,-0.828125 0.546875,-0.828125 0.175781,0 0.3125,0.07422 0.40625,0.21875 0.101562,0.148437 0.15625,0.351563 0.15625,0.609375 0,0.261719 -0.054688,0.46875 -0.15625,0.625 C 2.3125,-11.226562 2.175781,-11.15625 2,-11.15625 1.632812,-11.15625 1.453125,-11.4375 1.453125,-12 Z m 0,0"
             id="path1047" />
        </g>
      </g>
    </g>
    <g
       fill="#000000"
       fill-opacity="1"
       id="g1061"
       transform="translate(5.3700356,-186.57785)">
      <g
         transform="translate(280.66956,515.20362)"
         id="g1059">
        <g
           id="g1057">
          <path
             d="M 5.3125,0.171875 C 3.976562,0.171875 2.929688,-0.25 2.171875,-1.09375 1.410156,-1.9375 1.03125,-3.117188 1.03125,-4.640625 c 0,-1.550781 0.390625,-2.757813 1.171875,-3.625 0.789063,-0.863281 1.875,-1.296875 3.25,-1.296875 0.8125,0 1.585937,0.140625 2.328125,0.421875 l -0.234375,0.75 c -0.8125,-0.269531 -1.515625,-0.40625 -2.109375,-0.40625 -1.15625,0 -2.03125,0.359375 -2.625,1.078125 -0.59375,0.710938 -0.890625,1.730469 -0.890625,3.0625 0,1.273438 0.296875,2.265625 0.890625,2.984375 0.59375,0.710937 1.421875,1.0625 2.484375,1.0625 0.851563,0 1.644531,-0.148437 2.375,-0.453125 v 0.796875 c -0.59375,0.2890625 -1.382813,0.4375 -2.359375,0.4375 z m 0,0"
             id="path1055" />
        </g>
      </g>
    </g>
    <g
       fill="#000000"
       fill-opacity="1"
       id="g1069"
       transform="translate(5.3700356,-186.57785)">
      <g
         transform="translate(289.07362,515.20362)"
         id="g1067">
        <g
           id="g1065">
          <path
             d="M 7.265625,0 7.0625,-1.484375 H 6.984375 c -0.46875,0.605469 -0.953125,1.03125 -1.453125,1.28125 -0.5,0.25 -1.089844,0.375 -1.765625,0.375 -0.917969,0 -1.636719,-0.234375 -2.15625,-0.703125 C 1.097656,-1.007812 0.84375,-1.664062 0.84375,-2.5 c 0,-0.914062 0.378906,-1.625 1.140625,-2.125 0.769531,-0.507812 1.875,-0.78125 3.3125,-0.8125 L 7.09375,-5.484375 v -0.625 c 0,-0.882813 -0.183594,-1.554687 -0.546875,-2.015625 -0.367187,-0.457031 -0.949219,-0.6875 -1.75,-0.6875 -0.875,0 -1.777344,0.246094 -2.703125,0.734375 l -0.328125,-0.75 c 1.03125,-0.476563 2.050781,-0.71875 3.0625,-0.71875 1.03125,0 1.800781,0.265625 2.3125,0.796875 0.507813,0.53125 0.765625,1.367188 0.765625,2.5 V 0 Z M 3.8125,-0.609375 c 1,0 1.789062,-0.285156 2.375,-0.859375 0.582031,-0.570312 0.875,-1.367188 0.875,-2.390625 V -4.78125 l -1.640625,0.078125 c -1.324219,0.0625 -2.265625,0.273437 -2.828125,0.625 C 2.03125,-3.734375 1.75,-3.195312 1.75,-2.46875 c 0,0.59375 0.175781,1.054688 0.53125,1.375 0.363281,0.324219 0.875,0.484375 1.53125,0.484375 z m 0,0"
             id="path1063" />
        </g>
      </g>
    </g>
    <g
       fill="#000000"
       fill-opacity="1"
       id="g1077"
       transform="translate(5.3700356,-186.57785)">
      <g
         transform="translate(298.44504,515.20362)"
         id="g1075">
        <g
           id="g1073">
          <path
             d="m 4.046875,-0.59375 c 0.539063,0 1.015625,-0.039062 1.421875,-0.125 v 0.6875 c -0.417969,0.132812 -0.898438,0.203125 -1.4375,0.203125 -0.824219,0 -1.433594,-0.21875 -1.828125,-0.65625 -0.398437,-0.445313 -0.59375,-1.144531 -0.59375,-2.09375 v -6.0625 H 0.21875 v -0.5 l 1.390625,-0.390625 0.421875,-2.125 h 0.453125 v 2.265625 h 2.75 v 0.75 h -2.75 v 5.9375 c 0,0.71875 0.125,1.25 0.375,1.59375 0.25,0.34375 0.644531,0.515625 1.1875,0.515625 z m 0,0"
             id="path1071" />
        </g>
      </g>
    </g>
    <g
       fill="#000000"
       fill-opacity="1"
       id="g1085"
       transform="translate(5.3700356,-186.57785)">
      <g
         transform="translate(304.3702,515.20362)"
         id="g1083">
        <g
           id="g1081">
          <path
             d="m 2.421875,0 h -0.84375 v -9.390625 h 0.84375 z m -0.96875,-12 c 0,-0.550781 0.179687,-0.828125 0.546875,-0.828125 0.175781,0 0.3125,0.07422 0.40625,0.21875 0.101562,0.148437 0.15625,0.351563 0.15625,0.609375 0,0.261719 -0.054688,0.46875 -0.15625,0.625 C 2.3125,-11.226562 2.175781,-11.15625 2,-11.15625 1.632812,-11.15625 1.453125,-11.4375 1.453125,-12 Z m 0,0"
             id="path1079" />
        </g>
      </g>
    </g>
    <g
       fill="#000000"
       fill-opacity="1"
       id="g1093"
       transform="translate(5.3700356,-186.57785)">
      <g
         transform="translate(308.36926,515.20362)"
         id="g1091">
        <g
           id="g1089">
          <path
             d="m 9.34375,-4.703125 c 0,1.53125 -0.375,2.730469 -1.125,3.59375 -0.742188,0.855469 -1.765625,1.28125 -3.078125,1.28125 -0.824219,0 -1.546875,-0.1953125 -2.171875,-0.59375 -0.625,-0.394531 -1.105469,-0.960937 -1.4375,-1.703125 -0.335938,-0.75 -0.5,-1.609375 -0.5,-2.578125 0,-1.53125 0.367188,-2.722656 1.109375,-3.578125 0.738281,-0.851562 1.757813,-1.28125 3.0625,-1.28125 1.289063,0 2.300781,0.433594 3.03125,1.296875 0.738281,0.867187 1.109375,2.054687 1.109375,3.5625 z m -7.421875,0 c 0,1.292969 0.28125,2.296875 0.84375,3.015625 0.570313,0.71875 1.378906,1.078125 2.421875,1.078125 1.03125,0 1.828125,-0.359375 2.390625,-1.078125 0.570313,-0.71875 0.859375,-1.722656 0.859375,-3.015625 0,-1.300781 -0.289062,-2.304687 -0.859375,-3.015625 -0.574219,-0.71875 -1.375,-1.078125 -2.40625,-1.078125 -1.042969,0 -1.84375,0.359375 -2.40625,1.078125 -0.5625,0.710938 -0.84375,1.714844 -0.84375,3.015625 z m 0,0"
             id="path1087" />
        </g>
      </g>
    </g>
    <g
       fill="#000000"
       fill-opacity="1"
       id="g1101"
       transform="translate(5.3700356,-186.57785)">
      <g
         transform="translate(318.73397,515.20362)"
         id="g1099">
        <g
           id="g1097">
          <path
             d="m 8.125,0 v -6.09375 c 0,-0.9375 -0.203125,-1.617188 -0.609375,-2.046875 -0.398437,-0.4375 -1.011719,-0.65625 -1.84375,-0.65625 -1.125,0 -1.949219,0.289063 -2.46875,0.859375 -0.523437,0.5625 -0.78125,1.480469 -0.78125,2.75 V 0 h -0.84375 v -9.390625 h 0.71875 L 2.46875,-8.09375 h 0.046875 c 0.601563,-0.976562 1.6875,-1.46875 3.25,-1.46875 2.132813,0 3.203125,1.140625 3.203125,3.421875 V 0 Z m 0,0"
             id="path1095" />
        </g>
      </g>
    </g>
    <g
       fill="#000000"
       fill-opacity="1"
       id="g1109"
       transform="translate(5.3700356,-186.57785)">
      <g
         transform="translate(324.02521,445.08643)"
         id="g1107">
        <g
           id="g1105">
          <path
             d="M 4.59375,0 1.640625,-7.296875 h -0.03125 c 0.019531,0.449219 0.03125,0.90625 0.03125,1.375 V 0 H 1.125 v -7.890625 h 0.84375 l 2.796875,6.9375 h 0.03125 l 2.796875,-6.9375 H 8.4375 V 0 H 7.875 v -5.984375 c 0,-0.414063 0.019531,-0.847656 0.0625,-1.296875 H 7.890625 L 4.9375,0 Z m 0,0"
             id="path1103" />
        </g>
      </g>
    </g>
    <g
       fill="#000000"
       fill-opacity="1"
       id="g1117"
       transform="translate(5.3700356,-186.57785)">
      <g
         transform="translate(333.57457,445.08643)"
         id="g1115">
        <g
           id="g1113">
          <path
             d="m 3.359375,0.109375 c -0.855469,0 -1.523437,-0.257813 -2,-0.78125 -0.480469,-0.53125 -0.71875,-1.269531 -0.71875,-2.21875 0,-0.9375 0.226563,-1.6875 0.6875,-2.25 0.46875,-0.5625 1.09375,-0.84375 1.875,-0.84375 0.6875,0 1.226563,0.246094 1.625,0.734375 0.40625,0.480469 0.609375,1.132812 0.609375,1.953125 v 0.4375 H 1.203125 c 0.00781,0.804687 0.195313,1.417969 0.5625,1.84375 0.375,0.429687 0.90625,0.640625 1.59375,0.640625 0.332031,0 0.625,-0.019531 0.875,-0.0625 0.257813,-0.050781 0.582031,-0.15625 0.96875,-0.3125 v 0.484375 C 4.867188,-0.117188 4.5625,-0.0195312 4.28125,0.03125 4,0.0820312 3.691406,0.109375 3.359375,0.109375 Z m -0.15625,-5.625 c -0.574219,0 -1.03125,0.1875 -1.375,0.5625 -0.335937,0.375 -0.53125,0.914063 -0.59375,1.609375 h 3.625 c 0,-0.675781 -0.148437,-1.207031 -0.4375,-1.59375 C 4.128906,-5.320312 3.722656,-5.515625 3.203125,-5.515625 Z M 2.4375,-6.796875 c 0.257812,-0.28125 0.519531,-0.585937 0.78125,-0.921875 0.257812,-0.332031 0.4375,-0.582031 0.53125,-0.75 H 4.5 v 0.078125 c -0.125,0.1875 -0.34375,0.4375 -0.65625,0.75 -0.3125,0.3125 -0.65625,0.625 -1.03125,0.9375 h -0.375 z m 0,0"
             id="path1111" />
        </g>
      </g>
    </g>
    <g
       fill="#000000"
       fill-opacity="1"
       id="g1125"
       transform="translate(5.3700356,-186.57785)">
      <g
         transform="translate(339.64898,445.08643)"
         id="g1123">
        <g
           id="g1121">
          <path
             d="m 2.53125,-0.375 c 0.34375,0 0.640625,-0.023438 0.890625,-0.078125 v 0.4375 c -0.261719,0.0820312 -0.5625,0.125 -0.90625,0.125 C 2.003906,0.109375 1.625,-0.0234375 1.375,-0.296875 1.125,-0.578125 1,-1.015625 1,-1.609375 V -5.40625 H 0.140625 v -0.3125 L 1,-5.96875 1.28125,-7.296875 H 1.546875 V -5.875 h 1.71875 v 0.46875 h -1.71875 v 3.71875 c 0,0.449219 0.078125,0.78125 0.234375,1 0.164062,0.210938 0.414062,0.3125 0.75,0.3125 z m 0,0"
             id="path1119" />
        </g>
      </g>
    </g>
    <g
       fill="#000000"
       fill-opacity="1"
       id="g1133"
       transform="translate(5.3700356,-186.57785)">
      <g
         transform="translate(343.35631,445.08643)"
         id="g1131">
        <g
           id="g1129">
          <path
             d="m 3.296875,-5.984375 c 0.25,0 0.515625,0.027344 0.796875,0.078125 l -0.109375,0.515625 c -0.242187,-0.0625 -0.492187,-0.09375 -0.75,-0.09375 -0.5,0 -0.914063,0.214844 -1.234375,0.640625 -0.324219,0.417969 -0.484375,0.953125 -0.484375,1.609375 V 0 H 0.984375 V -5.875 H 1.4375 l 0.046875,1.0625 H 1.53125 c 0.238281,-0.4375 0.492188,-0.738281 0.765625,-0.90625 0.28125,-0.175781 0.613281,-0.265625 1,-0.265625 z m 0,0"
             id="path1127" />
        </g>
      </g>
    </g>
    <g
       fill="#000000"
       fill-opacity="1"
       id="g1141"
       transform="translate(5.3700356,-186.57785)">
      <g
         transform="translate(347.66352,445.08643)"
         id="g1139">
        <g
           id="g1137">
          <path
             d="m 5.84375,-2.9375 c 0,0.960938 -0.234375,1.710938 -0.703125,2.25 -0.460937,0.53125 -1.101563,0.796875 -1.921875,0.796875 -0.511719,0 -0.964844,-0.125 -1.359375,-0.375 -0.398437,-0.25 -0.699219,-0.601563 -0.90625,-1.0625 -0.210937,-0.46875 -0.3125,-1.003906 -0.3125,-1.609375 0,-0.957031 0.226563,-1.703125 0.6875,-2.234375 0.46875,-0.539063 1.109375,-0.8125 1.921875,-0.8125 0.8125,0 1.445312,0.273437 1.90625,0.8125 0.457031,0.542969 0.6875,1.289063 0.6875,2.234375 z m -4.640625,0 c 0,0.804688 0.175781,1.433594 0.53125,1.890625 0.351563,0.449219 0.851563,0.671875 1.5,0.671875 0.65625,0 1.160156,-0.222656 1.515625,-0.671875 C 5.101562,-1.503906 5.28125,-2.132812 5.28125,-2.9375 5.28125,-3.75 5.097656,-4.378906 4.734375,-4.828125 4.378906,-5.273438 3.878906,-5.5 3.234375,-5.5 c -0.648437,0 -1.148437,0.226562 -1.5,0.671875 -0.355469,0.4375 -0.53125,1.070313 -0.53125,1.890625 z m 0,0"
             id="path1135" />
        </g>
      </g>
    </g>
    <g
       fill="#000000"
       fill-opacity="1"
       id="g1149"
       transform="translate(5.3700356,-186.57785)">
      <g
         transform="translate(354.14865,445.08643)"
         id="g1147">
        <g
           id="g1145">
          <path
             d="m 1.515625,0 h -0.53125 v -8.40625 h 0.53125 z m 0,0"
             id="path1143" />
        </g>
      </g>
    </g>
    <g
       fill="#000000"
       fill-opacity="1"
       id="g1157"
       transform="translate(5.3700356,-186.57785)">
      <g
         transform="translate(356.65083,445.08643)"
         id="g1155">
        <g
           id="g1153">
          <path
             d="m 5.84375,-2.9375 c 0,0.960938 -0.234375,1.710938 -0.703125,2.25 -0.460937,0.53125 -1.101563,0.796875 -1.921875,0.796875 -0.511719,0 -0.964844,-0.125 -1.359375,-0.375 -0.398437,-0.25 -0.699219,-0.601563 -0.90625,-1.0625 -0.210937,-0.46875 -0.3125,-1.003906 -0.3125,-1.609375 0,-0.957031 0.226563,-1.703125 0.6875,-2.234375 0.46875,-0.539063 1.109375,-0.8125 1.921875,-0.8125 0.8125,0 1.445312,0.273437 1.90625,0.8125 0.457031,0.542969 0.6875,1.289063 0.6875,2.234375 z m -4.640625,0 c 0,0.804688 0.175781,1.433594 0.53125,1.890625 0.351563,0.449219 0.851563,0.671875 1.5,0.671875 0.65625,0 1.160156,-0.222656 1.515625,-0.671875 C 5.101562,-1.503906 5.28125,-2.132812 5.28125,-2.9375 5.28125,-3.75 5.097656,-4.378906 4.734375,-4.828125 4.378906,-5.273438 3.878906,-5.5 3.234375,-5.5 c -0.648437,0 -1.148437,0.226562 -1.5,0.671875 -0.355469,0.4375 -0.53125,1.070313 -0.53125,1.890625 z m 0,0"
             id="path1151" />
        </g>
      </g>
    </g>
    <g
       fill="#000000"
       fill-opacity="1"
       id="g1165"
       transform="translate(5.3700356,-186.57785)">
      <g
         transform="translate(363.13596,445.08643)"
         id="g1163">
        <g
           id="g1161">
          <path
             d="M 5.5625,-5.875 V -5.5 l -1.21875,0.078125 c 0.320312,0.40625 0.484375,0.851563 0.484375,1.328125 0,0.5625 -0.1875,1.023438 -0.5625,1.375 -0.375,0.355469 -0.882813,0.53125 -1.515625,0.53125 -0.261719,0 -0.449219,-0.00781 -0.5625,-0.03125 -0.210938,0.105469 -0.371094,0.234375 -0.484375,0.390625 -0.105469,0.148437 -0.15625,0.308594 -0.15625,0.484375 0,0.1875 0.066406,0.324219 0.203125,0.40625 0.144531,0.085938 0.382812,0.125 0.71875,0.125 H 3.5 c 0.632812,0 1.117188,0.132812 1.453125,0.390625 0.34375,0.261719 0.515625,0.640625 0.515625,1.140625 0,0.613281 -0.257812,1.085938 -0.765625,1.421875 C 4.203125,2.484375 3.488281,2.65625 2.5625,2.65625 1.820312,2.65625 1.25,2.507812 0.84375,2.21875 0.445312,1.9375 0.25,1.546875 0.25,1.046875 0.25,0.640625 0.375,0.300781 0.625,0.03125 0.875,-0.226562 1.210938,-0.40625 1.640625,-0.5 1.460938,-0.582031 1.316406,-0.691406 1.203125,-0.828125 1.097656,-0.960938 1.046875,-1.125 1.046875,-1.3125 c 0,-0.382812 0.25,-0.726562 0.75,-1.03125 C 1.460938,-2.488281 1.195312,-2.707031 1,-3 0.8125,-3.300781 0.71875,-3.648438 0.71875,-4.046875 c 0,-0.582031 0.1875,-1.050781 0.5625,-1.40625 0.375,-0.351563 0.875,-0.53125 1.5,-0.53125 0.382812,0 0.6875,0.039063 0.90625,0.109375 z M 0.8125,1 c 0,0.800781 0.597656,1.203125 1.796875,1.203125 1.539063,0 2.3125,-0.492187 2.3125,-1.46875 0,-0.355469 -0.121094,-0.609375 -0.359375,-0.765625 -0.242188,-0.164062 -0.632812,-0.25 -1.171875,-0.25 H 2.421875 C 1.347656,-0.28125 0.8125,0.144531 0.8125,1 Z m 0.453125,-5.046875 c 0,0.460937 0.132813,0.8125 0.40625,1.0625 0.269531,0.25 0.640625,0.375 1.109375,0.375 0.488281,0 0.863281,-0.125 1.125,-0.375 0.257812,-0.25 0.390625,-0.609375 0.390625,-1.078125 0,-0.5 -0.136719,-0.875 -0.40625,-1.125 -0.273437,-0.25 -0.648437,-0.375 -1.125,-0.375 -0.46875,0 -0.839844,0.136719 -1.109375,0.40625 -0.261719,0.261719 -0.390625,0.632812 -0.390625,1.109375 z m 0,0"
             id="path1159" />
        </g>
      </g>
    </g>
    <g
       fill="#000000"
       fill-opacity="1"
       id="g1173"
       transform="translate(5.3700356,-186.57785)">
      <g
         transform="translate(368.92394,445.08643)"
         id="g1171">
        <g
           id="g1169">
          <path
             d="m 1.515625,0 h -0.53125 v -5.875 h 0.53125 z M 0.90625,-7.5 c 0,-0.34375 0.113281,-0.515625 0.34375,-0.515625 0.113281,0 0.203125,0.046875 0.265625,0.140625 0.0625,0.085938 0.09375,0.210938 0.09375,0.375 0,0.15625 -0.03125,0.28125 -0.09375,0.375 C 1.453125,-7.03125 1.363281,-6.984375 1.25,-6.984375 1.019531,-6.984375 0.90625,-7.15625 0.90625,-7.5 Z m 0,0"
             id="path1167" />
        </g>
      </g>
    </g>
    <g
       fill="#000000"
       fill-opacity="1"
       id="g1181"
       transform="translate(5.3700356,-186.57785)">
      <g
         transform="translate(371.42613,445.08643)"
         id="g1179">
        <g
           id="g1177">
          <path
             d="m 3.359375,0.109375 c -0.855469,0 -1.523437,-0.257813 -2,-0.78125 -0.480469,-0.53125 -0.71875,-1.269531 -0.71875,-2.21875 0,-0.9375 0.226563,-1.6875 0.6875,-2.25 0.46875,-0.5625 1.09375,-0.84375 1.875,-0.84375 0.6875,0 1.226563,0.246094 1.625,0.734375 0.40625,0.480469 0.609375,1.132812 0.609375,1.953125 v 0.4375 H 1.203125 c 0.00781,0.804687 0.195313,1.417969 0.5625,1.84375 0.375,0.429687 0.90625,0.640625 1.59375,0.640625 0.332031,0 0.625,-0.019531 0.875,-0.0625 0.257813,-0.050781 0.582031,-0.15625 0.96875,-0.3125 v 0.484375 C 4.867188,-0.117188 4.5625,-0.0195312 4.28125,0.03125 4,0.0820312 3.691406,0.109375 3.359375,0.109375 Z m -0.15625,-5.625 c -0.574219,0 -1.03125,0.1875 -1.375,0.5625 -0.335937,0.375 -0.53125,0.914063 -0.59375,1.609375 h 3.625 c 0,-0.675781 -0.148437,-1.207031 -0.4375,-1.59375 -0.292969,-0.382812 -0.699219,-0.578125 -1.21875,-0.578125 z m 0,0"
             id="path1175" />
        </g>
      </g>
    </g>
    <g
       fill="#000000"
       fill-opacity="1"
       id="g1189"
       transform="translate(5.3700356,-186.57785)">
      <g
         transform="translate(214.58546,342.06104)"
         id="g1187">
        <g
           id="g1185">
          <path
             d="m -0.203125,2.21875 c -0.363281,0 -0.664063,-0.054688 -0.90625,-0.15625 V 1.53125 c 0.3125,0.082031 0.617187,0.125 0.90625,0.125 C 0.765625,1.65625 1.25,1.125 1.25,0.0625 V -8.796875 H 1.859375 V 0 c 0,1.476562 -0.6875,2.21875 -2.0625,2.21875 z m 0,0"
             id="path1183" />
        </g>
      </g>
    </g>
    <g
       fill="#000000"
       fill-opacity="1"
       id="g1197"
       transform="translate(5.3700356,-186.57785)">
      <g
         transform="translate(217.63082,342.06104)"
         id="g1195">
        <g
           id="g1193">
          <path
             d="m 3.734375,0.125 c -0.949219,0 -1.6875,-0.289062 -2.21875,-0.875 -0.53125,-0.59375 -0.796875,-1.414062 -0.796875,-2.46875 0,-1.039062 0.253906,-1.875 0.765625,-2.5 0.507813,-0.632812 1.203125,-0.953125 2.078125,-0.953125 0.769531,0 1.378906,0.273437 1.828125,0.8125 0.445313,0.53125 0.671875,1.261719 0.671875,2.1875 V -3.1875 H 1.34375 c 0.00781,0.898438 0.21875,1.585938 0.625,2.0625 0.414062,0.46875 1.003906,0.703125 1.765625,0.703125 0.375,0 0.703125,-0.023437 0.984375,-0.078125 C 5,-0.550781 5.359375,-0.664062 5.796875,-0.84375 v 0.546875 C 5.429688,-0.128906 5.085938,-0.0195312 4.765625,0.03125 4.453125,0.09375 4.109375,0.125 3.734375,0.125 Z M 3.5625,-6.140625 c -0.625,0 -1.132812,0.210937 -1.515625,0.625 C 1.660156,-5.097656 1.4375,-4.5 1.375,-3.71875 h 4.046875 c 0,-0.757812 -0.167969,-1.351562 -0.5,-1.78125 C 4.597656,-5.925781 4.144531,-6.140625 3.5625,-6.140625 Z m 0,0"
             id="path1191" />
        </g>
      </g>
    </g>
    <g
       fill="#000000"
       fill-opacity="1"
       id="g1205"
       transform="translate(5.3700356,-186.57785)">
      <g
         transform="translate(224.39561,342.06104)"
         id="g1203">
        <g
           id="g1201">
          <path
             d="M 1.609375,-6.546875 V -2.3125 c 0,0.667969 0.132813,1.152344 0.40625,1.453125 0.28125,0.292969 0.710937,0.4375 1.296875,0.4375 0.78125,0 1.351562,-0.191406 1.71875,-0.578125 0.375,-0.394531 0.5625,-1.039062 0.5625,-1.9375 V -6.546875 H 6.171875 V 0 h -0.5 L 5.5625,-0.90625 H 5.53125 C 5.101562,-0.21875 4.34375,0.125 3.25,0.125 1.757812,0.125 1.015625,-0.671875 1.015625,-2.265625 v -4.28125 z m 0,0"
             id="path1199" />
        </g>
      </g>
    </g>
    <g
       fill="#000000"
       fill-opacity="1"
       id="g1213"
       transform="translate(5.3700356,-186.57785)">
      <g
         transform="translate(231.66595,342.06104)"
         id="g1211">
        <g
           id="g1209">
          <path
             d="m 5.65625,0 v -4.25 c 0,-0.65625 -0.140625,-1.128906 -0.421875,-1.421875 C 4.960938,-5.972656 4.535156,-6.125 3.953125,-6.125 c -0.78125,0 -1.355469,0.199219 -1.71875,0.59375 C 1.867188,-5.132812 1.6875,-4.492188 1.6875,-3.609375 V 0 H 1.09375 v -6.546875 h 0.5 l 0.125,0.90625 H 1.75 c 0.425781,-0.6875 1.179688,-1.03125 2.265625,-1.03125 C 5.503906,-6.671875 6.25,-5.875 6.25,-4.28125 V 0 Z m 0,0"
             id="path1207" />
        </g>
      </g>
    </g>
    <g
       fill="#000000"
       fill-opacity="1"
       id="g1221"
       transform="translate(5.3700356,-186.57785)">
      <g
         transform="translate(238.93629,342.06104)"
         id="g1219">
        <g
           id="g1217">
          <path
             d="m 3.734375,0.125 c -0.949219,0 -1.6875,-0.289062 -2.21875,-0.875 -0.53125,-0.59375 -0.796875,-1.414062 -0.796875,-2.46875 0,-1.039062 0.253906,-1.875 0.765625,-2.5 0.507813,-0.632812 1.203125,-0.953125 2.078125,-0.953125 0.769531,0 1.378906,0.273437 1.828125,0.8125 0.445313,0.53125 0.671875,1.261719 0.671875,2.1875 V -3.1875 H 1.34375 c 0.00781,0.898438 0.21875,1.585938 0.625,2.0625 0.414062,0.46875 1.003906,0.703125 1.765625,0.703125 0.375,0 0.703125,-0.023437 0.984375,-0.078125 C 5,-0.550781 5.359375,-0.664062 5.796875,-0.84375 v 0.546875 C 5.429688,-0.128906 5.085938,-0.0195312 4.765625,0.03125 4.453125,0.09375 4.109375,0.125 3.734375,0.125 Z M 3.5625,-6.140625 c -0.625,0 -1.132812,0.210937 -1.515625,0.625 C 1.660156,-5.097656 1.4375,-4.5 1.375,-3.71875 h 4.046875 c 0,-0.757812 -0.167969,-1.351562 -0.5,-1.78125 C 4.597656,-5.925781 4.144531,-6.140625 3.5625,-6.140625 Z m 0,0"
             id="path1215" />
        </g>
      </g>
    </g>
    <g
       fill="#000000"
       fill-opacity="1"
       id="g1229"
       transform="translate(5.3700356,-186.57785)">
      <g
         transform="translate(245.70107,342.06104)"
         id="g1227">
        <g
           id="g1225">
          <path
             d="m 5.15625,-1.703125 c 0,0.585937 -0.226562,1.039063 -0.671875,1.359375 C 4.035156,-0.03125 3.40625,0.125 2.59375,0.125 1.71875,0.125 1.019531,-0.0078125 0.5,-0.28125 v -0.640625 c 0.664062,0.324219 1.363281,0.484375 2.09375,0.484375 0.644531,0 1.132812,-0.101562 1.46875,-0.3125 0.332031,-0.21875 0.5,-0.503906 0.5,-0.859375 C 4.5625,-1.941406 4.425781,-2.21875 4.15625,-2.4375 3.894531,-2.664062 3.457031,-2.890625 2.84375,-3.109375 2.1875,-3.347656 1.726562,-3.550781 1.46875,-3.71875 1.207031,-3.882812 1.007812,-4.070312 0.875,-4.28125 0.738281,-4.5 0.671875,-4.765625 0.671875,-5.078125 c 0,-0.488281 0.203125,-0.875 0.609375,-1.15625 0.414062,-0.289063 0.992188,-0.4375 1.734375,-0.4375 0.695313,0 1.363281,0.136719 2,0.40625 l -0.21875,0.53125 C 4.148438,-5.992188 3.554688,-6.125 3.015625,-6.125 c -0.542969,0 -0.96875,0.089844 -1.28125,0.265625 -0.3125,0.179687 -0.46875,0.421875 -0.46875,0.734375 0,0.34375 0.117187,0.621094 0.359375,0.828125 0.25,0.199219 0.726562,0.421875 1.4375,0.671875 0.582031,0.210938 1.007812,0.402344 1.28125,0.578125 0.269531,0.167969 0.472656,0.359375 0.609375,0.578125 0.132813,0.21875 0.203125,0.476562 0.203125,0.765625 z m 0,0"
             id="path1223" />
        </g>
      </g>
    </g>
    <g
       fill="#000000"
       fill-opacity="1"
       id="g1243"
       transform="translate(5.3700356,-186.57785)">
      <g
         transform="translate(204.37658,359.27592)"
         id="g1241">
        <g
           id="g1239">
          <path
             d="M 1.609375,-6.546875 V -2.3125 c 0,0.667969 0.132813,1.152344 0.40625,1.453125 0.28125,0.292969 0.710937,0.4375 1.296875,0.4375 0.78125,0 1.351562,-0.191406 1.71875,-0.578125 0.375,-0.394531 0.5625,-1.039062 0.5625,-1.9375 V -6.546875 H 6.171875 V 0 h -0.5 L 5.5625,-0.90625 H 5.53125 C 5.101562,-0.21875 4.34375,0.125 3.25,0.125 1.757812,0.125 1.015625,-0.671875 1.015625,-2.265625 v -4.28125 z m 0,0"
             id="path1237" />
        </g>
      </g>
    </g>
    <g
       fill="#000000"
       fill-opacity="1"
       id="g1251"
       transform="translate(5.3700356,-186.57785)">
      <g
         transform="translate(211.64692,359.27592)"
         id="g1249">
        <g
           id="g1247">
          <path
             d="m 2.828125,-0.40625 c 0.375,0 0.703125,-0.03125 0.984375,-0.09375 v 0.46875 C 3.519531,0.0703125 3.1875,0.125 2.8125,0.125 2.226562,0.125 1.800781,-0.03125 1.53125,-0.34375 1.257812,-0.65625 1.125,-1.140625 1.125,-1.796875 V -6.03125 H 0.15625 V -6.375 L 1.125,-6.640625 1.421875,-8.125 h 0.3125 v 1.578125 h 1.90625 v 0.515625 h -1.90625 v 4.140625 c 0,0.511719 0.082031,0.886719 0.25,1.125 0.175781,0.242187 0.457031,0.359375 0.84375,0.359375 z m 0,0"
             id="path1245" />
        </g>
      </g>
    </g>
    <g
       fill="#000000"
       fill-opacity="1"
       id="g1259"
       transform="translate(5.3700356,-186.57785)">
      <g
         transform="translate(215.77561,359.27592)"
         id="g1257">
        <g
           id="g1255">
          <path
             d="M 1.6875,0 H 1.09375 V -6.546875 H 1.6875 Z M 1.015625,-8.359375 c 0,-0.382813 0.125,-0.578125 0.375,-0.578125 0.125,0 0.21875,0.054688 0.28125,0.15625 0.070313,0.09375 0.109375,0.234375 0.109375,0.421875 0,0.179687 -0.039062,0.320313 -0.109375,0.421875 -0.0625,0.105469 -0.15625,0.15625 -0.28125,0.15625 -0.25,0 -0.375,-0.191406 -0.375,-0.578125 z m 0,0"
             id="path1253" />
        </g>
      </g>
    </g>
    <g
       fill="#000000"
       fill-opacity="1"
       id="g1267"
       transform="translate(5.3700356,-186.57785)">
      <g
         transform="translate(218.56217,359.27592)"
         id="g1265">
        <g
           id="g1263">
          <path
             d="M 1.6875,0 H 1.09375 V -9.359375 H 1.6875 Z m 0,0"
             id="path1261" />
        </g>
      </g>
    </g>
    <g
       fill="#000000"
       fill-opacity="1"
       id="g1275"
       transform="translate(5.3700356,-186.57785)">
      <g
         transform="translate(221.34873,359.27592)"
         id="g1273">
        <g
           id="g1271">
          <path
             d="M 1.6875,0 H 1.09375 V -6.546875 H 1.6875 Z M 1.015625,-8.359375 c 0,-0.382813 0.125,-0.578125 0.375,-0.578125 0.125,0 0.21875,0.054688 0.28125,0.15625 0.070313,0.09375 0.109375,0.234375 0.109375,0.421875 0,0.179687 -0.039062,0.320313 -0.109375,0.421875 -0.0625,0.105469 -0.15625,0.15625 -0.28125,0.15625 -0.25,0 -0.375,-0.191406 -0.375,-0.578125 z m 0,0"
             id="path1269" />
        </g>
      </g>
    </g>
    <g
       fill="#000000"
       fill-opacity="1"
       id="g1283"
       transform="translate(5.3700356,-186.57785)">
      <g
         transform="translate(224.1353,359.27592)"
         id="g1281">
        <g
           id="g1279">
          <path
             d="m 5.15625,-1.703125 c 0,0.585937 -0.226562,1.039063 -0.671875,1.359375 C 4.035156,-0.03125 3.40625,0.125 2.59375,0.125 1.71875,0.125 1.019531,-0.0078125 0.5,-0.28125 v -0.640625 c 0.664062,0.324219 1.363281,0.484375 2.09375,0.484375 0.644531,0 1.132812,-0.101562 1.46875,-0.3125 0.332031,-0.21875 0.5,-0.503906 0.5,-0.859375 C 4.5625,-1.941406 4.425781,-2.21875 4.15625,-2.4375 3.894531,-2.664062 3.457031,-2.890625 2.84375,-3.109375 2.1875,-3.347656 1.726562,-3.550781 1.46875,-3.71875 1.207031,-3.882812 1.007812,-4.070312 0.875,-4.28125 0.738281,-4.5 0.671875,-4.765625 0.671875,-5.078125 c 0,-0.488281 0.203125,-0.875 0.609375,-1.15625 0.414062,-0.289063 0.992188,-0.4375 1.734375,-0.4375 0.695313,0 1.363281,0.136719 2,0.40625 l -0.21875,0.53125 C 4.148438,-5.992188 3.554688,-6.125 3.015625,-6.125 c -0.542969,0 -0.96875,0.089844 -1.28125,0.265625 -0.3125,0.179687 -0.46875,0.421875 -0.46875,0.734375 0,0.34375 0.117187,0.621094 0.359375,0.828125 0.25,0.199219 0.726562,0.421875 1.4375,0.671875 0.582031,0.210938 1.007812,0.402344 1.28125,0.578125 0.269531,0.167969 0.472656,0.359375 0.609375,0.578125 0.132813,0.21875 0.203125,0.476562 0.203125,0.765625 z m 0,0"
             id="path1277" />
        </g>
      </g>
    </g>
    <g
       fill="#000000"
       fill-opacity="1"
       id="g1291"
       transform="translate(5.3700356,-186.57785)">
      <g
         transform="translate(229.87694,359.27592)"
         id="g1289">
        <g
           id="g1287">
          <path
             d="M 5.0625,0 4.921875,-1.03125 H 4.875 C 4.539062,-0.613281 4.195312,-0.316406 3.84375,-0.140625 3.5,0.0351562 3.09375,0.125 2.625,0.125 c -0.648438,0 -1.148438,-0.1601562 -1.5,-0.484375 -0.355469,-0.332031 -0.53125,-0.789063 -0.53125,-1.375 0,-0.644531 0.265625,-1.140625 0.796875,-1.484375 0.53125,-0.351562 1.300781,-0.539062 2.3125,-0.5625 L 4.9375,-3.828125 V -4.25 c 0,-0.625 -0.125,-1.09375 -0.375,-1.40625 -0.25,-0.320312 -0.65625,-0.484375 -1.21875,-0.484375 -0.605469,0 -1.234375,0.167969 -1.890625,0.5 L 1.234375,-6.15625 c 0.71875,-0.332031 1.425781,-0.5 2.125,-0.5 0.71875,0 1.253906,0.1875 1.609375,0.5625 0.363281,0.375 0.546875,0.953125 0.546875,1.734375 V 0 Z M 2.65625,-0.421875 c 0.695312,0 1.25,-0.195313 1.65625,-0.59375 0.40625,-0.40625 0.609375,-0.960937 0.609375,-1.671875 V -3.328125 L 3.78125,-3.28125 c -0.929688,0.042969 -1.589844,0.1875 -1.984375,0.4375 -0.386719,0.242188 -0.578125,0.617188 -0.578125,1.125 0,0.40625 0.125,0.726562 0.375,0.953125 0.25,0.230469 0.601562,0.34375 1.0625,0.34375 z m 0,0"
             id="path1285" />
        </g>
      </g>
    </g>
    <g
       fill="#000000"
       fill-opacity="1"
       id="g1299"
       transform="translate(5.3700356,-186.57785)">
      <g
         transform="translate(236.40701,359.27592)"
         id="g1297">
        <g
           id="g1295">
          <path
             d="m 2.828125,-0.40625 c 0.375,0 0.703125,-0.03125 0.984375,-0.09375 v 0.46875 C 3.519531,0.0703125 3.1875,0.125 2.8125,0.125 2.226562,0.125 1.800781,-0.03125 1.53125,-0.34375 1.257812,-0.65625 1.125,-1.140625 1.125,-1.796875 V -6.03125 H 0.15625 V -6.375 L 1.125,-6.640625 1.421875,-8.125 h 0.3125 v 1.578125 h 1.90625 v 0.515625 h -1.90625 v 4.140625 c 0,0.511719 0.082031,0.886719 0.25,1.125 0.175781,0.242187 0.457031,0.359375 0.84375,0.359375 z m 0,0"
             id="path1293" />
        </g>
      </g>
    </g>
    <g
       fill="#000000"
       fill-opacity="1"
       id="g1307"
       transform="translate(5.3700356,-186.57785)">
      <g
         transform="translate(240.53569,359.27592)"
         id="g1305">
        <g
           id="g1303">
          <path
             d="m 3.734375,0.125 c -0.949219,0 -1.6875,-0.289062 -2.21875,-0.875 -0.53125,-0.59375 -0.796875,-1.414062 -0.796875,-2.46875 0,-1.039062 0.253906,-1.875 0.765625,-2.5 0.507813,-0.632812 1.203125,-0.953125 2.078125,-0.953125 0.769531,0 1.378906,0.273437 1.828125,0.8125 0.445313,0.53125 0.671875,1.261719 0.671875,2.1875 V -3.1875 H 1.34375 c 0.00781,0.898438 0.21875,1.585938 0.625,2.0625 0.414062,0.46875 1.003906,0.703125 1.765625,0.703125 0.375,0 0.703125,-0.023437 0.984375,-0.078125 C 5,-0.550781 5.359375,-0.664062 5.796875,-0.84375 v 0.546875 C 5.429688,-0.128906 5.085938,-0.0195312 4.765625,0.03125 4.453125,0.09375 4.109375,0.125 3.734375,0.125 Z M 3.5625,-6.140625 c -0.625,0 -1.132812,0.210937 -1.515625,0.625 C 1.660156,-5.097656 1.4375,-4.5 1.375,-3.71875 h 4.046875 c 0,-0.757812 -0.167969,-1.351562 -0.5,-1.78125 C 4.597656,-5.925781 4.144531,-6.140625 3.5625,-6.140625 Z m 0,0"
             id="path1301" />
        </g>
      </g>
    </g>
    <g
       fill="#000000"
       fill-opacity="1"
       id="g1315"
       transform="translate(5.3700356,-186.57785)">
      <g
         transform="translate(247.30048,359.27592)"
         id="g1313">
        <g
           id="g1311">
          <path
             d="M 1.609375,-6.546875 V -2.3125 c 0,0.667969 0.132813,1.152344 0.40625,1.453125 0.28125,0.292969 0.710937,0.4375 1.296875,0.4375 0.78125,0 1.351562,-0.191406 1.71875,-0.578125 0.375,-0.394531 0.5625,-1.039062 0.5625,-1.9375 V -6.546875 H 6.171875 V 0 h -0.5 L 5.5625,-0.90625 H 5.53125 C 5.101562,-0.21875 4.34375,0.125 3.25,0.125 1.757812,0.125 1.015625,-0.671875 1.015625,-2.265625 v -4.28125 z m 0,0"
             id="path1309" />
        </g>
      </g>
    </g>
    <g
       fill="#000000"
       fill-opacity="1"
       id="g1323"
       transform="translate(5.3700356,-186.57785)">
      <g
         transform="translate(254.57082,359.27592)"
         id="g1321">
        <g
           id="g1319">
          <path
             d="m 3.671875,-6.671875 c 0.28125,0 0.578125,0.03125 0.890625,0.09375 l -0.109375,0.5625 c -0.273437,-0.0625 -0.558594,-0.09375 -0.859375,-0.09375 -0.554688,0 -1.011719,0.242187 -1.375,0.71875 -0.355469,0.46875 -0.53125,1.0625 -0.53125,1.78125 V 0 H 1.09375 v -6.546875 h 0.5 l 0.0625,1.1875 H 1.703125 C 1.972656,-5.835938 2.257812,-6.175781 2.5625,-6.375 2.863281,-6.570312 3.234375,-6.671875 3.671875,-6.671875 Z m 0,0"
             id="path1317" />
        </g>
      </g>
    </g>
    <g
       fill="#000000"
       fill-opacity="1"
       id="g1331"
       transform="translate(5.3700356,-186.57785)">
      <g
         transform="translate(259.36755,359.27592)"
         id="g1329">
        <g
           id="g1327">
          <path
             d="m 5.15625,-1.703125 c 0,0.585937 -0.226562,1.039063 -0.671875,1.359375 C 4.035156,-0.03125 3.40625,0.125 2.59375,0.125 1.71875,0.125 1.019531,-0.0078125 0.5,-0.28125 v -0.640625 c 0.664062,0.324219 1.363281,0.484375 2.09375,0.484375 0.644531,0 1.132812,-0.101562 1.46875,-0.3125 0.332031,-0.21875 0.5,-0.503906 0.5,-0.859375 C 4.5625,-1.941406 4.425781,-2.21875 4.15625,-2.4375 3.894531,-2.664062 3.457031,-2.890625 2.84375,-3.109375 2.1875,-3.347656 1.726562,-3.550781 1.46875,-3.71875 1.207031,-3.882812 1.007812,-4.070312 0.875,-4.28125 0.738281,-4.5 0.671875,-4.765625 0.671875,-5.078125 c 0,-0.488281 0.203125,-0.875 0.609375,-1.15625 0.414062,-0.289063 0.992188,-0.4375 1.734375,-0.4375 0.695313,0 1.363281,0.136719 2,0.40625 l -0.21875,0.53125 C 4.148438,-5.992188 3.554688,-6.125 3.015625,-6.125 c -0.542969,0 -0.96875,0.089844 -1.28125,0.265625 -0.3125,0.179687 -0.46875,0.421875 -0.46875,0.734375 0,0.34375 0.117187,0.621094 0.359375,0.828125 0.25,0.199219 0.726562,0.421875 1.4375,0.671875 0.582031,0.210938 1.007812,0.402344 1.28125,0.578125 0.269531,0.167969 0.472656,0.359375 0.609375,0.578125 0.132813,0.21875 0.203125,0.476562 0.203125,0.765625 z m 0,0"
             id="path1325" />
        </g>
      </g>
    </g>
    <g
       fill="#000000"
       fill-opacity="1"
       id="g1339"
       transform="translate(5.3700356,-186.57785)">
      <g
         transform="translate(208.71009,438.49001)"
         id="g1337">
        <g
           id="g1335">
          <path
             d="M 7.875,-4.453125 H 2.734375 L 0.96875,0 H 0 l 5.078125,-12.671875 h 0.5625 L 10.609375,0 H 9.625 Z M 3.0625,-5.25 H 7.578125 L 5.859375,-9.796875 C 5.710938,-10.160156 5.539062,-10.65625 5.34375,-11.28125 c -0.15625,0.554688 -0.328125,1.054688 -0.515625,1.5 z m 0,0"
             id="path1333" />
        </g>
      </g>
    </g>
    <g
       fill="#000000"
       fill-opacity="1"
       id="g1347"
       transform="translate(5.3700356,-186.57785)">
      <g
         transform="translate(219.32528,438.49001)"
         id="g1345">
        <g
           id="g1343">
          <path
             d="M 2.3125,-9.390625 V -3.3125 c 0,0.949219 0.195312,1.636719 0.59375,2.0625 0.394531,0.429688 1.015625,0.640625 1.859375,0.640625 1.113281,0 1.929687,-0.28125 2.453125,-0.84375 0.53125,-0.5625 0.796875,-1.476563 0.796875,-2.75 v -5.1875 h 0.84375 V 0 h -0.71875 l -0.15625,-1.296875 h -0.0625 c -0.605469,0.980469 -1.6875,1.46875 -3.25,1.46875 C 2.535156,0.171875 1.46875,-0.96875 1.46875,-3.25 v -6.140625 z m 0,0"
             id="path1341" />
        </g>
      </g>
    </g>
    <g
       fill="#000000"
       fill-opacity="1"
       id="g1355"
       transform="translate(5.3700356,-186.57785)">
      <g
         transform="translate(229.75909,438.49001)"
         id="g1353">
        <g
           id="g1351">
          <path
             d="m 4.046875,-0.59375 c 0.539063,0 1.015625,-0.039062 1.421875,-0.125 v 0.6875 c -0.417969,0.132812 -0.898438,0.203125 -1.4375,0.203125 -0.824219,0 -1.433594,-0.21875 -1.828125,-0.65625 -0.398437,-0.445313 -0.59375,-1.144531 -0.59375,-2.09375 v -6.0625 H 0.21875 v -0.5 l 1.390625,-0.390625 0.421875,-2.125 h 0.453125 v 2.265625 h 2.75 v 0.75 h -2.75 v 5.9375 c 0,0.71875 0.125,1.25 0.375,1.59375 0.25,0.34375 0.644531,0.515625 1.1875,0.515625 z m 0,0"
             id="path1349" />
        </g>
      </g>
    </g>
    <g
       fill="#000000"
       fill-opacity="1"
       id="g1363"
       transform="translate(5.3700356,-186.57785)">
      <g
         transform="translate(235.68425,438.49001)"
         id="g1361">
        <g
           id="g1359">
          <path
             d="m 5.265625,-9.5625 c 0.394531,0 0.820313,0.039062 1.28125,0.109375 L 6.375,-8.625 C 5.988281,-8.726562 5.585938,-8.78125 5.171875,-8.78125 4.367188,-8.78125 3.707031,-8.4375 3.1875,-7.75 2.675781,-7.070312 2.421875,-6.21875 2.421875,-5.1875 V 0 h -0.84375 v -9.390625 h 0.71875 L 2.390625,-7.6875 H 2.4375 c 0.382812,-0.695312 0.796875,-1.179688 1.234375,-1.453125 0.4375,-0.28125 0.96875,-0.421875 1.59375,-0.421875 z m 0,0"
             id="path1357" />
        </g>
      </g>
    </g>
    <g
       fill="#000000"
       fill-opacity="1"
       id="g1371"
       transform="translate(5.3700356,-186.57785)">
      <g
         transform="translate(242.56815,438.49001)"
         id="g1369">
        <g
           id="g1367">
          <path
             d="m 5.359375,0.171875 c -1.367187,0 -2.429687,-0.414063 -3.1875,-1.25 C 1.410156,-1.921875 1.03125,-3.101562 1.03125,-4.625 c 0,-1.488281 0.363281,-2.679688 1.09375,-3.578125 0.738281,-0.90625 1.734375,-1.359375 2.984375,-1.359375 1.101563,0 1.972656,0.386719 2.609375,1.15625 0.644531,0.773438 0.96875,1.820312 0.96875,3.140625 v 0.6875 H 1.921875 c 0.00781,1.292969 0.3125,2.277344 0.90625,2.953125 0.59375,0.679688 1.4375,1.015625 2.53125,1.015625 0.539063,0 1.015625,-0.035156 1.421875,-0.109375 0.40625,-0.070312 0.914062,-0.234375 1.53125,-0.484375 v 0.78125 c -0.53125,0.230469 -1.023438,0.3867188 -1.46875,0.46875 -0.449219,0.082031 -0.945312,0.125 -1.484375,0.125 z m -0.25,-8.984375 c -0.90625,0 -1.636719,0.304688 -2.1875,0.90625 -0.542969,0.59375 -0.855469,1.449219 -0.9375,2.5625 H 7.78125 c 0,-1.082031 -0.242188,-1.929688 -0.71875,-2.546875 C 6.59375,-8.503906 5.941406,-8.8125 5.109375,-8.8125 Z m 0,0"
             id="path1365" />
        </g>
      </g>
    </g>
    <g
       fill="#000000"
       fill-opacity="1"
       id="g1379"
       transform="translate(5.3700356,-186.57785)">
      <g
         transform="translate(252.27643,438.49001)"
         id="g1377">
        <g
           id="g1375">
          <path
             d="m 7.390625,-2.4375 c 0,0.835938 -0.324219,1.480469 -0.96875,1.9375 -0.636719,0.4492188 -1.539063,0.671875 -2.703125,0.671875 -1.261719,0 -2.261719,-0.1914062 -3,-0.578125 v -0.921875 c 0.945312,0.46875 1.945312,0.703125 3,0.703125 0.925781,0 1.628906,-0.148438 2.109375,-0.453125 0.476563,-0.3125 0.71875,-0.722656 0.71875,-1.234375 0,-0.46875 -0.195313,-0.863281 -0.578125,-1.1875 -0.386719,-0.320312 -1.015625,-0.640625 -1.890625,-0.953125 -0.9375,-0.34375 -1.601563,-0.632813 -1.984375,-0.875 -0.375,-0.25 -0.664062,-0.523437 -0.859375,-0.828125 -0.1875,-0.3125 -0.28125,-0.691406 -0.28125,-1.140625 0,-0.695313 0.296875,-1.25 0.890625,-1.65625 C 2.4375,-9.359375 3.257812,-9.5625 4.3125,-9.5625 c 1.019531,0 1.984375,0.1875 2.890625,0.5625 l -0.3125,0.78125 C 5.960938,-8.601562 5.101562,-8.796875 4.3125,-8.796875 c -0.761719,0 -1.367188,0.132813 -1.8125,0.390625 -0.449219,0.25 -0.671875,0.601562 -0.671875,1.046875 0,0.492187 0.171875,0.882813 0.515625,1.171875 0.351562,0.292969 1.035156,0.621094 2.046875,0.984375 0.84375,0.3125 1.457031,0.59375 1.84375,0.84375 0.382813,0.242187 0.671875,0.515625 0.859375,0.828125 0.195312,0.304688 0.296875,0.667969 0.296875,1.09375 z m 0,0"
             id="path1373" />
        </g>
      </g>
    </g>
    <g
       fill="#000000"
       fill-opacity="1"
       id="g1387"
       transform="translate(5.3700356,-186.57785)">
      <g
         transform="translate(187.23225,463.19542)"
         id="g1385">
        <g
           id="g1383">
          <path
             d="M 7.265625,0 7.0625,-1.484375 H 6.984375 c -0.46875,0.605469 -0.953125,1.03125 -1.453125,1.28125 -0.5,0.25 -1.089844,0.375 -1.765625,0.375 -0.917969,0 -1.636719,-0.234375 -2.15625,-0.703125 C 1.097656,-1.007812 0.84375,-1.664062 0.84375,-2.5 c 0,-0.914062 0.378906,-1.625 1.140625,-2.125 0.769531,-0.507812 1.875,-0.78125 3.3125,-0.8125 L 7.09375,-5.484375 v -0.625 c 0,-0.882813 -0.183594,-1.554687 -0.546875,-2.015625 -0.367187,-0.457031 -0.949219,-0.6875 -1.75,-0.6875 -0.875,0 -1.777344,0.246094 -2.703125,0.734375 l -0.328125,-0.75 c 1.03125,-0.476563 2.050781,-0.71875 3.0625,-0.71875 1.03125,0 1.800781,0.265625 2.3125,0.796875 0.507813,0.53125 0.765625,1.367188 0.765625,2.5 V 0 Z M 3.8125,-0.609375 c 1,0 1.789062,-0.285156 2.375,-0.859375 0.582031,-0.570312 0.875,-1.367188 0.875,-2.390625 V -4.78125 l -1.640625,0.078125 c -1.324219,0.0625 -2.265625,0.273437 -2.828125,0.625 C 2.03125,-3.734375 1.75,-3.195312 1.75,-2.46875 c 0,0.59375 0.175781,1.054688 0.53125,1.375 0.363281,0.324219 0.875,0.484375 1.53125,0.484375 z m 0,0"
             id="path1381" />
        </g>
      </g>
    </g>
    <g
       fill="#000000"
       fill-opacity="1"
       id="g1395"
       transform="translate(5.3700356,-186.57785)">
      <g
         transform="translate(196.60367,463.19542)"
         id="g1393">
        <g
           id="g1391">
          <path
             d="m 5.59375,0.171875 c -1.449219,0 -2.507812,-0.539063 -3.171875,-1.625 h -0.0625 l 0.03125,0.734375 c 0.019531,0.417969 0.03125,0.878906 0.03125,1.390625 V 4.25 H 1.578125 V -9.390625 h 0.71875 l 0.171875,1.34375 H 2.515625 C 3.160156,-9.054688 4.191406,-9.5625 5.609375,-9.5625 c 1.257813,0 2.222656,0.417969 2.890625,1.25 0.664062,0.824219 1,2.03125 1,3.625 0,1.542969 -0.351562,2.742188 -1.046875,3.59375 C 7.753906,-0.25 6.800781,0.171875 5.59375,0.171875 Z M 5.578125,-0.59375 c 0.957031,0 1.695313,-0.351562 2.21875,-1.0625 0.53125,-0.71875 0.796875,-1.71875 0.796875,-3 0,-2.757812 -0.996094,-4.140625 -2.984375,-4.140625 -1.09375,0 -1.902344,0.304687 -2.421875,0.90625 -0.511719,0.605469 -0.765625,1.585937 -0.765625,2.9375 v 0.28125 c 0,1.46875 0.242187,2.515625 0.734375,3.140625 0.5,0.625 1.304688,0.9375 2.421875,0.9375 z m 0,0"
             id="path1389" />
        </g>
      </g>
    </g>
    <g
       fill="#000000"
       fill-opacity="1"
       id="g1403"
       transform="translate(5.3700356,-186.57785)">
      <g
         transform="translate(207.13249,463.19542)"
         id="g1401">
        <g
           id="g1399">
          <path
             d="m 5.59375,0.171875 c -1.449219,0 -2.507812,-0.539063 -3.171875,-1.625 h -0.0625 l 0.03125,0.734375 c 0.019531,0.417969 0.03125,0.878906 0.03125,1.390625 V 4.25 H 1.578125 V -9.390625 h 0.71875 l 0.171875,1.34375 H 2.515625 C 3.160156,-9.054688 4.191406,-9.5625 5.609375,-9.5625 c 1.257813,0 2.222656,0.417969 2.890625,1.25 0.664062,0.824219 1,2.03125 1,3.625 0,1.542969 -0.351562,2.742188 -1.046875,3.59375 C 7.753906,-0.25 6.800781,0.171875 5.59375,0.171875 Z M 5.578125,-0.59375 c 0.957031,0 1.695313,-0.351562 2.21875,-1.0625 0.53125,-0.71875 0.796875,-1.71875 0.796875,-3 0,-2.757812 -0.996094,-4.140625 -2.984375,-4.140625 -1.09375,0 -1.902344,0.304687 -2.421875,0.90625 -0.511719,0.605469 -0.765625,1.585937 -0.765625,2.9375 v 0.28125 c 0,1.46875 0.242187,2.515625 0.734375,3.140625 0.5,0.625 1.304688,0.9375 2.421875,0.9375 z m 0,0"
             id="path1397" />
        </g>
      </g>
    </g>
    <g
       fill="#000000"
       fill-opacity="1"
       id="g1411"
       transform="translate(5.3700356,-186.57785)">
      <g
         transform="translate(217.66131,463.19542)"
         id="g1409">
        <g
           id="g1407">
          <path
             d="m 2.421875,0 h -0.84375 v -13.4375 h 0.84375 z m 0,0"
             id="path1405" />
        </g>
      </g>
    </g>
    <g
       fill="#000000"
       fill-opacity="1"
       id="g1419"
       transform="translate(5.3700356,-186.57785)">
      <g
         transform="translate(221.66037,463.19542)"
         id="g1417">
        <g
           id="g1415">
          <path
             d="m 2.421875,0 h -0.84375 v -9.390625 h 0.84375 z m -0.96875,-12 c 0,-0.550781 0.179687,-0.828125 0.546875,-0.828125 0.175781,0 0.3125,0.07422 0.40625,0.21875 0.101562,0.148437 0.15625,0.351563 0.15625,0.609375 0,0.261719 -0.054688,0.46875 -0.15625,0.625 C 2.3125,-11.226562 2.175781,-11.15625 2,-11.15625 1.632812,-11.15625 1.453125,-11.4375 1.453125,-12 Z m 0,0"
             id="path1413" />
        </g>
      </g>
    </g>
    <g
       fill="#000000"
       fill-opacity="1"
       id="g1427"
       transform="translate(5.3700356,-186.57785)">
      <g
         transform="translate(225.65942,463.19542)"
         id="g1425">
        <g
           id="g1423">
          <path
             d="M 5.3125,0.171875 C 3.976562,0.171875 2.929688,-0.25 2.171875,-1.09375 1.410156,-1.9375 1.03125,-3.117188 1.03125,-4.640625 c 0,-1.550781 0.390625,-2.757813 1.171875,-3.625 0.789063,-0.863281 1.875,-1.296875 3.25,-1.296875 0.8125,0 1.585937,0.140625 2.328125,0.421875 l -0.234375,0.75 c -0.8125,-0.269531 -1.515625,-0.40625 -2.109375,-0.40625 -1.15625,0 -2.03125,0.359375 -2.625,1.078125 -0.59375,0.710938 -0.890625,1.730469 -0.890625,3.0625 0,1.273438 0.296875,2.265625 0.890625,2.984375 0.59375,0.710937 1.421875,1.0625 2.484375,1.0625 0.851563,0 1.644531,-0.148437 2.375,-0.453125 v 0.796875 c -0.59375,0.2890625 -1.382813,0.4375 -2.359375,0.4375 z m 0,0"
             id="path1421" />
        </g>
      </g>
    </g>
    <g
       fill="#000000"
       fill-opacity="1"
       id="g1435"
       transform="translate(5.3700356,-186.57785)">
      <g
         transform="translate(234.06347,463.19542)"
         id="g1433">
        <g
           id="g1431">
          <path
             d="M 7.265625,0 7.0625,-1.484375 H 6.984375 c -0.46875,0.605469 -0.953125,1.03125 -1.453125,1.28125 -0.5,0.25 -1.089844,0.375 -1.765625,0.375 -0.917969,0 -1.636719,-0.234375 -2.15625,-0.703125 C 1.097656,-1.007812 0.84375,-1.664062 0.84375,-2.5 c 0,-0.914062 0.378906,-1.625 1.140625,-2.125 0.769531,-0.507812 1.875,-0.78125 3.3125,-0.8125 L 7.09375,-5.484375 v -0.625 c 0,-0.882813 -0.183594,-1.554687 -0.546875,-2.015625 -0.367187,-0.457031 -0.949219,-0.6875 -1.75,-0.6875 -0.875,0 -1.777344,0.246094 -2.703125,0.734375 l -0.328125,-0.75 c 1.03125,-0.476563 2.050781,-0.71875 3.0625,-0.71875 1.03125,0 1.800781,0.265625 2.3125,0.796875 0.507813,0.53125 0.765625,1.367188 0.765625,2.5 V 0 Z M 3.8125,-0.609375 c 1,0 1.789062,-0.285156 2.375,-0.859375 0.582031,-0.570312 0.875,-1.367188 0.875,-2.390625 V -4.78125 l -1.640625,0.078125 c -1.324219,0.0625 -2.265625,0.273437 -2.828125,0.625 C 2.03125,-3.734375 1.75,-3.195312 1.75,-2.46875 c 0,0.59375 0.175781,1.054688 0.53125,1.375 0.363281,0.324219 0.875,0.484375 1.53125,0.484375 z m 0,0"
             id="path1429" />
        </g>
      </g>
    </g>
    <g
       fill="#000000"
       fill-opacity="1"
       id="g1443"
       transform="translate(5.3700356,-186.57785)">
      <g
         transform="translate(243.4349,463.19542)"
         id="g1441">
        <g
           id="g1439">
          <path
             d="m 4.046875,-0.59375 c 0.539063,0 1.015625,-0.039062 1.421875,-0.125 v 0.6875 c -0.417969,0.132812 -0.898438,0.203125 -1.4375,0.203125 -0.824219,0 -1.433594,-0.21875 -1.828125,-0.65625 -0.398437,-0.445313 -0.59375,-1.144531 -0.59375,-2.09375 v -6.0625 H 0.21875 v -0.5 l 1.390625,-0.390625 0.421875,-2.125 h 0.453125 v 2.265625 h 2.75 v 0.75 h -2.75 v 5.9375 c 0,0.71875 0.125,1.25 0.375,1.59375 0.25,0.34375 0.644531,0.515625 1.1875,0.515625 z m 0,0"
             id="path1437" />
        </g>
      </g>
    </g>
    <g
       fill="#000000"
       fill-opacity="1"
       id="g1451"
       transform="translate(5.3700356,-186.57785)">
      <g
         transform="translate(249.36006,463.19542)"
         id="g1449">
        <g
           id="g1447">
          <path
             d="m 2.421875,0 h -0.84375 v -9.390625 h 0.84375 z m -0.96875,-12 c 0,-0.550781 0.179687,-0.828125 0.546875,-0.828125 0.175781,0 0.3125,0.07422 0.40625,0.21875 0.101562,0.148437 0.15625,0.351563 0.15625,0.609375 0,0.261719 -0.054688,0.46875 -0.15625,0.625 C 2.3125,-11.226562 2.175781,-11.15625 2,-11.15625 1.632812,-11.15625 1.453125,-11.4375 1.453125,-12 Z m 0,0"
             id="path1445" />
        </g>
      </g>
    </g>
    <g
       fill="#000000"
       fill-opacity="1"
       id="g1459"
       transform="translate(5.3700356,-186.57785)">
      <g
         transform="translate(253.35911,463.19542)"
         id="g1457">
        <g
           id="g1455">
          <path
             d="m 9.34375,-4.703125 c 0,1.53125 -0.375,2.730469 -1.125,3.59375 -0.742188,0.855469 -1.765625,1.28125 -3.078125,1.28125 -0.824219,0 -1.546875,-0.1953125 -2.171875,-0.59375 -0.625,-0.394531 -1.105469,-0.960937 -1.4375,-1.703125 -0.335938,-0.75 -0.5,-1.609375 -0.5,-2.578125 0,-1.53125 0.367188,-2.722656 1.109375,-3.578125 0.738281,-0.851562 1.757813,-1.28125 3.0625,-1.28125 1.289063,0 2.300781,0.433594 3.03125,1.296875 0.738281,0.867187 1.109375,2.054687 1.109375,3.5625 z m -7.421875,0 c 0,1.292969 0.28125,2.296875 0.84375,3.015625 0.570313,0.71875 1.378906,1.078125 2.421875,1.078125 1.03125,0 1.828125,-0.359375 2.390625,-1.078125 0.570313,-0.71875 0.859375,-1.722656 0.859375,-3.015625 0,-1.300781 -0.289062,-2.304687 -0.859375,-3.015625 -0.574219,-0.71875 -1.375,-1.078125 -2.40625,-1.078125 -1.042969,0 -1.84375,0.359375 -2.40625,1.078125 -0.5625,0.710938 -0.84375,1.714844 -0.84375,3.015625 z m 0,0"
             id="path1453" />
        </g>
      </g>
    </g>
    <g
       fill="#000000"
       fill-opacity="1"
       id="g1467"
       transform="translate(5.3700356,-186.57785)">
      <g
         transform="translate(263.72382,463.19542)"
         id="g1465">
        <g
           id="g1463">
          <path
             d="m 8.125,0 v -6.09375 c 0,-0.9375 -0.203125,-1.617188 -0.609375,-2.046875 -0.398437,-0.4375 -1.011719,-0.65625 -1.84375,-0.65625 -1.125,0 -1.949219,0.289063 -2.46875,0.859375 -0.523437,0.5625 -0.78125,1.480469 -0.78125,2.75 V 0 h -0.84375 v -9.390625 h 0.71875 L 2.46875,-8.09375 h 0.046875 c 0.601563,-0.976562 1.6875,-1.46875 3.25,-1.46875 2.132813,0 3.203125,1.140625 3.203125,3.421875 V 0 Z m 0,0"
             id="path1461" />
        </g>
      </g>
    </g>
    <g
       fill="#000000"
       fill-opacity="1"
       id="g1475"
       transform="translate(5.3700356,-186.57785)">
      <g
         transform="translate(274.15763,463.19542)"
         id="g1473">
        <g
           id="g1471">
          <path
             d="m 7.390625,-2.4375 c 0,0.835938 -0.324219,1.480469 -0.96875,1.9375 -0.636719,0.4492188 -1.539063,0.671875 -2.703125,0.671875 -1.261719,0 -2.261719,-0.1914062 -3,-0.578125 v -0.921875 c 0.945312,0.46875 1.945312,0.703125 3,0.703125 0.925781,0 1.628906,-0.148438 2.109375,-0.453125 0.476563,-0.3125 0.71875,-0.722656 0.71875,-1.234375 0,-0.46875 -0.195313,-0.863281 -0.578125,-1.1875 -0.386719,-0.320312 -1.015625,-0.640625 -1.890625,-0.953125 -0.9375,-0.34375 -1.601563,-0.632813 -1.984375,-0.875 -0.375,-0.25 -0.664062,-0.523437 -0.859375,-0.828125 -0.1875,-0.3125 -0.28125,-0.691406 -0.28125,-1.140625 0,-0.695313 0.296875,-1.25 0.890625,-1.65625 C 2.4375,-9.359375 3.257812,-9.5625 4.3125,-9.5625 c 1.019531,0 1.984375,0.1875 2.890625,0.5625 l -0.3125,0.78125 C 5.960938,-8.601562 5.101562,-8.796875 4.3125,-8.796875 c -0.761719,0 -1.367188,0.132813 -1.8125,0.390625 -0.449219,0.25 -0.671875,0.601562 -0.671875,1.046875 0,0.492187 0.171875,0.882813 0.515625,1.171875 0.351562,0.292969 1.035156,0.621094 2.046875,0.984375 0.84375,0.3125 1.457031,0.59375 1.84375,0.84375 0.382813,0.242187 0.671875,0.515625 0.859375,0.828125 0.195312,0.304688 0.296875,0.667969 0.296875,1.09375 z m 0,0"
             id="path1469" />
        </g>
      </g>
    </g>
    <g
       fill="#000000"
       fill-opacity="1"
       id="g1483"
       transform="translate(5.3700356,-186.57785)">
      <g
         transform="translate(329.7638,386.82076)"
         id="g1481">
        <g
           id="g1479">
          <path
             d="m 5.484375,-2.03125 c 0,0.65625 -0.246094,1.179688 -0.734375,1.5625 -0.480469,0.3867188 -1.125,0.578125 -1.9375,0.578125 -0.960938,0 -1.699219,-0.10546875 -2.21875,-0.3125 v -0.5625 c 0.570312,0.242187 1.300781,0.359375 2.1875,0.359375 0.644531,0 1.15625,-0.144531 1.53125,-0.4375 0.382812,-0.300781 0.578125,-0.691406 0.578125,-1.171875 0,-0.300781 -0.0625,-0.546875 -0.1875,-0.734375 -0.125,-0.195312 -0.335937,-0.375 -0.625,-0.53125 C 3.796875,-3.445312 3.378906,-3.625 2.828125,-3.8125 2.023438,-4.09375 1.46875,-4.394531 1.15625,-4.71875 0.851562,-5.039062 0.703125,-5.46875 0.703125,-6 c 0,-0.59375 0.226563,-1.078125 0.6875,-1.453125 0.457031,-0.375 1.050781,-0.5625 1.78125,-0.5625 0.738281,0 1.4375,0.140625 2.09375,0.421875 L 5.0625,-7.109375 C 4.40625,-7.390625 3.78125,-7.53125 3.1875,-7.53125 c -0.585938,0 -1.046875,0.136719 -1.390625,0.40625 -0.34375,0.273438 -0.515625,0.640625 -0.515625,1.109375 0,0.292969 0.050781,0.53125 0.15625,0.71875 0.101562,0.1875 0.273438,0.359375 0.515625,0.515625 0.238281,0.148438 0.65625,0.324219 1.25,0.53125 0.613281,0.210938 1.070313,0.414062 1.375,0.609375 0.3125,0.199219 0.539063,0.429687 0.6875,0.6875 0.144531,0.25 0.21875,0.558594 0.21875,0.921875 z m 0,0"
             id="path1477" />
        </g>
      </g>
    </g>
    <g
       fill="#000000"
       fill-opacity="1"
       id="g1491"
       transform="translate(5.3700356,-186.57785)">
      <g
         transform="translate(335.79498,386.82076)"
         id="g1489">
        <g
           id="g1487">
          <path
             d="m 5.84375,-2.9375 c 0,0.960938 -0.234375,1.710938 -0.703125,2.25 -0.460937,0.53125 -1.101563,0.796875 -1.921875,0.796875 -0.511719,0 -0.964844,-0.125 -1.359375,-0.375 -0.398437,-0.25 -0.699219,-0.601563 -0.90625,-1.0625 -0.210937,-0.46875 -0.3125,-1.003906 -0.3125,-1.609375 0,-0.957031 0.226563,-1.703125 0.6875,-2.234375 0.46875,-0.539063 1.109375,-0.8125 1.921875,-0.8125 0.8125,0 1.445312,0.273437 1.90625,0.8125 0.457031,0.542969 0.6875,1.289063 0.6875,2.234375 z m -4.640625,0 c 0,0.804688 0.175781,1.433594 0.53125,1.890625 0.351563,0.449219 0.851563,0.671875 1.5,0.671875 0.65625,0 1.160156,-0.222656 1.515625,-0.671875 C 5.101562,-1.503906 5.28125,-2.132812 5.28125,-2.9375 5.28125,-3.75 5.097656,-4.378906 4.734375,-4.828125 4.378906,-5.273438 3.878906,-5.5 3.234375,-5.5 c -0.648437,0 -1.148437,0.226562 -1.5,0.671875 -0.355469,0.4375 -0.53125,1.070313 -0.53125,1.890625 z m 0,0"
             id="path1485" />
        </g>
      </g>
    </g>
    <g
       fill="#000000"
       fill-opacity="1"
       id="g1499"
       transform="translate(5.3700356,-186.57785)">
      <g
         transform="translate(342.28011,386.82076)"
         id="g1497">
        <g
           id="g1495">
          <path
             d="m 3.46875,-5.984375 c 0.8125,0 1.425781,0.261719 1.84375,0.78125 0.414062,0.511719 0.625,1.265625 0.625,2.265625 0,0.96875 -0.21875,1.71875 -0.65625,2.25 -0.4375,0.53125 -1.054688,0.796875 -1.84375,0.796875 -0.417969,0 -0.792969,-0.0859375 -1.125,-0.25 -0.335938,-0.175781 -0.601562,-0.425781 -0.796875,-0.75 H 1.46875 L 1.3125,0 H 0.984375 v -8.40625 h 0.53125 v 2.109375 c 0,0.324219 -0.00781,0.617187 -0.015625,0.875 l -0.015625,0.46875 h 0.03125 c 0.226563,-0.351563 0.5,-0.613281 0.8125,-0.78125 0.3125,-0.164063 0.691406,-0.25 1.140625,-0.25 z M 3.453125,-5.5 c -0.6875,0 -1.183594,0.199219 -1.484375,0.59375 -0.304688,0.398438 -0.453125,1.054688 -0.453125,1.96875 v 0.078125 c 0,0.898437 0.15625,1.539063 0.46875,1.921875 0.3125,0.375 0.796875,0.5625 1.453125,0.5625 0.644531,0 1.128906,-0.222656 1.453125,-0.671875 C 5.210938,-1.492188 5.375,-2.128906 5.375,-2.953125 5.375,-4.648438 4.734375,-5.5 3.453125,-5.5 Z m 0,0"
             id="path1493" />
        </g>
      </g>
    </g>
    <g
       fill="#000000"
       fill-opacity="1"
       id="g1507"
       transform="translate(5.3700356,-186.57785)">
      <g
         transform="translate(348.86792,386.82076)"
         id="g1505">
        <g
           id="g1503">
          <path
             d="m 3.296875,-5.984375 c 0.25,0 0.515625,0.027344 0.796875,0.078125 l -0.109375,0.515625 c -0.242187,-0.0625 -0.492187,-0.09375 -0.75,-0.09375 -0.5,0 -0.914063,0.214844 -1.234375,0.640625 -0.324219,0.417969 -0.484375,0.953125 -0.484375,1.609375 V 0 H 0.984375 V -5.875 H 1.4375 l 0.046875,1.0625 H 1.53125 c 0.238281,-0.4375 0.492188,-0.738281 0.765625,-0.90625 0.28125,-0.175781 0.613281,-0.265625 1,-0.265625 z m 0,0"
             id="path1501" />
        </g>
      </g>
    </g>
    <g
       fill="#000000"
       fill-opacity="1"
       id="g1515"
       transform="translate(5.3700356,-186.57785)">
      <g
         transform="translate(353.17513,386.82076)"
         id="g1513">
        <g
           id="g1511">
          <path
             d="m 1.515625,0 h -0.53125 v -5.875 h 0.53125 z M 0.90625,-7.5 c 0,-0.34375 0.113281,-0.515625 0.34375,-0.515625 0.113281,0 0.203125,0.046875 0.265625,0.140625 0.0625,0.085938 0.09375,0.210938 0.09375,0.375 0,0.15625 -0.03125,0.28125 -0.09375,0.375 C 1.453125,-7.03125 1.363281,-6.984375 1.25,-6.984375 1.019531,-6.984375 0.90625,-7.15625 0.90625,-7.5 Z m 0,0"
             id="path1509" />
        </g>
      </g>
    </g>
    <g
       fill="#000000"
       fill-opacity="1"
       id="g1523"
       transform="translate(5.3700356,-186.57785)">
      <g
         transform="translate(355.67731,386.82076)"
         id="g1521">
        <g
           id="g1519">
          <path
             d="m 3.359375,0.109375 c -0.855469,0 -1.523437,-0.257813 -2,-0.78125 -0.480469,-0.53125 -0.71875,-1.269531 -0.71875,-2.21875 0,-0.9375 0.226563,-1.6875 0.6875,-2.25 0.46875,-0.5625 1.09375,-0.84375 1.875,-0.84375 0.6875,0 1.226563,0.246094 1.625,0.734375 0.40625,0.480469 0.609375,1.132812 0.609375,1.953125 v 0.4375 H 1.203125 c 0.00781,0.804687 0.195313,1.417969 0.5625,1.84375 0.375,0.429687 0.90625,0.640625 1.59375,0.640625 0.332031,0 0.625,-0.019531 0.875,-0.0625 0.257813,-0.050781 0.582031,-0.15625 0.96875,-0.3125 v 0.484375 C 4.867188,-0.117188 4.5625,-0.0195312 4.28125,0.03125 4,0.0820312 3.691406,0.109375 3.359375,0.109375 Z m -0.15625,-5.625 c -0.574219,0 -1.03125,0.1875 -1.375,0.5625 -0.335937,0.375 -0.53125,0.914063 -0.59375,1.609375 h 3.625 c 0,-0.675781 -0.148437,-1.207031 -0.4375,-1.59375 C 4.128906,-5.320312 3.722656,-5.515625 3.203125,-5.515625 Z M 2.4375,-6.796875 c 0.257812,-0.28125 0.519531,-0.585937 0.78125,-0.921875 0.257812,-0.332031 0.4375,-0.582031 0.53125,-0.75 H 4.5 v 0.078125 c -0.125,0.1875 -0.34375,0.4375 -0.65625,0.75 -0.3125,0.3125 -0.65625,0.625 -1.03125,0.9375 h -0.375 z m 0,0"
             id="path1517" />
        </g>
      </g>
    </g>
    <g
       fill="#000000"
       fill-opacity="1"
       id="g1531"
       transform="translate(5.3700356,-186.57785)">
      <g
         transform="translate(361.75172,386.82076)"
         id="g1529">
        <g
           id="g1527">
          <path
             d="m 2.53125,-0.375 c 0.34375,0 0.640625,-0.023438 0.890625,-0.078125 v 0.4375 c -0.261719,0.0820312 -0.5625,0.125 -0.90625,0.125 C 2.003906,0.109375 1.625,-0.0234375 1.375,-0.296875 1.125,-0.578125 1,-1.015625 1,-1.609375 V -5.40625 H 0.140625 v -0.3125 L 1,-5.96875 1.28125,-7.296875 H 1.546875 V -5.875 h 1.71875 v 0.46875 h -1.71875 v 3.71875 c 0,0.449219 0.078125,0.78125 0.234375,1 0.164062,0.210938 0.414062,0.3125 0.75,0.3125 z m 0,0"
             id="path1525" />
        </g>
      </g>
    </g>
    <g
       fill="#000000"
       fill-opacity="1"
       id="g1539"
       transform="translate(5.3700356,-186.57785)">
      <g
         transform="translate(365.45905,386.82076)"
         id="g1537">
        <g
           id="g1535">
          <path
             d="m 3.359375,0.109375 c -0.855469,0 -1.523437,-0.257813 -2,-0.78125 -0.480469,-0.53125 -0.71875,-1.269531 -0.71875,-2.21875 0,-0.9375 0.226563,-1.6875 0.6875,-2.25 0.46875,-0.5625 1.09375,-0.84375 1.875,-0.84375 0.6875,0 1.226563,0.246094 1.625,0.734375 0.40625,0.480469 0.609375,1.132812 0.609375,1.953125 v 0.4375 H 1.203125 c 0.00781,0.804687 0.195313,1.417969 0.5625,1.84375 0.375,0.429687 0.90625,0.640625 1.59375,0.640625 0.332031,0 0.625,-0.019531 0.875,-0.0625 0.257813,-0.050781 0.582031,-0.15625 0.96875,-0.3125 v 0.484375 C 4.867188,-0.117188 4.5625,-0.0195312 4.28125,0.03125 4,0.0820312 3.691406,0.109375 3.359375,0.109375 Z m -0.15625,-5.625 c -0.574219,0 -1.03125,0.1875 -1.375,0.5625 -0.335937,0.375 -0.53125,0.914063 -0.59375,1.609375 h 3.625 c 0,-0.675781 -0.148437,-1.207031 -0.4375,-1.59375 C 4.128906,-5.320312 3.722656,-5.515625 3.203125,-5.515625 Z M 2.4375,-6.796875 c 0.257812,-0.28125 0.519531,-0.585937 0.78125,-0.921875 0.257812,-0.332031 0.4375,-0.582031 0.53125,-0.75 H 4.5 v 0.078125 c -0.125,0.1875 -0.34375,0.4375 -0.65625,0.75 -0.3125,0.3125 -0.65625,0.625 -1.03125,0.9375 h -0.375 z m 0,0"
             id="path1533" />
        </g>
      </g>
    </g>
    <g
       fill="#000000"
       fill-opacity="1"
       id="g1547"
       transform="translate(5.3700356,-186.57785)">
      <g
         transform="translate(323.31402,402.27878)"
         id="g1545">
        <g
           id="g1543">
          <path
             d="m 5.078125,0 v -3.8125 c 0,-0.582031 -0.125,-1.007812 -0.375,-1.28125 C 4.453125,-5.363281 4.066406,-5.5 3.546875,-5.5 2.847656,-5.5 2.332031,-5.320312 2,-4.96875 1.675781,-4.613281 1.515625,-4.035156 1.515625,-3.234375 V 0 H 0.984375 V -5.875 H 1.4375 l 0.109375,0.8125 h 0.03125 c 0.375,-0.613281 1.050781,-0.921875 2.03125,-0.921875 1.332031,0 2,0.714844 2,2.140625 V 0 Z m 0,0"
             id="path1541" />
        </g>
      </g>
    </g>
    <g
       fill="#000000"
       fill-opacity="1"
       id="g1555"
       transform="translate(5.3700356,-186.57785)">
      <g
         transform="translate(329.84238,402.27878)"
         id="g1553">
        <g
           id="g1551">
          <path
             d="m 1.453125,-5.875 v 3.8125 c 0,0.585938 0.117187,1.011719 0.359375,1.28125 0.25,0.273438 0.632812,0.40625 1.15625,0.40625 0.707031,0 1.222656,-0.175781 1.546875,-0.53125 0.332031,-0.351562 0.5,-0.925781 0.5,-1.71875 v -3.25 h 0.53125 V 0 H 5.09375 L 4.984375,-0.8125 h -0.03125 c -0.375,0.617188 -1.054687,0.921875 -2.03125,0.921875 -1.335937,0 -2,-0.710937 -2,-2.140625 V -5.875 Z m 0,0"
             id="path1549" />
        </g>
      </g>
    </g>
    <g
       fill="#000000"
       fill-opacity="1"
       id="g1563"
       transform="translate(5.3700356,-186.57785)">
      <g
         transform="translate(336.37075,402.27878)"
         id="g1561">
        <g
           id="g1559">
          <path
             d="m 8.3125,0 v -3.84375 c 0,-0.570312 -0.109375,-0.988281 -0.328125,-1.25 C 7.765625,-5.363281 7.421875,-5.5 6.953125,-5.5 6.359375,-5.5 5.914062,-5.332031 5.625,-5 5.332031,-4.664062 5.1875,-4.144531 5.1875,-3.4375 V 0 H 4.640625 V -4.015625 C 4.640625,-5.003906 4.1875,-5.5 3.28125,-5.5 c -0.617188,0 -1.0625,0.183594 -1.34375,0.546875 -0.28125,0.355469 -0.421875,0.929687 -0.421875,1.71875 V 0 h -0.53125 v -5.875 h 0.4375 l 0.125,0.8125 h 0.03125 c 0.15625,-0.289062 0.382813,-0.515625 0.6875,-0.671875 0.300781,-0.164063 0.628906,-0.25 0.984375,-0.25 0.925781,0 1.519531,0.351563 1.78125,1.046875 H 5.0625 c 0.1875,-0.332031 0.441406,-0.585938 0.765625,-0.765625 0.320313,-0.1875 0.6875,-0.28125 1.09375,-0.28125 0.644531,0 1.125,0.171875 1.4375,0.515625 0.320313,0.34375 0.484375,0.886719 0.484375,1.625 V 0 Z m 0,0"
             id="path1557" />
        </g>
      </g>
    </g>
    <g
       fill="#000000"
       fill-opacity="1"
       id="g1571"
       transform="translate(5.3700356,-186.57785)">
      <g
         transform="translate(346.14168,402.27878)"
         id="g1569">
        <g
           id="g1567">
          <path
             d="m 3.359375,0.109375 c -0.855469,0 -1.523437,-0.257813 -2,-0.78125 -0.480469,-0.53125 -0.71875,-1.269531 -0.71875,-2.21875 0,-0.9375 0.226563,-1.6875 0.6875,-2.25 0.46875,-0.5625 1.09375,-0.84375 1.875,-0.84375 0.6875,0 1.226563,0.246094 1.625,0.734375 0.40625,0.480469 0.609375,1.132812 0.609375,1.953125 v 0.4375 H 1.203125 c 0.00781,0.804687 0.195313,1.417969 0.5625,1.84375 0.375,0.429687 0.90625,0.640625 1.59375,0.640625 0.332031,0 0.625,-0.019531 0.875,-0.0625 0.257813,-0.050781 0.582031,-0.15625 0.96875,-0.3125 v 0.484375 C 4.867188,-0.117188 4.5625,-0.0195312 4.28125,0.03125 4,0.0820312 3.691406,0.109375 3.359375,0.109375 Z m -0.15625,-5.625 c -0.574219,0 -1.03125,0.1875 -1.375,0.5625 -0.335937,0.375 -0.53125,0.914063 -0.59375,1.609375 h 3.625 c 0,-0.675781 -0.148437,-1.207031 -0.4375,-1.59375 C 4.128906,-5.320312 3.722656,-5.515625 3.203125,-5.515625 Z M 2.4375,-6.796875 c 0.257812,-0.28125 0.519531,-0.585937 0.78125,-0.921875 0.257812,-0.332031 0.4375,-0.582031 0.53125,-0.75 H 4.5 v 0.078125 c -0.125,0.1875 -0.34375,0.4375 -0.65625,0.75 -0.3125,0.3125 -0.65625,0.625 -1.03125,0.9375 h -0.375 z m 0,0"
             id="path1565" />
        </g>
      </g>
    </g>
    <g
       fill="#000000"
       fill-opacity="1"
       id="g1579"
       transform="translate(5.3700356,-186.57785)">
      <g
         transform="translate(352.21609,402.27878)"
         id="g1577">
        <g
           id="g1575">
          <path
             d="m 3.296875,-5.984375 c 0.25,0 0.515625,0.027344 0.796875,0.078125 l -0.109375,0.515625 c -0.242187,-0.0625 -0.492187,-0.09375 -0.75,-0.09375 -0.5,0 -0.914063,0.214844 -1.234375,0.640625 -0.324219,0.417969 -0.484375,0.953125 -0.484375,1.609375 V 0 H 0.984375 V -5.875 H 1.4375 l 0.046875,1.0625 H 1.53125 c 0.238281,-0.4375 0.492188,-0.738281 0.765625,-0.90625 0.28125,-0.175781 0.613281,-0.265625 1,-0.265625 z m 0,0"
             id="path1573" />
        </g>
      </g>
    </g>
    <g
       fill="#000000"
       fill-opacity="1"
       id="g1587"
       transform="translate(5.3700356,-186.57785)">
      <g
         transform="translate(356.5233,402.27878)"
         id="g1585">
        <g
           id="g1583">
          <path
             d="m 1.515625,0 h -0.53125 v -5.875 h 0.53125 z M 0.90625,-7.5 c 0,-0.34375 0.113281,-0.515625 0.34375,-0.515625 0.113281,0 0.203125,0.046875 0.265625,0.140625 0.0625,0.085938 0.09375,0.210938 0.09375,0.375 0,0.15625 -0.03125,0.28125 -0.09375,0.375 C 1.453125,-7.03125 1.363281,-6.984375 1.25,-6.984375 1.019531,-6.984375 0.90625,-7.15625 0.90625,-7.5 Z m 0,0"
             id="path1581" />
        </g>
      </g>
    </g>
    <g
       fill="#000000"
       fill-opacity="1"
       id="g1595"
       transform="translate(5.3700356,-186.57785)">
      <g
         transform="translate(359.02548,402.27878)"
         id="g1593">
        <g
           id="g1591">
          <path
             d="m 3.078125,0.109375 c -0.773437,0 -1.371094,-0.253906 -1.796875,-0.765625 -0.429688,-0.507812 -0.640625,-1.25 -0.640625,-2.21875 0,-0.988281 0.210937,-1.753906 0.640625,-2.296875 0.425781,-0.539063 1.035156,-0.8125 1.828125,-0.8125 0.84375,0 1.476563,0.3125 1.90625,0.9375 h 0.03125 L 5.140625,-5.875 H 5.59375 V 2.65625 H 5.0625 V 0.421875 c 0,-0.4375 0.00781,-0.882813 0.03125,-1.34375 H 5.0625 c -0.429688,0.6875 -1.089844,1.03125 -1.984375,1.03125 z m 0,-0.484375 c 0.71875,0 1.226563,-0.191406 1.53125,-0.578125 C 4.910156,-1.347656 5.0625,-2.007812 5.0625,-2.9375 V -3 c 0,-0.882812 -0.152344,-1.519531 -0.453125,-1.90625 C 4.304688,-5.300781 3.816406,-5.5 3.140625,-5.5 c -0.636719,0 -1.121094,0.226562 -1.453125,0.671875 -0.324219,0.449219 -0.484375,1.105469 -0.484375,1.96875 0,0.824219 0.160156,1.445313 0.484375,1.859375 0.320312,0.417969 0.785156,0.625 1.390625,0.625 z m 0,0"
             id="path1589" />
        </g>
      </g>
    </g>
    <g
       fill="#000000"
       fill-opacity="1"
       id="g1603"
       transform="translate(5.3700356,-186.57785)">
      <g
         transform="translate(365.61329,402.27878)"
         id="g1601">
        <g
           id="g1599">
          <path
             d="m 1.453125,-5.875 v 3.8125 c 0,0.585938 0.117187,1.011719 0.359375,1.28125 0.25,0.273438 0.632812,0.40625 1.15625,0.40625 0.707031,0 1.222656,-0.175781 1.546875,-0.53125 0.332031,-0.351562 0.5,-0.925781 0.5,-1.71875 v -3.25 h 0.53125 V 0 H 5.09375 L 4.984375,-0.8125 h -0.03125 c -0.375,0.617188 -1.054687,0.921875 -2.03125,0.921875 -1.335937,0 -2,-0.710937 -2,-2.140625 V -5.875 Z m 0,0"
             id="path1597" />
        </g>
      </g>
    </g>
    <g
       fill="#000000"
       fill-opacity="1"
       id="g1611"
       transform="translate(5.3700356,-186.57785)">
      <g
         transform="translate(372.14166,402.27878)"
         id="g1609">
        <g
           id="g1607">
          <path
             d="m 3.359375,0.109375 c -0.855469,0 -1.523437,-0.257813 -2,-0.78125 -0.480469,-0.53125 -0.71875,-1.269531 -0.71875,-2.21875 0,-0.9375 0.226563,-1.6875 0.6875,-2.25 0.46875,-0.5625 1.09375,-0.84375 1.875,-0.84375 0.6875,0 1.226563,0.246094 1.625,0.734375 0.40625,0.480469 0.609375,1.132812 0.609375,1.953125 v 0.4375 H 1.203125 c 0.00781,0.804687 0.195313,1.417969 0.5625,1.84375 0.375,0.429687 0.90625,0.640625 1.59375,0.640625 0.332031,0 0.625,-0.019531 0.875,-0.0625 0.257813,-0.050781 0.582031,-0.15625 0.96875,-0.3125 v 0.484375 C 4.867188,-0.117188 4.5625,-0.0195312 4.28125,0.03125 4,0.0820312 3.691406,0.109375 3.359375,0.109375 Z m -0.15625,-5.625 c -0.574219,0 -1.03125,0.1875 -1.375,0.5625 -0.335937,0.375 -0.53125,0.914063 -0.59375,1.609375 h 3.625 c 0,-0.675781 -0.148437,-1.207031 -0.4375,-1.59375 -0.292969,-0.382812 -0.699219,-0.578125 -1.21875,-0.578125 z m 0,0"
             id="path1605" />
        </g>
      </g>
    </g>
  </g>
</svg>
