<svg xmlns="http://www.w3.org/2000/svg" xmlns:xlink="http://www.w3.org/1999/xlink" width="800" zoomAndPan="magnify" viewBox="0 0 600 449.999984" height="600" preserveAspectRatio="xMidYMid meet" version="1.0"><defs><g/><clipPath id="06f424fca5"><path d="M 81.792969 37.476562 L 518.292969 37.476562 L 518.292969 412.476562 L 81.792969 412.476562 Z M 81.792969 37.476562 " clip-rule="nonzero"/></clipPath><clipPath id="d6ea5e7f01"><path d="M 518.292969 224.976562 L 409.167969 412.476562 L 190.917969 412.476562 L 81.792969 224.976562 L 190.917969 37.476562 L 409.167969 37.476562 L 518.292969 224.976562 " clip-rule="nonzero"/></clipPath><clipPath id="4a6e133603"><path d="M 142.378906 174.464844 L 283.375 174.464844 L 283.375 295.964844 L 142.378906 295.964844 Z M 142.378906 174.464844 " clip-rule="nonzero"/></clipPath><clipPath id="4f66596adc"><path d="M 283.375 235.214844 L 248.125 295.964844 L 177.628906 295.964844 L 142.378906 235.214844 L 177.628906 174.464844 L 248.125 174.464844 L 283.375 235.214844 " clip-rule="nonzero"/></clipPath><clipPath id="6bb1500fbb"><path d="M 330.933594 174.464844 L 471.933594 174.464844 L 471.933594 295.964844 L 330.933594 295.964844 Z M 330.933594 174.464844 " clip-rule="nonzero"/></clipPath><clipPath id="02d41fb2d3"><path d="M 471.933594 235.214844 L 436.683594 295.964844 L 366.183594 295.964844 L 330.933594 235.214844 L 366.183594 174.464844 L 436.683594 174.464844 L 471.933594 235.214844 " clip-rule="nonzero"/></clipPath></defs><g clip-path="url(#06f424fca5)"><g clip-path="url(#d6ea5e7f01)"><path stroke-linecap="butt" transform="matrix(0.750161, 0, 0, 0.74993, 81.793231, 37.477823)" fill="none" stroke-linejoin="miter" d="M 581.874681 250.021781 L 436.405924 500.045243 L 145.468408 500.045243 L -0.000349453 250.021781 L 145.468408 -0.00168083 L 436.405924 -0.00168083 L 581.874681 250.021781 " stroke="#000000" stroke-width="4" stroke-opacity="1" stroke-miterlimit="4"/></g></g><g clip-path="url(#4a6e133603)"><g clip-path="url(#4f66596adc)"><path stroke-linecap="butt" transform="matrix(0.750062, 0, 0, 0.752104, 142.377847, 174.463198)" fill="none" stroke-linejoin="miter" d="M 187.980603 80.775635 L 140.984503 161.549083 L 46.997512 161.549083 L 0.00141225 80.775635 L 46.997512 0.00218765 L 140.984503 0.00218765 L 187.980603 80.775635 " stroke="#000000" stroke-width="4" stroke-opacity="1" stroke-miterlimit="4"/></g></g><g clip-path="url(#6bb1500fbb)"><g clip-path="url(#02d41fb2d3)"><path stroke-linecap="butt" transform="matrix(0.750062, 0, 0, 0.752104, 330.934526, 174.463198)" fill="none" stroke-linejoin="miter" d="M 187.983156 80.775635 L 140.987056 161.549083 L 46.994857 161.549083 L -0.00124275 80.775635 L 46.994857 0.00218765 L 140.987056 0.00218765 L 187.983156 80.775635 " stroke="#000000" stroke-width="4" stroke-opacity="1" stroke-miterlimit="4"/></g></g><g fill="#000000" fill-opacity="1"><g transform="translate(264.150532, 373.862373)"><g><path d="M 13.296875 -5.15625 C 13.296875 -3.476562 12.691406 -2.15625 11.484375 -1.1875 C 10.273438 -0.226562 8.597656 0.25 6.453125 0.25 C 4.472656 0.25 2.71875 -0.117188 1.1875 -0.859375 L 1.1875 -4.515625 C 2.445312 -3.960938 3.507812 -3.570312 4.375 -3.34375 C 5.238281 -3.113281 6.03125 -3 6.75 -3 C 7.613281 -3 8.273438 -3.160156 8.734375 -3.484375 C 9.203125 -3.816406 9.4375 -4.3125 9.4375 -4.96875 C 9.4375 -5.332031 9.332031 -5.65625 9.125 -5.9375 C 8.925781 -6.21875 8.628906 -6.488281 8.234375 -6.75 C 7.835938 -7.007812 7.035156 -7.429688 5.828125 -8.015625 C 4.691406 -8.546875 3.835938 -9.054688 3.265625 -9.546875 C 2.703125 -10.035156 2.25 -10.601562 1.90625 -11.25 C 1.570312 -11.90625 1.40625 -12.671875 1.40625 -13.546875 C 1.40625 -15.191406 1.960938 -16.484375 3.078125 -17.421875 C 4.191406 -18.359375 5.726562 -18.828125 7.6875 -18.828125 C 8.65625 -18.828125 9.578125 -18.710938 10.453125 -18.484375 C 11.328125 -18.253906 12.242188 -17.929688 13.203125 -17.515625 L 11.9375 -14.453125 C 10.945312 -14.859375 10.125 -15.140625 9.46875 -15.296875 C 8.820312 -15.460938 8.1875 -15.546875 7.5625 -15.546875 C 6.820312 -15.546875 6.25 -15.375 5.84375 -15.03125 C 5.445312 -14.6875 5.25 -14.234375 5.25 -13.671875 C 5.25 -13.328125 5.328125 -13.023438 5.484375 -12.765625 C 5.648438 -12.503906 5.910156 -12.253906 6.265625 -12.015625 C 6.617188 -11.773438 7.453125 -11.34375 8.765625 -10.71875 C 10.492188 -9.882812 11.679688 -9.050781 12.328125 -8.21875 C 12.972656 -7.382812 13.296875 -6.363281 13.296875 -5.15625 Z M 13.296875 -5.15625 "/></g></g></g><g fill="#000000" fill-opacity="1"><g transform="translate(278.46654, 373.862373)"><g><path d="M 5.109375 -7.125 C 5.109375 -5.71875 5.335938 -4.65625 5.796875 -3.9375 C 6.265625 -3.21875 7.019531 -2.859375 8.0625 -2.859375 C 9.09375 -2.859375 9.832031 -3.210938 10.28125 -3.921875 C 10.738281 -4.640625 10.96875 -5.707031 10.96875 -7.125 C 10.96875 -8.53125 10.738281 -9.582031 10.28125 -10.28125 C 9.820312 -10.988281 9.070312 -11.34375 8.03125 -11.34375 C 7 -11.34375 6.253906 -10.992188 5.796875 -10.296875 C 5.335938 -9.597656 5.109375 -8.539062 5.109375 -7.125 Z M 14.9375 -7.125 C 14.9375 -4.8125 14.328125 -3.003906 13.109375 -1.703125 C 11.890625 -0.398438 10.191406 0.25 8.015625 0.25 C 6.648438 0.25 5.445312 -0.046875 4.40625 -0.640625 C 3.363281 -1.234375 2.5625 -2.085938 2 -3.203125 C 1.445312 -4.328125 1.171875 -5.632812 1.171875 -7.125 C 1.171875 -9.4375 1.773438 -11.234375 2.984375 -12.515625 C 4.191406 -13.804688 5.894531 -14.453125 8.09375 -14.453125 C 9.445312 -14.453125 10.644531 -14.15625 11.6875 -13.5625 C 12.726562 -12.976562 13.53125 -12.128906 14.09375 -11.015625 C 14.65625 -9.910156 14.9375 -8.613281 14.9375 -7.125 Z M 14.9375 -7.125 "/></g></g></g><g fill="#000000" fill-opacity="1"><g transform="translate(294.559358, 373.862373)"><g><path d="M 7.796875 0.25 C 3.378906 0.25 1.171875 -2.171875 1.171875 -7.015625 C 1.171875 -9.429688 1.769531 -11.273438 2.96875 -12.546875 C 4.175781 -13.816406 5.898438 -14.453125 8.140625 -14.453125 C 9.773438 -14.453125 11.25 -14.132812 12.5625 -13.5 L 11.40625 -10.5 C 10.800781 -10.75 10.234375 -10.953125 9.703125 -11.109375 C 9.179688 -11.265625 8.660156 -11.34375 8.140625 -11.34375 C 6.117188 -11.34375 5.109375 -9.910156 5.109375 -7.046875 C 5.109375 -4.265625 6.117188 -2.875 8.140625 -2.875 C 8.878906 -2.875 9.566406 -2.972656 10.203125 -3.171875 C 10.835938 -3.378906 11.472656 -3.691406 12.109375 -4.109375 L 12.109375 -0.796875 C 11.484375 -0.398438 10.847656 -0.128906 10.203125 0.015625 C 9.566406 0.171875 8.765625 0.25 7.796875 0.25 Z M 7.796875 0.25 "/></g></g></g><g fill="#000000" fill-opacity="1"><g transform="translate(307.923504, 373.862373)"><g><path d="M 1.859375 -17.859375 C 1.859375 -19.117188 2.5625 -19.75 3.96875 -19.75 C 5.375 -19.75 6.078125 -19.117188 6.078125 -17.859375 C 6.078125 -17.265625 5.898438 -16.796875 5.546875 -16.453125 C 5.203125 -16.117188 4.675781 -15.953125 3.96875 -15.953125 C 2.5625 -15.953125 1.859375 -16.585938 1.859375 -17.859375 Z M 5.90625 0 L 2.03125 0 L 2.03125 -14.1875 L 5.90625 -14.1875 Z M 5.90625 0 "/></g></g></g><g fill="#000000" fill-opacity="1"><g transform="translate(315.85569, 373.862373)"><g><path d="M 7.90625 -11.703125 C 7.082031 -11.703125 6.4375 -11.441406 5.96875 -10.921875 C 5.507812 -10.398438 5.25 -9.660156 5.1875 -8.703125 L 10.609375 -8.703125 C 10.597656 -9.660156 10.347656 -10.398438 9.859375 -10.921875 C 9.378906 -11.441406 8.726562 -11.703125 7.90625 -11.703125 Z M 8.453125 0.25 C 6.171875 0.25 4.382812 -0.378906 3.09375 -1.640625 C 1.8125 -2.898438 1.171875 -4.6875 1.171875 -7 C 1.171875 -9.375 1.765625 -11.207031 2.953125 -12.5 C 4.140625 -13.800781 5.785156 -14.453125 7.890625 -14.453125 C 9.890625 -14.453125 11.445312 -13.878906 12.5625 -12.734375 C 13.6875 -11.597656 14.25 -10.023438 14.25 -8.015625 L 14.25 -6.125 L 5.09375 -6.125 C 5.132812 -5.03125 5.457031 -4.171875 6.0625 -3.546875 C 6.675781 -2.929688 7.535156 -2.625 8.640625 -2.625 C 9.492188 -2.625 10.300781 -2.710938 11.0625 -2.890625 C 11.820312 -3.066406 12.613281 -3.351562 13.4375 -3.75 L 13.4375 -0.75 C 12.757812 -0.40625 12.035156 -0.15625 11.265625 0 C 10.503906 0.164062 9.566406 0.25 8.453125 0.25 Z M 5.671875 -15.75 L 5.671875 -16.09375 C 7.128906 -17.789062 8.125 -19.066406 8.65625 -19.921875 L 13 -19.921875 L 13 -19.65625 C 12.550781 -19.21875 11.796875 -18.5625 10.734375 -17.6875 C 9.671875 -16.820312 8.84375 -16.175781 8.25 -15.75 Z M 5.671875 -15.75 "/></g></g></g><g fill="#000000" fill-opacity="1"><g transform="translate(331.212401, 373.862373)"><g><path d="M 8.015625 -2.828125 C 8.691406 -2.828125 9.503906 -2.976562 10.453125 -3.28125 L 10.453125 -0.390625 C 9.484375 0.0351562 8.296875 0.25 6.890625 0.25 C 5.347656 0.25 4.222656 -0.140625 3.515625 -0.921875 C 2.804688 -1.703125 2.453125 -2.875 2.453125 -4.4375 L 2.453125 -11.28125 L 0.59375 -11.28125 L 0.59375 -12.921875 L 2.734375 -14.21875 L 3.84375 -17.21875 L 6.328125 -17.21875 L 6.328125 -14.1875 L 10.296875 -14.1875 L 10.296875 -11.28125 L 6.328125 -11.28125 L 6.328125 -4.4375 C 6.328125 -3.894531 6.476562 -3.488281 6.78125 -3.21875 C 7.09375 -2.957031 7.503906 -2.828125 8.015625 -2.828125 Z M 8.015625 -2.828125 "/></g></g></g><g fill="#000000" fill-opacity="1"><g transform="translate(342.495141, 373.862373)"><g><path d="M 7.90625 -11.703125 C 7.082031 -11.703125 6.4375 -11.441406 5.96875 -10.921875 C 5.507812 -10.398438 5.25 -9.660156 5.1875 -8.703125 L 10.609375 -8.703125 C 10.597656 -9.660156 10.347656 -10.398438 9.859375 -10.921875 C 9.378906 -11.441406 8.726562 -11.703125 7.90625 -11.703125 Z M 8.453125 0.25 C 6.171875 0.25 4.382812 -0.378906 3.09375 -1.640625 C 1.8125 -2.898438 1.171875 -4.6875 1.171875 -7 C 1.171875 -9.375 1.765625 -11.207031 2.953125 -12.5 C 4.140625 -13.800781 5.785156 -14.453125 7.890625 -14.453125 C 9.890625 -14.453125 11.445312 -13.878906 12.5625 -12.734375 C 13.6875 -11.597656 14.25 -10.023438 14.25 -8.015625 L 14.25 -6.125 L 5.09375 -6.125 C 5.132812 -5.03125 5.457031 -4.171875 6.0625 -3.546875 C 6.675781 -2.929688 7.535156 -2.625 8.640625 -2.625 C 9.492188 -2.625 10.300781 -2.710938 11.0625 -2.890625 C 11.820312 -3.066406 12.613281 -3.351562 13.4375 -3.75 L 13.4375 -0.75 C 12.757812 -0.40625 12.035156 -0.15625 11.265625 0 C 10.503906 0.164062 9.566406 0.25 8.453125 0.25 Z M 5.671875 -15.75 L 5.671875 -16.09375 C 7.128906 -17.789062 8.125 -19.066406 8.65625 -19.921875 L 13 -19.921875 L 13 -19.65625 C 12.550781 -19.21875 11.796875 -18.5625 10.734375 -17.6875 C 9.671875 -16.820312 8.84375 -16.175781 8.25 -15.75 Z M 5.671875 -15.75 "/></g></g></g><g fill="#000000" fill-opacity="1"><g transform="translate(155.472436, 244.663795)"><g><path d="M 10.453125 0 L 1.875 0 L 1.875 -14.890625 L 10.453125 -14.890625 L 10.453125 -12.296875 L 5.03125 -12.296875 L 5.03125 -9.03125 L 10.078125 -9.03125 L 10.078125 -6.453125 L 5.03125 -6.453125 L 5.03125 -2.609375 L 10.453125 -2.609375 Z M 4.3125 -16.078125 L 4.3125 -16.359375 C 5.488281 -17.710938 6.289062 -18.734375 6.71875 -19.421875 L 10.203125 -19.421875 L 10.203125 -19.203125 C 9.847656 -18.847656 9.242188 -18.320312 8.390625 -17.625 C 7.535156 -16.9375 6.867188 -16.421875 6.390625 -16.078125 Z M 4.3125 -16.078125 "/></g></g></g><g fill="#000000" fill-opacity="1"><g transform="translate(167.148349, 244.663795)"><g><path d="M 6.25 0.203125 C 2.707031 0.203125 0.9375 -1.738281 0.9375 -5.625 C 0.9375 -7.5625 1.414062 -9.039062 2.375 -10.0625 C 3.34375 -11.082031 4.726562 -11.59375 6.53125 -11.59375 C 7.84375 -11.59375 9.023438 -11.335938 10.078125 -10.828125 L 9.15625 -8.421875 C 8.664062 -8.617188 8.207031 -8.78125 7.78125 -8.90625 C 7.363281 -9.03125 6.945312 -9.09375 6.53125 -9.09375 C 4.914062 -9.09375 4.109375 -7.945312 4.109375 -5.65625 C 4.109375 -3.425781 4.914062 -2.3125 6.53125 -2.3125 C 7.125 -2.3125 7.675781 -2.390625 8.1875 -2.546875 C 8.695312 -2.710938 9.207031 -2.960938 9.71875 -3.296875 L 9.71875 -0.640625 C 9.21875 -0.316406 8.707031 -0.0976562 8.1875 0.015625 C 7.675781 0.140625 7.03125 0.203125 6.25 0.203125 Z M 6.25 0.203125 "/></g></g></g><g fill="#000000" fill-opacity="1"><g transform="translate(177.867389, 244.663795)"><g><path d="M 4.109375 -5.71875 C 4.109375 -4.582031 4.289062 -3.726562 4.65625 -3.15625 C 5.03125 -2.582031 5.632812 -2.296875 6.46875 -2.296875 C 7.289062 -2.296875 7.882812 -2.582031 8.25 -3.15625 C 8.613281 -3.726562 8.796875 -4.582031 8.796875 -5.71875 C 8.796875 -6.84375 8.613281 -7.6875 8.25 -8.25 C 7.882812 -8.8125 7.285156 -9.09375 6.453125 -9.09375 C 5.617188 -9.09375 5.019531 -8.8125 4.65625 -8.25 C 4.289062 -7.695312 4.109375 -6.851562 4.109375 -5.71875 Z M 11.984375 -5.71875 C 11.984375 -3.863281 11.492188 -2.410156 10.515625 -1.359375 C 9.535156 -0.316406 8.171875 0.203125 6.421875 0.203125 C 5.328125 0.203125 4.363281 -0.0351562 3.53125 -0.515625 C 2.695312 -0.992188 2.054688 -1.679688 1.609375 -2.578125 C 1.160156 -3.472656 0.9375 -4.519531 0.9375 -5.71875 C 0.9375 -7.570312 1.421875 -9.015625 2.390625 -10.046875 C 3.359375 -11.078125 4.722656 -11.59375 6.484375 -11.59375 C 7.578125 -11.59375 8.539062 -11.351562 9.375 -10.875 C 10.21875 -10.40625 10.863281 -9.722656 11.3125 -8.828125 C 11.757812 -7.941406 11.984375 -6.90625 11.984375 -5.71875 Z M 11.984375 -5.71875 "/></g></g></g><g fill="#000000" fill-opacity="1"><g transform="translate(190.775019, 244.663795)"><g><path d="M 4.734375 0 L 1.625 0 L 1.625 -15.84375 L 4.734375 -15.84375 Z M 4.734375 0 "/></g></g></g><g fill="#000000" fill-opacity="1"><g transform="translate(197.137224, 244.663795)"><g><path d="M 4.109375 -5.71875 C 4.109375 -4.582031 4.289062 -3.726562 4.65625 -3.15625 C 5.03125 -2.582031 5.632812 -2.296875 6.46875 -2.296875 C 7.289062 -2.296875 7.882812 -2.582031 8.25 -3.15625 C 8.613281 -3.726562 8.796875 -4.582031 8.796875 -5.71875 C 8.796875 -6.84375 8.613281 -7.6875 8.25 -8.25 C 7.882812 -8.8125 7.285156 -9.09375 6.453125 -9.09375 C 5.617188 -9.09375 5.019531 -8.8125 4.65625 -8.25 C 4.289062 -7.695312 4.109375 -6.851562 4.109375 -5.71875 Z M 11.984375 -5.71875 C 11.984375 -3.863281 11.492188 -2.410156 10.515625 -1.359375 C 9.535156 -0.316406 8.171875 0.203125 6.421875 0.203125 C 5.328125 0.203125 4.363281 -0.0351562 3.53125 -0.515625 C 2.695312 -0.992188 2.054688 -1.679688 1.609375 -2.578125 C 1.160156 -3.472656 0.9375 -4.519531 0.9375 -5.71875 C 0.9375 -7.570312 1.421875 -9.015625 2.390625 -10.046875 C 3.359375 -11.078125 4.722656 -11.59375 6.484375 -11.59375 C 7.578125 -11.59375 8.539062 -11.351562 9.375 -10.875 C 10.21875 -10.40625 10.863281 -9.722656 11.3125 -8.828125 C 11.757812 -7.941406 11.984375 -6.90625 11.984375 -5.71875 Z M 11.984375 -5.71875 "/></g></g></g><g fill="#000000" fill-opacity="1"><g transform="translate(210.044854, 244.663795)"><g><path d="M 11.546875 -11.390625 L 11.546875 -9.8125 L 9.75 -9.34375 C 10.082031 -8.84375 10.25 -8.273438 10.25 -7.640625 C 10.25 -6.421875 9.820312 -5.46875 8.96875 -4.78125 C 8.113281 -4.101562 6.929688 -3.765625 5.421875 -3.765625 L 4.859375 -3.78125 L 4.40625 -3.84375 C 4.082031 -3.59375 3.921875 -3.320312 3.921875 -3.03125 C 3.921875 -2.582031 4.488281 -2.359375 5.625 -2.359375 L 7.5625 -2.359375 C 8.8125 -2.359375 9.765625 -2.085938 10.421875 -1.546875 C 11.078125 -1.015625 11.40625 -0.226562 11.40625 0.8125 C 11.40625 2.144531 10.847656 3.175781 9.734375 3.90625 C 8.628906 4.644531 7.035156 5.015625 4.953125 5.015625 C 3.367188 5.015625 2.15625 4.734375 1.3125 4.171875 C 0.476562 3.617188 0.0625 2.847656 0.0625 1.859375 C 0.0625 1.171875 0.273438 0.59375 0.703125 0.125 C 1.128906 -0.332031 1.757812 -0.660156 2.59375 -0.859375 C 2.269531 -0.992188 1.988281 -1.210938 1.75 -1.515625 C 1.507812 -1.828125 1.390625 -2.15625 1.390625 -2.5 C 1.390625 -2.9375 1.515625 -3.296875 1.765625 -3.578125 C 2.023438 -3.867188 2.390625 -4.15625 2.859375 -4.4375 C 2.265625 -4.695312 1.789062 -5.109375 1.4375 -5.671875 C 1.09375 -6.242188 0.921875 -6.921875 0.921875 -7.703125 C 0.921875 -8.941406 1.320312 -9.898438 2.125 -10.578125 C 2.9375 -11.253906 4.09375 -11.59375 5.59375 -11.59375 C 5.914062 -11.59375 6.296875 -11.5625 6.734375 -11.5 C 7.171875 -11.445312 7.445312 -11.410156 7.5625 -11.390625 Z M 2.75 1.609375 C 2.75 2.035156 2.953125 2.367188 3.359375 2.609375 C 3.773438 2.859375 4.351562 2.984375 5.09375 2.984375 C 6.207031 2.984375 7.078125 2.828125 7.703125 2.515625 C 8.335938 2.210938 8.65625 1.796875 8.65625 1.265625 C 8.65625 0.835938 8.46875 0.539062 8.09375 0.375 C 7.71875 0.21875 7.140625 0.140625 6.359375 0.140625 L 4.75 0.140625 C 4.1875 0.140625 3.710938 0.273438 3.328125 0.546875 C 2.941406 0.816406 2.75 1.171875 2.75 1.609375 Z M 3.875 -7.65625 C 3.875 -7.039062 4.015625 -6.550781 4.296875 -6.1875 C 4.578125 -5.832031 5.007812 -5.65625 5.59375 -5.65625 C 6.175781 -5.65625 6.601562 -5.832031 6.875 -6.1875 C 7.144531 -6.550781 7.28125 -7.039062 7.28125 -7.65625 C 7.28125 -9.03125 6.71875 -9.71875 5.59375 -9.71875 C 4.445312 -9.71875 3.875 -9.03125 3.875 -7.65625 Z M 3.875 -7.65625 "/></g></g></g><g fill="#000000" fill-opacity="1"><g transform="translate(221.822563, 244.663795)"><g><path d="M 1.5 -14.328125 C 1.5 -15.335938 2.0625 -15.84375 3.1875 -15.84375 C 4.3125 -15.84375 4.875 -15.335938 4.875 -14.328125 C 4.875 -13.847656 4.734375 -13.472656 4.453125 -13.203125 C 4.171875 -12.929688 3.75 -12.796875 3.1875 -12.796875 C 2.0625 -12.796875 1.5 -13.304688 1.5 -14.328125 Z M 4.734375 0 L 1.625 0 L 1.625 -11.390625 L 4.734375 -11.390625 Z M 4.734375 0 "/></g></g></g><g fill="#000000" fill-opacity="1"><g transform="translate(228.184768, 244.663795)"><g><path d="M 9.578125 -3.375 C 9.578125 -2.207031 9.171875 -1.316406 8.359375 -0.703125 C 7.546875 -0.0976562 6.332031 0.203125 4.71875 0.203125 C 3.882812 0.203125 3.175781 0.144531 2.59375 0.03125 C 2.007812 -0.0703125 1.460938 -0.234375 0.953125 -0.453125 L 0.953125 -3.03125 C 1.535156 -2.757812 2.1875 -2.53125 2.90625 -2.34375 C 3.632812 -2.15625 4.269531 -2.0625 4.8125 -2.0625 C 5.945312 -2.0625 6.515625 -2.390625 6.515625 -3.046875 C 6.515625 -3.285156 6.4375 -3.484375 6.28125 -3.640625 C 6.132812 -3.796875 5.875 -3.96875 5.5 -4.15625 C 5.132812 -4.351562 4.648438 -4.582031 4.046875 -4.84375 C 3.171875 -5.207031 2.523438 -5.546875 2.109375 -5.859375 C 1.703125 -6.171875 1.40625 -6.523438 1.21875 -6.921875 C 1.03125 -7.328125 0.9375 -7.828125 0.9375 -8.421875 C 0.9375 -9.429688 1.328125 -10.210938 2.109375 -10.765625 C 2.898438 -11.316406 4.015625 -11.59375 5.453125 -11.59375 C 6.816406 -11.59375 8.148438 -11.296875 9.453125 -10.703125 L 8.515625 -8.46875 C 7.941406 -8.707031 7.40625 -8.90625 6.90625 -9.0625 C 6.414062 -9.21875 5.910156 -9.296875 5.390625 -9.296875 C 4.472656 -9.296875 4.015625 -9.050781 4.015625 -8.5625 C 4.015625 -8.28125 4.160156 -8.035156 4.453125 -7.828125 C 4.753906 -7.628906 5.40625 -7.328125 6.40625 -6.921875 C 7.289062 -6.566406 7.941406 -6.234375 8.359375 -5.921875 C 8.773438 -5.609375 9.082031 -5.25 9.28125 -4.84375 C 9.476562 -4.4375 9.578125 -3.945312 9.578125 -3.375 Z M 9.578125 -3.375 "/></g></g></g><g fill="#000000" fill-opacity="1"><g transform="translate(238.547518, 244.663795)"><g><path d="M 6.421875 -2.265625 C 6.960938 -2.265625 7.613281 -2.382812 8.375 -2.625 L 8.375 -0.3125 C 7.601562 0.03125 6.65625 0.203125 5.53125 0.203125 C 4.289062 0.203125 3.382812 -0.109375 2.8125 -0.734375 C 2.25 -1.367188 1.96875 -2.3125 1.96875 -3.5625 L 1.96875 -9.046875 L 0.484375 -9.046875 L 0.484375 -10.375 L 2.1875 -11.40625 L 3.09375 -13.8125 L 5.078125 -13.8125 L 5.078125 -11.390625 L 8.265625 -11.390625 L 8.265625 -9.046875 L 5.078125 -9.046875 L 5.078125 -3.5625 C 5.078125 -3.125 5.195312 -2.796875 5.4375 -2.578125 C 5.6875 -2.367188 6.015625 -2.265625 6.421875 -2.265625 Z M 6.421875 -2.265625 "/></g></g></g><g fill="#000000" fill-opacity="1"><g transform="translate(247.597116, 244.663795)"><g><path d="M 6.34375 -9.390625 C 5.6875 -9.390625 5.171875 -9.179688 4.796875 -8.765625 C 4.421875 -8.347656 4.207031 -7.753906 4.15625 -6.984375 L 8.515625 -6.984375 C 8.503906 -7.753906 8.300781 -8.347656 7.90625 -8.765625 C 7.519531 -9.179688 7 -9.390625 6.34375 -9.390625 Z M 6.78125 0.203125 C 4.945312 0.203125 3.515625 -0.300781 2.484375 -1.3125 C 1.453125 -2.320312 0.9375 -3.753906 0.9375 -5.609375 C 0.9375 -7.515625 1.410156 -8.988281 2.359375 -10.03125 C 3.316406 -11.070312 4.640625 -11.59375 6.328125 -11.59375 C 7.929688 -11.59375 9.179688 -11.132812 10.078125 -10.21875 C 10.972656 -9.300781 11.421875 -8.035156 11.421875 -6.421875 L 11.421875 -4.921875 L 4.078125 -4.921875 C 4.117188 -4.035156 4.382812 -3.34375 4.875 -2.84375 C 5.363281 -2.351562 6.046875 -2.109375 6.921875 -2.109375 C 7.609375 -2.109375 8.253906 -2.175781 8.859375 -2.3125 C 9.472656 -2.457031 10.113281 -2.6875 10.78125 -3 L 10.78125 -0.59375 C 10.238281 -0.320312 9.660156 -0.125 9.046875 0 C 8.429688 0.132812 7.675781 0.203125 6.78125 0.203125 Z M 6.78125 0.203125 "/></g></g></g><g fill="#000000" fill-opacity="1"><g transform="translate(259.914334, 244.663795)"><g><path d="M 9.578125 -3.375 C 9.578125 -2.207031 9.171875 -1.316406 8.359375 -0.703125 C 7.546875 -0.0976562 6.332031 0.203125 4.71875 0.203125 C 3.882812 0.203125 3.175781 0.144531 2.59375 0.03125 C 2.007812 -0.0703125 1.460938 -0.234375 0.953125 -0.453125 L 0.953125 -3.03125 C 1.535156 -2.757812 2.1875 -2.53125 2.90625 -2.34375 C 3.632812 -2.15625 4.269531 -2.0625 4.8125 -2.0625 C 5.945312 -2.0625 6.515625 -2.390625 6.515625 -3.046875 C 6.515625 -3.285156 6.4375 -3.484375 6.28125 -3.640625 C 6.132812 -3.796875 5.875 -3.96875 5.5 -4.15625 C 5.132812 -4.351562 4.648438 -4.582031 4.046875 -4.84375 C 3.171875 -5.207031 2.523438 -5.546875 2.109375 -5.859375 C 1.703125 -6.171875 1.40625 -6.523438 1.21875 -6.921875 C 1.03125 -7.328125 0.9375 -7.828125 0.9375 -8.421875 C 0.9375 -9.429688 1.328125 -10.210938 2.109375 -10.765625 C 2.898438 -11.316406 4.015625 -11.59375 5.453125 -11.59375 C 6.816406 -11.59375 8.148438 -11.296875 9.453125 -10.703125 L 8.515625 -8.46875 C 7.941406 -8.707031 7.40625 -8.90625 6.90625 -9.0625 C 6.414062 -9.21875 5.910156 -9.296875 5.390625 -9.296875 C 4.472656 -9.296875 4.015625 -9.050781 4.015625 -8.5625 C 4.015625 -8.28125 4.160156 -8.035156 4.453125 -7.828125 C 4.753906 -7.628906 5.40625 -7.328125 6.40625 -6.921875 C 7.289062 -6.566406 7.941406 -6.234375 8.359375 -5.921875 C 8.773438 -5.609375 9.082031 -5.25 9.28125 -4.84375 C 9.476562 -4.4375 9.578125 -3.945312 9.578125 -3.375 Z M 9.578125 -3.375 "/></g></g></g><g fill="#000000" fill-opacity="1"><g transform="translate(345.740023, 242.548649)"><g><path d="M 14 -14.890625 L 14 -5.25 C 14 -4.15625 13.75 -3.191406 13.25 -2.359375 C 12.757812 -1.535156 12.050781 -0.898438 11.125 -0.453125 C 10.195312 -0.015625 9.097656 0.203125 7.828125 0.203125 C 5.910156 0.203125 4.421875 -0.285156 3.359375 -1.265625 C 2.296875 -2.242188 1.765625 -3.585938 1.765625 -5.296875 L 1.765625 -14.890625 L 4.921875 -14.890625 L 4.921875 -5.78125 C 4.921875 -4.625 5.148438 -3.773438 5.609375 -3.234375 C 6.066406 -2.703125 6.832031 -2.4375 7.90625 -2.4375 C 8.9375 -2.4375 9.679688 -2.707031 10.140625 -3.25 C 10.609375 -3.789062 10.84375 -4.640625 10.84375 -5.796875 L 10.84375 -14.890625 Z M 14 -14.890625 "/></g></g></g><g fill="#000000" fill-opacity="1"><g transform="translate(361.497919, 242.548649)"><g><path d="M 6.421875 -2.265625 C 6.960938 -2.265625 7.613281 -2.382812 8.375 -2.625 L 8.375 -0.3125 C 7.601562 0.03125 6.65625 0.203125 5.53125 0.203125 C 4.289062 0.203125 3.382812 -0.109375 2.8125 -0.734375 C 2.25 -1.367188 1.96875 -2.3125 1.96875 -3.5625 L 1.96875 -9.046875 L 0.484375 -9.046875 L 0.484375 -10.375 L 2.1875 -11.40625 L 3.09375 -13.8125 L 5.078125 -13.8125 L 5.078125 -11.390625 L 8.265625 -11.390625 L 8.265625 -9.046875 L 5.078125 -9.046875 L 5.078125 -3.5625 C 5.078125 -3.125 5.195312 -2.796875 5.4375 -2.578125 C 5.6875 -2.367188 6.015625 -2.265625 6.421875 -2.265625 Z M 6.421875 -2.265625 "/></g></g></g><g fill="#000000" fill-opacity="1"><g transform="translate(370.547517, 242.548649)"><g><path d="M 1.5 -14.328125 C 1.5 -15.335938 2.0625 -15.84375 3.1875 -15.84375 C 4.3125 -15.84375 4.875 -15.335938 4.875 -14.328125 C 4.875 -13.847656 4.734375 -13.472656 4.453125 -13.203125 C 4.171875 -12.929688 3.75 -12.796875 3.1875 -12.796875 C 2.0625 -12.796875 1.5 -13.304688 1.5 -14.328125 Z M 4.734375 0 L 1.625 0 L 1.625 -11.390625 L 4.734375 -11.390625 Z M 4.734375 0 "/></g></g></g><g fill="#000000" fill-opacity="1"><g transform="translate(376.909722, 242.548649)"><g><path d="M 4.734375 0 L 1.625 0 L 1.625 -15.84375 L 4.734375 -15.84375 Z M 4.734375 0 "/></g></g></g><g fill="#000000" fill-opacity="1"><g transform="translate(383.271927, 242.548649)"><g><path d="M 1.5 -14.328125 C 1.5 -15.335938 2.0625 -15.84375 3.1875 -15.84375 C 4.3125 -15.84375 4.875 -15.335938 4.875 -14.328125 C 4.875 -13.847656 4.734375 -13.472656 4.453125 -13.203125 C 4.171875 -12.929688 3.75 -12.796875 3.1875 -12.796875 C 2.0625 -12.796875 1.5 -13.304688 1.5 -14.328125 Z M 4.734375 0 L 1.625 0 L 1.625 -11.390625 L 4.734375 -11.390625 Z M 4.734375 0 "/></g></g></g><g fill="#000000" fill-opacity="1"><g transform="translate(389.634132, 242.548649)"><g><path d="M 9.578125 -3.375 C 9.578125 -2.207031 9.171875 -1.316406 8.359375 -0.703125 C 7.546875 -0.0976562 6.332031 0.203125 4.71875 0.203125 C 3.882812 0.203125 3.175781 0.144531 2.59375 0.03125 C 2.007812 -0.0703125 1.460938 -0.234375 0.953125 -0.453125 L 0.953125 -3.03125 C 1.535156 -2.757812 2.1875 -2.53125 2.90625 -2.34375 C 3.632812 -2.15625 4.269531 -2.0625 4.8125 -2.0625 C 5.945312 -2.0625 6.515625 -2.390625 6.515625 -3.046875 C 6.515625 -3.285156 6.4375 -3.484375 6.28125 -3.640625 C 6.132812 -3.796875 5.875 -3.96875 5.5 -4.15625 C 5.132812 -4.351562 4.648438 -4.582031 4.046875 -4.84375 C 3.171875 -5.207031 2.523438 -5.546875 2.109375 -5.859375 C 1.703125 -6.171875 1.40625 -6.523438 1.21875 -6.921875 C 1.03125 -7.328125 0.9375 -7.828125 0.9375 -8.421875 C 0.9375 -9.429688 1.328125 -10.210938 2.109375 -10.765625 C 2.898438 -11.316406 4.015625 -11.59375 5.453125 -11.59375 C 6.816406 -11.59375 8.148438 -11.296875 9.453125 -10.703125 L 8.515625 -8.46875 C 7.941406 -8.707031 7.40625 -8.90625 6.90625 -9.0625 C 6.414062 -9.21875 5.910156 -9.296875 5.390625 -9.296875 C 4.472656 -9.296875 4.015625 -9.050781 4.015625 -8.5625 C 4.015625 -8.28125 4.160156 -8.035156 4.453125 -7.828125 C 4.753906 -7.628906 5.40625 -7.328125 6.40625 -6.921875 C 7.289062 -6.566406 7.941406 -6.234375 8.359375 -5.921875 C 8.773438 -5.609375 9.082031 -5.25 9.28125 -4.84375 C 9.476562 -4.4375 9.578125 -3.945312 9.578125 -3.375 Z M 9.578125 -3.375 "/></g></g></g><g fill="#000000" fill-opacity="1"><g transform="translate(399.996882, 242.548649)"><g><path d="M 8.859375 0 L 8.265625 -1.546875 L 8.171875 -1.546875 C 7.648438 -0.890625 7.113281 -0.429688 6.5625 -0.171875 C 6.007812 0.078125 5.289062 0.203125 4.40625 0.203125 C 3.3125 0.203125 2.445312 -0.109375 1.8125 -0.734375 C 1.1875 -1.359375 0.875 -2.25 0.875 -3.40625 C 0.875 -4.613281 1.296875 -5.503906 2.140625 -6.078125 C 2.984375 -6.648438 4.257812 -6.96875 5.96875 -7.03125 L 7.9375 -7.09375 L 7.9375 -7.59375 C 7.9375 -8.738281 7.347656 -9.3125 6.171875 -9.3125 C 5.265625 -9.3125 4.195312 -9.039062 2.96875 -8.5 L 1.9375 -10.59375 C 3.25 -11.28125 4.703125 -11.625 6.296875 -11.625 C 7.828125 -11.625 9 -11.289062 9.8125 -10.625 C 10.625 -9.957031 11.03125 -8.945312 11.03125 -7.59375 L 11.03125 0 Z M 7.9375 -5.28125 L 6.75 -5.234375 C 5.84375 -5.203125 5.164062 -5.035156 4.71875 -4.734375 C 4.28125 -4.441406 4.0625 -3.988281 4.0625 -3.375 C 4.0625 -2.5 4.566406 -2.0625 5.578125 -2.0625 C 6.296875 -2.0625 6.867188 -2.269531 7.296875 -2.6875 C 7.722656 -3.101562 7.9375 -3.65625 7.9375 -4.34375 Z M 7.9375 -5.28125 "/></g></g></g><g fill="#000000" fill-opacity="1"><g transform="translate(412.588953, 242.548649)"><g><path d="M 6.421875 -2.265625 C 6.960938 -2.265625 7.613281 -2.382812 8.375 -2.625 L 8.375 -0.3125 C 7.601562 0.03125 6.65625 0.203125 5.53125 0.203125 C 4.289062 0.203125 3.382812 -0.109375 2.8125 -0.734375 C 2.25 -1.367188 1.96875 -2.3125 1.96875 -3.5625 L 1.96875 -9.046875 L 0.484375 -9.046875 L 0.484375 -10.375 L 2.1875 -11.40625 L 3.09375 -13.8125 L 5.078125 -13.8125 L 5.078125 -11.390625 L 8.265625 -11.390625 L 8.265625 -9.046875 L 5.078125 -9.046875 L 5.078125 -3.5625 C 5.078125 -3.125 5.195312 -2.796875 5.4375 -2.578125 C 5.6875 -2.367188 6.015625 -2.265625 6.421875 -2.265625 Z M 6.421875 -2.265625 "/></g></g></g><g fill="#000000" fill-opacity="1"><g transform="translate(421.638551, 242.548649)"><g><path d="M 6.34375 -9.390625 C 5.6875 -9.390625 5.171875 -9.179688 4.796875 -8.765625 C 4.421875 -8.347656 4.207031 -7.753906 4.15625 -6.984375 L 8.515625 -6.984375 C 8.503906 -7.753906 8.300781 -8.347656 7.90625 -8.765625 C 7.519531 -9.179688 7 -9.390625 6.34375 -9.390625 Z M 6.78125 0.203125 C 4.945312 0.203125 3.515625 -0.300781 2.484375 -1.3125 C 1.453125 -2.320312 0.9375 -3.753906 0.9375 -5.609375 C 0.9375 -7.515625 1.410156 -8.988281 2.359375 -10.03125 C 3.316406 -11.070312 4.640625 -11.59375 6.328125 -11.59375 C 7.929688 -11.59375 9.179688 -11.132812 10.078125 -10.21875 C 10.972656 -9.300781 11.421875 -8.035156 11.421875 -6.421875 L 11.421875 -4.921875 L 4.078125 -4.921875 C 4.117188 -4.035156 4.382812 -3.34375 4.875 -2.84375 C 5.363281 -2.351562 6.046875 -2.109375 6.921875 -2.109375 C 7.609375 -2.109375 8.253906 -2.175781 8.859375 -2.3125 C 9.472656 -2.457031 10.113281 -2.6875 10.78125 -3 L 10.78125 -0.59375 C 10.238281 -0.320312 9.660156 -0.125 9.046875 0 C 8.429688 0.132812 7.675781 0.203125 6.78125 0.203125 Z M 6.78125 0.203125 "/></g></g></g><g fill="#000000" fill-opacity="1"><g transform="translate(433.955768, 242.548649)"><g><path d="M 9.703125 0 L 9.28125 -1.453125 L 9.109375 -1.453125 C 8.773438 -0.921875 8.300781 -0.507812 7.6875 -0.21875 C 7.082031 0.0625 6.390625 0.203125 5.609375 0.203125 C 4.273438 0.203125 3.265625 -0.15625 2.578125 -0.875 C 1.898438 -1.59375 1.5625 -2.625 1.5625 -3.96875 L 1.5625 -11.390625 L 4.671875 -11.390625 L 4.671875 -4.734375 C 4.671875 -3.910156 4.816406 -3.289062 5.109375 -2.875 C 5.398438 -2.46875 5.867188 -2.265625 6.515625 -2.265625 C 7.378906 -2.265625 8.003906 -2.554688 8.390625 -3.140625 C 8.773438 -3.722656 8.96875 -4.6875 8.96875 -6.03125 L 8.96875 -11.390625 L 12.078125 -11.390625 L 12.078125 0 Z M 9.703125 0 "/></g></g></g><g fill="#000000" fill-opacity="1"><g transform="translate(447.657401, 242.548649)"><g><path d="M 7.984375 -11.59375 C 8.398438 -11.59375 8.75 -11.566406 9.03125 -11.515625 L 8.796875 -8.59375 C 8.546875 -8.664062 8.242188 -8.703125 7.890625 -8.703125 C 6.890625 -8.703125 6.113281 -8.445312 5.5625 -7.9375 C 5.007812 -7.425781 4.734375 -6.710938 4.734375 -5.796875 L 4.734375 0 L 1.625 0 L 1.625 -11.390625 L 3.984375 -11.390625 L 4.4375 -9.46875 L 4.59375 -9.46875 C 4.945312 -10.113281 5.421875 -10.628906 6.015625 -11.015625 C 6.617188 -11.398438 7.273438 -11.59375 7.984375 -11.59375 Z M 7.984375 -11.59375 "/></g></g></g><g fill="#000000" fill-opacity="1"><g transform="translate(362.228303, 271.048647)"><g><path d="M 4.734375 0 L 1.625 0 L 1.625 -15.84375 L 4.734375 -15.84375 Z M 4.734375 0 "/></g></g></g><g fill="#000000" fill-opacity="1"><g transform="translate(368.590508, 271.048647)"><g><path d="M 8.859375 0 L 8.265625 -1.546875 L 8.171875 -1.546875 C 7.648438 -0.890625 7.113281 -0.429688 6.5625 -0.171875 C 6.007812 0.078125 5.289062 0.203125 4.40625 0.203125 C 3.3125 0.203125 2.445312 -0.109375 1.8125 -0.734375 C 1.1875 -1.359375 0.875 -2.25 0.875 -3.40625 C 0.875 -4.613281 1.296875 -5.503906 2.140625 -6.078125 C 2.984375 -6.648438 4.257812 -6.96875 5.96875 -7.03125 L 7.9375 -7.09375 L 7.9375 -7.59375 C 7.9375 -8.738281 7.347656 -9.3125 6.171875 -9.3125 C 5.265625 -9.3125 4.195312 -9.039062 2.96875 -8.5 L 1.9375 -10.59375 C 3.25 -11.28125 4.703125 -11.625 6.296875 -11.625 C 7.828125 -11.625 9 -11.289062 9.8125 -10.625 C 10.625 -9.957031 11.03125 -8.945312 11.03125 -7.59375 L 11.03125 0 Z M 7.9375 -5.28125 L 6.75 -5.234375 C 5.84375 -5.203125 5.164062 -5.035156 4.71875 -4.734375 C 4.28125 -4.441406 4.0625 -3.988281 4.0625 -3.375 C 4.0625 -2.5 4.566406 -2.0625 5.578125 -2.0625 C 6.296875 -2.0625 6.867188 -2.269531 7.296875 -2.6875 C 7.722656 -3.101562 7.9375 -3.65625 7.9375 -4.34375 Z M 7.9375 -5.28125 "/></g></g></g><g fill="#000000" fill-opacity="1"><g transform="translate(381.182579, 271.048647)"><g><path d="M 11.828125 0 L 8.71875 0 L 8.71875 -6.65625 C 8.71875 -7.476562 8.578125 -8.09375 8.296875 -8.5 C 8.023438 -8.90625 7.59375 -9.109375 7 -9.109375 C 6.207031 -9.109375 5.628906 -8.816406 5.265625 -8.234375 C 4.910156 -7.648438 4.734375 -6.691406 4.734375 -5.359375 L 4.734375 0 L 1.625 0 L 1.625 -11.390625 L 4 -11.390625 L 4.421875 -9.9375 L 4.59375 -9.9375 C 4.894531 -10.457031 5.332031 -10.863281 5.90625 -11.15625 C 6.488281 -11.445312 7.15625 -11.59375 7.90625 -11.59375 C 9.601562 -11.59375 10.753906 -11.039062 11.359375 -9.9375 L 11.640625 -9.9375 C 11.941406 -10.457031 12.390625 -10.863281 12.984375 -11.15625 C 13.578125 -11.445312 14.25 -11.59375 15 -11.59375 C 16.289062 -11.59375 17.265625 -11.257812 17.921875 -10.59375 C 18.585938 -9.9375 18.921875 -8.878906 18.921875 -7.421875 L 18.921875 0 L 15.8125 0 L 15.8125 -6.65625 C 15.8125 -7.476562 15.671875 -8.09375 15.390625 -8.5 C 15.117188 -8.90625 14.6875 -9.109375 14.09375 -9.109375 C 13.332031 -9.109375 12.765625 -8.835938 12.390625 -8.296875 C 12.015625 -7.753906 11.828125 -6.894531 11.828125 -5.71875 Z M 11.828125 0 "/></g></g></g><g fill="#000000" fill-opacity="1"><g transform="translate(401.653597, 271.048647)"><g><path d="M 7.96875 -11.59375 C 9.3125 -11.59375 10.363281 -11.066406 11.125 -10.015625 C 11.882812 -8.972656 12.265625 -7.539062 12.265625 -5.71875 C 12.265625 -3.832031 11.867188 -2.375 11.078125 -1.34375 C 10.296875 -0.3125 9.234375 0.203125 7.890625 0.203125 C 6.546875 0.203125 5.492188 -0.28125 4.734375 -1.25 L 4.515625 -1.25 L 4 0 L 1.625 0 L 1.625 -15.84375 L 4.734375 -15.84375 L 4.734375 -12.15625 C 4.734375 -11.6875 4.691406 -10.9375 4.609375 -9.90625 L 4.734375 -9.90625 C 5.460938 -11.03125 6.539062 -11.59375 7.96875 -11.59375 Z M 6.96875 -9.109375 C 6.195312 -9.109375 5.632812 -8.875 5.28125 -8.40625 C 4.925781 -7.9375 4.742188 -7.160156 4.734375 -6.078125 L 4.734375 -5.734375 C 4.734375 -4.515625 4.914062 -3.640625 5.28125 -3.109375 C 5.644531 -2.578125 6.21875 -2.3125 7 -2.3125 C 7.644531 -2.3125 8.15625 -2.601562 8.53125 -3.1875 C 8.90625 -3.78125 9.09375 -4.632812 9.09375 -5.75 C 9.09375 -6.875 8.898438 -7.710938 8.515625 -8.265625 C 8.140625 -8.828125 7.625 -9.109375 6.96875 -9.109375 Z M 6.96875 -9.109375 "/></g></g></g><g fill="#000000" fill-opacity="1"><g transform="translate(414.846253, 271.048647)"><g><path d="M 5.234375 0.203125 C 3.898438 0.203125 2.847656 -0.3125 2.078125 -1.34375 C 1.316406 -2.382812 0.9375 -3.828125 0.9375 -5.671875 C 0.9375 -7.535156 1.320312 -8.988281 2.09375 -10.03125 C 2.875 -11.070312 3.945312 -11.59375 5.3125 -11.59375 C 6.75 -11.59375 7.84375 -11.039062 8.59375 -9.9375 L 8.703125 -9.9375 C 8.546875 -10.78125 8.46875 -11.535156 8.46875 -12.203125 L 8.46875 -15.84375 L 11.578125 -15.84375 L 11.578125 0 L 9.203125 0 L 8.59375 -1.484375 L 8.46875 -1.484375 C 7.757812 -0.359375 6.679688 0.203125 5.234375 0.203125 Z M 6.328125 -2.265625 C 7.117188 -2.265625 7.695312 -2.492188 8.0625 -2.953125 C 8.4375 -3.421875 8.640625 -4.207031 8.671875 -5.3125 L 8.671875 -5.65625 C 8.671875 -6.875 8.484375 -7.75 8.109375 -8.28125 C 7.734375 -8.8125 7.125 -9.078125 6.28125 -9.078125 C 5.582031 -9.078125 5.039062 -8.78125 4.65625 -8.1875 C 4.269531 -7.601562 4.078125 -6.75 4.078125 -5.625 C 4.078125 -4.507812 4.269531 -3.671875 4.65625 -3.109375 C 5.050781 -2.546875 5.609375 -2.265625 6.328125 -2.265625 Z M 6.328125 -2.265625 "/></g></g></g><g fill="#000000" fill-opacity="1"><g transform="translate(428.03891, 271.048647)"><g><path d="M 8.859375 0 L 8.265625 -1.546875 L 8.171875 -1.546875 C 7.648438 -0.890625 7.113281 -0.429688 6.5625 -0.171875 C 6.007812 0.078125 5.289062 0.203125 4.40625 0.203125 C 3.3125 0.203125 2.445312 -0.109375 1.8125 -0.734375 C 1.1875 -1.359375 0.875 -2.25 0.875 -3.40625 C 0.875 -4.613281 1.296875 -5.503906 2.140625 -6.078125 C 2.984375 -6.648438 4.257812 -6.96875 5.96875 -7.03125 L 7.9375 -7.09375 L 7.9375 -7.59375 C 7.9375 -8.738281 7.347656 -9.3125 6.171875 -9.3125 C 5.265625 -9.3125 4.195312 -9.039062 2.96875 -8.5 L 1.9375 -10.59375 C 3.25 -11.28125 4.703125 -11.625 6.296875 -11.625 C 7.828125 -11.625 9 -11.289062 9.8125 -10.625 C 10.625 -9.957031 11.03125 -8.945312 11.03125 -7.59375 L 11.03125 0 Z M 7.9375 -5.28125 L 6.75 -5.234375 C 5.84375 -5.203125 5.164062 -5.035156 4.71875 -4.734375 C 4.28125 -4.441406 4.0625 -3.988281 4.0625 -3.375 C 4.0625 -2.5 4.566406 -2.0625 5.578125 -2.0625 C 6.296875 -2.0625 6.867188 -2.269531 7.296875 -2.6875 C 7.722656 -3.101562 7.9375 -3.65625 7.9375 -4.34375 Z M 7.9375 -5.28125 "/></g></g></g></svg>