<svg xmlns="http://www.w3.org/2000/svg" xmlns:xlink="http://www.w3.org/1999/xlink" width="800" zoomAndPan="magnify" viewBox="0 0 600 449.999984" height="600" preserveAspectRatio="xMidYMid meet" version="1.0"><defs><g/><clipPath id="8ab6e20f27"><path d="M 66.996094 15.347656 L 544.742188 15.347656 L 544.742188 450 L 66.996094 450 Z M 66.996094 15.347656 " clip-rule="nonzero"/></clipPath><clipPath id="8d60cfdf00"><path d="M 305.867188 15.347656 L 544.742188 124.097656 L 544.742188 341.597656 L 305.867188 450.347656 L 66.996094 341.597656 L 66.996094 124.097656 L 305.867188 15.347656 " clip-rule="nonzero"/></clipPath><clipPath id="6bdf4ff622"><path d="M 122.199219 107.734375 L 293.199219 107.734375 L 293.199219 290.734375 L 122.199219 290.734375 Z M 122.199219 107.734375 " clip-rule="nonzero"/></clipPath><clipPath id="a258dd2284"><path d="M 207.699219 107.734375 L 293.195312 153.484375 L 293.195312 244.984375 L 207.699219 290.734375 L 122.199219 244.984375 L 122.199219 153.484375 L 207.699219 107.734375 " clip-rule="nonzero"/></clipPath><clipPath id="f14e8a5ff5"><path d="M 331.140625 107.734375 L 502.140625 107.734375 L 502.140625 290.734375 L 331.140625 290.734375 Z M 331.140625 107.734375 " clip-rule="nonzero"/></clipPath><clipPath id="516ae0c0ba"><path d="M 416.640625 107.734375 L 502.136719 153.484375 L 502.136719 244.984375 L 416.640625 290.734375 L 331.140625 244.984375 L 331.140625 153.484375 L 416.640625 107.734375 " clip-rule="nonzero"/></clipPath></defs><rect x="-60" width="720" fill="#ffffff" y="-44.999998" height="539.99998" fill-opacity="1"/><rect x="-60" width="720" fill="#ffffff" y="-44.999998" height="539.99998" fill-opacity="1"/><rect x="-60" width="720" fill="#ffffff" y="-44.999998" height="539.99998" fill-opacity="1"/><g clip-path="url(#8ab6e20f27)"><g clip-path="url(#8d60cfdf00)"><path stroke-linecap="butt" transform="matrix(0.750442, 0, 0, 0.750607, 66.99591, 15.346066)" fill="none" stroke-linejoin="miter" d="M 318.307581 0.00211819 L 636.620123 144.884948 L 636.620123 434.650608 L 318.307581 579.533438 L 0.000245324 434.650608 L 0.000245324 144.884948 L 318.307581 0.00211819 " stroke="#000000" stroke-width="2" stroke-opacity="1" stroke-miterlimit="4"/></g></g><g clip-path="url(#6bdf4ff622)"><g clip-path="url(#a258dd2284)"><path stroke-linecap="butt" transform="matrix(0.750772, 0, 0, 0.75101, 122.200393, 107.73506)" fill="none" stroke-linejoin="miter" d="M 113.881253 -0.000912649 L 227.758867 60.91706 L 227.758867 182.753007 L 113.881253 243.67098 L -0.00156452 182.753007 L -0.00156452 60.91706 L 113.881253 -0.000912649 " stroke="#000000" stroke-width="2" stroke-opacity="1" stroke-miterlimit="4"/></g></g><g clip-path="url(#f14e8a5ff5)"><g clip-path="url(#516ae0c0ba)"><path stroke-linecap="butt" transform="matrix(0.750772, 0, 0, 0.75101, 331.142445, 107.73506)" fill="none" stroke-linejoin="miter" d="M 113.880393 -0.000912649 L 227.758007 60.91706 L 227.758007 182.753007 L 113.880393 243.67098 L -0.00242427 182.753007 L -0.00242427 60.91706 L 113.880393 -0.000912649 " stroke="#000000" stroke-width="2" stroke-opacity="1" stroke-miterlimit="4"/></g></g><g fill="#000000" fill-opacity="1"><g transform="translate(153.533372, 205.099993)"><g><path d="M 10.125 -8.28125 C 10.125 -6.925781 9.722656 -5.878906 8.921875 -5.140625 C 8.117188 -4.398438 6.984375 -4.03125 5.515625 -4.03125 L 4.59375 -4.03125 L 4.59375 0 L 1.3125 0 L 1.3125 -12.140625 L 5.515625 -12.140625 C 7.046875 -12.140625 8.195312 -11.800781 8.96875 -11.125 C 9.738281 -10.457031 10.125 -9.507812 10.125 -8.28125 Z M 4.59375 -6.703125 L 5.1875 -6.703125 C 5.675781 -6.703125 6.066406 -6.835938 6.359375 -7.109375 C 6.648438 -7.390625 6.796875 -7.773438 6.796875 -8.265625 C 6.796875 -9.078125 6.34375 -9.484375 5.4375 -9.484375 L 4.59375 -9.484375 Z M 4.59375 -6.703125 "/></g></g></g><g fill="#000000" fill-opacity="1"><g transform="translate(164.269646, 205.099993)"><g><path d="M 6.796875 -9.578125 C 7.078125 -9.578125 7.347656 -9.550781 7.609375 -9.5 L 7.78125 -9.46875 L 7.5 -6.40625 C 7.226562 -6.476562 6.859375 -6.515625 6.390625 -6.515625 C 5.679688 -6.515625 5.164062 -6.347656 4.84375 -6.015625 C 4.519531 -5.691406 4.359375 -5.226562 4.359375 -4.625 L 4.359375 0 L 1.125 0 L 1.125 -9.40625 L 3.53125 -9.40625 L 4.046875 -7.90625 L 4.203125 -7.90625 C 4.472656 -8.40625 4.847656 -8.804688 5.328125 -9.109375 C 5.816406 -9.421875 6.304688 -9.578125 6.796875 -9.578125 Z M 6.796875 -9.578125 "/></g></g></g><g fill="#000000" fill-opacity="1"><g transform="translate(172.24303, 205.099993)"><g><path d="M 5.65625 0.171875 C 4.09375 0.171875 2.878906 -0.242188 2.015625 -1.078125 C 1.148438 -1.910156 0.71875 -3.097656 0.71875 -4.640625 C 0.71875 -6.222656 1.117188 -7.441406 1.921875 -8.296875 C 2.722656 -9.148438 3.867188 -9.578125 5.359375 -9.578125 C 6.773438 -9.578125 7.867188 -9.207031 8.640625 -8.46875 C 9.410156 -7.726562 9.796875 -6.660156 9.796875 -5.265625 L 9.796875 -3.828125 L 4 -3.828125 C 4.019531 -3.296875 4.207031 -2.878906 4.5625 -2.578125 C 4.925781 -2.285156 5.421875 -2.140625 6.046875 -2.140625 C 6.617188 -2.140625 7.144531 -2.191406 7.625 -2.296875 C 8.101562 -2.410156 8.625 -2.597656 9.1875 -2.859375 L 9.1875 -0.515625 C 8.675781 -0.265625 8.148438 -0.0859375 7.609375 0.015625 C 7.066406 0.117188 6.414062 0.171875 5.65625 0.171875 Z M 5.46875 -7.359375 C 5.082031 -7.359375 4.757812 -7.238281 4.5 -7 C 4.25 -6.757812 4.101562 -6.382812 4.0625 -5.875 L 6.84375 -5.875 C 6.832031 -6.320312 6.703125 -6.679688 6.453125 -6.953125 C 6.210938 -7.222656 5.882812 -7.359375 5.46875 -7.359375 Z M 5.46875 -7.359375 "/></g></g></g><g fill="#000000" fill-opacity="1"><g transform="translate(182.746989, 205.099993)"><g><path d="M 8.390625 -2.890625 C 8.390625 -1.878906 8.046875 -1.113281 7.359375 -0.59375 C 6.671875 -0.0820312 5.6875 0.171875 4.40625 0.171875 C 3.707031 0.171875 3.097656 0.128906 2.578125 0.046875 C 2.066406 -0.0234375 1.539062 -0.160156 1 -0.359375 L 1 -2.953125 C 1.507812 -2.734375 2.0625 -2.550781 2.65625 -2.40625 C 3.257812 -2.257812 3.796875 -2.1875 4.265625 -2.1875 C 4.972656 -2.1875 5.328125 -2.347656 5.328125 -2.671875 C 5.328125 -2.835938 5.226562 -2.984375 5.03125 -3.109375 C 4.832031 -3.242188 4.257812 -3.5 3.3125 -3.875 C 2.445312 -4.226562 1.84375 -4.628906 1.5 -5.078125 C 1.15625 -5.535156 0.984375 -6.109375 0.984375 -6.796875 C 0.984375 -7.671875 1.320312 -8.351562 2 -8.84375 C 2.675781 -9.332031 3.628906 -9.578125 4.859375 -9.578125 C 5.484375 -9.578125 6.066406 -9.507812 6.609375 -9.375 C 7.148438 -9.238281 7.71875 -9.039062 8.3125 -8.78125 L 7.421875 -6.6875 C 6.992188 -6.875 6.539062 -7.035156 6.0625 -7.171875 C 5.582031 -7.304688 5.1875 -7.375 4.875 -7.375 C 4.34375 -7.375 4.078125 -7.242188 4.078125 -6.984375 C 4.078125 -6.828125 4.171875 -6.691406 4.359375 -6.578125 C 4.546875 -6.460938 5.082031 -6.234375 5.96875 -5.890625 C 6.625 -5.617188 7.113281 -5.351562 7.4375 -5.09375 C 7.757812 -4.832031 8 -4.523438 8.15625 -4.171875 C 8.3125 -3.816406 8.390625 -3.390625 8.390625 -2.890625 Z M 8.390625 -2.890625 "/></g></g></g><g fill="#000000" fill-opacity="1"><g transform="translate(191.807275, 205.099993)"><g><path d="M 5.734375 -2.40625 C 6.171875 -2.40625 6.691406 -2.507812 7.296875 -2.71875 L 7.296875 -0.359375 C 6.859375 -0.171875 6.441406 -0.0351562 6.046875 0.046875 C 5.648438 0.128906 5.1875 0.171875 4.65625 0.171875 C 3.5625 0.171875 2.773438 -0.09375 2.296875 -0.625 C 1.816406 -1.164062 1.578125 -1.988281 1.578125 -3.09375 L 1.578125 -6.96875 L 0.4375 -6.96875 L 0.4375 -8.296875 L 1.890625 -9.3125 L 2.71875 -11.296875 L 4.84375 -11.296875 L 4.84375 -9.40625 L 7.15625 -9.40625 L 7.15625 -6.96875 L 4.84375 -6.96875 L 4.84375 -3.3125 C 4.84375 -2.707031 5.140625 -2.40625 5.734375 -2.40625 Z M 5.734375 -2.40625 "/></g></g></g><g fill="#000000" fill-opacity="1"><g transform="translate(199.623017, 205.099993)"><g><path d="M 7.25 0 L 6.625 -1.25 L 6.5625 -1.25 C 6.125 -0.707031 5.675781 -0.332031 5.21875 -0.125 C 4.769531 0.0703125 4.1875 0.171875 3.46875 0.171875 C 2.582031 0.171875 1.882812 -0.09375 1.375 -0.625 C 0.863281 -1.15625 0.609375 -1.90625 0.609375 -2.875 C 0.609375 -3.875 0.957031 -4.617188 1.65625 -5.109375 C 2.351562 -5.597656 3.363281 -5.875 4.6875 -5.9375 L 6.265625 -5.984375 L 6.265625 -6.125 C 6.265625 -6.894531 5.878906 -7.28125 5.109375 -7.28125 C 4.421875 -7.28125 3.550781 -7.046875 2.5 -6.578125 L 1.5625 -8.71875 C 2.65625 -9.289062 4.039062 -9.578125 5.71875 -9.578125 C 6.914062 -9.578125 7.84375 -9.273438 8.5 -8.671875 C 9.164062 -8.078125 9.5 -7.242188 9.5 -6.171875 L 9.5 0 Z M 4.84375 -2.125 C 5.238281 -2.125 5.578125 -2.25 5.859375 -2.5 C 6.140625 -2.75 6.28125 -3.070312 6.28125 -3.46875 L 6.28125 -4.203125 L 5.53125 -4.171875 C 4.457031 -4.128906 3.921875 -3.734375 3.921875 -2.984375 C 3.921875 -2.410156 4.226562 -2.125 4.84375 -2.125 Z M 4.84375 -2.125 "/></g></g></g><g fill="#000000" fill-opacity="1"><g transform="translate(210.209946, 205.099993)"><g><path d="M 5.734375 -2.40625 C 6.171875 -2.40625 6.691406 -2.507812 7.296875 -2.71875 L 7.296875 -0.359375 C 6.859375 -0.171875 6.441406 -0.0351562 6.046875 0.046875 C 5.648438 0.128906 5.1875 0.171875 4.65625 0.171875 C 3.5625 0.171875 2.773438 -0.09375 2.296875 -0.625 C 1.816406 -1.164062 1.578125 -1.988281 1.578125 -3.09375 L 1.578125 -6.96875 L 0.4375 -6.96875 L 0.4375 -8.296875 L 1.890625 -9.3125 L 2.71875 -11.296875 L 4.84375 -11.296875 L 4.84375 -9.40625 L 7.15625 -9.40625 L 7.15625 -6.96875 L 4.84375 -6.96875 L 4.84375 -3.3125 C 4.84375 -2.707031 5.140625 -2.40625 5.734375 -2.40625 Z M 5.734375 -2.40625 "/></g></g></g><g fill="#000000" fill-opacity="1"><g transform="translate(218.025688, 205.099993)"><g><path d="M 7.25 0 L 6.625 -1.25 L 6.5625 -1.25 C 6.125 -0.707031 5.675781 -0.332031 5.21875 -0.125 C 4.769531 0.0703125 4.1875 0.171875 3.46875 0.171875 C 2.582031 0.171875 1.882812 -0.09375 1.375 -0.625 C 0.863281 -1.15625 0.609375 -1.90625 0.609375 -2.875 C 0.609375 -3.875 0.957031 -4.617188 1.65625 -5.109375 C 2.351562 -5.597656 3.363281 -5.875 4.6875 -5.9375 L 6.265625 -5.984375 L 6.265625 -6.125 C 6.265625 -6.894531 5.878906 -7.28125 5.109375 -7.28125 C 4.421875 -7.28125 3.550781 -7.046875 2.5 -6.578125 L 1.5625 -8.71875 C 2.65625 -9.289062 4.039062 -9.578125 5.71875 -9.578125 C 6.914062 -9.578125 7.84375 -9.273438 8.5 -8.671875 C 9.164062 -8.078125 9.5 -7.242188 9.5 -6.171875 L 9.5 0 Z M 4.84375 -2.125 C 5.238281 -2.125 5.578125 -2.25 5.859375 -2.5 C 6.140625 -2.75 6.28125 -3.070312 6.28125 -3.46875 L 6.28125 -4.203125 L 5.53125 -4.171875 C 4.457031 -4.128906 3.921875 -3.734375 3.921875 -2.984375 C 3.921875 -2.410156 4.226562 -2.125 4.84375 -2.125 Z M 4.84375 -2.125 "/></g></g></g><g fill="#000000" fill-opacity="1"><g transform="translate(228.612616, 205.099993)"><g><path d="M 4.390625 0 L 1.140625 0 L 1.140625 -9.40625 L 4.390625 -9.40625 Z M 1.046875 -11.75 C 1.046875 -12.226562 1.179688 -12.585938 1.453125 -12.828125 C 1.734375 -13.066406 2.171875 -13.1875 2.765625 -13.1875 C 3.367188 -13.1875 3.804688 -13.0625 4.078125 -12.8125 C 4.359375 -12.570312 4.5 -12.21875 4.5 -11.75 C 4.5 -10.789062 3.921875 -10.3125 2.765625 -10.3125 C 1.617188 -10.3125 1.046875 -10.789062 1.046875 -11.75 Z M 1.046875 -11.75 "/></g></g></g><g fill="#000000" fill-opacity="1"><g transform="translate(234.138395, 205.099993)"><g><path d="M 6.796875 -9.578125 C 7.078125 -9.578125 7.347656 -9.550781 7.609375 -9.5 L 7.78125 -9.46875 L 7.5 -6.40625 C 7.226562 -6.476562 6.859375 -6.515625 6.390625 -6.515625 C 5.679688 -6.515625 5.164062 -6.347656 4.84375 -6.015625 C 4.519531 -5.691406 4.359375 -5.226562 4.359375 -4.625 L 4.359375 0 L 1.125 0 L 1.125 -9.40625 L 3.53125 -9.40625 L 4.046875 -7.90625 L 4.203125 -7.90625 C 4.472656 -8.40625 4.847656 -8.804688 5.328125 -9.109375 C 5.816406 -9.421875 6.304688 -9.578125 6.796875 -9.578125 Z M 6.796875 -9.578125 "/></g></g></g><g fill="#000000" fill-opacity="1"><g transform="translate(242.11178, 205.099993)"><g><path d="M 5.65625 0.171875 C 4.09375 0.171875 2.878906 -0.242188 2.015625 -1.078125 C 1.148438 -1.910156 0.71875 -3.097656 0.71875 -4.640625 C 0.71875 -6.222656 1.117188 -7.441406 1.921875 -8.296875 C 2.722656 -9.148438 3.867188 -9.578125 5.359375 -9.578125 C 6.773438 -9.578125 7.867188 -9.207031 8.640625 -8.46875 C 9.410156 -7.726562 9.796875 -6.660156 9.796875 -5.265625 L 9.796875 -3.828125 L 4 -3.828125 C 4.019531 -3.296875 4.207031 -2.878906 4.5625 -2.578125 C 4.925781 -2.285156 5.421875 -2.140625 6.046875 -2.140625 C 6.617188 -2.140625 7.144531 -2.191406 7.625 -2.296875 C 8.101562 -2.410156 8.625 -2.597656 9.1875 -2.859375 L 9.1875 -0.515625 C 8.675781 -0.265625 8.148438 -0.0859375 7.609375 0.015625 C 7.066406 0.117188 6.414062 0.171875 5.65625 0.171875 Z M 5.46875 -7.359375 C 5.082031 -7.359375 4.757812 -7.238281 4.5 -7 C 4.25 -6.757812 4.101562 -6.382812 4.0625 -5.875 L 6.84375 -5.875 C 6.832031 -6.320312 6.703125 -6.679688 6.453125 -6.953125 C 6.210938 -7.222656 5.882812 -7.359375 5.46875 -7.359375 Z M 5.46875 -7.359375 "/></g></g></g><g fill="#000000" fill-opacity="1"><g transform="translate(252.615738, 205.099993)"><g><path d="M 8.390625 -2.890625 C 8.390625 -1.878906 8.046875 -1.113281 7.359375 -0.59375 C 6.671875 -0.0820312 5.6875 0.171875 4.40625 0.171875 C 3.707031 0.171875 3.097656 0.128906 2.578125 0.046875 C 2.066406 -0.0234375 1.539062 -0.160156 1 -0.359375 L 1 -2.953125 C 1.507812 -2.734375 2.0625 -2.550781 2.65625 -2.40625 C 3.257812 -2.257812 3.796875 -2.1875 4.265625 -2.1875 C 4.972656 -2.1875 5.328125 -2.347656 5.328125 -2.671875 C 5.328125 -2.835938 5.226562 -2.984375 5.03125 -3.109375 C 4.832031 -3.242188 4.257812 -3.5 3.3125 -3.875 C 2.445312 -4.226562 1.84375 -4.628906 1.5 -5.078125 C 1.15625 -5.535156 0.984375 -6.109375 0.984375 -6.796875 C 0.984375 -7.671875 1.320312 -8.351562 2 -8.84375 C 2.675781 -9.332031 3.628906 -9.578125 4.859375 -9.578125 C 5.484375 -9.578125 6.066406 -9.507812 6.609375 -9.375 C 7.148438 -9.238281 7.71875 -9.039062 8.3125 -8.78125 L 7.421875 -6.6875 C 6.992188 -6.875 6.539062 -7.035156 6.0625 -7.171875 C 5.582031 -7.304688 5.1875 -7.375 4.875 -7.375 C 4.34375 -7.375 4.078125 -7.242188 4.078125 -6.984375 C 4.078125 -6.828125 4.171875 -6.691406 4.359375 -6.578125 C 4.546875 -6.460938 5.082031 -6.234375 5.96875 -5.890625 C 6.625 -5.617188 7.113281 -5.351562 7.4375 -5.09375 C 7.757812 -4.832031 8 -4.523438 8.15625 -4.171875 C 8.3125 -3.816406 8.390625 -3.390625 8.390625 -2.890625 Z M 8.390625 -2.890625 "/></g></g></g><g fill="#000000" fill-opacity="1"><g transform="translate(261.673988, 205.099993)"><g/></g></g><g fill="#000000" fill-opacity="1"><g transform="translate(163.705246, 228.349991)"><g><path d="M 11.625 -12.140625 L 11.625 -4.828125 C 11.625 -3.242188 11.175781 -2.015625 10.28125 -1.140625 C 9.382812 -0.265625 8.085938 0.171875 6.390625 0.171875 C 4.734375 0.171875 3.460938 -0.25 2.578125 -1.09375 C 1.691406 -1.945312 1.25 -3.164062 1.25 -4.75 L 1.25 -12.140625 L 4.546875 -12.140625 L 4.546875 -5.015625 C 4.546875 -4.160156 4.703125 -3.535156 5.015625 -3.140625 C 5.335938 -2.753906 5.8125 -2.5625 6.4375 -2.5625 C 7.113281 -2.5625 7.597656 -2.753906 7.890625 -3.140625 C 8.191406 -3.523438 8.34375 -4.15625 8.34375 -5.03125 L 8.34375 -12.140625 Z M 11.625 -12.140625 "/></g></g></g><g fill="#000000" fill-opacity="1"><g transform="translate(176.565543, 228.349991)"><g><path d="M 7.0625 0 L 7.0625 -5.125 C 7.0625 -5.75 6.96875 -6.21875 6.78125 -6.53125 C 6.601562 -6.851562 6.316406 -7.015625 5.921875 -7.015625 C 5.367188 -7.015625 4.96875 -6.796875 4.71875 -6.359375 C 4.476562 -5.929688 4.359375 -5.1875 4.359375 -4.125 L 4.359375 0 L 1.125 0 L 1.125 -9.40625 L 3.5625 -9.40625 L 3.96875 -8.25 L 4.171875 -8.25 C 4.441406 -8.6875 4.820312 -9.015625 5.3125 -9.234375 C 5.800781 -9.460938 6.363281 -9.578125 7 -9.578125 C 8.039062 -9.578125 8.847656 -9.273438 9.421875 -8.671875 C 10.003906 -8.066406 10.296875 -7.21875 10.296875 -6.125 L 10.296875 0 Z M 7.0625 0 "/></g></g></g><g fill="#000000" fill-opacity="1"><g transform="translate(187.94898, 228.349991)"><g><path d="M 6.859375 -9.578125 C 7.890625 -9.578125 8.703125 -9.144531 9.296875 -8.28125 C 9.898438 -7.425781 10.203125 -6.238281 10.203125 -4.71875 C 10.203125 -3.195312 9.898438 -2 9.296875 -1.125 C 8.691406 -0.257812 7.847656 0.171875 6.765625 0.171875 C 6.421875 0.171875 6.109375 0.128906 5.828125 0.046875 C 5.554688 -0.0234375 5.316406 -0.125 5.109375 -0.25 C 4.898438 -0.382812 4.648438 -0.609375 4.359375 -0.921875 L 4.171875 -0.921875 L 3.65625 0 L 1.125 0 L 1.125 -12.921875 L 4.359375 -12.921875 L 4.359375 -10 C 4.359375 -9.644531 4.320312 -9.039062 4.25 -8.1875 L 4.359375 -8.1875 C 4.679688 -8.675781 5.046875 -9.03125 5.453125 -9.25 C 5.867188 -9.46875 6.335938 -9.578125 6.859375 -9.578125 Z M 5.671875 -7.015625 C 5.222656 -7.015625 4.890625 -6.859375 4.671875 -6.546875 C 4.460938 -6.234375 4.359375 -5.738281 4.359375 -5.0625 L 4.359375 -4.609375 C 4.359375 -3.835938 4.460938 -3.285156 4.671875 -2.953125 C 4.890625 -2.617188 5.238281 -2.453125 5.71875 -2.453125 C 6.09375 -2.453125 6.378906 -2.644531 6.578125 -3.03125 C 6.785156 -3.425781 6.890625 -4 6.890625 -4.75 C 6.890625 -6.257812 6.484375 -7.015625 5.671875 -7.015625 Z M 5.671875 -7.015625 "/></g></g></g><g fill="#000000" fill-opacity="1"><g transform="translate(198.876084, 228.349991)"><g><path d="M 5.65625 0.171875 C 4.09375 0.171875 2.878906 -0.242188 2.015625 -1.078125 C 1.148438 -1.910156 0.71875 -3.097656 0.71875 -4.640625 C 0.71875 -6.222656 1.117188 -7.441406 1.921875 -8.296875 C 2.722656 -9.148438 3.867188 -9.578125 5.359375 -9.578125 C 6.773438 -9.578125 7.867188 -9.207031 8.640625 -8.46875 C 9.410156 -7.726562 9.796875 -6.660156 9.796875 -5.265625 L 9.796875 -3.828125 L 4 -3.828125 C 4.019531 -3.296875 4.207031 -2.878906 4.5625 -2.578125 C 4.925781 -2.285156 5.421875 -2.140625 6.046875 -2.140625 C 6.617188 -2.140625 7.144531 -2.191406 7.625 -2.296875 C 8.101562 -2.410156 8.625 -2.597656 9.1875 -2.859375 L 9.1875 -0.515625 C 8.675781 -0.265625 8.148438 -0.0859375 7.609375 0.015625 C 7.066406 0.117188 6.414062 0.171875 5.65625 0.171875 Z M 5.46875 -7.359375 C 5.082031 -7.359375 4.757812 -7.238281 4.5 -7 C 4.25 -6.757812 4.101562 -6.382812 4.0625 -5.875 L 6.84375 -5.875 C 6.832031 -6.320312 6.703125 -6.679688 6.453125 -6.953125 C 6.210938 -7.222656 5.882812 -7.359375 5.46875 -7.359375 Z M 3.90625 -10.296875 L 3.90625 -10.546875 C 4.757812 -11.453125 5.300781 -12.035156 5.53125 -12.296875 C 5.757812 -12.566406 5.953125 -12.8125 6.109375 -13.03125 L 9.65625 -13.03125 L 9.65625 -12.84375 C 9.207031 -12.488281 8.597656 -12.035156 7.828125 -11.484375 C 7.054688 -10.941406 6.46875 -10.546875 6.0625 -10.296875 Z M 3.90625 -10.296875 "/></g></g></g><g fill="#000000" fill-opacity="1"><g transform="translate(209.380043, 228.349991)"><g><path d="M 6.796875 -9.578125 C 7.078125 -9.578125 7.347656 -9.550781 7.609375 -9.5 L 7.78125 -9.46875 L 7.5 -6.40625 C 7.226562 -6.476562 6.859375 -6.515625 6.390625 -6.515625 C 5.679688 -6.515625 5.164062 -6.347656 4.84375 -6.015625 C 4.519531 -5.691406 4.359375 -5.226562 4.359375 -4.625 L 4.359375 0 L 1.125 0 L 1.125 -9.40625 L 3.53125 -9.40625 L 4.046875 -7.90625 L 4.203125 -7.90625 C 4.472656 -8.40625 4.847656 -8.804688 5.328125 -9.109375 C 5.816406 -9.421875 6.304688 -9.578125 6.796875 -9.578125 Z M 6.796875 -9.578125 "/></g></g></g><g fill="#000000" fill-opacity="1"><g transform="translate(217.353427, 228.349991)"><g><path d="M 4.390625 0 L 1.140625 0 L 1.140625 -9.40625 L 4.390625 -9.40625 Z M 1.046875 -11.75 C 1.046875 -12.226562 1.179688 -12.585938 1.453125 -12.828125 C 1.734375 -13.066406 2.171875 -13.1875 2.765625 -13.1875 C 3.367188 -13.1875 3.804688 -13.0625 4.078125 -12.8125 C 4.359375 -12.570312 4.5 -12.21875 4.5 -11.75 C 4.5 -10.789062 3.921875 -10.3125 2.765625 -10.3125 C 1.617188 -10.3125 1.046875 -10.789062 1.046875 -11.75 Z M 1.046875 -11.75 "/></g></g></g><g fill="#000000" fill-opacity="1"><g transform="translate(222.879207, 228.349991)"><g><path d="M 8.390625 -2.890625 C 8.390625 -1.878906 8.046875 -1.113281 7.359375 -0.59375 C 6.671875 -0.0820312 5.6875 0.171875 4.40625 0.171875 C 3.707031 0.171875 3.097656 0.128906 2.578125 0.046875 C 2.066406 -0.0234375 1.539062 -0.160156 1 -0.359375 L 1 -2.953125 C 1.507812 -2.734375 2.0625 -2.550781 2.65625 -2.40625 C 3.257812 -2.257812 3.796875 -2.1875 4.265625 -2.1875 C 4.972656 -2.1875 5.328125 -2.347656 5.328125 -2.671875 C 5.328125 -2.835938 5.226562 -2.984375 5.03125 -3.109375 C 4.832031 -3.242188 4.257812 -3.5 3.3125 -3.875 C 2.445312 -4.226562 1.84375 -4.628906 1.5 -5.078125 C 1.15625 -5.535156 0.984375 -6.109375 0.984375 -6.796875 C 0.984375 -7.671875 1.320312 -8.351562 2 -8.84375 C 2.675781 -9.332031 3.628906 -9.578125 4.859375 -9.578125 C 5.484375 -9.578125 6.066406 -9.507812 6.609375 -9.375 C 7.148438 -9.238281 7.71875 -9.039062 8.3125 -8.78125 L 7.421875 -6.6875 C 6.992188 -6.875 6.539062 -7.035156 6.0625 -7.171875 C 5.582031 -7.304688 5.1875 -7.375 4.875 -7.375 C 4.34375 -7.375 4.078125 -7.242188 4.078125 -6.984375 C 4.078125 -6.828125 4.171875 -6.691406 4.359375 -6.578125 C 4.546875 -6.460938 5.082031 -6.234375 5.96875 -5.890625 C 6.625 -5.617188 7.113281 -5.351562 7.4375 -5.09375 C 7.757812 -4.832031 8 -4.523438 8.15625 -4.171875 C 8.3125 -3.816406 8.390625 -3.390625 8.390625 -2.890625 Z M 8.390625 -2.890625 "/></g></g></g><g fill="#000000" fill-opacity="1"><g transform="translate(231.939493, 228.349991)"><g><path d="M 5.65625 0.171875 C 4.09375 0.171875 2.878906 -0.242188 2.015625 -1.078125 C 1.148438 -1.910156 0.71875 -3.097656 0.71875 -4.640625 C 0.71875 -6.222656 1.117188 -7.441406 1.921875 -8.296875 C 2.722656 -9.148438 3.867188 -9.578125 5.359375 -9.578125 C 6.773438 -9.578125 7.867188 -9.207031 8.640625 -8.46875 C 9.410156 -7.726562 9.796875 -6.660156 9.796875 -5.265625 L 9.796875 -3.828125 L 4 -3.828125 C 4.019531 -3.296875 4.207031 -2.878906 4.5625 -2.578125 C 4.925781 -2.285156 5.421875 -2.140625 6.046875 -2.140625 C 6.617188 -2.140625 7.144531 -2.191406 7.625 -2.296875 C 8.101562 -2.410156 8.625 -2.597656 9.1875 -2.859375 L 9.1875 -0.515625 C 8.675781 -0.265625 8.148438 -0.0859375 7.609375 0.015625 C 7.066406 0.117188 6.414062 0.171875 5.65625 0.171875 Z M 5.46875 -7.359375 C 5.082031 -7.359375 4.757812 -7.238281 4.5 -7 C 4.25 -6.757812 4.101562 -6.382812 4.0625 -5.875 L 6.84375 -5.875 C 6.832031 -6.320312 6.703125 -6.679688 6.453125 -6.953125 C 6.210938 -7.222656 5.882812 -7.359375 5.46875 -7.359375 Z M 3.90625 -10.296875 L 3.90625 -10.546875 C 4.757812 -11.453125 5.300781 -12.035156 5.53125 -12.296875 C 5.757812 -12.566406 5.953125 -12.8125 6.109375 -13.03125 L 9.65625 -13.03125 L 9.65625 -12.84375 C 9.207031 -12.488281 8.597656 -12.035156 7.828125 -11.484375 C 7.054688 -10.941406 6.46875 -10.546875 6.0625 -10.296875 Z M 3.90625 -10.296875 "/></g></g></g><g fill="#000000" fill-opacity="1"><g transform="translate(242.443452, 228.349991)"><g><path d="M 8.390625 -2.890625 C 8.390625 -1.878906 8.046875 -1.113281 7.359375 -0.59375 C 6.671875 -0.0820312 5.6875 0.171875 4.40625 0.171875 C 3.707031 0.171875 3.097656 0.128906 2.578125 0.046875 C 2.066406 -0.0234375 1.539062 -0.160156 1 -0.359375 L 1 -2.953125 C 1.507812 -2.734375 2.0625 -2.550781 2.65625 -2.40625 C 3.257812 -2.257812 3.796875 -2.1875 4.265625 -2.1875 C 4.972656 -2.1875 5.328125 -2.347656 5.328125 -2.671875 C 5.328125 -2.835938 5.226562 -2.984375 5.03125 -3.109375 C 4.832031 -3.242188 4.257812 -3.5 3.3125 -3.875 C 2.445312 -4.226562 1.84375 -4.628906 1.5 -5.078125 C 1.15625 -5.535156 0.984375 -6.109375 0.984375 -6.796875 C 0.984375 -7.671875 1.320312 -8.351562 2 -8.84375 C 2.675781 -9.332031 3.628906 -9.578125 4.859375 -9.578125 C 5.484375 -9.578125 6.066406 -9.507812 6.609375 -9.375 C 7.148438 -9.238281 7.71875 -9.039062 8.3125 -8.78125 L 7.421875 -6.6875 C 6.992188 -6.875 6.539062 -7.035156 6.0625 -7.171875 C 5.582031 -7.304688 5.1875 -7.375 4.875 -7.375 C 4.34375 -7.375 4.078125 -7.242188 4.078125 -6.984375 C 4.078125 -6.828125 4.171875 -6.691406 4.359375 -6.578125 C 4.546875 -6.460938 5.082031 -6.234375 5.96875 -5.890625 C 6.625 -5.617188 7.113281 -5.351562 7.4375 -5.09375 C 7.757812 -4.832031 8 -4.523438 8.15625 -4.171875 C 8.3125 -3.816406 8.390625 -3.390625 8.390625 -2.890625 Z M 8.390625 -2.890625 "/></g></g></g><g fill="#000000" fill-opacity="1"><g transform="translate(386.147294, 205.099993)"><g><path d="M 6.71875 -9.625 C 5.9375 -9.625 5.328125 -9.300781 4.890625 -8.65625 C 4.453125 -8.019531 4.234375 -7.140625 4.234375 -6.015625 C 4.234375 -3.679688 5.117188 -2.515625 6.890625 -2.515625 C 7.429688 -2.515625 7.953125 -2.585938 8.453125 -2.734375 C 8.960938 -2.890625 9.472656 -3.070312 9.984375 -3.28125 L 9.984375 -0.5 C 8.960938 -0.0507812 7.816406 0.171875 6.546875 0.171875 C 4.710938 0.171875 3.304688 -0.359375 2.328125 -1.421875 C 1.347656 -2.484375 0.859375 -4.019531 0.859375 -6.03125 C 0.859375 -7.289062 1.09375 -8.394531 1.5625 -9.34375 C 2.039062 -10.300781 2.722656 -11.035156 3.609375 -11.546875 C 4.503906 -12.054688 5.550781 -12.3125 6.75 -12.3125 C 8.0625 -12.3125 9.316406 -12.023438 10.515625 -11.453125 L 9.5 -8.875 C 9.050781 -9.082031 8.601562 -9.257812 8.15625 -9.40625 C 7.707031 -9.550781 7.226562 -9.625 6.71875 -9.625 Z M 6.71875 -9.625 "/></g></g></g><g fill="#000000" fill-opacity="1"><g transform="translate(397.173962, 205.099993)"><g><path d="M 4.359375 0 L 1.125 0 L 1.125 -12.921875 L 4.359375 -12.921875 Z M 4.359375 0 "/></g></g></g><g fill="#000000" fill-opacity="1"><g transform="translate(402.666553, 205.099993)"><g><path d="M 4.390625 0 L 1.140625 0 L 1.140625 -9.40625 L 4.390625 -9.40625 Z M 1.046875 -11.75 C 1.046875 -12.226562 1.179688 -12.585938 1.453125 -12.828125 C 1.734375 -13.066406 2.171875 -13.1875 2.765625 -13.1875 C 3.367188 -13.1875 3.804688 -13.0625 4.078125 -12.8125 C 4.359375 -12.570312 4.5 -12.21875 4.5 -11.75 C 4.5 -10.789062 3.921875 -10.3125 2.765625 -10.3125 C 1.617188 -10.3125 1.046875 -10.789062 1.046875 -11.75 Z M 1.046875 -11.75 "/></g></g></g><g fill="#000000" fill-opacity="1"><g transform="translate(408.192332, 205.099993)"><g><path d="M 5.65625 0.171875 C 4.09375 0.171875 2.878906 -0.242188 2.015625 -1.078125 C 1.148438 -1.910156 0.71875 -3.097656 0.71875 -4.640625 C 0.71875 -6.222656 1.117188 -7.441406 1.921875 -8.296875 C 2.722656 -9.148438 3.867188 -9.578125 5.359375 -9.578125 C 6.773438 -9.578125 7.867188 -9.207031 8.640625 -8.46875 C 9.410156 -7.726562 9.796875 -6.660156 9.796875 -5.265625 L 9.796875 -3.828125 L 4 -3.828125 C 4.019531 -3.296875 4.207031 -2.878906 4.5625 -2.578125 C 4.925781 -2.285156 5.421875 -2.140625 6.046875 -2.140625 C 6.617188 -2.140625 7.144531 -2.191406 7.625 -2.296875 C 8.101562 -2.410156 8.625 -2.597656 9.1875 -2.859375 L 9.1875 -0.515625 C 8.675781 -0.265625 8.148438 -0.0859375 7.609375 0.015625 C 7.066406 0.117188 6.414062 0.171875 5.65625 0.171875 Z M 5.46875 -7.359375 C 5.082031 -7.359375 4.757812 -7.238281 4.5 -7 C 4.25 -6.757812 4.101562 -6.382812 4.0625 -5.875 L 6.84375 -5.875 C 6.832031 -6.320312 6.703125 -6.679688 6.453125 -6.953125 C 6.210938 -7.222656 5.882812 -7.359375 5.46875 -7.359375 Z M 5.46875 -7.359375 "/></g></g></g><g fill="#000000" fill-opacity="1"><g transform="translate(418.696291, 205.099993)"><g><path d="M 7.0625 0 L 7.0625 -5.125 C 7.0625 -5.75 6.96875 -6.21875 6.78125 -6.53125 C 6.601562 -6.851562 6.316406 -7.015625 5.921875 -7.015625 C 5.367188 -7.015625 4.96875 -6.796875 4.71875 -6.359375 C 4.476562 -5.929688 4.359375 -5.1875 4.359375 -4.125 L 4.359375 0 L 1.125 0 L 1.125 -9.40625 L 3.5625 -9.40625 L 3.96875 -8.25 L 4.171875 -8.25 C 4.441406 -8.6875 4.820312 -9.015625 5.3125 -9.234375 C 5.800781 -9.460938 6.363281 -9.578125 7 -9.578125 C 8.039062 -9.578125 8.847656 -9.273438 9.421875 -8.671875 C 10.003906 -8.066406 10.296875 -7.21875 10.296875 -6.125 L 10.296875 0 Z M 7.0625 0 "/></g></g></g><g fill="#000000" fill-opacity="1"><g transform="translate(430.079729, 205.099993)"><g><path d="M 5.734375 -2.40625 C 6.171875 -2.40625 6.691406 -2.507812 7.296875 -2.71875 L 7.296875 -0.359375 C 6.859375 -0.171875 6.441406 -0.0351562 6.046875 0.046875 C 5.648438 0.128906 5.1875 0.171875 4.65625 0.171875 C 3.5625 0.171875 2.773438 -0.09375 2.296875 -0.625 C 1.816406 -1.164062 1.578125 -1.988281 1.578125 -3.09375 L 1.578125 -6.96875 L 0.4375 -6.96875 L 0.4375 -8.296875 L 1.890625 -9.3125 L 2.71875 -11.296875 L 4.84375 -11.296875 L 4.84375 -9.40625 L 7.15625 -9.40625 L 7.15625 -6.96875 L 4.84375 -6.96875 L 4.84375 -3.3125 C 4.84375 -2.707031 5.140625 -2.40625 5.734375 -2.40625 Z M 5.734375 -2.40625 "/></g></g></g><g fill="#000000" fill-opacity="1"><g transform="translate(437.89547, 205.099993)"><g><path d="M 8.390625 -2.890625 C 8.390625 -1.878906 8.046875 -1.113281 7.359375 -0.59375 C 6.671875 -0.0820312 5.6875 0.171875 4.40625 0.171875 C 3.707031 0.171875 3.097656 0.128906 2.578125 0.046875 C 2.066406 -0.0234375 1.539062 -0.160156 1 -0.359375 L 1 -2.953125 C 1.507812 -2.734375 2.0625 -2.550781 2.65625 -2.40625 C 3.257812 -2.257812 3.796875 -2.1875 4.265625 -2.1875 C 4.972656 -2.1875 5.328125 -2.347656 5.328125 -2.671875 C 5.328125 -2.835938 5.226562 -2.984375 5.03125 -3.109375 C 4.832031 -3.242188 4.257812 -3.5 3.3125 -3.875 C 2.445312 -4.226562 1.84375 -4.628906 1.5 -5.078125 C 1.15625 -5.535156 0.984375 -6.109375 0.984375 -6.796875 C 0.984375 -7.671875 1.320312 -8.351562 2 -8.84375 C 2.675781 -9.332031 3.628906 -9.578125 4.859375 -9.578125 C 5.484375 -9.578125 6.066406 -9.507812 6.609375 -9.375 C 7.148438 -9.238281 7.71875 -9.039062 8.3125 -8.78125 L 7.421875 -6.6875 C 6.992188 -6.875 6.539062 -7.035156 6.0625 -7.171875 C 5.582031 -7.304688 5.1875 -7.375 4.875 -7.375 C 4.34375 -7.375 4.078125 -7.242188 4.078125 -6.984375 C 4.078125 -6.828125 4.171875 -6.691406 4.359375 -6.578125 C 4.546875 -6.460938 5.082031 -6.234375 5.96875 -5.890625 C 6.625 -5.617188 7.113281 -5.351562 7.4375 -5.09375 C 7.757812 -4.832031 8 -4.523438 8.15625 -4.171875 C 8.3125 -3.816406 8.390625 -3.390625 8.390625 -2.890625 Z M 8.390625 -2.890625 "/></g></g></g><g fill="#000000" fill-opacity="1"><g transform="translate(293.266425, 315.016646)"><g><path d="M 11.625 -12.140625 L 11.625 -4.828125 C 11.625 -3.242188 11.175781 -2.015625 10.28125 -1.140625 C 9.382812 -0.265625 8.085938 0.171875 6.390625 0.171875 C 4.734375 0.171875 3.460938 -0.25 2.578125 -1.09375 C 1.691406 -1.945312 1.25 -3.164062 1.25 -4.75 L 1.25 -12.140625 L 4.546875 -12.140625 L 4.546875 -5.015625 C 4.546875 -4.160156 4.703125 -3.535156 5.015625 -3.140625 C 5.335938 -2.753906 5.8125 -2.5625 6.4375 -2.5625 C 7.113281 -2.5625 7.597656 -2.753906 7.890625 -3.140625 C 8.191406 -3.523438 8.34375 -4.15625 8.34375 -5.03125 L 8.34375 -12.140625 Z M 11.625 -12.140625 "/></g></g></g><g fill="#000000" fill-opacity="1"><g transform="translate(306.126722, 315.016646)"><g><path d="M 6.859375 -9.578125 C 7.890625 -9.578125 8.703125 -9.144531 9.296875 -8.28125 C 9.898438 -7.425781 10.203125 -6.238281 10.203125 -4.71875 C 10.203125 -3.195312 9.898438 -2 9.296875 -1.125 C 8.691406 -0.257812 7.847656 0.171875 6.765625 0.171875 C 6.421875 0.171875 6.109375 0.128906 5.828125 0.046875 C 5.554688 -0.0234375 5.316406 -0.125 5.109375 -0.25 C 4.898438 -0.382812 4.648438 -0.609375 4.359375 -0.921875 L 4.171875 -0.921875 L 3.65625 0 L 1.125 0 L 1.125 -12.921875 L 4.359375 -12.921875 L 4.359375 -10 C 4.359375 -9.644531 4.320312 -9.039062 4.25 -8.1875 L 4.359375 -8.1875 C 4.679688 -8.675781 5.046875 -9.03125 5.453125 -9.25 C 5.867188 -9.46875 6.335938 -9.578125 6.859375 -9.578125 Z M 5.671875 -7.015625 C 5.222656 -7.015625 4.890625 -6.859375 4.671875 -6.546875 C 4.460938 -6.234375 4.359375 -5.738281 4.359375 -5.0625 L 4.359375 -4.609375 C 4.359375 -3.835938 4.460938 -3.285156 4.671875 -2.953125 C 4.890625 -2.617188 5.238281 -2.453125 5.71875 -2.453125 C 6.09375 -2.453125 6.378906 -2.644531 6.578125 -3.03125 C 6.785156 -3.425781 6.890625 -4 6.890625 -4.75 C 6.890625 -6.257812 6.484375 -7.015625 5.671875 -7.015625 Z M 5.671875 -7.015625 "/></g></g></g><g fill="#000000" fill-opacity="1"><g transform="translate(317.053826, 315.016646)"><g><path d="M 5.65625 0.171875 C 4.09375 0.171875 2.878906 -0.242188 2.015625 -1.078125 C 1.148438 -1.910156 0.71875 -3.097656 0.71875 -4.640625 C 0.71875 -6.222656 1.117188 -7.441406 1.921875 -8.296875 C 2.722656 -9.148438 3.867188 -9.578125 5.359375 -9.578125 C 6.773438 -9.578125 7.867188 -9.207031 8.640625 -8.46875 C 9.410156 -7.726562 9.796875 -6.660156 9.796875 -5.265625 L 9.796875 -3.828125 L 4 -3.828125 C 4.019531 -3.296875 4.207031 -2.878906 4.5625 -2.578125 C 4.925781 -2.285156 5.421875 -2.140625 6.046875 -2.140625 C 6.617188 -2.140625 7.144531 -2.191406 7.625 -2.296875 C 8.101562 -2.410156 8.625 -2.597656 9.1875 -2.859375 L 9.1875 -0.515625 C 8.675781 -0.265625 8.148438 -0.0859375 7.609375 0.015625 C 7.066406 0.117188 6.414062 0.171875 5.65625 0.171875 Z M 5.46875 -7.359375 C 5.082031 -7.359375 4.757812 -7.238281 4.5 -7 C 4.25 -6.757812 4.101562 -6.382812 4.0625 -5.875 L 6.84375 -5.875 C 6.832031 -6.320312 6.703125 -6.679688 6.453125 -6.953125 C 6.210938 -7.222656 5.882812 -7.359375 5.46875 -7.359375 Z M 5.46875 -7.359375 "/></g></g></g><g fill="#000000" fill-opacity="1"><g transform="translate(327.557785, 315.016646)"><g><path d="M 6.796875 -9.578125 C 7.078125 -9.578125 7.347656 -9.550781 7.609375 -9.5 L 7.78125 -9.46875 L 7.5 -6.40625 C 7.226562 -6.476562 6.859375 -6.515625 6.390625 -6.515625 C 5.679688 -6.515625 5.164062 -6.347656 4.84375 -6.015625 C 4.519531 -5.691406 4.359375 -5.226562 4.359375 -4.625 L 4.359375 0 L 1.125 0 L 1.125 -9.40625 L 3.53125 -9.40625 L 4.046875 -7.90625 L 4.203125 -7.90625 C 4.472656 -8.40625 4.847656 -8.804688 5.328125 -9.109375 C 5.816406 -9.421875 6.304688 -9.578125 6.796875 -9.578125 Z M 6.796875 -9.578125 "/></g></g></g><g fill="#000000" fill-opacity="1"><g transform="translate(298.258612, 338.266644)"><g><path d="M 0.359375 3.8125 C -0.242188 3.8125 -0.8125 3.753906 -1.34375 3.640625 L -1.34375 1.09375 C -1.164062 1.125 -0.976562 1.160156 -0.78125 1.203125 C -0.582031 1.242188 -0.367188 1.265625 -0.140625 1.265625 C 0.410156 1.265625 0.800781 1.097656 1.03125 0.765625 C 1.257812 0.441406 1.375 -0.113281 1.375 -0.90625 L 1.375 -12.140625 L 4.671875 -12.140625 L 4.671875 -1.1875 C 4.671875 0.457031 4.3125 1.703125 3.59375 2.546875 C 2.875 3.390625 1.796875 3.8125 0.359375 3.8125 Z M 0.359375 3.8125 "/></g></g></g><g fill="#000000" fill-opacity="1"><g transform="translate(304.240724, 338.266644)"><g><path d="M 10.109375 -4.71875 C 10.109375 -3.1875 9.691406 -1.988281 8.859375 -1.125 C 8.035156 -0.257812 6.878906 0.171875 5.390625 0.171875 C 3.960938 0.171875 2.828125 -0.265625 1.984375 -1.140625 C 1.140625 -2.023438 0.71875 -3.21875 0.71875 -4.71875 C 0.71875 -6.25 1.128906 -7.441406 1.953125 -8.296875 C 2.785156 -9.148438 3.945312 -9.578125 5.4375 -9.578125 C 6.363281 -9.578125 7.179688 -9.378906 7.890625 -8.984375 C 8.597656 -8.585938 9.144531 -8.019531 9.53125 -7.28125 C 9.914062 -6.550781 10.109375 -5.695312 10.109375 -4.71875 Z M 4.015625 -4.71875 C 4.015625 -3.914062 4.117188 -3.300781 4.328125 -2.875 C 4.546875 -2.445312 4.910156 -2.234375 5.421875 -2.234375 C 5.921875 -2.234375 6.273438 -2.445312 6.484375 -2.875 C 6.691406 -3.300781 6.796875 -3.914062 6.796875 -4.71875 C 6.796875 -5.519531 6.691406 -6.125 6.484375 -6.53125 C 6.273438 -6.945312 5.914062 -7.15625 5.40625 -7.15625 C 4.90625 -7.15625 4.546875 -6.953125 4.328125 -6.546875 C 4.117188 -6.140625 4.015625 -5.53125 4.015625 -4.71875 Z M 4.015625 -4.71875 "/></g></g></g><g fill="#000000" fill-opacity="1"><g transform="translate(315.068265, 338.266644)"><g><path d="M 9.21875 0 L 8.15625 -4.484375 L 7.90625 -5.828125 L 7.734375 -6.921875 L 7.6875 -6.921875 C 7.414062 -5.367188 7.234375 -4.394531 7.140625 -4 L 6.1875 0 L 2.765625 0 L 0.203125 -9.40625 L 3.40625 -9.40625 L 4.171875 -5.796875 C 4.410156 -4.554688 4.550781 -3.523438 4.59375 -2.703125 L 4.640625 -2.703125 C 4.660156 -3.210938 4.8125 -4.179688 5.09375 -5.609375 L 5.96875 -9.40625 L 9.546875 -9.40625 L 10.34375 -5.5625 C 10.601562 -4.34375 10.765625 -3.390625 10.828125 -2.703125 L 10.875 -2.703125 C 10.914062 -3.128906 10.972656 -3.65625 11.046875 -4.28125 C 11.128906 -4.90625 11.21875 -5.410156 11.3125 -5.796875 L 12.140625 -9.40625 L 15.265625 -9.40625 L 12.6875 0 Z M 9.21875 0 "/></g></g></g><g fill="#000000" fill-opacity="1"><g transform="translate(296.711737, 361.516642)"><g><path d="M 11.609375 -6.328125 C 11.609375 -4.296875 11.050781 -2.734375 9.9375 -1.640625 C 8.820312 -0.546875 7.253906 0 5.234375 0 L 1.3125 0 L 1.3125 -12.140625 L 5.515625 -12.140625 C 7.460938 -12.140625 8.960938 -11.640625 10.015625 -10.640625 C 11.078125 -9.640625 11.609375 -8.203125 11.609375 -6.328125 Z M 8.203125 -6.203125 C 8.203125 -7.316406 7.984375 -8.140625 7.546875 -8.671875 C 7.109375 -9.210938 6.441406 -9.484375 5.546875 -9.484375 L 4.59375 -9.484375 L 4.59375 -2.6875 L 5.328125 -2.6875 C 6.316406 -2.6875 7.039062 -2.972656 7.5 -3.546875 C 7.96875 -4.128906 8.203125 -5.015625 8.203125 -6.203125 Z M 8.203125 -6.203125 "/></g></g></g><g fill="#000000" fill-opacity="1"><g transform="translate(309.182077, 361.516642)"><g><path d="M 11.71875 0 L 8.421875 0 L 8.421875 -4.953125 L 4.609375 -4.953125 L 4.609375 0 L 1.3125 0 L 1.3125 -12.140625 L 4.609375 -12.140625 L 4.609375 -7.640625 L 8.421875 -7.640625 L 8.421875 -12.140625 L 11.71875 -12.140625 Z M 11.71875 0 "/></g></g></g><g fill="#000000" fill-opacity="1"><g transform="translate(322.200016, 361.516642)"><g><path d="M 1.3125 0 L 1.3125 -12.140625 L 4.59375 -12.140625 L 4.59375 -2.640625 L 9.265625 -2.640625 L 9.265625 0 Z M 1.3125 0 "/></g></g></g></svg>