<svg xmlns="http://www.w3.org/2000/svg" xmlns:xlink="http://www.w3.org/1999/xlink" width="800" zoomAndPan="magnify" viewBox="0 0 600 449.999984" height="600" preserveAspectRatio="xMidYMid meet" version="1.0"><defs><g/><clipPath id="6c11bbe481"><path d="M 17.011719 40.371094 L 581.757812 40.371094 L 581.757812 384.621094 L 17.011719 384.621094 Z M 17.011719 40.371094 " clip-rule="nonzero"/></clipPath><clipPath id="c1d7485af2"><path d="M 299.382812 40.371094 C 143.433594 40.371094 17.011719 117.433594 17.011719 212.496094 C 17.011719 307.554688 143.433594 384.621094 299.382812 384.621094 C 455.328125 384.621094 581.75 307.554688 581.75 212.496094 C 581.75 117.433594 455.328125 40.371094 299.382812 40.371094 " clip-rule="nonzero"/></clipPath><clipPath id="bd6f3b3b30"><path d="M 71.886719 114.792969 L 402.625 114.792969 L 402.625 276.792969 L 71.886719 276.792969 Z M 71.886719 114.792969 " clip-rule="nonzero"/></clipPath><clipPath id="8a7b2c719c"><path d="M 237.25 114.792969 C 145.921875 114.792969 71.886719 151.054688 71.886719 195.792969 C 71.886719 240.527344 145.921875 276.792969 237.25 276.792969 C 328.578125 276.792969 402.613281 240.527344 402.613281 195.792969 C 402.613281 151.054688 328.578125 114.792969 237.25 114.792969 " clip-rule="nonzero"/></clipPath><clipPath id="b133d98404"><path d="M 117.75 137.890625 L 318.75 137.890625 L 318.75 212.890625 L 117.75 212.890625 Z M 117.75 137.890625 " clip-rule="nonzero"/></clipPath><clipPath id="f4b46ba4be"><path d="M 218.25 137.890625 C 162.746094 137.890625 117.75 154.679688 117.75 175.390625 C 117.75 196.101562 162.746094 212.890625 218.25 212.890625 C 273.753906 212.890625 318.75 196.101562 318.75 175.390625 C 318.75 154.679688 273.753906 137.890625 218.25 137.890625 " clip-rule="nonzero"/></clipPath><clipPath id="a08f23479a"><path d="M 290.402344 114.792969 L 514.648438 114.792969 L 514.648438 204.792969 L 290.402344 204.792969 Z M 290.402344 114.792969 " clip-rule="nonzero"/></clipPath><clipPath id="b7831335e8"><path d="M 402.523438 114.792969 C 340.601562 114.792969 290.402344 134.9375 290.402344 159.792969 C 290.402344 184.644531 340.601562 204.792969 402.523438 204.792969 C 464.449219 204.792969 514.648438 184.644531 514.648438 159.792969 C 514.648438 134.9375 464.449219 114.792969 402.523438 114.792969 " clip-rule="nonzero"/></clipPath></defs><rect x="-60" width="720" fill="#ffffff" y="-44.999998" height="539.99998" fill-opacity="1"/><rect x="-60" width="720" fill="#ffffff" y="-44.999998" height="539.99998" fill-opacity="1"/><rect x="-60" width="720" fill="#ffffff" y="-44.999998" height="539.99998" fill-opacity="1"/><g clip-path="url(#6c11bbe481)"><g clip-path="url(#c1d7485af2)"><path stroke-linecap="butt" transform="matrix(0.750218, 0, 0, 0.749872, 17.01252, 40.3696)" fill="none" stroke-linejoin="miter" d="M 376.384342 0.00199193 C 168.51246 0.00199193 -0.00106795 102.769485 -0.00106795 229.541065 C -0.00106795 356.307435 168.51246 459.080137 376.384342 459.080137 C 584.251018 459.080137 752.764546 356.307435 752.764546 229.541065 C 752.764546 102.769485 584.251018 0.00199193 376.384342 0.00199193 " stroke="#000000" stroke-width="2" stroke-opacity="1" stroke-miterlimit="4"/></g></g><g clip-path="url(#bd6f3b3b30)"><g clip-path="url(#8a7b2c719c)"><path stroke-linecap="butt" transform="matrix(0.750612, 0, 0, 0.749837, 71.885571, 114.791657)" fill="none" stroke-linejoin="miter" d="M 220.30623 0.00174877 C 98.634629 0.00174877 0.00152926 48.3612 0.00152926 108.025187 C 0.00152926 167.683965 98.634629 216.048625 220.30623 216.048625 C 341.977832 216.048625 440.610931 167.683965 440.610931 108.025187 C 440.610931 48.3612 341.977832 0.00174877 220.30623 0.00174877 " stroke="#000000" stroke-width="2" stroke-opacity="1" stroke-miterlimit="4"/></g></g><g clip-path="url(#b133d98404)"><g clip-path="url(#f4b46ba4be)"><path stroke-linecap="butt" transform="matrix(0.750963, 0, 0, 0.75365, 117.749898, 137.89058)" fill="none" stroke-linejoin="miter" d="M 133.828276 0.0000590992 C 59.917982 0.0000590992 0.000135166 22.277048 0.000135166 49.757875 C 0.000135166 77.238703 59.917982 99.515692 133.828276 99.515692 C 207.73857 99.515692 267.656417 77.238703 267.656417 49.757875 C 267.656417 22.277048 207.73857 0.0000590992 133.828276 0.0000590992 " stroke="#000000" stroke-width="2" stroke-opacity="1" stroke-miterlimit="4"/></g></g><g clip-path="url(#a08f23479a)"><g clip-path="url(#b7831335e8)"><path stroke-linecap="butt" transform="matrix(0.751138, 0, 0, 0.752548, 290.402391, 114.791657)" fill="none" stroke-linejoin="miter" d="M 149.268173 0.00174247 C 66.830795 0.00174247 -0.0000624353 26.77019 -0.0000624353 59.798623 C -0.0000624353 92.821866 66.830795 119.595504 149.268173 119.595504 C 231.710752 119.595504 298.541609 92.821866 298.541609 59.798623 C 298.541609 26.77019 231.710752 0.00174247 149.268173 0.00174247 " stroke="#000000" stroke-width="2" stroke-opacity="1" stroke-miterlimit="4"/></g></g><g fill="#000000" fill-opacity="1"><g transform="translate(259.973282, 339.362522)"><g><path d="M 12.875 -4.96875 C 12.875 -3.945312 12.65625 -3.035156 12.21875 -2.234375 C 11.789062 -1.429688 11.144531 -0.800781 10.28125 -0.34375 C 9.425781 0.101562 8.394531 0.328125 7.1875 0.328125 C 5.375 0.328125 3.984375 -0.148438 3.015625 -1.109375 C 2.046875 -2.066406 1.5625 -3.351562 1.5625 -4.96875 L 1.5625 -15.203125 L 4.46875 -15.203125 L 4.46875 -5.125 C 4.46875 -4.050781 4.691406 -3.25 5.140625 -2.71875 C 5.585938 -2.195312 6.269531 -1.9375 7.1875 -1.9375 C 8.132812 -1.9375 8.828125 -2.195312 9.265625 -2.71875 C 9.710938 -3.25 9.9375 -4.050781 9.9375 -5.125 L 9.9375 -15.203125 L 12.875 -15.203125 Z M 12.875 -4.96875 "/></g></g></g><g fill="#000000" fill-opacity="1"><g transform="translate(274.402713, 339.362522)"><g><path d="M 7.71875 -11.96875 C 9.070312 -11.96875 10.128906 -11.425781 10.890625 -10.34375 C 11.648438 -9.269531 12.03125 -7.765625 12.03125 -5.828125 C 12.03125 -4.628906 11.84375 -3.5625 11.46875 -2.625 C 11.09375 -1.695312 10.5625 -0.972656 9.875 -0.453125 C 9.1875 0.0664062 8.375 0.328125 7.4375 0.328125 C 6.800781 0.328125 6.222656 0.195312 5.703125 -0.0625 C 5.179688 -0.332031 4.734375 -0.707031 4.359375 -1.1875 L 4.1875 0 L 1.6875 0 L 1.6875 -16.296875 L 4.515625 -16.609375 L 4.515625 -10.3125 C 4.890625 -10.84375 5.351562 -11.25 5.90625 -11.53125 C 6.457031 -11.820312 7.0625 -11.96875 7.71875 -11.96875 Z M 6.671875 -1.78125 C 7.429688 -1.78125 8.023438 -2.101562 8.453125 -2.75 C 8.878906 -3.40625 9.09375 -4.429688 9.09375 -5.828125 C 9.09375 -7.296875 8.890625 -8.332031 8.484375 -8.9375 C 8.085938 -9.550781 7.53125 -9.859375 6.8125 -9.859375 C 5.925781 -9.859375 5.160156 -9.328125 4.515625 -8.265625 L 4.515625 -3.125 C 4.765625 -2.695312 5.070312 -2.363281 5.4375 -2.125 C 5.8125 -1.894531 6.222656 -1.78125 6.671875 -1.78125 Z M 6.671875 -1.78125 "/></g></g></g><g fill="#000000" fill-opacity="1"><g transform="translate(287.512377, 339.362522)"><g><path d="M 11.234375 -6.09375 C 11.234375 -5.945312 11.210938 -5.566406 11.171875 -4.953125 L 3.875 -4.953125 C 3.957031 -3.816406 4.25 -3.003906 4.75 -2.515625 C 5.25 -2.035156 5.910156 -1.796875 6.734375 -1.796875 C 7.242188 -1.796875 7.722656 -1.878906 8.171875 -2.046875 C 8.628906 -2.222656 9.117188 -2.488281 9.640625 -2.84375 L 10.796875 -1.234375 C 9.503906 -0.191406 8.066406 0.328125 6.484375 0.328125 C 4.710938 0.328125 3.347656 -0.210938 2.390625 -1.296875 C 1.429688 -2.378906 0.953125 -3.859375 0.953125 -5.734375 C 0.953125 -6.929688 1.15625 -8 1.5625 -8.9375 C 1.96875 -9.882812 2.5625 -10.625 3.34375 -11.15625 C 4.125 -11.695312 5.046875 -11.96875 6.109375 -11.96875 C 7.742188 -11.96875 9.003906 -11.445312 9.890625 -10.40625 C 10.785156 -9.375 11.234375 -7.9375 11.234375 -6.09375 Z M 8.453125 -6.90625 C 8.453125 -8.945312 7.695312 -9.96875 6.1875 -9.96875 C 5.488281 -9.96875 4.945312 -9.710938 4.5625 -9.203125 C 4.175781 -8.703125 3.945312 -7.894531 3.875 -6.78125 L 8.453125 -6.78125 Z M 7.859375 -18.046875 L 9 -15.84375 L 4.03125 -13.859375 L 3.234375 -15.296875 Z M 7.859375 -18.046875 "/></g></g></g><g fill="#000000" fill-opacity="1"><g transform="translate(299.588227, 339.362522)"><g><path d="M 7.4375 -11.953125 C 7.863281 -11.953125 8.253906 -11.898438 8.609375 -11.796875 L 8.125 -9.0625 C 7.769531 -9.15625 7.421875 -9.203125 7.078125 -9.203125 C 6.390625 -9.203125 5.847656 -8.953125 5.453125 -8.453125 C 5.054688 -7.960938 4.742188 -7.210938 4.515625 -6.203125 L 4.515625 0 L 1.6875 0 L 1.6875 -11.640625 L 4.140625 -11.640625 L 4.40625 -9.34375 C 4.675781 -10.1875 5.078125 -10.832031 5.609375 -11.28125 C 6.140625 -11.726562 6.75 -11.953125 7.4375 -11.953125 Z M 7.4375 -11.953125 "/></g></g></g><g fill="#000000" fill-opacity="1"><g transform="translate(308.254677, 339.362522)"><g><path d="M 4.515625 -11.640625 L 4.515625 0 L 1.6875 0 L 1.6875 -11.640625 Z M 3.078125 -17.53125 C 3.597656 -17.53125 4.023438 -17.363281 4.359375 -17.03125 C 4.691406 -16.707031 4.859375 -16.300781 4.859375 -15.8125 C 4.859375 -15.332031 4.691406 -14.929688 4.359375 -14.609375 C 4.023438 -14.285156 3.597656 -14.125 3.078125 -14.125 C 2.554688 -14.125 2.128906 -14.285156 1.796875 -14.609375 C 1.472656 -14.929688 1.3125 -15.332031 1.3125 -15.8125 C 1.3125 -16.300781 1.472656 -16.707031 1.796875 -17.03125 C 2.128906 -17.363281 2.554688 -17.53125 3.078125 -17.53125 Z M 3.078125 -17.53125 "/></g></g></g><g fill="#000000" fill-opacity="1"><g transform="translate(314.457569, 339.362522)"><g><path d="M 5.375 -11.96875 C 6.9375 -11.96875 8.3125 -11.503906 9.5 -10.578125 L 8.40625 -8.9375 C 7.40625 -9.5625 6.429688 -9.875 5.484375 -9.875 C 4.921875 -9.875 4.484375 -9.765625 4.171875 -9.546875 C 3.867188 -9.335938 3.71875 -9.0625 3.71875 -8.71875 C 3.71875 -8.445312 3.78125 -8.222656 3.90625 -8.046875 C 4.039062 -7.867188 4.28125 -7.703125 4.625 -7.546875 C 4.96875 -7.398438 5.476562 -7.234375 6.15625 -7.046875 C 7.414062 -6.703125 8.347656 -6.25 8.953125 -5.6875 C 9.566406 -5.132812 9.875 -4.359375 9.875 -3.359375 C 9.875 -2.203125 9.40625 -1.296875 8.46875 -0.640625 C 7.53125 0.00390625 6.363281 0.328125 4.96875 0.328125 C 4.019531 0.328125 3.148438 0.179688 2.359375 -0.109375 C 1.578125 -0.398438 0.898438 -0.800781 0.328125 -1.3125 L 1.734375 -2.90625 C 2.742188 -2.144531 3.800781 -1.765625 4.90625 -1.765625 C 5.539062 -1.765625 6.039062 -1.890625 6.40625 -2.140625 C 6.78125 -2.390625 6.96875 -2.734375 6.96875 -3.171875 C 6.96875 -3.503906 6.898438 -3.769531 6.765625 -3.96875 C 6.628906 -4.164062 6.378906 -4.34375 6.015625 -4.5 C 5.660156 -4.65625 5.097656 -4.84375 4.328125 -5.0625 C 3.140625 -5.382812 2.265625 -5.832031 1.703125 -6.40625 C 1.148438 -6.988281 0.875 -7.710938 0.875 -8.578125 C 0.875 -9.222656 1.0625 -9.800781 1.4375 -10.3125 C 1.8125 -10.832031 2.335938 -11.238281 3.015625 -11.53125 C 3.703125 -11.820312 4.488281 -11.96875 5.375 -11.96875 Z M 5.375 -11.96875 "/></g></g></g><g fill="#000000" fill-opacity="1"><g transform="translate(324.927699, 339.362522)"><g><path d="M 10.296875 -3.078125 C 10.296875 -2.617188 10.363281 -2.285156 10.5 -2.078125 C 10.644531 -1.867188 10.867188 -1.703125 11.171875 -1.578125 L 10.578125 0.28125 C 9.921875 0.226562 9.382812 0.0703125 8.96875 -0.1875 C 8.550781 -0.457031 8.234375 -0.863281 8.015625 -1.40625 C 7.609375 -0.820312 7.109375 -0.382812 6.515625 -0.09375 C 5.921875 0.1875 5.257812 0.328125 4.53125 0.328125 C 3.375 0.328125 2.457031 0 1.78125 -0.65625 C 1.101562 -1.320312 0.765625 -2.1875 0.765625 -3.25 C 0.765625 -4.507812 1.222656 -5.472656 2.140625 -6.140625 C 3.054688 -6.816406 4.367188 -7.15625 6.078125 -7.15625 L 7.53125 -7.15625 L 7.53125 -7.8125 C 7.53125 -8.5625 7.351562 -9.082031 7 -9.375 C 6.65625 -9.675781 6.101562 -9.828125 5.34375 -9.828125 C 4.488281 -9.828125 3.460938 -9.625 2.265625 -9.21875 L 1.609375 -11.125 C 3.054688 -11.6875 4.460938 -11.96875 5.828125 -11.96875 C 8.804688 -11.96875 10.296875 -10.632812 10.296875 -7.96875 Z M 5.28125 -1.71875 C 6.226562 -1.71875 6.976562 -2.191406 7.53125 -3.140625 L 7.53125 -5.5 L 6.359375 -5.5 C 4.535156 -5.5 3.625 -4.820312 3.625 -3.46875 C 3.625 -2.914062 3.765625 -2.484375 4.046875 -2.171875 C 4.328125 -1.867188 4.738281 -1.71875 5.28125 -1.71875 Z M 5.28125 -1.71875 "/></g></g></g><g fill="#000000" fill-opacity="1"><g transform="translate(336.937563, 339.362522)"><g><path d="M 8.359375 -0.546875 C 7.953125 -0.253906 7.492188 -0.0351562 6.984375 0.109375 C 6.472656 0.253906 5.957031 0.328125 5.4375 0.328125 C 4.289062 0.316406 3.421875 -0.00390625 2.828125 -0.640625 C 2.234375 -1.285156 1.9375 -2.226562 1.9375 -3.46875 L 1.9375 -9.609375 L 0.109375 -9.609375 L 0.109375 -11.640625 L 1.9375 -11.640625 L 1.9375 -14.21875 L 4.75 -14.546875 L 4.75 -11.640625 L 7.453125 -11.640625 L 7.171875 -9.609375 L 4.75 -9.609375 L 4.75 -3.546875 C 4.75 -2.972656 4.847656 -2.5625 5.046875 -2.3125 C 5.242188 -2.0625 5.554688 -1.9375 5.984375 -1.9375 C 6.410156 -1.9375 6.875 -2.078125 7.375 -2.359375 Z M 8.359375 -0.546875 "/></g></g></g><g fill="#000000" fill-opacity="1"><g transform="translate(345.186097, 339.362522)"><g><path d="M 4.515625 -11.640625 L 4.515625 0 L 1.6875 0 L 1.6875 -11.640625 Z M 3.078125 -17.53125 C 3.597656 -17.53125 4.023438 -17.363281 4.359375 -17.03125 C 4.691406 -16.707031 4.859375 -16.300781 4.859375 -15.8125 C 4.859375 -15.332031 4.691406 -14.929688 4.359375 -14.609375 C 4.023438 -14.285156 3.597656 -14.125 3.078125 -14.125 C 2.554688 -14.125 2.128906 -14.285156 1.796875 -14.609375 C 1.472656 -14.929688 1.3125 -15.332031 1.3125 -15.8125 C 1.3125 -16.300781 1.472656 -16.707031 1.796875 -17.03125 C 2.128906 -17.363281 2.554688 -17.53125 3.078125 -17.53125 Z M 3.078125 -17.53125 "/></g></g></g><g fill="#000000" fill-opacity="1"><g transform="translate(351.388989, 339.362522)"><g><path d="M 6.453125 -11.96875 C 8.160156 -11.96875 9.492188 -11.421875 10.453125 -10.328125 C 11.421875 -9.234375 11.90625 -7.734375 11.90625 -5.828125 C 11.90625 -4.609375 11.679688 -3.53125 11.234375 -2.59375 C 10.796875 -1.664062 10.164062 -0.945312 9.34375 -0.4375 C 8.53125 0.0703125 7.554688 0.328125 6.421875 0.328125 C 4.703125 0.328125 3.359375 -0.21875 2.390625 -1.3125 C 1.429688 -2.40625 0.953125 -3.910156 0.953125 -5.828125 C 0.953125 -7.046875 1.171875 -8.113281 1.609375 -9.03125 C 2.046875 -9.957031 2.675781 -10.675781 3.5 -11.1875 C 4.332031 -11.707031 5.316406 -11.96875 6.453125 -11.96875 Z M 6.453125 -9.828125 C 4.765625 -9.828125 3.921875 -8.492188 3.921875 -5.828125 C 3.921875 -4.453125 4.128906 -3.4375 4.546875 -2.78125 C 4.960938 -2.125 5.585938 -1.796875 6.421875 -1.796875 C 7.253906 -1.796875 7.878906 -2.125 8.296875 -2.78125 C 8.722656 -3.445312 8.9375 -4.460938 8.9375 -5.828125 C 8.9375 -7.191406 8.722656 -8.195312 8.296875 -8.84375 C 7.878906 -9.5 7.265625 -9.828125 6.453125 -9.828125 Z M 6.453125 -9.828125 "/></g></g></g><g fill="#000000" fill-opacity="1"><g transform="translate(364.234695, 339.362522)"><g><path d="M 7.890625 -11.96875 C 8.929688 -11.96875 9.742188 -11.65625 10.328125 -11.03125 C 10.910156 -10.40625 11.203125 -9.535156 11.203125 -8.421875 L 11.203125 0 L 8.375 0 L 8.375 -7.984375 C 8.375 -8.671875 8.253906 -9.15625 8.015625 -9.4375 C 7.773438 -9.71875 7.421875 -9.859375 6.953125 -9.859375 C 6.460938 -9.859375 6.023438 -9.707031 5.640625 -9.40625 C 5.253906 -9.101562 4.878906 -8.664062 4.515625 -8.09375 L 4.515625 0 L 1.6875 0 L 1.6875 -11.640625 L 4.140625 -11.640625 L 4.359375 -10.125 C 5.304688 -11.351562 6.484375 -11.96875 7.890625 -11.96875 Z M 7.890625 -11.96875 "/></g></g></g><g fill="#000000" fill-opacity="1"><g transform="translate(161.211283, 180.084389)"><g><path d="M 5.53125 -11.296875 C 6.53125 -11.296875 7.390625 -11.070312 8.109375 -10.625 C 8.835938 -10.175781 9.394531 -9.519531 9.78125 -8.65625 C 10.175781 -7.789062 10.375 -6.75 10.375 -5.53125 C 10.375 -4.332031 10.175781 -3.300781 9.78125 -2.4375 C 9.382812 -1.570312 8.820312 -0.910156 8.09375 -0.453125 C 7.375 0.00390625 6.519531 0.234375 5.53125 0.234375 C 4.539062 0.234375 3.679688 0.0078125 2.953125 -0.4375 C 2.234375 -0.882812 1.675781 -1.539062 1.28125 -2.40625 C 0.882812 -3.269531 0.6875 -4.304688 0.6875 -5.515625 C 0.6875 -6.710938 0.882812 -7.742188 1.28125 -8.609375 C 1.675781 -9.484375 2.238281 -10.148438 2.96875 -10.609375 C 3.695312 -11.066406 4.550781 -11.296875 5.53125 -11.296875 Z M 5.53125 -9.6875 C 4.675781 -9.6875 4.023438 -9.351562 3.578125 -8.6875 C 3.128906 -8.019531 2.90625 -6.960938 2.90625 -5.515625 C 2.90625 -2.753906 3.78125 -1.375 5.53125 -1.375 C 6.382812 -1.375 7.03125 -1.703125 7.46875 -2.359375 C 7.914062 -3.023438 8.140625 -4.082031 8.140625 -5.53125 C 8.140625 -6.976562 7.914062 -8.03125 7.46875 -8.6875 C 7.03125 -9.351562 6.382812 -9.6875 5.53125 -9.6875 Z M 5.53125 -9.6875 "/></g></g></g><g fill="#000000" fill-opacity="1"><g transform="translate(172.264627, 180.084389)"><g><path d="M 4.65625 -10.53125 C 4.25 -10.53125 3.957031 -10.4375 3.78125 -10.25 C 3.601562 -10.0625 3.515625 -9.765625 3.515625 -9.359375 L 3.515625 -8.46875 L 5.546875 -8.46875 L 5.328125 -6.984375 L 3.515625 -6.984375 L 3.515625 0 L 1.46875 0 L 1.46875 -6.984375 L 0.09375 -6.984375 L 0.09375 -8.46875 L 1.46875 -8.46875 L 1.46875 -9.390625 C 1.46875 -10.191406 1.726562 -10.835938 2.25 -11.328125 C 2.769531 -11.828125 3.503906 -12.078125 4.453125 -12.078125 C 5.191406 -12.078125 5.921875 -11.910156 6.640625 -11.578125 L 6.046875 -10.203125 C 5.585938 -10.421875 5.125 -10.53125 4.65625 -10.53125 Z M 4.65625 -10.53125 "/></g></g></g><g fill="#000000" fill-opacity="1"><g transform="translate(177.815297, 180.084389)"><g><path d="M 4.65625 -10.53125 C 4.25 -10.53125 3.957031 -10.4375 3.78125 -10.25 C 3.601562 -10.0625 3.515625 -9.765625 3.515625 -9.359375 L 3.515625 -8.46875 L 5.546875 -8.46875 L 5.328125 -6.984375 L 3.515625 -6.984375 L 3.515625 0 L 1.46875 0 L 1.46875 -6.984375 L 0.09375 -6.984375 L 0.09375 -8.46875 L 1.46875 -8.46875 L 1.46875 -9.390625 C 1.46875 -10.191406 1.726562 -10.835938 2.25 -11.328125 C 2.769531 -11.828125 3.503906 -12.078125 4.453125 -12.078125 C 5.191406 -12.078125 5.921875 -11.910156 6.640625 -11.578125 L 6.046875 -10.203125 C 5.585938 -10.421875 5.125 -10.53125 4.65625 -10.53125 Z M 4.65625 -10.53125 "/></g></g></g><g fill="#000000" fill-opacity="1"><g transform="translate(183.365968, 180.084389)"><g><path d="M 5.40625 -8.6875 C 5.71875 -8.6875 6 -8.648438 6.25 -8.578125 L 5.90625 -6.59375 C 5.644531 -6.65625 5.394531 -6.6875 5.15625 -6.6875 C 4.65625 -6.6875 4.257812 -6.503906 3.96875 -6.140625 C 3.675781 -5.785156 3.445312 -5.242188 3.28125 -4.515625 L 3.28125 0 L 1.234375 0 L 1.234375 -8.46875 L 3.015625 -8.46875 L 3.203125 -6.796875 C 3.398438 -7.410156 3.691406 -7.878906 4.078125 -8.203125 C 4.460938 -8.523438 4.90625 -8.6875 5.40625 -8.6875 Z M 5.40625 -8.6875 "/></g></g></g><g fill="#000000" fill-opacity="1"><g transform="translate(189.668457, 180.084389)"><g><path d="M 8.171875 -4.4375 C 8.171875 -4.320312 8.15625 -4.039062 8.125 -3.59375 L 2.8125 -3.59375 C 2.875 -2.78125 3.085938 -2.195312 3.453125 -1.84375 C 3.816406 -1.488281 4.296875 -1.3125 4.890625 -1.3125 C 5.265625 -1.3125 5.617188 -1.375 5.953125 -1.5 C 6.285156 -1.625 6.640625 -1.8125 7.015625 -2.0625 L 7.859375 -0.890625 C 6.921875 -0.140625 5.875 0.234375 4.71875 0.234375 C 3.425781 0.234375 2.429688 -0.15625 1.734375 -0.9375 C 1.035156 -1.726562 0.6875 -2.804688 0.6875 -4.171875 C 0.6875 -5.035156 0.832031 -5.8125 1.125 -6.5 C 1.425781 -7.1875 1.859375 -7.722656 2.421875 -8.109375 C 2.992188 -8.503906 3.671875 -8.703125 4.453125 -8.703125 C 5.628906 -8.703125 6.539062 -8.328125 7.1875 -7.578125 C 7.84375 -6.828125 8.171875 -5.78125 8.171875 -4.4375 Z M 6.140625 -5.03125 C 6.140625 -6.507812 5.59375 -7.25 4.5 -7.25 C 4 -7.25 3.601562 -7.0625 3.3125 -6.6875 C 3.03125 -6.320312 2.863281 -5.734375 2.8125 -4.921875 L 6.140625 -4.921875 Z M 6.140625 -5.03125 "/></g></g></g><g fill="#000000" fill-opacity="1"><g transform="translate(198.450344, 180.084389)"><g><path d="M 3.90625 -8.703125 C 5.039062 -8.703125 6.039062 -8.367188 6.90625 -7.703125 L 6.109375 -6.5 C 5.390625 -6.957031 4.679688 -7.1875 3.984375 -7.1875 C 3.578125 -7.1875 3.257812 -7.109375 3.03125 -6.953125 C 2.8125 -6.796875 2.703125 -6.59375 2.703125 -6.34375 C 2.703125 -6.144531 2.75 -5.976562 2.84375 -5.84375 C 2.9375 -5.71875 3.109375 -5.597656 3.359375 -5.484375 C 3.617188 -5.378906 3.992188 -5.257812 4.484375 -5.125 C 5.398438 -4.875 6.078125 -4.546875 6.515625 -4.140625 C 6.960938 -3.734375 7.1875 -3.171875 7.1875 -2.453125 C 7.1875 -1.609375 6.84375 -0.945312 6.15625 -0.46875 C 5.476562 0 4.628906 0.234375 3.609375 0.234375 C 2.921875 0.234375 2.289062 0.128906 1.71875 -0.078125 C 1.144531 -0.296875 0.648438 -0.585938 0.234375 -0.953125 L 1.265625 -2.109375 C 2.003906 -1.554688 2.769531 -1.28125 3.5625 -1.28125 C 4.019531 -1.28125 4.382812 -1.367188 4.65625 -1.546875 C 4.9375 -1.734375 5.078125 -1.984375 5.078125 -2.296875 C 5.078125 -2.546875 5.023438 -2.742188 4.921875 -2.890625 C 4.816406 -3.035156 4.632812 -3.160156 4.375 -3.265625 C 4.113281 -3.378906 3.707031 -3.519531 3.15625 -3.6875 C 2.289062 -3.914062 1.65625 -4.238281 1.25 -4.65625 C 0.84375 -5.082031 0.640625 -5.609375 0.640625 -6.234375 C 0.640625 -6.703125 0.773438 -7.125 1.046875 -7.5 C 1.316406 -7.875 1.695312 -8.164062 2.1875 -8.375 C 2.6875 -8.59375 3.257812 -8.703125 3.90625 -8.703125 Z M 3.90625 -8.703125 "/></g></g></g><g fill="#000000" fill-opacity="1"><g transform="translate(206.064509, 180.084389)"><g><path d="M 5.15625 -12.984375 L 6.90625 -12.59375 L 3.1875 1.734375 L 1.40625 1.3125 Z M 5.15625 -12.984375 "/></g></g></g><g fill="#000000" fill-opacity="1"><g transform="translate(214.38251, 180.084389)"><g><path d="M 4.484375 -11.296875 C 5.253906 -11.296875 5.925781 -11.179688 6.5 -10.953125 C 7.082031 -10.734375 7.625 -10.394531 8.125 -9.9375 L 7.09375 -8.734375 C 6.695312 -9.066406 6.296875 -9.304688 5.890625 -9.453125 C 5.492188 -9.609375 5.066406 -9.6875 4.609375 -9.6875 C 4.097656 -9.6875 3.679688 -9.566406 3.359375 -9.328125 C 3.046875 -9.097656 2.890625 -8.78125 2.890625 -8.375 C 2.890625 -8.09375 2.953125 -7.859375 3.078125 -7.671875 C 3.203125 -7.492188 3.421875 -7.320312 3.734375 -7.15625 C 4.054688 -7 4.535156 -6.828125 5.171875 -6.640625 C 6.253906 -6.296875 7.070312 -5.867188 7.625 -5.359375 C 8.175781 -4.859375 8.453125 -4.125 8.453125 -3.15625 C 8.453125 -2.488281 8.28125 -1.898438 7.9375 -1.390625 C 7.601562 -0.878906 7.117188 -0.476562 6.484375 -0.1875 C 5.859375 0.09375 5.113281 0.234375 4.25 0.234375 C 3.40625 0.234375 2.648438 0.0976562 1.984375 -0.171875 C 1.316406 -0.441406 0.742188 -0.8125 0.265625 -1.28125 L 1.359375 -2.5 C 1.785156 -2.132812 2.226562 -1.859375 2.6875 -1.671875 C 3.144531 -1.484375 3.648438 -1.390625 4.203125 -1.390625 C 4.816406 -1.390625 5.304688 -1.53125 5.671875 -1.8125 C 6.046875 -2.101562 6.234375 -2.515625 6.234375 -3.046875 C 6.234375 -3.359375 6.171875 -3.617188 6.046875 -3.828125 C 5.921875 -4.035156 5.703125 -4.222656 5.390625 -4.390625 C 5.078125 -4.554688 4.628906 -4.726562 4.046875 -4.90625 C 2.867188 -5.269531 2.019531 -5.707031 1.5 -6.21875 C 0.976562 -6.726562 0.71875 -7.398438 0.71875 -8.234375 C 0.71875 -8.847656 0.878906 -9.382812 1.203125 -9.84375 C 1.523438 -10.300781 1.96875 -10.65625 2.53125 -10.90625 C 3.101562 -11.164062 3.753906 -11.296875 4.484375 -11.296875 Z M 4.484375 -11.296875 "/></g></g></g><g fill="#000000" fill-opacity="1"><g transform="translate(223.34036, 180.084389)"><g><path d="M 8.171875 -4.4375 C 8.171875 -4.320312 8.15625 -4.039062 8.125 -3.59375 L 2.8125 -3.59375 C 2.875 -2.78125 3.085938 -2.195312 3.453125 -1.84375 C 3.816406 -1.488281 4.296875 -1.3125 4.890625 -1.3125 C 5.265625 -1.3125 5.617188 -1.375 5.953125 -1.5 C 6.285156 -1.625 6.640625 -1.8125 7.015625 -2.0625 L 7.859375 -0.890625 C 6.921875 -0.140625 5.875 0.234375 4.71875 0.234375 C 3.425781 0.234375 2.429688 -0.15625 1.734375 -0.9375 C 1.035156 -1.726562 0.6875 -2.804688 0.6875 -4.171875 C 0.6875 -5.035156 0.832031 -5.8125 1.125 -6.5 C 1.425781 -7.1875 1.859375 -7.722656 2.421875 -8.109375 C 2.992188 -8.503906 3.671875 -8.703125 4.453125 -8.703125 C 5.628906 -8.703125 6.539062 -8.328125 7.1875 -7.578125 C 7.84375 -6.828125 8.171875 -5.78125 8.171875 -4.4375 Z M 6.140625 -5.03125 C 6.140625 -6.507812 5.59375 -7.25 4.5 -7.25 C 4 -7.25 3.601562 -7.0625 3.3125 -6.6875 C 3.03125 -6.320312 2.863281 -5.734375 2.8125 -4.921875 L 6.140625 -4.921875 Z M 6.140625 -5.03125 "/></g></g></g><g fill="#000000" fill-opacity="1"><g transform="translate(232.122247, 180.084389)"><g><path d="M 5.40625 -8.6875 C 5.71875 -8.6875 6 -8.648438 6.25 -8.578125 L 5.90625 -6.59375 C 5.644531 -6.65625 5.394531 -6.6875 5.15625 -6.6875 C 4.65625 -6.6875 4.257812 -6.503906 3.96875 -6.140625 C 3.675781 -5.785156 3.445312 -5.242188 3.28125 -4.515625 L 3.28125 0 L 1.234375 0 L 1.234375 -8.46875 L 3.015625 -8.46875 L 3.203125 -6.796875 C 3.398438 -7.410156 3.691406 -7.878906 4.078125 -8.203125 C 4.460938 -8.523438 4.90625 -8.6875 5.40625 -8.6875 Z M 5.40625 -8.6875 "/></g></g></g><g fill="#000000" fill-opacity="1"><g transform="translate(238.424736, 180.084389)"><g><path d="M 8.03125 -8.46875 L 5.28125 0 L 2.828125 0 L 0.03125 -8.46875 L 2.25 -8.46875 L 4.0625 -1.640625 L 5.921875 -8.46875 Z M 8.03125 -8.46875 "/></g></g></g><g fill="#000000" fill-opacity="1"><g transform="translate(246.486801, 180.084389)"><g><path d="M 3.28125 -8.46875 L 3.28125 0 L 1.234375 0 L 1.234375 -8.46875 Z M 2.234375 -12.75 C 2.617188 -12.75 2.929688 -12.628906 3.171875 -12.390625 C 3.410156 -12.148438 3.53125 -11.851562 3.53125 -11.5 C 3.53125 -11.144531 3.410156 -10.847656 3.171875 -10.609375 C 2.929688 -10.378906 2.617188 -10.265625 2.234375 -10.265625 C 1.859375 -10.265625 1.550781 -10.378906 1.3125 -10.609375 C 1.070312 -10.847656 0.953125 -11.144531 0.953125 -11.5 C 0.953125 -11.851562 1.070312 -12.148438 1.3125 -12.390625 C 1.550781 -12.628906 1.859375 -12.75 2.234375 -12.75 Z M 2.234375 -12.75 "/></g></g></g><g fill="#000000" fill-opacity="1"><g transform="translate(250.997718, 180.084389)"><g><path d="M 4.640625 -8.703125 C 5.191406 -8.703125 5.6875 -8.617188 6.125 -8.453125 C 6.570312 -8.296875 6.992188 -8.050781 7.390625 -7.71875 L 6.484375 -6.484375 C 6.191406 -6.691406 5.910156 -6.84375 5.640625 -6.9375 C 5.378906 -7.039062 5.085938 -7.09375 4.765625 -7.09375 C 3.492188 -7.09375 2.859375 -6.125 2.859375 -4.1875 C 2.859375 -3.207031 3.023438 -2.5 3.359375 -2.0625 C 3.691406 -1.632812 4.160156 -1.421875 4.765625 -1.421875 C 5.066406 -1.421875 5.34375 -1.46875 5.59375 -1.5625 C 5.84375 -1.664062 6.140625 -1.820312 6.484375 -2.03125 L 7.390625 -0.734375 C 6.585938 -0.0859375 5.675781 0.234375 4.65625 0.234375 C 3.84375 0.234375 3.132812 0.0546875 2.53125 -0.296875 C 1.9375 -0.648438 1.476562 -1.15625 1.15625 -1.8125 C 0.84375 -2.476562 0.6875 -3.257812 0.6875 -4.15625 C 0.6875 -5.050781 0.84375 -5.84375 1.15625 -6.53125 C 1.476562 -7.21875 1.9375 -7.75 2.53125 -8.125 C 3.132812 -8.507812 3.835938 -8.703125 4.640625 -8.703125 Z M 4.640625 -8.703125 "/></g></g></g><g fill="#000000" fill-opacity="1"><g transform="translate(258.643882, 180.084389)"><g><path d="M 8.171875 -4.4375 C 8.171875 -4.320312 8.15625 -4.039062 8.125 -3.59375 L 2.8125 -3.59375 C 2.875 -2.78125 3.085938 -2.195312 3.453125 -1.84375 C 3.816406 -1.488281 4.296875 -1.3125 4.890625 -1.3125 C 5.265625 -1.3125 5.617188 -1.375 5.953125 -1.5 C 6.285156 -1.625 6.640625 -1.8125 7.015625 -2.0625 L 7.859375 -0.890625 C 6.921875 -0.140625 5.875 0.234375 4.71875 0.234375 C 3.425781 0.234375 2.429688 -0.15625 1.734375 -0.9375 C 1.035156 -1.726562 0.6875 -2.804688 0.6875 -4.171875 C 0.6875 -5.035156 0.832031 -5.8125 1.125 -6.5 C 1.425781 -7.1875 1.859375 -7.722656 2.421875 -8.109375 C 2.992188 -8.503906 3.671875 -8.703125 4.453125 -8.703125 C 5.628906 -8.703125 6.539062 -8.328125 7.1875 -7.578125 C 7.84375 -6.828125 8.171875 -5.78125 8.171875 -4.4375 Z M 6.140625 -5.03125 C 6.140625 -6.507812 5.59375 -7.25 4.5 -7.25 C 4 -7.25 3.601562 -7.0625 3.3125 -6.6875 C 3.03125 -6.320312 2.863281 -5.734375 2.8125 -4.921875 L 6.140625 -4.921875 Z M 6.140625 -5.03125 "/></g></g></g><g fill="#000000" fill-opacity="1"><g transform="translate(267.425768, 180.084389)"><g><path d="M 3.90625 -8.703125 C 5.039062 -8.703125 6.039062 -8.367188 6.90625 -7.703125 L 6.109375 -6.5 C 5.390625 -6.957031 4.679688 -7.1875 3.984375 -7.1875 C 3.578125 -7.1875 3.257812 -7.109375 3.03125 -6.953125 C 2.8125 -6.796875 2.703125 -6.59375 2.703125 -6.34375 C 2.703125 -6.144531 2.75 -5.976562 2.84375 -5.84375 C 2.9375 -5.71875 3.109375 -5.597656 3.359375 -5.484375 C 3.617188 -5.378906 3.992188 -5.257812 4.484375 -5.125 C 5.398438 -4.875 6.078125 -4.546875 6.515625 -4.140625 C 6.960938 -3.734375 7.1875 -3.171875 7.1875 -2.453125 C 7.1875 -1.609375 6.84375 -0.945312 6.15625 -0.46875 C 5.476562 0 4.628906 0.234375 3.609375 0.234375 C 2.921875 0.234375 2.289062 0.128906 1.71875 -0.078125 C 1.144531 -0.296875 0.648438 -0.585938 0.234375 -0.953125 L 1.265625 -2.109375 C 2.003906 -1.554688 2.769531 -1.28125 3.5625 -1.28125 C 4.019531 -1.28125 4.382812 -1.367188 4.65625 -1.546875 C 4.9375 -1.734375 5.078125 -1.984375 5.078125 -2.296875 C 5.078125 -2.546875 5.023438 -2.742188 4.921875 -2.890625 C 4.816406 -3.035156 4.632812 -3.160156 4.375 -3.265625 C 4.113281 -3.378906 3.707031 -3.519531 3.15625 -3.6875 C 2.289062 -3.914062 1.65625 -4.238281 1.25 -4.65625 C 0.84375 -5.082031 0.640625 -5.609375 0.640625 -6.234375 C 0.640625 -6.703125 0.773438 -7.125 1.046875 -7.5 C 1.316406 -7.875 1.695312 -8.164062 2.1875 -8.375 C 2.6875 -8.59375 3.257812 -8.703125 3.90625 -8.703125 Z M 3.90625 -8.703125 "/></g></g></g><g fill="#000000" fill-opacity="1"><g transform="translate(396.385497, 155.240964)"><g><path d="M 4.015625 -11.0625 C 5.734375 -11.0625 7.109375 -10.671875 8.140625 -9.890625 C 9.171875 -9.109375 9.6875 -7.671875 9.6875 -5.578125 C 9.6875 -3.535156 9.175781 -2.09375 8.15625 -1.25 C 7.144531 -0.414062 5.859375 0 4.296875 0 L 1.296875 0 L 1.296875 -11.0625 Z M 3.40625 -9.46875 L 3.40625 -1.578125 L 4.453125 -1.578125 C 5.390625 -1.578125 6.125 -1.867188 6.65625 -2.453125 C 7.1875 -3.035156 7.453125 -4.078125 7.453125 -5.578125 C 7.453125 -6.628906 7.316406 -7.4375 7.046875 -8 C 6.773438 -8.570312 6.414062 -8.957031 5.96875 -9.15625 C 5.53125 -9.363281 5.003906 -9.46875 4.390625 -9.46875 Z M 3.40625 -9.46875 "/></g></g></g><g fill="#000000" fill-opacity="1"><g transform="translate(406.751005, 155.240964)"><g><path d="M 8.171875 -4.4375 C 8.171875 -4.320312 8.15625 -4.039062 8.125 -3.59375 L 2.8125 -3.59375 C 2.875 -2.78125 3.085938 -2.195312 3.453125 -1.84375 C 3.816406 -1.488281 4.296875 -1.3125 4.890625 -1.3125 C 5.265625 -1.3125 5.617188 -1.375 5.953125 -1.5 C 6.285156 -1.625 6.640625 -1.8125 7.015625 -2.0625 L 7.859375 -0.890625 C 6.921875 -0.140625 5.875 0.234375 4.71875 0.234375 C 3.425781 0.234375 2.429688 -0.15625 1.734375 -0.9375 C 1.035156 -1.726562 0.6875 -2.804688 0.6875 -4.171875 C 0.6875 -5.035156 0.832031 -5.8125 1.125 -6.5 C 1.425781 -7.1875 1.859375 -7.722656 2.421875 -8.109375 C 2.992188 -8.503906 3.671875 -8.703125 4.453125 -8.703125 C 5.628906 -8.703125 6.539062 -8.328125 7.1875 -7.578125 C 7.84375 -6.828125 8.171875 -5.78125 8.171875 -4.4375 Z M 6.140625 -5.03125 C 6.140625 -6.507812 5.59375 -7.25 4.5 -7.25 C 4 -7.25 3.601562 -7.0625 3.3125 -6.6875 C 3.03125 -6.320312 2.863281 -5.734375 2.8125 -4.921875 L 6.140625 -4.921875 Z M 6.140625 -5.03125 "/></g></g></g><g fill="#000000" fill-opacity="1"><g transform="translate(415.532892, 155.240964)"><g><path d="M 10.203125 -8.703125 C 10.890625 -8.703125 11.4375 -8.46875 11.84375 -8 C 12.25 -7.539062 12.453125 -6.914062 12.453125 -6.125 L 12.453125 0 L 10.40625 0 L 10.40625 -5.8125 C 10.40625 -6.71875 10.09375 -7.171875 9.46875 -7.171875 C 9.132812 -7.171875 8.847656 -7.066406 8.609375 -6.859375 C 8.367188 -6.648438 8.125 -6.328125 7.875 -5.890625 L 7.875 0 L 5.828125 0 L 5.828125 -5.8125 C 5.828125 -6.71875 5.515625 -7.171875 4.890625 -7.171875 C 4.554688 -7.171875 4.265625 -7.066406 4.015625 -6.859375 C 3.773438 -6.648438 3.53125 -6.328125 3.28125 -5.890625 L 3.28125 0 L 1.234375 0 L 1.234375 -8.46875 L 3.015625 -8.46875 L 3.171875 -7.359375 C 3.804688 -8.253906 4.617188 -8.703125 5.609375 -8.703125 C 6.109375 -8.703125 6.535156 -8.578125 6.890625 -8.328125 C 7.242188 -8.078125 7.5 -7.726562 7.65625 -7.28125 C 8 -7.738281 8.375 -8.085938 8.78125 -8.328125 C 9.195312 -8.578125 9.671875 -8.703125 10.203125 -8.703125 Z M 10.203125 -8.703125 "/></g></g></g><g fill="#000000" fill-opacity="1"><g transform="translate(429.129628, 155.240964)"><g><path d="M 7.484375 -2.234375 C 7.484375 -1.910156 7.535156 -1.671875 7.640625 -1.515625 C 7.742188 -1.359375 7.90625 -1.238281 8.125 -1.15625 L 7.703125 0.203125 C 7.210938 0.160156 6.816406 0.046875 6.515625 -0.140625 C 6.210938 -0.335938 5.984375 -0.632812 5.828125 -1.03125 C 5.535156 -0.601562 5.171875 -0.285156 4.734375 -0.078125 C 4.304688 0.128906 3.828125 0.234375 3.296875 0.234375 C 2.453125 0.234375 1.785156 -0.00390625 1.296875 -0.484375 C 0.804688 -0.960938 0.5625 -1.59375 0.5625 -2.375 C 0.5625 -3.289062 0.894531 -3.988281 1.5625 -4.46875 C 2.226562 -4.957031 3.179688 -5.203125 4.421875 -5.203125 L 5.46875 -5.203125 L 5.46875 -5.6875 C 5.46875 -6.226562 5.34375 -6.609375 5.09375 -6.828125 C 4.84375 -7.046875 4.441406 -7.15625 3.890625 -7.15625 C 3.265625 -7.15625 2.515625 -7.003906 1.640625 -6.703125 L 1.171875 -8.09375 C 2.222656 -8.5 3.242188 -8.703125 4.234375 -8.703125 C 6.398438 -8.703125 7.484375 -7.734375 7.484375 -5.796875 Z M 3.84375 -1.25 C 4.53125 -1.25 5.070312 -1.59375 5.46875 -2.28125 L 5.46875 -4 L 4.625 -4 C 3.300781 -4 2.640625 -3.507812 2.640625 -2.53125 C 2.640625 -2.125 2.738281 -1.804688 2.9375 -1.578125 C 3.144531 -1.359375 3.445312 -1.25 3.84375 -1.25 Z M 3.84375 -1.25 "/></g></g></g><g fill="#000000" fill-opacity="1"><g transform="translate(437.863529, 155.240964)"><g><path d="M 5.75 -8.703125 C 6.5 -8.703125 7.082031 -8.472656 7.5 -8.015625 C 7.925781 -7.566406 8.140625 -6.9375 8.140625 -6.125 L 8.140625 0 L 6.09375 0 L 6.09375 -5.8125 C 6.09375 -6.3125 6.003906 -6.660156 5.828125 -6.859375 C 5.648438 -7.066406 5.394531 -7.171875 5.0625 -7.171875 C 4.707031 -7.171875 4.390625 -7.0625 4.109375 -6.84375 C 3.828125 -6.625 3.550781 -6.304688 3.28125 -5.890625 L 3.28125 0 L 1.234375 0 L 1.234375 -8.46875 L 3.015625 -8.46875 L 3.171875 -7.359375 C 3.859375 -8.253906 4.71875 -8.703125 5.75 -8.703125 Z M 5.75 -8.703125 "/></g></g></g><g fill="#000000" fill-opacity="1"><g transform="translate(447.157298, 155.240964)"><g><path d="M 8.359375 -11.859375 L 8.359375 0 L 6.546875 0 L 6.40625 -1.078125 C 6.132812 -0.671875 5.789062 -0.347656 5.375 -0.109375 C 4.96875 0.117188 4.503906 0.234375 3.984375 0.234375 C 2.953125 0.234375 2.15625 -0.160156 1.59375 -0.953125 C 1.039062 -1.753906 0.765625 -2.84375 0.765625 -4.21875 C 0.765625 -5.082031 0.898438 -5.851562 1.171875 -6.53125 C 1.453125 -7.207031 1.851562 -7.738281 2.375 -8.125 C 2.894531 -8.507812 3.492188 -8.703125 4.171875 -8.703125 C 4.984375 -8.703125 5.691406 -8.398438 6.296875 -7.796875 L 6.296875 -12.078125 Z M 4.5625 -1.3125 C 4.925781 -1.3125 5.242188 -1.398438 5.515625 -1.578125 C 5.796875 -1.753906 6.054688 -2.03125 6.296875 -2.40625 L 6.296875 -6.265625 C 6.054688 -6.566406 5.8125 -6.789062 5.5625 -6.9375 C 5.3125 -7.09375 5.019531 -7.171875 4.6875 -7.171875 C 4.144531 -7.171875 3.710938 -6.925781 3.390625 -6.4375 C 3.078125 -5.957031 2.921875 -5.222656 2.921875 -4.234375 C 2.921875 -3.191406 3.0625 -2.441406 3.34375 -1.984375 C 3.625 -1.535156 4.03125 -1.3125 4.5625 -1.3125 Z M 4.5625 -1.3125 "/></g></g></g><g fill="#000000" fill-opacity="1"><g transform="translate(456.739001, 155.240964)"><g><path d="M 8.171875 -4.4375 C 8.171875 -4.320312 8.15625 -4.039062 8.125 -3.59375 L 2.8125 -3.59375 C 2.875 -2.78125 3.085938 -2.195312 3.453125 -1.84375 C 3.816406 -1.488281 4.296875 -1.3125 4.890625 -1.3125 C 5.265625 -1.3125 5.617188 -1.375 5.953125 -1.5 C 6.285156 -1.625 6.640625 -1.8125 7.015625 -2.0625 L 7.859375 -0.890625 C 6.921875 -0.140625 5.875 0.234375 4.71875 0.234375 C 3.425781 0.234375 2.429688 -0.15625 1.734375 -0.9375 C 1.035156 -1.726562 0.6875 -2.804688 0.6875 -4.171875 C 0.6875 -5.035156 0.832031 -5.8125 1.125 -6.5 C 1.425781 -7.1875 1.859375 -7.722656 2.421875 -8.109375 C 2.992188 -8.503906 3.671875 -8.703125 4.453125 -8.703125 C 5.628906 -8.703125 6.539062 -8.328125 7.1875 -7.578125 C 7.84375 -6.828125 8.171875 -5.78125 8.171875 -4.4375 Z M 6.140625 -5.03125 C 6.140625 -6.507812 5.59375 -7.25 4.5 -7.25 C 4 -7.25 3.601562 -7.0625 3.3125 -6.6875 C 3.03125 -6.320312 2.863281 -5.734375 2.8125 -4.921875 L 6.140625 -4.921875 Z M 6.140625 -5.03125 "/></g></g></g><g fill="#000000" fill-opacity="1"><g transform="translate(465.520887, 155.240964)"><g><path d="M 3.90625 -8.703125 C 5.039062 -8.703125 6.039062 -8.367188 6.90625 -7.703125 L 6.109375 -6.5 C 5.390625 -6.957031 4.679688 -7.1875 3.984375 -7.1875 C 3.578125 -7.1875 3.257812 -7.109375 3.03125 -6.953125 C 2.8125 -6.796875 2.703125 -6.59375 2.703125 -6.34375 C 2.703125 -6.144531 2.75 -5.976562 2.84375 -5.84375 C 2.9375 -5.71875 3.109375 -5.597656 3.359375 -5.484375 C 3.617188 -5.378906 3.992188 -5.257812 4.484375 -5.125 C 5.398438 -4.875 6.078125 -4.546875 6.515625 -4.140625 C 6.960938 -3.734375 7.1875 -3.171875 7.1875 -2.453125 C 7.1875 -1.609375 6.84375 -0.945312 6.15625 -0.46875 C 5.476562 0 4.628906 0.234375 3.609375 0.234375 C 2.921875 0.234375 2.289062 0.128906 1.71875 -0.078125 C 1.144531 -0.296875 0.648438 -0.585938 0.234375 -0.953125 L 1.265625 -2.109375 C 2.003906 -1.554688 2.769531 -1.28125 3.5625 -1.28125 C 4.019531 -1.28125 4.382812 -1.367188 4.65625 -1.546875 C 4.9375 -1.734375 5.078125 -1.984375 5.078125 -2.296875 C 5.078125 -2.546875 5.023438 -2.742188 4.921875 -2.890625 C 4.816406 -3.035156 4.632812 -3.160156 4.375 -3.265625 C 4.113281 -3.378906 3.707031 -3.519531 3.15625 -3.6875 C 2.289062 -3.914062 1.65625 -4.238281 1.25 -4.65625 C 0.84375 -5.082031 0.640625 -5.609375 0.640625 -6.234375 C 0.640625 -6.703125 0.773438 -7.125 1.046875 -7.5 C 1.316406 -7.875 1.695312 -8.164062 2.1875 -8.375 C 2.6875 -8.59375 3.257812 -8.703125 3.90625 -8.703125 Z M 3.90625 -8.703125 "/></g></g></g></svg>