<svg xmlns="http://www.w3.org/2000/svg" xmlns:xlink="http://www.w3.org/1999/xlink" width="800" zoomAndPan="magnify" viewBox="0 0 600 449.999984" height="600" preserveAspectRatio="xMidYMid meet" version="1.0"><defs><g/><clipPath id="9fcdb743b1"><path d="M 66.996094 15.347656 L 544.742188 15.347656 L 544.742188 450 L 66.996094 450 Z M 66.996094 15.347656 " clip-rule="nonzero"/></clipPath><clipPath id="899864c428"><path d="M 305.867188 15.347656 L 544.742188 124.097656 L 544.742188 341.597656 L 305.867188 450.347656 L 66.996094 341.597656 L 66.996094 124.097656 L 305.867188 15.347656 " clip-rule="nonzero"/></clipPath><clipPath id="361935afc2"><path d="M 115.785156 107.738281 L 300.285156 107.738281 L 300.285156 309.484375 L 115.785156 309.484375 Z M 115.785156 107.738281 " clip-rule="nonzero"/></clipPath><clipPath id="6e865934ab"><path d="M 208.035156 107.738281 L 300.285156 153.371094 L 300.285156 263.851562 L 208.035156 309.484375 L 115.785156 263.851562 L 115.785156 153.371094 L 208.035156 107.738281 " clip-rule="nonzero"/></clipPath><clipPath id="58b0169cba"><path d="M 331.140625 107.734375 L 502.140625 107.734375 L 502.140625 290.734375 L 331.140625 290.734375 Z M 331.140625 107.734375 " clip-rule="nonzero"/></clipPath><clipPath id="7d9a1faa56"><path d="M 416.640625 107.734375 L 502.136719 153.484375 L 502.136719 244.984375 L 416.640625 290.734375 L 331.140625 244.984375 L 331.140625 153.484375 L 416.640625 107.734375 " clip-rule="nonzero"/></clipPath><clipPath id="3467f767ce"><path d="M 162.507812 130.816406 L 252.507812 130.816406 L 252.507812 224.558594 L 162.507812 224.558594 Z M 162.507812 130.816406 " clip-rule="nonzero"/></clipPath><clipPath id="304e4ac93e"><path d="M 207.507812 130.816406 L 252.507812 154.25 L 252.507812 201.125 L 207.507812 224.558594 L 162.507812 201.125 L 162.507812 154.25 L 207.507812 130.816406 " clip-rule="nonzero"/></clipPath></defs><rect x="-60" width="720" fill="#ffffff" y="-44.999998" height="539.99998" fill-opacity="1"/><rect x="-60" width="720" fill="#ffffff" y="-44.999998" height="539.99998" fill-opacity="1"/><rect x="-60" width="720" fill="#ffffff" y="-44.999998" height="539.99998" fill-opacity="1"/><g clip-path="url(#9fcdb743b1)"><g clip-path="url(#899864c428)"><path stroke-linecap="butt" transform="matrix(0.750442, 0, 0, 0.750607, 66.99591, 15.346066)" fill="none" stroke-linejoin="miter" d="M 318.307581 0.00211819 L 636.620123 144.884948 L 636.620123 434.650608 L 318.307581 579.533438 L 0.000245324 434.650608 L 0.000245324 144.884948 L 318.307581 0.00211819 " stroke="#000000" stroke-width="2" stroke-opacity="1" stroke-miterlimit="4"/></g></g><g clip-path="url(#361935afc2)"><g clip-path="url(#6e865934ab)"><path stroke-linecap="butt" transform="matrix(0.751193, 0, 0, 0.749086, 115.784078, 107.736978)" fill="none" stroke-linejoin="miter" d="M 122.806113 0.00173977 L 245.61079 60.919703 L 245.61079 208.406672 L 122.806113 269.324635 L 0.00143559 208.406672 L 0.00143559 60.919703 L 122.806113 0.00173977 " stroke="#000000" stroke-width="2" stroke-opacity="1" stroke-miterlimit="4"/></g></g><g clip-path="url(#58b0169cba)"><g clip-path="url(#7d9a1faa56)"><path stroke-linecap="butt" transform="matrix(0.750772, 0, 0, 0.75101, 331.142445, 107.73506)" fill="none" stroke-linejoin="miter" d="M 113.880393 -0.000912649 L 227.758007 60.91706 L 227.758007 182.753007 L 113.880393 243.67098 L -0.00242427 182.753007 L -0.00242427 60.91706 L 113.880393 -0.000912649 " stroke="#000000" stroke-width="2" stroke-opacity="1" stroke-miterlimit="4"/></g></g><g clip-path="url(#3467f767ce)"><g clip-path="url(#304e4ac93e)"><path stroke-linecap="butt" transform="matrix(0.748343, 0, 0, 0.749812, 162.506365, 130.81625)" fill="none" stroke-linejoin="miter" d="M 60.134755 0.000208638 L 120.267575 31.252814 L 120.267575 93.768445 L 60.134755 125.021051 L 0.00193479 93.768445 L 0.00193479 31.252814 L 60.134755 0.000208638 " stroke="#000000" stroke-width="2" stroke-opacity="1" stroke-miterlimit="4"/></g></g><g fill="#000000" fill-opacity="1"><g transform="translate(156.709153, 247.573018)"><g><path d="M 9.53125 -7.796875 C 9.53125 -6.515625 9.148438 -5.523438 8.390625 -4.828125 C 7.640625 -4.140625 6.570312 -3.796875 5.1875 -3.796875 L 4.328125 -3.796875 L 4.328125 0 L 1.234375 0 L 1.234375 -11.421875 L 5.1875 -11.421875 C 6.632812 -11.421875 7.71875 -11.101562 8.4375 -10.46875 C 9.164062 -9.84375 9.53125 -8.953125 9.53125 -7.796875 Z M 4.328125 -6.3125 L 4.890625 -6.3125 C 5.347656 -6.3125 5.710938 -6.441406 5.984375 -6.703125 C 6.265625 -6.960938 6.40625 -7.320312 6.40625 -7.78125 C 6.40625 -8.550781 5.976562 -8.9375 5.125 -8.9375 L 4.328125 -8.9375 Z M 4.328125 -6.3125 "/></g></g></g><g fill="#000000" fill-opacity="1"><g transform="translate(166.816059, 247.573018)"><g><path d="M 6.40625 -9.015625 C 6.664062 -9.015625 6.914062 -8.992188 7.15625 -8.953125 L 7.328125 -8.921875 L 7.0625 -6.03125 C 6.8125 -6.09375 6.460938 -6.125 6.015625 -6.125 C 5.347656 -6.125 4.863281 -5.972656 4.5625 -5.671875 C 4.257812 -5.367188 4.109375 -4.929688 4.109375 -4.359375 L 4.109375 0 L 1.0625 0 L 1.0625 -8.859375 L 3.328125 -8.859375 L 3.8125 -7.4375 L 3.953125 -7.4375 C 4.210938 -7.90625 4.566406 -8.285156 5.015625 -8.578125 C 5.472656 -8.867188 5.9375 -9.015625 6.40625 -9.015625 Z M 6.40625 -9.015625 "/></g></g></g><g fill="#000000" fill-opacity="1"><g transform="translate(174.322043, 247.573018)"><g><path d="M 5.328125 0.15625 C 3.859375 0.15625 2.710938 -0.234375 1.890625 -1.015625 C 1.078125 -1.804688 0.671875 -2.925781 0.671875 -4.375 C 0.671875 -5.863281 1.046875 -7.007812 1.796875 -7.8125 C 2.554688 -8.613281 3.640625 -9.015625 5.046875 -9.015625 C 6.378906 -9.015625 7.40625 -8.664062 8.125 -7.96875 C 8.851562 -7.269531 9.21875 -6.269531 9.21875 -4.96875 L 9.21875 -3.609375 L 3.765625 -3.609375 C 3.785156 -3.109375 3.960938 -2.71875 4.296875 -2.4375 C 4.640625 -2.15625 5.109375 -2.015625 5.703125 -2.015625 C 6.234375 -2.015625 6.722656 -2.066406 7.171875 -2.171875 C 7.628906 -2.273438 8.117188 -2.445312 8.640625 -2.6875 L 8.640625 -0.5 C 8.160156 -0.25 7.664062 -0.078125 7.15625 0.015625 C 6.644531 0.109375 6.035156 0.15625 5.328125 0.15625 Z M 5.15625 -6.9375 C 4.789062 -6.9375 4.488281 -6.820312 4.25 -6.59375 C 4.007812 -6.363281 3.867188 -6.007812 3.828125 -5.53125 L 6.453125 -5.53125 C 6.441406 -5.957031 6.316406 -6.296875 6.078125 -6.546875 C 5.847656 -6.804688 5.539062 -6.9375 5.15625 -6.9375 Z M 5.15625 -6.9375 "/></g></g></g><g fill="#000000" fill-opacity="1"><g transform="translate(184.210253, 247.573018)"><g><path d="M 7.890625 -2.71875 C 7.890625 -1.769531 7.566406 -1.050781 6.921875 -0.5625 C 6.273438 -0.0820312 5.347656 0.15625 4.140625 0.15625 C 3.484375 0.15625 2.910156 0.117188 2.421875 0.046875 C 1.941406 -0.0234375 1.453125 -0.15625 0.953125 -0.34375 L 0.953125 -2.78125 C 1.421875 -2.570312 1.9375 -2.398438 2.5 -2.265625 C 3.070312 -2.128906 3.578125 -2.0625 4.015625 -2.0625 C 4.679688 -2.0625 5.015625 -2.210938 5.015625 -2.515625 C 5.015625 -2.671875 4.921875 -2.8125 4.734375 -2.9375 C 4.546875 -3.0625 4.007812 -3.300781 3.125 -3.65625 C 2.3125 -3.988281 1.742188 -4.363281 1.421875 -4.78125 C 1.097656 -5.207031 0.9375 -5.75 0.9375 -6.40625 C 0.9375 -7.226562 1.253906 -7.867188 1.890625 -8.328125 C 2.523438 -8.785156 3.421875 -9.015625 4.578125 -9.015625 C 5.160156 -9.015625 5.707031 -8.945312 6.21875 -8.8125 C 6.738281 -8.6875 7.273438 -8.503906 7.828125 -8.265625 L 7 -6.296875 C 6.59375 -6.472656 6.160156 -6.625 5.703125 -6.75 C 5.253906 -6.882812 4.882812 -6.953125 4.59375 -6.953125 C 4.09375 -6.953125 3.84375 -6.828125 3.84375 -6.578125 C 3.84375 -6.429688 3.929688 -6.300781 4.109375 -6.1875 C 4.285156 -6.082031 4.789062 -5.867188 5.625 -5.546875 C 6.238281 -5.285156 6.695312 -5.03125 7 -4.78125 C 7.3125 -4.539062 7.535156 -4.253906 7.671875 -3.921875 C 7.816406 -3.597656 7.890625 -3.195312 7.890625 -2.71875 Z M 7.890625 -2.71875 "/></g></g></g><g fill="#000000" fill-opacity="1"><g transform="translate(192.739419, 247.573018)"><g><path d="M 5.390625 -2.265625 C 5.804688 -2.265625 6.300781 -2.363281 6.875 -2.5625 L 6.875 -0.34375 C 6.457031 -0.164062 6.0625 -0.0390625 5.6875 0.03125 C 5.320312 0.113281 4.890625 0.15625 4.390625 0.15625 C 3.359375 0.15625 2.613281 -0.09375 2.15625 -0.59375 C 1.707031 -1.101562 1.484375 -1.878906 1.484375 -2.921875 L 1.484375 -6.5625 L 0.421875 -6.5625 L 0.421875 -7.8125 L 1.78125 -8.765625 L 2.5625 -10.625 L 4.5625 -10.625 L 4.5625 -8.859375 L 6.734375 -8.859375 L 6.734375 -6.5625 L 4.5625 -6.5625 L 4.5625 -3.125 C 4.5625 -2.550781 4.835938 -2.265625 5.390625 -2.265625 Z M 5.390625 -2.265625 "/></g></g></g><g fill="#000000" fill-opacity="1"><g transform="translate(200.096997, 247.573018)"><g><path d="M 6.828125 0 L 6.25 -1.171875 L 6.1875 -1.171875 C 5.769531 -0.660156 5.347656 -0.3125 4.921875 -0.125 C 4.492188 0.0625 3.941406 0.15625 3.265625 0.15625 C 2.429688 0.15625 1.773438 -0.09375 1.296875 -0.59375 C 0.816406 -1.09375 0.578125 -1.796875 0.578125 -2.703125 C 0.578125 -3.648438 0.90625 -4.351562 1.5625 -4.8125 C 2.21875 -5.269531 3.171875 -5.53125 4.421875 -5.59375 L 5.890625 -5.640625 L 5.890625 -5.765625 C 5.890625 -6.492188 5.53125 -6.859375 4.8125 -6.859375 C 4.164062 -6.859375 3.347656 -6.640625 2.359375 -6.203125 L 1.46875 -8.21875 C 2.5 -8.75 3.800781 -9.015625 5.375 -9.015625 C 6.507812 -9.015625 7.390625 -8.734375 8.015625 -8.171875 C 8.640625 -7.609375 8.953125 -6.820312 8.953125 -5.8125 L 8.953125 0 Z M 4.5625 -2 C 4.9375 -2 5.253906 -2.113281 5.515625 -2.34375 C 5.773438 -2.582031 5.90625 -2.890625 5.90625 -3.265625 L 5.90625 -3.953125 L 5.203125 -3.921875 C 4.203125 -3.890625 3.703125 -3.519531 3.703125 -2.8125 C 3.703125 -2.269531 3.988281 -2 4.5625 -2 Z M 4.5625 -2 "/></g></g></g><g fill="#000000" fill-opacity="1"><g transform="translate(210.063313, 247.573018)"><g><path d="M 5.390625 -2.265625 C 5.804688 -2.265625 6.300781 -2.363281 6.875 -2.5625 L 6.875 -0.34375 C 6.457031 -0.164062 6.0625 -0.0390625 5.6875 0.03125 C 5.320312 0.113281 4.890625 0.15625 4.390625 0.15625 C 3.359375 0.15625 2.613281 -0.09375 2.15625 -0.59375 C 1.707031 -1.101562 1.484375 -1.878906 1.484375 -2.921875 L 1.484375 -6.5625 L 0.421875 -6.5625 L 0.421875 -7.8125 L 1.78125 -8.765625 L 2.5625 -10.625 L 4.5625 -10.625 L 4.5625 -8.859375 L 6.734375 -8.859375 L 6.734375 -6.5625 L 4.5625 -6.5625 L 4.5625 -3.125 C 4.5625 -2.550781 4.835938 -2.265625 5.390625 -2.265625 Z M 5.390625 -2.265625 "/></g></g></g><g fill="#000000" fill-opacity="1"><g transform="translate(217.42089, 247.573018)"><g><path d="M 6.828125 0 L 6.25 -1.171875 L 6.1875 -1.171875 C 5.769531 -0.660156 5.347656 -0.3125 4.921875 -0.125 C 4.492188 0.0625 3.941406 0.15625 3.265625 0.15625 C 2.429688 0.15625 1.773438 -0.09375 1.296875 -0.59375 C 0.816406 -1.09375 0.578125 -1.796875 0.578125 -2.703125 C 0.578125 -3.648438 0.90625 -4.351562 1.5625 -4.8125 C 2.21875 -5.269531 3.171875 -5.53125 4.421875 -5.59375 L 5.890625 -5.640625 L 5.890625 -5.765625 C 5.890625 -6.492188 5.53125 -6.859375 4.8125 -6.859375 C 4.164062 -6.859375 3.347656 -6.640625 2.359375 -6.203125 L 1.46875 -8.21875 C 2.5 -8.75 3.800781 -9.015625 5.375 -9.015625 C 6.507812 -9.015625 7.390625 -8.734375 8.015625 -8.171875 C 8.640625 -7.609375 8.953125 -6.820312 8.953125 -5.8125 L 8.953125 0 Z M 4.5625 -2 C 4.9375 -2 5.253906 -2.113281 5.515625 -2.34375 C 5.773438 -2.582031 5.90625 -2.890625 5.90625 -3.265625 L 5.90625 -3.953125 L 5.203125 -3.921875 C 4.203125 -3.890625 3.703125 -3.519531 3.703125 -2.8125 C 3.703125 -2.269531 3.988281 -2 4.5625 -2 Z M 4.5625 -2 "/></g></g></g><g fill="#000000" fill-opacity="1"><g transform="translate(227.387206, 247.573018)"><g><path d="M 4.125 0 L 1.078125 0 L 1.078125 -8.859375 L 4.125 -8.859375 Z M 1 -11.0625 C 1 -11.519531 1.125 -11.859375 1.375 -12.078125 C 1.632812 -12.304688 2.046875 -12.421875 2.609375 -12.421875 C 3.179688 -12.421875 3.597656 -12.304688 3.859375 -12.078125 C 4.117188 -11.847656 4.25 -11.507812 4.25 -11.0625 C 4.25 -10.164062 3.703125 -9.71875 2.609375 -9.71875 C 1.535156 -9.71875 1 -10.164062 1 -11.0625 Z M 1 -11.0625 "/></g></g></g><g fill="#000000" fill-opacity="1"><g transform="translate(232.58906, 247.573018)"><g><path d="M 6.40625 -9.015625 C 6.664062 -9.015625 6.914062 -8.992188 7.15625 -8.953125 L 7.328125 -8.921875 L 7.0625 -6.03125 C 6.8125 -6.09375 6.460938 -6.125 6.015625 -6.125 C 5.347656 -6.125 4.863281 -5.972656 4.5625 -5.671875 C 4.257812 -5.367188 4.109375 -4.929688 4.109375 -4.359375 L 4.109375 0 L 1.0625 0 L 1.0625 -8.859375 L 3.328125 -8.859375 L 3.8125 -7.4375 L 3.953125 -7.4375 C 4.210938 -7.90625 4.566406 -8.285156 5.015625 -8.578125 C 5.472656 -8.867188 5.9375 -9.015625 6.40625 -9.015625 Z M 6.40625 -9.015625 "/></g></g></g><g fill="#000000" fill-opacity="1"><g transform="translate(240.095045, 247.573018)"><g><path d="M 5.328125 0.15625 C 3.859375 0.15625 2.710938 -0.234375 1.890625 -1.015625 C 1.078125 -1.804688 0.671875 -2.925781 0.671875 -4.375 C 0.671875 -5.863281 1.046875 -7.007812 1.796875 -7.8125 C 2.554688 -8.613281 3.640625 -9.015625 5.046875 -9.015625 C 6.378906 -9.015625 7.40625 -8.664062 8.125 -7.96875 C 8.851562 -7.269531 9.21875 -6.269531 9.21875 -4.96875 L 9.21875 -3.609375 L 3.765625 -3.609375 C 3.785156 -3.109375 3.960938 -2.71875 4.296875 -2.4375 C 4.640625 -2.15625 5.109375 -2.015625 5.703125 -2.015625 C 6.234375 -2.015625 6.722656 -2.066406 7.171875 -2.171875 C 7.628906 -2.273438 8.117188 -2.445312 8.640625 -2.6875 L 8.640625 -0.5 C 8.160156 -0.25 7.664062 -0.078125 7.15625 0.015625 C 6.644531 0.109375 6.035156 0.15625 5.328125 0.15625 Z M 5.15625 -6.9375 C 4.789062 -6.9375 4.488281 -6.820312 4.25 -6.59375 C 4.007812 -6.363281 3.867188 -6.007812 3.828125 -5.53125 L 6.453125 -5.53125 C 6.441406 -5.957031 6.316406 -6.296875 6.078125 -6.546875 C 5.847656 -6.804688 5.539062 -6.9375 5.15625 -6.9375 Z M 5.15625 -6.9375 "/></g></g></g><g fill="#000000" fill-opacity="1"><g transform="translate(249.983254, 247.573018)"><g><path d="M 7.890625 -2.71875 C 7.890625 -1.769531 7.566406 -1.050781 6.921875 -0.5625 C 6.273438 -0.0820312 5.347656 0.15625 4.140625 0.15625 C 3.484375 0.15625 2.910156 0.117188 2.421875 0.046875 C 1.941406 -0.0234375 1.453125 -0.15625 0.953125 -0.34375 L 0.953125 -2.78125 C 1.421875 -2.570312 1.9375 -2.398438 2.5 -2.265625 C 3.070312 -2.128906 3.578125 -2.0625 4.015625 -2.0625 C 4.679688 -2.0625 5.015625 -2.210938 5.015625 -2.515625 C 5.015625 -2.671875 4.921875 -2.8125 4.734375 -2.9375 C 4.546875 -3.0625 4.007812 -3.300781 3.125 -3.65625 C 2.3125 -3.988281 1.742188 -4.363281 1.421875 -4.78125 C 1.097656 -5.207031 0.9375 -5.75 0.9375 -6.40625 C 0.9375 -7.226562 1.253906 -7.867188 1.890625 -8.328125 C 2.523438 -8.785156 3.421875 -9.015625 4.578125 -9.015625 C 5.160156 -9.015625 5.707031 -8.945312 6.21875 -8.8125 C 6.738281 -8.6875 7.273438 -8.503906 7.828125 -8.265625 L 7 -6.296875 C 6.59375 -6.472656 6.160156 -6.625 5.703125 -6.75 C 5.253906 -6.882812 4.882812 -6.953125 4.59375 -6.953125 C 4.09375 -6.953125 3.84375 -6.828125 3.84375 -6.578125 C 3.84375 -6.429688 3.929688 -6.300781 4.109375 -6.1875 C 4.285156 -6.082031 4.789062 -5.867188 5.625 -5.546875 C 6.238281 -5.285156 6.695312 -5.03125 7 -4.78125 C 7.3125 -4.539062 7.535156 -4.253906 7.671875 -3.921875 C 7.816406 -3.597656 7.890625 -3.195312 7.890625 -2.71875 Z M 7.890625 -2.71875 "/></g></g></g><g fill="#000000" fill-opacity="1"><g transform="translate(258.509926, 247.573018)"><g/></g></g><g fill="#000000" fill-opacity="1"><g transform="translate(171.638839, 269.323016)"><g><path d="M 10.953125 -11.421875 L 10.953125 -4.546875 C 10.953125 -3.054688 10.523438 -1.898438 9.671875 -1.078125 C 8.828125 -0.253906 7.609375 0.15625 6.015625 0.15625 C 4.460938 0.15625 3.265625 -0.238281 2.421875 -1.03125 C 1.585938 -1.832031 1.171875 -2.984375 1.171875 -4.484375 L 1.171875 -11.421875 L 4.28125 -11.421875 L 4.28125 -4.71875 C 4.28125 -3.914062 4.429688 -3.332031 4.734375 -2.96875 C 5.035156 -2.601562 5.476562 -2.421875 6.0625 -2.421875 C 6.695312 -2.421875 7.15625 -2.597656 7.4375 -2.953125 C 7.71875 -3.316406 7.859375 -3.910156 7.859375 -4.734375 L 7.859375 -11.421875 Z M 10.953125 -11.421875 "/></g></g></g><g fill="#000000" fill-opacity="1"><g transform="translate(183.745257, 269.323016)"><g><path d="M 6.46875 -9.015625 C 7.425781 -9.015625 8.1875 -8.609375 8.75 -7.796875 C 9.320312 -6.992188 9.609375 -5.878906 9.609375 -4.453125 C 9.609375 -3.015625 9.320312 -1.882812 8.75 -1.0625 C 8.175781 -0.25 7.382812 0.15625 6.375 0.15625 C 6.039062 0.15625 5.742188 0.117188 5.484375 0.046875 C 5.234375 -0.0234375 5.007812 -0.125 4.8125 -0.25 C 4.613281 -0.375 4.378906 -0.582031 4.109375 -0.875 L 3.921875 -0.875 L 3.4375 0 L 1.0625 0 L 1.0625 -12.15625 L 4.109375 -12.15625 L 4.109375 -9.40625 C 4.109375 -9.082031 4.070312 -8.519531 4 -7.71875 L 4.109375 -7.71875 C 4.410156 -8.175781 4.753906 -8.503906 5.140625 -8.703125 C 5.523438 -8.910156 5.96875 -9.015625 6.46875 -9.015625 Z M 5.34375 -6.609375 C 4.914062 -6.609375 4.601562 -6.457031 4.40625 -6.15625 C 4.207031 -5.863281 4.109375 -5.398438 4.109375 -4.765625 L 4.109375 -4.34375 C 4.109375 -3.613281 4.207031 -3.09375 4.40625 -2.78125 C 4.601562 -2.46875 4.925781 -2.3125 5.375 -2.3125 C 5.738281 -2.3125 6.015625 -2.492188 6.203125 -2.859375 C 6.398438 -3.222656 6.5 -3.765625 6.5 -4.484375 C 6.5 -5.898438 6.113281 -6.609375 5.34375 -6.609375 Z M 5.34375 -6.609375 "/></g></g></g><g fill="#000000" fill-opacity="1"><g transform="translate(194.031812, 269.323016)"><g><path d="M 5.328125 0.15625 C 3.859375 0.15625 2.710938 -0.234375 1.890625 -1.015625 C 1.078125 -1.804688 0.671875 -2.925781 0.671875 -4.375 C 0.671875 -5.863281 1.046875 -7.007812 1.796875 -7.8125 C 2.554688 -8.613281 3.640625 -9.015625 5.046875 -9.015625 C 6.378906 -9.015625 7.40625 -8.664062 8.125 -7.96875 C 8.851562 -7.269531 9.21875 -6.269531 9.21875 -4.96875 L 9.21875 -3.609375 L 3.765625 -3.609375 C 3.785156 -3.109375 3.960938 -2.71875 4.296875 -2.4375 C 4.640625 -2.15625 5.109375 -2.015625 5.703125 -2.015625 C 6.234375 -2.015625 6.722656 -2.066406 7.171875 -2.171875 C 7.628906 -2.273438 8.117188 -2.445312 8.640625 -2.6875 L 8.640625 -0.5 C 8.160156 -0.25 7.664062 -0.078125 7.15625 0.015625 C 6.644531 0.109375 6.035156 0.15625 5.328125 0.15625 Z M 5.15625 -6.9375 C 4.789062 -6.9375 4.488281 -6.820312 4.25 -6.59375 C 4.007812 -6.363281 3.867188 -6.007812 3.828125 -5.53125 L 6.453125 -5.53125 C 6.441406 -5.957031 6.316406 -6.296875 6.078125 -6.546875 C 5.847656 -6.804688 5.539062 -6.9375 5.15625 -6.9375 Z M 3.6875 -9.703125 L 3.6875 -9.921875 C 4.488281 -10.785156 5 -11.34375 5.21875 -11.59375 C 5.4375 -11.84375 5.613281 -12.066406 5.75 -12.265625 L 9.09375 -12.265625 L 9.09375 -12.09375 C 8.675781 -11.757812 8.101562 -11.332031 7.375 -10.8125 C 6.644531 -10.300781 6.09375 -9.929688 5.71875 -9.703125 Z M 3.6875 -9.703125 "/></g></g></g><g fill="#000000" fill-opacity="1"><g transform="translate(203.920022, 269.323016)"><g><path d="M 6.40625 -9.015625 C 6.664062 -9.015625 6.914062 -8.992188 7.15625 -8.953125 L 7.328125 -8.921875 L 7.0625 -6.03125 C 6.8125 -6.09375 6.460938 -6.125 6.015625 -6.125 C 5.347656 -6.125 4.863281 -5.972656 4.5625 -5.671875 C 4.257812 -5.367188 4.109375 -4.929688 4.109375 -4.359375 L 4.109375 0 L 1.0625 0 L 1.0625 -8.859375 L 3.328125 -8.859375 L 3.8125 -7.4375 L 3.953125 -7.4375 C 4.210938 -7.90625 4.566406 -8.285156 5.015625 -8.578125 C 5.472656 -8.867188 5.9375 -9.015625 6.40625 -9.015625 Z M 6.40625 -9.015625 "/></g></g></g><g fill="#000000" fill-opacity="1"><g transform="translate(211.426006, 269.323016)"><g><path d="M 4.125 0 L 1.078125 0 L 1.078125 -8.859375 L 4.125 -8.859375 Z M 1 -11.0625 C 1 -11.519531 1.125 -11.859375 1.375 -12.078125 C 1.632812 -12.304688 2.046875 -12.421875 2.609375 -12.421875 C 3.179688 -12.421875 3.597656 -12.304688 3.859375 -12.078125 C 4.117188 -11.847656 4.25 -11.507812 4.25 -11.0625 C 4.25 -10.164062 3.703125 -9.71875 2.609375 -9.71875 C 1.535156 -9.71875 1 -10.164062 1 -11.0625 Z M 1 -11.0625 "/></g></g></g><g fill="#000000" fill-opacity="1"><g transform="translate(216.627861, 269.323016)"><g><path d="M 7.890625 -2.71875 C 7.890625 -1.769531 7.566406 -1.050781 6.921875 -0.5625 C 6.273438 -0.0820312 5.347656 0.15625 4.140625 0.15625 C 3.484375 0.15625 2.910156 0.117188 2.421875 0.046875 C 1.941406 -0.0234375 1.453125 -0.15625 0.953125 -0.34375 L 0.953125 -2.78125 C 1.421875 -2.570312 1.9375 -2.398438 2.5 -2.265625 C 3.070312 -2.128906 3.578125 -2.0625 4.015625 -2.0625 C 4.679688 -2.0625 5.015625 -2.210938 5.015625 -2.515625 C 5.015625 -2.671875 4.921875 -2.8125 4.734375 -2.9375 C 4.546875 -3.0625 4.007812 -3.300781 3.125 -3.65625 C 2.3125 -3.988281 1.742188 -4.363281 1.421875 -4.78125 C 1.097656 -5.207031 0.9375 -5.75 0.9375 -6.40625 C 0.9375 -7.226562 1.253906 -7.867188 1.890625 -8.328125 C 2.523438 -8.785156 3.421875 -9.015625 4.578125 -9.015625 C 5.160156 -9.015625 5.707031 -8.945312 6.21875 -8.8125 C 6.738281 -8.6875 7.273438 -8.503906 7.828125 -8.265625 L 7 -6.296875 C 6.59375 -6.472656 6.160156 -6.625 5.703125 -6.75 C 5.253906 -6.882812 4.882812 -6.953125 4.59375 -6.953125 C 4.09375 -6.953125 3.84375 -6.828125 3.84375 -6.578125 C 3.84375 -6.429688 3.929688 -6.300781 4.109375 -6.1875 C 4.285156 -6.082031 4.789062 -5.867188 5.625 -5.546875 C 6.238281 -5.285156 6.695312 -5.03125 7 -4.78125 C 7.3125 -4.539062 7.535156 -4.253906 7.671875 -3.921875 C 7.816406 -3.597656 7.890625 -3.195312 7.890625 -2.71875 Z M 7.890625 -2.71875 "/></g></g></g><g fill="#000000" fill-opacity="1"><g transform="translate(225.157027, 269.323016)"><g><path d="M 5.328125 0.15625 C 3.859375 0.15625 2.710938 -0.234375 1.890625 -1.015625 C 1.078125 -1.804688 0.671875 -2.925781 0.671875 -4.375 C 0.671875 -5.863281 1.046875 -7.007812 1.796875 -7.8125 C 2.554688 -8.613281 3.640625 -9.015625 5.046875 -9.015625 C 6.378906 -9.015625 7.40625 -8.664062 8.125 -7.96875 C 8.851562 -7.269531 9.21875 -6.269531 9.21875 -4.96875 L 9.21875 -3.609375 L 3.765625 -3.609375 C 3.785156 -3.109375 3.960938 -2.71875 4.296875 -2.4375 C 4.640625 -2.15625 5.109375 -2.015625 5.703125 -2.015625 C 6.234375 -2.015625 6.722656 -2.066406 7.171875 -2.171875 C 7.628906 -2.273438 8.117188 -2.445312 8.640625 -2.6875 L 8.640625 -0.5 C 8.160156 -0.25 7.664062 -0.078125 7.15625 0.015625 C 6.644531 0.109375 6.035156 0.15625 5.328125 0.15625 Z M 5.15625 -6.9375 C 4.789062 -6.9375 4.488281 -6.820312 4.25 -6.59375 C 4.007812 -6.363281 3.867188 -6.007812 3.828125 -5.53125 L 6.453125 -5.53125 C 6.441406 -5.957031 6.316406 -6.296875 6.078125 -6.546875 C 5.847656 -6.804688 5.539062 -6.9375 5.15625 -6.9375 Z M 3.6875 -9.703125 L 3.6875 -9.921875 C 4.488281 -10.785156 5 -11.34375 5.21875 -11.59375 C 5.4375 -11.84375 5.613281 -12.066406 5.75 -12.265625 L 9.09375 -12.265625 L 9.09375 -12.09375 C 8.675781 -11.757812 8.101562 -11.332031 7.375 -10.8125 C 6.644531 -10.300781 6.09375 -9.929688 5.71875 -9.703125 Z M 3.6875 -9.703125 "/></g></g></g><g fill="#000000" fill-opacity="1"><g transform="translate(235.045237, 269.323016)"><g><path d="M 7.890625 -2.71875 C 7.890625 -1.769531 7.566406 -1.050781 6.921875 -0.5625 C 6.273438 -0.0820312 5.347656 0.15625 4.140625 0.15625 C 3.484375 0.15625 2.910156 0.117188 2.421875 0.046875 C 1.941406 -0.0234375 1.453125 -0.15625 0.953125 -0.34375 L 0.953125 -2.78125 C 1.421875 -2.570312 1.9375 -2.398438 2.5 -2.265625 C 3.070312 -2.128906 3.578125 -2.0625 4.015625 -2.0625 C 4.679688 -2.0625 5.015625 -2.210938 5.015625 -2.515625 C 5.015625 -2.671875 4.921875 -2.8125 4.734375 -2.9375 C 4.546875 -3.0625 4.007812 -3.300781 3.125 -3.65625 C 2.3125 -3.988281 1.742188 -4.363281 1.421875 -4.78125 C 1.097656 -5.207031 0.9375 -5.75 0.9375 -6.40625 C 0.9375 -7.226562 1.253906 -7.867188 1.890625 -8.328125 C 2.523438 -8.785156 3.421875 -9.015625 4.578125 -9.015625 C 5.160156 -9.015625 5.707031 -8.945312 6.21875 -8.8125 C 6.738281 -8.6875 7.273438 -8.503906 7.828125 -8.265625 L 7 -6.296875 C 6.59375 -6.472656 6.160156 -6.625 5.703125 -6.75 C 5.253906 -6.882812 4.882812 -6.953125 4.59375 -6.953125 C 4.09375 -6.953125 3.84375 -6.828125 3.84375 -6.578125 C 3.84375 -6.429688 3.929688 -6.300781 4.109375 -6.1875 C 4.285156 -6.082031 4.789062 -5.867188 5.625 -5.546875 C 6.238281 -5.285156 6.695312 -5.03125 7 -4.78125 C 7.3125 -4.539062 7.535156 -4.253906 7.671875 -3.921875 C 7.816406 -3.597656 7.890625 -3.195312 7.890625 -2.71875 Z M 7.890625 -2.71875 "/></g></g></g><g fill="#000000" fill-opacity="1"><g transform="translate(386.147294, 205.099993)"><g><path d="M 6.71875 -9.625 C 5.9375 -9.625 5.328125 -9.300781 4.890625 -8.65625 C 4.453125 -8.019531 4.234375 -7.140625 4.234375 -6.015625 C 4.234375 -3.679688 5.117188 -2.515625 6.890625 -2.515625 C 7.429688 -2.515625 7.953125 -2.585938 8.453125 -2.734375 C 8.960938 -2.890625 9.472656 -3.070312 9.984375 -3.28125 L 9.984375 -0.5 C 8.960938 -0.0507812 7.816406 0.171875 6.546875 0.171875 C 4.710938 0.171875 3.304688 -0.359375 2.328125 -1.421875 C 1.347656 -2.484375 0.859375 -4.019531 0.859375 -6.03125 C 0.859375 -7.289062 1.09375 -8.394531 1.5625 -9.34375 C 2.039062 -10.300781 2.722656 -11.035156 3.609375 -11.546875 C 4.503906 -12.054688 5.550781 -12.3125 6.75 -12.3125 C 8.0625 -12.3125 9.316406 -12.023438 10.515625 -11.453125 L 9.5 -8.875 C 9.050781 -9.082031 8.601562 -9.257812 8.15625 -9.40625 C 7.707031 -9.550781 7.226562 -9.625 6.71875 -9.625 Z M 6.71875 -9.625 "/></g></g></g><g fill="#000000" fill-opacity="1"><g transform="translate(397.173962, 205.099993)"><g><path d="M 4.359375 0 L 1.125 0 L 1.125 -12.921875 L 4.359375 -12.921875 Z M 4.359375 0 "/></g></g></g><g fill="#000000" fill-opacity="1"><g transform="translate(402.666553, 205.099993)"><g><path d="M 4.390625 0 L 1.140625 0 L 1.140625 -9.40625 L 4.390625 -9.40625 Z M 1.046875 -11.75 C 1.046875 -12.226562 1.179688 -12.585938 1.453125 -12.828125 C 1.734375 -13.066406 2.171875 -13.1875 2.765625 -13.1875 C 3.367188 -13.1875 3.804688 -13.0625 4.078125 -12.8125 C 4.359375 -12.570312 4.5 -12.21875 4.5 -11.75 C 4.5 -10.789062 3.921875 -10.3125 2.765625 -10.3125 C 1.617188 -10.3125 1.046875 -10.789062 1.046875 -11.75 Z M 1.046875 -11.75 "/></g></g></g><g fill="#000000" fill-opacity="1"><g transform="translate(408.192332, 205.099993)"><g><path d="M 5.65625 0.171875 C 4.09375 0.171875 2.878906 -0.242188 2.015625 -1.078125 C 1.148438 -1.910156 0.71875 -3.097656 0.71875 -4.640625 C 0.71875 -6.222656 1.117188 -7.441406 1.921875 -8.296875 C 2.722656 -9.148438 3.867188 -9.578125 5.359375 -9.578125 C 6.773438 -9.578125 7.867188 -9.207031 8.640625 -8.46875 C 9.410156 -7.726562 9.796875 -6.660156 9.796875 -5.265625 L 9.796875 -3.828125 L 4 -3.828125 C 4.019531 -3.296875 4.207031 -2.878906 4.5625 -2.578125 C 4.925781 -2.285156 5.421875 -2.140625 6.046875 -2.140625 C 6.617188 -2.140625 7.144531 -2.191406 7.625 -2.296875 C 8.101562 -2.410156 8.625 -2.597656 9.1875 -2.859375 L 9.1875 -0.515625 C 8.675781 -0.265625 8.148438 -0.0859375 7.609375 0.015625 C 7.066406 0.117188 6.414062 0.171875 5.65625 0.171875 Z M 5.46875 -7.359375 C 5.082031 -7.359375 4.757812 -7.238281 4.5 -7 C 4.25 -6.757812 4.101562 -6.382812 4.0625 -5.875 L 6.84375 -5.875 C 6.832031 -6.320312 6.703125 -6.679688 6.453125 -6.953125 C 6.210938 -7.222656 5.882812 -7.359375 5.46875 -7.359375 Z M 5.46875 -7.359375 "/></g></g></g><g fill="#000000" fill-opacity="1"><g transform="translate(418.696291, 205.099993)"><g><path d="M 7.0625 0 L 7.0625 -5.125 C 7.0625 -5.75 6.96875 -6.21875 6.78125 -6.53125 C 6.601562 -6.851562 6.316406 -7.015625 5.921875 -7.015625 C 5.367188 -7.015625 4.96875 -6.796875 4.71875 -6.359375 C 4.476562 -5.929688 4.359375 -5.1875 4.359375 -4.125 L 4.359375 0 L 1.125 0 L 1.125 -9.40625 L 3.5625 -9.40625 L 3.96875 -8.25 L 4.171875 -8.25 C 4.441406 -8.6875 4.820312 -9.015625 5.3125 -9.234375 C 5.800781 -9.460938 6.363281 -9.578125 7 -9.578125 C 8.039062 -9.578125 8.847656 -9.273438 9.421875 -8.671875 C 10.003906 -8.066406 10.296875 -7.21875 10.296875 -6.125 L 10.296875 0 Z M 7.0625 0 "/></g></g></g><g fill="#000000" fill-opacity="1"><g transform="translate(430.079729, 205.099993)"><g><path d="M 5.734375 -2.40625 C 6.171875 -2.40625 6.691406 -2.507812 7.296875 -2.71875 L 7.296875 -0.359375 C 6.859375 -0.171875 6.441406 -0.0351562 6.046875 0.046875 C 5.648438 0.128906 5.1875 0.171875 4.65625 0.171875 C 3.5625 0.171875 2.773438 -0.09375 2.296875 -0.625 C 1.816406 -1.164062 1.578125 -1.988281 1.578125 -3.09375 L 1.578125 -6.96875 L 0.4375 -6.96875 L 0.4375 -8.296875 L 1.890625 -9.3125 L 2.71875 -11.296875 L 4.84375 -11.296875 L 4.84375 -9.40625 L 7.15625 -9.40625 L 7.15625 -6.96875 L 4.84375 -6.96875 L 4.84375 -3.3125 C 4.84375 -2.707031 5.140625 -2.40625 5.734375 -2.40625 Z M 5.734375 -2.40625 "/></g></g></g><g fill="#000000" fill-opacity="1"><g transform="translate(437.89547, 205.099993)"><g><path d="M 8.390625 -2.890625 C 8.390625 -1.878906 8.046875 -1.113281 7.359375 -0.59375 C 6.671875 -0.0820312 5.6875 0.171875 4.40625 0.171875 C 3.707031 0.171875 3.097656 0.128906 2.578125 0.046875 C 2.066406 -0.0234375 1.539062 -0.160156 1 -0.359375 L 1 -2.953125 C 1.507812 -2.734375 2.0625 -2.550781 2.65625 -2.40625 C 3.257812 -2.257812 3.796875 -2.1875 4.265625 -2.1875 C 4.972656 -2.1875 5.328125 -2.347656 5.328125 -2.671875 C 5.328125 -2.835938 5.226562 -2.984375 5.03125 -3.109375 C 4.832031 -3.242188 4.257812 -3.5 3.3125 -3.875 C 2.445312 -4.226562 1.84375 -4.628906 1.5 -5.078125 C 1.15625 -5.535156 0.984375 -6.109375 0.984375 -6.796875 C 0.984375 -7.671875 1.320312 -8.351562 2 -8.84375 C 2.675781 -9.332031 3.628906 -9.578125 4.859375 -9.578125 C 5.484375 -9.578125 6.066406 -9.507812 6.609375 -9.375 C 7.148438 -9.238281 7.71875 -9.039062 8.3125 -8.78125 L 7.421875 -6.6875 C 6.992188 -6.875 6.539062 -7.035156 6.0625 -7.171875 C 5.582031 -7.304688 5.1875 -7.375 4.875 -7.375 C 4.34375 -7.375 4.078125 -7.242188 4.078125 -6.984375 C 4.078125 -6.828125 4.171875 -6.691406 4.359375 -6.578125 C 4.546875 -6.460938 5.082031 -6.234375 5.96875 -5.890625 C 6.625 -5.617188 7.113281 -5.351562 7.4375 -5.09375 C 7.757812 -4.832031 8 -4.523438 8.15625 -4.171875 C 8.3125 -3.816406 8.390625 -3.390625 8.390625 -2.890625 Z M 8.390625 -2.890625 "/></g></g></g><g fill="#000000" fill-opacity="1"><g transform="translate(176.306145, 357.397004)"><g><path d="M 10.8125 0 L 10.078125 -2.8125 L 5.203125 -2.8125 L 4.453125 0 L 0 0 L 4.890625 -15.046875 L 10.296875 -15.046875 L 15.25 0 Z M 9.234375 -6.125 L 8.59375 -8.59375 C 8.445312 -9.132812 8.265625 -9.835938 8.046875 -10.703125 C 7.828125 -11.578125 7.6875 -12.203125 7.625 -12.578125 C 7.5625 -12.234375 7.4375 -11.660156 7.25 -10.859375 C 7.070312 -10.054688 6.671875 -8.476562 6.046875 -6.125 Z M 9.234375 -6.125 "/></g></g></g><g fill="#000000" fill-opacity="1"><g transform="translate(191.545199, 357.397004)"><g><path d="M 8.359375 0.203125 C 7.765625 0.203125 7.234375 0.109375 6.765625 -0.078125 C 6.304688 -0.273438 5.847656 -0.628906 5.390625 -1.140625 L 5.203125 -1.140625 C 5.328125 -0.328125 5.390625 0.175781 5.390625 0.375 L 5.390625 5.046875 L 1.390625 5.046875 L 1.390625 -11.625 L 4.640625 -11.625 L 5.203125 -10.140625 L 5.390625 -10.140625 C 6.140625 -11.265625 7.171875 -11.828125 8.484375 -11.828125 C 9.765625 -11.828125 10.769531 -11.289062 11.5 -10.21875 C 12.238281 -9.15625 12.609375 -7.691406 12.609375 -5.828125 C 12.609375 -3.960938 12.222656 -2.488281 11.453125 -1.40625 C 10.691406 -0.332031 9.660156 0.203125 8.359375 0.203125 Z M 7.015625 -8.671875 C 6.421875 -8.671875 6.003906 -8.457031 5.765625 -8.03125 C 5.535156 -7.613281 5.410156 -6.992188 5.390625 -6.171875 L 5.390625 -5.859375 C 5.390625 -4.859375 5.519531 -4.132812 5.78125 -3.6875 C 6.050781 -3.25 6.476562 -3.03125 7.0625 -3.03125 C 7.570312 -3.03125 7.941406 -3.25 8.171875 -3.6875 C 8.398438 -4.125 8.515625 -4.851562 8.515625 -5.875 C 8.515625 -6.875 8.398438 -7.585938 8.171875 -8.015625 C 7.941406 -8.453125 7.554688 -8.671875 7.015625 -8.671875 Z M 7.015625 -8.671875 "/></g></g></g><g fill="#000000" fill-opacity="1"><g transform="translate(205.042062, 357.397004)"><g><path d="M 8.359375 0.203125 C 7.765625 0.203125 7.234375 0.109375 6.765625 -0.078125 C 6.304688 -0.273438 5.847656 -0.628906 5.390625 -1.140625 L 5.203125 -1.140625 C 5.328125 -0.328125 5.390625 0.175781 5.390625 0.375 L 5.390625 5.046875 L 1.390625 5.046875 L 1.390625 -11.625 L 4.640625 -11.625 L 5.203125 -10.140625 L 5.390625 -10.140625 C 6.140625 -11.265625 7.171875 -11.828125 8.484375 -11.828125 C 9.765625 -11.828125 10.769531 -11.289062 11.5 -10.21875 C 12.238281 -9.15625 12.609375 -7.691406 12.609375 -5.828125 C 12.609375 -3.960938 12.222656 -2.488281 11.453125 -1.40625 C 10.691406 -0.332031 9.660156 0.203125 8.359375 0.203125 Z M 7.015625 -8.671875 C 6.421875 -8.671875 6.003906 -8.457031 5.765625 -8.03125 C 5.535156 -7.613281 5.410156 -6.992188 5.390625 -6.171875 L 5.390625 -5.859375 C 5.390625 -4.859375 5.519531 -4.132812 5.78125 -3.6875 C 6.050781 -3.25 6.476562 -3.03125 7.0625 -3.03125 C 7.570312 -3.03125 7.941406 -3.25 8.171875 -3.6875 C 8.398438 -4.125 8.515625 -4.851562 8.515625 -5.875 C 8.515625 -6.875 8.398438 -7.585938 8.171875 -8.015625 C 7.941406 -8.453125 7.554688 -8.671875 7.015625 -8.671875 Z M 7.015625 -8.671875 "/></g></g></g><g fill="#000000" fill-opacity="1"><g transform="translate(218.538926, 357.397004)"><g><path d="M 5.390625 0 L 1.390625 0 L 1.390625 -15.953125 L 5.390625 -15.953125 Z M 5.390625 0 "/></g></g></g><g fill="#000000" fill-opacity="1"><g transform="translate(225.323223, 357.397004)"><g><path d="M 5.421875 0 L 1.40625 0 L 1.40625 -11.625 L 5.421875 -11.625 Z M 1.296875 -14.515625 C 1.296875 -15.109375 1.460938 -15.550781 1.796875 -15.84375 C 2.140625 -16.144531 2.679688 -16.296875 3.421875 -16.296875 C 4.171875 -16.296875 4.710938 -16.144531 5.046875 -15.84375 C 5.390625 -15.539062 5.5625 -15.097656 5.5625 -14.515625 C 5.5625 -13.335938 4.847656 -12.75 3.421875 -12.75 C 2.003906 -12.75 1.296875 -13.335938 1.296875 -14.515625 Z M 1.296875 -14.515625 "/></g></g></g><g fill="#000000" fill-opacity="1"><g transform="translate(232.148513, 357.397004)"><g><path d="M 6.671875 0.203125 C 4.773438 0.203125 3.332031 -0.304688 2.34375 -1.328125 C 1.363281 -2.359375 0.875 -3.832031 0.875 -5.75 C 0.875 -7.675781 1.40625 -9.171875 2.46875 -10.234375 C 3.53125 -11.296875 5.039062 -11.828125 7 -11.828125 C 8.34375 -11.828125 9.609375 -11.53125 10.796875 -10.9375 L 9.625 -7.984375 C 9.132812 -8.191406 8.679688 -8.359375 8.265625 -8.484375 C 7.859375 -8.609375 7.4375 -8.671875 7 -8.671875 C 6.34375 -8.671875 5.835938 -8.414062 5.484375 -7.90625 C 5.128906 -7.40625 4.953125 -6.691406 4.953125 -5.765625 C 4.953125 -3.910156 5.640625 -2.984375 7.015625 -2.984375 C 8.191406 -2.984375 9.316406 -3.328125 10.390625 -4.015625 L 10.390625 -0.828125 C 9.359375 -0.140625 8.117188 0.203125 6.671875 0.203125 Z M 6.671875 0.203125 "/></g></g></g><g fill="#000000" fill-opacity="1"><g transform="translate(243.462508, 357.397004)"><g><path d="M 8.96875 0 L 8.1875 -1.53125 L 8.109375 -1.53125 C 7.566406 -0.863281 7.015625 -0.40625 6.453125 -0.15625 C 5.898438 0.0820312 5.175781 0.203125 4.28125 0.203125 C 3.1875 0.203125 2.328125 -0.125 1.703125 -0.78125 C 1.078125 -1.4375 0.765625 -2.359375 0.765625 -3.546875 C 0.765625 -4.785156 1.191406 -5.707031 2.046875 -6.3125 C 2.910156 -6.914062 4.160156 -7.253906 5.796875 -7.328125 L 7.734375 -7.390625 L 7.734375 -7.5625 C 7.734375 -8.519531 7.257812 -9 6.3125 -9 C 5.46875 -9 4.394531 -8.707031 3.09375 -8.125 L 1.921875 -10.78125 C 3.273438 -11.476562 4.988281 -11.828125 7.0625 -11.828125 C 8.550781 -11.828125 9.703125 -11.457031 10.515625 -10.71875 C 11.328125 -9.976562 11.734375 -8.945312 11.734375 -7.625 L 11.734375 0 Z M 5.984375 -2.625 C 6.472656 -2.625 6.890625 -2.773438 7.234375 -3.078125 C 7.578125 -3.390625 7.75 -3.789062 7.75 -4.28125 L 7.75 -5.1875 L 6.828125 -5.140625 C 5.503906 -5.097656 4.84375 -4.613281 4.84375 -3.6875 C 4.84375 -2.976562 5.222656 -2.625 5.984375 -2.625 Z M 5.984375 -2.625 "/></g></g></g><g fill="#000000" fill-opacity="1"><g transform="translate(256.539189, 357.397004)"><g><path d="M 7.078125 -2.96875 C 7.617188 -2.96875 8.265625 -3.097656 9.015625 -3.359375 L 9.015625 -0.4375 C 8.472656 -0.207031 7.957031 -0.046875 7.46875 0.046875 C 6.976562 0.148438 6.40625 0.203125 5.75 0.203125 C 4.40625 0.203125 3.4375 -0.125 2.84375 -0.78125 C 2.25 -1.445312 1.953125 -2.460938 1.953125 -3.828125 L 1.953125 -8.609375 L 0.546875 -8.609375 L 0.546875 -10.25 L 2.328125 -11.5 L 3.359375 -13.953125 L 5.984375 -13.953125 L 5.984375 -11.625 L 8.84375 -11.625 L 8.84375 -8.609375 L 5.984375 -8.609375 L 5.984375 -4.09375 C 5.984375 -3.34375 6.347656 -2.96875 7.078125 -2.96875 Z M 7.078125 -2.96875 "/></g></g></g><g fill="#000000" fill-opacity="1"><g transform="translate(266.192978, 357.397004)"><g><path d="M 5.421875 0 L 1.40625 0 L 1.40625 -11.625 L 5.421875 -11.625 Z M 1.296875 -14.515625 C 1.296875 -15.109375 1.460938 -15.550781 1.796875 -15.84375 C 2.140625 -16.144531 2.679688 -16.296875 3.421875 -16.296875 C 4.171875 -16.296875 4.710938 -16.144531 5.046875 -15.84375 C 5.390625 -15.539062 5.5625 -15.097656 5.5625 -14.515625 C 5.5625 -13.335938 4.847656 -12.75 3.421875 -12.75 C 2.003906 -12.75 1.296875 -13.335938 1.296875 -14.515625 Z M 1.296875 -14.515625 "/></g></g></g><g fill="#000000" fill-opacity="1"><g transform="translate(273.018268, 357.397004)"><g><path d="M 12.484375 -5.828125 C 12.484375 -3.929688 11.96875 -2.453125 10.9375 -1.390625 C 9.914062 -0.328125 8.488281 0.203125 6.65625 0.203125 C 4.894531 0.203125 3.488281 -0.335938 2.4375 -1.421875 C 1.394531 -2.515625 0.875 -3.984375 0.875 -5.828125 C 0.875 -7.722656 1.382812 -9.195312 2.40625 -10.25 C 3.4375 -11.300781 4.875 -11.828125 6.71875 -11.828125 C 7.851562 -11.828125 8.859375 -11.582031 9.734375 -11.09375 C 10.609375 -10.601562 11.285156 -9.90625 11.765625 -9 C 12.242188 -8.101562 12.484375 -7.046875 12.484375 -5.828125 Z M 4.953125 -5.828125 C 4.953125 -4.835938 5.082031 -4.078125 5.34375 -3.546875 C 5.613281 -3.023438 6.066406 -2.765625 6.703125 -2.765625 C 7.316406 -2.765625 7.75 -3.023438 8 -3.546875 C 8.257812 -4.078125 8.390625 -4.835938 8.390625 -5.828125 C 8.390625 -6.828125 8.257812 -7.578125 8 -8.078125 C 7.75 -8.585938 7.304688 -8.84375 6.671875 -8.84375 C 6.054688 -8.84375 5.613281 -8.585938 5.34375 -8.078125 C 5.082031 -7.578125 4.953125 -6.828125 4.953125 -5.828125 Z M 4.953125 -5.828125 "/></g></g></g><g fill="#000000" fill-opacity="1"><g transform="translate(286.392153, 357.397004)"><g><path d="M 8.71875 0 L 8.71875 -6.34375 C 8.71875 -7.113281 8.601562 -7.691406 8.375 -8.078125 C 8.15625 -8.472656 7.800781 -8.671875 7.3125 -8.671875 C 6.632812 -8.671875 6.144531 -8.398438 5.84375 -7.859375 C 5.539062 -7.328125 5.390625 -6.40625 5.390625 -5.09375 L 5.390625 0 L 1.390625 0 L 1.390625 -11.625 L 4.40625 -11.625 L 4.90625 -10.1875 L 5.140625 -10.1875 C 5.484375 -10.726562 5.957031 -11.132812 6.5625 -11.40625 C 7.164062 -11.6875 7.863281 -11.828125 8.65625 -11.828125 C 9.9375 -11.828125 10.929688 -11.453125 11.640625 -10.703125 C 12.359375 -9.960938 12.71875 -8.914062 12.71875 -7.5625 L 12.71875 0 Z M 8.71875 0 "/></g></g></g><g fill="#000000" fill-opacity="1"><g transform="translate(300.452661, 357.397004)"><g><path d="M 10.359375 -3.5625 C 10.359375 -2.320312 9.929688 -1.382812 9.078125 -0.75 C 8.234375 -0.113281 7.019531 0.203125 5.4375 0.203125 C 4.570312 0.203125 3.820312 0.15625 3.1875 0.0625 C 2.550781 -0.03125 1.898438 -0.195312 1.234375 -0.4375 L 1.234375 -3.65625 C 1.859375 -3.375 2.539062 -3.144531 3.28125 -2.96875 C 4.03125 -2.789062 4.691406 -2.703125 5.265625 -2.703125 C 6.140625 -2.703125 6.578125 -2.898438 6.578125 -3.296875 C 6.578125 -3.503906 6.453125 -3.6875 6.203125 -3.84375 C 5.960938 -4.007812 5.257812 -4.320312 4.09375 -4.78125 C 3.019531 -5.21875 2.269531 -5.710938 1.84375 -6.265625 C 1.425781 -6.828125 1.21875 -7.535156 1.21875 -8.390625 C 1.21875 -9.472656 1.632812 -10.316406 2.46875 -10.921875 C 3.300781 -11.523438 4.484375 -11.828125 6.015625 -11.828125 C 6.773438 -11.828125 7.488281 -11.742188 8.15625 -11.578125 C 8.832031 -11.410156 9.535156 -11.164062 10.265625 -10.84375 L 9.171875 -8.25 C 8.640625 -8.488281 8.078125 -8.691406 7.484375 -8.859375 C 6.890625 -9.023438 6.40625 -9.109375 6.03125 -9.109375 C 5.375 -9.109375 5.046875 -8.953125 5.046875 -8.640625 C 5.046875 -8.441406 5.160156 -8.269531 5.390625 -8.125 C 5.617188 -7.988281 6.28125 -7.703125 7.375 -7.265625 C 8.1875 -6.929688 8.789062 -6.601562 9.1875 -6.28125 C 9.59375 -5.957031 9.890625 -5.578125 10.078125 -5.140625 C 10.265625 -4.710938 10.359375 -4.1875 10.359375 -3.5625 Z M 10.359375 -3.5625 "/></g></g></g><g fill="#000000" fill-opacity="1"><g transform="translate(311.643677, 357.397004)"><g/></g></g><g fill="#000000" fill-opacity="1"><g transform="translate(317.095711, 357.397004)"><g><path d="M 5 0.203125 C 4.164062 0.203125 3.4375 -0.03125 2.8125 -0.5 C 2.195312 -0.96875 1.71875 -1.660156 1.375 -2.578125 C 1.039062 -3.492188 0.875 -4.566406 0.875 -5.796875 C 0.875 -7.679688 1.253906 -9.15625 2.015625 -10.21875 C 2.773438 -11.289062 3.816406 -11.828125 5.140625 -11.828125 C 5.796875 -11.828125 6.367188 -11.695312 6.859375 -11.4375 C 7.347656 -11.175781 7.789062 -10.738281 8.1875 -10.125 L 8.28125 -10.125 C 8.144531 -11.03125 8.078125 -11.9375 8.078125 -12.84375 L 8.078125 -15.953125 L 12.125 -15.953125 L 12.125 0 L 9.09375 0 L 8.234375 -1.46875 L 8.078125 -1.46875 C 7.390625 -0.351562 6.363281 0.203125 5 0.203125 Z M 6.640625 -2.96875 C 7.273438 -2.96875 7.722656 -3.164062 7.984375 -3.5625 C 8.253906 -3.96875 8.398438 -4.59375 8.421875 -5.4375 L 8.421875 -5.75 C 8.421875 -6.78125 8.269531 -7.507812 7.96875 -7.9375 C 7.675781 -8.375 7.21875 -8.59375 6.59375 -8.59375 C 6.0625 -8.59375 5.648438 -8.34375 5.359375 -7.84375 C 5.078125 -7.351562 4.9375 -6.648438 4.9375 -5.734375 C 4.9375 -4.828125 5.082031 -4.140625 5.375 -3.671875 C 5.664062 -3.203125 6.085938 -2.96875 6.640625 -2.96875 Z M 6.640625 -2.96875 "/></g></g></g><g fill="#000000" fill-opacity="1"><g transform="translate(330.592574, 357.397004)"><g><path d="M 4.890625 -14.984375 L 4.46875 -9.578125 L 1.65625 -9.578125 L 1.234375 -14.984375 Z M 4.890625 -14.984375 "/></g></g></g><g fill="#000000" fill-opacity="1"><g transform="translate(336.720988, 357.397004)"><g><path d="M 9.65625 0 L 9.15625 -1.453125 L 8.921875 -1.453125 C 8.585938 -0.910156 8.117188 -0.5 7.515625 -0.21875 C 6.921875 0.0625 6.222656 0.203125 5.421875 0.203125 C 4.140625 0.203125 3.140625 -0.164062 2.421875 -0.90625 C 1.710938 -1.644531 1.359375 -2.691406 1.359375 -4.046875 L 1.359375 -11.625 L 5.375 -11.625 L 5.375 -5.265625 C 5.375 -4.503906 5.476562 -3.929688 5.6875 -3.546875 C 5.90625 -3.160156 6.257812 -2.96875 6.75 -2.96875 C 7.445312 -2.96875 7.941406 -3.238281 8.234375 -3.78125 C 8.523438 -4.320312 8.671875 -5.238281 8.671875 -6.53125 L 8.671875 -11.625 L 12.6875 -11.625 L 12.6875 0 Z M 9.65625 0 "/></g></g></g><g fill="#000000" fill-opacity="1"><g transform="translate(350.781495, 357.397004)"><g><path d="M 8.484375 -11.828125 C 9.742188 -11.828125 10.742188 -11.296875 11.484375 -10.234375 C 12.234375 -9.171875 12.609375 -7.703125 12.609375 -5.828125 C 12.609375 -3.941406 12.234375 -2.460938 11.484375 -1.390625 C 10.734375 -0.328125 9.691406 0.203125 8.359375 0.203125 C 7.929688 0.203125 7.546875 0.15625 7.203125 0.0625 C 6.867188 -0.03125 6.570312 -0.15625 6.3125 -0.3125 C 6.050781 -0.476562 5.742188 -0.753906 5.390625 -1.140625 L 5.140625 -1.140625 L 4.515625 0 L 1.390625 0 L 1.390625 -15.953125 L 5.390625 -15.953125 L 5.390625 -12.34375 C 5.390625 -11.914062 5.34375 -11.175781 5.25 -10.125 L 5.390625 -10.125 C 5.785156 -10.71875 6.234375 -11.148438 6.734375 -11.421875 C 7.242188 -11.691406 7.828125 -11.828125 8.484375 -11.828125 Z M 7.015625 -8.671875 C 6.453125 -8.671875 6.039062 -8.472656 5.78125 -8.078125 C 5.519531 -7.691406 5.390625 -7.082031 5.390625 -6.25 L 5.390625 -5.6875 C 5.390625 -4.738281 5.519531 -4.054688 5.78125 -3.640625 C 6.039062 -3.234375 6.46875 -3.03125 7.0625 -3.03125 C 7.53125 -3.03125 7.890625 -3.269531 8.140625 -3.75 C 8.390625 -4.226562 8.515625 -4.9375 8.515625 -5.875 C 8.515625 -7.738281 8.015625 -8.671875 7.015625 -8.671875 Z M 7.015625 -8.671875 "/></g></g></g><g fill="#000000" fill-opacity="1"><g transform="translate(364.278359, 357.397004)"><g><path d="M 7 0.203125 C 5.0625 0.203125 3.554688 -0.304688 2.484375 -1.328125 C 1.410156 -2.359375 0.875 -3.828125 0.875 -5.734375 C 0.875 -7.691406 1.367188 -9.195312 2.359375 -10.25 C 3.359375 -11.300781 4.773438 -11.828125 6.609375 -11.828125 C 8.359375 -11.828125 9.707031 -11.367188 10.65625 -10.453125 C 11.613281 -9.535156 12.09375 -8.222656 12.09375 -6.515625 L 12.09375 -4.734375 L 4.9375 -4.734375 C 4.957031 -4.078125 5.191406 -3.5625 5.640625 -3.1875 C 6.085938 -2.820312 6.695312 -2.640625 7.46875 -2.640625 C 8.175781 -2.640625 8.828125 -2.707031 9.421875 -2.84375 C 10.015625 -2.976562 10.65625 -3.207031 11.34375 -3.53125 L 11.34375 -0.640625 C 10.707031 -0.328125 10.054688 -0.109375 9.390625 0.015625 C 8.722656 0.140625 7.925781 0.203125 7 0.203125 Z M 6.75 -9.09375 C 6.28125 -9.09375 5.882812 -8.941406 5.5625 -8.640625 C 5.25 -8.347656 5.066406 -7.882812 5.015625 -7.25 L 8.453125 -7.25 C 8.441406 -7.8125 8.285156 -8.257812 7.984375 -8.59375 C 7.679688 -8.925781 7.269531 -9.09375 6.75 -9.09375 Z M 4.828125 -12.71875 L 4.828125 -13.015625 C 5.878906 -14.148438 6.546875 -14.878906 6.828125 -15.203125 C 7.117188 -15.535156 7.359375 -15.832031 7.546875 -16.09375 L 11.921875 -16.09375 L 11.921875 -15.875 C 11.378906 -15.4375 10.628906 -14.878906 9.671875 -14.203125 C 8.710938 -13.523438 7.988281 -13.03125 7.5 -12.71875 Z M 4.828125 -12.71875 "/></g></g></g><g fill="#000000" fill-opacity="1"><g transform="translate(377.25257, 357.397004)"><g><path d="M 8.390625 -11.828125 C 8.742188 -11.828125 9.078125 -11.796875 9.390625 -11.734375 L 9.625 -11.703125 L 9.265625 -7.921875 C 8.929688 -8.003906 8.472656 -8.046875 7.890625 -8.046875 C 7.015625 -8.046875 6.378906 -7.84375 5.984375 -7.4375 C 5.585938 -7.039062 5.390625 -6.46875 5.390625 -5.71875 L 5.390625 0 L 1.390625 0 L 1.390625 -11.625 L 4.375 -11.625 L 5 -9.765625 L 5.1875 -9.765625 C 5.519531 -10.378906 5.984375 -10.875 6.578125 -11.25 C 7.179688 -11.632812 7.785156 -11.828125 8.390625 -11.828125 Z M 8.390625 -11.828125 "/></g></g></g><g fill="#000000" fill-opacity="1"><g transform="translate(387.10108, 357.397004)"><g><path d="M 5.421875 0 L 1.40625 0 L 1.40625 -11.625 L 5.421875 -11.625 Z M 1.296875 -14.515625 C 1.296875 -15.109375 1.460938 -15.550781 1.796875 -15.84375 C 2.140625 -16.144531 2.679688 -16.296875 3.421875 -16.296875 C 4.171875 -16.296875 4.710938 -16.144531 5.046875 -15.84375 C 5.390625 -15.539062 5.5625 -15.097656 5.5625 -14.515625 C 5.5625 -13.335938 4.847656 -12.75 3.421875 -12.75 C 2.003906 -12.75 1.296875 -13.335938 1.296875 -14.515625 Z M 1.296875 -14.515625 "/></g></g></g><g fill="#000000" fill-opacity="1"><g transform="translate(393.926382, 357.397004)"><g><path d="M 10.359375 -3.5625 C 10.359375 -2.320312 9.929688 -1.382812 9.078125 -0.75 C 8.234375 -0.113281 7.019531 0.203125 5.4375 0.203125 C 4.570312 0.203125 3.820312 0.15625 3.1875 0.0625 C 2.550781 -0.03125 1.898438 -0.195312 1.234375 -0.4375 L 1.234375 -3.65625 C 1.859375 -3.375 2.539062 -3.144531 3.28125 -2.96875 C 4.03125 -2.789062 4.691406 -2.703125 5.265625 -2.703125 C 6.140625 -2.703125 6.578125 -2.898438 6.578125 -3.296875 C 6.578125 -3.503906 6.453125 -3.6875 6.203125 -3.84375 C 5.960938 -4.007812 5.257812 -4.320312 4.09375 -4.78125 C 3.019531 -5.21875 2.269531 -5.710938 1.84375 -6.265625 C 1.425781 -6.828125 1.21875 -7.535156 1.21875 -8.390625 C 1.21875 -9.472656 1.632812 -10.316406 2.46875 -10.921875 C 3.300781 -11.523438 4.484375 -11.828125 6.015625 -11.828125 C 6.773438 -11.828125 7.488281 -11.742188 8.15625 -11.578125 C 8.832031 -11.410156 9.535156 -11.164062 10.265625 -10.84375 L 9.171875 -8.25 C 8.640625 -8.488281 8.078125 -8.691406 7.484375 -8.859375 C 6.890625 -9.023438 6.40625 -9.109375 6.03125 -9.109375 C 5.375 -9.109375 5.046875 -8.953125 5.046875 -8.640625 C 5.046875 -8.441406 5.160156 -8.269531 5.390625 -8.125 C 5.617188 -7.988281 6.28125 -7.703125 7.375 -7.265625 C 8.1875 -6.929688 8.789062 -6.601562 9.1875 -6.28125 C 9.59375 -5.957031 9.890625 -5.578125 10.078125 -5.140625 C 10.265625 -4.710938 10.359375 -4.1875 10.359375 -3.5625 Z M 10.359375 -3.5625 "/></g></g></g><g fill="#000000" fill-opacity="1"><g transform="translate(405.117398, 357.397004)"><g><path d="M 8.96875 0 L 8.1875 -1.53125 L 8.109375 -1.53125 C 7.566406 -0.863281 7.015625 -0.40625 6.453125 -0.15625 C 5.898438 0.0820312 5.175781 0.203125 4.28125 0.203125 C 3.1875 0.203125 2.328125 -0.125 1.703125 -0.78125 C 1.078125 -1.4375 0.765625 -2.359375 0.765625 -3.546875 C 0.765625 -4.785156 1.191406 -5.707031 2.046875 -6.3125 C 2.910156 -6.914062 4.160156 -7.253906 5.796875 -7.328125 L 7.734375 -7.390625 L 7.734375 -7.5625 C 7.734375 -8.519531 7.257812 -9 6.3125 -9 C 5.46875 -9 4.394531 -8.707031 3.09375 -8.125 L 1.921875 -10.78125 C 3.273438 -11.476562 4.988281 -11.828125 7.0625 -11.828125 C 8.550781 -11.828125 9.703125 -11.457031 10.515625 -10.71875 C 11.328125 -9.976562 11.734375 -8.945312 11.734375 -7.625 L 11.734375 0 Z M 5.984375 -2.625 C 6.472656 -2.625 6.890625 -2.773438 7.234375 -3.078125 C 7.578125 -3.390625 7.75 -3.789062 7.75 -4.28125 L 7.75 -5.1875 L 6.828125 -5.140625 C 5.503906 -5.097656 4.84375 -4.613281 4.84375 -3.6875 C 4.84375 -2.976562 5.222656 -2.625 5.984375 -2.625 Z M 5.984375 -2.625 "/></g></g></g><g fill="#000000" fill-opacity="1"><g transform="translate(418.19408, 357.397004)"><g><path d="M 7.078125 -2.96875 C 7.617188 -2.96875 8.265625 -3.097656 9.015625 -3.359375 L 9.015625 -0.4375 C 8.472656 -0.207031 7.957031 -0.046875 7.46875 0.046875 C 6.976562 0.148438 6.40625 0.203125 5.75 0.203125 C 4.40625 0.203125 3.4375 -0.125 2.84375 -0.78125 C 2.25 -1.445312 1.953125 -2.460938 1.953125 -3.828125 L 1.953125 -8.609375 L 0.546875 -8.609375 L 0.546875 -10.25 L 2.328125 -11.5 L 3.359375 -13.953125 L 5.984375 -13.953125 L 5.984375 -11.625 L 8.84375 -11.625 L 8.84375 -8.609375 L 5.984375 -8.609375 L 5.984375 -4.09375 C 5.984375 -3.34375 6.347656 -2.96875 7.078125 -2.96875 Z M 7.078125 -2.96875 "/></g></g></g><g fill="#000000" fill-opacity="1"><g transform="translate(427.847857, 357.397004)"><g><path d="M 5.421875 0 L 1.40625 0 L 1.40625 -11.625 L 5.421875 -11.625 Z M 1.296875 -14.515625 C 1.296875 -15.109375 1.460938 -15.550781 1.796875 -15.84375 C 2.140625 -16.144531 2.679688 -16.296875 3.421875 -16.296875 C 4.171875 -16.296875 4.710938 -16.144531 5.046875 -15.84375 C 5.390625 -15.539062 5.5625 -15.097656 5.5625 -14.515625 C 5.5625 -13.335938 4.847656 -12.75 3.421875 -12.75 C 2.003906 -12.75 1.296875 -13.335938 1.296875 -14.515625 Z M 1.296875 -14.515625 "/></g></g></g><g fill="#000000" fill-opacity="1"><g transform="translate(434.673159, 357.397004)"><g><path d="M 12.484375 -5.828125 C 12.484375 -3.929688 11.96875 -2.453125 10.9375 -1.390625 C 9.914062 -0.328125 8.488281 0.203125 6.65625 0.203125 C 4.894531 0.203125 3.488281 -0.335938 2.4375 -1.421875 C 1.394531 -2.515625 0.875 -3.984375 0.875 -5.828125 C 0.875 -7.722656 1.382812 -9.195312 2.40625 -10.25 C 3.4375 -11.300781 4.875 -11.828125 6.71875 -11.828125 C 7.851562 -11.828125 8.859375 -11.582031 9.734375 -11.09375 C 10.609375 -10.601562 11.285156 -9.90625 11.765625 -9 C 12.242188 -8.101562 12.484375 -7.046875 12.484375 -5.828125 Z M 4.953125 -5.828125 C 4.953125 -4.835938 5.082031 -4.078125 5.34375 -3.546875 C 5.613281 -3.023438 6.066406 -2.765625 6.703125 -2.765625 C 7.316406 -2.765625 7.75 -3.023438 8 -3.546875 C 8.257812 -4.078125 8.390625 -4.835938 8.390625 -5.828125 C 8.390625 -6.828125 8.257812 -7.578125 8 -8.078125 C 7.75 -8.585938 7.304688 -8.84375 6.671875 -8.84375 C 6.054688 -8.84375 5.613281 -8.585938 5.34375 -8.078125 C 5.082031 -7.578125 4.953125 -6.828125 4.953125 -5.828125 Z M 4.953125 -5.828125 "/></g></g></g><g fill="#000000" fill-opacity="1"><g transform="translate(448.047044, 357.397004)"><g><path d="M 8.71875 0 L 8.71875 -6.34375 C 8.71875 -7.113281 8.601562 -7.691406 8.375 -8.078125 C 8.15625 -8.472656 7.800781 -8.671875 7.3125 -8.671875 C 6.632812 -8.671875 6.144531 -8.398438 5.84375 -7.859375 C 5.539062 -7.328125 5.390625 -6.40625 5.390625 -5.09375 L 5.390625 0 L 1.390625 0 L 1.390625 -11.625 L 4.40625 -11.625 L 4.90625 -10.1875 L 5.140625 -10.1875 C 5.484375 -10.726562 5.957031 -11.132812 6.5625 -11.40625 C 7.164062 -11.6875 7.863281 -11.828125 8.65625 -11.828125 C 9.9375 -11.828125 10.929688 -11.453125 11.640625 -10.703125 C 12.359375 -9.960938 12.71875 -8.914062 12.71875 -7.5625 L 12.71875 0 Z M 8.71875 0 "/></g></g></g><g fill="#000000" fill-opacity="1"><g transform="translate(177.682145, 173.849986)"><g><path d="M 1.078125 0 L 1.078125 -10 L 3.78125 -10 L 3.78125 -2.1875 L 7.625 -2.1875 L 7.625 0 Z M 1.078125 0 "/></g></g></g><g fill="#000000" fill-opacity="1"><g transform="translate(185.826034, 173.849986)"><g><path d="M 3.609375 0 L 0.9375 0 L 0.9375 -7.75 L 3.609375 -7.75 Z M 0.875 -9.671875 C 0.875 -10.078125 0.984375 -10.375 1.203125 -10.5625 C 1.421875 -10.757812 1.78125 -10.859375 2.28125 -10.859375 C 2.78125 -10.859375 3.144531 -10.757812 3.375 -10.5625 C 3.601562 -10.363281 3.71875 -10.066406 3.71875 -9.671875 C 3.71875 -8.890625 3.238281 -8.5 2.28125 -8.5 C 1.34375 -8.5 0.875 -8.890625 0.875 -9.671875 Z M 0.875 -9.671875 "/></g></g></g><g fill="#000000" fill-opacity="1"><g transform="translate(190.376228, 173.849986)"><g><path d="M 2.953125 0 L 0 -7.75 L 2.796875 -7.75 L 4.109375 -3.171875 C 4.109375 -3.140625 4.113281 -3.097656 4.125 -3.046875 C 4.144531 -2.992188 4.160156 -2.925781 4.171875 -2.84375 C 4.179688 -2.769531 4.191406 -2.691406 4.203125 -2.609375 C 4.210938 -2.523438 4.21875 -2.445312 4.21875 -2.375 L 4.265625 -2.375 C 4.265625 -2.613281 4.304688 -2.875 4.390625 -3.15625 L 5.765625 -7.75 L 8.546875 -7.75 L 5.59375 0 Z M 2.953125 0 "/></g></g></g><g fill="#000000" fill-opacity="1"><g transform="translate(198.923213, 173.849986)"><g><path d="M 5.59375 -7.875 C 5.832031 -7.875 6.054688 -7.859375 6.265625 -7.828125 L 6.40625 -7.796875 L 6.171875 -5.28125 C 5.953125 -5.332031 5.648438 -5.359375 5.265625 -5.359375 C 4.679688 -5.359375 4.253906 -5.222656 3.984375 -4.953125 C 3.722656 -4.691406 3.59375 -4.3125 3.59375 -3.8125 L 3.59375 0 L 0.921875 0 L 0.921875 -7.75 L 2.90625 -7.75 L 3.328125 -6.515625 L 3.453125 -6.515625 C 3.679688 -6.921875 3.992188 -7.25 4.390625 -7.5 C 4.785156 -7.75 5.1875 -7.875 5.59375 -7.875 Z M 5.59375 -7.875 "/></g></g></g><g fill="#000000" fill-opacity="1"><g transform="translate(205.488882, 173.849986)"><g><path d="M 4.65625 0.140625 C 3.375 0.140625 2.375 -0.203125 1.65625 -0.890625 C 0.945312 -1.578125 0.59375 -2.554688 0.59375 -3.828125 C 0.59375 -5.128906 0.921875 -6.128906 1.578125 -6.828125 C 2.242188 -7.523438 3.1875 -7.875 4.40625 -7.875 C 5.570312 -7.875 6.472656 -7.570312 7.109375 -6.96875 C 7.742188 -6.363281 8.0625 -5.488281 8.0625 -4.34375 L 8.0625 -3.15625 L 3.28125 -3.15625 C 3.300781 -2.71875 3.460938 -2.375 3.765625 -2.125 C 4.066406 -1.882812 4.472656 -1.765625 4.984375 -1.765625 C 5.453125 -1.765625 5.882812 -1.804688 6.28125 -1.890625 C 6.675781 -1.984375 7.101562 -2.140625 7.5625 -2.359375 L 7.5625 -0.4375 C 7.144531 -0.21875 6.710938 -0.0664062 6.265625 0.015625 C 5.816406 0.0976562 5.28125 0.140625 4.65625 0.140625 Z M 4.5 -6.0625 C 4.1875 -6.0625 3.921875 -5.960938 3.703125 -5.765625 C 3.492188 -5.566406 3.375 -5.253906 3.34375 -4.828125 L 5.640625 -4.828125 C 5.628906 -5.203125 5.519531 -5.5 5.3125 -5.71875 C 5.113281 -5.945312 4.84375 -6.0625 4.5 -6.0625 Z M 4.5 -6.0625 "/></g></g></g><g fill="#000000" fill-opacity="1"><g transform="translate(214.138349, 173.849986)"><g><path d="M 6.4375 0 L 6.109375 -0.96875 L 5.953125 -0.96875 C 5.722656 -0.613281 5.410156 -0.335938 5.015625 -0.140625 C 4.617188 0.046875 4.148438 0.140625 3.609375 0.140625 C 2.753906 0.140625 2.085938 -0.101562 1.609375 -0.59375 C 1.140625 -1.09375 0.90625 -1.796875 0.90625 -2.703125 L 0.90625 -7.75 L 3.578125 -7.75 L 3.578125 -3.515625 C 3.578125 -3.003906 3.648438 -2.617188 3.796875 -2.359375 C 3.941406 -2.097656 4.175781 -1.96875 4.5 -1.96875 C 4.96875 -1.96875 5.296875 -2.148438 5.484375 -2.515625 C 5.679688 -2.878906 5.78125 -3.492188 5.78125 -4.359375 L 5.78125 -7.75 L 8.453125 -7.75 L 8.453125 0 Z M 6.4375 0 "/></g></g></g><g fill="#000000" fill-opacity="1"><g transform="translate(223.512021, 173.849986)"><g><path d="M 5.59375 -7.875 C 5.832031 -7.875 6.054688 -7.859375 6.265625 -7.828125 L 6.40625 -7.796875 L 6.171875 -5.28125 C 5.953125 -5.332031 5.648438 -5.359375 5.265625 -5.359375 C 4.679688 -5.359375 4.253906 -5.222656 3.984375 -4.953125 C 3.722656 -4.691406 3.59375 -4.3125 3.59375 -3.8125 L 3.59375 0 L 0.921875 0 L 0.921875 -7.75 L 2.90625 -7.75 L 3.328125 -6.515625 L 3.453125 -6.515625 C 3.679688 -6.921875 3.992188 -7.25 4.390625 -7.5 C 4.785156 -7.75 5.1875 -7.875 5.59375 -7.875 Z M 5.59375 -7.875 "/></g></g></g><g fill="#000000" fill-opacity="1"><g transform="translate(230.07769, 173.849986)"><g><path d="M 6.90625 -2.375 C 6.90625 -1.550781 6.617188 -0.925781 6.046875 -0.5 C 5.484375 -0.0703125 4.675781 0.140625 3.625 0.140625 C 3.050781 0.140625 2.550781 0.109375 2.125 0.046875 C 1.695312 -0.015625 1.265625 -0.128906 0.828125 -0.296875 L 0.828125 -2.4375 C 1.242188 -2.25 1.695312 -2.097656 2.1875 -1.984375 C 2.6875 -1.867188 3.128906 -1.8125 3.515625 -1.8125 C 4.085938 -1.8125 4.375 -1.941406 4.375 -2.203125 C 4.375 -2.335938 4.289062 -2.457031 4.125 -2.5625 C 3.96875 -2.675781 3.503906 -2.882812 2.734375 -3.1875 C 2.015625 -3.476562 1.515625 -3.8125 1.234375 -4.1875 C 0.953125 -4.5625 0.8125 -5.03125 0.8125 -5.59375 C 0.8125 -6.3125 1.085938 -6.867188 1.640625 -7.265625 C 2.203125 -7.671875 2.988281 -7.875 4 -7.875 C 4.507812 -7.875 4.988281 -7.816406 5.4375 -7.703125 C 5.894531 -7.597656 6.363281 -7.4375 6.84375 -7.21875 L 6.125 -5.5 C 5.757812 -5.664062 5.378906 -5.800781 4.984375 -5.90625 C 4.585938 -6.019531 4.265625 -6.078125 4.015625 -6.078125 C 3.578125 -6.078125 3.359375 -5.96875 3.359375 -5.75 C 3.359375 -5.625 3.4375 -5.515625 3.59375 -5.421875 C 3.75 -5.328125 4.191406 -5.132812 4.921875 -4.84375 C 5.460938 -4.625 5.863281 -4.40625 6.125 -4.1875 C 6.394531 -3.976562 6.59375 -3.726562 6.71875 -3.4375 C 6.84375 -3.144531 6.90625 -2.789062 6.90625 -2.375 Z M 6.90625 -2.375 "/></g></g></g></svg>