<svg xmlns="http://www.w3.org/2000/svg" xmlns:xlink="http://www.w3.org/1999/xlink" width="800" zoomAndPan="magnify" viewBox="0 0 600 449.999984" height="600" preserveAspectRatio="xMidYMid meet" version="1.0"><defs><g/><clipPath id="5936169009"><path d="M 12.847656 20.148438 L 588.089844 20.148438 L 588.089844 389.898438 L 12.847656 389.898438 Z M 12.847656 20.148438 " clip-rule="nonzero"/></clipPath><clipPath id="b1deba5418"><path d="M 32.175781 80.128906 L 288.671875 80.128906 L 288.671875 305.128906 L 32.175781 305.128906 Z M 32.175781 80.128906 " clip-rule="nonzero"/></clipPath><clipPath id="54c24c2019"><path d="M 314.128906 80.128906 L 569.875 80.128906 L 569.875 305.128906 L 314.128906 305.128906 Z M 314.128906 80.128906 " clip-rule="nonzero"/></clipPath><clipPath id="6be2b8a3a6"><path d="M 45 135.371094 L 151.5 135.371094 L 151.5 202.121094 L 45 202.121094 Z M 45 135.371094 " clip-rule="nonzero"/></clipPath><clipPath id="04219baa3a"><path d="M 165.820312 135.371094 L 272.316406 135.371094 L 272.316406 202.121094 L 165.820312 202.121094 Z M 165.820312 135.371094 " clip-rule="nonzero"/></clipPath><clipPath id="76934ee05d"><path d="M 456.601562 135.371094 L 563.097656 135.371094 L 563.097656 202.121094 L 456.601562 202.121094 Z M 456.601562 135.371094 " clip-rule="nonzero"/></clipPath><clipPath id="d9bcc6fa53"><path d="M 326.929688 135.371094 L 433.425781 135.371094 L 433.425781 202.121094 L 326.929688 202.121094 Z M 326.929688 135.371094 " clip-rule="nonzero"/></clipPath></defs><rect x="-60" width="720" fill="#ffffff" y="-44.999998" height="539.99998" fill-opacity="1"/><rect x="-60" width="720" fill="#ffffff" y="-44.999998" height="539.99998" fill-opacity="1"/><rect x="-60" width="720" fill="#ffffff" y="-44.999998" height="539.99998" fill-opacity="1"/><g clip-path="url(#5936169009)"><path stroke-linecap="butt" transform="matrix(0.749832, 0, 0, 0.749335, 12.845814, 20.147181)" fill="none" stroke-linejoin="miter" d="M 0.00245653 0.00167683 L 767.163944 0.00167683 L 767.163944 493.439209 L 0.00245653 493.439209 L 0.00245653 0.00167683 " stroke="#000000" stroke-width="2" stroke-opacity="1" stroke-miterlimit="4"/></g><g clip-path="url(#b1deba5418)"><path stroke-linecap="butt" transform="matrix(0.750686, 0, 0, 0.751017, 32.176356, 80.128038)" fill="none" stroke-linejoin="miter" d="M -0.00076558 0.00115642 L 341.681542 0.00115642 L 341.681542 299.594911 L -0.00076558 299.594911 L -0.00076558 0.00115642 " stroke="#000000" stroke-width="2" stroke-opacity="1" stroke-miterlimit="4"/></g><g clip-path="url(#54c24c2019)"><path stroke-linecap="butt" transform="matrix(0.749759, 0, 0, 0.751017, 314.129401, 80.128038)" fill="none" stroke-linejoin="miter" d="M -0.000659611 0.00115642 L 341.103541 0.00115642 L 341.103541 299.594911 L -0.000659611 299.594911 L -0.000659611 0.00115642 " stroke="#000000" stroke-width="2" stroke-opacity="1" stroke-miterlimit="4"/></g><g clip-path="url(#6be2b8a3a6)"><path stroke-linecap="butt" transform="matrix(0.752567, 0, 0, 0.746723, 45.001107, 135.369906)" fill="none" stroke-linejoin="miter" d="M -0.00147038 0.00159027 L 141.514177 0.00159027 L 141.514177 89.392219 L -0.00147038 89.392219 L -0.00147038 0.00159027 " stroke="#000000" stroke-width="2" stroke-opacity="1" stroke-miterlimit="4"/></g><g fill="#000000" fill-opacity="1"><g transform="translate(103.298735, 373.532643)"><g><path d="M 10.625 0 L 9.90625 -2.765625 L 5.125 -2.765625 L 4.375 0 L 0 0 L 4.8125 -14.796875 L 10.125 -14.796875 L 14.984375 0 Z M 9.078125 -6.03125 L 8.453125 -8.453125 C 8.296875 -8.984375 8.113281 -9.675781 7.90625 -10.53125 C 7.695312 -11.382812 7.554688 -11.992188 7.484375 -12.359375 C 7.421875 -12.023438 7.300781 -11.460938 7.125 -10.671875 C 6.945312 -9.890625 6.554688 -8.34375 5.953125 -6.03125 Z M 9.078125 -6.03125 "/></g></g></g><g fill="#000000" fill-opacity="1"><g transform="translate(118.283841, 373.532643)"><g><path d="M 8.21875 0.203125 C 7.632812 0.203125 7.113281 0.109375 6.65625 -0.078125 C 6.195312 -0.273438 5.742188 -0.625 5.296875 -1.125 L 5.125 -1.125 C 5.238281 -0.320312 5.296875 0.175781 5.296875 0.375 L 5.296875 4.953125 L 1.359375 4.953125 L 1.359375 -11.421875 L 4.5625 -11.421875 L 5.125 -9.96875 L 5.296875 -9.96875 C 6.035156 -11.070312 7.046875 -11.625 8.328125 -11.625 C 9.597656 -11.625 10.59375 -11.097656 11.3125 -10.046875 C 12.03125 -8.992188 12.390625 -7.554688 12.390625 -5.734375 C 12.390625 -3.890625 12.015625 -2.4375 11.265625 -1.375 C 10.515625 -0.320312 9.5 0.203125 8.21875 0.203125 Z M 6.890625 -8.53125 C 6.316406 -8.53125 5.910156 -8.320312 5.671875 -7.90625 C 5.441406 -7.488281 5.316406 -6.875 5.296875 -6.0625 L 5.296875 -5.75 C 5.296875 -4.769531 5.425781 -4.0625 5.6875 -3.625 C 5.957031 -3.1875 6.375 -2.96875 6.9375 -2.96875 C 7.4375 -2.96875 7.800781 -3.179688 8.03125 -3.609375 C 8.257812 -4.046875 8.375 -4.769531 8.375 -5.78125 C 8.375 -6.757812 8.257812 -7.460938 8.03125 -7.890625 C 7.800781 -8.316406 7.421875 -8.53125 6.890625 -8.53125 Z M 6.890625 -8.53125 "/></g></g></g><g fill="#000000" fill-opacity="1"><g transform="translate(131.555787, 373.532643)"><g><path d="M 8.21875 0.203125 C 7.632812 0.203125 7.113281 0.109375 6.65625 -0.078125 C 6.195312 -0.273438 5.742188 -0.625 5.296875 -1.125 L 5.125 -1.125 C 5.238281 -0.320312 5.296875 0.175781 5.296875 0.375 L 5.296875 4.953125 L 1.359375 4.953125 L 1.359375 -11.421875 L 4.5625 -11.421875 L 5.125 -9.96875 L 5.296875 -9.96875 C 6.035156 -11.070312 7.046875 -11.625 8.328125 -11.625 C 9.597656 -11.625 10.59375 -11.097656 11.3125 -10.046875 C 12.03125 -8.992188 12.390625 -7.554688 12.390625 -5.734375 C 12.390625 -3.890625 12.015625 -2.4375 11.265625 -1.375 C 10.515625 -0.320312 9.5 0.203125 8.21875 0.203125 Z M 6.890625 -8.53125 C 6.316406 -8.53125 5.910156 -8.320312 5.671875 -7.90625 C 5.441406 -7.488281 5.316406 -6.875 5.296875 -6.0625 L 5.296875 -5.75 C 5.296875 -4.769531 5.425781 -4.0625 5.6875 -3.625 C 5.957031 -3.1875 6.375 -2.96875 6.9375 -2.96875 C 7.4375 -2.96875 7.800781 -3.179688 8.03125 -3.609375 C 8.257812 -4.046875 8.375 -4.769531 8.375 -5.78125 C 8.375 -6.757812 8.257812 -7.460938 8.03125 -7.890625 C 7.800781 -8.316406 7.421875 -8.53125 6.890625 -8.53125 Z M 6.890625 -8.53125 "/></g></g></g><g fill="#000000" fill-opacity="1"><g transform="translate(144.827734, 373.532643)"><g><path d="M 5.296875 0 L 1.359375 0 L 1.359375 -15.6875 L 5.296875 -15.6875 Z M 5.296875 0 "/></g></g></g><g fill="#000000" fill-opacity="1"><g transform="translate(151.498975, 373.532643)"><g><path d="M 5.328125 0 L 1.375 0 L 1.375 -11.421875 L 5.328125 -11.421875 Z M 1.28125 -14.265625 C 1.28125 -14.847656 1.441406 -15.285156 1.765625 -15.578125 C 2.097656 -15.867188 2.628906 -16.015625 3.359375 -16.015625 C 4.097656 -16.015625 4.632812 -15.863281 4.96875 -15.5625 C 5.300781 -15.269531 5.46875 -14.835938 5.46875 -14.265625 C 5.46875 -13.109375 4.765625 -12.53125 3.359375 -12.53125 C 1.972656 -12.53125 1.28125 -13.109375 1.28125 -14.265625 Z M 1.28125 -14.265625 "/></g></g></g><g fill="#000000" fill-opacity="1"><g transform="translate(158.210526, 373.532643)"><g><path d="M 6.5625 0.203125 C 4.695312 0.203125 3.28125 -0.300781 2.3125 -1.3125 C 1.34375 -2.320312 0.859375 -3.769531 0.859375 -5.65625 C 0.859375 -7.550781 1.378906 -9.019531 2.421875 -10.0625 C 3.460938 -11.101562 4.945312 -11.625 6.875 -11.625 C 8.195312 -11.625 9.441406 -11.332031 10.609375 -10.75 L 9.453125 -7.84375 C 8.972656 -8.050781 8.53125 -8.21875 8.125 -8.34375 C 7.726562 -8.46875 7.3125 -8.53125 6.875 -8.53125 C 6.238281 -8.53125 5.742188 -8.28125 5.390625 -7.78125 C 5.046875 -7.28125 4.875 -6.578125 4.875 -5.671875 C 4.875 -3.847656 5.546875 -2.9375 6.890625 -2.9375 C 8.046875 -2.9375 9.15625 -3.269531 10.21875 -3.9375 L 10.21875 -0.8125 C 9.207031 -0.132812 7.988281 0.203125 6.5625 0.203125 Z M 6.5625 0.203125 "/></g></g></g><g fill="#000000" fill-opacity="1"><g transform="translate(169.335979, 373.532643)"><g><path d="M 8.8125 0 L 8.046875 -1.515625 L 7.96875 -1.515625 C 7.4375 -0.859375 6.894531 -0.40625 6.34375 -0.15625 C 5.789062 0.0820312 5.082031 0.203125 4.21875 0.203125 C 3.132812 0.203125 2.285156 -0.117188 1.671875 -0.765625 C 1.054688 -1.410156 0.75 -2.316406 0.75 -3.484375 C 0.75 -4.703125 1.171875 -5.609375 2.015625 -6.203125 C 2.859375 -6.796875 4.082031 -7.128906 5.6875 -7.203125 L 7.59375 -7.265625 L 7.59375 -7.421875 C 7.59375 -8.367188 7.128906 -8.84375 6.203125 -8.84375 C 5.367188 -8.84375 4.3125 -8.5625 3.03125 -8 L 1.890625 -10.59375 C 3.222656 -11.28125 4.90625 -11.625 6.9375 -11.625 C 8.394531 -11.625 9.523438 -11.257812 10.328125 -10.53125 C 11.140625 -9.800781 11.546875 -8.785156 11.546875 -7.484375 L 11.546875 0 Z M 5.890625 -2.578125 C 6.359375 -2.578125 6.765625 -2.726562 7.109375 -3.03125 C 7.453125 -3.332031 7.625 -3.726562 7.625 -4.21875 L 7.625 -5.09375 L 6.71875 -5.0625 C 5.414062 -5.007812 4.765625 -4.53125 4.765625 -3.625 C 4.765625 -2.925781 5.140625 -2.578125 5.890625 -2.578125 Z M 5.890625 -2.578125 "/></g></g></g><g fill="#000000" fill-opacity="1"><g transform="translate(182.194746, 373.532643)"><g><path d="M 6.953125 -2.90625 C 7.484375 -2.90625 8.117188 -3.039062 8.859375 -3.3125 L 8.859375 -0.4375 C 8.328125 -0.207031 7.820312 -0.046875 7.34375 0.046875 C 6.863281 0.148438 6.300781 0.203125 5.65625 0.203125 C 4.332031 0.203125 3.378906 -0.117188 2.796875 -0.765625 C 2.210938 -1.421875 1.921875 -2.421875 1.921875 -3.765625 L 1.921875 -8.46875 L 0.53125 -8.46875 L 0.53125 -10.0625 L 2.28125 -11.3125 L 3.3125 -13.703125 L 5.890625 -13.703125 L 5.890625 -11.421875 L 8.6875 -11.421875 L 8.6875 -8.46875 L 5.890625 -8.46875 L 5.890625 -4.015625 C 5.890625 -3.273438 6.242188 -2.90625 6.953125 -2.90625 Z M 6.953125 -2.90625 "/></g></g></g><g fill="#000000" fill-opacity="1"><g transform="translate(191.68766, 373.532643)"><g><path d="M 5.328125 0 L 1.375 0 L 1.375 -11.421875 L 5.328125 -11.421875 Z M 1.28125 -14.265625 C 1.28125 -14.847656 1.441406 -15.285156 1.765625 -15.578125 C 2.097656 -15.867188 2.628906 -16.015625 3.359375 -16.015625 C 4.097656 -16.015625 4.632812 -15.863281 4.96875 -15.5625 C 5.300781 -15.269531 5.46875 -14.835938 5.46875 -14.265625 C 5.46875 -13.109375 4.765625 -12.53125 3.359375 -12.53125 C 1.972656 -12.53125 1.28125 -13.109375 1.28125 -14.265625 Z M 1.28125 -14.265625 "/></g></g></g><g fill="#000000" fill-opacity="1"><g transform="translate(198.399211, 373.532643)"><g><path d="M 12.265625 -5.734375 C 12.265625 -3.867188 11.757812 -2.410156 10.75 -1.359375 C 9.75 -0.316406 8.347656 0.203125 6.546875 0.203125 C 4.804688 0.203125 3.421875 -0.328125 2.390625 -1.390625 C 1.367188 -2.460938 0.859375 -3.910156 0.859375 -5.734375 C 0.859375 -7.597656 1.359375 -9.046875 2.359375 -10.078125 C 3.367188 -11.109375 4.78125 -11.625 6.59375 -11.625 C 7.71875 -11.625 8.707031 -11.382812 9.5625 -10.90625 C 10.425781 -10.425781 11.09375 -9.738281 11.5625 -8.84375 C 12.03125 -7.957031 12.265625 -6.921875 12.265625 -5.734375 Z M 4.875 -5.734375 C 4.875 -4.753906 5.003906 -4.003906 5.265625 -3.484375 C 5.523438 -2.972656 5.960938 -2.71875 6.578125 -2.71875 C 7.191406 -2.71875 7.625 -2.972656 7.875 -3.484375 C 8.125 -4.003906 8.25 -4.753906 8.25 -5.734375 C 8.25 -6.710938 8.117188 -7.445312 7.859375 -7.9375 C 7.609375 -8.4375 7.175781 -8.6875 6.5625 -8.6875 C 5.957031 -8.6875 5.523438 -8.4375 5.265625 -7.9375 C 5.003906 -7.445312 4.875 -6.710938 4.875 -5.734375 Z M 4.875 -5.734375 "/></g></g></g><g fill="#000000" fill-opacity="1"><g transform="translate(211.550229, 373.532643)"><g><path d="M 8.5625 0 L 8.5625 -6.234375 C 8.5625 -6.992188 8.453125 -7.566406 8.234375 -7.953125 C 8.015625 -8.335938 7.664062 -8.53125 7.1875 -8.53125 C 6.519531 -8.53125 6.035156 -8.265625 5.734375 -7.734375 C 5.441406 -7.203125 5.296875 -6.289062 5.296875 -5 L 5.296875 0 L 1.359375 0 L 1.359375 -11.421875 L 4.328125 -11.421875 L 4.828125 -10.015625 L 5.0625 -10.015625 C 5.394531 -10.546875 5.859375 -10.945312 6.453125 -11.21875 C 7.046875 -11.488281 7.726562 -11.625 8.5 -11.625 C 9.769531 -11.625 10.753906 -11.253906 11.453125 -10.515625 C 12.148438 -9.785156 12.5 -8.753906 12.5 -7.421875 L 12.5 0 Z M 8.5625 0 "/></g></g></g><g fill="#000000" fill-opacity="1"><g transform="translate(225.376426, 373.532643)"><g/></g></g><g fill="#000000" fill-opacity="1"><g transform="translate(230.737605, 373.532643)"><g><path d="M 0.75 -5.859375 C 0.75 -7.804688 0.984375 -9.5625 1.453125 -11.125 C 1.929688 -12.695312 2.632812 -14.035156 3.5625 -15.140625 L 6.859375 -15.140625 C 6.003906 -13.972656 5.347656 -12.59375 4.890625 -11 C 4.441406 -9.40625 4.21875 -7.703125 4.21875 -5.890625 C 4.21875 -4.128906 4.4375 -2.460938 4.875 -0.890625 C 5.320312 0.679688 5.972656 2.066406 6.828125 3.265625 L 3.5625 3.265625 C 2.644531 2.203125 1.945312 0.898438 1.46875 -0.640625 C 0.988281 -2.191406 0.75 -3.929688 0.75 -5.859375 Z M 4.96875 -14.96875 Z M 4.96875 -14.96875 "/></g></g></g><g fill="#000000" fill-opacity="1"><g transform="translate(238.144503, 373.532643)"><g><path d="M 14.09375 -7.6875 C 14.09375 -5.21875 13.414062 -3.316406 12.0625 -1.984375 C 10.707031 -0.660156 8.804688 0 6.359375 0 L 1.59375 0 L 1.59375 -14.734375 L 6.6875 -14.734375 C 9.050781 -14.734375 10.875 -14.128906 12.15625 -12.921875 C 13.445312 -11.710938 14.09375 -9.96875 14.09375 -7.6875 Z M 9.96875 -7.53125 C 9.96875 -8.882812 9.695312 -9.882812 9.15625 -10.53125 C 8.625 -11.1875 7.816406 -11.515625 6.734375 -11.515625 L 5.578125 -11.515625 L 5.578125 -3.265625 L 6.453125 -3.265625 C 7.671875 -3.265625 8.5625 -3.613281 9.125 -4.3125 C 9.6875 -5.019531 9.96875 -6.09375 9.96875 -7.53125 Z M 9.96875 -7.53125 "/></g></g></g><g fill="#000000" fill-opacity="1"><g transform="translate(253.290847, 373.532643)"><g><path d="M 5.328125 0 L 1.375 0 L 1.375 -11.421875 L 5.328125 -11.421875 Z M 1.28125 -14.265625 C 1.28125 -14.847656 1.441406 -15.285156 1.765625 -15.578125 C 2.097656 -15.867188 2.628906 -16.015625 3.359375 -16.015625 C 4.097656 -16.015625 4.632812 -15.863281 4.96875 -15.5625 C 5.300781 -15.269531 5.46875 -14.835938 5.46875 -14.265625 C 5.46875 -13.109375 4.765625 -12.53125 3.359375 -12.53125 C 1.972656 -12.53125 1.28125 -13.109375 1.28125 -14.265625 Z M 1.28125 -14.265625 "/></g></g></g><g fill="#000000" fill-opacity="1"><g transform="translate(260.002398, 373.532643)"><g><path d="M 12.140625 -11.421875 L 12.140625 -9.515625 L 10.578125 -8.9375 C 10.785156 -8.550781 10.890625 -8.097656 10.890625 -7.578125 C 10.890625 -6.347656 10.457031 -5.394531 9.59375 -4.71875 C 8.726562 -4.039062 7.441406 -3.703125 5.734375 -3.703125 C 5.304688 -3.703125 4.972656 -3.726562 4.734375 -3.78125 C 4.628906 -3.601562 4.578125 -3.4375 4.578125 -3.28125 C 4.578125 -3.09375 4.734375 -2.945312 5.046875 -2.84375 C 5.367188 -2.738281 5.785156 -2.6875 6.296875 -2.6875 L 8.1875 -2.6875 C 10.75 -2.6875 12.03125 -1.609375 12.03125 0.546875 C 12.03125 1.941406 11.4375 3.023438 10.25 3.796875 C 9.0625 4.566406 7.398438 4.953125 5.265625 4.953125 C 3.640625 4.953125 2.390625 4.679688 1.515625 4.140625 C 0.640625 3.609375 0.203125 2.832031 0.203125 1.8125 C 0.203125 0.445312 1.046875 -0.429688 2.734375 -0.828125 C 2.390625 -0.972656 2.085938 -1.207031 1.828125 -1.53125 C 1.566406 -1.863281 1.4375 -2.191406 1.4375 -2.515625 C 1.4375 -2.867188 1.535156 -3.179688 1.734375 -3.453125 C 1.929688 -3.734375 2.335938 -4.0625 2.953125 -4.4375 C 2.359375 -4.695312 1.890625 -5.101562 1.546875 -5.65625 C 1.210938 -6.21875 1.046875 -6.898438 1.046875 -7.703125 C 1.046875 -8.941406 1.46875 -9.90625 2.3125 -10.59375 C 3.164062 -11.28125 4.378906 -11.625 5.953125 -11.625 C 6.160156 -11.625 6.519531 -11.597656 7.03125 -11.546875 C 7.539062 -11.503906 7.914062 -11.460938 8.15625 -11.421875 Z M 3.53125 1.421875 C 3.53125 1.742188 3.703125 2.003906 4.046875 2.203125 C 4.398438 2.398438 4.867188 2.5 5.453125 2.5 C 6.410156 2.5 7.175781 2.378906 7.75 2.140625 C 8.320312 1.898438 8.609375 1.59375 8.609375 1.21875 C 8.609375 0.914062 8.429688 0.703125 8.078125 0.578125 C 7.734375 0.453125 7.234375 0.390625 6.578125 0.390625 L 5.046875 0.390625 C 4.617188 0.390625 4.257812 0.488281 3.96875 0.6875 C 3.675781 0.882812 3.53125 1.128906 3.53125 1.421875 Z M 4.765625 -7.6875 C 4.765625 -6.507812 5.171875 -5.921875 5.984375 -5.921875 C 6.359375 -5.921875 6.648438 -6.066406 6.859375 -6.359375 C 7.066406 -6.648438 7.171875 -7.082031 7.171875 -7.65625 C 7.171875 -8.84375 6.773438 -9.4375 5.984375 -9.4375 C 5.171875 -9.4375 4.765625 -8.851562 4.765625 -7.6875 Z M 4.765625 -7.6875 "/></g></g></g><g fill="#000000" fill-opacity="1"><g transform="translate(272.508462, 373.532643)"><g><path d="M 5.328125 0 L 1.375 0 L 1.375 -11.421875 L 5.328125 -11.421875 Z M 1.28125 -14.265625 C 1.28125 -14.847656 1.441406 -15.285156 1.765625 -15.578125 C 2.097656 -15.867188 2.628906 -16.015625 3.359375 -16.015625 C 4.097656 -16.015625 4.632812 -15.863281 4.96875 -15.5625 C 5.300781 -15.269531 5.46875 -14.835938 5.46875 -14.265625 C 5.46875 -13.109375 4.765625 -12.53125 3.359375 -12.53125 C 1.972656 -12.53125 1.28125 -13.109375 1.28125 -14.265625 Z M 1.28125 -14.265625 "/></g></g></g><g fill="#000000" fill-opacity="1"><g transform="translate(279.220012, 373.532643)"><g><path d="M 6.953125 -2.90625 C 7.484375 -2.90625 8.117188 -3.039062 8.859375 -3.3125 L 8.859375 -0.4375 C 8.328125 -0.207031 7.820312 -0.046875 7.34375 0.046875 C 6.863281 0.148438 6.300781 0.203125 5.65625 0.203125 C 4.332031 0.203125 3.378906 -0.117188 2.796875 -0.765625 C 2.210938 -1.421875 1.921875 -2.421875 1.921875 -3.765625 L 1.921875 -8.46875 L 0.53125 -8.46875 L 0.53125 -10.0625 L 2.28125 -11.3125 L 3.3125 -13.703125 L 5.890625 -13.703125 L 5.890625 -11.421875 L 8.6875 -11.421875 L 8.6875 -8.46875 L 5.890625 -8.46875 L 5.890625 -4.015625 C 5.890625 -3.273438 6.242188 -2.90625 6.953125 -2.90625 Z M 6.953125 -2.90625 "/></g></g></g><g fill="#000000" fill-opacity="1"><g transform="translate(288.712926, 373.532643)"><g><path d="M 8.8125 0 L 8.046875 -1.515625 L 7.96875 -1.515625 C 7.4375 -0.859375 6.894531 -0.40625 6.34375 -0.15625 C 5.789062 0.0820312 5.082031 0.203125 4.21875 0.203125 C 3.132812 0.203125 2.285156 -0.117188 1.671875 -0.765625 C 1.054688 -1.410156 0.75 -2.316406 0.75 -3.484375 C 0.75 -4.703125 1.171875 -5.609375 2.015625 -6.203125 C 2.859375 -6.796875 4.082031 -7.128906 5.6875 -7.203125 L 7.59375 -7.265625 L 7.59375 -7.421875 C 7.59375 -8.367188 7.128906 -8.84375 6.203125 -8.84375 C 5.367188 -8.84375 4.3125 -8.5625 3.03125 -8 L 1.890625 -10.59375 C 3.222656 -11.28125 4.90625 -11.625 6.9375 -11.625 C 8.394531 -11.625 9.523438 -11.257812 10.328125 -10.53125 C 11.140625 -9.800781 11.546875 -8.785156 11.546875 -7.484375 L 11.546875 0 Z M 5.890625 -2.578125 C 6.359375 -2.578125 6.765625 -2.726562 7.109375 -3.03125 C 7.453125 -3.332031 7.625 -3.726562 7.625 -4.21875 L 7.625 -5.09375 L 6.71875 -5.0625 C 5.414062 -5.007812 4.765625 -4.53125 4.765625 -3.625 C 4.765625 -2.925781 5.140625 -2.578125 5.890625 -2.578125 Z M 5.890625 -2.578125 "/></g></g></g><g fill="#000000" fill-opacity="1"><g transform="translate(301.571693, 373.532643)"><g><path d="M 5.296875 0 L 1.359375 0 L 1.359375 -15.6875 L 5.296875 -15.6875 Z M 5.296875 0 "/></g></g></g><g fill="#000000" fill-opacity="1"><g transform="translate(308.242934, 373.532643)"><g/></g></g><g fill="#000000" fill-opacity="1"><g transform="translate(313.604113, 373.532643)"><g><path d="M 12.28125 -10.046875 C 12.28125 -8.398438 11.796875 -7.128906 10.828125 -6.234375 C 9.859375 -5.335938 8.476562 -4.890625 6.6875 -4.890625 L 5.578125 -4.890625 L 5.578125 0 L 1.59375 0 L 1.59375 -14.734375 L 6.6875 -14.734375 C 8.550781 -14.734375 9.945312 -14.328125 10.875 -13.515625 C 11.8125 -12.703125 12.28125 -11.546875 12.28125 -10.046875 Z M 5.578125 -8.140625 L 6.296875 -8.140625 C 6.898438 -8.140625 7.375 -8.304688 7.71875 -8.640625 C 8.070312 -8.972656 8.25 -9.4375 8.25 -10.03125 C 8.25 -11.019531 7.695312 -11.515625 6.59375 -11.515625 L 5.578125 -11.515625 Z M 5.578125 -8.140625 "/></g></g></g><g fill="#000000" fill-opacity="1"><g transform="translate(326.644273, 373.532643)"><g><path d="M 5.296875 0 L 1.359375 0 L 1.359375 -15.6875 L 5.296875 -15.6875 Z M 5.296875 0 "/></g></g></g><g fill="#000000" fill-opacity="1"><g transform="translate(333.315527, 373.532643)"><g><path d="M 8.8125 0 L 8.046875 -1.515625 L 7.96875 -1.515625 C 7.4375 -0.859375 6.894531 -0.40625 6.34375 -0.15625 C 5.789062 0.0820312 5.082031 0.203125 4.21875 0.203125 C 3.132812 0.203125 2.285156 -0.117188 1.671875 -0.765625 C 1.054688 -1.410156 0.75 -2.316406 0.75 -3.484375 C 0.75 -4.703125 1.171875 -5.609375 2.015625 -6.203125 C 2.859375 -6.796875 4.082031 -7.128906 5.6875 -7.203125 L 7.59375 -7.265625 L 7.59375 -7.421875 C 7.59375 -8.367188 7.128906 -8.84375 6.203125 -8.84375 C 5.367188 -8.84375 4.3125 -8.5625 3.03125 -8 L 1.890625 -10.59375 C 3.222656 -11.28125 4.90625 -11.625 6.9375 -11.625 C 8.394531 -11.625 9.523438 -11.257812 10.328125 -10.53125 C 11.140625 -9.800781 11.546875 -8.785156 11.546875 -7.484375 L 11.546875 0 Z M 5.890625 -2.578125 C 6.359375 -2.578125 6.765625 -2.726562 7.109375 -3.03125 C 7.453125 -3.332031 7.625 -3.726562 7.625 -4.21875 L 7.625 -5.09375 L 6.71875 -5.0625 C 5.414062 -5.007812 4.765625 -4.53125 4.765625 -3.625 C 4.765625 -2.925781 5.140625 -2.578125 5.890625 -2.578125 Z M 5.890625 -2.578125 "/></g></g></g><g fill="#000000" fill-opacity="1"><g transform="translate(346.174294, 373.532643)"><g><path d="M 6.953125 -2.90625 C 7.484375 -2.90625 8.117188 -3.039062 8.859375 -3.3125 L 8.859375 -0.4375 C 8.328125 -0.207031 7.820312 -0.046875 7.34375 0.046875 C 6.863281 0.148438 6.300781 0.203125 5.65625 0.203125 C 4.332031 0.203125 3.378906 -0.117188 2.796875 -0.765625 C 2.210938 -1.421875 1.921875 -2.421875 1.921875 -3.765625 L 1.921875 -8.46875 L 0.53125 -8.46875 L 0.53125 -10.0625 L 2.28125 -11.3125 L 3.3125 -13.703125 L 5.890625 -13.703125 L 5.890625 -11.421875 L 8.6875 -11.421875 L 8.6875 -8.46875 L 5.890625 -8.46875 L 5.890625 -4.015625 C 5.890625 -3.273438 6.242188 -2.90625 6.953125 -2.90625 Z M 6.953125 -2.90625 "/></g></g></g><g fill="#000000" fill-opacity="1"><g transform="translate(355.667221, 373.532643)"><g><path d="M 8.328125 -8.46875 L 5.90625 -8.46875 L 5.90625 0 L 1.96875 0 L 1.96875 -8.46875 L 0.453125 -8.46875 L 0.453125 -10.40625 L 2.046875 -11.375 L 2.046875 -11.5625 C 2.046875 -13.0625 2.351562 -14.140625 2.96875 -14.796875 C 3.582031 -15.460938 4.566406 -15.796875 5.921875 -15.796875 C 6.453125 -15.796875 6.945312 -15.753906 7.40625 -15.671875 C 7.875 -15.585938 8.421875 -15.445312 9.046875 -15.25 L 8.1875 -12.703125 C 7.707031 -12.835938 7.234375 -12.90625 6.765625 -12.90625 C 6.460938 -12.90625 6.242188 -12.8125 6.109375 -12.625 C 5.972656 -12.4375 5.90625 -12.132812 5.90625 -11.71875 L 5.90625 -11.421875 L 8.328125 -11.421875 Z M 8.328125 -8.46875 "/></g></g></g><g fill="#000000" fill-opacity="1"><g transform="translate(364.192691, 373.532643)"><g><path d="M 12.265625 -5.734375 C 12.265625 -3.867188 11.757812 -2.410156 10.75 -1.359375 C 9.75 -0.316406 8.347656 0.203125 6.546875 0.203125 C 4.804688 0.203125 3.421875 -0.328125 2.390625 -1.390625 C 1.367188 -2.460938 0.859375 -3.910156 0.859375 -5.734375 C 0.859375 -7.597656 1.359375 -9.046875 2.359375 -10.078125 C 3.367188 -11.109375 4.78125 -11.625 6.59375 -11.625 C 7.71875 -11.625 8.707031 -11.382812 9.5625 -10.90625 C 10.425781 -10.425781 11.09375 -9.738281 11.5625 -8.84375 C 12.03125 -7.957031 12.265625 -6.921875 12.265625 -5.734375 Z M 4.875 -5.734375 C 4.875 -4.753906 5.003906 -4.003906 5.265625 -3.484375 C 5.523438 -2.972656 5.960938 -2.71875 6.578125 -2.71875 C 7.191406 -2.71875 7.625 -2.972656 7.875 -3.484375 C 8.125 -4.003906 8.25 -4.753906 8.25 -5.734375 C 8.25 -6.710938 8.117188 -7.445312 7.859375 -7.9375 C 7.609375 -8.4375 7.175781 -8.6875 6.5625 -8.6875 C 5.957031 -8.6875 5.523438 -8.4375 5.265625 -7.9375 C 5.003906 -7.445312 4.875 -6.710938 4.875 -5.734375 Z M 4.875 -5.734375 "/></g></g></g><g fill="#000000" fill-opacity="1"><g transform="translate(377.343709, 373.532643)"><g><path d="M 8.25 -11.625 C 8.59375 -11.625 8.921875 -11.597656 9.234375 -11.546875 L 9.453125 -11.5 L 9.09375 -7.78125 C 8.769531 -7.863281 8.328125 -7.90625 7.765625 -7.90625 C 6.898438 -7.90625 6.269531 -7.707031 5.875 -7.3125 C 5.488281 -6.914062 5.296875 -6.347656 5.296875 -5.609375 L 5.296875 0 L 1.359375 0 L 1.359375 -11.421875 L 4.296875 -11.421875 L 4.90625 -9.59375 L 5.09375 -9.59375 C 5.425781 -10.195312 5.882812 -10.6875 6.46875 -11.0625 C 7.0625 -11.4375 7.65625 -11.625 8.25 -11.625 Z M 8.25 -11.625 "/></g></g></g><g fill="#000000" fill-opacity="1"><g transform="translate(387.0281, 373.532643)"><g><path d="M 15.375 0 L 15.375 -6.203125 C 15.375 -6.984375 15.269531 -7.566406 15.0625 -7.953125 C 14.851562 -8.335938 14.519531 -8.53125 14.0625 -8.53125 C 13.457031 -8.53125 13.015625 -8.269531 12.734375 -7.75 C 12.453125 -7.226562 12.3125 -6.421875 12.3125 -5.328125 L 12.3125 0 L 8.359375 0 L 8.359375 -6.203125 C 8.359375 -6.984375 8.253906 -7.566406 8.046875 -7.953125 C 7.847656 -8.335938 7.523438 -8.53125 7.078125 -8.53125 C 6.453125 -8.53125 6 -8.253906 5.71875 -7.703125 C 5.4375 -7.148438 5.296875 -6.25 5.296875 -5 L 5.296875 0 L 1.359375 0 L 1.359375 -11.421875 L 4.328125 -11.421875 L 4.828125 -10.015625 L 5.0625 -10.015625 C 5.363281 -10.535156 5.800781 -10.929688 6.375 -11.203125 C 6.945312 -11.484375 7.597656 -11.625 8.328125 -11.625 C 9.972656 -11.625 11.128906 -11.125 11.796875 -10.125 L 12.109375 -10.125 C 12.429688 -10.59375 12.878906 -10.957031 13.453125 -11.21875 C 14.035156 -11.488281 14.671875 -11.625 15.359375 -11.625 C 16.710938 -11.625 17.710938 -11.273438 18.359375 -10.578125 C 19.003906 -9.890625 19.328125 -8.835938 19.328125 -7.421875 L 19.328125 0 Z M 15.375 0 "/></g></g></g><g fill="#000000" fill-opacity="1"><g transform="translate(407.666623, 373.532643)"><g/></g></g><g fill="#000000" fill-opacity="1"><g transform="translate(413.027801, 373.532643)"><g><path d="M 8.015625 0 L 5 -10.609375 L 4.90625 -10.609375 C 5.050781 -8.804688 5.125 -7.40625 5.125 -6.40625 L 5.125 0 L 1.59375 0 L 1.59375 -14.734375 L 6.890625 -14.734375 L 9.96875 -4.265625 L 10.046875 -4.265625 L 13.0625 -14.734375 L 18.375 -14.734375 L 18.375 0 L 14.71875 0 L 14.71875 -6.453125 C 14.71875 -6.796875 14.722656 -7.171875 14.734375 -7.578125 C 14.742188 -7.984375 14.785156 -8.988281 14.859375 -10.59375 L 14.78125 -10.59375 L 11.796875 0 Z M 8.015625 0 "/></g></g></g><g fill="#000000" fill-opacity="1"><g transform="translate(432.98106, 373.532643)"><g><path d="M 6.875 0.203125 C 4.96875 0.203125 3.488281 -0.300781 2.4375 -1.3125 C 1.382812 -2.320312 0.859375 -3.765625 0.859375 -5.640625 C 0.859375 -7.566406 1.347656 -9.046875 2.328125 -10.078125 C 3.304688 -11.109375 4.695312 -11.625 6.5 -11.625 C 8.21875 -11.625 9.546875 -11.171875 10.484375 -10.265625 C 11.421875 -9.367188 11.890625 -8.082031 11.890625 -6.40625 L 11.890625 -4.640625 L 4.84375 -4.640625 C 4.875 -4.003906 5.109375 -3.503906 5.546875 -3.140625 C 5.984375 -2.773438 6.582031 -2.59375 7.34375 -2.59375 C 8.039062 -2.59375 8.675781 -2.660156 9.25 -2.796875 C 9.832031 -2.929688 10.460938 -3.15625 11.140625 -3.46875 L 11.140625 -0.640625 C 10.523438 -0.316406 9.890625 -0.0976562 9.234375 0.015625 C 8.578125 0.140625 7.789062 0.203125 6.875 0.203125 Z M 6.640625 -8.9375 C 6.179688 -8.9375 5.796875 -8.789062 5.484375 -8.5 C 5.171875 -8.207031 4.984375 -7.75 4.921875 -7.125 L 8.3125 -7.125 C 8.300781 -7.675781 8.144531 -8.113281 7.84375 -8.4375 C 7.539062 -8.769531 7.140625 -8.9375 6.640625 -8.9375 Z M 6.640625 -8.9375 "/></g></g></g><g fill="#000000" fill-opacity="1"><g transform="translate(445.739066, 373.532643)"><g><path d="M 8.25 -11.625 C 8.59375 -11.625 8.921875 -11.597656 9.234375 -11.546875 L 9.453125 -11.5 L 9.09375 -7.78125 C 8.769531 -7.863281 8.328125 -7.90625 7.765625 -7.90625 C 6.898438 -7.90625 6.269531 -7.707031 5.875 -7.3125 C 5.488281 -6.914062 5.296875 -6.347656 5.296875 -5.609375 L 5.296875 0 L 1.359375 0 L 1.359375 -11.421875 L 4.296875 -11.421875 L 4.90625 -9.59375 L 5.09375 -9.59375 C 5.425781 -10.195312 5.882812 -10.6875 6.46875 -11.0625 C 7.0625 -11.4375 7.65625 -11.625 8.25 -11.625 Z M 8.25 -11.625 "/></g></g></g><g fill="#000000" fill-opacity="1"><g transform="translate(455.423457, 373.532643)"><g><path d="M 12.140625 -11.421875 L 12.140625 -9.515625 L 10.578125 -8.9375 C 10.785156 -8.550781 10.890625 -8.097656 10.890625 -7.578125 C 10.890625 -6.347656 10.457031 -5.394531 9.59375 -4.71875 C 8.726562 -4.039062 7.441406 -3.703125 5.734375 -3.703125 C 5.304688 -3.703125 4.972656 -3.726562 4.734375 -3.78125 C 4.628906 -3.601562 4.578125 -3.4375 4.578125 -3.28125 C 4.578125 -3.09375 4.734375 -2.945312 5.046875 -2.84375 C 5.367188 -2.738281 5.785156 -2.6875 6.296875 -2.6875 L 8.1875 -2.6875 C 10.75 -2.6875 12.03125 -1.609375 12.03125 0.546875 C 12.03125 1.941406 11.4375 3.023438 10.25 3.796875 C 9.0625 4.566406 7.398438 4.953125 5.265625 4.953125 C 3.640625 4.953125 2.390625 4.679688 1.515625 4.140625 C 0.640625 3.609375 0.203125 2.832031 0.203125 1.8125 C 0.203125 0.445312 1.046875 -0.429688 2.734375 -0.828125 C 2.390625 -0.972656 2.085938 -1.207031 1.828125 -1.53125 C 1.566406 -1.863281 1.4375 -2.191406 1.4375 -2.515625 C 1.4375 -2.867188 1.535156 -3.179688 1.734375 -3.453125 C 1.929688 -3.734375 2.335938 -4.0625 2.953125 -4.4375 C 2.359375 -4.695312 1.890625 -5.101562 1.546875 -5.65625 C 1.210938 -6.21875 1.046875 -6.898438 1.046875 -7.703125 C 1.046875 -8.941406 1.46875 -9.90625 2.3125 -10.59375 C 3.164062 -11.28125 4.378906 -11.625 5.953125 -11.625 C 6.160156 -11.625 6.519531 -11.597656 7.03125 -11.546875 C 7.539062 -11.503906 7.914062 -11.460938 8.15625 -11.421875 Z M 3.53125 1.421875 C 3.53125 1.742188 3.703125 2.003906 4.046875 2.203125 C 4.398438 2.398438 4.867188 2.5 5.453125 2.5 C 6.410156 2.5 7.175781 2.378906 7.75 2.140625 C 8.320312 1.898438 8.609375 1.59375 8.609375 1.21875 C 8.609375 0.914062 8.429688 0.703125 8.078125 0.578125 C 7.734375 0.453125 7.234375 0.390625 6.578125 0.390625 L 5.046875 0.390625 C 4.617188 0.390625 4.257812 0.488281 3.96875 0.6875 C 3.675781 0.882812 3.53125 1.128906 3.53125 1.421875 Z M 4.765625 -7.6875 C 4.765625 -6.507812 5.171875 -5.921875 5.984375 -5.921875 C 6.359375 -5.921875 6.648438 -6.066406 6.859375 -6.359375 C 7.066406 -6.648438 7.171875 -7.082031 7.171875 -7.65625 C 7.171875 -8.84375 6.773438 -9.4375 5.984375 -9.4375 C 5.171875 -9.4375 4.765625 -8.851562 4.765625 -7.6875 Z M 4.765625 -7.6875 "/></g></g></g><g fill="#000000" fill-opacity="1"><g transform="translate(467.929521, 373.532643)"><g><path d="M 6.875 0.203125 C 4.96875 0.203125 3.488281 -0.300781 2.4375 -1.3125 C 1.382812 -2.320312 0.859375 -3.765625 0.859375 -5.640625 C 0.859375 -7.566406 1.347656 -9.046875 2.328125 -10.078125 C 3.304688 -11.109375 4.695312 -11.625 6.5 -11.625 C 8.21875 -11.625 9.546875 -11.171875 10.484375 -10.265625 C 11.421875 -9.367188 11.890625 -8.082031 11.890625 -6.40625 L 11.890625 -4.640625 L 4.84375 -4.640625 C 4.875 -4.003906 5.109375 -3.503906 5.546875 -3.140625 C 5.984375 -2.773438 6.582031 -2.59375 7.34375 -2.59375 C 8.039062 -2.59375 8.675781 -2.660156 9.25 -2.796875 C 9.832031 -2.929688 10.460938 -3.15625 11.140625 -3.46875 L 11.140625 -0.640625 C 10.523438 -0.316406 9.890625 -0.0976562 9.234375 0.015625 C 8.578125 0.140625 7.789062 0.203125 6.875 0.203125 Z M 6.640625 -8.9375 C 6.179688 -8.9375 5.796875 -8.789062 5.484375 -8.5 C 5.171875 -8.207031 4.984375 -7.75 4.921875 -7.125 L 8.3125 -7.125 C 8.300781 -7.675781 8.144531 -8.113281 7.84375 -8.4375 C 7.539062 -8.769531 7.140625 -8.9375 6.640625 -8.9375 Z M 6.640625 -8.9375 "/></g></g></g><g fill="#000000" fill-opacity="1"><g transform="translate(480.687527, 373.532643)"><g><path d="M 8.25 -11.625 C 8.59375 -11.625 8.921875 -11.597656 9.234375 -11.546875 L 9.453125 -11.5 L 9.09375 -7.78125 C 8.769531 -7.863281 8.328125 -7.90625 7.765625 -7.90625 C 6.898438 -7.90625 6.269531 -7.707031 5.875 -7.3125 C 5.488281 -6.914062 5.296875 -6.347656 5.296875 -5.609375 L 5.296875 0 L 1.359375 0 L 1.359375 -11.421875 L 4.296875 -11.421875 L 4.90625 -9.59375 L 5.09375 -9.59375 C 5.425781 -10.195312 5.882812 -10.6875 6.46875 -11.0625 C 7.0625 -11.4375 7.65625 -11.625 8.25 -11.625 Z M 8.25 -11.625 "/></g></g></g><g fill="#000000" fill-opacity="1"><g transform="translate(490.371918, 373.532643)"><g><path d="M 6.671875 -5.859375 C 6.671875 -3.960938 6.429688 -2.234375 5.953125 -0.671875 C 5.472656 0.878906 4.769531 2.191406 3.84375 3.265625 L 0.578125 3.265625 C 1.421875 2.109375 2.066406 0.738281 2.515625 -0.84375 C 2.960938 -2.4375 3.1875 -4.117188 3.1875 -5.890625 C 3.1875 -7.671875 2.960938 -9.351562 2.515625 -10.9375 C 2.078125 -12.53125 1.421875 -13.929688 0.546875 -15.140625 L 3.84375 -15.140625 C 4.769531 -14.023438 5.472656 -12.675781 5.953125 -11.09375 C 6.429688 -9.507812 6.671875 -7.765625 6.671875 -5.859375 Z M 2.484375 -14.96875 Z M 2.484375 -14.96875 "/></g></g></g><g fill="#000000" fill-opacity="1"><g transform="translate(99.790499, 260.962847)"><g><path d="M 12.34375 -10.09375 C 12.34375 -8.445312 11.851562 -7.171875 10.875 -6.265625 C 9.90625 -5.359375 8.523438 -4.90625 6.734375 -4.90625 L 5.609375 -4.90625 L 5.609375 0 L 1.59375 0 L 1.59375 -14.8125 L 6.734375 -14.8125 C 8.597656 -14.8125 10 -14.398438 10.9375 -13.578125 C 11.875 -12.765625 12.34375 -11.601562 12.34375 -10.09375 Z M 5.609375 -8.171875 L 6.328125 -8.171875 C 6.929688 -8.171875 7.410156 -8.335938 7.765625 -8.671875 C 8.117188 -9.015625 8.296875 -9.484375 8.296875 -10.078125 C 8.296875 -11.078125 7.742188 -11.578125 6.640625 -11.578125 L 5.609375 -11.578125 Z M 5.609375 -8.171875 "/></g></g></g><g fill="#000000" fill-opacity="1"><g transform="translate(112.900243, 260.962847)"><g><path d="M 8.296875 -11.6875 C 8.640625 -11.6875 8.96875 -11.65625 9.28125 -11.59375 L 9.5 -11.5625 L 9.15625 -7.828125 C 8.820312 -7.898438 8.367188 -7.9375 7.796875 -7.9375 C 6.929688 -7.9375 6.300781 -7.738281 5.90625 -7.34375 C 5.519531 -6.957031 5.328125 -6.390625 5.328125 -5.640625 L 5.328125 0 L 1.375 0 L 1.375 -11.484375 L 4.3125 -11.484375 L 4.9375 -9.640625 L 5.125 -9.640625 C 5.457031 -10.253906 5.914062 -10.75 6.5 -11.125 C 7.09375 -11.5 7.691406 -11.6875 8.296875 -11.6875 Z M 8.296875 -11.6875 "/></g></g></g><g fill="#000000" fill-opacity="1"><g transform="translate(122.636312, 260.962847)"><g><path d="M 6.90625 0.203125 C 5 0.203125 3.515625 -0.300781 2.453125 -1.3125 C 1.398438 -2.332031 0.875 -3.78125 0.875 -5.65625 C 0.875 -7.601562 1.363281 -9.09375 2.34375 -10.125 C 3.320312 -11.164062 4.71875 -11.6875 6.53125 -11.6875 C 8.257812 -11.6875 9.59375 -11.234375 10.53125 -10.328125 C 11.476562 -9.429688 11.953125 -8.132812 11.953125 -6.4375 L 11.953125 -4.671875 L 4.875 -4.671875 C 4.894531 -4.023438 5.125 -3.519531 5.5625 -3.15625 C 6.007812 -2.789062 6.617188 -2.609375 7.390625 -2.609375 C 8.085938 -2.609375 8.726562 -2.675781 9.3125 -2.8125 C 9.894531 -2.945312 10.523438 -3.171875 11.203125 -3.484375 L 11.203125 -0.640625 C 10.585938 -0.316406 9.945312 -0.0976562 9.28125 0.015625 C 8.613281 0.140625 7.820312 0.203125 6.90625 0.203125 Z M 6.671875 -8.984375 C 6.210938 -8.984375 5.820312 -8.835938 5.5 -8.546875 C 5.1875 -8.253906 5.003906 -7.789062 4.953125 -7.15625 L 8.359375 -7.15625 C 8.347656 -7.71875 8.191406 -8.160156 7.890625 -8.484375 C 7.585938 -8.816406 7.179688 -8.984375 6.671875 -8.984375 Z M 6.671875 -8.984375 "/></g></g></g><g fill="#000000" fill-opacity="1"><g transform="translate(135.462384, 260.962847)"><g><path d="M 10.234375 -3.53125 C 10.234375 -2.300781 9.8125 -1.367188 8.96875 -0.734375 C 8.132812 -0.109375 6.9375 0.203125 5.375 0.203125 C 4.519531 0.203125 3.773438 0.15625 3.140625 0.0625 C 2.515625 -0.03125 1.875 -0.195312 1.21875 -0.4375 L 1.21875 -3.609375 C 1.832031 -3.335938 2.503906 -3.113281 3.234375 -2.9375 C 3.972656 -2.757812 4.628906 -2.671875 5.203125 -2.671875 C 6.066406 -2.671875 6.5 -2.867188 6.5 -3.265625 C 6.5 -3.460938 6.378906 -3.640625 6.140625 -3.796875 C 5.898438 -3.960938 5.203125 -4.273438 4.046875 -4.734375 C 2.992188 -5.160156 2.253906 -5.648438 1.828125 -6.203125 C 1.410156 -6.753906 1.203125 -7.453125 1.203125 -8.296875 C 1.203125 -9.367188 1.613281 -10.203125 2.4375 -10.796875 C 3.257812 -11.390625 4.425781 -11.6875 5.9375 -11.6875 C 6.695312 -11.6875 7.40625 -11.601562 8.0625 -11.4375 C 8.726562 -11.269531 9.421875 -11.023438 10.140625 -10.703125 L 9.0625 -8.15625 C 8.539062 -8.394531 7.984375 -8.59375 7.390625 -8.75 C 6.804688 -8.914062 6.328125 -9 5.953125 -9 C 5.304688 -9 4.984375 -8.84375 4.984375 -8.53125 C 4.984375 -8.332031 5.09375 -8.164062 5.3125 -8.03125 C 5.539062 -7.894531 6.195312 -7.613281 7.28125 -7.1875 C 8.082031 -6.851562 8.679688 -6.523438 9.078125 -6.203125 C 9.472656 -5.890625 9.765625 -5.519531 9.953125 -5.09375 C 10.140625 -4.664062 10.234375 -4.144531 10.234375 -3.53125 Z M 10.234375 -3.53125 "/></g></g></g><g fill="#000000" fill-opacity="1"><g transform="translate(146.525631, 260.962847)"><g><path d="M 6.984375 -2.921875 C 7.523438 -2.921875 8.164062 -3.054688 8.90625 -3.328125 L 8.90625 -0.4375 C 8.375 -0.207031 7.863281 -0.046875 7.375 0.046875 C 6.894531 0.148438 6.332031 0.203125 5.6875 0.203125 C 4.351562 0.203125 3.390625 -0.117188 2.796875 -0.765625 C 2.210938 -1.421875 1.921875 -2.425781 1.921875 -3.78125 L 1.921875 -8.515625 L 0.53125 -8.515625 L 0.53125 -10.125 L 2.296875 -11.375 L 3.328125 -13.78125 L 5.921875 -13.78125 L 5.921875 -11.484375 L 8.734375 -11.484375 L 8.734375 -8.515625 L 5.921875 -8.515625 L 5.921875 -4.046875 C 5.921875 -3.296875 6.273438 -2.921875 6.984375 -2.921875 Z M 6.984375 -2.921875 "/></g></g></g><g fill="#000000" fill-opacity="1"><g transform="translate(156.069201, 260.962847)"><g><path d="M 8.859375 0 L 8.09375 -1.515625 L 8.015625 -1.515625 C 7.484375 -0.859375 6.9375 -0.40625 6.375 -0.15625 C 5.820312 0.0820312 5.109375 0.203125 4.234375 0.203125 C 3.148438 0.203125 2.296875 -0.117188 1.671875 -0.765625 C 1.054688 -1.421875 0.75 -2.332031 0.75 -3.5 C 0.75 -4.726562 1.171875 -5.640625 2.015625 -6.234375 C 2.867188 -6.835938 4.101562 -7.175781 5.71875 -7.25 L 7.640625 -7.3125 L 7.640625 -7.46875 C 7.640625 -8.414062 7.171875 -8.890625 6.234375 -8.890625 C 5.398438 -8.890625 4.335938 -8.601562 3.046875 -8.03125 L 1.90625 -10.65625 C 3.238281 -11.34375 4.925781 -11.6875 6.96875 -11.6875 C 8.4375 -11.6875 9.570312 -11.320312 10.375 -10.59375 C 11.1875 -9.863281 11.59375 -8.84375 11.59375 -7.53125 L 11.59375 0 Z M 5.921875 -2.59375 C 6.398438 -2.59375 6.804688 -2.742188 7.140625 -3.046875 C 7.484375 -3.347656 7.65625 -3.742188 7.65625 -4.234375 L 7.65625 -5.125 L 6.75 -5.09375 C 5.445312 -5.039062 4.796875 -4.554688 4.796875 -3.640625 C 4.796875 -2.941406 5.171875 -2.59375 5.921875 -2.59375 Z M 5.921875 -2.59375 "/></g></g></g><g fill="#000000" fill-opacity="1"><g transform="translate(168.996584, 260.962847)"><g><path d="M 6.984375 -2.921875 C 7.523438 -2.921875 8.164062 -3.054688 8.90625 -3.328125 L 8.90625 -0.4375 C 8.375 -0.207031 7.863281 -0.046875 7.375 0.046875 C 6.894531 0.148438 6.332031 0.203125 5.6875 0.203125 C 4.351562 0.203125 3.390625 -0.117188 2.796875 -0.765625 C 2.210938 -1.421875 1.921875 -2.425781 1.921875 -3.78125 L 1.921875 -8.515625 L 0.53125 -8.515625 L 0.53125 -10.125 L 2.296875 -11.375 L 3.328125 -13.78125 L 5.921875 -13.78125 L 5.921875 -11.484375 L 8.734375 -11.484375 L 8.734375 -8.515625 L 5.921875 -8.515625 L 5.921875 -4.046875 C 5.921875 -3.296875 6.273438 -2.921875 6.984375 -2.921875 Z M 6.984375 -2.921875 "/></g></g></g><g fill="#000000" fill-opacity="1"><g transform="translate(178.540154, 260.962847)"><g><path d="M 8.859375 0 L 8.09375 -1.515625 L 8.015625 -1.515625 C 7.484375 -0.859375 6.9375 -0.40625 6.375 -0.15625 C 5.820312 0.0820312 5.109375 0.203125 4.234375 0.203125 C 3.148438 0.203125 2.296875 -0.117188 1.671875 -0.765625 C 1.054688 -1.421875 0.75 -2.332031 0.75 -3.5 C 0.75 -4.726562 1.171875 -5.640625 2.015625 -6.234375 C 2.867188 -6.835938 4.101562 -7.175781 5.71875 -7.25 L 7.640625 -7.3125 L 7.640625 -7.46875 C 7.640625 -8.414062 7.171875 -8.890625 6.234375 -8.890625 C 5.398438 -8.890625 4.335938 -8.601562 3.046875 -8.03125 L 1.90625 -10.65625 C 3.238281 -11.34375 4.925781 -11.6875 6.96875 -11.6875 C 8.4375 -11.6875 9.570312 -11.320312 10.375 -10.59375 C 11.1875 -9.863281 11.59375 -8.84375 11.59375 -7.53125 L 11.59375 0 Z M 5.921875 -2.59375 C 6.398438 -2.59375 6.804688 -2.742188 7.140625 -3.046875 C 7.484375 -3.347656 7.65625 -3.742188 7.65625 -4.234375 L 7.65625 -5.125 L 6.75 -5.09375 C 5.445312 -5.039062 4.796875 -4.554688 4.796875 -3.640625 C 4.796875 -2.941406 5.171875 -2.59375 5.921875 -2.59375 Z M 5.921875 -2.59375 "/></g></g></g><g fill="#000000" fill-opacity="1"><g transform="translate(191.467537, 260.962847)"><g><path d="M 5.34375 0 L 1.390625 0 L 1.390625 -11.484375 L 5.34375 -11.484375 Z M 1.28125 -14.34375 C 1.28125 -14.9375 1.445312 -15.375 1.78125 -15.65625 C 2.113281 -15.945312 2.648438 -16.09375 3.390625 -16.09375 C 4.117188 -16.09375 4.648438 -15.941406 4.984375 -15.640625 C 5.328125 -15.347656 5.5 -14.914062 5.5 -14.34375 C 5.5 -13.175781 4.796875 -12.59375 3.390625 -12.59375 C 1.984375 -12.59375 1.28125 -13.175781 1.28125 -14.34375 Z M 1.28125 -14.34375 "/></g></g></g><g fill="#000000" fill-opacity="1"><g transform="translate(198.214902, 260.962847)"><g><path d="M 8.296875 -11.6875 C 8.640625 -11.6875 8.96875 -11.65625 9.28125 -11.59375 L 9.5 -11.5625 L 9.15625 -7.828125 C 8.820312 -7.898438 8.367188 -7.9375 7.796875 -7.9375 C 6.929688 -7.9375 6.300781 -7.738281 5.90625 -7.34375 C 5.519531 -6.957031 5.328125 -6.390625 5.328125 -5.640625 L 5.328125 0 L 1.375 0 L 1.375 -11.484375 L 4.3125 -11.484375 L 4.9375 -9.640625 L 5.125 -9.640625 C 5.457031 -10.253906 5.914062 -10.75 6.5 -11.125 C 7.09375 -11.5 7.691406 -11.6875 8.296875 -11.6875 Z M 8.296875 -11.6875 "/></g></g></g><g fill="#000000" fill-opacity="1"><g transform="translate(207.950971, 260.962847)"><g><path d="M 6.90625 0.203125 C 5 0.203125 3.515625 -0.300781 2.453125 -1.3125 C 1.398438 -2.332031 0.875 -3.78125 0.875 -5.65625 C 0.875 -7.601562 1.363281 -9.09375 2.34375 -10.125 C 3.320312 -11.164062 4.71875 -11.6875 6.53125 -11.6875 C 8.257812 -11.6875 9.59375 -11.234375 10.53125 -10.328125 C 11.476562 -9.429688 11.953125 -8.132812 11.953125 -6.4375 L 11.953125 -4.671875 L 4.875 -4.671875 C 4.894531 -4.023438 5.125 -3.519531 5.5625 -3.15625 C 6.007812 -2.789062 6.617188 -2.609375 7.390625 -2.609375 C 8.085938 -2.609375 8.726562 -2.675781 9.3125 -2.8125 C 9.894531 -2.945312 10.523438 -3.171875 11.203125 -3.484375 L 11.203125 -0.640625 C 10.585938 -0.316406 9.945312 -0.0976562 9.28125 0.015625 C 8.613281 0.140625 7.820312 0.203125 6.90625 0.203125 Z M 6.671875 -8.984375 C 6.210938 -8.984375 5.820312 -8.835938 5.5 -8.546875 C 5.1875 -8.253906 5.003906 -7.789062 4.953125 -7.15625 L 8.359375 -7.15625 C 8.347656 -7.71875 8.191406 -8.160156 7.890625 -8.484375 C 7.585938 -8.816406 7.179688 -8.984375 6.671875 -8.984375 Z M 6.671875 -8.984375 "/></g></g></g><g fill="#000000" fill-opacity="1"><g transform="translate(220.777043, 260.962847)"><g><path d="M 10.234375 -3.53125 C 10.234375 -2.300781 9.8125 -1.367188 8.96875 -0.734375 C 8.132812 -0.109375 6.9375 0.203125 5.375 0.203125 C 4.519531 0.203125 3.773438 0.15625 3.140625 0.0625 C 2.515625 -0.03125 1.875 -0.195312 1.21875 -0.4375 L 1.21875 -3.609375 C 1.832031 -3.335938 2.503906 -3.113281 3.234375 -2.9375 C 3.972656 -2.757812 4.628906 -2.671875 5.203125 -2.671875 C 6.066406 -2.671875 6.5 -2.867188 6.5 -3.265625 C 6.5 -3.460938 6.378906 -3.640625 6.140625 -3.796875 C 5.898438 -3.960938 5.203125 -4.273438 4.046875 -4.734375 C 2.992188 -5.160156 2.253906 -5.648438 1.828125 -6.203125 C 1.410156 -6.753906 1.203125 -7.453125 1.203125 -8.296875 C 1.203125 -9.367188 1.613281 -10.203125 2.4375 -10.796875 C 3.257812 -11.390625 4.425781 -11.6875 5.9375 -11.6875 C 6.695312 -11.6875 7.40625 -11.601562 8.0625 -11.4375 C 8.726562 -11.269531 9.421875 -11.023438 10.140625 -10.703125 L 9.0625 -8.15625 C 8.539062 -8.394531 7.984375 -8.59375 7.390625 -8.75 C 6.804688 -8.914062 6.328125 -9 5.953125 -9 C 5.304688 -9 4.984375 -8.84375 4.984375 -8.53125 C 4.984375 -8.332031 5.09375 -8.164062 5.3125 -8.03125 C 5.539062 -7.894531 6.195312 -7.613281 7.28125 -7.1875 C 8.082031 -6.851562 8.679688 -6.523438 9.078125 -6.203125 C 9.472656 -5.890625 9.765625 -5.519531 9.953125 -5.09375 C 10.140625 -4.664062 10.234375 -4.144531 10.234375 -3.53125 Z M 10.234375 -3.53125 "/></g></g></g><g clip-path="url(#04219baa3a)"><path stroke-linecap="butt" transform="matrix(0.752567, 0, 0, 0.746723, 165.818948, 135.369906)" fill="none" stroke-linejoin="miter" d="M 0.00181372 0.00159027 L 141.51227 0.00159027 L 141.51227 89.392219 L 0.00181372 89.392219 L 0.00181372 0.00159027 " stroke="#000000" stroke-width="2" stroke-opacity="1" stroke-miterlimit="4"/></g><g clip-path="url(#76934ee05d)"><path stroke-linecap="butt" transform="matrix(0.752567, 0, 0, 0.746723, 456.601751, 135.369906)" fill="none" stroke-linejoin="miter" d="M -0.000250878 0.00159027 L 141.510206 0.00159027 L 141.510206 89.392219 L -0.000250878 89.392219 L -0.000250878 0.00159027 " stroke="#000000" stroke-width="2" stroke-opacity="1" stroke-miterlimit="4"/></g><g clip-path="url(#d9bcc6fa53)"><path stroke-linecap="butt" transform="matrix(0.752567, 0, 0, 0.746723, 326.928295, 135.369906)" fill="none" stroke-linejoin="miter" d="M 0.00185033 0.00159027 L 141.512307 0.00159027 L 141.512307 89.392219 L 0.00185033 89.392219 L 0.00185033 0.00159027 " stroke="#000000" stroke-width="2" stroke-opacity="1" stroke-miterlimit="4"/></g><g fill="#000000" fill-opacity="1"><g transform="translate(419.469367, 260.962847)"><g><path d="M 8.203125 -11.75 C 7.242188 -11.75 6.5 -11.359375 5.96875 -10.578125 C 5.4375 -9.796875 5.171875 -8.71875 5.171875 -7.34375 C 5.171875 -4.488281 6.253906 -3.0625 8.421875 -3.0625 C 9.078125 -3.0625 9.710938 -3.148438 10.328125 -3.328125 C 10.941406 -3.515625 11.554688 -3.738281 12.171875 -4 L 12.171875 -0.625 C 10.941406 -0.0703125 9.546875 0.203125 7.984375 0.203125 C 5.742188 0.203125 4.023438 -0.441406 2.828125 -1.734375 C 1.640625 -3.035156 1.046875 -4.910156 1.046875 -7.359375 C 1.046875 -8.898438 1.332031 -10.25 1.90625 -11.40625 C 2.488281 -12.570312 3.320312 -13.46875 4.40625 -14.09375 C 5.488281 -14.71875 6.765625 -15.03125 8.234375 -15.03125 C 9.835938 -15.03125 11.367188 -14.679688 12.828125 -13.984375 L 11.59375 -10.828125 C 11.050781 -11.085938 10.503906 -11.304688 9.953125 -11.484375 C 9.410156 -11.660156 8.828125 -11.75 8.203125 -11.75 Z M 8.203125 -11.75 "/></g></g></g><g fill="#000000" fill-opacity="1"><g transform="translate(432.93371, 260.962847)"><g><path d="M 5.328125 0 L 1.375 0 L 1.375 -15.765625 L 5.328125 -15.765625 Z M 5.328125 0 "/></g></g></g><g fill="#000000" fill-opacity="1"><g transform="translate(439.64055, 260.962847)"><g><path d="M 5.34375 0 L 1.390625 0 L 1.390625 -11.484375 L 5.34375 -11.484375 Z M 1.28125 -14.34375 C 1.28125 -14.9375 1.445312 -15.375 1.78125 -15.65625 C 2.113281 -15.945312 2.648438 -16.09375 3.390625 -16.09375 C 4.117188 -16.09375 4.648438 -15.941406 4.984375 -15.640625 C 5.328125 -15.347656 5.5 -14.914062 5.5 -14.34375 C 5.5 -13.175781 4.796875 -12.59375 3.390625 -12.59375 C 1.984375 -12.59375 1.28125 -13.175781 1.28125 -14.34375 Z M 1.28125 -14.34375 "/></g></g></g><g fill="#000000" fill-opacity="1"><g transform="translate(446.387914, 260.962847)"><g><path d="M 6.90625 0.203125 C 5 0.203125 3.515625 -0.300781 2.453125 -1.3125 C 1.398438 -2.332031 0.875 -3.78125 0.875 -5.65625 C 0.875 -7.601562 1.363281 -9.09375 2.34375 -10.125 C 3.320312 -11.164062 4.71875 -11.6875 6.53125 -11.6875 C 8.257812 -11.6875 9.59375 -11.234375 10.53125 -10.328125 C 11.476562 -9.429688 11.953125 -8.132812 11.953125 -6.4375 L 11.953125 -4.671875 L 4.875 -4.671875 C 4.894531 -4.023438 5.125 -3.519531 5.5625 -3.15625 C 6.007812 -2.789062 6.617188 -2.609375 7.390625 -2.609375 C 8.085938 -2.609375 8.726562 -2.675781 9.3125 -2.8125 C 9.894531 -2.945312 10.523438 -3.171875 11.203125 -3.484375 L 11.203125 -0.640625 C 10.585938 -0.316406 9.945312 -0.0976562 9.28125 0.015625 C 8.613281 0.140625 7.820312 0.203125 6.90625 0.203125 Z M 6.671875 -8.984375 C 6.210938 -8.984375 5.820312 -8.835938 5.5 -8.546875 C 5.1875 -8.253906 5.003906 -7.789062 4.953125 -7.15625 L 8.359375 -7.15625 C 8.347656 -7.71875 8.191406 -8.160156 7.890625 -8.484375 C 7.585938 -8.816406 7.179688 -8.984375 6.671875 -8.984375 Z M 6.671875 -8.984375 "/></g></g></g><g fill="#000000" fill-opacity="1"><g transform="translate(459.213986, 260.962847)"><g><path d="M 8.609375 0 L 8.609375 -6.265625 C 8.609375 -7.023438 8.5 -7.597656 8.28125 -7.984375 C 8.0625 -8.378906 7.707031 -8.578125 7.21875 -8.578125 C 6.550781 -8.578125 6.066406 -8.304688 5.765625 -7.765625 C 5.472656 -7.234375 5.328125 -6.320312 5.328125 -5.03125 L 5.328125 0 L 1.375 0 L 1.375 -11.484375 L 4.359375 -11.484375 L 4.859375 -10.0625 L 5.09375 -10.0625 C 5.425781 -10.601562 5.890625 -11.007812 6.484375 -11.28125 C 7.085938 -11.550781 7.773438 -11.6875 8.546875 -11.6875 C 9.816406 -11.6875 10.804688 -11.316406 11.515625 -10.578125 C 12.222656 -9.835938 12.578125 -8.800781 12.578125 -7.46875 L 12.578125 0 Z M 8.609375 0 "/></g></g></g><g fill="#000000" fill-opacity="1"><g transform="translate(473.113963, 260.962847)"><g><path d="M 6.984375 -2.921875 C 7.523438 -2.921875 8.164062 -3.054688 8.90625 -3.328125 L 8.90625 -0.4375 C 8.375 -0.207031 7.863281 -0.046875 7.375 0.046875 C 6.894531 0.148438 6.332031 0.203125 5.6875 0.203125 C 4.351562 0.203125 3.390625 -0.117188 2.796875 -0.765625 C 2.210938 -1.421875 1.921875 -2.425781 1.921875 -3.78125 L 1.921875 -8.515625 L 0.53125 -8.515625 L 0.53125 -10.125 L 2.296875 -11.375 L 3.328125 -13.78125 L 5.921875 -13.78125 L 5.921875 -11.484375 L 8.734375 -11.484375 L 8.734375 -8.515625 L 5.921875 -8.515625 L 5.921875 -4.046875 C 5.921875 -3.296875 6.273438 -2.921875 6.984375 -2.921875 Z M 6.984375 -2.921875 "/></g></g></g><g fill="#000000" fill-opacity="1"><g transform="translate(482.657533, 260.962847)"><g><path d="M 10.234375 -3.53125 C 10.234375 -2.300781 9.8125 -1.367188 8.96875 -0.734375 C 8.132812 -0.109375 6.9375 0.203125 5.375 0.203125 C 4.519531 0.203125 3.773438 0.15625 3.140625 0.0625 C 2.515625 -0.03125 1.875 -0.195312 1.21875 -0.4375 L 1.21875 -3.609375 C 1.832031 -3.335938 2.503906 -3.113281 3.234375 -2.9375 C 3.972656 -2.757812 4.628906 -2.671875 5.203125 -2.671875 C 6.066406 -2.671875 6.5 -2.867188 6.5 -3.265625 C 6.5 -3.460938 6.378906 -3.640625 6.140625 -3.796875 C 5.898438 -3.960938 5.203125 -4.273438 4.046875 -4.734375 C 2.992188 -5.160156 2.253906 -5.648438 1.828125 -6.203125 C 1.410156 -6.753906 1.203125 -7.453125 1.203125 -8.296875 C 1.203125 -9.367188 1.613281 -10.203125 2.4375 -10.796875 C 3.257812 -11.390625 4.425781 -11.6875 5.9375 -11.6875 C 6.695312 -11.6875 7.40625 -11.601562 8.0625 -11.4375 C 8.726562 -11.269531 9.421875 -11.023438 10.140625 -10.703125 L 9.0625 -8.15625 C 8.539062 -8.394531 7.984375 -8.59375 7.390625 -8.75 C 6.804688 -8.914062 6.328125 -9 5.953125 -9 C 5.304688 -9 4.984375 -8.84375 4.984375 -8.53125 C 4.984375 -8.332031 5.09375 -8.164062 5.3125 -8.03125 C 5.539062 -7.894531 6.195312 -7.613281 7.28125 -7.1875 C 8.082031 -6.851562 8.679688 -6.523438 9.078125 -6.203125 C 9.472656 -5.890625 9.765625 -5.519531 9.953125 -5.09375 C 10.140625 -4.664062 10.234375 -4.144531 10.234375 -3.53125 Z M 10.234375 -3.53125 "/></g></g></g><g fill="#000000" fill-opacity="1"><g transform="translate(59.636725, 175.268086)"><g><path d="M 6.59375 0 L 4.125 -8.734375 L 4.046875 -8.734375 C 4.160156 -7.253906 4.21875 -6.097656 4.21875 -5.265625 L 4.21875 0 L 1.3125 0 L 1.3125 -12.140625 L 5.671875 -12.140625 L 8.203125 -3.515625 L 8.28125 -3.515625 L 10.765625 -12.140625 L 15.125 -12.140625 L 15.125 0 L 12.125 0 L 12.125 -5.328125 C 12.125 -5.597656 12.125 -5.898438 12.125 -6.234375 C 12.132812 -6.578125 12.175781 -7.40625 12.25 -8.71875 L 12.171875 -8.71875 L 9.71875 0 Z M 6.59375 0 "/></g></g></g><g fill="#000000" fill-opacity="1"><g transform="translate(76.064718, 175.268086)"><g><path d="M 4.390625 0 L 1.140625 0 L 1.140625 -9.40625 L 4.390625 -9.40625 Z M 1.046875 -11.75 C 1.046875 -12.226562 1.179688 -12.585938 1.453125 -12.828125 C 1.734375 -13.066406 2.171875 -13.1875 2.765625 -13.1875 C 3.367188 -13.1875 3.804688 -13.0625 4.078125 -12.8125 C 4.359375 -12.570312 4.5 -12.21875 4.5 -11.75 C 4.5 -10.789062 3.921875 -10.3125 2.765625 -10.3125 C 1.617188 -10.3125 1.046875 -10.789062 1.046875 -11.75 Z M 1.046875 -11.75 "/></g></g></g><g fill="#000000" fill-opacity="1"><g transform="translate(81.590497, 175.268086)"><g><path d="M 8.390625 -2.890625 C 8.390625 -1.878906 8.046875 -1.113281 7.359375 -0.59375 C 6.671875 -0.0820312 5.6875 0.171875 4.40625 0.171875 C 3.707031 0.171875 3.097656 0.128906 2.578125 0.046875 C 2.066406 -0.0234375 1.539062 -0.160156 1 -0.359375 L 1 -2.953125 C 1.507812 -2.734375 2.0625 -2.550781 2.65625 -2.40625 C 3.257812 -2.257812 3.796875 -2.1875 4.265625 -2.1875 C 4.972656 -2.1875 5.328125 -2.347656 5.328125 -2.671875 C 5.328125 -2.835938 5.226562 -2.984375 5.03125 -3.109375 C 4.832031 -3.242188 4.257812 -3.5 3.3125 -3.875 C 2.445312 -4.226562 1.84375 -4.628906 1.5 -5.078125 C 1.15625 -5.535156 0.984375 -6.109375 0.984375 -6.796875 C 0.984375 -7.671875 1.320312 -8.351562 2 -8.84375 C 2.675781 -9.332031 3.628906 -9.578125 4.859375 -9.578125 C 5.484375 -9.578125 6.066406 -9.507812 6.609375 -9.375 C 7.148438 -9.238281 7.71875 -9.039062 8.3125 -8.78125 L 7.421875 -6.6875 C 6.992188 -6.875 6.539062 -7.035156 6.0625 -7.171875 C 5.582031 -7.304688 5.1875 -7.375 4.875 -7.375 C 4.34375 -7.375 4.078125 -7.242188 4.078125 -6.984375 C 4.078125 -6.828125 4.171875 -6.691406 4.359375 -6.578125 C 4.546875 -6.460938 5.082031 -6.234375 5.96875 -5.890625 C 6.625 -5.617188 7.113281 -5.351562 7.4375 -5.09375 C 7.757812 -4.832031 8 -4.523438 8.15625 -4.171875 C 8.3125 -3.816406 8.390625 -3.390625 8.390625 -2.890625 Z M 8.390625 -2.890625 "/></g></g></g><g fill="#000000" fill-opacity="1"><g transform="translate(90.650784, 175.268086)"><g><path d="M 8.390625 -2.890625 C 8.390625 -1.878906 8.046875 -1.113281 7.359375 -0.59375 C 6.671875 -0.0820312 5.6875 0.171875 4.40625 0.171875 C 3.707031 0.171875 3.097656 0.128906 2.578125 0.046875 C 2.066406 -0.0234375 1.539062 -0.160156 1 -0.359375 L 1 -2.953125 C 1.507812 -2.734375 2.0625 -2.550781 2.65625 -2.40625 C 3.257812 -2.257812 3.796875 -2.1875 4.265625 -2.1875 C 4.972656 -2.1875 5.328125 -2.347656 5.328125 -2.671875 C 5.328125 -2.835938 5.226562 -2.984375 5.03125 -3.109375 C 4.832031 -3.242188 4.257812 -3.5 3.3125 -3.875 C 2.445312 -4.226562 1.84375 -4.628906 1.5 -5.078125 C 1.15625 -5.535156 0.984375 -6.109375 0.984375 -6.796875 C 0.984375 -7.671875 1.320312 -8.351562 2 -8.84375 C 2.675781 -9.332031 3.628906 -9.578125 4.859375 -9.578125 C 5.484375 -9.578125 6.066406 -9.507812 6.609375 -9.375 C 7.148438 -9.238281 7.71875 -9.039062 8.3125 -8.78125 L 7.421875 -6.6875 C 6.992188 -6.875 6.539062 -7.035156 6.0625 -7.171875 C 5.582031 -7.304688 5.1875 -7.375 4.875 -7.375 C 4.34375 -7.375 4.078125 -7.242188 4.078125 -6.984375 C 4.078125 -6.828125 4.171875 -6.691406 4.359375 -6.578125 C 4.546875 -6.460938 5.082031 -6.234375 5.96875 -5.890625 C 6.625 -5.617188 7.113281 -5.351562 7.4375 -5.09375 C 7.757812 -4.832031 8 -4.523438 8.15625 -4.171875 C 8.3125 -3.816406 8.390625 -3.390625 8.390625 -2.890625 Z M 8.390625 -2.890625 "/></g></g></g><g fill="#000000" fill-opacity="1"><g transform="translate(99.711071, 175.268086)"><g><path d="M 4.390625 0 L 1.140625 0 L 1.140625 -9.40625 L 4.390625 -9.40625 Z M 1.046875 -11.75 C 1.046875 -12.226562 1.179688 -12.585938 1.453125 -12.828125 C 1.734375 -13.066406 2.171875 -13.1875 2.765625 -13.1875 C 3.367188 -13.1875 3.804688 -13.0625 4.078125 -12.8125 C 4.359375 -12.570312 4.5 -12.21875 4.5 -11.75 C 4.5 -10.789062 3.921875 -10.3125 2.765625 -10.3125 C 1.617188 -10.3125 1.046875 -10.789062 1.046875 -11.75 Z M 1.046875 -11.75 "/></g></g></g><g fill="#000000" fill-opacity="1"><g transform="translate(105.23685, 175.268086)"><g><path d="M 10.109375 -4.71875 C 10.109375 -3.1875 9.691406 -1.988281 8.859375 -1.125 C 8.035156 -0.257812 6.878906 0.171875 5.390625 0.171875 C 3.960938 0.171875 2.828125 -0.265625 1.984375 -1.140625 C 1.140625 -2.023438 0.71875 -3.21875 0.71875 -4.71875 C 0.71875 -6.25 1.128906 -7.441406 1.953125 -8.296875 C 2.785156 -9.148438 3.945312 -9.578125 5.4375 -9.578125 C 6.363281 -9.578125 7.179688 -9.378906 7.890625 -8.984375 C 8.597656 -8.585938 9.144531 -8.019531 9.53125 -7.28125 C 9.914062 -6.550781 10.109375 -5.695312 10.109375 -4.71875 Z M 4.015625 -4.71875 C 4.015625 -3.914062 4.117188 -3.300781 4.328125 -2.875 C 4.546875 -2.445312 4.910156 -2.234375 5.421875 -2.234375 C 5.921875 -2.234375 6.273438 -2.445312 6.484375 -2.875 C 6.691406 -3.300781 6.796875 -3.914062 6.796875 -4.71875 C 6.796875 -5.519531 6.691406 -6.125 6.484375 -6.53125 C 6.273438 -6.945312 5.914062 -7.15625 5.40625 -7.15625 C 4.90625 -7.15625 4.546875 -6.953125 4.328125 -6.546875 C 4.117188 -6.140625 4.015625 -5.53125 4.015625 -4.71875 Z M 4.015625 -4.71875 "/></g></g></g><g fill="#000000" fill-opacity="1"><g transform="translate(116.06439, 175.268086)"><g><path d="M 7.0625 0 L 7.0625 -5.125 C 7.0625 -5.75 6.96875 -6.21875 6.78125 -6.53125 C 6.601562 -6.851562 6.316406 -7.015625 5.921875 -7.015625 C 5.367188 -7.015625 4.96875 -6.796875 4.71875 -6.359375 C 4.476562 -5.929688 4.359375 -5.1875 4.359375 -4.125 L 4.359375 0 L 1.125 0 L 1.125 -9.40625 L 3.5625 -9.40625 L 3.96875 -8.25 L 4.171875 -8.25 C 4.441406 -8.6875 4.820312 -9.015625 5.3125 -9.234375 C 5.800781 -9.460938 6.363281 -9.578125 7 -9.578125 C 8.039062 -9.578125 8.847656 -9.273438 9.421875 -8.671875 C 10.003906 -8.066406 10.296875 -7.21875 10.296875 -6.125 L 10.296875 0 Z M 7.0625 0 "/></g></g></g><g fill="#000000" fill-opacity="1"><g transform="translate(127.447828, 175.268086)"><g><path d="M 8.390625 -2.890625 C 8.390625 -1.878906 8.046875 -1.113281 7.359375 -0.59375 C 6.671875 -0.0820312 5.6875 0.171875 4.40625 0.171875 C 3.707031 0.171875 3.097656 0.128906 2.578125 0.046875 C 2.066406 -0.0234375 1.539062 -0.160156 1 -0.359375 L 1 -2.953125 C 1.507812 -2.734375 2.0625 -2.550781 2.65625 -2.40625 C 3.257812 -2.257812 3.796875 -2.1875 4.265625 -2.1875 C 4.972656 -2.1875 5.328125 -2.347656 5.328125 -2.671875 C 5.328125 -2.835938 5.226562 -2.984375 5.03125 -3.109375 C 4.832031 -3.242188 4.257812 -3.5 3.3125 -3.875 C 2.445312 -4.226562 1.84375 -4.628906 1.5 -5.078125 C 1.15625 -5.535156 0.984375 -6.109375 0.984375 -6.796875 C 0.984375 -7.671875 1.320312 -8.351562 2 -8.84375 C 2.675781 -9.332031 3.628906 -9.578125 4.859375 -9.578125 C 5.484375 -9.578125 6.066406 -9.507812 6.609375 -9.375 C 7.148438 -9.238281 7.71875 -9.039062 8.3125 -8.78125 L 7.421875 -6.6875 C 6.992188 -6.875 6.539062 -7.035156 6.0625 -7.171875 C 5.582031 -7.304688 5.1875 -7.375 4.875 -7.375 C 4.34375 -7.375 4.078125 -7.242188 4.078125 -6.984375 C 4.078125 -6.828125 4.171875 -6.691406 4.359375 -6.578125 C 4.546875 -6.460938 5.082031 -6.234375 5.96875 -5.890625 C 6.625 -5.617188 7.113281 -5.351562 7.4375 -5.09375 C 7.757812 -4.832031 8 -4.523438 8.15625 -4.171875 C 8.3125 -3.816406 8.390625 -3.390625 8.390625 -2.890625 Z M 8.390625 -2.890625 "/></g></g></g><g fill="#000000" fill-opacity="1"><g transform="translate(188.517065, 175.268086)"><g><path d="M 6.671875 0 L 3.390625 0 L 3.390625 -9.453125 L 0.421875 -9.453125 L 0.421875 -12.140625 L 9.625 -12.140625 L 9.625 -9.453125 L 6.671875 -9.453125 Z M 6.671875 0 "/></g></g></g><g fill="#000000" fill-opacity="1"><g transform="translate(198.556394, 175.268086)"><g><path d="M 7.25 0 L 6.625 -1.25 L 6.5625 -1.25 C 6.125 -0.707031 5.675781 -0.332031 5.21875 -0.125 C 4.769531 0.0703125 4.1875 0.171875 3.46875 0.171875 C 2.582031 0.171875 1.882812 -0.09375 1.375 -0.625 C 0.863281 -1.15625 0.609375 -1.90625 0.609375 -2.875 C 0.609375 -3.875 0.957031 -4.617188 1.65625 -5.109375 C 2.351562 -5.597656 3.363281 -5.875 4.6875 -5.9375 L 6.265625 -5.984375 L 6.265625 -6.125 C 6.265625 -6.894531 5.878906 -7.28125 5.109375 -7.28125 C 4.421875 -7.28125 3.550781 -7.046875 2.5 -6.578125 L 1.5625 -8.71875 C 2.65625 -9.289062 4.039062 -9.578125 5.71875 -9.578125 C 6.914062 -9.578125 7.84375 -9.273438 8.5 -8.671875 C 9.164062 -8.078125 9.5 -7.242188 9.5 -6.171875 L 9.5 0 Z M 4.84375 -2.125 C 5.238281 -2.125 5.578125 -2.25 5.859375 -2.5 C 6.140625 -2.75 6.28125 -3.070312 6.28125 -3.46875 L 6.28125 -4.203125 L 5.53125 -4.171875 C 4.457031 -4.128906 3.921875 -3.734375 3.921875 -2.984375 C 3.921875 -2.410156 4.226562 -2.125 4.84375 -2.125 Z M 7.0625 -10.265625 C 6.59375 -10.535156 6.035156 -10.953125 5.390625 -11.515625 C 4.703125 -10.921875 4.164062 -10.503906 3.78125 -10.265625 L 1.640625 -10.265625 L 1.640625 -10.515625 C 2.023438 -10.867188 2.425781 -11.289062 2.84375 -11.78125 C 3.257812 -12.269531 3.570312 -12.675781 3.78125 -13 L 7.046875 -13 C 7.566406 -12.238281 8.273438 -11.410156 9.171875 -10.515625 L 9.171875 -10.265625 Z M 7.0625 -10.265625 "/></g></g></g><g fill="#000000" fill-opacity="1"><g transform="translate(209.143323, 175.268086)"><g><path d="M 5.40625 0.171875 C 3.863281 0.171875 2.695312 -0.242188 1.90625 -1.078125 C 1.113281 -1.910156 0.71875 -3.101562 0.71875 -4.65625 C 0.71875 -6.21875 1.144531 -7.425781 2 -8.28125 C 2.851562 -9.144531 4.070312 -9.578125 5.65625 -9.578125 C 6.75 -9.578125 7.773438 -9.335938 8.734375 -8.859375 L 7.78125 -6.453125 C 7.394531 -6.628906 7.035156 -6.765625 6.703125 -6.859375 C 6.367188 -6.960938 6.019531 -7.015625 5.65625 -7.015625 C 5.132812 -7.015625 4.726562 -6.8125 4.4375 -6.40625 C 4.15625 -6 4.015625 -5.421875 4.015625 -4.671875 C 4.015625 -3.171875 4.566406 -2.421875 5.671875 -2.421875 C 6.628906 -2.421875 7.546875 -2.695312 8.421875 -3.25 L 8.421875 -0.671875 C 7.578125 -0.109375 6.570312 0.171875 5.40625 0.171875 Z M 5.40625 0.171875 "/></g></g></g><g fill="#000000" fill-opacity="1"><g transform="translate(218.303173, 175.268086)"><g><path d="M 7.046875 0 L 7.046875 -5.125 C 7.046875 -6.382812 6.671875 -7.015625 5.921875 -7.015625 C 5.390625 -7.015625 4.992188 -6.789062 4.734375 -6.34375 C 4.484375 -5.90625 4.359375 -5.171875 4.359375 -4.140625 L 4.359375 0 L 1.125 0 L 1.125 -12.921875 L 4.359375 -12.921875 L 4.359375 -11.078125 C 4.359375 -10.253906 4.316406 -9.3125 4.234375 -8.25 L 4.390625 -8.25 C 4.691406 -8.726562 5.054688 -9.066406 5.484375 -9.265625 C 5.910156 -9.472656 6.40625 -9.578125 6.96875 -9.578125 C 8.019531 -9.578125 8.835938 -9.269531 9.421875 -8.65625 C 10.003906 -8.050781 10.296875 -7.207031 10.296875 -6.125 L 10.296875 0 Z M 7.046875 0 "/></g></g></g><g fill="#000000" fill-opacity="1"><g transform="translate(229.68661, 175.268086)"><g><path d="M 5.65625 0.171875 C 4.09375 0.171875 2.878906 -0.242188 2.015625 -1.078125 C 1.148438 -1.910156 0.71875 -3.097656 0.71875 -4.640625 C 0.71875 -6.222656 1.117188 -7.441406 1.921875 -8.296875 C 2.722656 -9.148438 3.867188 -9.578125 5.359375 -9.578125 C 6.773438 -9.578125 7.867188 -9.207031 8.640625 -8.46875 C 9.410156 -7.726562 9.796875 -6.660156 9.796875 -5.265625 L 9.796875 -3.828125 L 4 -3.828125 C 4.019531 -3.296875 4.207031 -2.878906 4.5625 -2.578125 C 4.925781 -2.285156 5.421875 -2.140625 6.046875 -2.140625 C 6.617188 -2.140625 7.144531 -2.191406 7.625 -2.296875 C 8.101562 -2.410156 8.625 -2.597656 9.1875 -2.859375 L 9.1875 -0.515625 C 8.675781 -0.265625 8.148438 -0.0859375 7.609375 0.015625 C 7.066406 0.117188 6.414062 0.171875 5.65625 0.171875 Z M 5.46875 -7.359375 C 5.082031 -7.359375 4.757812 -7.238281 4.5 -7 C 4.25 -6.757812 4.101562 -6.382812 4.0625 -5.875 L 6.84375 -5.875 C 6.832031 -6.320312 6.703125 -6.679688 6.453125 -6.953125 C 6.210938 -7.222656 5.882812 -7.359375 5.46875 -7.359375 Z M 5.46875 -7.359375 "/></g></g></g><g fill="#000000" fill-opacity="1"><g transform="translate(240.190569, 175.268086)"><g><path d="M 8.390625 -2.890625 C 8.390625 -1.878906 8.046875 -1.113281 7.359375 -0.59375 C 6.671875 -0.0820312 5.6875 0.171875 4.40625 0.171875 C 3.707031 0.171875 3.097656 0.128906 2.578125 0.046875 C 2.066406 -0.0234375 1.539062 -0.160156 1 -0.359375 L 1 -2.953125 C 1.507812 -2.734375 2.0625 -2.550781 2.65625 -2.40625 C 3.257812 -2.257812 3.796875 -2.1875 4.265625 -2.1875 C 4.972656 -2.1875 5.328125 -2.347656 5.328125 -2.671875 C 5.328125 -2.835938 5.226562 -2.984375 5.03125 -3.109375 C 4.832031 -3.242188 4.257812 -3.5 3.3125 -3.875 C 2.445312 -4.226562 1.84375 -4.628906 1.5 -5.078125 C 1.15625 -5.535156 0.984375 -6.109375 0.984375 -6.796875 C 0.984375 -7.671875 1.320312 -8.351562 2 -8.84375 C 2.675781 -9.332031 3.628906 -9.578125 4.859375 -9.578125 C 5.484375 -9.578125 6.066406 -9.507812 6.609375 -9.375 C 7.148438 -9.238281 7.71875 -9.039062 8.3125 -8.78125 L 7.421875 -6.6875 C 6.992188 -6.875 6.539062 -7.035156 6.0625 -7.171875 C 5.582031 -7.304688 5.1875 -7.375 4.875 -7.375 C 4.34375 -7.375 4.078125 -7.242188 4.078125 -6.984375 C 4.078125 -6.828125 4.171875 -6.691406 4.359375 -6.578125 C 4.546875 -6.460938 5.082031 -6.234375 5.96875 -5.890625 C 6.625 -5.617188 7.113281 -5.351562 7.4375 -5.09375 C 7.757812 -4.832031 8 -4.523438 8.15625 -4.171875 C 8.3125 -3.816406 8.390625 -3.390625 8.390625 -2.890625 Z M 8.390625 -2.890625 "/></g></g></g><g fill="#000000" fill-opacity="1"><g transform="translate(343.54437, 175.268086)"><g><path d="M 9.25 -3.6875 C 9.25 -2.9375 9.054688 -2.269531 8.671875 -1.6875 C 8.296875 -1.101562 7.742188 -0.644531 7.015625 -0.3125 C 6.296875 0.0078125 5.453125 0.171875 4.484375 0.171875 C 3.679688 0.171875 3.003906 0.113281 2.453125 0 C 1.910156 -0.113281 1.34375 -0.3125 0.75 -0.59375 L 0.75 -3.515625 C 1.375 -3.191406 2.019531 -2.941406 2.6875 -2.765625 C 3.363281 -2.585938 3.988281 -2.5 4.5625 -2.5 C 5.039062 -2.5 5.394531 -2.582031 5.625 -2.75 C 5.851562 -2.914062 5.96875 -3.132812 5.96875 -3.40625 C 5.96875 -3.570312 5.921875 -3.71875 5.828125 -3.84375 C 5.734375 -3.96875 5.585938 -4.09375 5.390625 -4.21875 C 5.191406 -4.34375 4.65625 -4.601562 3.78125 -5 C 2.988281 -5.351562 2.394531 -5.695312 2 -6.03125 C 1.601562 -6.375 1.304688 -6.765625 1.109375 -7.203125 C 0.921875 -7.640625 0.828125 -8.15625 0.828125 -8.75 C 0.828125 -9.875 1.234375 -10.75 2.046875 -11.375 C 2.859375 -12 3.976562 -12.3125 5.40625 -12.3125 C 6.65625 -12.3125 7.9375 -12.019531 9.25 -11.4375 L 8.25 -8.90625 C 7.113281 -9.425781 6.128906 -9.6875 5.296875 -9.6875 C 4.878906 -9.6875 4.570312 -9.609375 4.375 -9.453125 C 4.175781 -9.304688 4.078125 -9.125 4.078125 -8.90625 C 4.078125 -8.664062 4.203125 -8.453125 4.453125 -8.265625 C 4.703125 -8.078125 5.367188 -7.734375 6.453125 -7.234375 C 7.503906 -6.765625 8.234375 -6.257812 8.640625 -5.71875 C 9.046875 -5.1875 9.25 -4.507812 9.25 -3.6875 Z M 9.25 -3.6875 "/></g></g></g><g fill="#000000" fill-opacity="1"><g transform="translate(353.351384, 175.268086)"><g><path d="M 5.65625 0.171875 C 4.09375 0.171875 2.878906 -0.242188 2.015625 -1.078125 C 1.148438 -1.910156 0.71875 -3.097656 0.71875 -4.640625 C 0.71875 -6.222656 1.117188 -7.441406 1.921875 -8.296875 C 2.722656 -9.148438 3.867188 -9.578125 5.359375 -9.578125 C 6.773438 -9.578125 7.867188 -9.207031 8.640625 -8.46875 C 9.410156 -7.726562 9.796875 -6.660156 9.796875 -5.265625 L 9.796875 -3.828125 L 4 -3.828125 C 4.019531 -3.296875 4.207031 -2.878906 4.5625 -2.578125 C 4.925781 -2.285156 5.421875 -2.140625 6.046875 -2.140625 C 6.617188 -2.140625 7.144531 -2.191406 7.625 -2.296875 C 8.101562 -2.410156 8.625 -2.597656 9.1875 -2.859375 L 9.1875 -0.515625 C 8.675781 -0.265625 8.148438 -0.0859375 7.609375 0.015625 C 7.066406 0.117188 6.414062 0.171875 5.65625 0.171875 Z M 5.46875 -7.359375 C 5.082031 -7.359375 4.757812 -7.238281 4.5 -7 C 4.25 -6.757812 4.101562 -6.382812 4.0625 -5.875 L 6.84375 -5.875 C 6.832031 -6.320312 6.703125 -6.679688 6.453125 -6.953125 C 6.210938 -7.222656 5.882812 -7.359375 5.46875 -7.359375 Z M 5.46875 -7.359375 "/></g></g></g><g fill="#000000" fill-opacity="1"><g transform="translate(363.855343, 175.268086)"><g><path d="M 6.796875 -9.578125 C 7.078125 -9.578125 7.347656 -9.550781 7.609375 -9.5 L 7.78125 -9.46875 L 7.5 -6.40625 C 7.226562 -6.476562 6.859375 -6.515625 6.390625 -6.515625 C 5.679688 -6.515625 5.164062 -6.347656 4.84375 -6.015625 C 4.519531 -5.691406 4.359375 -5.226562 4.359375 -4.625 L 4.359375 0 L 1.125 0 L 1.125 -9.40625 L 3.53125 -9.40625 L 4.046875 -7.90625 L 4.203125 -7.90625 C 4.472656 -8.40625 4.847656 -8.804688 5.328125 -9.109375 C 5.816406 -9.421875 6.304688 -9.578125 6.796875 -9.578125 Z M 6.796875 -9.578125 "/></g></g></g><g fill="#000000" fill-opacity="1"><g transform="translate(371.828727, 175.268086)"><g><path d="M 3.59375 0 L 0 -9.40625 L 3.390625 -9.40625 L 4.984375 -3.84375 C 4.984375 -3.8125 4.988281 -3.765625 5 -3.703125 C 5.019531 -3.640625 5.039062 -3.5625 5.0625 -3.46875 C 5.082031 -3.375 5.097656 -3.273438 5.109375 -3.171875 C 5.117188 -3.066406 5.125 -2.972656 5.125 -2.890625 L 5.1875 -2.890625 C 5.1875 -3.179688 5.238281 -3.492188 5.34375 -3.828125 L 7 -9.40625 L 10.390625 -9.40625 L 6.796875 0 Z M 3.59375 0 "/></g></g></g><g fill="#000000" fill-opacity="1"><g transform="translate(382.208231, 175.268086)"><g><path d="M 4.390625 0 L 1.140625 0 L 1.140625 -9.40625 L 4.390625 -9.40625 Z M 1.046875 -11.75 C 1.046875 -12.226562 1.179688 -12.585938 1.453125 -12.828125 C 1.734375 -13.066406 2.171875 -13.1875 2.765625 -13.1875 C 3.367188 -13.1875 3.804688 -13.0625 4.078125 -12.8125 C 4.359375 -12.570312 4.5 -12.21875 4.5 -11.75 C 4.5 -10.789062 3.921875 -10.3125 2.765625 -10.3125 C 1.617188 -10.3125 1.046875 -10.789062 1.046875 -11.75 Z M 1.046875 -11.75 "/></g></g></g><g fill="#000000" fill-opacity="1"><g transform="translate(387.73401, 175.268086)"><g><path d="M 5.40625 0.171875 C 3.863281 0.171875 2.695312 -0.242188 1.90625 -1.078125 C 1.113281 -1.910156 0.71875 -3.101562 0.71875 -4.65625 C 0.71875 -6.21875 1.144531 -7.425781 2 -8.28125 C 2.851562 -9.144531 4.070312 -9.578125 5.65625 -9.578125 C 6.75 -9.578125 7.773438 -9.335938 8.734375 -8.859375 L 7.78125 -6.453125 C 7.394531 -6.628906 7.035156 -6.765625 6.703125 -6.859375 C 6.367188 -6.960938 6.019531 -7.015625 5.65625 -7.015625 C 5.132812 -7.015625 4.726562 -6.8125 4.4375 -6.40625 C 4.15625 -6 4.015625 -5.421875 4.015625 -4.671875 C 4.015625 -3.171875 4.566406 -2.421875 5.671875 -2.421875 C 6.628906 -2.421875 7.546875 -2.695312 8.421875 -3.25 L 8.421875 -0.671875 C 7.578125 -0.109375 6.570312 0.171875 5.40625 0.171875 Z M 5.40625 0.171875 "/></g></g></g><g fill="#000000" fill-opacity="1"><g transform="translate(396.893861, 175.268086)"><g><path d="M 5.65625 0.171875 C 4.09375 0.171875 2.878906 -0.242188 2.015625 -1.078125 C 1.148438 -1.910156 0.71875 -3.097656 0.71875 -4.640625 C 0.71875 -6.222656 1.117188 -7.441406 1.921875 -8.296875 C 2.722656 -9.148438 3.867188 -9.578125 5.359375 -9.578125 C 6.773438 -9.578125 7.867188 -9.207031 8.640625 -8.46875 C 9.410156 -7.726562 9.796875 -6.660156 9.796875 -5.265625 L 9.796875 -3.828125 L 4 -3.828125 C 4.019531 -3.296875 4.207031 -2.878906 4.5625 -2.578125 C 4.925781 -2.285156 5.421875 -2.140625 6.046875 -2.140625 C 6.617188 -2.140625 7.144531 -2.191406 7.625 -2.296875 C 8.101562 -2.410156 8.625 -2.597656 9.1875 -2.859375 L 9.1875 -0.515625 C 8.675781 -0.265625 8.148438 -0.0859375 7.609375 0.015625 C 7.066406 0.117188 6.414062 0.171875 5.65625 0.171875 Z M 5.46875 -7.359375 C 5.082031 -7.359375 4.757812 -7.238281 4.5 -7 C 4.25 -6.757812 4.101562 -6.382812 4.0625 -5.875 L 6.84375 -5.875 C 6.832031 -6.320312 6.703125 -6.679688 6.453125 -6.953125 C 6.210938 -7.222656 5.882812 -7.359375 5.46875 -7.359375 Z M 5.46875 -7.359375 "/></g></g></g><g fill="#000000" fill-opacity="1"><g transform="translate(407.39782, 175.268086)"><g><path d="M 8.390625 -2.890625 C 8.390625 -1.878906 8.046875 -1.113281 7.359375 -0.59375 C 6.671875 -0.0820312 5.6875 0.171875 4.40625 0.171875 C 3.707031 0.171875 3.097656 0.128906 2.578125 0.046875 C 2.066406 -0.0234375 1.539062 -0.160156 1 -0.359375 L 1 -2.953125 C 1.507812 -2.734375 2.0625 -2.550781 2.65625 -2.40625 C 3.257812 -2.257812 3.796875 -2.1875 4.265625 -2.1875 C 4.972656 -2.1875 5.328125 -2.347656 5.328125 -2.671875 C 5.328125 -2.835938 5.226562 -2.984375 5.03125 -3.109375 C 4.832031 -3.242188 4.257812 -3.5 3.3125 -3.875 C 2.445312 -4.226562 1.84375 -4.628906 1.5 -5.078125 C 1.15625 -5.535156 0.984375 -6.109375 0.984375 -6.796875 C 0.984375 -7.671875 1.320312 -8.351562 2 -8.84375 C 2.675781 -9.332031 3.628906 -9.578125 4.859375 -9.578125 C 5.484375 -9.578125 6.066406 -9.507812 6.609375 -9.375 C 7.148438 -9.238281 7.71875 -9.039062 8.3125 -8.78125 L 7.421875 -6.6875 C 6.992188 -6.875 6.539062 -7.035156 6.0625 -7.171875 C 5.582031 -7.304688 5.1875 -7.375 4.875 -7.375 C 4.34375 -7.375 4.078125 -7.242188 4.078125 -6.984375 C 4.078125 -6.828125 4.171875 -6.691406 4.359375 -6.578125 C 4.546875 -6.460938 5.082031 -6.234375 5.96875 -5.890625 C 6.625 -5.617188 7.113281 -5.351562 7.4375 -5.09375 C 7.757812 -4.832031 8 -4.523438 8.15625 -4.171875 C 8.3125 -3.816406 8.390625 -3.390625 8.390625 -2.890625 Z M 8.390625 -2.890625 "/></g></g></g><g fill="#000000" fill-opacity="1"><g transform="translate(472.549865, 175.268086)"><g><path d="M 10.125 -8.28125 C 10.125 -6.925781 9.722656 -5.878906 8.921875 -5.140625 C 8.117188 -4.398438 6.984375 -4.03125 5.515625 -4.03125 L 4.59375 -4.03125 L 4.59375 0 L 1.3125 0 L 1.3125 -12.140625 L 5.515625 -12.140625 C 7.046875 -12.140625 8.195312 -11.800781 8.96875 -11.125 C 9.738281 -10.457031 10.125 -9.507812 10.125 -8.28125 Z M 4.59375 -6.703125 L 5.1875 -6.703125 C 5.675781 -6.703125 6.066406 -6.835938 6.359375 -7.109375 C 6.648438 -7.390625 6.796875 -7.773438 6.796875 -8.265625 C 6.796875 -9.078125 6.34375 -9.484375 5.4375 -9.484375 L 4.59375 -9.484375 Z M 4.59375 -6.703125 "/></g></g></g><g fill="#000000" fill-opacity="1"><g transform="translate(483.286139, 175.268086)"><g><path d="M 6.796875 -9.578125 C 7.078125 -9.578125 7.347656 -9.550781 7.609375 -9.5 L 7.78125 -9.46875 L 7.5 -6.40625 C 7.226562 -6.476562 6.859375 -6.515625 6.390625 -6.515625 C 5.679688 -6.515625 5.164062 -6.347656 4.84375 -6.015625 C 4.519531 -5.691406 4.359375 -5.226562 4.359375 -4.625 L 4.359375 0 L 1.125 0 L 1.125 -9.40625 L 3.53125 -9.40625 L 4.046875 -7.90625 L 4.203125 -7.90625 C 4.472656 -8.40625 4.847656 -8.804688 5.328125 -9.109375 C 5.816406 -9.421875 6.304688 -9.578125 6.796875 -9.578125 Z M 6.796875 -9.578125 "/></g></g></g><g fill="#000000" fill-opacity="1"><g transform="translate(491.259523, 175.268086)"><g><path d="M 10.109375 -4.71875 C 10.109375 -3.1875 9.691406 -1.988281 8.859375 -1.125 C 8.035156 -0.257812 6.878906 0.171875 5.390625 0.171875 C 3.960938 0.171875 2.828125 -0.265625 1.984375 -1.140625 C 1.140625 -2.023438 0.71875 -3.21875 0.71875 -4.71875 C 0.71875 -6.25 1.128906 -7.441406 1.953125 -8.296875 C 2.785156 -9.148438 3.945312 -9.578125 5.4375 -9.578125 C 6.363281 -9.578125 7.179688 -9.378906 7.890625 -8.984375 C 8.597656 -8.585938 9.144531 -8.019531 9.53125 -7.28125 C 9.914062 -6.550781 10.109375 -5.695312 10.109375 -4.71875 Z M 4.015625 -4.71875 C 4.015625 -3.914062 4.117188 -3.300781 4.328125 -2.875 C 4.546875 -2.445312 4.910156 -2.234375 5.421875 -2.234375 C 5.921875 -2.234375 6.273438 -2.445312 6.484375 -2.875 C 6.691406 -3.300781 6.796875 -3.914062 6.796875 -4.71875 C 6.796875 -5.519531 6.691406 -6.125 6.484375 -6.53125 C 6.273438 -6.945312 5.914062 -7.15625 5.40625 -7.15625 C 4.90625 -7.15625 4.546875 -6.953125 4.328125 -6.546875 C 4.117188 -6.140625 4.015625 -5.53125 4.015625 -4.71875 Z M 4.015625 -4.71875 "/></g></g></g><g fill="#000000" fill-opacity="1"><g transform="translate(502.087063, 175.268086)"><g><path d="M 4.046875 0.171875 C 3.367188 0.171875 2.78125 -0.0195312 2.28125 -0.40625 C 1.78125 -0.789062 1.394531 -1.351562 1.125 -2.09375 C 0.851562 -2.832031 0.71875 -3.695312 0.71875 -4.6875 C 0.71875 -6.21875 1.023438 -7.414062 1.640625 -8.28125 C 2.253906 -9.144531 3.097656 -9.578125 4.171875 -9.578125 C 4.691406 -9.578125 5.148438 -9.46875 5.546875 -9.25 C 5.941406 -9.039062 6.300781 -8.6875 6.625 -8.1875 L 6.703125 -8.1875 C 6.597656 -8.925781 6.546875 -9.664062 6.546875 -10.40625 L 6.546875 -12.921875 L 9.8125 -12.921875 L 9.8125 0 L 7.359375 0 L 6.671875 -1.1875 L 6.546875 -1.1875 C 5.984375 -0.28125 5.148438 0.171875 4.046875 0.171875 Z M 5.375 -2.40625 C 5.894531 -2.40625 6.257812 -2.566406 6.46875 -2.890625 C 6.6875 -3.210938 6.800781 -3.71875 6.8125 -4.40625 L 6.8125 -4.65625 C 6.8125 -5.488281 6.691406 -6.078125 6.453125 -6.421875 C 6.210938 -6.773438 5.84375 -6.953125 5.34375 -6.953125 C 4.914062 -6.953125 4.582031 -6.75 4.34375 -6.34375 C 4.113281 -5.945312 4 -5.378906 4 -4.640625 C 4 -3.910156 4.113281 -3.351562 4.34375 -2.96875 C 4.582031 -2.59375 4.925781 -2.40625 5.375 -2.40625 Z M 5.375 -2.40625 "/></g></g></g><g fill="#000000" fill-opacity="1"><g transform="translate(513.014168, 175.268086)"><g><path d="M 7.8125 0 L 7.40625 -1.171875 L 7.21875 -1.171875 C 6.945312 -0.734375 6.566406 -0.398438 6.078125 -0.171875 C 5.597656 0.0546875 5.035156 0.171875 4.390625 0.171875 C 3.347656 0.171875 2.539062 -0.128906 1.96875 -0.734375 C 1.394531 -1.335938 1.109375 -2.1875 1.109375 -3.28125 L 1.109375 -9.40625 L 4.34375 -9.40625 L 4.34375 -4.265625 C 4.34375 -3.648438 4.429688 -3.1875 4.609375 -2.875 C 4.785156 -2.5625 5.070312 -2.40625 5.46875 -2.40625 C 6.03125 -2.40625 6.425781 -2.625 6.65625 -3.0625 C 6.894531 -3.5 7.015625 -4.238281 7.015625 -5.28125 L 7.015625 -9.40625 L 10.265625 -9.40625 L 10.265625 0 Z M 7.8125 0 "/></g></g></g><g fill="#000000" fill-opacity="1"><g transform="translate(524.397605, 175.268086)"><g><path d="M 4.390625 0 L 1.140625 0 L 1.140625 -9.40625 L 4.390625 -9.40625 Z M 1.046875 -11.75 C 1.046875 -12.226562 1.179688 -12.585938 1.453125 -12.828125 C 1.734375 -13.066406 2.171875 -13.1875 2.765625 -13.1875 C 3.367188 -13.1875 3.804688 -13.0625 4.078125 -12.8125 C 4.359375 -12.570312 4.5 -12.21875 4.5 -11.75 C 4.5 -10.789062 3.921875 -10.3125 2.765625 -10.3125 C 1.617188 -10.3125 1.046875 -10.789062 1.046875 -11.75 Z M 1.046875 -11.75 "/></g></g></g><g fill="#000000" fill-opacity="1"><g transform="translate(529.923384, 175.268086)"><g><path d="M 5.734375 -2.40625 C 6.171875 -2.40625 6.691406 -2.507812 7.296875 -2.71875 L 7.296875 -0.359375 C 6.859375 -0.171875 6.441406 -0.0351562 6.046875 0.046875 C 5.648438 0.128906 5.1875 0.171875 4.65625 0.171875 C 3.5625 0.171875 2.773438 -0.09375 2.296875 -0.625 C 1.816406 -1.164062 1.578125 -1.988281 1.578125 -3.09375 L 1.578125 -6.96875 L 0.4375 -6.96875 L 0.4375 -8.296875 L 1.890625 -9.3125 L 2.71875 -11.296875 L 4.84375 -11.296875 L 4.84375 -9.40625 L 7.15625 -9.40625 L 7.15625 -6.96875 L 4.84375 -6.96875 L 4.84375 -3.3125 C 4.84375 -2.707031 5.140625 -2.40625 5.734375 -2.40625 Z M 5.734375 -2.40625 "/></g></g></g><g fill="#000000" fill-opacity="1"><g transform="translate(537.739126, 175.268086)"><g><path d="M 8.390625 -2.890625 C 8.390625 -1.878906 8.046875 -1.113281 7.359375 -0.59375 C 6.671875 -0.0820312 5.6875 0.171875 4.40625 0.171875 C 3.707031 0.171875 3.097656 0.128906 2.578125 0.046875 C 2.066406 -0.0234375 1.539062 -0.160156 1 -0.359375 L 1 -2.953125 C 1.507812 -2.734375 2.0625 -2.550781 2.65625 -2.40625 C 3.257812 -2.257812 3.796875 -2.1875 4.265625 -2.1875 C 4.972656 -2.1875 5.328125 -2.347656 5.328125 -2.671875 C 5.328125 -2.835938 5.226562 -2.984375 5.03125 -3.109375 C 4.832031 -3.242188 4.257812 -3.5 3.3125 -3.875 C 2.445312 -4.226562 1.84375 -4.628906 1.5 -5.078125 C 1.15625 -5.535156 0.984375 -6.109375 0.984375 -6.796875 C 0.984375 -7.671875 1.320312 -8.351562 2 -8.84375 C 2.675781 -9.332031 3.628906 -9.578125 4.859375 -9.578125 C 5.484375 -9.578125 6.066406 -9.507812 6.609375 -9.375 C 7.148438 -9.238281 7.71875 -9.039062 8.3125 -8.78125 L 7.421875 -6.6875 C 6.992188 -6.875 6.539062 -7.035156 6.0625 -7.171875 C 5.582031 -7.304688 5.1875 -7.375 4.875 -7.375 C 4.34375 -7.375 4.078125 -7.242188 4.078125 -6.984375 C 4.078125 -6.828125 4.171875 -6.691406 4.359375 -6.578125 C 4.546875 -6.460938 5.082031 -6.234375 5.96875 -5.890625 C 6.625 -5.617188 7.113281 -5.351562 7.4375 -5.09375 C 7.757812 -4.832031 8 -4.523438 8.15625 -4.171875 C 8.3125 -3.816406 8.390625 -3.390625 8.390625 -2.890625 Z M 8.390625 -2.890625 "/></g></g></g></svg>