<svg xmlns="http://www.w3.org/2000/svg" xmlns:xlink="http://www.w3.org/1999/xlink" width="800" zoomAndPan="magnify" viewBox="0 0 600 449.999984" height="600" preserveAspectRatio="xMidYMid meet" version="1.0"><defs><g/><clipPath id="9ffe80767e"><path d="M 17.011719 40.371094 L 581.757812 40.371094 L 581.757812 384.621094 L 17.011719 384.621094 Z M 17.011719 40.371094 " clip-rule="nonzero"/></clipPath><clipPath id="6c58757f34"><path d="M 299.382812 40.371094 C 143.433594 40.371094 17.011719 117.433594 17.011719 212.496094 C 17.011719 307.554688 143.433594 384.621094 299.382812 384.621094 C 455.328125 384.621094 581.75 307.554688 581.75 212.496094 C 581.75 117.433594 455.328125 40.371094 299.382812 40.371094 " clip-rule="nonzero"/></clipPath><clipPath id="61eac0cd7f"><path d="M 54.773438 114.792969 L 374.273438 114.792969 L 374.273438 270.042969 L 54.773438 270.042969 Z M 54.773438 114.792969 " clip-rule="nonzero"/></clipPath><clipPath id="bc1c49050a"><path d="M 214.523438 114.792969 C 126.296875 114.792969 54.773438 149.546875 54.773438 192.417969 C 54.773438 235.289062 126.296875 270.042969 214.523438 270.042969 C 302.75 270.042969 374.273438 235.289062 374.273438 192.417969 C 374.273438 149.546875 302.75 114.792969 214.523438 114.792969 " clip-rule="nonzero"/></clipPath><clipPath id="a241c9d0a1"><path d="M 92.097656 137.890625 L 318.597656 137.890625 L 318.597656 212.890625 L 92.097656 212.890625 Z M 92.097656 137.890625 " clip-rule="nonzero"/></clipPath><clipPath id="8888a4413f"><path d="M 205.347656 137.890625 C 142.800781 137.890625 92.097656 154.679688 92.097656 175.390625 C 92.097656 196.101562 142.800781 212.890625 205.347656 212.890625 C 267.894531 212.890625 318.597656 196.101562 318.597656 175.390625 C 318.597656 154.679688 267.894531 137.890625 205.347656 137.890625 " clip-rule="nonzero"/></clipPath><clipPath id="cae484d853"><path d="M 290.402344 114.792969 L 514.648438 114.792969 L 514.648438 204.792969 L 290.402344 204.792969 Z M 290.402344 114.792969 " clip-rule="nonzero"/></clipPath><clipPath id="4fcce1a209"><path d="M 402.523438 114.792969 C 340.601562 114.792969 290.402344 134.9375 290.402344 159.792969 C 290.402344 184.644531 340.601562 204.792969 402.523438 204.792969 C 464.449219 204.792969 514.648438 184.644531 514.648438 159.792969 C 514.648438 134.9375 464.449219 114.792969 402.523438 114.792969 " clip-rule="nonzero"/></clipPath><clipPath id="8bd021a162"><path d="M 358.207031 119.230469 L 458.699219 119.230469 L 458.699219 156.730469 L 358.207031 156.730469 Z M 358.207031 119.230469 " clip-rule="nonzero"/></clipPath><clipPath id="611910cb11"><path d="M 408.449219 119.230469 C 380.703125 119.230469 358.207031 127.625 358.207031 137.980469 C 358.207031 148.335938 380.703125 156.730469 408.449219 156.730469 C 436.199219 156.730469 458.691406 148.335938 458.691406 137.980469 C 458.691406 127.625 436.199219 119.230469 408.449219 119.230469 " clip-rule="nonzero"/></clipPath></defs><rect x="-60" width="720" fill="#ffffff" y="-44.999998" height="539.99998" fill-opacity="1"/><rect x="-60" width="720" fill="#ffffff" y="-44.999998" height="539.99998" fill-opacity="1"/><rect x="-60" width="720" fill="#ffffff" y="-44.999998" height="539.99998" fill-opacity="1"/><g clip-path="url(#9ffe80767e)"><g clip-path="url(#6c58757f34)"><path stroke-linecap="butt" transform="matrix(0.750218, 0, 0, 0.749872, 17.01252, 40.3696)" fill="none" stroke-linejoin="miter" d="M 376.384342 0.00199193 C 168.51246 0.00199193 -0.00106795 102.769485 -0.00106795 229.541065 C -0.00106795 356.307435 168.51246 459.080137 376.384342 459.080137 C 584.251018 459.080137 752.764546 356.307435 752.764546 229.541065 C 752.764546 102.769485 584.251018 0.00199193 376.384342 0.00199193 " stroke="#000000" stroke-width="2" stroke-opacity="1" stroke-miterlimit="4"/></g></g><g clip-path="url(#61eac0cd7f)"><g clip-path="url(#bc1c49050a)"><path stroke-linecap="butt" transform="matrix(0.75011, 0, 0, 0.74966, 54.772595, 114.791657)" fill="none" stroke-linejoin="miter" d="M 212.969892 0.00174918 C 95.351724 0.00174918 0.00112263 46.361283 0.00112263 103.548637 C 0.00112263 160.73599 95.351724 207.095524 212.969892 207.095524 C 330.588061 207.095524 425.938662 160.73599 425.938662 103.548637 C 425.938662 46.361283 330.588061 0.00174918 212.969892 0.00174918 " stroke="#000000" stroke-width="2" stroke-opacity="1" stroke-miterlimit="4"/></g></g><g clip-path="url(#a241c9d0a1)"><g clip-path="url(#8888a4413f)"><path stroke-linecap="butt" transform="matrix(0.750349, 0, 0, 0.75365, 92.096466, 137.890638)" fill="none" stroke-linejoin="miter" d="M 150.931286 -0.0000173288 C 67.574279 -0.0000173288 0.00158614 22.276972 0.00158614 49.757799 C 0.00158614 77.238626 67.574279 99.515615 150.931286 99.515615 C 234.288294 99.515615 301.860987 77.238626 301.860987 49.757799 C 301.860987 22.276972 234.288294 -0.0000173288 150.931286 -0.0000173288 " stroke="#000000" stroke-width="2" stroke-opacity="1" stroke-miterlimit="4"/></g></g><g clip-path="url(#cae484d853)"><g clip-path="url(#4fcce1a209)"><path stroke-linecap="butt" transform="matrix(0.751138, 0, 0, 0.752548, 290.402391, 114.791657)" fill="none" stroke-linejoin="miter" d="M 149.268173 0.00174247 C 66.830795 0.00174247 -0.0000624353 26.77019 -0.0000624353 59.798623 C -0.0000624353 92.821866 66.830795 119.595504 149.268173 119.595504 C 231.710752 119.595504 298.541609 92.821866 298.541609 59.798623 C 298.541609 26.77019 231.710752 0.00174247 149.268173 0.00174247 " stroke="#000000" stroke-width="2" stroke-opacity="1" stroke-miterlimit="4"/></g></g><g fill="#000000" fill-opacity="1"><g transform="translate(177.496726, 336.562531)"><g><path d="M 8.9375 0 L 8.078125 -3.203125 L 3.5 -3.203125 L 2.640625 0 L -0.09375 0 L 4.203125 -13.8125 L 7.453125 -13.8125 L 11.734375 0 Z M 4.015625 -5.203125 L 7.546875 -5.203125 L 5.78125 -11.796875 Z M 4.015625 -5.203125 "/></g></g></g><g fill="#000000" fill-opacity="1"><g transform="translate(189.152132, 336.562531)"><g><path d="M 12.765625 -10.875 C 13.617188 -10.875 14.296875 -10.582031 14.796875 -10 C 15.304688 -9.425781 15.5625 -8.644531 15.5625 -7.65625 L 15.5625 0 L 13 0 L 13 -7.265625 C 13 -8.390625 12.613281 -8.953125 11.84375 -8.953125 C 11.425781 -8.953125 11.066406 -8.820312 10.765625 -8.5625 C 10.460938 -8.3125 10.15625 -7.910156 9.84375 -7.359375 L 9.84375 0 L 7.28125 0 L 7.28125 -7.265625 C 7.28125 -8.390625 6.894531 -8.953125 6.125 -8.953125 C 5.695312 -8.953125 5.332031 -8.820312 5.03125 -8.5625 C 4.726562 -8.3125 4.414062 -7.910156 4.09375 -7.359375 L 4.09375 0 L 1.546875 0 L 1.546875 -10.578125 L 3.765625 -10.578125 L 3.953125 -9.203125 C 4.753906 -10.316406 5.773438 -10.875 7.015625 -10.875 C 7.628906 -10.875 8.160156 -10.71875 8.609375 -10.40625 C 9.054688 -10.09375 9.378906 -9.65625 9.578125 -9.09375 C 10.003906 -9.664062 10.472656 -10.101562 10.984375 -10.40625 C 11.503906 -10.71875 12.097656 -10.875 12.765625 -10.875 Z M 12.765625 -10.875 "/></g></g></g><g fill="#000000" fill-opacity="1"><g transform="translate(206.145428, 336.562531)"><g><path d="M 10.21875 -5.546875 C 10.21875 -5.410156 10.195312 -5.0625 10.15625 -4.5 L 3.515625 -4.5 C 3.597656 -3.46875 3.863281 -2.734375 4.3125 -2.296875 C 4.769531 -1.859375 5.375 -1.640625 6.125 -1.640625 C 6.582031 -1.640625 7.019531 -1.710938 7.4375 -1.859375 C 7.851562 -2.015625 8.296875 -2.253906 8.765625 -2.578125 L 9.8125 -1.125 C 8.644531 -0.175781 7.34375 0.296875 5.90625 0.296875 C 4.289062 0.296875 3.046875 -0.191406 2.171875 -1.171875 C 1.296875 -2.160156 0.859375 -3.507812 0.859375 -5.21875 C 0.859375 -6.300781 1.046875 -7.269531 1.421875 -8.125 C 1.796875 -8.988281 2.332031 -9.660156 3.03125 -10.140625 C 3.738281 -10.628906 4.582031 -10.875 5.5625 -10.875 C 7.039062 -10.875 8.1875 -10.40625 9 -9.46875 C 9.8125 -8.53125 10.21875 -7.222656 10.21875 -5.546875 Z M 7.6875 -6.28125 C 7.6875 -8.132812 7 -9.0625 5.625 -9.0625 C 5 -9.0625 4.507812 -8.832031 4.15625 -8.375 C 3.800781 -7.914062 3.585938 -7.175781 3.515625 -6.15625 L 7.6875 -6.15625 Z M 7.140625 -16.40625 L 8.1875 -14.40625 L 3.65625 -12.59375 L 2.9375 -13.90625 Z M 7.140625 -16.40625 "/></g></g></g><g fill="#000000" fill-opacity="1"><g transform="translate(217.121101, 336.562531)"><g><path d="M 4.046875 0.296875 C 3.222656 0.296875 2.582031 0.0625 2.125 -0.40625 C 1.664062 -0.882812 1.4375 -1.554688 1.4375 -2.421875 L 1.4375 -14.8125 L 4 -15.09375 L 4 -2.5 C 4 -2.007812 4.195312 -1.765625 4.59375 -1.765625 C 4.800781 -1.765625 5.003906 -1.796875 5.203125 -1.859375 L 5.734375 -0.0625 C 5.203125 0.175781 4.640625 0.296875 4.046875 0.296875 Z M 4.046875 0.296875 "/></g></g></g><g fill="#000000" fill-opacity="1"><g transform="translate(223.018779, 336.562531)"><g><path d="M 4.09375 -10.578125 L 4.09375 0 L 1.546875 0 L 1.546875 -10.578125 Z M 2.796875 -15.9375 C 3.273438 -15.9375 3.664062 -15.785156 3.96875 -15.484375 C 4.269531 -15.191406 4.421875 -14.820312 4.421875 -14.375 C 4.421875 -13.9375 4.269531 -13.570312 3.96875 -13.28125 C 3.664062 -12.988281 3.273438 -12.84375 2.796875 -12.84375 C 2.328125 -12.84375 1.941406 -12.988281 1.640625 -13.28125 C 1.347656 -13.570312 1.203125 -13.9375 1.203125 -14.375 C 1.203125 -14.820312 1.347656 -15.191406 1.640625 -15.484375 C 1.941406 -15.785156 2.328125 -15.9375 2.796875 -15.9375 Z M 2.796875 -15.9375 "/></g></g></g><g fill="#000000" fill-opacity="1"><g transform="translate(228.65655, 336.562531)"><g><path d="M 5.859375 -10.875 C 7.421875 -10.875 8.632812 -10.378906 9.5 -9.390625 C 10.375 -8.398438 10.8125 -7.035156 10.8125 -5.296875 C 10.8125 -4.191406 10.613281 -3.210938 10.21875 -2.359375 C 9.820312 -1.515625 9.25 -0.859375 8.5 -0.390625 C 7.75 0.0664062 6.863281 0.296875 5.84375 0.296875 C 4.28125 0.296875 3.054688 -0.195312 2.171875 -1.1875 C 1.296875 -2.1875 0.859375 -3.554688 0.859375 -5.296875 C 0.859375 -6.398438 1.054688 -7.375 1.453125 -8.21875 C 1.859375 -9.0625 2.4375 -9.710938 3.1875 -10.171875 C 3.9375 -10.640625 4.828125 -10.875 5.859375 -10.875 Z M 5.859375 -8.9375 C 4.328125 -8.9375 3.5625 -7.722656 3.5625 -5.296875 C 3.5625 -4.046875 3.75 -3.125 4.125 -2.53125 C 4.507812 -1.9375 5.082031 -1.640625 5.84375 -1.640625 C 6.601562 -1.640625 7.171875 -1.9375 7.546875 -2.53125 C 7.929688 -3.132812 8.125 -4.054688 8.125 -5.296875 C 8.125 -6.535156 7.929688 -7.453125 7.546875 -8.046875 C 7.171875 -8.640625 6.609375 -8.9375 5.859375 -8.9375 Z M 5.859375 -8.9375 "/></g></g></g><g fill="#000000" fill-opacity="1"><g transform="translate(240.331949, 336.562531)"><g><path d="M 6.765625 -10.859375 C 7.148438 -10.859375 7.5 -10.8125 7.8125 -10.71875 L 7.375 -8.234375 C 7.0625 -8.316406 6.75 -8.359375 6.4375 -8.359375 C 5.8125 -8.359375 5.316406 -8.132812 4.953125 -7.6875 C 4.597656 -7.238281 4.3125 -6.554688 4.09375 -5.640625 L 4.09375 0 L 1.546875 0 L 1.546875 -10.578125 L 3.765625 -10.578125 L 4 -8.5 C 4.25 -9.257812 4.613281 -9.84375 5.09375 -10.25 C 5.570312 -10.65625 6.128906 -10.859375 6.765625 -10.859375 Z M 6.765625 -10.859375 "/></g></g></g><g fill="#000000" fill-opacity="1"><g transform="translate(248.208836, 336.562531)"><g><path d="M 10.21875 -5.546875 C 10.21875 -5.410156 10.195312 -5.0625 10.15625 -4.5 L 3.515625 -4.5 C 3.597656 -3.46875 3.863281 -2.734375 4.3125 -2.296875 C 4.769531 -1.859375 5.375 -1.640625 6.125 -1.640625 C 6.582031 -1.640625 7.019531 -1.710938 7.4375 -1.859375 C 7.851562 -2.015625 8.296875 -2.253906 8.765625 -2.578125 L 9.8125 -1.125 C 8.644531 -0.175781 7.34375 0.296875 5.90625 0.296875 C 4.289062 0.296875 3.046875 -0.191406 2.171875 -1.171875 C 1.296875 -2.160156 0.859375 -3.507812 0.859375 -5.21875 C 0.859375 -6.300781 1.046875 -7.269531 1.421875 -8.125 C 1.796875 -8.988281 2.332031 -9.660156 3.03125 -10.140625 C 3.738281 -10.628906 4.582031 -10.875 5.5625 -10.875 C 7.039062 -10.875 8.1875 -10.40625 9 -9.46875 C 9.8125 -8.53125 10.21875 -7.222656 10.21875 -5.546875 Z M 7.6875 -6.28125 C 7.6875 -8.132812 7 -9.0625 5.625 -9.0625 C 5 -9.0625 4.507812 -8.832031 4.15625 -8.375 C 3.800781 -7.914062 3.585938 -7.175781 3.515625 -6.15625 L 7.6875 -6.15625 Z M 7.6875 -6.28125 "/></g></g></g><g fill="#000000" fill-opacity="1"><g transform="translate(259.184509, 336.562531)"><g><path d="M 6.765625 -10.859375 C 7.148438 -10.859375 7.5 -10.8125 7.8125 -10.71875 L 7.375 -8.234375 C 7.0625 -8.316406 6.75 -8.359375 6.4375 -8.359375 C 5.8125 -8.359375 5.316406 -8.132812 4.953125 -7.6875 C 4.597656 -7.238281 4.3125 -6.554688 4.09375 -5.640625 L 4.09375 0 L 1.546875 0 L 1.546875 -10.578125 L 3.765625 -10.578125 L 4 -8.5 C 4.25 -9.257812 4.613281 -9.84375 5.09375 -10.25 C 5.570312 -10.65625 6.128906 -10.859375 6.765625 -10.859375 Z M 6.765625 -10.859375 "/></g></g></g><g fill="#000000" fill-opacity="1"><g transform="translate(267.061397, 336.562531)"><g/></g></g><g fill="#000000" fill-opacity="1"><g transform="translate(272.059421, 336.562531)"><g><path d="M 4.046875 0.296875 C 3.222656 0.296875 2.582031 0.0625 2.125 -0.40625 C 1.664062 -0.882812 1.4375 -1.554688 1.4375 -2.421875 L 1.4375 -14.8125 L 4 -15.09375 L 4 -2.5 C 4 -2.007812 4.195312 -1.765625 4.59375 -1.765625 C 4.800781 -1.765625 5.003906 -1.796875 5.203125 -1.859375 L 5.734375 -0.0625 C 5.203125 0.175781 4.640625 0.296875 4.046875 0.296875 Z M 4.046875 0.296875 "/></g></g></g><g fill="#000000" fill-opacity="1"><g transform="translate(277.957099, 336.562531)"><g><path d="M 10.21875 -5.546875 C 10.21875 -5.410156 10.195312 -5.0625 10.15625 -4.5 L 3.515625 -4.5 C 3.597656 -3.46875 3.863281 -2.734375 4.3125 -2.296875 C 4.769531 -1.859375 5.375 -1.640625 6.125 -1.640625 C 6.582031 -1.640625 7.019531 -1.710938 7.4375 -1.859375 C 7.851562 -2.015625 8.296875 -2.253906 8.765625 -2.578125 L 9.8125 -1.125 C 8.644531 -0.175781 7.34375 0.296875 5.90625 0.296875 C 4.289062 0.296875 3.046875 -0.191406 2.171875 -1.171875 C 1.296875 -2.160156 0.859375 -3.507812 0.859375 -5.21875 C 0.859375 -6.300781 1.046875 -7.269531 1.421875 -8.125 C 1.796875 -8.988281 2.332031 -9.660156 3.03125 -10.140625 C 3.738281 -10.628906 4.582031 -10.875 5.5625 -10.875 C 7.039062 -10.875 8.1875 -10.40625 9 -9.46875 C 9.8125 -8.53125 10.21875 -7.222656 10.21875 -5.546875 Z M 7.6875 -6.28125 C 7.6875 -8.132812 7 -9.0625 5.625 -9.0625 C 5 -9.0625 4.507812 -8.832031 4.15625 -8.375 C 3.800781 -7.914062 3.585938 -7.175781 3.515625 -6.15625 L 7.6875 -6.15625 Z M 7.6875 -6.28125 "/></g></g></g><g fill="#000000" fill-opacity="1"><g transform="translate(288.932771, 336.562531)"><g><path d="M 4.875 -10.875 C 6.300781 -10.875 7.554688 -10.457031 8.640625 -9.625 L 7.640625 -8.125 C 6.734375 -8.695312 5.847656 -8.984375 4.984375 -8.984375 C 4.472656 -8.984375 4.078125 -8.882812 3.796875 -8.6875 C 3.515625 -8.5 3.375 -8.242188 3.375 -7.921875 C 3.375 -7.679688 3.429688 -7.476562 3.546875 -7.3125 C 3.671875 -7.15625 3.890625 -7.003906 4.203125 -6.859375 C 4.523438 -6.722656 4.988281 -6.570312 5.59375 -6.40625 C 6.738281 -6.09375 7.585938 -5.679688 8.140625 -5.171875 C 8.703125 -4.671875 8.984375 -3.96875 8.984375 -3.0625 C 8.984375 -2.007812 8.554688 -1.1875 7.703125 -0.59375 C 6.847656 0 5.785156 0.296875 4.515625 0.296875 C 3.648438 0.296875 2.859375 0.164062 2.140625 -0.09375 C 1.429688 -0.363281 0.816406 -0.734375 0.296875 -1.203125 L 1.578125 -2.640625 C 2.492188 -1.941406 3.453125 -1.59375 4.453125 -1.59375 C 5.023438 -1.59375 5.484375 -1.707031 5.828125 -1.9375 C 6.171875 -2.164062 6.34375 -2.476562 6.34375 -2.875 C 6.34375 -3.1875 6.273438 -3.429688 6.140625 -3.609375 C 6.015625 -3.785156 5.789062 -3.941406 5.46875 -4.078125 C 5.144531 -4.222656 4.632812 -4.394531 3.9375 -4.59375 C 2.851562 -4.894531 2.054688 -5.304688 1.546875 -5.828125 C 1.046875 -6.359375 0.796875 -7.015625 0.796875 -7.796875 C 0.796875 -8.390625 0.960938 -8.914062 1.296875 -9.375 C 1.640625 -9.84375 2.125 -10.207031 2.75 -10.46875 C 3.375 -10.738281 4.082031 -10.875 4.875 -10.875 Z M 4.875 -10.875 "/></g></g></g><g fill="#000000" fill-opacity="1"><g transform="translate(298.449014, 336.562531)"><g/></g></g><g fill="#000000" fill-opacity="1"><g transform="translate(303.447037, 336.562531)"><g><path d="M 5.796875 -10.875 C 6.492188 -10.875 7.117188 -10.773438 7.671875 -10.578125 C 8.222656 -10.378906 8.742188 -10.066406 9.234375 -9.640625 L 8.09375 -8.09375 C 7.738281 -8.363281 7.394531 -8.554688 7.0625 -8.671875 C 6.726562 -8.796875 6.359375 -8.859375 5.953125 -8.859375 C 4.367188 -8.859375 3.578125 -7.648438 3.578125 -5.234375 C 3.578125 -4.015625 3.78125 -3.132812 4.1875 -2.59375 C 4.601562 -2.050781 5.191406 -1.78125 5.953125 -1.78125 C 6.328125 -1.78125 6.671875 -1.835938 6.984375 -1.953125 C 7.296875 -2.078125 7.664062 -2.273438 8.09375 -2.546875 L 9.234375 -0.921875 C 8.234375 -0.109375 7.09375 0.296875 5.8125 0.296875 C 4.800781 0.296875 3.921875 0.0703125 3.171875 -0.375 C 2.429688 -0.820312 1.859375 -1.457031 1.453125 -2.28125 C 1.054688 -3.101562 0.859375 -4.078125 0.859375 -5.203125 C 0.859375 -6.316406 1.054688 -7.300781 1.453125 -8.15625 C 1.859375 -9.019531 2.429688 -9.6875 3.171875 -10.15625 C 3.921875 -10.632812 4.796875 -10.875 5.796875 -10.875 Z M 5.796875 -10.875 "/></g></g></g><g fill="#000000" fill-opacity="1"><g transform="translate(313.003265, 336.562531)"><g><path d="M 5.859375 -10.875 C 7.421875 -10.875 8.632812 -10.378906 9.5 -9.390625 C 10.375 -8.398438 10.8125 -7.035156 10.8125 -5.296875 C 10.8125 -4.191406 10.613281 -3.210938 10.21875 -2.359375 C 9.820312 -1.515625 9.25 -0.859375 8.5 -0.390625 C 7.75 0.0664062 6.863281 0.296875 5.84375 0.296875 C 4.28125 0.296875 3.054688 -0.195312 2.171875 -1.1875 C 1.296875 -2.1875 0.859375 -3.554688 0.859375 -5.296875 C 0.859375 -6.398438 1.054688 -7.375 1.453125 -8.21875 C 1.859375 -9.0625 2.4375 -9.710938 3.1875 -10.171875 C 3.9375 -10.640625 4.828125 -10.875 5.859375 -10.875 Z M 5.859375 -8.9375 C 4.328125 -8.9375 3.5625 -7.722656 3.5625 -5.296875 C 3.5625 -4.046875 3.75 -3.125 4.125 -2.53125 C 4.507812 -1.9375 5.082031 -1.640625 5.84375 -1.640625 C 6.601562 -1.640625 7.171875 -1.9375 7.546875 -2.53125 C 7.929688 -3.132812 8.125 -4.054688 8.125 -5.296875 C 8.125 -6.535156 7.929688 -7.453125 7.546875 -8.046875 C 7.171875 -8.640625 6.609375 -8.9375 5.859375 -8.9375 Z M 5.859375 -8.9375 "/></g></g></g><g fill="#000000" fill-opacity="1"><g transform="translate(324.678664, 336.562531)"><g><path d="M 7.1875 -10.875 C 8.125 -10.875 8.859375 -10.59375 9.390625 -10.03125 C 9.921875 -9.46875 10.1875 -8.675781 10.1875 -7.65625 L 10.1875 0 L 7.625 0 L 7.625 -7.265625 C 7.625 -7.890625 7.507812 -8.328125 7.28125 -8.578125 C 7.0625 -8.828125 6.738281 -8.953125 6.3125 -8.953125 C 5.875 -8.953125 5.476562 -8.816406 5.125 -8.546875 C 4.769531 -8.273438 4.425781 -7.878906 4.09375 -7.359375 L 4.09375 0 L 1.546875 0 L 1.546875 -10.578125 L 3.765625 -10.578125 L 3.953125 -9.203125 C 4.828125 -10.316406 5.90625 -10.875 7.1875 -10.875 Z M 7.1875 -10.875 "/></g></g></g><g fill="#000000" fill-opacity="1"><g transform="translate(336.294084, 336.562531)"><g><path d="M 10.4375 -14.8125 L 10.4375 0 L 8.1875 0 L 8 -1.34375 C 7.664062 -0.832031 7.238281 -0.429688 6.71875 -0.140625 C 6.207031 0.148438 5.628906 0.296875 4.984375 0.296875 C 3.691406 0.296875 2.695312 -0.203125 2 -1.203125 C 1.300781 -2.203125 0.953125 -3.5625 0.953125 -5.28125 C 0.953125 -6.363281 1.125 -7.328125 1.46875 -8.171875 C 1.820312 -9.015625 2.320312 -9.675781 2.96875 -10.15625 C 3.613281 -10.632812 4.363281 -10.875 5.21875 -10.875 C 6.226562 -10.875 7.113281 -10.492188 7.875 -9.734375 L 7.875 -15.09375 Z M 5.703125 -1.640625 C 6.148438 -1.640625 6.546875 -1.75 6.890625 -1.96875 C 7.242188 -2.1875 7.570312 -2.53125 7.875 -3 L 7.875 -7.84375 C 7.570312 -8.21875 7.265625 -8.492188 6.953125 -8.671875 C 6.640625 -8.859375 6.273438 -8.953125 5.859375 -8.953125 C 5.179688 -8.953125 4.644531 -8.648438 4.25 -8.046875 C 3.851562 -7.441406 3.65625 -6.523438 3.65625 -5.296875 C 3.65625 -3.992188 3.828125 -3.054688 4.171875 -2.484375 C 4.523438 -1.921875 5.035156 -1.640625 5.703125 -1.640625 Z M 5.703125 -1.640625 "/></g></g></g><g fill="#000000" fill-opacity="1"><g transform="translate(348.269364, 336.562531)"><g><path d="M 4.09375 -10.578125 L 4.09375 0 L 1.546875 0 L 1.546875 -10.578125 Z M 2.796875 -15.9375 C 3.273438 -15.9375 3.664062 -15.785156 3.96875 -15.484375 C 4.269531 -15.191406 4.421875 -14.820312 4.421875 -14.375 C 4.421875 -13.9375 4.269531 -13.570312 3.96875 -13.28125 C 3.664062 -12.988281 3.273438 -12.84375 2.796875 -12.84375 C 2.328125 -12.84375 1.941406 -12.988281 1.640625 -13.28125 C 1.347656 -13.570312 1.203125 -13.9375 1.203125 -14.375 C 1.203125 -14.820312 1.347656 -15.191406 1.640625 -15.484375 C 1.941406 -15.785156 2.328125 -15.9375 2.796875 -15.9375 Z M 2.796875 -15.9375 "/></g></g></g><g fill="#000000" fill-opacity="1"><g transform="translate(353.907135, 336.562531)"><g><path d="M 7.59375 -0.5 C 7.226562 -0.226562 6.8125 -0.03125 6.34375 0.09375 C 5.882812 0.226562 5.414062 0.296875 4.9375 0.296875 C 3.894531 0.285156 3.101562 -0.00390625 2.5625 -0.578125 C 2.03125 -1.160156 1.765625 -2.019531 1.765625 -3.15625 L 1.765625 -8.734375 L 0.09375 -8.734375 L 0.09375 -10.578125 L 1.765625 -10.578125 L 1.765625 -12.921875 L 4.3125 -13.21875 L 4.3125 -10.578125 L 6.78125 -10.578125 L 6.515625 -8.734375 L 4.3125 -8.734375 L 4.3125 -3.21875 C 4.3125 -2.695312 4.398438 -2.320312 4.578125 -2.09375 C 4.765625 -1.875 5.050781 -1.765625 5.4375 -1.765625 C 5.820312 -1.765625 6.242188 -1.890625 6.703125 -2.140625 Z M 7.59375 -0.5 "/></g></g></g><g fill="#000000" fill-opacity="1"><g transform="translate(361.404182, 336.562531)"><g><path d="M 4.09375 -10.578125 L 4.09375 0 L 1.546875 0 L 1.546875 -10.578125 Z M 2.796875 -15.9375 C 3.273438 -15.9375 3.664062 -15.785156 3.96875 -15.484375 C 4.269531 -15.191406 4.421875 -14.820312 4.421875 -14.375 C 4.421875 -13.9375 4.269531 -13.570312 3.96875 -13.28125 C 3.664062 -12.988281 3.273438 -12.84375 2.796875 -12.84375 C 2.328125 -12.84375 1.941406 -12.988281 1.640625 -13.28125 C 1.347656 -13.570312 1.203125 -13.9375 1.203125 -14.375 C 1.203125 -14.820312 1.347656 -15.191406 1.640625 -15.484375 C 1.941406 -15.785156 2.328125 -15.9375 2.796875 -15.9375 Z M 2.796875 -15.9375 "/></g></g></g><g fill="#000000" fill-opacity="1"><g transform="translate(367.041953, 336.562531)"><g><path d="M 5.859375 -10.875 C 7.421875 -10.875 8.632812 -10.378906 9.5 -9.390625 C 10.375 -8.398438 10.8125 -7.035156 10.8125 -5.296875 C 10.8125 -4.191406 10.613281 -3.210938 10.21875 -2.359375 C 9.820312 -1.515625 9.25 -0.859375 8.5 -0.390625 C 7.75 0.0664062 6.863281 0.296875 5.84375 0.296875 C 4.28125 0.296875 3.054688 -0.195312 2.171875 -1.1875 C 1.296875 -2.1875 0.859375 -3.554688 0.859375 -5.296875 C 0.859375 -6.398438 1.054688 -7.375 1.453125 -8.21875 C 1.859375 -9.0625 2.4375 -9.710938 3.1875 -10.171875 C 3.9375 -10.640625 4.828125 -10.875 5.859375 -10.875 Z M 5.859375 -8.9375 C 4.328125 -8.9375 3.5625 -7.722656 3.5625 -5.296875 C 3.5625 -4.046875 3.75 -3.125 4.125 -2.53125 C 4.507812 -1.9375 5.082031 -1.640625 5.84375 -1.640625 C 6.601562 -1.640625 7.171875 -1.9375 7.546875 -2.53125 C 7.929688 -3.132812 8.125 -4.054688 8.125 -5.296875 C 8.125 -6.535156 7.929688 -7.453125 7.546875 -8.046875 C 7.171875 -8.640625 6.609375 -8.9375 5.859375 -8.9375 Z M 5.859375 -8.9375 "/></g></g></g><g fill="#000000" fill-opacity="1"><g transform="translate(378.717352, 336.562531)"><g><path d="M 7.1875 -10.875 C 8.125 -10.875 8.859375 -10.59375 9.390625 -10.03125 C 9.921875 -9.46875 10.1875 -8.675781 10.1875 -7.65625 L 10.1875 0 L 7.625 0 L 7.625 -7.265625 C 7.625 -7.890625 7.507812 -8.328125 7.28125 -8.578125 C 7.0625 -8.828125 6.738281 -8.953125 6.3125 -8.953125 C 5.875 -8.953125 5.476562 -8.816406 5.125 -8.546875 C 4.769531 -8.273438 4.425781 -7.878906 4.09375 -7.359375 L 4.09375 0 L 1.546875 0 L 1.546875 -10.578125 L 3.765625 -10.578125 L 3.953125 -9.203125 C 4.828125 -10.316406 5.90625 -10.875 7.1875 -10.875 Z M 7.1875 -10.875 "/></g></g></g><g fill="#000000" fill-opacity="1"><g transform="translate(390.332784, 336.562531)"><g><path d="M 4.875 -10.875 C 6.300781 -10.875 7.554688 -10.457031 8.640625 -9.625 L 7.640625 -8.125 C 6.734375 -8.695312 5.847656 -8.984375 4.984375 -8.984375 C 4.472656 -8.984375 4.078125 -8.882812 3.796875 -8.6875 C 3.515625 -8.5 3.375 -8.242188 3.375 -7.921875 C 3.375 -7.679688 3.429688 -7.476562 3.546875 -7.3125 C 3.671875 -7.15625 3.890625 -7.003906 4.203125 -6.859375 C 4.523438 -6.722656 4.988281 -6.570312 5.59375 -6.40625 C 6.738281 -6.09375 7.585938 -5.679688 8.140625 -5.171875 C 8.703125 -4.671875 8.984375 -3.96875 8.984375 -3.0625 C 8.984375 -2.007812 8.554688 -1.1875 7.703125 -0.59375 C 6.847656 0 5.785156 0.296875 4.515625 0.296875 C 3.648438 0.296875 2.859375 0.164062 2.140625 -0.09375 C 1.429688 -0.363281 0.816406 -0.734375 0.296875 -1.203125 L 1.578125 -2.640625 C 2.492188 -1.941406 3.453125 -1.59375 4.453125 -1.59375 C 5.023438 -1.59375 5.484375 -1.707031 5.828125 -1.9375 C 6.171875 -2.164062 6.34375 -2.476562 6.34375 -2.875 C 6.34375 -3.1875 6.273438 -3.429688 6.140625 -3.609375 C 6.015625 -3.785156 5.789062 -3.941406 5.46875 -4.078125 C 5.144531 -4.222656 4.632812 -4.394531 3.9375 -4.59375 C 2.851562 -4.894531 2.054688 -5.304688 1.546875 -5.828125 C 1.046875 -6.359375 0.796875 -7.015625 0.796875 -7.796875 C 0.796875 -8.390625 0.960938 -8.914062 1.296875 -9.375 C 1.640625 -9.84375 2.125 -10.207031 2.75 -10.46875 C 3.375 -10.738281 4.082031 -10.875 4.875 -10.875 Z M 4.875 -10.875 "/></g></g></g><g fill="#000000" fill-opacity="1"><g transform="translate(399.849026, 336.562531)"><g/></g></g><g fill="#000000" fill-opacity="1"><g transform="translate(404.84705, 336.562531)"><g><path d="M 10.4375 -14.8125 L 10.4375 0 L 8.1875 0 L 8 -1.34375 C 7.664062 -0.832031 7.238281 -0.429688 6.71875 -0.140625 C 6.207031 0.148438 5.628906 0.296875 4.984375 0.296875 C 3.691406 0.296875 2.695312 -0.203125 2 -1.203125 C 1.300781 -2.203125 0.953125 -3.5625 0.953125 -5.28125 C 0.953125 -6.363281 1.125 -7.328125 1.46875 -8.171875 C 1.820312 -9.015625 2.320312 -9.675781 2.96875 -10.15625 C 3.613281 -10.632812 4.363281 -10.875 5.21875 -10.875 C 6.226562 -10.875 7.113281 -10.492188 7.875 -9.734375 L 7.875 -15.09375 Z M 5.703125 -1.640625 C 6.148438 -1.640625 6.546875 -1.75 6.890625 -1.96875 C 7.242188 -2.1875 7.570312 -2.53125 7.875 -3 L 7.875 -7.84375 C 7.570312 -8.21875 7.265625 -8.492188 6.953125 -8.671875 C 6.640625 -8.859375 6.273438 -8.953125 5.859375 -8.953125 C 5.179688 -8.953125 4.644531 -8.648438 4.25 -8.046875 C 3.851562 -7.441406 3.65625 -6.523438 3.65625 -5.296875 C 3.65625 -3.992188 3.828125 -3.054688 4.171875 -2.484375 C 4.523438 -1.921875 5.035156 -1.640625 5.703125 -1.640625 Z M 5.703125 -1.640625 "/></g></g></g><g fill="#000000" fill-opacity="1"><g transform="translate(416.82233, 336.562531)"><g><path d="M 10.21875 -5.546875 C 10.21875 -5.410156 10.195312 -5.0625 10.15625 -4.5 L 3.515625 -4.5 C 3.597656 -3.46875 3.863281 -2.734375 4.3125 -2.296875 C 4.769531 -1.859375 5.375 -1.640625 6.125 -1.640625 C 6.582031 -1.640625 7.019531 -1.710938 7.4375 -1.859375 C 7.851562 -2.015625 8.296875 -2.253906 8.765625 -2.578125 L 9.8125 -1.125 C 8.644531 -0.175781 7.34375 0.296875 5.90625 0.296875 C 4.289062 0.296875 3.046875 -0.191406 2.171875 -1.171875 C 1.296875 -2.160156 0.859375 -3.507812 0.859375 -5.21875 C 0.859375 -6.300781 1.046875 -7.269531 1.421875 -8.125 C 1.796875 -8.988281 2.332031 -9.660156 3.03125 -10.140625 C 3.738281 -10.628906 4.582031 -10.875 5.5625 -10.875 C 7.039062 -10.875 8.1875 -10.40625 9 -9.46875 C 9.8125 -8.53125 10.21875 -7.222656 10.21875 -5.546875 Z M 7.6875 -6.28125 C 7.6875 -8.132812 7 -9.0625 5.625 -9.0625 C 5 -9.0625 4.507812 -8.832031 4.15625 -8.375 C 3.800781 -7.914062 3.585938 -7.175781 3.515625 -6.15625 L 7.6875 -6.15625 Z M 7.6875 -6.28125 "/></g></g></g><g fill="#000000" fill-opacity="1"><g transform="translate(427.797991, 336.562531)"><g/></g></g><g fill="#000000" fill-opacity="1"><g transform="translate(432.796015, 336.562531)"><g><path d="M 10.046875 -10.578125 L 6.59375 0 L 3.546875 0 L 0.046875 -10.578125 L 2.8125 -10.578125 L 5.078125 -2.0625 L 7.40625 -10.578125 Z M 10.046875 -10.578125 "/></g></g></g><g fill="#000000" fill-opacity="1"><g transform="translate(442.872056, 336.562531)"><g><path d="M 4.09375 -10.578125 L 4.09375 0 L 1.546875 0 L 1.546875 -10.578125 Z M 2.796875 -15.9375 C 3.273438 -15.9375 3.664062 -15.785156 3.96875 -15.484375 C 4.269531 -15.191406 4.421875 -14.820312 4.421875 -14.375 C 4.421875 -13.9375 4.269531 -13.570312 3.96875 -13.28125 C 3.664062 -12.988281 3.273438 -12.84375 2.796875 -12.84375 C 2.328125 -12.84375 1.941406 -12.988281 1.640625 -13.28125 C 1.347656 -13.570312 1.203125 -13.9375 1.203125 -14.375 C 1.203125 -14.820312 1.347656 -15.191406 1.640625 -15.484375 C 1.941406 -15.785156 2.328125 -15.9375 2.796875 -15.9375 Z M 2.796875 -15.9375 "/></g></g></g><g fill="#000000" fill-opacity="1"><g transform="translate(448.509827, 336.562531)"><g><path d="M 10.21875 -5.546875 C 10.21875 -5.410156 10.195312 -5.0625 10.15625 -4.5 L 3.515625 -4.5 C 3.597656 -3.46875 3.863281 -2.734375 4.3125 -2.296875 C 4.769531 -1.859375 5.375 -1.640625 6.125 -1.640625 C 6.582031 -1.640625 7.019531 -1.710938 7.4375 -1.859375 C 7.851562 -2.015625 8.296875 -2.253906 8.765625 -2.578125 L 9.8125 -1.125 C 8.644531 -0.175781 7.34375 0.296875 5.90625 0.296875 C 4.289062 0.296875 3.046875 -0.191406 2.171875 -1.171875 C 1.296875 -2.160156 0.859375 -3.507812 0.859375 -5.21875 C 0.859375 -6.300781 1.046875 -7.269531 1.421875 -8.125 C 1.796875 -8.988281 2.332031 -9.660156 3.03125 -10.140625 C 3.738281 -10.628906 4.582031 -10.875 5.5625 -10.875 C 7.039062 -10.875 8.1875 -10.40625 9 -9.46875 C 9.8125 -8.53125 10.21875 -7.222656 10.21875 -5.546875 Z M 7.6875 -6.28125 C 7.6875 -8.132812 7 -9.0625 5.625 -9.0625 C 5 -9.0625 4.507812 -8.832031 4.15625 -8.375 C 3.800781 -7.914062 3.585938 -7.175781 3.515625 -6.15625 L 7.6875 -6.15625 Z M 7.6875 -6.28125 "/></g></g></g><g fill="#000000" fill-opacity="1"><g transform="translate(103.43318, 180.084389)"><g><path d="M 3.40625 -11.0625 L 3.40625 -1.734375 L 7.84375 -1.734375 L 7.59375 0 L 1.296875 0 L 1.296875 -11.0625 Z M 3.40625 -11.0625 "/></g></g></g><g fill="#000000" fill-opacity="1"><g transform="translate(111.527231, 180.084389)"><g><path d="M 8.171875 -4.4375 C 8.171875 -4.320312 8.15625 -4.039062 8.125 -3.59375 L 2.8125 -3.59375 C 2.875 -2.78125 3.085938 -2.195312 3.453125 -1.84375 C 3.816406 -1.488281 4.296875 -1.3125 4.890625 -1.3125 C 5.265625 -1.3125 5.617188 -1.375 5.953125 -1.5 C 6.285156 -1.625 6.640625 -1.8125 7.015625 -2.0625 L 7.859375 -0.890625 C 6.921875 -0.140625 5.875 0.234375 4.71875 0.234375 C 3.425781 0.234375 2.429688 -0.15625 1.734375 -0.9375 C 1.035156 -1.726562 0.6875 -2.804688 0.6875 -4.171875 C 0.6875 -5.035156 0.832031 -5.8125 1.125 -6.5 C 1.425781 -7.1875 1.859375 -7.722656 2.421875 -8.109375 C 2.992188 -8.503906 3.671875 -8.703125 4.453125 -8.703125 C 5.628906 -8.703125 6.539062 -8.328125 7.1875 -7.578125 C 7.84375 -6.828125 8.171875 -5.78125 8.171875 -4.4375 Z M 6.140625 -5.03125 C 6.140625 -6.507812 5.59375 -7.25 4.5 -7.25 C 4 -7.25 3.601562 -7.0625 3.3125 -6.6875 C 3.03125 -6.320312 2.863281 -5.734375 2.8125 -4.921875 L 6.140625 -4.921875 Z M 6.140625 -5.03125 "/></g></g></g><g fill="#000000" fill-opacity="1"><g transform="translate(120.309117, 180.084389)"><g><path d="M 3.90625 -8.703125 C 5.039062 -8.703125 6.039062 -8.367188 6.90625 -7.703125 L 6.109375 -6.5 C 5.390625 -6.957031 4.679688 -7.1875 3.984375 -7.1875 C 3.578125 -7.1875 3.257812 -7.109375 3.03125 -6.953125 C 2.8125 -6.796875 2.703125 -6.59375 2.703125 -6.34375 C 2.703125 -6.144531 2.75 -5.976562 2.84375 -5.84375 C 2.9375 -5.71875 3.109375 -5.597656 3.359375 -5.484375 C 3.617188 -5.378906 3.992188 -5.257812 4.484375 -5.125 C 5.398438 -4.875 6.078125 -4.546875 6.515625 -4.140625 C 6.960938 -3.734375 7.1875 -3.171875 7.1875 -2.453125 C 7.1875 -1.609375 6.84375 -0.945312 6.15625 -0.46875 C 5.476562 0 4.628906 0.234375 3.609375 0.234375 C 2.921875 0.234375 2.289062 0.128906 1.71875 -0.078125 C 1.144531 -0.296875 0.648438 -0.585938 0.234375 -0.953125 L 1.265625 -2.109375 C 2.003906 -1.554688 2.769531 -1.28125 3.5625 -1.28125 C 4.019531 -1.28125 4.382812 -1.367188 4.65625 -1.546875 C 4.9375 -1.734375 5.078125 -1.984375 5.078125 -2.296875 C 5.078125 -2.546875 5.023438 -2.742188 4.921875 -2.890625 C 4.816406 -3.035156 4.632812 -3.160156 4.375 -3.265625 C 4.113281 -3.378906 3.707031 -3.519531 3.15625 -3.6875 C 2.289062 -3.914062 1.65625 -4.238281 1.25 -4.65625 C 0.84375 -5.082031 0.640625 -5.609375 0.640625 -6.234375 C 0.640625 -6.703125 0.773438 -7.125 1.046875 -7.5 C 1.316406 -7.875 1.695312 -8.164062 2.1875 -8.375 C 2.6875 -8.59375 3.257812 -8.703125 3.90625 -8.703125 Z M 3.90625 -8.703125 "/></g></g></g><g fill="#000000" fill-opacity="1"><g transform="translate(127.923283, 180.084389)"><g/></g></g><g fill="#000000" fill-opacity="1"><g transform="translate(131.922318, 180.084389)"><g><path d="M 4.640625 -8.703125 C 5.191406 -8.703125 5.6875 -8.617188 6.125 -8.453125 C 6.570312 -8.296875 6.992188 -8.050781 7.390625 -7.71875 L 6.484375 -6.484375 C 6.191406 -6.691406 5.910156 -6.84375 5.640625 -6.9375 C 5.378906 -7.039062 5.085938 -7.09375 4.765625 -7.09375 C 3.492188 -7.09375 2.859375 -6.125 2.859375 -4.1875 C 2.859375 -3.207031 3.023438 -2.5 3.359375 -2.0625 C 3.691406 -1.632812 4.160156 -1.421875 4.765625 -1.421875 C 5.066406 -1.421875 5.34375 -1.46875 5.59375 -1.5625 C 5.84375 -1.664062 6.140625 -1.820312 6.484375 -2.03125 L 7.390625 -0.734375 C 6.585938 -0.0859375 5.675781 0.234375 4.65625 0.234375 C 3.84375 0.234375 3.132812 0.0546875 2.53125 -0.296875 C 1.9375 -0.648438 1.476562 -1.15625 1.15625 -1.8125 C 0.84375 -2.476562 0.6875 -3.257812 0.6875 -4.15625 C 0.6875 -5.050781 0.84375 -5.84375 1.15625 -6.53125 C 1.476562 -7.21875 1.9375 -7.75 2.53125 -8.125 C 3.132812 -8.507812 3.835938 -8.703125 4.640625 -8.703125 Z M 4.640625 -8.703125 "/></g></g></g><g fill="#000000" fill-opacity="1"><g transform="translate(139.568481, 180.084389)"><g><path d="M 4.6875 -8.703125 C 5.9375 -8.703125 6.910156 -8.300781 7.609375 -7.5 C 8.304688 -6.707031 8.65625 -5.617188 8.65625 -4.234375 C 8.65625 -3.347656 8.492188 -2.566406 8.171875 -1.890625 C 7.859375 -1.210938 7.398438 -0.6875 6.796875 -0.3125 C 6.203125 0.0507812 5.492188 0.234375 4.671875 0.234375 C 3.421875 0.234375 2.441406 -0.160156 1.734375 -0.953125 C 1.035156 -1.742188 0.6875 -2.835938 0.6875 -4.234375 C 0.6875 -5.117188 0.84375 -5.894531 1.15625 -6.5625 C 1.476562 -7.238281 1.941406 -7.765625 2.546875 -8.140625 C 3.148438 -8.515625 3.863281 -8.703125 4.6875 -8.703125 Z M 4.6875 -7.15625 C 3.457031 -7.15625 2.84375 -6.179688 2.84375 -4.234375 C 2.84375 -3.234375 2.992188 -2.492188 3.296875 -2.015625 C 3.609375 -1.546875 4.066406 -1.3125 4.671875 -1.3125 C 5.273438 -1.3125 5.726562 -1.550781 6.03125 -2.03125 C 6.34375 -2.507812 6.5 -3.242188 6.5 -4.234375 C 6.5 -5.234375 6.34375 -5.96875 6.03125 -6.4375 C 5.726562 -6.914062 5.28125 -7.15625 4.6875 -7.15625 Z M 4.6875 -7.15625 "/></g></g></g><g fill="#000000" fill-opacity="1"><g transform="translate(148.910235, 180.084389)"><g><path d="M 5.75 -8.703125 C 6.5 -8.703125 7.082031 -8.472656 7.5 -8.015625 C 7.925781 -7.566406 8.140625 -6.9375 8.140625 -6.125 L 8.140625 0 L 6.09375 0 L 6.09375 -5.8125 C 6.09375 -6.3125 6.003906 -6.660156 5.828125 -6.859375 C 5.648438 -7.066406 5.394531 -7.171875 5.0625 -7.171875 C 4.707031 -7.171875 4.390625 -7.0625 4.109375 -6.84375 C 3.828125 -6.625 3.550781 -6.304688 3.28125 -5.890625 L 3.28125 0 L 1.234375 0 L 1.234375 -8.46875 L 3.015625 -8.46875 L 3.171875 -7.359375 C 3.859375 -8.253906 4.71875 -8.703125 5.75 -8.703125 Z M 5.75 -8.703125 "/></g></g></g><g fill="#000000" fill-opacity="1"><g transform="translate(158.204004, 180.084389)"><g><path d="M 8.359375 -11.859375 L 8.359375 0 L 6.546875 0 L 6.40625 -1.078125 C 6.132812 -0.671875 5.789062 -0.347656 5.375 -0.109375 C 4.96875 0.117188 4.503906 0.234375 3.984375 0.234375 C 2.953125 0.234375 2.15625 -0.160156 1.59375 -0.953125 C 1.039062 -1.753906 0.765625 -2.84375 0.765625 -4.21875 C 0.765625 -5.082031 0.898438 -5.851562 1.171875 -6.53125 C 1.453125 -7.207031 1.851562 -7.738281 2.375 -8.125 C 2.894531 -8.507812 3.492188 -8.703125 4.171875 -8.703125 C 4.984375 -8.703125 5.691406 -8.398438 6.296875 -7.796875 L 6.296875 -12.078125 Z M 4.5625 -1.3125 C 4.925781 -1.3125 5.242188 -1.398438 5.515625 -1.578125 C 5.796875 -1.753906 6.054688 -2.03125 6.296875 -2.40625 L 6.296875 -6.265625 C 6.054688 -6.566406 5.8125 -6.789062 5.5625 -6.9375 C 5.3125 -7.09375 5.019531 -7.171875 4.6875 -7.171875 C 4.144531 -7.171875 3.710938 -6.925781 3.390625 -6.4375 C 3.078125 -5.957031 2.921875 -5.222656 2.921875 -4.234375 C 2.921875 -3.191406 3.0625 -2.441406 3.34375 -1.984375 C 3.625 -1.535156 4.03125 -1.3125 4.5625 -1.3125 Z M 4.5625 -1.3125 "/></g></g></g><g fill="#000000" fill-opacity="1"><g transform="translate(167.785707, 180.084389)"><g><path d="M 3.28125 -8.46875 L 3.28125 0 L 1.234375 0 L 1.234375 -8.46875 Z M 2.234375 -12.75 C 2.617188 -12.75 2.929688 -12.628906 3.171875 -12.390625 C 3.410156 -12.148438 3.53125 -11.851562 3.53125 -11.5 C 3.53125 -11.144531 3.410156 -10.847656 3.171875 -10.609375 C 2.929688 -10.378906 2.617188 -10.265625 2.234375 -10.265625 C 1.859375 -10.265625 1.550781 -10.378906 1.3125 -10.609375 C 1.070312 -10.847656 0.953125 -11.144531 0.953125 -11.5 C 0.953125 -11.851562 1.070312 -12.148438 1.3125 -12.390625 C 1.550781 -12.628906 1.859375 -12.75 2.234375 -12.75 Z M 2.234375 -12.75 "/></g></g></g><g fill="#000000" fill-opacity="1"><g transform="translate(172.296624, 180.084389)"><g><path d="M 6.078125 -0.40625 C 5.773438 -0.1875 5.441406 -0.0234375 5.078125 0.078125 C 4.710938 0.179688 4.335938 0.234375 3.953125 0.234375 C 3.117188 0.222656 2.484375 -0.0078125 2.046875 -0.46875 C 1.617188 -0.9375 1.40625 -1.625 1.40625 -2.53125 L 1.40625 -6.984375 L 0.078125 -6.984375 L 0.078125 -8.46875 L 1.40625 -8.46875 L 1.40625 -10.34375 L 3.453125 -10.578125 L 3.453125 -8.46875 L 5.421875 -8.46875 L 5.21875 -6.984375 L 3.453125 -6.984375 L 3.453125 -2.578125 C 3.453125 -2.160156 3.523438 -1.859375 3.671875 -1.671875 C 3.816406 -1.492188 4.046875 -1.40625 4.359375 -1.40625 C 4.660156 -1.40625 4.992188 -1.507812 5.359375 -1.71875 Z M 6.078125 -0.40625 "/></g></g></g><g fill="#000000" fill-opacity="1"><g transform="translate(178.295182, 180.084389)"><g><path d="M 3.28125 -8.46875 L 3.28125 0 L 1.234375 0 L 1.234375 -8.46875 Z M 2.234375 -12.75 C 2.617188 -12.75 2.929688 -12.628906 3.171875 -12.390625 C 3.410156 -12.148438 3.53125 -11.851562 3.53125 -11.5 C 3.53125 -11.144531 3.410156 -10.847656 3.171875 -10.609375 C 2.929688 -10.378906 2.617188 -10.265625 2.234375 -10.265625 C 1.859375 -10.265625 1.550781 -10.378906 1.3125 -10.609375 C 1.070312 -10.847656 0.953125 -11.144531 0.953125 -11.5 C 0.953125 -11.851562 1.070312 -12.148438 1.3125 -12.390625 C 1.550781 -12.628906 1.859375 -12.75 2.234375 -12.75 Z M 2.234375 -12.75 "/></g></g></g><g fill="#000000" fill-opacity="1"><g transform="translate(182.806099, 180.084389)"><g><path d="M 4.6875 -8.703125 C 5.9375 -8.703125 6.910156 -8.300781 7.609375 -7.5 C 8.304688 -6.707031 8.65625 -5.617188 8.65625 -4.234375 C 8.65625 -3.347656 8.492188 -2.566406 8.171875 -1.890625 C 7.859375 -1.210938 7.398438 -0.6875 6.796875 -0.3125 C 6.203125 0.0507812 5.492188 0.234375 4.671875 0.234375 C 3.421875 0.234375 2.441406 -0.160156 1.734375 -0.953125 C 1.035156 -1.742188 0.6875 -2.835938 0.6875 -4.234375 C 0.6875 -5.117188 0.84375 -5.894531 1.15625 -6.5625 C 1.476562 -7.238281 1.941406 -7.765625 2.546875 -8.140625 C 3.148438 -8.515625 3.863281 -8.703125 4.6875 -8.703125 Z M 4.6875 -7.15625 C 3.457031 -7.15625 2.84375 -6.179688 2.84375 -4.234375 C 2.84375 -3.234375 2.992188 -2.492188 3.296875 -2.015625 C 3.609375 -1.546875 4.066406 -1.3125 4.671875 -1.3125 C 5.273438 -1.3125 5.726562 -1.550781 6.03125 -2.03125 C 6.34375 -2.507812 6.5 -3.242188 6.5 -4.234375 C 6.5 -5.234375 6.34375 -5.96875 6.03125 -6.4375 C 5.726562 -6.914062 5.28125 -7.15625 4.6875 -7.15625 Z M 4.6875 -7.15625 "/></g></g></g><g fill="#000000" fill-opacity="1"><g transform="translate(192.147853, 180.084389)"><g><path d="M 5.75 -8.703125 C 6.5 -8.703125 7.082031 -8.472656 7.5 -8.015625 C 7.925781 -7.566406 8.140625 -6.9375 8.140625 -6.125 L 8.140625 0 L 6.09375 0 L 6.09375 -5.8125 C 6.09375 -6.3125 6.003906 -6.660156 5.828125 -6.859375 C 5.648438 -7.066406 5.394531 -7.171875 5.0625 -7.171875 C 4.707031 -7.171875 4.390625 -7.0625 4.109375 -6.84375 C 3.828125 -6.625 3.550781 -6.304688 3.28125 -5.890625 L 3.28125 0 L 1.234375 0 L 1.234375 -8.46875 L 3.015625 -8.46875 L 3.171875 -7.359375 C 3.859375 -8.253906 4.71875 -8.703125 5.75 -8.703125 Z M 5.75 -8.703125 "/></g></g></g><g fill="#000000" fill-opacity="1"><g transform="translate(201.441622, 180.084389)"><g><path d="M 3.90625 -8.703125 C 5.039062 -8.703125 6.039062 -8.367188 6.90625 -7.703125 L 6.109375 -6.5 C 5.390625 -6.957031 4.679688 -7.1875 3.984375 -7.1875 C 3.578125 -7.1875 3.257812 -7.109375 3.03125 -6.953125 C 2.8125 -6.796875 2.703125 -6.59375 2.703125 -6.34375 C 2.703125 -6.144531 2.75 -5.976562 2.84375 -5.84375 C 2.9375 -5.71875 3.109375 -5.597656 3.359375 -5.484375 C 3.617188 -5.378906 3.992188 -5.257812 4.484375 -5.125 C 5.398438 -4.875 6.078125 -4.546875 6.515625 -4.140625 C 6.960938 -3.734375 7.1875 -3.171875 7.1875 -2.453125 C 7.1875 -1.609375 6.84375 -0.945312 6.15625 -0.46875 C 5.476562 0 4.628906 0.234375 3.609375 0.234375 C 2.921875 0.234375 2.289062 0.128906 1.71875 -0.078125 C 1.144531 -0.296875 0.648438 -0.585938 0.234375 -0.953125 L 1.265625 -2.109375 C 2.003906 -1.554688 2.769531 -1.28125 3.5625 -1.28125 C 4.019531 -1.28125 4.382812 -1.367188 4.65625 -1.546875 C 4.9375 -1.734375 5.078125 -1.984375 5.078125 -2.296875 C 5.078125 -2.546875 5.023438 -2.742188 4.921875 -2.890625 C 4.816406 -3.035156 4.632812 -3.160156 4.375 -3.265625 C 4.113281 -3.378906 3.707031 -3.519531 3.15625 -3.6875 C 2.289062 -3.914062 1.65625 -4.238281 1.25 -4.65625 C 0.84375 -5.082031 0.640625 -5.609375 0.640625 -6.234375 C 0.640625 -6.703125 0.773438 -7.125 1.046875 -7.5 C 1.316406 -7.875 1.695312 -8.164062 2.1875 -8.375 C 2.6875 -8.59375 3.257812 -8.703125 3.90625 -8.703125 Z M 3.90625 -8.703125 "/></g></g></g><g fill="#000000" fill-opacity="1"><g transform="translate(209.055788, 180.084389)"><g/></g></g><g fill="#000000" fill-opacity="1"><g transform="translate(213.054822, 180.084389)"><g><path d="M 8.359375 -11.859375 L 8.359375 0 L 6.546875 0 L 6.40625 -1.078125 C 6.132812 -0.671875 5.789062 -0.347656 5.375 -0.109375 C 4.96875 0.117188 4.503906 0.234375 3.984375 0.234375 C 2.953125 0.234375 2.15625 -0.160156 1.59375 -0.953125 C 1.039062 -1.753906 0.765625 -2.84375 0.765625 -4.21875 C 0.765625 -5.082031 0.898438 -5.851562 1.171875 -6.53125 C 1.453125 -7.207031 1.851562 -7.738281 2.375 -8.125 C 2.894531 -8.507812 3.492188 -8.703125 4.171875 -8.703125 C 4.984375 -8.703125 5.691406 -8.398438 6.296875 -7.796875 L 6.296875 -12.078125 Z M 4.5625 -1.3125 C 4.925781 -1.3125 5.242188 -1.398438 5.515625 -1.578125 C 5.796875 -1.753906 6.054688 -2.03125 6.296875 -2.40625 L 6.296875 -6.265625 C 6.054688 -6.566406 5.8125 -6.789062 5.5625 -6.9375 C 5.3125 -7.09375 5.019531 -7.171875 4.6875 -7.171875 C 4.144531 -7.171875 3.710938 -6.925781 3.390625 -6.4375 C 3.078125 -5.957031 2.921875 -5.222656 2.921875 -4.234375 C 2.921875 -3.191406 3.0625 -2.441406 3.34375 -1.984375 C 3.625 -1.535156 4.03125 -1.3125 4.5625 -1.3125 Z M 4.5625 -1.3125 "/></g></g></g><g fill="#000000" fill-opacity="1"><g transform="translate(222.636525, 180.084389)"><g><path d="M 8.171875 -4.4375 C 8.171875 -4.320312 8.15625 -4.039062 8.125 -3.59375 L 2.8125 -3.59375 C 2.875 -2.78125 3.085938 -2.195312 3.453125 -1.84375 C 3.816406 -1.488281 4.296875 -1.3125 4.890625 -1.3125 C 5.265625 -1.3125 5.617188 -1.375 5.953125 -1.5 C 6.285156 -1.625 6.640625 -1.8125 7.015625 -2.0625 L 7.859375 -0.890625 C 6.921875 -0.140625 5.875 0.234375 4.71875 0.234375 C 3.425781 0.234375 2.429688 -0.15625 1.734375 -0.9375 C 1.035156 -1.726562 0.6875 -2.804688 0.6875 -4.171875 C 0.6875 -5.035156 0.832031 -5.8125 1.125 -6.5 C 1.425781 -7.1875 1.859375 -7.722656 2.421875 -8.109375 C 2.992188 -8.503906 3.671875 -8.703125 4.453125 -8.703125 C 5.628906 -8.703125 6.539062 -8.328125 7.1875 -7.578125 C 7.84375 -6.828125 8.171875 -5.78125 8.171875 -4.4375 Z M 6.140625 -5.03125 C 6.140625 -6.507812 5.59375 -7.25 4.5 -7.25 C 4 -7.25 3.601562 -7.0625 3.3125 -6.6875 C 3.03125 -6.320312 2.863281 -5.734375 2.8125 -4.921875 L 6.140625 -4.921875 Z M 6.140625 -5.03125 "/></g></g></g><g fill="#000000" fill-opacity="1"><g transform="translate(231.418411, 180.084389)"><g/></g></g><g fill="#000000" fill-opacity="1"><g transform="translate(235.417446, 180.084389)"><g><path d="M 6.078125 -0.40625 C 5.773438 -0.1875 5.441406 -0.0234375 5.078125 0.078125 C 4.710938 0.179688 4.335938 0.234375 3.953125 0.234375 C 3.117188 0.222656 2.484375 -0.0078125 2.046875 -0.46875 C 1.617188 -0.9375 1.40625 -1.625 1.40625 -2.53125 L 1.40625 -6.984375 L 0.078125 -6.984375 L 0.078125 -8.46875 L 1.40625 -8.46875 L 1.40625 -10.34375 L 3.453125 -10.578125 L 3.453125 -8.46875 L 5.421875 -8.46875 L 5.21875 -6.984375 L 3.453125 -6.984375 L 3.453125 -2.578125 C 3.453125 -2.160156 3.523438 -1.859375 3.671875 -1.671875 C 3.816406 -1.492188 4.046875 -1.40625 4.359375 -1.40625 C 4.660156 -1.40625 4.992188 -1.507812 5.359375 -1.71875 Z M 6.078125 -0.40625 "/></g></g></g><g fill="#000000" fill-opacity="1"><g transform="translate(241.416003, 180.084389)"><g><path d="M 5.40625 -8.6875 C 5.71875 -8.6875 6 -8.648438 6.25 -8.578125 L 5.90625 -6.59375 C 5.644531 -6.65625 5.394531 -6.6875 5.15625 -6.6875 C 4.65625 -6.6875 4.257812 -6.503906 3.96875 -6.140625 C 3.675781 -5.785156 3.445312 -5.242188 3.28125 -4.515625 L 3.28125 0 L 1.234375 0 L 1.234375 -8.46875 L 3.015625 -8.46875 L 3.203125 -6.796875 C 3.398438 -7.410156 3.691406 -7.878906 4.078125 -8.203125 C 4.460938 -8.523438 4.90625 -8.6875 5.40625 -8.6875 Z M 5.40625 -8.6875 "/></g></g></g><g fill="#000000" fill-opacity="1"><g transform="translate(247.718493, 180.084389)"><g><path d="M 7.484375 -2.234375 C 7.484375 -1.910156 7.535156 -1.671875 7.640625 -1.515625 C 7.742188 -1.359375 7.90625 -1.238281 8.125 -1.15625 L 7.703125 0.203125 C 7.210938 0.160156 6.816406 0.046875 6.515625 -0.140625 C 6.210938 -0.335938 5.984375 -0.632812 5.828125 -1.03125 C 5.535156 -0.601562 5.171875 -0.285156 4.734375 -0.078125 C 4.304688 0.128906 3.828125 0.234375 3.296875 0.234375 C 2.453125 0.234375 1.785156 -0.00390625 1.296875 -0.484375 C 0.804688 -0.960938 0.5625 -1.59375 0.5625 -2.375 C 0.5625 -3.289062 0.894531 -3.988281 1.5625 -4.46875 C 2.226562 -4.957031 3.179688 -5.203125 4.421875 -5.203125 L 5.46875 -5.203125 L 5.46875 -5.6875 C 5.46875 -6.226562 5.34375 -6.609375 5.09375 -6.828125 C 4.84375 -7.046875 4.441406 -7.15625 3.890625 -7.15625 C 3.265625 -7.15625 2.515625 -7.003906 1.640625 -6.703125 L 1.171875 -8.09375 C 2.222656 -8.5 3.242188 -8.703125 4.234375 -8.703125 C 6.398438 -8.703125 7.484375 -7.734375 7.484375 -5.796875 Z M 3.84375 -1.25 C 4.53125 -1.25 5.070312 -1.59375 5.46875 -2.28125 L 5.46875 -4 L 4.625 -4 C 3.300781 -4 2.640625 -3.507812 2.640625 -2.53125 C 2.640625 -2.125 2.738281 -1.804688 2.9375 -1.578125 C 3.144531 -1.359375 3.445312 -1.25 3.84375 -1.25 Z M 3.84375 -1.25 "/></g></g></g><g fill="#000000" fill-opacity="1"><g transform="translate(256.452394, 180.084389)"><g><path d="M 8.03125 -8.46875 L 5.28125 0 L 2.828125 0 L 0.03125 -8.46875 L 2.25 -8.46875 L 4.0625 -1.640625 L 5.921875 -8.46875 Z M 8.03125 -8.46875 "/></g></g></g><g fill="#000000" fill-opacity="1"><g transform="translate(264.514459, 180.084389)"><g><path d="M 7.484375 -2.234375 C 7.484375 -1.910156 7.535156 -1.671875 7.640625 -1.515625 C 7.742188 -1.359375 7.90625 -1.238281 8.125 -1.15625 L 7.703125 0.203125 C 7.210938 0.160156 6.816406 0.046875 6.515625 -0.140625 C 6.210938 -0.335938 5.984375 -0.632812 5.828125 -1.03125 C 5.535156 -0.601562 5.171875 -0.285156 4.734375 -0.078125 C 4.304688 0.128906 3.828125 0.234375 3.296875 0.234375 C 2.453125 0.234375 1.785156 -0.00390625 1.296875 -0.484375 C 0.804688 -0.960938 0.5625 -1.59375 0.5625 -2.375 C 0.5625 -3.289062 0.894531 -3.988281 1.5625 -4.46875 C 2.226562 -4.957031 3.179688 -5.203125 4.421875 -5.203125 L 5.46875 -5.203125 L 5.46875 -5.6875 C 5.46875 -6.226562 5.34375 -6.609375 5.09375 -6.828125 C 4.84375 -7.046875 4.441406 -7.15625 3.890625 -7.15625 C 3.265625 -7.15625 2.515625 -7.003906 1.640625 -6.703125 L 1.171875 -8.09375 C 2.222656 -8.5 3.242188 -8.703125 4.234375 -8.703125 C 6.398438 -8.703125 7.484375 -7.734375 7.484375 -5.796875 Z M 3.84375 -1.25 C 4.53125 -1.25 5.070312 -1.59375 5.46875 -2.28125 L 5.46875 -4 L 4.625 -4 C 3.300781 -4 2.640625 -3.507812 2.640625 -2.53125 C 2.640625 -2.125 2.738281 -1.804688 2.9375 -1.578125 C 3.144531 -1.359375 3.445312 -1.25 3.84375 -1.25 Z M 3.84375 -1.25 "/></g></g></g><g fill="#000000" fill-opacity="1"><g transform="translate(273.24836, 180.084389)"><g><path d="M 3.28125 -8.46875 L 3.28125 0 L 1.234375 0 L 1.234375 -8.46875 Z M 2.234375 -12.75 C 2.617188 -12.75 2.929688 -12.628906 3.171875 -12.390625 C 3.410156 -12.148438 3.53125 -11.851562 3.53125 -11.5 C 3.53125 -11.144531 3.410156 -10.847656 3.171875 -10.609375 C 2.929688 -10.378906 2.617188 -10.265625 2.234375 -10.265625 C 1.859375 -10.265625 1.550781 -10.378906 1.3125 -10.609375 C 1.070312 -10.847656 0.953125 -11.144531 0.953125 -11.5 C 0.953125 -11.851562 1.070312 -12.148438 1.3125 -12.390625 C 1.550781 -12.628906 1.859375 -12.75 2.234375 -12.75 Z M 2.234375 -12.75 "/></g></g></g><g fill="#000000" fill-opacity="1"><g transform="translate(277.759277, 180.084389)"><g><path d="M 3.234375 0.234375 C 2.578125 0.234375 2.066406 0.046875 1.703125 -0.328125 C 1.335938 -0.703125 1.15625 -1.238281 1.15625 -1.9375 L 1.15625 -11.859375 L 3.203125 -12.078125 L 3.203125 -2 C 3.203125 -1.601562 3.363281 -1.40625 3.6875 -1.40625 C 3.84375 -1.40625 4 -1.429688 4.15625 -1.484375 L 4.59375 -0.046875 C 4.164062 0.140625 3.710938 0.234375 3.234375 0.234375 Z M 3.234375 0.234375 "/></g></g></g><g fill="#000000" fill-opacity="1"><g transform="translate(380.39796, 180.084389)"><g><path d="M 5.53125 -11.296875 C 6.53125 -11.296875 7.390625 -11.070312 8.109375 -10.625 C 8.835938 -10.175781 9.394531 -9.519531 9.78125 -8.65625 C 10.175781 -7.789062 10.375 -6.75 10.375 -5.53125 C 10.375 -4.332031 10.175781 -3.300781 9.78125 -2.4375 C 9.382812 -1.570312 8.820312 -0.910156 8.09375 -0.453125 C 7.375 0.00390625 6.519531 0.234375 5.53125 0.234375 C 4.539062 0.234375 3.679688 0.0078125 2.953125 -0.4375 C 2.234375 -0.882812 1.675781 -1.539062 1.28125 -2.40625 C 0.882812 -3.269531 0.6875 -4.304688 0.6875 -5.515625 C 0.6875 -6.710938 0.882812 -7.742188 1.28125 -8.609375 C 1.675781 -9.484375 2.238281 -10.148438 2.96875 -10.609375 C 3.695312 -11.066406 4.550781 -11.296875 5.53125 -11.296875 Z M 5.53125 -9.6875 C 4.675781 -9.6875 4.023438 -9.351562 3.578125 -8.6875 C 3.128906 -8.019531 2.90625 -6.960938 2.90625 -5.515625 C 2.90625 -2.753906 3.78125 -1.375 5.53125 -1.375 C 6.382812 -1.375 7.03125 -1.703125 7.46875 -2.359375 C 7.914062 -3.023438 8.140625 -4.082031 8.140625 -5.53125 C 8.140625 -6.976562 7.914062 -8.03125 7.46875 -8.6875 C 7.03125 -9.351562 6.382812 -9.6875 5.53125 -9.6875 Z M 5.53125 -9.6875 "/></g></g></g><g fill="#000000" fill-opacity="1"><g transform="translate(391.451304, 180.084389)"><g><path d="M 5.609375 -8.703125 C 6.679688 -8.703125 7.472656 -8.3125 7.984375 -7.53125 C 8.492188 -6.757812 8.75 -5.664062 8.75 -4.25 C 8.75 -3.375 8.617188 -2.597656 8.359375 -1.921875 C 8.097656 -1.242188 7.710938 -0.710938 7.203125 -0.328125 C 6.703125 0.046875 6.101562 0.234375 5.40625 0.234375 C 4.507812 0.234375 3.800781 -0.0703125 3.28125 -0.6875 L 3.28125 3.265625 L 1.234375 3.484375 L 1.234375 -8.46875 L 3.03125 -8.46875 L 3.140625 -7.421875 C 3.460938 -7.847656 3.835938 -8.164062 4.265625 -8.375 C 4.691406 -8.59375 5.140625 -8.703125 5.609375 -8.703125 Z M 4.828125 -1.328125 C 6.015625 -1.328125 6.609375 -2.296875 6.609375 -4.234375 C 6.609375 -5.273438 6.472656 -6.023438 6.203125 -6.484375 C 5.941406 -6.941406 5.546875 -7.171875 5.015625 -7.171875 C 4.671875 -7.171875 4.347656 -7.066406 4.046875 -6.859375 C 3.742188 -6.648438 3.488281 -6.367188 3.28125 -6.015625 L 3.28125 -2.203125 C 3.675781 -1.617188 4.191406 -1.328125 4.828125 -1.328125 Z M 4.828125 -1.328125 "/></g></g></g><g fill="#000000" fill-opacity="1"><g transform="translate(400.98501, 180.084389)"><g><path d="M 6.078125 -0.40625 C 5.773438 -0.1875 5.441406 -0.0234375 5.078125 0.078125 C 4.710938 0.179688 4.335938 0.234375 3.953125 0.234375 C 3.117188 0.222656 2.484375 -0.0078125 2.046875 -0.46875 C 1.617188 -0.9375 1.40625 -1.625 1.40625 -2.53125 L 1.40625 -6.984375 L 0.078125 -6.984375 L 0.078125 -8.46875 L 1.40625 -8.46875 L 1.40625 -10.34375 L 3.453125 -10.578125 L 3.453125 -8.46875 L 5.421875 -8.46875 L 5.21875 -6.984375 L 3.453125 -6.984375 L 3.453125 -2.578125 C 3.453125 -2.160156 3.523438 -1.859375 3.671875 -1.671875 C 3.816406 -1.492188 4.046875 -1.40625 4.359375 -1.40625 C 4.660156 -1.40625 4.992188 -1.507812 5.359375 -1.71875 Z M 6.078125 -0.40625 "/></g></g></g><g fill="#000000" fill-opacity="1"><g transform="translate(406.983568, 180.084389)"><g><path d="M 3.28125 -8.46875 L 3.28125 0 L 1.234375 0 L 1.234375 -8.46875 Z M 2.234375 -12.75 C 2.617188 -12.75 2.929688 -12.628906 3.171875 -12.390625 C 3.410156 -12.148438 3.53125 -11.851562 3.53125 -11.5 C 3.53125 -11.144531 3.410156 -10.847656 3.171875 -10.609375 C 2.929688 -10.378906 2.617188 -10.265625 2.234375 -10.265625 C 1.859375 -10.265625 1.550781 -10.378906 1.3125 -10.609375 C 1.070312 -10.847656 0.953125 -11.144531 0.953125 -11.5 C 0.953125 -11.851562 1.070312 -12.148438 1.3125 -12.390625 C 1.550781 -12.628906 1.859375 -12.75 2.234375 -12.75 Z M 2.234375 -12.75 "/></g></g></g><g fill="#000000" fill-opacity="1"><g transform="translate(411.494485, 180.084389)"><g><path d="M 10.203125 -8.703125 C 10.890625 -8.703125 11.4375 -8.46875 11.84375 -8 C 12.25 -7.539062 12.453125 -6.914062 12.453125 -6.125 L 12.453125 0 L 10.40625 0 L 10.40625 -5.8125 C 10.40625 -6.71875 10.09375 -7.171875 9.46875 -7.171875 C 9.132812 -7.171875 8.847656 -7.066406 8.609375 -6.859375 C 8.367188 -6.648438 8.125 -6.328125 7.875 -5.890625 L 7.875 0 L 5.828125 0 L 5.828125 -5.8125 C 5.828125 -6.71875 5.515625 -7.171875 4.890625 -7.171875 C 4.554688 -7.171875 4.265625 -7.066406 4.015625 -6.859375 C 3.773438 -6.648438 3.53125 -6.328125 3.28125 -5.890625 L 3.28125 0 L 1.234375 0 L 1.234375 -8.46875 L 3.015625 -8.46875 L 3.171875 -7.359375 C 3.804688 -8.253906 4.617188 -8.703125 5.609375 -8.703125 C 6.109375 -8.703125 6.535156 -8.578125 6.890625 -8.328125 C 7.242188 -8.078125 7.5 -7.726562 7.65625 -7.28125 C 8 -7.738281 8.375 -8.085938 8.78125 -8.328125 C 9.195312 -8.578125 9.671875 -8.703125 10.203125 -8.703125 Z M 10.203125 -8.703125 "/></g></g></g><g fill="#000000" fill-opacity="1"><g transform="translate(425.091221, 180.084389)"><g><path d="M 3.28125 -8.46875 L 3.28125 0 L 1.234375 0 L 1.234375 -8.46875 Z M 2.234375 -12.75 C 2.617188 -12.75 2.929688 -12.628906 3.171875 -12.390625 C 3.410156 -12.148438 3.53125 -11.851562 3.53125 -11.5 C 3.53125 -11.144531 3.410156 -10.847656 3.171875 -10.609375 C 2.929688 -10.378906 2.617188 -10.265625 2.234375 -10.265625 C 1.859375 -10.265625 1.550781 -10.378906 1.3125 -10.609375 C 1.070312 -10.847656 0.953125 -11.144531 0.953125 -11.5 C 0.953125 -11.851562 1.070312 -12.148438 1.3125 -12.390625 C 1.550781 -12.628906 1.859375 -12.75 2.234375 -12.75 Z M 2.234375 -12.75 "/></g></g></g><g fill="#000000" fill-opacity="1"><g transform="translate(429.602139, 180.084389)"><g><path d="M 3.90625 -8.703125 C 5.039062 -8.703125 6.039062 -8.367188 6.90625 -7.703125 L 6.109375 -6.5 C 5.390625 -6.957031 4.679688 -7.1875 3.984375 -7.1875 C 3.578125 -7.1875 3.257812 -7.109375 3.03125 -6.953125 C 2.8125 -6.796875 2.703125 -6.59375 2.703125 -6.34375 C 2.703125 -6.144531 2.75 -5.976562 2.84375 -5.84375 C 2.9375 -5.71875 3.109375 -5.597656 3.359375 -5.484375 C 3.617188 -5.378906 3.992188 -5.257812 4.484375 -5.125 C 5.398438 -4.875 6.078125 -4.546875 6.515625 -4.140625 C 6.960938 -3.734375 7.1875 -3.171875 7.1875 -2.453125 C 7.1875 -1.609375 6.84375 -0.945312 6.15625 -0.46875 C 5.476562 0 4.628906 0.234375 3.609375 0.234375 C 2.921875 0.234375 2.289062 0.128906 1.71875 -0.078125 C 1.144531 -0.296875 0.648438 -0.585938 0.234375 -0.953125 L 1.265625 -2.109375 C 2.003906 -1.554688 2.769531 -1.28125 3.5625 -1.28125 C 4.019531 -1.28125 4.382812 -1.367188 4.65625 -1.546875 C 4.9375 -1.734375 5.078125 -1.984375 5.078125 -2.296875 C 5.078125 -2.546875 5.023438 -2.742188 4.921875 -2.890625 C 4.816406 -3.035156 4.632812 -3.160156 4.375 -3.265625 C 4.113281 -3.378906 3.707031 -3.519531 3.15625 -3.6875 C 2.289062 -3.914062 1.65625 -4.238281 1.25 -4.65625 C 0.84375 -5.082031 0.640625 -5.609375 0.640625 -6.234375 C 0.640625 -6.703125 0.773438 -7.125 1.046875 -7.5 C 1.316406 -7.875 1.695312 -8.164062 2.1875 -8.375 C 2.6875 -8.59375 3.257812 -8.703125 3.90625 -8.703125 Z M 3.90625 -8.703125 "/></g></g></g><g fill="#000000" fill-opacity="1"><g transform="translate(437.216304, 180.084389)"><g><path d="M 8.171875 -4.4375 C 8.171875 -4.320312 8.15625 -4.039062 8.125 -3.59375 L 2.8125 -3.59375 C 2.875 -2.78125 3.085938 -2.195312 3.453125 -1.84375 C 3.816406 -1.488281 4.296875 -1.3125 4.890625 -1.3125 C 5.265625 -1.3125 5.617188 -1.375 5.953125 -1.5 C 6.285156 -1.625 6.640625 -1.8125 7.015625 -2.0625 L 7.859375 -0.890625 C 6.921875 -0.140625 5.875 0.234375 4.71875 0.234375 C 3.425781 0.234375 2.429688 -0.15625 1.734375 -0.9375 C 1.035156 -1.726562 0.6875 -2.804688 0.6875 -4.171875 C 0.6875 -5.035156 0.832031 -5.8125 1.125 -6.5 C 1.425781 -7.1875 1.859375 -7.722656 2.421875 -8.109375 C 2.992188 -8.503906 3.671875 -8.703125 4.453125 -8.703125 C 5.628906 -8.703125 6.539062 -8.328125 7.1875 -7.578125 C 7.84375 -6.828125 8.171875 -5.78125 8.171875 -4.4375 Z M 6.140625 -5.03125 C 6.140625 -6.507812 5.59375 -7.25 4.5 -7.25 C 4 -7.25 3.601562 -7.0625 3.3125 -6.6875 C 3.03125 -6.320312 2.863281 -5.734375 2.8125 -4.921875 L 6.140625 -4.921875 Z M 6.140625 -5.03125 "/></g></g></g><g fill="#000000" fill-opacity="1"><g transform="translate(445.998191, 180.084389)"><g><path d="M 5.40625 -8.6875 C 5.71875 -8.6875 6 -8.648438 6.25 -8.578125 L 5.90625 -6.59375 C 5.644531 -6.65625 5.394531 -6.6875 5.15625 -6.6875 C 4.65625 -6.6875 4.257812 -6.503906 3.96875 -6.140625 C 3.675781 -5.785156 3.445312 -5.242188 3.28125 -4.515625 L 3.28125 0 L 1.234375 0 L 1.234375 -8.46875 L 3.015625 -8.46875 L 3.203125 -6.796875 C 3.398438 -7.410156 3.691406 -7.878906 4.078125 -8.203125 C 4.460938 -8.523438 4.90625 -8.6875 5.40625 -8.6875 Z M 5.40625 -8.6875 "/></g></g></g><g clip-path="url(#8bd021a162)"><g clip-path="url(#611910cb11)"><path stroke-linecap="butt" transform="matrix(0.750963, 0, 0, 0.753769, 358.207425, 119.230668)" fill="none" stroke-linejoin="miter" d="M 66.903147 -0.000264754 C 29.9558 -0.000264754 -0.000524814 11.13648 -0.000524814 24.874736 C -0.000524814 38.612991 29.9558 49.749736 66.903147 49.749736 C 103.855695 49.749736 133.806818 38.612991 133.806818 24.874736 C 133.806818 11.13648 103.855695 -0.000264754 66.903147 -0.000264754 " stroke="#000000" stroke-width="2" stroke-opacity="1" stroke-miterlimit="4"/></g></g><g fill="#000000" fill-opacity="1"><g transform="translate(173.023555, 246.728534)"><g><path d="M 8.046875 0 L 7.265625 -2.875 L 3.15625 -2.875 L 2.375 0 L -0.09375 0 L 3.78125 -12.4375 L 6.71875 -12.4375 L 10.5625 0 Z M 3.625 -4.6875 L 6.78125 -4.6875 L 5.203125 -10.625 Z M 3.625 -4.6875 "/></g></g></g><g fill="#000000" fill-opacity="1"><g transform="translate(183.510748, 246.728534)"><g><path d="M 11.484375 -9.796875 C 12.253906 -9.796875 12.863281 -9.53125 13.3125 -9 C 13.769531 -8.476562 14 -7.773438 14 -6.890625 L 14 0 L 11.703125 0 L 11.703125 -6.53125 C 11.703125 -7.550781 11.351562 -8.0625 10.65625 -8.0625 C 10.28125 -8.0625 9.957031 -7.941406 9.6875 -7.703125 C 9.414062 -7.472656 9.140625 -7.113281 8.859375 -6.625 L 8.859375 0 L 6.546875 0 L 6.546875 -6.53125 C 6.546875 -7.550781 6.203125 -8.0625 5.515625 -8.0625 C 5.128906 -8.0625 4.800781 -7.941406 4.53125 -7.703125 C 4.257812 -7.472656 3.976562 -7.113281 3.6875 -6.625 L 3.6875 0 L 1.390625 0 L 1.390625 -9.515625 L 3.390625 -9.515625 L 3.5625 -8.28125 C 4.28125 -9.289062 5.195312 -9.796875 6.3125 -9.796875 C 6.863281 -9.796875 7.34375 -9.65625 7.75 -9.375 C 8.15625 -9.09375 8.445312 -8.695312 8.625 -8.1875 C 9.007812 -8.707031 9.429688 -9.101562 9.890625 -9.375 C 10.347656 -9.65625 10.878906 -9.796875 11.484375 -9.796875 Z M 11.484375 -9.796875 "/></g></g></g><g fill="#000000" fill-opacity="1"><g transform="translate(198.800821, 246.728534)"><g><path d="M 9.203125 -4.984375 C 9.203125 -4.867188 9.179688 -4.554688 9.140625 -4.046875 L 3.171875 -4.046875 C 3.242188 -3.117188 3.484375 -2.457031 3.890625 -2.0625 C 4.296875 -1.664062 4.835938 -1.46875 5.515625 -1.46875 C 5.929688 -1.46875 6.320312 -1.535156 6.6875 -1.671875 C 7.0625 -1.816406 7.460938 -2.035156 7.890625 -2.328125 L 8.84375 -1.015625 C 7.78125 -0.160156 6.601562 0.265625 5.3125 0.265625 C 3.851562 0.265625 2.734375 -0.175781 1.953125 -1.0625 C 1.171875 -1.945312 0.78125 -3.160156 0.78125 -4.703125 C 0.78125 -5.671875 0.945312 -6.539062 1.28125 -7.3125 C 1.613281 -8.09375 2.097656 -8.703125 2.734375 -9.140625 C 3.367188 -9.578125 4.125 -9.796875 5 -9.796875 C 6.332031 -9.796875 7.363281 -9.367188 8.09375 -8.515625 C 8.832031 -7.671875 9.203125 -6.492188 9.203125 -4.984375 Z M 6.90625 -5.65625 C 6.90625 -7.320312 6.289062 -8.15625 5.0625 -8.15625 C 4.5 -8.15625 4.054688 -7.945312 3.734375 -7.53125 C 3.421875 -7.113281 3.234375 -6.453125 3.171875 -5.546875 L 6.90625 -5.546875 Z M 6.4375 -14.765625 L 7.359375 -12.953125 L 3.296875 -11.34375 L 2.65625 -12.515625 Z M 6.4375 -14.765625 "/></g></g></g><g fill="#000000" fill-opacity="1"><g transform="translate(208.676407, 246.728534)"><g><path d="M 3.640625 0.265625 C 2.898438 0.265625 2.320312 0.0507812 1.90625 -0.375 C 1.5 -0.800781 1.296875 -1.398438 1.296875 -2.171875 L 1.296875 -13.34375 L 3.59375 -13.59375 L 3.59375 -2.25 C 3.59375 -1.800781 3.773438 -1.578125 4.140625 -1.578125 C 4.316406 -1.578125 4.5 -1.609375 4.6875 -1.671875 L 5.171875 -0.046875 C 4.691406 0.160156 4.179688 0.265625 3.640625 0.265625 Z M 3.640625 0.265625 "/></g></g></g><g fill="#000000" fill-opacity="1"><g transform="translate(213.982964, 246.728534)"><g><path d="M 3.6875 -9.515625 L 3.6875 0 L 1.390625 0 L 1.390625 -9.515625 Z M 2.515625 -14.34375 C 2.953125 -14.34375 3.300781 -14.207031 3.5625 -13.9375 C 3.832031 -13.664062 3.96875 -13.332031 3.96875 -12.9375 C 3.96875 -12.539062 3.832031 -12.210938 3.5625 -11.953125 C 3.300781 -11.691406 2.953125 -11.5625 2.515625 -11.5625 C 2.097656 -11.5625 1.753906 -11.691406 1.484375 -11.953125 C 1.210938 -12.210938 1.078125 -12.539062 1.078125 -12.9375 C 1.078125 -13.332031 1.210938 -13.664062 1.484375 -13.9375 C 1.753906 -14.207031 2.097656 -14.34375 2.515625 -14.34375 Z M 2.515625 -14.34375 "/></g></g></g><g fill="#000000" fill-opacity="1"><g transform="translate(219.055671, 246.728534)"><g><path d="M 5.28125 -9.796875 C 6.675781 -9.796875 7.765625 -9.347656 8.546875 -8.453125 C 9.335938 -7.554688 9.734375 -6.328125 9.734375 -4.765625 C 9.734375 -3.773438 9.550781 -2.894531 9.1875 -2.125 C 8.832031 -1.363281 8.316406 -0.773438 7.640625 -0.359375 C 6.972656 0.0546875 6.175781 0.265625 5.25 0.265625 C 3.851562 0.265625 2.757812 -0.175781 1.96875 -1.0625 C 1.175781 -1.957031 0.78125 -3.191406 0.78125 -4.765625 C 0.78125 -5.765625 0.957031 -6.640625 1.3125 -7.390625 C 1.675781 -8.148438 2.195312 -8.738281 2.875 -9.15625 C 3.550781 -9.582031 4.351562 -9.796875 5.28125 -9.796875 Z M 5.28125 -8.046875 C 3.894531 -8.046875 3.203125 -6.953125 3.203125 -4.765625 C 3.203125 -3.640625 3.375 -2.804688 3.71875 -2.265625 C 4.0625 -1.734375 4.570312 -1.46875 5.25 -1.46875 C 5.9375 -1.46875 6.453125 -1.738281 6.796875 -2.28125 C 7.140625 -2.820312 7.3125 -3.648438 7.3125 -4.765625 C 7.3125 -5.878906 7.140625 -6.703125 6.796875 -7.234375 C 6.453125 -7.773438 5.945312 -8.046875 5.28125 -8.046875 Z M 5.28125 -8.046875 "/></g></g></g><g fill="#000000" fill-opacity="1"><g transform="translate(229.560855, 246.728534)"><g><path d="M 6.078125 -9.78125 C 6.429688 -9.78125 6.75 -9.734375 7.03125 -9.640625 L 6.640625 -7.421875 C 6.347656 -7.492188 6.066406 -7.53125 5.796875 -7.53125 C 5.234375 -7.53125 4.789062 -7.328125 4.46875 -6.921875 C 4.144531 -6.515625 3.882812 -5.898438 3.6875 -5.078125 L 3.6875 0 L 1.390625 0 L 1.390625 -9.515625 L 3.390625 -9.515625 L 3.59375 -7.65625 C 3.820312 -8.332031 4.148438 -8.851562 4.578125 -9.21875 C 5.015625 -9.59375 5.515625 -9.78125 6.078125 -9.78125 Z M 6.078125 -9.78125 "/></g></g></g><g fill="#000000" fill-opacity="1"><g transform="translate(236.648249, 246.728534)"><g><path d="M 9.203125 -4.984375 C 9.203125 -4.867188 9.179688 -4.554688 9.140625 -4.046875 L 3.171875 -4.046875 C 3.242188 -3.117188 3.484375 -2.457031 3.890625 -2.0625 C 4.296875 -1.664062 4.835938 -1.46875 5.515625 -1.46875 C 5.929688 -1.46875 6.320312 -1.535156 6.6875 -1.671875 C 7.0625 -1.816406 7.460938 -2.035156 7.890625 -2.328125 L 8.84375 -1.015625 C 7.78125 -0.160156 6.601562 0.265625 5.3125 0.265625 C 3.851562 0.265625 2.734375 -0.175781 1.953125 -1.0625 C 1.171875 -1.945312 0.78125 -3.160156 0.78125 -4.703125 C 0.78125 -5.671875 0.945312 -6.539062 1.28125 -7.3125 C 1.613281 -8.09375 2.097656 -8.703125 2.734375 -9.140625 C 3.367188 -9.578125 4.125 -9.796875 5 -9.796875 C 6.332031 -9.796875 7.363281 -9.367188 8.09375 -8.515625 C 8.832031 -7.671875 9.203125 -6.492188 9.203125 -4.984375 Z M 6.90625 -5.65625 C 6.90625 -7.320312 6.289062 -8.15625 5.0625 -8.15625 C 4.5 -8.15625 4.054688 -7.945312 3.734375 -7.53125 C 3.421875 -7.113281 3.234375 -6.453125 3.171875 -5.546875 L 6.90625 -5.546875 Z M 6.90625 -5.65625 "/></g></g></g><g fill="#000000" fill-opacity="1"><g transform="translate(246.523836, 246.728534)"><g><path d="M 6.078125 -9.78125 C 6.429688 -9.78125 6.75 -9.734375 7.03125 -9.640625 L 6.640625 -7.421875 C 6.347656 -7.492188 6.066406 -7.53125 5.796875 -7.53125 C 5.234375 -7.53125 4.789062 -7.328125 4.46875 -6.921875 C 4.144531 -6.515625 3.882812 -5.898438 3.6875 -5.078125 L 3.6875 0 L 1.390625 0 L 1.390625 -9.515625 L 3.390625 -9.515625 L 3.59375 -7.65625 C 3.820312 -8.332031 4.148438 -8.851562 4.578125 -9.21875 C 5.015625 -9.59375 5.515625 -9.78125 6.078125 -9.78125 Z M 6.078125 -9.78125 "/></g></g></g><g fill="#000000" fill-opacity="1"><g transform="translate(388.204404, 142.765258)"><g><path d="M 5.765625 -11.296875 C 6.484375 -11.296875 7.125 -11.1875 7.6875 -10.96875 C 8.25 -10.75 8.78125 -10.425781 9.28125 -10 L 8.140625 -8.8125 C 7.742188 -9.125 7.375 -9.347656 7.03125 -9.484375 C 6.6875 -9.628906 6.285156 -9.703125 5.828125 -9.703125 C 4.972656 -9.703125 4.269531 -9.359375 3.71875 -8.671875 C 3.175781 -7.984375 2.90625 -6.9375 2.90625 -5.53125 C 2.90625 -4.0625 3.117188 -3 3.546875 -2.34375 C 3.984375 -1.695312 4.644531 -1.375 5.53125 -1.375 C 6.207031 -1.375 6.796875 -1.519531 7.296875 -1.8125 L 7.296875 -4.6875 L 5.625 -4.6875 L 5.40625 -6.25 L 9.375 -6.25 L 9.375 -0.84375 C 8.175781 -0.125 6.90625 0.234375 5.5625 0.234375 C 3.988281 0.234375 2.78125 -0.253906 1.9375 -1.234375 C 1.101562 -2.210938 0.6875 -3.644531 0.6875 -5.53125 C 0.6875 -6.738281 0.910156 -7.773438 1.359375 -8.640625 C 1.816406 -9.515625 2.429688 -10.175781 3.203125 -10.625 C 3.972656 -11.070312 4.828125 -11.296875 5.765625 -11.296875 Z M 5.765625 -11.296875 "/></g></g></g><g fill="#000000" fill-opacity="1"><g transform="translate(398.409947, 142.765258)"><g><path d="M 7.484375 -2.234375 C 7.484375 -1.910156 7.535156 -1.671875 7.640625 -1.515625 C 7.742188 -1.359375 7.90625 -1.238281 8.125 -1.15625 L 7.703125 0.203125 C 7.210938 0.160156 6.816406 0.046875 6.515625 -0.140625 C 6.210938 -0.335938 5.984375 -0.632812 5.828125 -1.03125 C 5.535156 -0.601562 5.171875 -0.285156 4.734375 -0.078125 C 4.304688 0.128906 3.828125 0.234375 3.296875 0.234375 C 2.453125 0.234375 1.785156 -0.00390625 1.296875 -0.484375 C 0.804688 -0.960938 0.5625 -1.59375 0.5625 -2.375 C 0.5625 -3.289062 0.894531 -3.988281 1.5625 -4.46875 C 2.226562 -4.957031 3.179688 -5.203125 4.421875 -5.203125 L 5.46875 -5.203125 L 5.46875 -5.6875 C 5.46875 -6.226562 5.34375 -6.609375 5.09375 -6.828125 C 4.84375 -7.046875 4.441406 -7.15625 3.890625 -7.15625 C 3.265625 -7.15625 2.515625 -7.003906 1.640625 -6.703125 L 1.171875 -8.09375 C 2.222656 -8.5 3.242188 -8.703125 4.234375 -8.703125 C 6.398438 -8.703125 7.484375 -7.734375 7.484375 -5.796875 Z M 3.84375 -1.25 C 4.53125 -1.25 5.070312 -1.59375 5.46875 -2.28125 L 5.46875 -4 L 4.625 -4 C 3.300781 -4 2.640625 -3.507812 2.640625 -2.53125 C 2.640625 -2.125 2.738281 -1.804688 2.9375 -1.578125 C 3.144531 -1.359375 3.445312 -1.25 3.84375 -1.25 Z M 3.84375 -1.25 "/></g></g></g><g fill="#000000" fill-opacity="1"><g transform="translate(407.143848, 142.765258)"><g><path d="M 3.28125 -8.46875 L 3.28125 0 L 1.234375 0 L 1.234375 -8.46875 Z M 2.234375 -12.75 C 2.617188 -12.75 2.929688 -12.628906 3.171875 -12.390625 C 3.410156 -12.148438 3.53125 -11.851562 3.53125 -11.5 C 3.53125 -11.144531 3.410156 -10.847656 3.171875 -10.609375 C 2.929688 -10.378906 2.617188 -10.265625 2.234375 -10.265625 C 1.859375 -10.265625 1.550781 -10.378906 1.3125 -10.609375 C 1.070312 -10.847656 0.953125 -11.144531 0.953125 -11.5 C 0.953125 -11.851562 1.070312 -12.148438 1.3125 -12.390625 C 1.550781 -12.628906 1.859375 -12.75 2.234375 -12.75 Z M 2.234375 -12.75 "/></g></g></g><g fill="#000000" fill-opacity="1"><g transform="translate(411.654765, 142.765258)"><g><path d="M 5.75 -8.703125 C 6.5 -8.703125 7.082031 -8.472656 7.5 -8.015625 C 7.925781 -7.566406 8.140625 -6.9375 8.140625 -6.125 L 8.140625 0 L 6.09375 0 L 6.09375 -5.8125 C 6.09375 -6.3125 6.003906 -6.660156 5.828125 -6.859375 C 5.648438 -7.066406 5.394531 -7.171875 5.0625 -7.171875 C 4.707031 -7.171875 4.390625 -7.0625 4.109375 -6.84375 C 3.828125 -6.625 3.550781 -6.304688 3.28125 -5.890625 L 3.28125 0 L 1.234375 0 L 1.234375 -8.46875 L 3.015625 -8.46875 L 3.171875 -7.359375 C 3.859375 -8.253906 4.71875 -8.703125 5.75 -8.703125 Z M 5.75 -8.703125 "/></g></g></g><g fill="#000000" fill-opacity="1"><g transform="translate(420.948534, 142.765258)"><g><path d="M 3.90625 -8.703125 C 5.039062 -8.703125 6.039062 -8.367188 6.90625 -7.703125 L 6.109375 -6.5 C 5.390625 -6.957031 4.679688 -7.1875 3.984375 -7.1875 C 3.578125 -7.1875 3.257812 -7.109375 3.03125 -6.953125 C 2.8125 -6.796875 2.703125 -6.59375 2.703125 -6.34375 C 2.703125 -6.144531 2.75 -5.976562 2.84375 -5.84375 C 2.9375 -5.71875 3.109375 -5.597656 3.359375 -5.484375 C 3.617188 -5.378906 3.992188 -5.257812 4.484375 -5.125 C 5.398438 -4.875 6.078125 -4.546875 6.515625 -4.140625 C 6.960938 -3.734375 7.1875 -3.171875 7.1875 -2.453125 C 7.1875 -1.609375 6.84375 -0.945312 6.15625 -0.46875 C 5.476562 0 4.628906 0.234375 3.609375 0.234375 C 2.921875 0.234375 2.289062 0.128906 1.71875 -0.078125 C 1.144531 -0.296875 0.648438 -0.585938 0.234375 -0.953125 L 1.265625 -2.109375 C 2.003906 -1.554688 2.769531 -1.28125 3.5625 -1.28125 C 4.019531 -1.28125 4.382812 -1.367188 4.65625 -1.546875 C 4.9375 -1.734375 5.078125 -1.984375 5.078125 -2.296875 C 5.078125 -2.546875 5.023438 -2.742188 4.921875 -2.890625 C 4.816406 -3.035156 4.632812 -3.160156 4.375 -3.265625 C 4.113281 -3.378906 3.707031 -3.519531 3.15625 -3.6875 C 2.289062 -3.914062 1.65625 -4.238281 1.25 -4.65625 C 0.84375 -5.082031 0.640625 -5.609375 0.640625 -6.234375 C 0.640625 -6.703125 0.773438 -7.125 1.046875 -7.5 C 1.316406 -7.875 1.695312 -8.164062 2.1875 -8.375 C 2.6875 -8.59375 3.257812 -8.703125 3.90625 -8.703125 Z M 3.90625 -8.703125 "/></g></g></g></svg>