<?xml version="1.0" standalone="no"?>
<!DOCTYPE svg PUBLIC "-//W3C//DTD SVG 20010904//EN"
 "http://www.w3.org/TR/2001/REC-SVG-20010904/DTD/svg10.dtd">
<svg version="1.0" xmlns="http://www.w3.org/2000/svg"
 width="1060.000000pt" height="487.000000pt" viewBox="0 0 1060.000000 487.000000"
 preserveAspectRatio="xMidYMid meet">
<metadata>
Created by potrace 1.16, written by Peter Selinger 2001-2019
</metadata>
<g transform="translate(0.000000,487.000000) scale(0.100000,-0.100000)"
fill="#000000" stroke="none">
<path d="M3967 4443 c-4 -3 -7 -86 -7 -184 l0 -177 -40 -32 c-30 -24 -38 -36
-30 -44 7 -9 -112 -194 -438 -680 l-447 -668 -3 186 -2 186 -1280 0 -1280 0 0
-395 0 -395 1280 0 1280 0 2 182 3 182 452 -809 c377 -675 450 -812 438 -821
-12 -9 -8 -16 25 -43 l40 -32 0 -184 0 -185 1130 0 1130 0 0 175 0 175 145 0
145 0 0 1090 0 1090 525 0 c460 0 525 -2 525 -15 0 -8 2 -15 4 -15 2 0 23 7
46 15 23 8 44 15 46 15 2 0 5 -87 6 -192 l3 -193 1015 0 1015 0 3 393 2 392
-1017 -2 -1018 -3 -3 -192 -2 -193 -50 19 c-49 19 -50 19 -50 0 0 -18 -15 -19
-525 -19 l-525 0 0 510 0 510 -145 0 -145 0 0 180 0 180 -1123 0 c-618 0
-1127 -3 -1130 -7z m2243 -358 l0 -345 -1115 0 -1115 0 0 345 0 345 1115 0
1115 0 0 -345z m290 -510 l0 -505 -140 0 -140 0 0 180 0 180 -1127 -2 -1128
-3 -5 -180 -5 -180 -51 -3 c-43 -2 -51 -6 -47 -20 3 -14 -74 -52 -414 -204
-230 -103 -419 -185 -421 -183 -2 2 197 302 442 668 314 468 451 664 463 663
10 0 19 9 24 24 4 14 7 -44 8 -127 l1 -153 1130 0 1130 0 0 175 0 175 140 0
140 0 0 -505z m3190 -505 l0 -380 -1005 0 -1005 0 0 380 0 380 1005 0 1005 0
0 -380z m-3480 0 l0 -350 -1115 0 -1115 0 0 350 0 350 1115 0 1115 0 0 -350z
m290 -1095 l0 -1085 -140 0 -140 0 0 180 0 180 -560 0 -560 0 0 83 c0 45 3
133 7 195 5 88 9 112 21 112 10 0 12 7 8 25 l-6 25 545 0 545 0 0 360 0 360
-1127 -2 -1128 -3 -5 -170 -5 -170 -29 38 c-26 33 -31 37 -41 23 -10 -13 -70
20 -421 230 -225 135 -420 252 -433 261 -23 15 -9 21 403 205 331 147 430 187
441 178 10 -8 21 -4 49 21 l36 31 0 -171 0 -171 1130 0 1130 0 0 175 0 175
140 0 140 0 0 -1085z m-3510 655 l0 -380 -1270 0 -1270 0 0 380 0 380 1270 0
1270 0 0 -380z m440 -265 c489 -293 444 -263 430 -280 -8 -10 -3 -14 27 -19
79 -14 73 2 73 -197 l0 -179 560 0 560 0 -6 -25 c-5 -20 -2 -25 11 -25 16 0
17 -9 12 -97 -4 -54 -7 -142 -7 -195 l0 -98 -562 -2 -563 -3 -5 -135 c-3 -74
-7 -129 -8 -122 -1 7 -9 12 -18 10 -13 -2 -129 196 -465 797 -247 440 -448
804 -449 808 0 5 3 6 8 4 4 -3 185 -112 402 -242z m2780 -315 l0 -350 -544 0
-544 0 -7 28 -7 27 -10 -27 -10 -28 -554 0 -554 0 0 350 0 350 1115 0 1115 0
0 -350z m0 -1160 l0 -350 -1115 0 -1115 0 0 350 0 350 1115 0 1115 0 0 -350z"/>
<path d="M730 4142 c0 -18 19 -19 338 -25 185 -4 388 -7 450 -7 l112 0 0 25 0
25 -450 0 c-430 0 -450 -1 -450 -18z"/>
</g>
</svg>
